<?xml version="1.0" encoding="utf-8" standalone="no"?>
<!DOCTYPE svg PUBLIC "-//W3C//DTD SVG 1.1//EN"
  "http://www.w3.org/Graphics/SVG/1.1/DTD/svg11.dtd">
<svg xmlns:xlink="http://www.w3.org/1999/xlink" width="687.610376pt" height="148.4966pt" viewBox="0 0 687.610376 148.4966" xmlns="http://www.w3.org/2000/svg" version="1.1">
 <metadata>
  <rdf:RDF xmlns:dc="http://purl.org/dc/elements/1.1/" xmlns:cc="http://creativecommons.org/ns#" xmlns:rdf="http://www.w3.org/1999/02/22-rdf-syntax-ns#">
   <cc:Work>
    <dc:type rdf:resource="http://purl.org/dc/dcmitype/StillImage"/>
    <dc:date>2026-02-13T14:51:03.210898</dc:date>
    <dc:format>image/svg+xml</dc:format>
    <dc:creator>
     <cc:Agent>
      <dc:title>Matplotlib v3.10.8, https://matplotlib.org/</dc:title>
     </cc:Agent>
    </dc:creator>
   </cc:Work>
  </rdf:RDF>
 </metadata>
 <defs>
  <style type="text/css">*{stroke-linejoin: round; stroke-linecap: butt}</style>
 </defs>
 <g id="figure_1">
  <g id="patch_1">
   <path d="M 0 148.4966 
L 687.610376 148.4966 
L 687.610376 0 
L 0 0 
z
" style="fill: #ffffff"/>
  </g>
  <g id="axes_1">
   <g id="patch_2">
    <path d="M 10.810376 118.08 
L 680.410376 118.08 
L 680.410376 7.2 
L 10.810376 7.2 
z
" style="fill: #ffffff"/>
   </g>
   <g id="patch_3">
    <path d="M 12.0928 95.691642 
L 260.455528 95.691642 
L 260.455528 73.515642 
L 12.0928 73.515642 
z
" clip-path="url(#p1c4d93ea97)" style="fill: #ebeaea"/>
   </g>
   <g id="patch_4">
    <path d="M 284.821579 95.691642 
L 679.127953 95.691642 
L 679.127953 73.515642 
L 284.821579 73.515642 
z
" clip-path="url(#p1c4d93ea97)" style="fill: #ebeaea"/>
   </g>
   <g id="patch_5">
    <path d="M 12.0928 95.691642 
L 260.455528 95.691642 
L 260.455528 73.515642 
L 12.0928 73.515642 
L 12.0928 95.691642 
z
" clip-path="url(#p1c4d93ea97)" style="fill: none; stroke: #000000; stroke-width: 0.7; stroke-linejoin: miter"/>
   </g>
   <g id="patch_6">
    <path d="M 284.821579 95.691642 
L 679.127953 95.691642 
L 679.127953 73.515642 
L 284.821579 73.515642 
L 284.821579 95.691642 
z
" clip-path="url(#p1c4d93ea97)" style="fill: none; stroke: #000000; stroke-width: 0.7; stroke-linejoin: miter"/>
   </g>
   <g id="matplotlib.axis_1">
    <g id="xtick_1">
     <g id="line2d_1">
      <defs>
       <path id="mb896658256" d="M 0 0 
L 0 3.84 
" style="stroke: #262626; stroke-width: 0.8"/>
      </defs>
      <g>
       <use xlink:href="#mb896658256" x="12.0928" y="118.08" style="fill: #262626; stroke: #262626; stroke-width: 0.8"/>
      </g>
     </g>
     <g id="text_1">
      <!-- 0.0 -->
      <g style="fill: #262626" transform="translate(7.2 130.4591) scale(0.0704 -0.0704)">
       <defs>
        <path id="ArialMT-30" d="M 266 2259 
Q 266 3072 433 3567 
Q 600 4063 929 4331 
Q 1259 4600 1759 4600 
Q 2128 4600 2406 4451 
Q 2684 4303 2865 4023 
Q 3047 3744 3150 3342 
Q 3253 2941 3253 2259 
Q 3253 1453 3087 958 
Q 2922 463 2592 192 
Q 2263 -78 1759 -78 
Q 1097 -78 719 397 
Q 266 969 266 2259 
z
M 844 2259 
Q 844 1131 1108 757 
Q 1372 384 1759 384 
Q 2147 384 2411 759 
Q 2675 1134 2675 2259 
Q 2675 3391 2411 3762 
Q 2147 4134 1753 4134 
Q 1366 4134 1134 3806 
Q 844 3388 844 2259 
z
" transform="scale(0.015625)"/>
        <path id="ArialMT-2e" d="M 581 0 
L 581 641 
L 1222 641 
L 1222 0 
L 581 0 
z
" transform="scale(0.015625)"/>
       </defs>
       <use xlink:href="#ArialMT-30"/>
       <use xlink:href="#ArialMT-2e" transform="translate(55.615234 0)"/>
       <use xlink:href="#ArialMT-30" transform="translate(83.398438 0)"/>
      </g>
     </g>
    </g>
    <g id="xtick_2">
     <g id="line2d_2">
      <g>
       <use xlink:href="#mb896658256" x="54.840257" y="118.08" style="fill: #262626; stroke: #262626; stroke-width: 0.8"/>
      </g>
     </g>
     <g id="text_2">
      <!-- 0.1 -->
      <g style="fill: #262626" transform="translate(49.947457 130.4591) scale(0.0704 -0.0704)">
       <defs>
        <path id="ArialMT-31" d="M 2384 0 
L 1822 0 
L 1822 3584 
Q 1619 3391 1289 3197 
Q 959 3003 697 2906 
L 697 3450 
Q 1169 3672 1522 3987 
Q 1875 4303 2022 4600 
L 2384 4600 
L 2384 0 
z
" transform="scale(0.015625)"/>
       </defs>
       <use xlink:href="#ArialMT-30"/>
       <use xlink:href="#ArialMT-2e" transform="translate(55.615234 0)"/>
       <use xlink:href="#ArialMT-31" transform="translate(83.398438 0)"/>
      </g>
     </g>
    </g>
    <g id="xtick_3">
     <g id="line2d_3">
      <g>
       <use xlink:href="#mb896658256" x="97.587715" y="118.08" style="fill: #262626; stroke: #262626; stroke-width: 0.8"/>
      </g>
     </g>
     <g id="text_3">
      <!-- 0.2 -->
      <g style="fill: #262626" transform="translate(92.694915 130.4591) scale(0.0704 -0.0704)">
       <defs>
        <path id="ArialMT-32" d="M 3222 541 
L 3222 0 
L 194 0 
Q 188 203 259 391 
Q 375 700 629 1000 
Q 884 1300 1366 1694 
Q 2113 2306 2375 2664 
Q 2638 3022 2638 3341 
Q 2638 3675 2398 3904 
Q 2159 4134 1775 4134 
Q 1369 4134 1125 3890 
Q 881 3647 878 3216 
L 300 3275 
Q 359 3922 746 4261 
Q 1134 4600 1788 4600 
Q 2447 4600 2831 4234 
Q 3216 3869 3216 3328 
Q 3216 3053 3103 2787 
Q 2991 2522 2730 2228 
Q 2469 1934 1863 1422 
Q 1356 997 1212 845 
Q 1069 694 975 541 
L 3222 541 
z
" transform="scale(0.015625)"/>
       </defs>
       <use xlink:href="#ArialMT-30"/>
       <use xlink:href="#ArialMT-2e" transform="translate(55.615234 0)"/>
       <use xlink:href="#ArialMT-32" transform="translate(83.398438 0)"/>
      </g>
     </g>
    </g>
    <g id="xtick_4">
     <g id="line2d_4">
      <g>
       <use xlink:href="#mb896658256" x="140.335172" y="118.08" style="fill: #262626; stroke: #262626; stroke-width: 0.8"/>
      </g>
     </g>
     <g id="text_4">
      <!-- 0.3 -->
      <g style="fill: #262626" transform="translate(135.442372 130.4591) scale(0.0704 -0.0704)">
       <defs>
        <path id="ArialMT-33" d="M 269 1209 
L 831 1284 
Q 928 806 1161 595 
Q 1394 384 1728 384 
Q 2125 384 2398 659 
Q 2672 934 2672 1341 
Q 2672 1728 2419 1979 
Q 2166 2231 1775 2231 
Q 1616 2231 1378 2169 
L 1441 2663 
Q 1497 2656 1531 2656 
Q 1891 2656 2178 2843 
Q 2466 3031 2466 3422 
Q 2466 3731 2256 3934 
Q 2047 4138 1716 4138 
Q 1388 4138 1169 3931 
Q 950 3725 888 3313 
L 325 3413 
Q 428 3978 793 4289 
Q 1159 4600 1703 4600 
Q 2078 4600 2393 4439 
Q 2709 4278 2876 4000 
Q 3044 3722 3044 3409 
Q 3044 3113 2884 2869 
Q 2725 2625 2413 2481 
Q 2819 2388 3044 2092 
Q 3269 1797 3269 1353 
Q 3269 753 2831 336 
Q 2394 -81 1725 -81 
Q 1122 -81 723 278 
Q 325 638 269 1209 
z
" transform="scale(0.015625)"/>
       </defs>
       <use xlink:href="#ArialMT-30"/>
       <use xlink:href="#ArialMT-2e" transform="translate(55.615234 0)"/>
       <use xlink:href="#ArialMT-33" transform="translate(83.398438 0)"/>
      </g>
     </g>
    </g>
    <g id="xtick_5">
     <g id="line2d_5">
      <g>
       <use xlink:href="#mb896658256" x="183.08263" y="118.08" style="fill: #262626; stroke: #262626; stroke-width: 0.8"/>
      </g>
     </g>
     <g id="text_5">
      <!-- 0.4 -->
      <g style="fill: #262626" transform="translate(178.18983 130.4591) scale(0.0704 -0.0704)">
       <defs>
        <path id="ArialMT-34" d="M 2069 0 
L 2069 1097 
L 81 1097 
L 81 1613 
L 2172 4581 
L 2631 4581 
L 2631 1613 
L 3250 1613 
L 3250 1097 
L 2631 1097 
L 2631 0 
L 2069 0 
z
M 2069 1613 
L 2069 3678 
L 634 1613 
L 2069 1613 
z
" transform="scale(0.015625)"/>
       </defs>
       <use xlink:href="#ArialMT-30"/>
       <use xlink:href="#ArialMT-2e" transform="translate(55.615234 0)"/>
       <use xlink:href="#ArialMT-34" transform="translate(83.398438 0)"/>
      </g>
     </g>
    </g>
    <g id="xtick_6">
     <g id="line2d_6">
      <g>
       <use xlink:href="#mb896658256" x="225.830087" y="118.08" style="fill: #262626; stroke: #262626; stroke-width: 0.8"/>
      </g>
     </g>
     <g id="text_6">
      <!-- 0.5 -->
      <g style="fill: #262626" transform="translate(220.937287 130.4591) scale(0.0704 -0.0704)">
       <defs>
        <path id="ArialMT-35" d="M 266 1200 
L 856 1250 
Q 922 819 1161 601 
Q 1400 384 1738 384 
Q 2144 384 2425 690 
Q 2706 997 2706 1503 
Q 2706 1984 2436 2262 
Q 2166 2541 1728 2541 
Q 1456 2541 1237 2417 
Q 1019 2294 894 2097 
L 366 2166 
L 809 4519 
L 3088 4519 
L 3088 3981 
L 1259 3981 
L 1013 2750 
Q 1425 3038 1878 3038 
Q 2478 3038 2890 2622 
Q 3303 2206 3303 1553 
Q 3303 931 2941 478 
Q 2500 -78 1738 -78 
Q 1113 -78 717 272 
Q 322 622 266 1200 
z
" transform="scale(0.015625)"/>
       </defs>
       <use xlink:href="#ArialMT-30"/>
       <use xlink:href="#ArialMT-2e" transform="translate(55.615234 0)"/>
       <use xlink:href="#ArialMT-35" transform="translate(83.398438 0)"/>
      </g>
     </g>
    </g>
    <g id="xtick_7">
     <g id="line2d_7">
      <g>
       <use xlink:href="#mb896658256" x="268.577545" y="118.08" style="fill: #262626; stroke: #262626; stroke-width: 0.8"/>
      </g>
     </g>
     <g id="text_7">
      <!-- 0.6 -->
      <g style="fill: #262626" transform="translate(263.684745 130.4591) scale(0.0704 -0.0704)">
       <defs>
        <path id="ArialMT-36" d="M 3184 3459 
L 2625 3416 
Q 2550 3747 2413 3897 
Q 2184 4138 1850 4138 
Q 1581 4138 1378 3988 
Q 1113 3794 959 3422 
Q 806 3050 800 2363 
Q 1003 2672 1297 2822 
Q 1591 2972 1913 2972 
Q 2475 2972 2870 2558 
Q 3266 2144 3266 1488 
Q 3266 1056 3080 686 
Q 2894 316 2569 119 
Q 2244 -78 1831 -78 
Q 1128 -78 684 439 
Q 241 956 241 2144 
Q 241 3472 731 4075 
Q 1159 4600 1884 4600 
Q 2425 4600 2770 4297 
Q 3116 3994 3184 3459 
z
M 888 1484 
Q 888 1194 1011 928 
Q 1134 663 1356 523 
Q 1578 384 1822 384 
Q 2178 384 2434 671 
Q 2691 959 2691 1453 
Q 2691 1928 2437 2201 
Q 2184 2475 1800 2475 
Q 1419 2475 1153 2201 
Q 888 1928 888 1484 
z
" transform="scale(0.015625)"/>
       </defs>
       <use xlink:href="#ArialMT-30"/>
       <use xlink:href="#ArialMT-2e" transform="translate(55.615234 0)"/>
       <use xlink:href="#ArialMT-36" transform="translate(83.398438 0)"/>
      </g>
     </g>
    </g>
    <g id="xtick_8">
     <g id="line2d_8">
      <g>
       <use xlink:href="#mb896658256" x="311.325002" y="118.08" style="fill: #262626; stroke: #262626; stroke-width: 0.8"/>
      </g>
     </g>
     <g id="text_8">
      <!-- 0.7 -->
      <g style="fill: #262626" transform="translate(306.432202 130.4591) scale(0.0704 -0.0704)">
       <defs>
        <path id="ArialMT-37" d="M 303 3981 
L 303 4522 
L 3269 4522 
L 3269 4084 
Q 2831 3619 2401 2847 
Q 1972 2075 1738 1259 
Q 1569 684 1522 0 
L 944 0 
Q 953 541 1156 1306 
Q 1359 2072 1739 2783 
Q 2119 3494 2547 3981 
L 303 3981 
z
" transform="scale(0.015625)"/>
       </defs>
       <use xlink:href="#ArialMT-30"/>
       <use xlink:href="#ArialMT-2e" transform="translate(55.615234 0)"/>
       <use xlink:href="#ArialMT-37" transform="translate(83.398438 0)"/>
      </g>
     </g>
    </g>
    <g id="xtick_9">
     <g id="line2d_9">
      <g>
       <use xlink:href="#mb896658256" x="354.07246" y="118.08" style="fill: #262626; stroke: #262626; stroke-width: 0.8"/>
      </g>
     </g>
     <g id="text_9">
      <!-- 0.8 -->
      <g style="fill: #262626" transform="translate(349.17966 130.4591) scale(0.0704 -0.0704)">
       <defs>
        <path id="ArialMT-38" d="M 1131 2484 
Q 781 2613 612 2850 
Q 444 3088 444 3419 
Q 444 3919 803 4259 
Q 1163 4600 1759 4600 
Q 2359 4600 2725 4251 
Q 3091 3903 3091 3403 
Q 3091 3084 2923 2848 
Q 2756 2613 2416 2484 
Q 2838 2347 3058 2040 
Q 3278 1734 3278 1309 
Q 3278 722 2862 322 
Q 2447 -78 1769 -78 
Q 1091 -78 675 323 
Q 259 725 259 1325 
Q 259 1772 486 2073 
Q 713 2375 1131 2484 
z
M 1019 3438 
Q 1019 3113 1228 2906 
Q 1438 2700 1772 2700 
Q 2097 2700 2305 2904 
Q 2513 3109 2513 3406 
Q 2513 3716 2298 3927 
Q 2084 4138 1766 4138 
Q 1444 4138 1231 3931 
Q 1019 3725 1019 3438 
z
M 838 1322 
Q 838 1081 952 856 
Q 1066 631 1291 507 
Q 1516 384 1775 384 
Q 2178 384 2440 643 
Q 2703 903 2703 1303 
Q 2703 1709 2433 1975 
Q 2163 2241 1756 2241 
Q 1359 2241 1098 1978 
Q 838 1716 838 1322 
z
" transform="scale(0.015625)"/>
       </defs>
       <use xlink:href="#ArialMT-30"/>
       <use xlink:href="#ArialMT-2e" transform="translate(55.615234 0)"/>
       <use xlink:href="#ArialMT-38" transform="translate(83.398438 0)"/>
      </g>
     </g>
    </g>
    <g id="xtick_10">
     <g id="line2d_10">
      <g>
       <use xlink:href="#mb896658256" x="396.819917" y="118.08" style="fill: #262626; stroke: #262626; stroke-width: 0.8"/>
      </g>
     </g>
     <g id="text_10">
      <!-- 0.9 -->
      <g style="fill: #262626" transform="translate(391.927117 130.4591) scale(0.0704 -0.0704)">
       <defs>
        <path id="ArialMT-39" d="M 350 1059 
L 891 1109 
Q 959 728 1153 556 
Q 1347 384 1650 384 
Q 1909 384 2104 503 
Q 2300 622 2425 820 
Q 2550 1019 2634 1356 
Q 2719 1694 2719 2044 
Q 2719 2081 2716 2156 
Q 2547 1888 2255 1720 
Q 1963 1553 1622 1553 
Q 1053 1553 659 1965 
Q 266 2378 266 3053 
Q 266 3750 677 4175 
Q 1088 4600 1706 4600 
Q 2153 4600 2523 4359 
Q 2894 4119 3086 3673 
Q 3278 3228 3278 2384 
Q 3278 1506 3087 986 
Q 2897 466 2520 194 
Q 2144 -78 1638 -78 
Q 1100 -78 759 220 
Q 419 519 350 1059 
z
M 2653 3081 
Q 2653 3566 2395 3850 
Q 2138 4134 1775 4134 
Q 1400 4134 1122 3828 
Q 844 3522 844 3034 
Q 844 2597 1108 2323 
Q 1372 2050 1759 2050 
Q 2150 2050 2401 2323 
Q 2653 2597 2653 3081 
z
" transform="scale(0.015625)"/>
       </defs>
       <use xlink:href="#ArialMT-30"/>
       <use xlink:href="#ArialMT-2e" transform="translate(55.615234 0)"/>
       <use xlink:href="#ArialMT-39" transform="translate(83.398438 0)"/>
      </g>
     </g>
    </g>
    <g id="xtick_11">
     <g id="line2d_11">
      <g>
       <use xlink:href="#mb896658256" x="439.567375" y="118.08" style="fill: #262626; stroke: #262626; stroke-width: 0.8"/>
      </g>
     </g>
     <g id="text_11">
      <!-- 1.0 -->
      <g style="fill: #262626" transform="translate(434.674575 130.4591) scale(0.0704 -0.0704)">
       <use xlink:href="#ArialMT-31"/>
       <use xlink:href="#ArialMT-2e" transform="translate(55.615234 0)"/>
       <use xlink:href="#ArialMT-30" transform="translate(83.398438 0)"/>
      </g>
     </g>
    </g>
    <g id="xtick_12">
     <g id="line2d_12">
      <g>
       <use xlink:href="#mb896658256" x="482.314832" y="118.08" style="fill: #262626; stroke: #262626; stroke-width: 0.8"/>
      </g>
     </g>
     <g id="text_12">
      <!-- 1.1 -->
      <g style="fill: #262626" transform="translate(477.422032 130.4591) scale(0.0704 -0.0704)">
       <use xlink:href="#ArialMT-31"/>
       <use xlink:href="#ArialMT-2e" transform="translate(55.615234 0)"/>
       <use xlink:href="#ArialMT-31" transform="translate(83.398438 0)"/>
      </g>
     </g>
    </g>
    <g id="xtick_13">
     <g id="line2d_13">
      <g>
       <use xlink:href="#mb896658256" x="525.06229" y="118.08" style="fill: #262626; stroke: #262626; stroke-width: 0.8"/>
      </g>
     </g>
     <g id="text_13">
      <!-- 1.2 -->
      <g style="fill: #262626" transform="translate(520.16949 130.4591) scale(0.0704 -0.0704)">
       <use xlink:href="#ArialMT-31"/>
       <use xlink:href="#ArialMT-2e" transform="translate(55.615234 0)"/>
       <use xlink:href="#ArialMT-32" transform="translate(83.398438 0)"/>
      </g>
     </g>
    </g>
    <g id="xtick_14">
     <g id="line2d_14">
      <g>
       <use xlink:href="#mb896658256" x="567.809747" y="118.08" style="fill: #262626; stroke: #262626; stroke-width: 0.8"/>
      </g>
     </g>
     <g id="text_14">
      <!-- 1.3 -->
      <g style="fill: #262626" transform="translate(562.916947 130.4591) scale(0.0704 -0.0704)">
       <use xlink:href="#ArialMT-31"/>
       <use xlink:href="#ArialMT-2e" transform="translate(55.615234 0)"/>
       <use xlink:href="#ArialMT-33" transform="translate(83.398438 0)"/>
      </g>
     </g>
    </g>
    <g id="xtick_15">
     <g id="line2d_15">
      <g>
       <use xlink:href="#mb896658256" x="610.557205" y="118.08" style="fill: #262626; stroke: #262626; stroke-width: 0.8"/>
      </g>
     </g>
     <g id="text_15">
      <!-- 1.4 -->
      <g style="fill: #262626" transform="translate(605.664405 130.4591) scale(0.0704 -0.0704)">
       <use xlink:href="#ArialMT-31"/>
       <use xlink:href="#ArialMT-2e" transform="translate(55.615234 0)"/>
       <use xlink:href="#ArialMT-34" transform="translate(83.398438 0)"/>
      </g>
     </g>
    </g>
    <g id="xtick_16">
     <g id="line2d_16">
      <g>
       <use xlink:href="#mb896658256" x="653.304662" y="118.08" style="fill: #262626; stroke: #262626; stroke-width: 0.8"/>
      </g>
     </g>
     <g id="text_16">
      <!-- 1.5 -->
      <g style="fill: #262626" transform="translate(648.411862 130.4591) scale(0.0704 -0.0704)">
       <use xlink:href="#ArialMT-31"/>
       <use xlink:href="#ArialMT-2e" transform="translate(55.615234 0)"/>
       <use xlink:href="#ArialMT-35" transform="translate(83.398438 0)"/>
      </g>
     </g>
    </g>
    <g id="xtick_17">
     <g id="line2d_17">
      <defs>
       <path id="m0676aea705" d="M 0 0 
L 0 2.56 
" style="stroke: #262626; stroke-width: 0.64"/>
      </defs>
      <g>
       <use xlink:href="#m0676aea705" x="20.642291" y="118.08" style="fill: #262626; stroke: #262626; stroke-width: 0.64"/>
      </g>
     </g>
    </g>
    <g id="xtick_18">
     <g id="line2d_18">
      <g>
       <use xlink:href="#m0676aea705" x="29.191783" y="118.08" style="fill: #262626; stroke: #262626; stroke-width: 0.64"/>
      </g>
     </g>
    </g>
    <g id="xtick_19">
     <g id="line2d_19">
      <g>
       <use xlink:href="#m0676aea705" x="37.741274" y="118.08" style="fill: #262626; stroke: #262626; stroke-width: 0.64"/>
      </g>
     </g>
    </g>
    <g id="xtick_20">
     <g id="line2d_20">
      <g>
       <use xlink:href="#m0676aea705" x="46.290766" y="118.08" style="fill: #262626; stroke: #262626; stroke-width: 0.64"/>
      </g>
     </g>
    </g>
    <g id="xtick_21">
     <g id="line2d_21">
      <g>
       <use xlink:href="#m0676aea705" x="63.389749" y="118.08" style="fill: #262626; stroke: #262626; stroke-width: 0.64"/>
      </g>
     </g>
    </g>
    <g id="xtick_22">
     <g id="line2d_22">
      <g>
       <use xlink:href="#m0676aea705" x="71.93924" y="118.08" style="fill: #262626; stroke: #262626; stroke-width: 0.64"/>
      </g>
     </g>
    </g>
    <g id="xtick_23">
     <g id="line2d_23">
      <g>
       <use xlink:href="#m0676aea705" x="80.488732" y="118.08" style="fill: #262626; stroke: #262626; stroke-width: 0.64"/>
      </g>
     </g>
    </g>
    <g id="xtick_24">
     <g id="line2d_24">
      <g>
       <use xlink:href="#m0676aea705" x="89.038223" y="118.08" style="fill: #262626; stroke: #262626; stroke-width: 0.64"/>
      </g>
     </g>
    </g>
    <g id="xtick_25">
     <g id="line2d_25">
      <g>
       <use xlink:href="#m0676aea705" x="106.137206" y="118.08" style="fill: #262626; stroke: #262626; stroke-width: 0.64"/>
      </g>
     </g>
    </g>
    <g id="xtick_26">
     <g id="line2d_26">
      <g>
       <use xlink:href="#m0676aea705" x="114.686698" y="118.08" style="fill: #262626; stroke: #262626; stroke-width: 0.64"/>
      </g>
     </g>
    </g>
    <g id="xtick_27">
     <g id="line2d_27">
      <g>
       <use xlink:href="#m0676aea705" x="123.236189" y="118.08" style="fill: #262626; stroke: #262626; stroke-width: 0.64"/>
      </g>
     </g>
    </g>
    <g id="xtick_28">
     <g id="line2d_28">
      <g>
       <use xlink:href="#m0676aea705" x="131.785681" y="118.08" style="fill: #262626; stroke: #262626; stroke-width: 0.64"/>
      </g>
     </g>
    </g>
    <g id="xtick_29">
     <g id="line2d_29">
      <g>
       <use xlink:href="#m0676aea705" x="148.884664" y="118.08" style="fill: #262626; stroke: #262626; stroke-width: 0.64"/>
      </g>
     </g>
    </g>
    <g id="xtick_30">
     <g id="line2d_30">
      <g>
       <use xlink:href="#m0676aea705" x="157.434155" y="118.08" style="fill: #262626; stroke: #262626; stroke-width: 0.64"/>
      </g>
     </g>
    </g>
    <g id="xtick_31">
     <g id="line2d_31">
      <g>
       <use xlink:href="#m0676aea705" x="165.983647" y="118.08" style="fill: #262626; stroke: #262626; stroke-width: 0.64"/>
      </g>
     </g>
    </g>
    <g id="xtick_32">
     <g id="line2d_32">
      <g>
       <use xlink:href="#m0676aea705" x="174.533138" y="118.08" style="fill: #262626; stroke: #262626; stroke-width: 0.64"/>
      </g>
     </g>
    </g>
    <g id="xtick_33">
     <g id="line2d_33">
      <g>
       <use xlink:href="#m0676aea705" x="191.632121" y="118.08" style="fill: #262626; stroke: #262626; stroke-width: 0.64"/>
      </g>
     </g>
    </g>
    <g id="xtick_34">
     <g id="line2d_34">
      <g>
       <use xlink:href="#m0676aea705" x="200.181613" y="118.08" style="fill: #262626; stroke: #262626; stroke-width: 0.64"/>
      </g>
     </g>
    </g>
    <g id="xtick_35">
     <g id="line2d_35">
      <g>
       <use xlink:href="#m0676aea705" x="208.731104" y="118.08" style="fill: #262626; stroke: #262626; stroke-width: 0.64"/>
      </g>
     </g>
    </g>
    <g id="xtick_36">
     <g id="line2d_36">
      <g>
       <use xlink:href="#m0676aea705" x="217.280596" y="118.08" style="fill: #262626; stroke: #262626; stroke-width: 0.64"/>
      </g>
     </g>
    </g>
    <g id="xtick_37">
     <g id="line2d_37">
      <g>
       <use xlink:href="#m0676aea705" x="234.379579" y="118.08" style="fill: #262626; stroke: #262626; stroke-width: 0.64"/>
      </g>
     </g>
    </g>
    <g id="xtick_38">
     <g id="line2d_38">
      <g>
       <use xlink:href="#m0676aea705" x="242.92907" y="118.08" style="fill: #262626; stroke: #262626; stroke-width: 0.64"/>
      </g>
     </g>
    </g>
    <g id="xtick_39">
     <g id="line2d_39">
      <g>
       <use xlink:href="#m0676aea705" x="251.478562" y="118.08" style="fill: #262626; stroke: #262626; stroke-width: 0.64"/>
      </g>
     </g>
    </g>
    <g id="xtick_40">
     <g id="line2d_40">
      <g>
       <use xlink:href="#m0676aea705" x="260.028053" y="118.08" style="fill: #262626; stroke: #262626; stroke-width: 0.64"/>
      </g>
     </g>
    </g>
    <g id="xtick_41">
     <g id="line2d_41">
      <g>
       <use xlink:href="#m0676aea705" x="277.127036" y="118.08" style="fill: #262626; stroke: #262626; stroke-width: 0.64"/>
      </g>
     </g>
    </g>
    <g id="xtick_42">
     <g id="line2d_42">
      <g>
       <use xlink:href="#m0676aea705" x="285.676528" y="118.08" style="fill: #262626; stroke: #262626; stroke-width: 0.64"/>
      </g>
     </g>
    </g>
    <g id="xtick_43">
     <g id="line2d_43">
      <g>
       <use xlink:href="#m0676aea705" x="294.226019" y="118.08" style="fill: #262626; stroke: #262626; stroke-width: 0.64"/>
      </g>
     </g>
    </g>
    <g id="xtick_44">
     <g id="line2d_44">
      <g>
       <use xlink:href="#m0676aea705" x="302.775511" y="118.08" style="fill: #262626; stroke: #262626; stroke-width: 0.64"/>
      </g>
     </g>
    </g>
    <g id="xtick_45">
     <g id="line2d_45">
      <g>
       <use xlink:href="#m0676aea705" x="319.874494" y="118.08" style="fill: #262626; stroke: #262626; stroke-width: 0.64"/>
      </g>
     </g>
    </g>
    <g id="xtick_46">
     <g id="line2d_46">
      <g>
       <use xlink:href="#m0676aea705" x="328.423985" y="118.08" style="fill: #262626; stroke: #262626; stroke-width: 0.64"/>
      </g>
     </g>
    </g>
    <g id="xtick_47">
     <g id="line2d_47">
      <g>
       <use xlink:href="#m0676aea705" x="336.973477" y="118.08" style="fill: #262626; stroke: #262626; stroke-width: 0.64"/>
      </g>
     </g>
    </g>
    <g id="xtick_48">
     <g id="line2d_48">
      <g>
       <use xlink:href="#m0676aea705" x="345.522968" y="118.08" style="fill: #262626; stroke: #262626; stroke-width: 0.64"/>
      </g>
     </g>
    </g>
    <g id="xtick_49">
     <g id="line2d_49">
      <g>
       <use xlink:href="#m0676aea705" x="362.621951" y="118.08" style="fill: #262626; stroke: #262626; stroke-width: 0.64"/>
      </g>
     </g>
    </g>
    <g id="xtick_50">
     <g id="line2d_50">
      <g>
       <use xlink:href="#m0676aea705" x="371.171443" y="118.08" style="fill: #262626; stroke: #262626; stroke-width: 0.64"/>
      </g>
     </g>
    </g>
    <g id="xtick_51">
     <g id="line2d_51">
      <g>
       <use xlink:href="#m0676aea705" x="379.720934" y="118.08" style="fill: #262626; stroke: #262626; stroke-width: 0.64"/>
      </g>
     </g>
    </g>
    <g id="xtick_52">
     <g id="line2d_52">
      <g>
       <use xlink:href="#m0676aea705" x="388.270426" y="118.08" style="fill: #262626; stroke: #262626; stroke-width: 0.64"/>
      </g>
     </g>
    </g>
    <g id="xtick_53">
     <g id="line2d_53">
      <g>
       <use xlink:href="#m0676aea705" x="405.369409" y="118.08" style="fill: #262626; stroke: #262626; stroke-width: 0.64"/>
      </g>
     </g>
    </g>
    <g id="xtick_54">
     <g id="line2d_54">
      <g>
       <use xlink:href="#m0676aea705" x="413.9189" y="118.08" style="fill: #262626; stroke: #262626; stroke-width: 0.64"/>
      </g>
     </g>
    </g>
    <g id="xtick_55">
     <g id="line2d_55">
      <g>
       <use xlink:href="#m0676aea705" x="422.468392" y="118.08" style="fill: #262626; stroke: #262626; stroke-width: 0.64"/>
      </g>
     </g>
    </g>
    <g id="xtick_56">
     <g id="line2d_56">
      <g>
       <use xlink:href="#m0676aea705" x="431.017883" y="118.08" style="fill: #262626; stroke: #262626; stroke-width: 0.64"/>
      </g>
     </g>
    </g>
    <g id="xtick_57">
     <g id="line2d_57">
      <g>
       <use xlink:href="#m0676aea705" x="448.116866" y="118.08" style="fill: #262626; stroke: #262626; stroke-width: 0.64"/>
      </g>
     </g>
    </g>
    <g id="xtick_58">
     <g id="line2d_58">
      <g>
       <use xlink:href="#m0676aea705" x="456.666358" y="118.08" style="fill: #262626; stroke: #262626; stroke-width: 0.64"/>
      </g>
     </g>
    </g>
    <g id="xtick_59">
     <g id="line2d_59">
      <g>
       <use xlink:href="#m0676aea705" x="465.215849" y="118.08" style="fill: #262626; stroke: #262626; stroke-width: 0.64"/>
      </g>
     </g>
    </g>
    <g id="xtick_60">
     <g id="line2d_60">
      <g>
       <use xlink:href="#m0676aea705" x="473.765341" y="118.08" style="fill: #262626; stroke: #262626; stroke-width: 0.64"/>
      </g>
     </g>
    </g>
    <g id="xtick_61">
     <g id="line2d_61">
      <g>
       <use xlink:href="#m0676aea705" x="490.864324" y="118.08" style="fill: #262626; stroke: #262626; stroke-width: 0.64"/>
      </g>
     </g>
    </g>
    <g id="xtick_62">
     <g id="line2d_62">
      <g>
       <use xlink:href="#m0676aea705" x="499.413815" y="118.08" style="fill: #262626; stroke: #262626; stroke-width: 0.64"/>
      </g>
     </g>
    </g>
    <g id="xtick_63">
     <g id="line2d_63">
      <g>
       <use xlink:href="#m0676aea705" x="507.963307" y="118.08" style="fill: #262626; stroke: #262626; stroke-width: 0.64"/>
      </g>
     </g>
    </g>
    <g id="xtick_64">
     <g id="line2d_64">
      <g>
       <use xlink:href="#m0676aea705" x="516.512798" y="118.08" style="fill: #262626; stroke: #262626; stroke-width: 0.64"/>
      </g>
     </g>
    </g>
    <g id="xtick_65">
     <g id="line2d_65">
      <g>
       <use xlink:href="#m0676aea705" x="533.611781" y="118.08" style="fill: #262626; stroke: #262626; stroke-width: 0.64"/>
      </g>
     </g>
    </g>
    <g id="xtick_66">
     <g id="line2d_66">
      <g>
       <use xlink:href="#m0676aea705" x="542.161273" y="118.08" style="fill: #262626; stroke: #262626; stroke-width: 0.64"/>
      </g>
     </g>
    </g>
    <g id="xtick_67">
     <g id="line2d_67">
      <g>
       <use xlink:href="#m0676aea705" x="550.710764" y="118.08" style="fill: #262626; stroke: #262626; stroke-width: 0.64"/>
      </g>
     </g>
    </g>
    <g id="xtick_68">
     <g id="line2d_68">
      <g>
       <use xlink:href="#m0676aea705" x="559.260256" y="118.08" style="fill: #262626; stroke: #262626; stroke-width: 0.64"/>
      </g>
     </g>
    </g>
    <g id="xtick_69">
     <g id="line2d_69">
      <g>
       <use xlink:href="#m0676aea705" x="576.359239" y="118.08" style="fill: #262626; stroke: #262626; stroke-width: 0.64"/>
      </g>
     </g>
    </g>
    <g id="xtick_70">
     <g id="line2d_70">
      <g>
       <use xlink:href="#m0676aea705" x="584.90873" y="118.08" style="fill: #262626; stroke: #262626; stroke-width: 0.64"/>
      </g>
     </g>
    </g>
    <g id="xtick_71">
     <g id="line2d_71">
      <g>
       <use xlink:href="#m0676aea705" x="593.458222" y="118.08" style="fill: #262626; stroke: #262626; stroke-width: 0.64"/>
      </g>
     </g>
    </g>
    <g id="xtick_72">
     <g id="line2d_72">
      <g>
       <use xlink:href="#m0676aea705" x="602.007713" y="118.08" style="fill: #262626; stroke: #262626; stroke-width: 0.64"/>
      </g>
     </g>
    </g>
    <g id="xtick_73">
     <g id="line2d_73">
      <g>
       <use xlink:href="#m0676aea705" x="619.106696" y="118.08" style="fill: #262626; stroke: #262626; stroke-width: 0.64"/>
      </g>
     </g>
    </g>
    <g id="xtick_74">
     <g id="line2d_74">
      <g>
       <use xlink:href="#m0676aea705" x="627.656188" y="118.08" style="fill: #262626; stroke: #262626; stroke-width: 0.64"/>
      </g>
     </g>
    </g>
    <g id="xtick_75">
     <g id="line2d_75">
      <g>
       <use xlink:href="#m0676aea705" x="636.205679" y="118.08" style="fill: #262626; stroke: #262626; stroke-width: 0.64"/>
      </g>
     </g>
    </g>
    <g id="xtick_76">
     <g id="line2d_76">
      <g>
       <use xlink:href="#m0676aea705" x="644.755171" y="118.08" style="fill: #262626; stroke: #262626; stroke-width: 0.64"/>
      </g>
     </g>
    </g>
    <g id="xtick_77">
     <g id="line2d_77">
      <g>
       <use xlink:href="#m0676aea705" x="661.854154" y="118.08" style="fill: #262626; stroke: #262626; stroke-width: 0.64"/>
      </g>
     </g>
    </g>
    <g id="xtick_78">
     <g id="line2d_78">
      <g>
       <use xlink:href="#m0676aea705" x="670.403645" y="118.08" style="fill: #262626; stroke: #262626; stroke-width: 0.64"/>
      </g>
     </g>
    </g>
    <g id="xtick_79">
     <g id="line2d_79">
      <g>
       <use xlink:href="#m0676aea705" x="678.953137" y="118.08" style="fill: #262626; stroke: #262626; stroke-width: 0.64"/>
      </g>
     </g>
    </g>
    <g id="text_17">
     <!-- 1e8 -->
     <g style="fill: #262626" transform="translate(668.665676 139.8974) scale(0.0704 -0.0704)">
      <defs>
       <path id="ArialMT-65" d="M 2694 1069 
L 3275 997 
Q 3138 488 2766 206 
Q 2394 -75 1816 -75 
Q 1088 -75 661 373 
Q 234 822 234 1631 
Q 234 2469 665 2931 
Q 1097 3394 1784 3394 
Q 2450 3394 2872 2941 
Q 3294 2488 3294 1666 
Q 3294 1616 3291 1516 
L 816 1516 
Q 847 969 1125 678 
Q 1403 388 1819 388 
Q 2128 388 2347 550 
Q 2566 713 2694 1069 
z
M 847 1978 
L 2700 1978 
Q 2663 2397 2488 2606 
Q 2219 2931 1791 2931 
Q 1403 2931 1139 2672 
Q 875 2413 847 1978 
z
" transform="scale(0.015625)"/>
      </defs>
      <use xlink:href="#ArialMT-31"/>
      <use xlink:href="#ArialMT-65" transform="translate(55.615234 0)"/>
      <use xlink:href="#ArialMT-38" transform="translate(111.230469 0)"/>
     </g>
    </g>
   </g>
   <g id="FillBetweenPolyCollection_1">
    <defs>
     <path id="m7fcc5c6326" d="M 14.237608 -98.292985 
L 14.237608 -98.292985 
L 16.382415 -99.452373 
L 18.527223 -100.620279 
L 20.67203 -101.779735 
L 22.816838 -102.911681 
L 24.961645 -103.995154 
L 27.106453 -105.007573 
L 29.251261 -105.925134 
L 31.396068 -106.723305 
L 33.540876 -107.377446 
L 35.685683 -107.863527 
L 37.830491 -108.158967 
L 39.975298 -108.243548 
L 42.120106 -108.100411 
L 44.264913 -107.717089 
L 46.409721 -107.08655 
L 48.554529 -106.208198 
L 50.699336 -105.088788 
L 52.844144 -103.743194 
L 54.988951 -102.194965 
L 57.133759 -100.476607 
L 59.278566 -98.629526 
L 61.423374 -96.703576 
L 63.568182 -94.756157 
L 65.712989 -92.850835 
L 67.857797 -91.055466 
L 70.002604 -89.43983 
L 72.147412 -88.072826 
L 74.292219 -87.019289 
L 76.437027 -86.336556 
L 78.581834 -86.070907 
L 80.726642 -86.254088 
L 82.87145 -86.900107 
L 85.016257 -88.002552 
L 87.161065 -89.532674 
L 89.305872 -91.438462 
L 91.45068 -93.644948 
L 93.595487 -96.055904 
L 95.740295 -98.557031 
L 97.885103 -101.020684 
L 100.02991 -103.312035 
L 102.174718 -105.296477 
L 104.319525 -106.847945 
L 106.464333 -107.857698 
L 108.60914 -108.243003 
L 110.753948 -107.955065 
L 112.898756 -106.985502 
L 115.043563 -105.37067 
L 117.188371 -103.193201 
L 119.333178 -100.580224 
L 121.477986 -97.697988 
L 123.622793 -94.742797 
L 125.767601 -91.928547 
L 127.912408 -89.471442 
L 130.057216 -87.572852 
L 132.202024 -86.401576 
L 134.346831 -86.07702 
L 136.491639 -86.654947 
L 138.636446 -88.11745 
L 140.781254 -90.36863 
L 142.926061 -93.237108 
L 145.070869 -96.485965 
L 147.215677 -99.830028 
L 149.360484 -102.959632 
L 151.505292 -105.569176 
L 153.650099 -107.388029 
L 155.794907 -108.210762 
L 157.939714 -107.923317 
L 160.084522 -106.521752 
L 162.22933 -104.120597 
L 164.374137 -100.948687 
L 166.518945 -97.331556 
L 168.663752 -93.661008 
L 170.80856 -90.354116 
L 172.953367 -87.805545 
L 175.098175 -86.338447 
L 177.242982 -86.159991 
L 179.38779 -87.327772 
L 181.532598 -89.732653 
L 183.677405 -93.102011 
L 185.822213 -97.025073 
L 187.96702 -100.99907 
L 190.111828 -104.491878 
L 192.256635 -107.01386 
L 194.401443 -108.189451 
L 196.546251 -107.817958 
L 198.691058 -105.913436 
L 200.835866 -102.715608 
L 202.980673 -98.667356 
L 205.125481 -94.359145 
L 207.270288 -90.446066 
L 209.415096 -87.548313 
L 211.559903 -86.149818 
L 213.704711 -86.511699 
L 215.849519 -88.616439 
L 217.994326 -92.155097 
L 220.139134 -96.563632 
L 222.283941 -101.106298 
L 224.428749 -104.995355 
L 226.573556 -107.528603 
L 228.718364 -108.220996 
L 230.863172 -106.905313 
L 233.007979 -103.780223 
L 235.152787 -99.392085 
L 237.297594 -94.548458 
L 239.442402 -90.174695 
L 241.587209 -87.13757 
L 243.732017 -86.068958 
L 245.876825 -87.225782 
L 248.021632 -90.418289 
L 250.16644 -95.027269 
L 252.311247 -100.113581 
L 254.456055 -104.603564 
L 256.600862 -107.515555 
L 258.74567 -108.180349 
L 260.890477 -106.405469 
L 263.035285 -102.541444 
L 265.180093 -97.427338 
L 267.3249 -92.219166 
L 269.469708 -88.13312 
L 271.614515 -86.158933 
L 273.759323 -86.810863 
L 275.90413 -89.980392 
L 278.048938 -94.934742 
L 280.193746 -100.47214 
L 282.338553 -105.2054 
L 284.483361 -107.909653 
L 286.628168 -107.847726 
L 288.772976 -104.985414 
L 290.917783 -100.031228 
L 293.062591 -94.277677 
L 295.207399 -89.273967 
L 297.352206 -86.409505 
L 299.497014 -86.519188 
L 301.641821 -89.624164 
L 303.786629 -94.891712 
L 305.931436 -100.840521 
L 308.076244 -105.747195 
L 310.221051 -108.146253 
L 312.365859 -107.279253 
L 314.510667 -103.353015 
L 316.655474 -97.515181 
L 318.800282 -91.536579 
L 320.945089 -87.281669 
L 323.089897 -86.12211 
L 325.234704 -88.478457 
L 327.379512 -93.646998 
L 329.52432 -99.986331 
L 331.669127 -105.423927 
L 333.813935 -108.132259 
L 335.958742 -107.155435 
L 338.10355 -102.7685 
L 340.248357 -96.428814 
L 342.393165 -90.312102 
L 344.537972 -86.57258 
L 346.68278 -86.575267 
L 348.827588 -90.376036 
L 350.972395 -96.653561 
L 353.117203 -103.144479 
L 355.26201 -107.448878 
L 357.406818 -107.924522 
L 359.551625 -104.335304 
L 361.696433 -97.991301 
L 363.841241 -91.29747 
L 365.986048 -86.854342 
L 368.130856 -86.440936 
L 370.275663 -90.279 
L 372.420471 -96.890397 
L 374.565278 -103.638149 
L 376.710086 -107.76632 
L 378.854894 -107.534831 
L 380.999701 -102.979568 
L 383.144509 -95.956679 
L 385.289316 -89.414009 
L 387.434124 -86.162172 
L 389.578931 -87.652595 
L 391.723739 -93.298492 
L 393.868546 -100.667459 
L 396.013354 -106.504937 
L 398.158162 -108.170351 
L 400.302969 -104.854265 
L 402.447777 -98.007102 
L 404.592584 -90.74096 
L 406.737392 -86.432013 
L 408.882199 -87.141739 
L 411.027007 -92.598295 
L 413.171815 -100.254249 
L 415.316622 -106.445991 
L 417.46143 -108.143304 
L 419.606237 -104.456972 
L 421.751045 -97.144281 
L 423.895852 -89.810828 
L 426.04066 -86.148863 
L 428.185468 -88.06313 
L 430.330275 -94.641317 
L 432.475083 -102.542389 
L 434.61989 -107.666889 
L 436.764698 -107.289811 
L 438.909505 -101.545107 
L 441.054313 -93.436927 
L 443.19912 -87.303381 
L 445.343928 -86.497699 
L 447.488736 -91.523234 
L 449.633543 -99.674562 
L 451.778351 -106.453065 
L 453.923158 -108.041351 
L 456.067966 -103.482022 
L 458.212773 -95.30326 
L 460.357581 -88.162094 
L 462.502389 -86.20485 
L 464.647196 -90.631868 
L 466.792004 -98.910658 
L 468.936811 -106.176675 
L 471.081619 -108.078162 
L 473.226426 -103.41143 
L 475.371234 -94.935801 
L 477.516041 -87.791251 
L 479.660849 -86.393306 
L 481.805657 -91.671561 
L 483.950464 -100.396446 
L 486.095272 -107.106821 
L 488.240079 -107.521069 
L 490.384887 -101.307791 
L 492.529694 -92.40121 
L 494.674502 -86.555126 
L 496.81931 -87.624514 
L 498.964117 -94.976395 
L 501.108925 -103.796676 
L 503.253732 -108.204555 
L 505.39854 -105.187293 
L 507.543347 -96.715811 
L 509.688155 -88.521441 
L 511.832963 -86.244123 
L 513.97777 -91.520753 
L 516.122578 -100.744572 
L 518.267385 -107.473089 
L 520.412193 -106.920375 
L 522.557 -99.409015 
L 524.701808 -90.261217 
L 526.846615 -86.071025 
L 528.991423 -89.934921 
L 531.136231 -99.099579 
L 533.281038 -106.855635 
L 535.425846 -107.429603 
L 537.570653 -100.324383 
L 539.715461 -90.816379 
L 541.860268 -86.088866 
L 544.005076 -89.793309 
L 546.149884 -99.162662 
L 548.294691 -107.004937 
L 550.439499 -107.202279 
L 552.584306 -99.530184 
L 554.729114 -89.967496 
L 556.873921 -86.087985 
L 559.018729 -91.042541 
L 561.163537 -100.926002 
L 563.308344 -107.782722 
L 565.453152 -106.000205 
L 567.597959 -96.963493 
L 569.742767 -88.064985 
L 571.887574 -86.694878 
L 574.032382 -94.063675 
L 576.177189 -104.050583 
L 578.321997 -108.227106 
L 580.466805 -102.986922 
L 582.611612 -92.739579 
L 584.75642 -86.27754 
L 586.901227 -89.23884 
L 589.046035 -99.118014 
L 591.190842 -107.296672 
L 593.33565 -106.533689 
L 595.480458 -97.433099 
L 597.625265 -88.065809 
L 599.770073 -86.858742 
L 601.91488 -94.971451 
L 604.059688 -105.091556 
L 606.204495 -107.963676 
L 608.349303 -100.882275 
L 610.49411 -90.332521 
L 612.638918 -86.125191 
L 614.783726 -92.257577 
L 616.928533 -103.025168 
L 619.073341 -108.244958 
L 621.218148 -102.890425 
L 623.362956 -92.020245 
L 625.507763 -86.089128 
L 627.652571 -90.8961 
L 629.797379 -101.828132 
L 631.942186 -108.192087 
L 634.086994 -103.665296 
L 636.231801 -92.663065 
L 638.376609 -86.130504 
L 640.521416 -90.665693 
L 642.666224 -101.768602 
L 644.811032 -108.205777 
L 646.955839 -103.364957 
L 649.100647 -92.136783 
L 651.245454 -86.074919 
L 653.390262 -91.514551 
L 655.535069 -102.857405 
L 657.679877 -108.233276 
L 659.824684 -101.922323 
L 661.969492 -90.541063 
L 664.1143 -86.202162 
L 666.259107 -93.61217 
L 668.403915 -104.859189 
L 670.548722 -107.770395 
L 672.69353 -99.112697 
L 674.838337 -88.296651 
L 676.983145 -87.227384 
L 676.983145 -87.227384 
L 676.983145 -87.227384 
L 674.838337 -88.296651 
L 672.69353 -99.112697 
L 670.548722 -107.770395 
L 668.403915 -104.859189 
L 666.259107 -93.61217 
L 664.1143 -86.202162 
L 661.969492 -90.541063 
L 659.824684 -101.922323 
L 657.679877 -108.233276 
L 655.535069 -102.857405 
L 653.390262 -91.514551 
L 651.245454 -86.074919 
L 649.100647 -92.136783 
L 646.955839 -103.364957 
L 644.811032 -108.205777 
L 642.666224 -101.768602 
L 640.521416 -90.665693 
L 638.376609 -86.130504 
L 636.231801 -92.663065 
L 634.086994 -103.665296 
L 631.942186 -108.192087 
L 629.797379 -101.828132 
L 627.652571 -90.8961 
L 625.507763 -86.089128 
L 623.362956 -92.020245 
L 621.218148 -102.890425 
L 619.073341 -108.244958 
L 616.928533 -103.025168 
L 614.783726 -92.257577 
L 612.638918 -86.125191 
L 610.49411 -90.332521 
L 608.349303 -100.882275 
L 606.204495 -107.963676 
L 604.059688 -105.091556 
L 601.91488 -94.971451 
L 599.770073 -86.858742 
L 597.625265 -88.065809 
L 595.480458 -97.433099 
L 593.33565 -106.533689 
L 591.190842 -107.296672 
L 589.046035 -99.118014 
L 586.901227 -89.23884 
L 584.75642 -86.27754 
L 582.611612 -92.739579 
L 580.466805 -102.986922 
L 578.321997 -108.227106 
L 576.177189 -104.050583 
L 574.032382 -94.063675 
L 571.887574 -86.694878 
L 569.742767 -88.064985 
L 567.597959 -96.963493 
L 565.453152 -106.000205 
L 563.308344 -107.782722 
L 561.163537 -100.926002 
L 559.018729 -91.042541 
L 556.873921 -86.087985 
L 554.729114 -89.967496 
L 552.584306 -99.530184 
L 550.439499 -107.202279 
L 548.294691 -107.004937 
L 546.149884 -99.162662 
L 544.005076 -89.793309 
L 541.860268 -86.088866 
L 539.715461 -90.816379 
L 537.570653 -100.324383 
L 535.425846 -107.429603 
L 533.281038 -106.855635 
L 531.136231 -99.099579 
L 528.991423 -89.934921 
L 526.846615 -86.071025 
L 524.701808 -90.261217 
L 522.557 -99.409015 
L 520.412193 -106.920375 
L 518.267385 -107.473089 
L 516.122578 -100.744572 
L 513.97777 -91.520753 
L 511.832963 -86.244123 
L 509.688155 -88.521441 
L 507.543347 -96.715811 
L 505.39854 -105.187293 
L 503.253732 -108.204555 
L 501.108925 -103.796676 
L 498.964117 -94.976395 
L 496.81931 -87.624514 
L 494.674502 -86.555126 
L 492.529694 -92.40121 
L 490.384887 -101.307791 
L 488.240079 -107.521069 
L 486.095272 -107.106821 
L 483.950464 -100.396446 
L 481.805657 -91.671561 
L 479.660849 -86.393306 
L 477.516041 -87.791251 
L 475.371234 -94.935801 
L 473.226426 -103.41143 
L 471.081619 -108.078162 
L 468.936811 -106.176675 
L 466.792004 -98.910658 
L 464.647196 -90.631868 
L 462.502389 -86.20485 
L 460.357581 -88.162094 
L 458.212773 -95.30326 
L 456.067966 -103.482022 
L 453.923158 -108.041351 
L 451.778351 -106.453065 
L 449.633543 -99.674562 
L 447.488736 -91.523234 
L 445.343928 -86.497699 
L 443.19912 -87.303381 
L 441.054313 -93.436927 
L 438.909505 -101.545107 
L 436.764698 -107.289811 
L 434.61989 -107.666889 
L 432.475083 -102.542389 
L 430.330275 -94.641317 
L 428.185468 -88.06313 
L 426.04066 -86.148863 
L 423.895852 -89.810828 
L 421.751045 -97.144281 
L 419.606237 -104.456972 
L 417.46143 -108.143304 
L 415.316622 -106.445991 
L 413.171815 -100.254249 
L 411.027007 -92.598295 
L 408.882199 -87.141739 
L 406.737392 -86.432013 
L 404.592584 -90.74096 
L 402.447777 -98.007102 
L 400.302969 -104.854265 
L 398.158162 -108.170351 
L 396.013354 -106.504937 
L 393.868546 -100.667459 
L 391.723739 -93.298492 
L 389.578931 -87.652595 
L 387.434124 -86.162172 
L 385.289316 -89.414009 
L 383.144509 -95.956679 
L 380.999701 -102.979568 
L 378.854894 -107.534831 
L 376.710086 -107.76632 
L 374.565278 -103.638149 
L 372.420471 -96.890397 
L 370.275663 -90.279 
L 368.130856 -86.440936 
L 365.986048 -86.854342 
L 363.841241 -91.29747 
L 361.696433 -97.991301 
L 359.551625 -104.335304 
L 357.406818 -107.924522 
L 355.26201 -107.448878 
L 353.117203 -103.144479 
L 350.972395 -96.653561 
L 348.827588 -90.376036 
L 346.68278 -86.575267 
L 344.537972 -86.57258 
L 342.393165 -90.312102 
L 340.248357 -96.428814 
L 338.10355 -102.7685 
L 335.958742 -107.155435 
L 333.813935 -108.132259 
L 331.669127 -105.423927 
L 329.52432 -99.986331 
L 327.379512 -93.646998 
L 325.234704 -88.478457 
L 323.089897 -86.12211 
L 320.945089 -87.281669 
L 318.800282 -91.536579 
L 316.655474 -97.515181 
L 314.510667 -103.353015 
L 312.365859 -107.279253 
L 310.221051 -108.146253 
L 308.076244 -105.747195 
L 305.931436 -100.840521 
L 303.786629 -94.891712 
L 301.641821 -89.624164 
L 299.497014 -86.519188 
L 297.352206 -86.409505 
L 295.207399 -89.273967 
L 293.062591 -94.277677 
L 290.917783 -100.031228 
L 288.772976 -104.985414 
L 286.628168 -107.847726 
L 284.483361 -107.909653 
L 282.338553 -105.2054 
L 280.193746 -100.47214 
L 278.048938 -94.934742 
L 275.90413 -89.980392 
L 273.759323 -86.810863 
L 271.614515 -86.158933 
L 269.469708 -88.13312 
L 267.3249 -92.219166 
L 265.180093 -97.427338 
L 263.035285 -102.541444 
L 260.890477 -106.405469 
L 258.74567 -108.180349 
L 256.600862 -107.515555 
L 254.456055 -104.603564 
L 252.311247 -100.113581 
L 250.16644 -95.027269 
L 248.021632 -90.418289 
L 245.876825 -87.225782 
L 243.732017 -86.068958 
L 241.587209 -87.13757 
L 239.442402 -90.174695 
L 237.297594 -94.548458 
L 235.152787 -99.392085 
L 233.007979 -103.780223 
L 230.863172 -106.905313 
L 228.718364 -108.220996 
L 226.573556 -107.528603 
L 224.428749 -104.995355 
L 222.283941 -101.106298 
L 220.139134 -96.563632 
L 217.994326 -92.155097 
L 215.849519 -88.616439 
L 213.704711 -86.511699 
L 211.559903 -86.149818 
L 209.415096 -87.548313 
L 207.270288 -90.446066 
L 205.125481 -94.359145 
L 202.980673 -98.667356 
L 200.835866 -102.715608 
L 198.691058 -105.913436 
L 196.546251 -107.817958 
L 194.401443 -108.189451 
L 192.256635 -107.01386 
L 190.111828 -104.491878 
L 187.96702 -100.99907 
L 185.822213 -97.025073 
L 183.677405 -93.102011 
L 181.532598 -89.732653 
L 179.38779 -87.327772 
L 177.242982 -86.159991 
L 175.098175 -86.338447 
L 172.953367 -87.805545 
L 170.80856 -90.354116 
L 168.663752 -93.661008 
L 166.518945 -97.331556 
L 164.374137 -100.948687 
L 162.22933 -104.120597 
L 160.084522 -106.521752 
L 157.939714 -107.923317 
L 155.794907 -108.210762 
L 153.650099 -107.388029 
L 151.505292 -105.569176 
L 149.360484 -102.959632 
L 147.215677 -99.830028 
L 145.070869 -96.485965 
L 142.926061 -93.237108 
L 140.781254 -90.36863 
L 138.636446 -88.11745 
L 136.491639 -86.654947 
L 134.346831 -86.07702 
L 132.202024 -86.401576 
L 130.057216 -87.572852 
L 127.912408 -89.471442 
L 125.767601 -91.928547 
L 123.622793 -94.742797 
L 121.477986 -97.697988 
L 119.333178 -100.580224 
L 117.188371 -103.193201 
L 115.043563 -105.37067 
L 112.898756 -106.985502 
L 110.753948 -107.955065 
L 108.60914 -108.243003 
L 106.464333 -107.857698 
L 104.319525 -106.847945 
L 102.174718 -105.296477 
L 100.02991 -103.312035 
L 97.885103 -101.020684 
L 95.740295 -98.557031 
L 93.595487 -96.055904 
L 91.45068 -93.644948 
L 89.305872 -91.438462 
L 87.161065 -89.532674 
L 85.016257 -88.002552 
L 82.87145 -86.900107 
L 80.726642 -86.254088 
L 78.581834 -86.070907 
L 76.437027 -86.336556 
L 74.292219 -87.019289 
L 72.147412 -88.072826 
L 70.002604 -89.43983 
L 67.857797 -91.055466 
L 65.712989 -92.850835 
L 63.568182 -94.756157 
L 61.423374 -96.703576 
L 59.278566 -98.629526 
L 57.133759 -100.476607 
L 54.988951 -102.194965 
L 52.844144 -103.743194 
L 50.699336 -105.088788 
L 48.554529 -106.208198 
L 46.409721 -107.08655 
L 44.264913 -107.717089 
L 42.120106 -108.100411 
L 39.975298 -108.243548 
L 37.830491 -108.158967 
L 35.685683 -107.863527 
L 33.540876 -107.377446 
L 31.396068 -106.723305 
L 29.251261 -105.925134 
L 27.106453 -105.007573 
L 24.961645 -103.995154 
L 22.816838 -102.911681 
L 20.67203 -101.779735 
L 18.527223 -100.620279 
L 16.382415 -99.452373 
L 14.237608 -98.292985 
z
" style="stroke: #8dd3c7; stroke-opacity: 0.2"/>
    </defs>
    <g clip-path="url(#p1c4d93ea97)">
     <use xlink:href="#m7fcc5c6326" x="0" y="148.4966" style="fill: #8dd3c7; fill-opacity: 0.2; stroke: #8dd3c7; stroke-opacity: 0.2"/>
    </g>
   </g>
   <g id="patch_7">
    <path d="M 260.455528 95.691642 
L 260.455528 73.515642 
L 284.821579 95.691642 
L 284.821579 73.515642 
z
" clip-path="url(#p1c4d93ea97)" style="fill: #777777; stroke: #777777; stroke-width: 0.64; stroke-linejoin: miter"/>
   </g>
   <g id="line2d_80">
    <path d="M 14.237608 50.203615 
L 24.961645 44.501446 
L 29.251261 42.571466 
L 31.396068 41.773295 
L 33.540876 41.119154 
L 35.685683 40.633073 
L 37.830491 40.337633 
L 39.975298 40.253052 
L 42.120106 40.396189 
L 44.264913 40.779511 
L 46.409721 41.41005 
L 48.554529 42.288402 
L 50.699336 43.407812 
L 52.844144 44.753406 
L 54.988951 46.301635 
L 59.278566 49.867074 
L 67.857797 57.441134 
L 70.002604 59.05677 
L 72.147412 60.423774 
L 74.292219 61.477311 
L 76.437027 62.160044 
L 78.581834 62.425693 
L 80.726642 62.242512 
L 82.87145 61.596493 
L 85.016257 60.494048 
L 87.161065 58.963926 
L 89.305872 57.058138 
L 91.45068 54.851652 
L 100.02991 45.184565 
L 102.174718 43.200123 
L 104.319525 41.648655 
L 106.464333 40.638902 
L 108.60914 40.253597 
L 110.753948 40.541535 
L 112.898756 41.511098 
L 115.043563 43.12593 
L 117.188371 45.303399 
L 119.333178 47.916376 
L 125.767601 56.568053 
L 127.912408 59.025158 
L 130.057216 60.923748 
L 132.202024 62.095024 
L 134.346831 62.41958 
L 136.491639 61.841653 
L 138.636446 60.37915 
L 140.781254 58.12797 
L 142.926061 55.259492 
L 149.360484 45.536968 
L 151.505292 42.927424 
L 153.650099 41.108571 
L 155.794907 40.285838 
L 157.939714 40.573283 
L 160.084522 41.974848 
L 162.22933 44.376003 
L 164.374137 47.547913 
L 168.663752 54.835592 
L 170.80856 58.142484 
L 172.953367 60.691055 
L 175.098175 62.158153 
L 177.242982 62.336609 
L 179.38779 61.168828 
L 181.532598 58.763947 
L 183.677405 55.394589 
L 187.96702 47.49753 
L 190.111828 44.004722 
L 192.256635 41.48274 
L 194.401443 40.307149 
L 196.546251 40.678642 
L 198.691058 42.583164 
L 200.835866 45.780992 
L 202.980673 49.829244 
L 205.125481 54.137455 
L 207.270288 58.050534 
L 209.415096 60.948287 
L 211.559903 62.346782 
L 213.704711 61.984901 
L 215.849519 59.880161 
L 217.994326 56.341503 
L 222.283941 47.390302 
L 224.428749 43.501245 
L 226.573556 40.967997 
L 228.718364 40.275604 
L 230.863172 41.591287 
L 233.007979 44.716377 
L 235.152787 49.104515 
L 237.297594 53.948142 
L 239.442402 58.321905 
L 241.587209 61.35903 
L 243.732017 62.427642 
L 245.876825 61.270818 
L 248.021632 58.078311 
L 250.16644 53.469331 
L 252.311247 48.383019 
L 254.456055 43.893036 
L 256.600862 40.981045 
L 258.74567 40.316251 
L 260.890477 42.091131 
L 263.035285 45.955156 
L 267.3249 56.277434 
L 269.469708 60.36348 
L 271.614515 62.337667 
L 273.759323 61.685737 
L 275.90413 58.516208 
L 278.048938 53.561858 
L 280.193746 48.02446 
L 282.338553 43.2912 
L 284.483361 40.586947 
L 286.628168 40.648874 
L 288.772976 43.511186 
L 290.917783 48.465372 
L 293.062591 54.218923 
L 295.207399 59.222633 
L 297.352206 62.087095 
L 299.497014 61.977412 
L 301.641821 58.872436 
L 303.786629 53.604888 
L 305.931436 47.656079 
L 308.076244 42.749405 
L 310.221051 40.350347 
L 312.365859 41.217347 
L 314.510667 45.143585 
L 318.800282 56.960021 
L 320.945089 61.214931 
L 323.089897 62.37449 
L 325.234704 60.018143 
L 327.379512 54.849602 
L 329.52432 48.510269 
L 331.669127 43.072673 
L 333.813935 40.364341 
L 335.958742 41.341165 
L 338.10355 45.7281 
L 342.393165 58.184498 
L 344.537972 61.92402 
L 346.68278 61.921333 
L 348.827588 58.120564 
L 353.117203 45.352121 
L 355.26201 41.047722 
L 357.406818 40.572078 
L 359.551625 44.161296 
L 361.696433 50.505299 
L 363.841241 57.19913 
L 365.986048 61.642258 
L 368.130856 62.055664 
L 370.275663 58.2176 
L 374.565278 44.858451 
L 376.710086 40.73028 
L 378.854894 40.961769 
L 380.999701 45.517032 
L 383.144509 52.539921 
L 385.289316 59.082591 
L 387.434124 62.334428 
L 389.578931 60.844005 
L 391.723739 55.198108 
L 393.868546 47.829141 
L 396.013354 41.991663 
L 398.158162 40.326249 
L 400.302969 43.642335 
L 402.447777 50.489498 
L 404.592584 57.75564 
L 406.737392 62.064587 
L 408.882199 61.354861 
L 411.027007 55.898305 
L 413.171815 48.242351 
L 415.316622 42.050609 
L 417.46143 40.353296 
L 419.606237 44.039628 
L 423.895852 58.685772 
L 426.04066 62.347737 
L 428.185468 60.43347 
L 430.330275 53.855283 
L 432.475083 45.954211 
L 434.61989 40.829711 
L 436.764698 41.206789 
L 438.909505 46.951493 
L 441.054313 55.059673 
L 443.19912 61.193219 
L 445.343928 61.998901 
L 447.488736 56.973366 
L 449.633543 48.822038 
L 451.778351 42.043535 
L 453.923158 40.455249 
L 456.067966 45.014578 
L 458.212773 53.19334 
L 460.357581 60.334506 
L 462.502389 62.29175 
L 464.647196 57.864732 
L 466.792004 49.585942 
L 468.936811 42.319925 
L 471.081619 40.418438 
L 473.226426 45.08517 
L 475.371234 53.560799 
L 477.516041 60.705349 
L 479.660849 62.103294 
L 481.805657 56.825039 
L 483.950464 48.100154 
L 486.095272 41.389779 
L 488.240079 40.975531 
L 490.384887 47.188809 
L 492.529694 56.09539 
L 494.674502 61.941474 
L 496.81931 60.872086 
L 498.964117 53.520205 
L 501.108925 44.699924 
L 503.253732 40.292045 
L 505.39854 43.309307 
L 509.688155 59.975159 
L 511.832963 62.252477 
L 513.97777 56.975847 
L 516.122578 47.752028 
L 518.267385 41.023511 
L 520.412193 41.576225 
L 522.557 49.087585 
L 524.701808 58.235383 
L 526.846615 62.425575 
L 528.991423 58.561679 
L 531.136231 49.397021 
L 533.281038 41.640965 
L 535.425846 41.066997 
L 537.570653 48.172217 
L 539.715461 57.680221 
L 541.860268 62.407734 
L 544.005076 58.703291 
L 546.149884 49.333938 
L 548.294691 41.491663 
L 550.439499 41.294321 
L 552.584306 48.966416 
L 554.729114 58.529104 
L 556.873921 62.408615 
L 559.018729 57.454059 
L 561.163537 47.570598 
L 563.308344 40.713878 
L 565.453152 42.496395 
L 569.742767 60.431615 
L 571.887574 61.801722 
L 574.032382 54.432925 
L 576.177189 44.446017 
L 578.321997 40.269494 
L 580.466805 45.509678 
L 582.611612 55.757021 
L 584.75642 62.21906 
L 586.901227 59.25776 
L 589.046035 49.378586 
L 591.190842 41.199928 
L 593.33565 41.962911 
L 597.625265 60.430791 
L 599.770073 61.637858 
L 601.91488 53.525149 
L 604.059688 43.405044 
L 606.204495 40.532924 
L 608.349303 47.614325 
L 610.49411 58.164079 
L 612.638918 62.371409 
L 614.783726 56.239023 
L 616.928533 45.471432 
L 619.073341 40.251642 
L 621.218148 45.606175 
L 623.362956 56.476355 
L 625.507763 62.407472 
L 627.652571 57.6005 
L 629.797379 46.668468 
L 631.942186 40.304513 
L 634.086994 44.831304 
L 636.231801 55.833535 
L 638.376609 62.366096 
L 640.521416 57.830907 
L 642.666224 46.727998 
L 644.811032 40.290823 
L 646.955839 45.131643 
L 649.100647 56.359817 
L 651.245454 62.421681 
L 653.390262 56.982049 
L 655.535069 45.639195 
L 657.679877 40.263324 
L 659.824684 46.574277 
L 661.969492 57.955537 
L 664.1143 62.294438 
L 666.259107 54.88443 
L 668.403915 43.637411 
L 670.548722 40.726205 
L 672.69353 49.383903 
L 674.838337 60.199949 
L 676.983145 61.269216 
L 676.983145 61.269216 
" clip-path="url(#p1c4d93ea97)" style="fill: none; stroke: #8dd3c7; stroke-width: 2; stroke-linecap: round"/>
   </g>
   <g id="patch_8">
    <path d="M 10.810376 118.08 
L 680.410376 118.08 
" style="fill: none; stroke: #262626; stroke-width: 0.8; stroke-linejoin: miter; stroke-linecap: square"/>
   </g>
   <g id="legend_1">
    <g id="line2d_81">
     <path d="M 585.054126 19.857812 
L 595.054126 19.857812 
L 605.054126 19.857812 
" style="fill: none; stroke: #8dd3c7; stroke-width: 2; stroke-linecap: round"/>
    </g>
    <g id="text_18">
     <!-- sin curve line -->
     <g style="fill: #262626" transform="translate(613.054126 23.357812) scale(0.1 -0.1)">
      <defs>
       <path id="ArialMT-73" d="M 197 991 
L 753 1078 
Q 800 744 1014 566 
Q 1228 388 1613 388 
Q 2000 388 2187 545 
Q 2375 703 2375 916 
Q 2375 1106 2209 1216 
Q 2094 1291 1634 1406 
Q 1016 1563 777 1677 
Q 538 1791 414 1992 
Q 291 2194 291 2438 
Q 291 2659 392 2848 
Q 494 3038 669 3163 
Q 800 3259 1026 3326 
Q 1253 3394 1513 3394 
Q 1903 3394 2198 3281 
Q 2494 3169 2634 2976 
Q 2775 2784 2828 2463 
L 2278 2388 
Q 2241 2644 2061 2787 
Q 1881 2931 1553 2931 
Q 1166 2931 1000 2803 
Q 834 2675 834 2503 
Q 834 2394 903 2306 
Q 972 2216 1119 2156 
Q 1203 2125 1616 2013 
Q 2213 1853 2448 1751 
Q 2684 1650 2818 1456 
Q 2953 1263 2953 975 
Q 2953 694 2789 445 
Q 2625 197 2315 61 
Q 2006 -75 1616 -75 
Q 969 -75 630 194 
Q 291 463 197 991 
z
" transform="scale(0.015625)"/>
       <path id="ArialMT-69" d="M 425 3934 
L 425 4581 
L 988 4581 
L 988 3934 
L 425 3934 
z
M 425 0 
L 425 3319 
L 988 3319 
L 988 0 
L 425 0 
z
" transform="scale(0.015625)"/>
       <path id="ArialMT-6e" d="M 422 0 
L 422 3319 
L 928 3319 
L 928 2847 
Q 1294 3394 1984 3394 
Q 2284 3394 2536 3286 
Q 2788 3178 2913 3003 
Q 3038 2828 3088 2588 
Q 3119 2431 3119 2041 
L 3119 0 
L 2556 0 
L 2556 2019 
Q 2556 2363 2490 2533 
Q 2425 2703 2258 2804 
Q 2091 2906 1866 2906 
Q 1506 2906 1245 2678 
Q 984 2450 984 1813 
L 984 0 
L 422 0 
z
" transform="scale(0.015625)"/>
       <path id="ArialMT-20" transform="scale(0.015625)"/>
       <path id="ArialMT-63" d="M 2588 1216 
L 3141 1144 
Q 3050 572 2676 248 
Q 2303 -75 1759 -75 
Q 1078 -75 664 370 
Q 250 816 250 1647 
Q 250 2184 428 2587 
Q 606 2991 970 3192 
Q 1334 3394 1763 3394 
Q 2303 3394 2647 3120 
Q 2991 2847 3088 2344 
L 2541 2259 
Q 2463 2594 2264 2762 
Q 2066 2931 1784 2931 
Q 1359 2931 1093 2626 
Q 828 2322 828 1663 
Q 828 994 1084 691 
Q 1341 388 1753 388 
Q 2084 388 2306 591 
Q 2528 794 2588 1216 
z
" transform="scale(0.015625)"/>
       <path id="ArialMT-75" d="M 2597 0 
L 2597 488 
Q 2209 -75 1544 -75 
Q 1250 -75 995 37 
Q 741 150 617 320 
Q 494 491 444 738 
Q 409 903 409 1263 
L 409 3319 
L 972 3319 
L 972 1478 
Q 972 1038 1006 884 
Q 1059 663 1231 536 
Q 1403 409 1656 409 
Q 1909 409 2131 539 
Q 2353 669 2445 892 
Q 2538 1116 2538 1541 
L 2538 3319 
L 3100 3319 
L 3100 0 
L 2597 0 
z
" transform="scale(0.015625)"/>
       <path id="ArialMT-72" d="M 416 0 
L 416 3319 
L 922 3319 
L 922 2816 
Q 1116 3169 1280 3281 
Q 1444 3394 1641 3394 
Q 1925 3394 2219 3213 
L 2025 2691 
Q 1819 2813 1613 2813 
Q 1428 2813 1281 2702 
Q 1134 2591 1072 2394 
Q 978 2094 978 1738 
L 978 0 
L 416 0 
z
" transform="scale(0.015625)"/>
       <path id="ArialMT-76" d="M 1344 0 
L 81 3319 
L 675 3319 
L 1388 1331 
Q 1503 1009 1600 663 
Q 1675 925 1809 1294 
L 2547 3319 
L 3125 3319 
L 1869 0 
L 1344 0 
z
" transform="scale(0.015625)"/>
       <path id="ArialMT-6c" d="M 409 0 
L 409 4581 
L 972 4581 
L 972 0 
L 409 0 
z
" transform="scale(0.015625)"/>
      </defs>
      <use xlink:href="#ArialMT-73"/>
      <use xlink:href="#ArialMT-69" transform="translate(50 0)"/>
      <use xlink:href="#ArialMT-6e" transform="translate(72.216797 0)"/>
      <use xlink:href="#ArialMT-20" transform="translate(127.832031 0)"/>
      <use xlink:href="#ArialMT-63" transform="translate(155.615234 0)"/>
      <use xlink:href="#ArialMT-75" transform="translate(205.615234 0)"/>
      <use xlink:href="#ArialMT-72" transform="translate(261.230469 0)"/>
      <use xlink:href="#ArialMT-76" transform="translate(294.53125 0)"/>
      <use xlink:href="#ArialMT-65" transform="translate(344.53125 0)"/>
      <use xlink:href="#ArialMT-20" transform="translate(400.146484 0)"/>
      <use xlink:href="#ArialMT-6c" transform="translate(427.929688 0)"/>
      <use xlink:href="#ArialMT-69" transform="translate(450.146484 0)"/>
      <use xlink:href="#ArialMT-6e" transform="translate(472.363281 0)"/>
      <use xlink:href="#ArialMT-65" transform="translate(527.978516 0)"/>
     </g>
    </g>
   </g>
  </g>
 </g>
 <defs>
  <clipPath id="p1c4d93ea97">
   <rect x="10.810376" y="7.2" width="669.6" height="110.88"/>
  </clipPath>
 </defs>
</svg>
