<?xml version="1.0" encoding="utf-8" standalone="no"?>
<!DOCTYPE svg PUBLIC "-//W3C//DTD SVG 1.1//EN"
  "http://www.w3.org/Graphics/SVG/1.1/DTD/svg11.dtd">
<svg xmlns:xlink="http://www.w3.org/1999/xlink" width="699.506865pt" height="670.6732pt" viewBox="0 0 699.506865 670.6732" xmlns="http://www.w3.org/2000/svg" version="1.1">
 <metadata>
  <rdf:RDF xmlns:dc="http://purl.org/dc/elements/1.1/" xmlns:cc="http://creativecommons.org/ns#" xmlns:rdf="http://www.w3.org/1999/02/22-rdf-syntax-ns#">
   <cc:Work>
    <dc:type rdf:resource="http://purl.org/dc/dcmitype/StillImage"/>
    <dc:date>2025-02-01T16:15:18.947166</dc:date>
    <dc:format>image/svg+xml</dc:format>
    <dc:creator>
     <cc:Agent>
      <dc:title>Matplotlib v3.8.4, https://matplotlib.org/</dc:title>
     </cc:Agent>
    </dc:creator>
   </cc:Work>
  </rdf:RDF>
 </metadata>
 <defs>
  <style type="text/css">*{stroke-linejoin: round; stroke-linecap: butt}</style>
 </defs>
 <g id="figure_1">
  <g id="patch_1">
   <path d="M 0 670.6732 
L 699.506865 670.6732 
L 699.506865 0 
L 0 0 
z
" style="fill: #ffffff"/>
  </g>
  <g id="axes_1">
   <g id="patch_2">
    <path d="M 22.706865 30.693674 
L 692.306865 30.693674 
L 692.306865 30.4166 
L 22.706865 30.4166 
z
" style="fill: #ffffff"/>
   </g>
   <g id="matplotlib.axis_1">
    <g id="xtick_1">
     <g id="line2d_1">
      <defs>
       <path id="me358b4f2f3" d="M 0 0 
L 0 -3.84 
" style="stroke: #262626; stroke-width: 0.8"/>
      </defs>
      <g>
       <use xlink:href="#me358b4f2f3" x="23.511813" y="30.4166" style="fill: #262626; stroke: #262626; stroke-width: 0.8"/>
      </g>
     </g>
     <g id="text_1">
      <!-- 0.0 -->
      <g style="fill: #262626" transform="translate(18.619013 21.6774) scale(0.0704 -0.0704)">
       <defs>
        <path id="ArialMT-30" d="M 266 2259 
Q 266 3072 433 3567 
Q 600 4063 929 4331 
Q 1259 4600 1759 4600 
Q 2128 4600 2406 4451 
Q 2684 4303 2865 4023 
Q 3047 3744 3150 3342 
Q 3253 2941 3253 2259 
Q 3253 1453 3087 958 
Q 2922 463 2592 192 
Q 2263 -78 1759 -78 
Q 1097 -78 719 397 
Q 266 969 266 2259 
z
M 844 2259 
Q 844 1131 1108 757 
Q 1372 384 1759 384 
Q 2147 384 2411 759 
Q 2675 1134 2675 2259 
Q 2675 3391 2411 3762 
Q 2147 4134 1753 4134 
Q 1366 4134 1134 3806 
Q 844 3388 844 2259 
z
" transform="scale(0.015625)"/>
        <path id="ArialMT-2e" d="M 581 0 
L 581 641 
L 1222 641 
L 1222 0 
L 581 0 
z
" transform="scale(0.015625)"/>
       </defs>
       <use xlink:href="#ArialMT-30"/>
       <use xlink:href="#ArialMT-2e" x="55.615234"/>
       <use xlink:href="#ArialMT-30" x="83.398438"/>
      </g>
     </g>
    </g>
    <g id="xtick_2">
     <g id="line2d_2">
      <g>
       <use xlink:href="#me358b4f2f3" x="157.669851" y="30.4166" style="fill: #262626; stroke: #262626; stroke-width: 0.8"/>
      </g>
     </g>
     <g id="text_2">
      <!-- 0.5 -->
      <g style="fill: #262626" transform="translate(152.777051 21.6774) scale(0.0704 -0.0704)">
       <defs>
        <path id="ArialMT-35" d="M 266 1200 
L 856 1250 
Q 922 819 1161 601 
Q 1400 384 1738 384 
Q 2144 384 2425 690 
Q 2706 997 2706 1503 
Q 2706 1984 2436 2262 
Q 2166 2541 1728 2541 
Q 1456 2541 1237 2417 
Q 1019 2294 894 2097 
L 366 2166 
L 809 4519 
L 3088 4519 
L 3088 3981 
L 1259 3981 
L 1013 2750 
Q 1425 3038 1878 3038 
Q 2478 3038 2890 2622 
Q 3303 2206 3303 1553 
Q 3303 931 2941 478 
Q 2500 -78 1738 -78 
Q 1113 -78 717 272 
Q 322 622 266 1200 
z
" transform="scale(0.015625)"/>
       </defs>
       <use xlink:href="#ArialMT-30"/>
       <use xlink:href="#ArialMT-2e" x="55.615234"/>
       <use xlink:href="#ArialMT-35" x="83.398438"/>
      </g>
     </g>
    </g>
    <g id="xtick_3">
     <g id="line2d_3">
      <g>
       <use xlink:href="#me358b4f2f3" x="291.827889" y="30.4166" style="fill: #262626; stroke: #262626; stroke-width: 0.8"/>
      </g>
     </g>
     <g id="text_3">
      <!-- 1.0 -->
      <g style="fill: #262626" transform="translate(286.935089 21.6774) scale(0.0704 -0.0704)">
       <defs>
        <path id="ArialMT-31" d="M 2384 0 
L 1822 0 
L 1822 3584 
Q 1619 3391 1289 3197 
Q 959 3003 697 2906 
L 697 3450 
Q 1169 3672 1522 3987 
Q 1875 4303 2022 4600 
L 2384 4600 
L 2384 0 
z
" transform="scale(0.015625)"/>
       </defs>
       <use xlink:href="#ArialMT-31"/>
       <use xlink:href="#ArialMT-2e" x="55.615234"/>
       <use xlink:href="#ArialMT-30" x="83.398438"/>
      </g>
     </g>
    </g>
    <g id="xtick_4">
     <g id="line2d_4">
      <g>
       <use xlink:href="#me358b4f2f3" x="425.985927" y="30.4166" style="fill: #262626; stroke: #262626; stroke-width: 0.8"/>
      </g>
     </g>
     <g id="text_4">
      <!-- 1.5 -->
      <g style="fill: #262626" transform="translate(421.093127 21.6774) scale(0.0704 -0.0704)">
       <use xlink:href="#ArialMT-31"/>
       <use xlink:href="#ArialMT-2e" x="55.615234"/>
       <use xlink:href="#ArialMT-35" x="83.398438"/>
      </g>
     </g>
    </g>
    <g id="xtick_5">
     <g id="line2d_5">
      <g>
       <use xlink:href="#me358b4f2f3" x="560.143966" y="30.4166" style="fill: #262626; stroke: #262626; stroke-width: 0.8"/>
      </g>
     </g>
     <g id="text_5">
      <!-- 2.0 -->
      <g style="fill: #262626" transform="translate(555.251166 21.6774) scale(0.0704 -0.0704)">
       <defs>
        <path id="ArialMT-32" d="M 3222 541 
L 3222 0 
L 194 0 
Q 188 203 259 391 
Q 375 700 629 1000 
Q 884 1300 1366 1694 
Q 2113 2306 2375 2664 
Q 2638 3022 2638 3341 
Q 2638 3675 2398 3904 
Q 2159 4134 1775 4134 
Q 1369 4134 1125 3890 
Q 881 3647 878 3216 
L 300 3275 
Q 359 3922 746 4261 
Q 1134 4600 1788 4600 
Q 2447 4600 2831 4234 
Q 3216 3869 3216 3328 
Q 3216 3053 3103 2787 
Q 2991 2522 2730 2228 
Q 2469 1934 1863 1422 
Q 1356 997 1212 845 
Q 1069 694 975 541 
L 3222 541 
z
" transform="scale(0.015625)"/>
       </defs>
       <use xlink:href="#ArialMT-32"/>
       <use xlink:href="#ArialMT-2e" x="55.615234"/>
       <use xlink:href="#ArialMT-30" x="83.398438"/>
      </g>
     </g>
    </g>
    <g id="text_6">
     <!-- 1e8 -->
     <g style="fill: #262626" transform="translate(680.562165 12.2391) scale(0.0704 -0.0704)">
      <defs>
       <path id="ArialMT-65" d="M 2694 1069 
L 3275 997 
Q 3138 488 2766 206 
Q 2394 -75 1816 -75 
Q 1088 -75 661 373 
Q 234 822 234 1631 
Q 234 2469 665 2931 
Q 1097 3394 1784 3394 
Q 2450 3394 2872 2941 
Q 3294 2488 3294 1666 
Q 3294 1616 3291 1516 
L 816 1516 
Q 847 969 1125 678 
Q 1403 388 1819 388 
Q 2128 388 2347 550 
Q 2566 713 2694 1069 
z
M 847 1978 
L 2700 1978 
Q 2663 2397 2488 2606 
Q 2219 2931 1791 2931 
Q 1403 2931 1139 2672 
Q 875 2413 847 1978 
z
" transform="scale(0.015625)"/>
       <path id="ArialMT-38" d="M 1131 2484 
Q 781 2613 612 2850 
Q 444 3088 444 3419 
Q 444 3919 803 4259 
Q 1163 4600 1759 4600 
Q 2359 4600 2725 4251 
Q 3091 3903 3091 3403 
Q 3091 3084 2923 2848 
Q 2756 2613 2416 2484 
Q 2838 2347 3058 2040 
Q 3278 1734 3278 1309 
Q 3278 722 2862 322 
Q 2447 -78 1769 -78 
Q 1091 -78 675 323 
Q 259 725 259 1325 
Q 259 1772 486 2073 
Q 713 2375 1131 2484 
z
M 1019 3438 
Q 1019 3113 1228 2906 
Q 1438 2700 1772 2700 
Q 2097 2700 2305 2904 
Q 2513 3109 2513 3406 
Q 2513 3716 2298 3927 
Q 2084 4138 1766 4138 
Q 1444 4138 1231 3931 
Q 1019 3725 1019 3438 
z
M 838 1322 
Q 838 1081 952 856 
Q 1066 631 1291 507 
Q 1516 384 1775 384 
Q 2178 384 2440 643 
Q 2703 903 2703 1303 
Q 2703 1709 2433 1975 
Q 2163 2241 1756 2241 
Q 1359 2241 1098 1978 
Q 838 1716 838 1322 
z
" transform="scale(0.015625)"/>
      </defs>
      <use xlink:href="#ArialMT-31"/>
      <use xlink:href="#ArialMT-65" x="55.615234"/>
      <use xlink:href="#ArialMT-38" x="111.230469"/>
     </g>
    </g>
   </g>
   <g id="matplotlib.axis_2">
    <g id="ytick_1"/>
    <g id="ytick_2"/>
   </g>
   <g id="patch_3">
    <path d="M 22.706865 30.693674 
L 22.706865 30.4166 
" style="fill: none; stroke: #262626; stroke-width: 0.8; stroke-linejoin: miter; stroke-linecap: square"/>
   </g>
   <g id="patch_4">
    <path d="M 692.306865 30.693674 
L 692.306865 30.4166 
" style="fill: none; stroke: #262626; stroke-width: 0.8; stroke-linejoin: miter; stroke-linecap: square"/>
   </g>
   <g id="patch_5">
    <path d="M 22.706865 30.693674 
L 692.306865 30.693674 
" style="fill: none; stroke: #262626; stroke-width: 0.8; stroke-linejoin: miter; stroke-linecap: square"/>
   </g>
   <g id="patch_6">
    <path d="M 22.706865 30.4166 
L 692.306865 30.4166 
" style="fill: none; stroke: #262626; stroke-width: 0.8; stroke-linejoin: miter; stroke-linecap: square"/>
   </g>
  </g>
  <g id="axes_2">
   <g id="patch_7">
    <path d="M 22.706865 58.40108 
L 692.306865 58.40108 
L 692.306865 30.693674 
L 22.706865 30.693674 
z
" style="fill: #ffffff"/>
   </g>
   <g id="patch_8">
    <path d="M 23.511813 47.28481 
L 350.052478 47.28481 
L 350.052478 41.743328 
L 23.511813 41.743328 
z
" clip-path="url(#pbeff7a6f12)" style="fill: #ebeaea"/>
   </g>
   <g id="patch_9">
    <path d="M 359.175224 47.28481 
L 691.501916 47.28481 
L 691.501916 41.743328 
L 359.175224 41.743328 
z
" clip-path="url(#pbeff7a6f12)" style="fill: #ebeaea"/>
   </g>
   <g id="patch_10">
    <path d="M 23.511813 47.28481 
L 350.052478 47.28481 
L 350.052478 41.743328 
L 23.511813 41.743328 
L 23.511813 47.28481 
z
" clip-path="url(#pbeff7a6f12)" style="fill: none; stroke: #000000; stroke-width: 0.7; stroke-linejoin: miter"/>
   </g>
   <g id="patch_11">
    <path d="M 359.175224 47.28481 
L 691.501916 47.28481 
L 691.501916 41.743328 
L 359.175224 41.743328 
L 359.175224 47.28481 
z
" clip-path="url(#pbeff7a6f12)" style="fill: none; stroke: #000000; stroke-width: 0.7; stroke-linejoin: miter"/>
   </g>
   <g id="matplotlib.axis_3">
    <g id="xtick_6"/>
    <g id="xtick_7"/>
    <g id="xtick_8"/>
    <g id="xtick_9"/>
    <g id="xtick_10"/>
   </g>
   <g id="matplotlib.axis_4">
    <g id="ytick_3"/>
    <g id="ytick_4"/>
   </g>
   <g id="patch_12">
    <path d="M 350.052478 47.28481 
L 350.052478 41.743328 
L 359.175224 47.28481 
L 359.175224 41.743328 
z
" clip-path="url(#pbeff7a6f12)" style="fill: #777777; stroke: #777777; stroke-width: 0.64; stroke-linejoin: miter"/>
   </g>
   <g id="text_7">
    <!-- 1 -->
    <g style="fill: #262626" transform="translate(14.740682 46.3286) scale(0.07 -0.07)">
     <defs>
      <path id="Arial-BoldMT-31" d="M 2519 0 
L 1641 0 
L 1641 3309 
Q 1159 2859 506 2644 
L 506 3441 
Q 850 3553 1253 3867 
Q 1656 4181 1806 4600 
L 2519 4600 
L 2519 0 
z
" transform="scale(0.015625)"/>
     </defs>
     <use xlink:href="#Arial-BoldMT-31"/>
    </g>
   </g>
   <g id="patch_13">
    <path d="M 615.039122 47.361315 
L 678.731152 47.361315 
L 678.731152 41.858087 
L 615.039122 41.858087 
z
" clip-path="url(#pbeff7a6f12)" style="fill: #1f77b4; opacity: 0.500117"/>
   </g>
   <g id="patch_14">
    <path d="M 443.268072 47.361315 
L 492.350939 47.361315 
L 492.350939 41.858087 
L 443.268072 41.858087 
z
" clip-path="url(#pbeff7a6f12)" style="fill: #1f77b4; opacity: 0.789312"/>
   </g>
   <g id="patch_15">
    <path d="M 409.483764 47.361315 
L 420.406617 47.361315 
L 420.406617 41.858087 
L 409.483764 41.858087 
z
" clip-path="url(#pbeff7a6f12)" style="fill: #1f77b4; opacity: 0.886696"/>
   </g>
   <g id="patch_16">
    <path d="M 335.847495 47.361315 
L 388.995184 47.361315 
L 388.995184 41.858087 
L 335.847495 41.858087 
z
" clip-path="url(#pbeff7a6f12)" style="fill: #1f77b4; opacity: 0.960553"/>
   </g>
   <g id="patch_17">
    <path d="M 324.7026 47.361315 
L 329.274086 47.361315 
L 329.274086 41.858087 
L 324.7026 41.858087 
z
" clip-path="url(#pbeff7a6f12)" style="fill: #1f77b4; opacity: 0.71717"/>
   </g>
   <g id="patch_18">
    <path d="M 286.90126 47.361315 
L 307.885598 47.361315 
L 307.885598 41.858087 
L 286.90126 41.858087 
z
" clip-path="url(#pbeff7a6f12)" style="fill: #1f77b4; opacity: 0.718759"/>
   </g>
   <g id="patch_19">
    <path d="M 196.850658 47.361315 
L 256.754135 47.361315 
L 256.754135 41.858087 
L 196.850658 41.858087 
z
" clip-path="url(#pbeff7a6f12)" style="fill: #1f77b4; opacity: 0.257054"/>
   </g>
   <g id="patch_20">
    <path d="M 132.161758 47.361315 
L 178.149355 47.361315 
L 178.149355 41.858087 
L 132.161758 41.858087 
z
" clip-path="url(#pbeff7a6f12)" style="fill: #1f77b4; opacity: 0.394981"/>
   </g>
   <g id="patch_21">
    <path d="M 88.848358 47.361315 
L 91.309492 47.361315 
L 91.309492 41.858087 
L 88.848358 41.858087 
z
" clip-path="url(#pbeff7a6f12)" style="fill: #1f77b4; opacity: 0.957157"/>
   </g>
   <g id="patch_22">
    <path d="M 75.684444 47.361315 
L 85.41578 47.361315 
L 85.41578 41.858087 
L 75.684444 41.858087 
z
" clip-path="url(#pbeff7a6f12)" style="fill: #1f77b4; opacity: 0.235976"/>
   </g>
   <g id="patch_23">
    <path d="M 65.285854 47.361315 
L 73.825563 47.361315 
L 73.825563 41.858087 
L 65.285854 41.858087 
z
" clip-path="url(#pbeff7a6f12)" style="fill: #1f77b4; opacity: 0.589873"/>
   </g>
   <g id="patch_24">
    <path d="M 50.518269 47.361315 
L 58.290376 47.361315 
L 58.290376 41.858087 
L 50.518269 41.858087 
z
" clip-path="url(#pbeff7a6f12)" style="fill: #1f77b4; opacity: 0.375391"/>
   </g>
  </g>
  <g id="axes_3">
   <g id="patch_25">
    <path d="M 22.706865 86.108486 
L 692.306865 86.108486 
L 692.306865 58.40108 
L 22.706865 58.40108 
z
" style="fill: #ffffff"/>
   </g>
   <g id="patch_26">
    <path d="M 23.511813 74.992215 
L 269.825971 74.992215 
L 269.825971 69.450734 
L 23.511813 69.450734 
z
" clip-path="url(#p5e73d2beda)" style="fill: #ebeaea"/>
   </g>
   <g id="patch_27">
    <path d="M 281.095246 74.992215 
L 673.355987 74.992215 
L 673.355987 69.450734 
L 281.095246 69.450734 
z
" clip-path="url(#p5e73d2beda)" style="fill: #ebeaea"/>
   </g>
   <g id="patch_28">
    <path d="M 23.511813 74.992215 
L 269.825971 74.992215 
L 269.825971 69.450734 
L 23.511813 69.450734 
L 23.511813 74.992215 
z
" clip-path="url(#p5e73d2beda)" style="fill: none; stroke: #000000; stroke-width: 0.7; stroke-linejoin: miter"/>
   </g>
   <g id="patch_29">
    <path d="M 281.095246 74.992215 
L 673.355987 74.992215 
L 673.355987 69.450734 
L 281.095246 69.450734 
L 281.095246 74.992215 
z
" clip-path="url(#p5e73d2beda)" style="fill: none; stroke: #000000; stroke-width: 0.7; stroke-linejoin: miter"/>
   </g>
   <g id="matplotlib.axis_5">
    <g id="xtick_11"/>
    <g id="xtick_12"/>
    <g id="xtick_13"/>
    <g id="xtick_14"/>
    <g id="xtick_15"/>
   </g>
   <g id="matplotlib.axis_6">
    <g id="ytick_5"/>
    <g id="ytick_6"/>
   </g>
   <g id="patch_30">
    <path d="M 269.825971 74.992215 
L 269.825971 69.450734 
L 281.095246 74.992215 
L 281.095246 69.450734 
z
" clip-path="url(#p5e73d2beda)" style="fill: #777777; stroke: #777777; stroke-width: 0.64; stroke-linejoin: miter"/>
   </g>
   <g id="text_8">
    <!-- 2 -->
    <g style="fill: #262626" transform="translate(14.740682 74.036006) scale(0.07 -0.07)">
     <defs>
      <path id="Arial-BoldMT-32" d="M 3238 816 
L 3238 0 
L 159 0 
Q 209 463 459 877 
Q 709 1291 1447 1975 
Q 2041 2528 2175 2725 
Q 2356 2997 2356 3263 
Q 2356 3556 2198 3714 
Q 2041 3872 1763 3872 
Q 1488 3872 1325 3706 
Q 1163 3541 1138 3156 
L 263 3244 
Q 341 3969 753 4284 
Q 1166 4600 1784 4600 
Q 2463 4600 2850 4234 
Q 3238 3869 3238 3325 
Q 3238 3016 3127 2736 
Q 3016 2456 2775 2150 
Q 2616 1947 2200 1565 
Q 1784 1184 1673 1059 
Q 1563 934 1494 816 
L 3238 816 
z
" transform="scale(0.015625)"/>
     </defs>
     <use xlink:href="#Arial-BoldMT-32"/>
    </g>
   </g>
   <g id="patch_31">
    <path d="M 619.056586 75.068721 
L 641.828427 75.068721 
L 641.828427 69.565493 
L 619.056586 69.565493 
z
" clip-path="url(#p5e73d2beda)" style="fill: #1f77b4; opacity: 0.548145"/>
   </g>
   <g id="patch_32">
    <path d="M 475.424031 75.068721 
L 477.723586 75.068721 
L 477.723586 69.565493 
L 475.424031 69.565493 
z
" clip-path="url(#p5e73d2beda)" style="fill: #1f77b4; opacity: 0.273921"/>
   </g>
   <g id="patch_33">
    <path d="M 443.418528 75.068721 
L 445.251234 75.068721 
L 445.251234 69.565493 
L 443.418528 69.565493 
z
" clip-path="url(#p5e73d2beda)" style="fill: #1f77b4; opacity: 0.144745"/>
   </g>
   <g id="patch_34">
    <path d="M 434.715529 75.068721 
L 439.173373 75.068721 
L 439.173373 69.565493 
L 434.715529 69.565493 
z
" clip-path="url(#p5e73d2beda)" style="fill: #1f77b4; opacity: 0.626437"/>
   </g>
   <g id="patch_35">
    <path d="M 424.452756 75.068721 
L 430.782936 75.068721 
L 430.782936 69.565493 
L 424.452756 69.565493 
z
" clip-path="url(#p5e73d2beda)" style="fill: #1f77b4; opacity: 0.602347"/>
   </g>
   <g id="patch_36">
    <path d="M 325.399006 75.068721 
L 412.943786 75.068721 
L 412.943786 69.565493 
L 325.399006 69.565493 
z
" clip-path="url(#p5e73d2beda)" style="fill: #1f77b4; opacity: 0.288182"/>
   </g>
   <g id="patch_37">
    <path d="M 232.10449 75.068721 
L 309.223102 75.068721 
L 309.223102 69.565493 
L 232.10449 69.565493 
z
" clip-path="url(#p5e73d2beda)" style="fill: #1f77b4; opacity: 0.288445"/>
   </g>
   <g id="patch_38">
    <path d="M 182.747211 75.068721 
L 184.3009 75.068721 
L 184.3009 69.565493 
L 182.747211 69.565493 
z
" clip-path="url(#p5e73d2beda)" style="fill: #1f77b4; opacity: 0.246993"/>
   </g>
   <g id="patch_39">
    <path d="M 119.431703 75.068721 
L 127.412325 75.068721 
L 127.412325 69.565493 
L 119.431703 69.565493 
z
" clip-path="url(#p5e73d2beda)" style="fill: #1f77b4; opacity: 0.895813"/>
   </g>
   <g id="patch_40">
    <path d="M 108.352315 75.068721 
L 112.680849 75.068721 
L 112.680849 69.565493 
L 108.352315 69.565493 
z
" clip-path="url(#p5e73d2beda)" style="fill: #1f77b4; opacity: 0.634472"/>
   </g>
   <g id="patch_41">
    <path d="M 66.086477 75.068721 
L 68.068292 75.068721 
L 68.068292 69.565493 
L 66.086477 69.565493 
z
" clip-path="url(#p5e73d2beda)" style="fill: #1f77b4; opacity: 0.47522"/>
   </g>
   <g id="patch_42">
    <path d="M 57.063244 75.068721 
L 59.228785 75.068721 
L 59.228785 69.565493 
L 57.063244 69.565493 
z
" clip-path="url(#p5e73d2beda)" style="fill: #1f77b4; opacity: 0.770149"/>
   </g>
  </g>
  <g id="axes_4">
   <g id="patch_43">
    <path d="M 22.706865 113.815891 
L 692.306865 113.815891 
L 692.306865 86.108486 
L 22.706865 86.108486 
z
" style="fill: #ffffff"/>
   </g>
   <g id="patch_44">
    <path d="M 23.511813 102.699621 
L 259.093328 102.699621 
L 259.093328 97.15814 
L 23.511813 97.15814 
z
" clip-path="url(#p14b924450d)" style="fill: #ebeaea"/>
   </g>
   <g id="patch_45">
    <path d="M 275.728925 102.699621 
L 555.570676 102.699621 
L 555.570676 97.15814 
L 275.728925 97.15814 
z
" clip-path="url(#p14b924450d)" style="fill: #ebeaea"/>
   </g>
   <g id="patch_46">
    <path d="M 23.511813 102.699621 
L 259.093328 102.699621 
L 259.093328 97.15814 
L 23.511813 97.15814 
L 23.511813 102.699621 
z
" clip-path="url(#p14b924450d)" style="fill: none; stroke: #000000; stroke-width: 0.7; stroke-linejoin: miter"/>
   </g>
   <g id="patch_47">
    <path d="M 275.728925 102.699621 
L 555.570676 102.699621 
L 555.570676 97.15814 
L 275.728925 97.15814 
L 275.728925 102.699621 
z
" clip-path="url(#p14b924450d)" style="fill: none; stroke: #000000; stroke-width: 0.7; stroke-linejoin: miter"/>
   </g>
   <g id="matplotlib.axis_7">
    <g id="xtick_16"/>
    <g id="xtick_17"/>
    <g id="xtick_18"/>
    <g id="xtick_19"/>
    <g id="xtick_20"/>
   </g>
   <g id="matplotlib.axis_8">
    <g id="ytick_7"/>
    <g id="ytick_8"/>
   </g>
   <g id="patch_48">
    <path d="M 259.093328 102.699621 
L 259.093328 97.15814 
L 275.728925 102.699621 
L 275.728925 97.15814 
z
" clip-path="url(#p14b924450d)" style="fill: #777777; stroke: #777777; stroke-width: 0.64; stroke-linejoin: miter"/>
   </g>
   <g id="text_9">
    <!-- 3 -->
    <g style="fill: #262626" transform="translate(14.740682 101.743412) scale(0.07 -0.07)">
     <defs>
      <path id="Arial-BoldMT-33" d="M 241 1216 
L 1091 1319 
Q 1131 994 1309 822 
Q 1488 650 1741 650 
Q 2013 650 2198 856 
Q 2384 1063 2384 1413 
Q 2384 1744 2206 1937 
Q 2028 2131 1772 2131 
Q 1603 2131 1369 2066 
L 1466 2781 
Q 1822 2772 2009 2936 
Q 2197 3100 2197 3372 
Q 2197 3603 2059 3740 
Q 1922 3878 1694 3878 
Q 1469 3878 1309 3722 
Q 1150 3566 1116 3266 
L 306 3403 
Q 391 3819 561 4067 
Q 731 4316 1036 4458 
Q 1341 4600 1719 4600 
Q 2366 4600 2756 4188 
Q 3078 3850 3078 3425 
Q 3078 2822 2419 2463 
Q 2813 2378 3048 2084 
Q 3284 1791 3284 1375 
Q 3284 772 2843 347 
Q 2403 -78 1747 -78 
Q 1125 -78 715 280 
Q 306 638 241 1216 
z
" transform="scale(0.015625)"/>
     </defs>
     <use xlink:href="#Arial-BoldMT-33"/>
    </g>
   </g>
   <g id="patch_49">
    <path d="M 483.692741 102.776127 
L 514.727995 102.776127 
L 514.727995 97.272899 
L 483.692741 97.272899 
z
" clip-path="url(#p14b924450d)" style="fill: #1f77b4; opacity: 0.45499"/>
   </g>
   <g id="patch_50">
    <path d="M 442.412519 102.776127 
L 469.356868 102.776127 
L 469.356868 97.272899 
L 442.412519 97.272899 
z
" clip-path="url(#p14b924450d)" style="fill: #1f77b4; opacity: 0.102026"/>
   </g>
   <g id="patch_51">
    <path d="M 430.00117 102.776127 
L 434.924904 102.776127 
L 434.924904 97.272899 
L 430.00117 97.272899 
z
" clip-path="url(#p14b924450d)" style="fill: #1f77b4; opacity: 0.845289"/>
   </g>
   <g id="patch_52">
    <path d="M 418.027764 102.776127 
L 427.040187 102.776127 
L 427.040187 97.272899 
L 418.027764 97.272899 
z
" clip-path="url(#p14b924450d)" style="fill: #1f77b4; opacity: 0.42473"/>
   </g>
   <g id="patch_53">
    <path d="M 291.733184 102.776127 
L 381.057071 102.776127 
L 381.057071 97.272899 
L 291.733184 97.272899 
z
" clip-path="url(#p14b924450d)" style="fill: #1f77b4; opacity: 0.00544"/>
   </g>
   <g id="patch_54">
    <path d="M 171.854705 102.776127 
L 245.697538 102.776127 
L 245.697538 97.272899 
L 171.854705 97.272899 
z
" clip-path="url(#p14b924450d)" style="fill: #1f77b4; opacity: 0.217817"/>
   </g>
   <g id="patch_55">
    <path d="M 153.680978 102.776127 
L 158.826948 102.776127 
L 158.826948 97.272899 
L 153.680978 97.272899 
z
" clip-path="url(#p14b924450d)" style="fill: #1f77b4; opacity: 0.598261"/>
   </g>
   <g id="patch_56">
    <path d="M 93.686719 102.776127 
L 97.738252 102.776127 
L 97.738252 97.272899 
L 93.686719 97.272899 
z
" clip-path="url(#p14b924450d)" style="fill: #1f77b4; opacity: 0.891604"/>
   </g>
   <g id="patch_57">
    <path d="M 66.439882 102.776127 
L 68.735916 102.776127 
L 68.735916 97.272899 
L 66.439882 97.272899 
z
" clip-path="url(#p14b924450d)" style="fill: #1f77b4; opacity: 0.947188"/>
   </g>
  </g>
  <g id="axes_5">
   <g id="patch_58">
    <path d="M 22.706865 141.523297 
L 692.306865 141.523297 
L 692.306865 113.815891 
L 22.706865 113.815891 
z
" style="fill: #ffffff"/>
   </g>
   <g id="patch_59">
    <path d="M 23.511813 130.407027 
L 152.840162 130.407027 
L 152.840162 124.865546 
L 23.511813 124.865546 
z
" clip-path="url(#p778bfc088e)" style="fill: #ebeaea"/>
   </g>
   <g id="patch_60">
    <path d="M 162.49954 130.407027 
L 533.888044 130.407027 
L 533.888044 124.865546 
L 162.49954 124.865546 
z
" clip-path="url(#p778bfc088e)" style="fill: #ebeaea"/>
   </g>
   <g id="patch_61">
    <path d="M 23.511813 130.407027 
L 152.840162 130.407027 
L 152.840162 124.865546 
L 23.511813 124.865546 
L 23.511813 130.407027 
z
" clip-path="url(#p778bfc088e)" style="fill: none; stroke: #000000; stroke-width: 0.7; stroke-linejoin: miter"/>
   </g>
   <g id="patch_62">
    <path d="M 162.49954 130.407027 
L 533.888044 130.407027 
L 533.888044 124.865546 
L 162.49954 124.865546 
L 162.49954 130.407027 
z
" clip-path="url(#p778bfc088e)" style="fill: none; stroke: #000000; stroke-width: 0.7; stroke-linejoin: miter"/>
   </g>
   <g id="matplotlib.axis_9">
    <g id="xtick_21"/>
    <g id="xtick_22"/>
    <g id="xtick_23"/>
    <g id="xtick_24"/>
    <g id="xtick_25"/>
   </g>
   <g id="matplotlib.axis_10">
    <g id="ytick_9"/>
    <g id="ytick_10"/>
   </g>
   <g id="patch_63">
    <path d="M 152.840162 130.407027 
L 152.840162 124.865546 
L 162.49954 130.407027 
L 162.49954 124.865546 
z
" clip-path="url(#p778bfc088e)" style="fill: #777777; stroke: #777777; stroke-width: 0.64; stroke-linejoin: miter"/>
   </g>
   <g id="text_10">
    <!-- 4 -->
    <g style="fill: #262626" transform="translate(14.740682 129.450817) scale(0.07 -0.07)">
     <defs>
      <path id="Arial-BoldMT-34" d="M 1994 0 
L 1994 922 
L 119 922 
L 119 1691 
L 2106 4600 
L 2844 4600 
L 2844 1694 
L 3413 1694 
L 3413 922 
L 2844 922 
L 2844 0 
L 1994 0 
z
M 1994 1694 
L 1994 3259 
L 941 1694 
L 1994 1694 
z
" transform="scale(0.015625)"/>
     </defs>
     <use xlink:href="#Arial-BoldMT-34"/>
    </g>
   </g>
   <g id="patch_64">
    <path d="M 445.265954 130.483533 
L 513.573624 130.483533 
L 513.573624 124.980304 
L 445.265954 124.980304 
z
" clip-path="url(#p778bfc088e)" style="fill: #1f77b4; opacity: 0.919091"/>
   </g>
   <g id="patch_65">
    <path d="M 406.486234 130.483533 
L 437.243638 130.483533 
L 437.243638 124.980304 
L 406.486234 124.980304 
z
" clip-path="url(#p778bfc088e)" style="fill: #1f77b4; opacity: 0.29462"/>
   </g>
   <g id="patch_66">
    <path d="M 380.122081 130.483533 
L 401.787472 130.483533 
L 401.787472 124.980304 
L 380.122081 124.980304 
z
" clip-path="url(#p778bfc088e)" style="fill: #1f77b4; opacity: 0.309834"/>
   </g>
   <g id="patch_67">
    <path d="M 349.920346 130.483533 
L 358.864109 130.483533 
L 358.864109 124.980304 
L 349.920346 124.980304 
z
" clip-path="url(#p778bfc088e)" style="fill: #1f77b4; opacity: 0.377211"/>
   </g>
   <g id="patch_68">
    <path d="M 283.943488 130.483533 
L 331.487514 130.483533 
L 331.487514 124.980304 
L 283.943488 124.980304 
z
" clip-path="url(#p778bfc088e)" style="fill: #1f77b4; opacity: 0.991801"/>
   </g>
   <g id="patch_69">
    <path d="M 249.778032 130.483533 
L 270.902058 130.483533 
L 270.902058 124.980304 
L 249.778032 124.980304 
z
" clip-path="url(#p778bfc088e)" style="fill: #1f77b4; opacity: 0.852276"/>
   </g>
   <g id="patch_70">
    <path d="M 239.152319 130.483533 
L 240.036203 130.483533 
L 240.036203 124.980304 
L 239.152319 124.980304 
z
" clip-path="url(#p778bfc088e)" style="fill: #1f77b4; opacity: 0.481678"/>
   </g>
   <g id="patch_71">
    <path d="M 199.323665 130.483533 
L 202.442421 130.483533 
L 202.442421 124.980304 
L 199.323665 124.980304 
z
" clip-path="url(#p778bfc088e)" style="fill: #1f77b4; opacity: 0.943898"/>
   </g>
   <g id="patch_72">
    <path d="M 82.468333 130.483533 
L 152.989799 130.483533 
L 152.989799 124.980304 
L 82.468333 124.980304 
z
" clip-path="url(#p778bfc088e)" style="fill: #1f77b4; opacity: 0.185241"/>
   </g>
  </g>
  <g id="axes_6">
   <g id="patch_73">
    <path d="M 22.706865 169.230703 
L 692.306865 169.230703 
L 692.306865 141.523297 
L 22.706865 141.523297 
z
" style="fill: #ffffff"/>
   </g>
   <g id="patch_74">
    <path d="M 23.511813 158.114432 
L 147.205524 158.114432 
L 147.205524 152.572951 
L 23.511813 152.572951 
z
" clip-path="url(#pd16d212f51)" style="fill: #ebeaea"/>
   </g>
   <g id="patch_75">
    <path d="M 161.426276 158.114432 
L 510.608147 158.114432 
L 510.608147 152.572951 
L 161.426276 152.572951 
z
" clip-path="url(#pd16d212f51)" style="fill: #ebeaea"/>
   </g>
   <g id="patch_76">
    <path d="M 23.511813 158.114432 
L 147.205524 158.114432 
L 147.205524 152.572951 
L 23.511813 152.572951 
L 23.511813 158.114432 
z
" clip-path="url(#pd16d212f51)" style="fill: none; stroke: #000000; stroke-width: 0.7; stroke-linejoin: miter"/>
   </g>
   <g id="patch_77">
    <path d="M 161.426276 158.114432 
L 510.608147 158.114432 
L 510.608147 152.572951 
L 161.426276 152.572951 
L 161.426276 158.114432 
z
" clip-path="url(#pd16d212f51)" style="fill: none; stroke: #000000; stroke-width: 0.7; stroke-linejoin: miter"/>
   </g>
   <g id="matplotlib.axis_11">
    <g id="xtick_26"/>
    <g id="xtick_27"/>
    <g id="xtick_28"/>
    <g id="xtick_29"/>
    <g id="xtick_30"/>
   </g>
   <g id="matplotlib.axis_12">
    <g id="ytick_11"/>
    <g id="ytick_12"/>
   </g>
   <g id="patch_78">
    <path d="M 147.205524 158.114432 
L 147.205524 152.572951 
L 161.426276 158.114432 
L 161.426276 152.572951 
z
" clip-path="url(#pd16d212f51)" style="fill: #777777; stroke: #777777; stroke-width: 0.64; stroke-linejoin: miter"/>
   </g>
   <g id="text_11">
    <!-- 5 -->
    <g style="fill: #262626" transform="translate(14.740682 157.158223) scale(0.07 -0.07)">
     <defs>
      <path id="Arial-BoldMT-35" d="M 284 1178 
L 1159 1269 
Q 1197 972 1381 798 
Q 1566 625 1806 625 
Q 2081 625 2272 848 
Q 2463 1072 2463 1522 
Q 2463 1944 2273 2155 
Q 2084 2366 1781 2366 
Q 1403 2366 1103 2031 
L 391 2134 
L 841 4519 
L 3163 4519 
L 3163 3697 
L 1506 3697 
L 1369 2919 
Q 1663 3066 1969 3066 
Q 2553 3066 2959 2641 
Q 3366 2216 3366 1538 
Q 3366 972 3038 528 
Q 2591 -78 1797 -78 
Q 1163 -78 763 262 
Q 363 603 284 1178 
z
" transform="scale(0.015625)"/>
     </defs>
     <use xlink:href="#Arial-BoldMT-35"/>
    </g>
   </g>
   <g id="patch_79">
    <path d="M 462.117883 158.190938 
L 504.79795 158.190938 
L 504.79795 152.68771 
L 462.117883 152.68771 
z
" clip-path="url(#pd16d212f51)" style="fill: #1f77b4; opacity: 0.100251"/>
   </g>
   <g id="patch_80">
    <path d="M 425.468933 158.190938 
L 436.236887 158.190938 
L 436.236887 152.68771 
L 425.468933 152.68771 
z
" clip-path="url(#pd16d212f51)" style="fill: #1f77b4; opacity: 0.875875"/>
   </g>
   <g id="patch_81">
    <path d="M 375.690165 158.190938 
L 392.234242 158.190938 
L 392.234242 152.68771 
L 375.690165 152.68771 
z
" clip-path="url(#pd16d212f51)" style="fill: #1f77b4; opacity: 0.440877"/>
   </g>
   <g id="patch_82">
    <path d="M 327.242365 158.190938 
L 346.787101 158.190938 
L 346.787101 152.68771 
L 327.242365 152.68771 
z
" clip-path="url(#pd16d212f51)" style="fill: #1f77b4; opacity: 0.472992"/>
   </g>
   <g id="patch_83">
    <path d="M 269.879382 158.190938 
L 324.667067 158.190938 
L 324.667067 152.68771 
L 269.879382 152.68771 
z
" clip-path="url(#pd16d212f51)" style="fill: #1f77b4; opacity: 0.901527"/>
   </g>
   <g id="patch_84">
    <path d="M 230.900564 158.190938 
L 249.490177 158.190938 
L 249.490177 152.68771 
L 230.900564 152.68771 
z
" clip-path="url(#pd16d212f51)" style="fill: #1f77b4; opacity: 0.087566"/>
   </g>
   <g id="patch_85">
    <path d="M 132.979505 158.190938 
L 142.326671 158.190938 
L 142.326671 152.68771 
L 132.979505 152.68771 
z
" clip-path="url(#pd16d212f51)" style="fill: #1f77b4; opacity: 0.841452"/>
   </g>
   <g id="patch_86">
    <path d="M 79.418387 158.190938 
L 108.549337 158.190938 
L 108.549337 152.68771 
L 79.418387 152.68771 
z
" clip-path="url(#pd16d212f51)" style="fill: #1f77b4; opacity: 0.998145"/>
   </g>
   <g id="patch_87">
    <path d="M 51.751052 158.190938 
L 76.235138 158.190938 
L 76.235138 152.68771 
L 51.751052 152.68771 
z
" clip-path="url(#pd16d212f51)" style="fill: #1f77b4; opacity: 0.152037"/>
   </g>
  </g>
  <g id="axes_7">
   <g id="patch_88">
    <path d="M 22.706865 196.938108 
L 692.306865 196.938108 
L 692.306865 169.230703 
L 22.706865 169.230703 
z
" style="fill: #ffffff"/>
   </g>
   <g id="patch_89">
    <path d="M 23.511813 185.821838 
L 180.476718 185.821838 
L 180.476718 180.280357 
L 23.511813 180.280357 
z
" clip-path="url(#p9fc5cebbf0)" style="fill: #ebeaea"/>
   </g>
   <g id="patch_90">
    <path d="M 191.477677 185.821838 
L 481.811714 185.821838 
L 481.811714 180.280357 
L 191.477677 180.280357 
z
" clip-path="url(#p9fc5cebbf0)" style="fill: #ebeaea"/>
   </g>
   <g id="patch_91">
    <path d="M 23.511813 185.821838 
L 180.476718 185.821838 
L 180.476718 180.280357 
L 23.511813 180.280357 
L 23.511813 185.821838 
z
" clip-path="url(#p9fc5cebbf0)" style="fill: none; stroke: #000000; stroke-width: 0.7; stroke-linejoin: miter"/>
   </g>
   <g id="patch_92">
    <path d="M 191.477677 185.821838 
L 481.811714 185.821838 
L 481.811714 180.280357 
L 191.477677 180.280357 
L 191.477677 185.821838 
z
" clip-path="url(#p9fc5cebbf0)" style="fill: none; stroke: #000000; stroke-width: 0.7; stroke-linejoin: miter"/>
   </g>
   <g id="matplotlib.axis_13">
    <g id="xtick_31"/>
    <g id="xtick_32"/>
    <g id="xtick_33"/>
    <g id="xtick_34"/>
    <g id="xtick_35"/>
   </g>
   <g id="matplotlib.axis_14">
    <g id="ytick_13"/>
    <g id="ytick_14"/>
   </g>
   <g id="patch_93">
    <path d="M 180.476718 185.821838 
L 180.476718 180.280357 
L 191.477677 185.821838 
L 191.477677 180.280357 
z
" clip-path="url(#p9fc5cebbf0)" style="fill: #777777; stroke: #777777; stroke-width: 0.64; stroke-linejoin: miter"/>
   </g>
   <g id="text_12">
    <!-- 6 -->
    <g style="fill: #262626" transform="translate(14.740682 184.865629) scale(0.07 -0.07)">
     <defs>
      <path id="Arial-BoldMT-36" d="M 3247 3459 
L 2397 3366 
Q 2366 3628 2234 3753 
Q 2103 3878 1894 3878 
Q 1616 3878 1423 3628 
Q 1231 3378 1181 2588 
Q 1509 2975 1997 2975 
Q 2547 2975 2939 2556 
Q 3331 2138 3331 1475 
Q 3331 772 2918 347 
Q 2506 -78 1859 -78 
Q 1166 -78 719 461 
Q 272 1000 272 2228 
Q 272 3488 737 4044 
Q 1203 4600 1947 4600 
Q 2469 4600 2811 4308 
Q 3153 4016 3247 3459 
z
M 1256 1544 
Q 1256 1116 1453 883 
Q 1650 650 1903 650 
Q 2147 650 2309 840 
Q 2472 1031 2472 1466 
Q 2472 1913 2297 2120 
Q 2122 2328 1859 2328 
Q 1606 2328 1431 2129 
Q 1256 1931 1256 1544 
z
" transform="scale(0.015625)"/>
     </defs>
     <use xlink:href="#Arial-BoldMT-36"/>
    </g>
   </g>
   <g id="patch_94">
    <path d="M 439.780752 185.898344 
L 441.184512 185.898344 
L 441.184512 180.395116 
L 439.780752 180.395116 
z
" clip-path="url(#p9fc5cebbf0)" style="fill: #1f77b4; opacity: 0.612877"/>
   </g>
   <g id="patch_95">
    <path d="M 364.983736 185.898344 
L 381.244554 185.898344 
L 381.244554 180.395116 
L 364.983736 180.395116 
z
" clip-path="url(#p9fc5cebbf0)" style="fill: #1f77b4; opacity: 0.188078"/>
   </g>
   <g id="patch_96">
    <path d="M 344.48702 185.898344 
L 352.096204 185.898344 
L 352.096204 180.395116 
L 344.48702 180.395116 
z
" clip-path="url(#p9fc5cebbf0)" style="fill: #1f77b4; opacity: 0.208234"/>
   </g>
   <g id="patch_97">
    <path d="M 275.729716 185.898344 
L 301.38021 185.898344 
L 301.38021 180.395116 
L 275.729716 180.395116 
z
" clip-path="url(#p9fc5cebbf0)" style="fill: #1f77b4; opacity: 0.174091"/>
   </g>
   <g id="patch_98">
    <path d="M 246.50822 185.898344 
L 268.486805 185.898344 
L 268.486805 180.395116 
L 246.50822 180.395116 
z
" clip-path="url(#p9fc5cebbf0)" style="fill: #1f77b4; opacity: 0.14698"/>
   </g>
   <g id="patch_99">
    <path d="M 217.937055 185.898344 
L 228.493301 185.898344 
L 228.493301 180.395116 
L 217.937055 180.395116 
z
" clip-path="url(#p9fc5cebbf0)" style="fill: #1f77b4; opacity: 0.326673"/>
   </g>
   <g id="patch_100">
    <path d="M 73.038702 185.898344 
L 90.92484 185.898344 
L 90.92484 180.395116 
L 73.038702 180.395116 
z
" clip-path="url(#p9fc5cebbf0)" style="fill: #1f77b4; opacity: 0.544088"/>
   </g>
   <g id="patch_101">
    <path d="M 67.209297 185.898344 
L 70.328404 185.898344 
L 70.328404 180.395116 
L 67.209297 180.395116 
z
" clip-path="url(#p9fc5cebbf0)" style="fill: #1f77b4; opacity: 0.639809"/>
   </g>
  </g>
  <g id="axes_8">
   <g id="patch_102">
    <path d="M 22.706865 224.645514 
L 692.306865 224.645514 
L 692.306865 196.938108 
L 22.706865 196.938108 
z
" style="fill: #ffffff"/>
   </g>
   <g id="patch_103">
    <path d="M 23.511813 213.529244 
L 179.403453 213.529244 
L 179.403453 207.987763 
L 23.511813 207.987763 
z
" clip-path="url(#pc2ef061b65)" style="fill: #ebeaea"/>
   </g>
   <g id="patch_104">
    <path d="M 190.136096 213.529244 
L 451.062676 213.529244 
L 451.062676 207.987763 
L 190.136096 207.987763 
z
" clip-path="url(#pc2ef061b65)" style="fill: #ebeaea"/>
   </g>
   <g id="patch_105">
    <path d="M 23.511813 213.529244 
L 179.403453 213.529244 
L 179.403453 207.987763 
L 23.511813 207.987763 
L 23.511813 213.529244 
z
" clip-path="url(#pc2ef061b65)" style="fill: none; stroke: #000000; stroke-width: 0.7; stroke-linejoin: miter"/>
   </g>
   <g id="patch_106">
    <path d="M 190.136096 213.529244 
L 451.062676 213.529244 
L 451.062676 207.987763 
L 190.136096 207.987763 
L 190.136096 213.529244 
z
" clip-path="url(#pc2ef061b65)" style="fill: none; stroke: #000000; stroke-width: 0.7; stroke-linejoin: miter"/>
   </g>
   <g id="matplotlib.axis_15">
    <g id="xtick_36"/>
    <g id="xtick_37"/>
    <g id="xtick_38"/>
    <g id="xtick_39"/>
    <g id="xtick_40"/>
   </g>
   <g id="matplotlib.axis_16">
    <g id="ytick_15"/>
    <g id="ytick_16"/>
   </g>
   <g id="patch_107">
    <path d="M 179.403453 213.529244 
L 179.403453 207.987763 
L 190.136096 213.529244 
L 190.136096 207.987763 
z
" clip-path="url(#pc2ef061b65)" style="fill: #777777; stroke: #777777; stroke-width: 0.64; stroke-linejoin: miter"/>
   </g>
   <g id="text_13">
    <!-- 7 -->
    <g style="fill: #262626" transform="translate(14.740682 212.573035) scale(0.07 -0.07)">
     <defs>
      <path id="Arial-BoldMT-37" d="M 272 3703 
L 272 4519 
L 3275 4519 
L 3275 3881 
Q 2903 3516 2518 2831 
Q 2134 2147 1932 1376 
Q 1731 606 1734 0 
L 888 0 
Q 909 950 1279 1937 
Q 1650 2925 2269 3703 
L 272 3703 
z
" transform="scale(0.015625)"/>
     </defs>
     <use xlink:href="#Arial-BoldMT-37"/>
    </g>
   </g>
   <g id="patch_108">
    <path d="M 356.050375 213.60575 
L 379.096899 213.60575 
L 379.096899 208.102522 
L 356.050375 208.102522 
z
" clip-path="url(#pc2ef061b65)" style="fill: #1f77b4; opacity: 0.845574"/>
   </g>
   <g id="patch_109">
    <path d="M 305.095478 213.60575 
L 310.099798 213.60575 
L 310.099798 208.102522 
L 305.095478 208.102522 
z
" clip-path="url(#pc2ef061b65)" style="fill: #1f77b4; opacity: 0.10866"/>
   </g>
   <g id="patch_110">
    <path d="M 273.444254 213.60575 
L 279.536786 213.60575 
L 279.536786 208.102522 
L 273.444254 208.102522 
z
" clip-path="url(#pc2ef061b65)" style="fill: #1f77b4; opacity: 0.6622"/>
   </g>
   <g id="patch_111">
    <path d="M 201.857752 213.60575 
L 230.536236 213.60575 
L 230.536236 208.102522 
L 201.857752 208.102522 
z
" clip-path="url(#pc2ef061b65)" style="fill: #1f77b4; opacity: 0.922372"/>
   </g>
   <g id="patch_112">
    <path d="M 144.549576 213.60575 
L 180.677158 213.60575 
L 180.677158 208.102522 
L 144.549576 208.102522 
z
" clip-path="url(#pc2ef061b65)" style="fill: #1f77b4; opacity: 0.337122"/>
   </g>
   <g id="patch_113">
    <path d="M 107.850701 213.60575 
L 116.669813 213.60575 
L 116.669813 208.102522 
L 107.850701 208.102522 
z
" clip-path="url(#pc2ef061b65)" style="fill: #1f77b4; opacity: 0.586269"/>
   </g>
   <g id="patch_114">
    <path d="M 39.76288 213.60575 
L 65.974055 213.60575 
L 65.974055 208.102522 
L 39.76288 208.102522 
z
" clip-path="url(#pc2ef061b65)" style="fill: #1f77b4; opacity: 0.244242"/>
   </g>
  </g>
  <g id="axes_9">
   <g id="patch_115">
    <path d="M 22.706865 252.35292 
L 692.306865 252.35292 
L 692.306865 224.645514 
L 22.706865 224.645514 
z
" style="fill: #ffffff"/>
   </g>
   <g id="patch_116">
    <path d="M 23.511813 241.23665 
L 139.424358 241.23665 
L 139.424358 235.695168 
L 23.511813 235.695168 
z
" clip-path="url(#p04e0723b87)" style="fill: #ebeaea"/>
   </g>
   <g id="patch_117">
    <path d="M 150.157001 241.23665 
L 412.942106 241.23665 
L 412.942106 235.695168 
L 150.157001 235.695168 
z
" clip-path="url(#p04e0723b87)" style="fill: #ebeaea"/>
   </g>
   <g id="patch_118">
    <path d="M 23.511813 241.23665 
L 139.424358 241.23665 
L 139.424358 235.695168 
L 23.511813 235.695168 
L 23.511813 241.23665 
z
" clip-path="url(#p04e0723b87)" style="fill: none; stroke: #000000; stroke-width: 0.7; stroke-linejoin: miter"/>
   </g>
   <g id="patch_119">
    <path d="M 150.157001 241.23665 
L 412.942106 241.23665 
L 412.942106 235.695168 
L 150.157001 235.695168 
L 150.157001 241.23665 
z
" clip-path="url(#p04e0723b87)" style="fill: none; stroke: #000000; stroke-width: 0.7; stroke-linejoin: miter"/>
   </g>
   <g id="matplotlib.axis_17">
    <g id="xtick_41"/>
    <g id="xtick_42"/>
    <g id="xtick_43"/>
    <g id="xtick_44"/>
    <g id="xtick_45"/>
   </g>
   <g id="matplotlib.axis_18">
    <g id="ytick_17"/>
    <g id="ytick_18"/>
   </g>
   <g id="patch_120">
    <path d="M 139.424358 241.23665 
L 139.424358 235.695168 
L 150.157001 241.23665 
L 150.157001 235.695168 
z
" clip-path="url(#p04e0723b87)" style="fill: #777777; stroke: #777777; stroke-width: 0.64; stroke-linejoin: miter"/>
   </g>
   <g id="text_14">
    <!-- 8 -->
    <g style="fill: #262626" transform="translate(14.740682 240.28044) scale(0.07 -0.07)">
     <defs>
      <path id="Arial-BoldMT-38" d="M 1025 2472 
Q 684 2616 529 2867 
Q 375 3119 375 3419 
Q 375 3931 733 4265 
Q 1091 4600 1750 4600 
Q 2403 4600 2764 4265 
Q 3125 3931 3125 3419 
Q 3125 3100 2959 2851 
Q 2794 2603 2494 2472 
Q 2875 2319 3073 2025 
Q 3272 1731 3272 1347 
Q 3272 713 2867 316 
Q 2463 -81 1791 -81 
Q 1166 -81 750 247 
Q 259 634 259 1309 
Q 259 1681 443 1992 
Q 628 2303 1025 2472 
z
M 1206 3356 
Q 1206 3094 1354 2947 
Q 1503 2800 1750 2800 
Q 2000 2800 2150 2948 
Q 2300 3097 2300 3359 
Q 2300 3606 2151 3754 
Q 2003 3903 1759 3903 
Q 1506 3903 1356 3753 
Q 1206 3603 1206 3356 
z
M 1125 1394 
Q 1125 1031 1311 828 
Q 1497 625 1775 625 
Q 2047 625 2225 820 
Q 2403 1016 2403 1384 
Q 2403 1706 2222 1901 
Q 2041 2097 1763 2097 
Q 1441 2097 1283 1875 
Q 1125 1653 1125 1394 
z
" transform="scale(0.015625)"/>
     </defs>
     <use xlink:href="#Arial-BoldMT-38"/>
    </g>
   </g>
   <g id="patch_121">
    <path d="M 333.597391 241.313155 
L 347.041499 241.313155 
L 347.041499 235.809927 
L 333.597391 235.809927 
z
" clip-path="url(#p04e0723b87)" style="fill: #1f77b4; opacity: 0.870838"/>
   </g>
   <g id="patch_122">
    <path d="M 312.798291 241.313155 
L 322.631401 241.313155 
L 322.631401 235.809927 
L 312.798291 235.809927 
z
" clip-path="url(#p04e0723b87)" style="fill: #1f77b4; opacity: 0.396288"/>
   </g>
   <g id="patch_123">
    <path d="M 281.918708 241.313155 
L 297.52674 241.313155 
L 297.52674 235.809927 
L 281.918708 235.809927 
z
" clip-path="url(#p04e0723b87)" style="fill: #1f77b4; opacity: 0.300564"/>
   </g>
   <g id="patch_124">
    <path d="M 223.358652 241.313155 
L 224.314423 241.313155 
L 224.314423 235.809927 
L 223.358652 235.809927 
z
" clip-path="url(#p04e0723b87)" style="fill: #1f77b4; opacity: 0.127152"/>
   </g>
   <g id="patch_125">
    <path d="M 143.33804 241.313155 
L 189.711854 241.313155 
L 189.711854 235.809927 
L 143.33804 235.809927 
z
" clip-path="url(#p04e0723b87)" style="fill: #1f77b4; opacity: 0.603913"/>
   </g>
   <g id="patch_126">
    <path d="M 122.133616 241.313155 
L 132.213425 241.313155 
L 132.213425 235.809927 
L 122.133616 235.809927 
z
" clip-path="url(#p04e0723b87)" style="fill: #1f77b4; opacity: 0.804445"/>
   </g>
   <g id="patch_127">
    <path d="M 81.550936 241.313155 
L 83.281993 241.313155 
L 83.281993 235.809927 
L 81.550936 235.809927 
z
" clip-path="url(#p04e0723b87)" style="fill: #1f77b4; opacity: 0.301003"/>
   </g>
  </g>
  <g id="axes_10">
   <g id="patch_128">
    <path d="M 22.706865 280.060326 
L 692.306865 280.060326 
L 692.306865 252.35292 
L 22.706865 252.35292 
z
" style="fill: #ffffff"/>
   </g>
   <g id="patch_129">
    <path d="M 23.511813 268.944055 
L 136.741197 268.944055 
L 136.741197 263.402574 
L 23.511813 263.402574 
z
" clip-path="url(#p684786fb76)" style="fill: #ebeaea"/>
   </g>
   <g id="patch_130">
    <path d="M 145.595628 268.944055 
L 394.847087 268.944055 
L 394.847087 263.402574 
L 145.595628 263.402574 
z
" clip-path="url(#p684786fb76)" style="fill: #ebeaea"/>
   </g>
   <g id="patch_131">
    <path d="M 23.511813 268.944055 
L 136.741197 268.944055 
L 136.741197 263.402574 
L 23.511813 263.402574 
L 23.511813 268.944055 
z
" clip-path="url(#p684786fb76)" style="fill: none; stroke: #000000; stroke-width: 0.7; stroke-linejoin: miter"/>
   </g>
   <g id="patch_132">
    <path d="M 145.595628 268.944055 
L 394.847087 268.944055 
L 394.847087 263.402574 
L 145.595628 263.402574 
L 145.595628 268.944055 
z
" clip-path="url(#p684786fb76)" style="fill: none; stroke: #000000; stroke-width: 0.7; stroke-linejoin: miter"/>
   </g>
   <g id="matplotlib.axis_19">
    <g id="xtick_46"/>
    <g id="xtick_47"/>
    <g id="xtick_48"/>
    <g id="xtick_49"/>
    <g id="xtick_50"/>
   </g>
   <g id="matplotlib.axis_20">
    <g id="ytick_19"/>
    <g id="ytick_20"/>
   </g>
   <g id="patch_133">
    <path d="M 136.741197 268.944055 
L 136.741197 263.402574 
L 145.595628 268.944055 
L 145.595628 263.402574 
z
" clip-path="url(#p684786fb76)" style="fill: #777777; stroke: #777777; stroke-width: 0.64; stroke-linejoin: miter"/>
   </g>
   <g id="text_15">
    <!-- 9 -->
    <g style="fill: #262626" transform="translate(14.740682 267.987846) scale(0.07 -0.07)">
     <defs>
      <path id="Arial-BoldMT-39" d="M 291 1059 
L 1141 1153 
Q 1172 894 1303 769 
Q 1434 644 1650 644 
Q 1922 644 2112 894 
Q 2303 1144 2356 1931 
Q 2025 1547 1528 1547 
Q 988 1547 595 1964 
Q 203 2381 203 3050 
Q 203 3747 617 4173 
Q 1031 4600 1672 4600 
Q 2369 4600 2816 4061 
Q 3263 3522 3263 2288 
Q 3263 1031 2797 475 
Q 2331 -81 1584 -81 
Q 1047 -81 715 205 
Q 384 491 291 1059 
z
M 2278 2978 
Q 2278 3403 2083 3637 
Q 1888 3872 1631 3872 
Q 1388 3872 1227 3680 
Q 1066 3488 1066 3050 
Q 1066 2606 1241 2398 
Q 1416 2191 1678 2191 
Q 1931 2191 2104 2391 
Q 2278 2591 2278 2978 
z
" transform="scale(0.015625)"/>
     </defs>
     <use xlink:href="#Arial-BoldMT-39"/>
    </g>
   </g>
   <g id="patch_134">
    <path d="M 289.46872 269.020561 
L 325.260325 269.020561 
L 325.260325 263.517333 
L 289.46872 263.517333 
z
" clip-path="url(#p684786fb76)" style="fill: #1f77b4; opacity: 0.004549"/>
   </g>
   <g id="patch_135">
    <path d="M 212.756505 269.020561 
L 226.573964 269.020561 
L 226.573964 263.517333 
L 212.756505 263.517333 
z
" clip-path="url(#p684786fb76)" style="fill: #1f77b4; opacity: 0.81181"/>
   </g>
   <g id="patch_136">
    <path d="M 190.580017 269.020561 
L 191.573406 269.020561 
L 191.573406 263.517333 
L 190.580017 263.517333 
z
" clip-path="url(#p684786fb76)" style="fill: #1f77b4; opacity: 0.671925"/>
   </g>
   <g id="patch_137">
    <path d="M 150.4336 269.020561 
L 154.845266 269.020561 
L 154.845266 263.517333 
L 150.4336 263.517333 
z
" clip-path="url(#p684786fb76)" style="fill: #1f77b4; opacity: 0.481795"/>
   </g>
   <g id="patch_138">
    <path d="M 128.436031 269.020561 
L 132.485304 269.020561 
L 132.485304 263.517333 
L 128.436031 263.517333 
z
" clip-path="url(#p684786fb76)" style="fill: #1f77b4; opacity: 0.612323"/>
   </g>
   <g id="patch_139">
    <path d="M 26.460255 269.020561 
L 32.200298 269.020561 
L 32.200298 263.517333 
L 26.460255 263.517333 
z
" clip-path="url(#p684786fb76)" style="fill: #1f77b4; opacity: 0.015224"/>
   </g>
  </g>
  <g id="axes_11">
   <g id="patch_140">
    <path d="M 22.706865 307.767731 
L 692.306865 307.767731 
L 692.306865 280.060326 
L 22.706865 280.060326 
z
" style="fill: #ffffff"/>
   </g>
   <g id="patch_141">
    <path d="M 23.511813 296.651461 
L 125.471922 296.651461 
L 125.471922 291.10998 
L 23.511813 291.10998 
z
" clip-path="url(#p35f756e53c)" style="fill: #ebeaea"/>
   </g>
   <g id="patch_142">
    <path d="M 135.131301 296.651461 
L 382.511806 296.651461 
L 382.511806 291.10998 
L 135.131301 291.10998 
z
" clip-path="url(#p35f756e53c)" style="fill: #ebeaea"/>
   </g>
   <g id="patch_143">
    <path d="M 23.511813 296.651461 
L 125.471922 296.651461 
L 125.471922 291.10998 
L 23.511813 291.10998 
L 23.511813 296.651461 
z
" clip-path="url(#p35f756e53c)" style="fill: none; stroke: #000000; stroke-width: 0.7; stroke-linejoin: miter"/>
   </g>
   <g id="patch_144">
    <path d="M 135.131301 296.651461 
L 382.511806 296.651461 
L 382.511806 291.10998 
L 135.131301 291.10998 
L 135.131301 296.651461 
z
" clip-path="url(#p35f756e53c)" style="fill: none; stroke: #000000; stroke-width: 0.7; stroke-linejoin: miter"/>
   </g>
   <g id="matplotlib.axis_21">
    <g id="xtick_51"/>
    <g id="xtick_52"/>
    <g id="xtick_53"/>
    <g id="xtick_54"/>
    <g id="xtick_55"/>
   </g>
   <g id="matplotlib.axis_22">
    <g id="ytick_21"/>
    <g id="ytick_22"/>
   </g>
   <g id="patch_145">
    <path d="M 125.471922 296.651461 
L 125.471922 291.10998 
L 135.131301 296.651461 
L 135.131301 291.10998 
z
" clip-path="url(#p35f756e53c)" style="fill: #777777; stroke: #777777; stroke-width: 0.64; stroke-linejoin: miter"/>
   </g>
   <g id="text_16">
    <!-- 10 -->
    <g style="fill: #262626" transform="translate(10.848026 295.695252) scale(0.07 -0.07)">
     <defs>
      <path id="Arial-BoldMT-30" d="M 1756 4600 
Q 2422 4600 2797 4125 
Q 3244 3563 3244 2259 
Q 3244 959 2794 391 
Q 2422 -78 1756 -78 
Q 1088 -78 678 436 
Q 269 950 269 2269 
Q 269 3563 719 4131 
Q 1091 4600 1756 4600 
z
M 1756 3872 
Q 1597 3872 1472 3770 
Q 1347 3669 1278 3406 
Q 1188 3066 1188 2259 
Q 1188 1453 1269 1151 
Q 1350 850 1473 750 
Q 1597 650 1756 650 
Q 1916 650 2041 751 
Q 2166 853 2234 1116 
Q 2325 1453 2325 2259 
Q 2325 3066 2244 3367 
Q 2163 3669 2039 3770 
Q 1916 3872 1756 3872 
z
" transform="scale(0.015625)"/>
     </defs>
     <use xlink:href="#Arial-BoldMT-31"/>
     <use xlink:href="#Arial-BoldMT-30" x="55.615234"/>
    </g>
   </g>
   <g id="patch_146">
    <path d="M 332.934269 296.727967 
L 365.713816 296.727967 
L 365.713816 291.224739 
L 332.934269 291.224739 
z
" clip-path="url(#p35f756e53c)" style="fill: #1f77b4; opacity: 0.40632"/>
   </g>
   <g id="patch_147">
    <path d="M 272.177732 296.727967 
L 289.928823 296.727967 
L 289.928823 291.224739 
L 272.177732 291.224739 
z
" clip-path="url(#p35f756e53c)" style="fill: #1f77b4; opacity: 0.704512"/>
   </g>
   <g id="patch_148">
    <path d="M 259.383404 296.727967 
L 267.030219 296.727967 
L 267.030219 291.224739 
L 259.383404 291.224739 
z
" clip-path="url(#p35f756e53c)" style="fill: #1f77b4; opacity: 0.765015"/>
   </g>
   <g id="patch_149">
    <path d="M 243.122186 296.727967 
L 245.924093 296.727967 
L 245.924093 291.224739 
L 243.122186 291.224739 
z
" clip-path="url(#p35f756e53c)" style="fill: #1f77b4; opacity: 0.659039"/>
   </g>
   <g id="patch_150">
    <path d="M 209.154576 296.727967 
L 227.466998 296.727967 
L 227.466998 291.224739 
L 209.154576 291.224739 
z
" clip-path="url(#p35f756e53c)" style="fill: #1f77b4; opacity: 0.84239"/>
   </g>
   <g id="patch_151">
    <path d="M 68.704786 296.727967 
L 138.252715 296.727967 
L 138.252715 291.224739 
L 68.704786 291.224739 
z
" clip-path="url(#p35f756e53c)" style="fill: #1f77b4; opacity: 0.245671"/>
   </g>
  </g>
  <g id="axes_12">
   <g id="patch_152">
    <path d="M 22.706865 335.475137 
L 692.306865 335.475137 
L 692.306865 307.767731 
L 22.706865 307.767731 
z
" style="fill: #ffffff"/>
   </g>
   <g id="patch_153">
    <path d="M 23.511813 324.358867 
L 160.353012 324.358867 
L 160.353012 318.817386 
L 23.511813 318.817386 
z
" clip-path="url(#p008af15ac9)" style="fill: #ebeaea"/>
   </g>
   <g id="patch_154">
    <path d="M 173.232183 324.358867 
L 385.970937 324.358867 
L 385.970937 318.817386 
L 173.232183 318.817386 
z
" clip-path="url(#p008af15ac9)" style="fill: #ebeaea"/>
   </g>
   <g id="patch_155">
    <path d="M 23.511813 324.358867 
L 160.353012 324.358867 
L 160.353012 318.817386 
L 23.511813 318.817386 
L 23.511813 324.358867 
z
" clip-path="url(#p008af15ac9)" style="fill: none; stroke: #000000; stroke-width: 0.7; stroke-linejoin: miter"/>
   </g>
   <g id="patch_156">
    <path d="M 173.232183 324.358867 
L 385.970937 324.358867 
L 385.970937 318.817386 
L 173.232183 318.817386 
L 173.232183 324.358867 
z
" clip-path="url(#p008af15ac9)" style="fill: none; stroke: #000000; stroke-width: 0.7; stroke-linejoin: miter"/>
   </g>
   <g id="matplotlib.axis_23">
    <g id="xtick_56"/>
    <g id="xtick_57"/>
    <g id="xtick_58"/>
    <g id="xtick_59"/>
    <g id="xtick_60"/>
   </g>
   <g id="matplotlib.axis_24">
    <g id="ytick_23"/>
    <g id="ytick_24"/>
   </g>
   <g id="patch_157">
    <path d="M 160.353012 324.358867 
L 160.353012 318.817386 
L 173.232183 324.358867 
L 173.232183 318.817386 
z
" clip-path="url(#p008af15ac9)" style="fill: #777777; stroke: #777777; stroke-width: 0.64; stroke-linejoin: miter"/>
   </g>
   <g id="text_17">
    <!-- 11 -->
    <g style="fill: #262626" transform="translate(11.233026 323.402657) scale(0.07 -0.07)">
     <use xlink:href="#Arial-BoldMT-31"/>
     <use xlink:href="#Arial-BoldMT-31" x="50.115234"/>
    </g>
   </g>
   <g id="patch_158">
    <path d="M 311.932813 324.435373 
L 352.411956 324.435373 
L 352.411956 318.932144 
L 311.932813 318.932144 
z
" clip-path="url(#p008af15ac9)" style="fill: #1f77b4; opacity: 0.589575"/>
   </g>
   <g id="patch_159">
    <path d="M 310.223645 324.435373 
L 310.878502 324.435373 
L 310.878502 318.932144 
L 310.223645 318.932144 
z
" clip-path="url(#p008af15ac9)" style="fill: #1f77b4; opacity: 0.577735"/>
   </g>
   <g id="patch_160">
    <path d="M 306.12487 324.435373 
L 307.378915 324.435373 
L 307.378915 318.932144 
L 306.12487 318.932144 
z
" clip-path="url(#p008af15ac9)" style="fill: #1f77b4; opacity: 0.359132"/>
   </g>
   <g id="patch_161">
    <path d="M 160.79938 324.435373 
L 173.874639 324.435373 
L 173.874639 318.932144 
L 160.79938 318.932144 
z
" clip-path="url(#p008af15ac9)" style="fill: #1f77b4; opacity: 0.416744"/>
   </g>
   <g id="patch_162">
    <path d="M 72.0193 324.435373 
L 98.08497 324.435373 
L 98.08497 318.932144 
L 72.0193 318.932144 
z
" clip-path="url(#p008af15ac9)" style="fill: #1f77b4; opacity: 0.012381"/>
   </g>
   <g id="patch_163">
    <path d="M 62.400488 324.435373 
L 68.346147 324.435373 
L 68.346147 318.932144 
L 62.400488 318.932144 
z
" clip-path="url(#p008af15ac9)" style="fill: #1f77b4; opacity: 0.957478"/>
   </g>
  </g>
  <g id="axes_13">
   <g id="patch_164">
    <path d="M 22.706865 363.182543 
L 692.306865 363.182543 
L 692.306865 335.475137 
L 22.706865 335.475137 
z
" style="fill: #ffffff"/>
   </g>
   <g id="patch_165">
    <path d="M 23.511813 352.066272 
L 112.59275 352.066272 
L 112.59275 346.524791 
L 23.511813 346.524791 
z
" clip-path="url(#p2cfa0819ac)" style="fill: #ebeaea"/>
   </g>
   <g id="patch_166">
    <path d="M 124.93529 352.066272 
L 381.110893 352.066272 
L 381.110893 346.524791 
L 124.93529 346.524791 
z
" clip-path="url(#p2cfa0819ac)" style="fill: #ebeaea"/>
   </g>
   <g id="patch_167">
    <path d="M 23.511813 352.066272 
L 112.59275 352.066272 
L 112.59275 346.524791 
L 23.511813 346.524791 
L 23.511813 352.066272 
z
" clip-path="url(#p2cfa0819ac)" style="fill: none; stroke: #000000; stroke-width: 0.7; stroke-linejoin: miter"/>
   </g>
   <g id="patch_168">
    <path d="M 124.93529 352.066272 
L 381.110893 352.066272 
L 381.110893 346.524791 
L 124.93529 346.524791 
L 124.93529 352.066272 
z
" clip-path="url(#p2cfa0819ac)" style="fill: none; stroke: #000000; stroke-width: 0.7; stroke-linejoin: miter"/>
   </g>
   <g id="matplotlib.axis_25">
    <g id="xtick_61"/>
    <g id="xtick_62"/>
    <g id="xtick_63"/>
    <g id="xtick_64"/>
    <g id="xtick_65"/>
   </g>
   <g id="matplotlib.axis_26">
    <g id="ytick_25"/>
    <g id="ytick_26"/>
   </g>
   <g id="patch_169">
    <path d="M 112.59275 352.066272 
L 112.59275 346.524791 
L 124.93529 352.066272 
L 124.93529 346.524791 
z
" clip-path="url(#p2cfa0819ac)" style="fill: #777777; stroke: #777777; stroke-width: 0.64; stroke-linejoin: miter"/>
   </g>
   <g id="text_18">
    <!-- 12 -->
    <g style="fill: #262626" transform="translate(10.848026 351.110063) scale(0.07 -0.07)">
     <use xlink:href="#Arial-BoldMT-31"/>
     <use xlink:href="#Arial-BoldMT-32" x="55.615234"/>
    </g>
   </g>
   <g id="patch_170">
    <path d="M 227.626313 352.142778 
L 239.850364 352.142778 
L 239.850364 346.63955 
L 227.626313 346.63955 
z
" clip-path="url(#p2cfa0819ac)" style="fill: #1f77b4; opacity: 0.548719"/>
   </g>
   <g id="patch_171">
    <path d="M 182.193771 352.142778 
L 216.763089 352.142778 
L 216.763089 346.63955 
L 182.193771 346.63955 
z
" clip-path="url(#p2cfa0819ac)" style="fill: #1f77b4; opacity: 0.279585"/>
   </g>
   <g id="patch_172">
    <path d="M 81.961693 352.142778 
L 145.974565 352.142778 
L 145.974565 346.63955 
L 81.961693 346.63955 
z
" clip-path="url(#p2cfa0819ac)" style="fill: #1f77b4; opacity: 0.562474"/>
   </g>
   <g id="patch_173">
    <path d="M 63.100044 352.142778 
L 77.98651 352.142778 
L 77.98651 346.63955 
L 63.100044 346.63955 
z
" clip-path="url(#p2cfa0819ac)" style="fill: #1f77b4; opacity: 0.38941"/>
   </g>
   <g id="patch_174">
    <path d="M 59.783628 352.142778 
L 60.649862 352.142778 
L 60.649862 346.63955 
L 59.783628 346.63955 
z
" clip-path="url(#p2cfa0819ac)" style="fill: #1f77b4; opacity: 0.969243"/>
   </g>
   <g id="patch_175">
    <path d="M 23.595823 352.142778 
L 42.445746 352.142778 
L 42.445746 346.63955 
L 23.595823 346.63955 
z
" clip-path="url(#p2cfa0819ac)" style="fill: #1f77b4; opacity: 0.624692"/>
   </g>
  </g>
  <g id="axes_14">
   <g id="patch_176">
    <path d="M 22.706865 390.889948 
L 692.306865 390.889948 
L 692.306865 363.182543 
L 22.706865 363.182543 
z
" style="fill: #ffffff"/>
   </g>
   <g id="patch_177">
    <path d="M 23.511813 379.773678 
L 67.783965 379.773678 
L 67.783965 374.232197 
L 23.511813 374.232197 
z
" clip-path="url(#p70bf1bb955)" style="fill: #ebeaea"/>
   </g>
   <g id="patch_178">
    <path d="M 74.223551 379.773678 
L 330.369691 379.773678 
L 330.369691 374.232197 
L 74.223551 374.232197 
z
" clip-path="url(#p70bf1bb955)" style="fill: #ebeaea"/>
   </g>
   <g id="patch_179">
    <path d="M 23.511813 379.773678 
L 67.783965 379.773678 
L 67.783965 374.232197 
L 23.511813 374.232197 
L 23.511813 379.773678 
z
" clip-path="url(#p70bf1bb955)" style="fill: none; stroke: #000000; stroke-width: 0.7; stroke-linejoin: miter"/>
   </g>
   <g id="patch_180">
    <path d="M 74.223551 379.773678 
L 330.369691 379.773678 
L 330.369691 374.232197 
L 74.223551 374.232197 
L 74.223551 379.773678 
z
" clip-path="url(#p70bf1bb955)" style="fill: none; stroke: #000000; stroke-width: 0.7; stroke-linejoin: miter"/>
   </g>
   <g id="matplotlib.axis_27">
    <g id="xtick_66"/>
    <g id="xtick_67"/>
    <g id="xtick_68"/>
    <g id="xtick_69"/>
    <g id="xtick_70"/>
   </g>
   <g id="matplotlib.axis_28">
    <g id="ytick_27"/>
    <g id="ytick_28"/>
   </g>
   <g id="patch_181">
    <path d="M 67.783965 379.773678 
L 67.783965 374.232197 
L 74.223551 379.773678 
L 74.223551 374.232197 
z
" clip-path="url(#p70bf1bb955)" style="fill: #777777; stroke: #777777; stroke-width: 0.64; stroke-linejoin: miter"/>
   </g>
   <g id="text_19">
    <!-- 13 -->
    <g style="fill: #262626" transform="translate(10.848026 378.817469) scale(0.07 -0.07)">
     <use xlink:href="#Arial-BoldMT-31"/>
     <use xlink:href="#Arial-BoldMT-33" x="55.615234"/>
    </g>
   </g>
   <g id="patch_182">
    <path d="M 244.267311 379.850184 
L 244.923406 379.850184 
L 244.923406 374.346956 
L 244.267311 374.346956 
z
" clip-path="url(#p70bf1bb955)" style="fill: #1f77b4; opacity: 0.458084"/>
   </g>
   <g id="patch_183">
    <path d="M 154.457831 379.850184 
L 159.002443 379.850184 
L 159.002443 374.346956 
L 154.457831 374.346956 
z
" clip-path="url(#p70bf1bb955)" style="fill: #1f77b4; opacity: 0.582823"/>
   </g>
   <g id="patch_184">
    <path d="M 114.356826 379.850184 
L 148.616424 379.850184 
L 148.616424 374.346956 
L 114.356826 374.346956 
z
" clip-path="url(#p70bf1bb955)" style="fill: #1f77b4; opacity: 0.727589"/>
   </g>
   <g id="patch_185">
    <path d="M 77.008962 379.850184 
L 98.401341 379.850184 
L 98.401341 374.346956 
L 77.008962 374.346956 
z
" clip-path="url(#p70bf1bb955)" style="fill: #1f77b4; opacity: 0.031237"/>
   </g>
   <g id="patch_186">
    <path d="M 32.695389 379.850184 
L 48.8344 379.850184 
L 48.8344 374.346956 
L 32.695389 374.346956 
z
" clip-path="url(#p70bf1bb955)" style="fill: #1f77b4; opacity: 0.237895"/>
   </g>
  </g>
  <g id="axes_15">
   <g id="patch_187">
    <path d="M 22.706865 418.597354 
L 692.306865 418.597354 
L 692.306865 390.889948 
L 22.706865 390.889948 
z
" style="fill: #ffffff"/>
   </g>
   <g id="patch_188">
    <path d="M 23.511813 407.481084 
L 66.710701 407.481084 
L 66.710701 401.939603 
L 23.511813 401.939603 
z
" clip-path="url(#p7bc890f02f)" style="fill: #ebeaea"/>
   </g>
   <g id="patch_189">
    <path d="M 72.345339 407.481084 
L 310.727317 407.481084 
L 310.727317 401.939603 
L 72.345339 401.939603 
z
" clip-path="url(#p7bc890f02f)" style="fill: #ebeaea"/>
   </g>
   <g id="patch_190">
    <path d="M 23.511813 407.481084 
L 66.710701 407.481084 
L 66.710701 401.939603 
L 23.511813 401.939603 
L 23.511813 407.481084 
z
" clip-path="url(#p7bc890f02f)" style="fill: none; stroke: #000000; stroke-width: 0.7; stroke-linejoin: miter"/>
   </g>
   <g id="patch_191">
    <path d="M 72.345339 407.481084 
L 310.727317 407.481084 
L 310.727317 401.939603 
L 72.345339 401.939603 
L 72.345339 407.481084 
z
" clip-path="url(#p7bc890f02f)" style="fill: none; stroke: #000000; stroke-width: 0.7; stroke-linejoin: miter"/>
   </g>
   <g id="matplotlib.axis_29">
    <g id="xtick_71"/>
    <g id="xtick_72"/>
    <g id="xtick_73"/>
    <g id="xtick_74"/>
    <g id="xtick_75"/>
   </g>
   <g id="matplotlib.axis_30">
    <g id="ytick_29"/>
    <g id="ytick_30"/>
   </g>
   <g id="patch_192">
    <path d="M 66.710701 407.481084 
L 66.710701 401.939603 
L 72.345339 407.481084 
L 72.345339 401.939603 
z
" clip-path="url(#p7bc890f02f)" style="fill: #777777; stroke: #777777; stroke-width: 0.64; stroke-linejoin: miter"/>
   </g>
   <g id="text_20">
    <!-- 14 -->
    <g style="fill: #262626" transform="translate(10.848026 406.524875) scale(0.07 -0.07)">
     <use xlink:href="#Arial-BoldMT-31"/>
     <use xlink:href="#Arial-BoldMT-34" x="55.615234"/>
    </g>
   </g>
   <g id="patch_193">
    <path d="M 199.278658 407.55759 
L 240.409256 407.55759 
L 240.409256 402.054362 
L 199.278658 402.054362 
z
" clip-path="url(#p7bc890f02f)" style="fill: #1f77b4; opacity: 0.994011"/>
   </g>
   <g id="patch_194">
    <path d="M 196.515416 407.55759 
L 197.754094 407.55759 
L 197.754094 402.054362 
L 196.515416 402.054362 
z
" clip-path="url(#p7bc890f02f)" style="fill: #1f77b4; opacity: 0.522465"/>
   </g>
   <g id="patch_195">
    <path d="M 191.327543 407.55759 
L 194.266908 407.55759 
L 194.266908 402.054362 
L 191.327543 402.054362 
z
" clip-path="url(#p7bc890f02f)" style="fill: #1f77b4; opacity: 0.022906"/>
   </g>
   <g id="patch_196">
    <path d="M 135.818482 407.55759 
L 154.657169 407.55759 
L 154.657169 402.054362 
L 135.818482 402.054362 
z
" clip-path="url(#p7bc890f02f)" style="fill: #1f77b4; opacity: 0.295684"/>
   </g>
   <g id="patch_197">
    <path d="M 65.053812 407.55759 
L 67.750708 407.55759 
L 67.750708 402.054362 
L 65.053812 402.054362 
z
" clip-path="url(#p7bc890f02f)" style="fill: #1f77b4; opacity: 0.957727"/>
   </g>
  </g>
  <g id="axes_16">
   <g id="patch_198">
    <path d="M 22.706865 446.30476 
L 692.306865 446.30476 
L 692.306865 418.597354 
L 22.706865 418.597354 
z
" style="fill: #ffffff"/>
   </g>
   <g id="patch_199">
    <path d="M 23.511813 435.18849 
L 70.467126 435.18849 
L 70.467126 429.647009 
L 23.511813 429.647009 
z
" clip-path="url(#p83f0d9599f)" style="fill: #ebeaea"/>
   </g>
   <g id="patch_200">
    <path d="M 78.516608 435.18849 
L 297.170569 435.18849 
L 297.170569 429.647009 
L 78.516608 429.647009 
z
" clip-path="url(#p83f0d9599f)" style="fill: #ebeaea"/>
   </g>
   <g id="patch_201">
    <path d="M 23.511813 435.18849 
L 70.467126 435.18849 
L 70.467126 429.647009 
L 23.511813 429.647009 
L 23.511813 435.18849 
z
" clip-path="url(#p83f0d9599f)" style="fill: none; stroke: #000000; stroke-width: 0.7; stroke-linejoin: miter"/>
   </g>
   <g id="patch_202">
    <path d="M 78.516608 435.18849 
L 297.170569 435.18849 
L 297.170569 429.647009 
L 78.516608 429.647009 
L 78.516608 435.18849 
z
" clip-path="url(#p83f0d9599f)" style="fill: none; stroke: #000000; stroke-width: 0.7; stroke-linejoin: miter"/>
   </g>
   <g id="matplotlib.axis_31">
    <g id="xtick_76"/>
    <g id="xtick_77"/>
    <g id="xtick_78"/>
    <g id="xtick_79"/>
    <g id="xtick_80"/>
   </g>
   <g id="matplotlib.axis_32">
    <g id="ytick_31"/>
    <g id="ytick_32"/>
   </g>
   <g id="patch_203">
    <path d="M 70.467126 435.18849 
L 70.467126 429.647009 
L 78.516608 435.18849 
L 78.516608 429.647009 
z
" clip-path="url(#p83f0d9599f)" style="fill: #777777; stroke: #777777; stroke-width: 0.64; stroke-linejoin: miter"/>
   </g>
   <g id="text_21">
    <!-- 15 -->
    <g style="fill: #262626" transform="translate(10.848026 434.23228) scale(0.07 -0.07)">
     <use xlink:href="#Arial-BoldMT-31"/>
     <use xlink:href="#Arial-BoldMT-35" x="55.615234"/>
    </g>
   </g>
   <g id="patch_204">
    <path d="M 290.132827 435.264996 
L 293.490188 435.264996 
L 293.490188 429.761767 
L 290.132827 429.761767 
z
" clip-path="url(#p83f0d9599f)" style="fill: #1f77b4; opacity: 0.809003"/>
   </g>
   <g id="patch_205">
    <path d="M 195.87685 435.264996 
L 272.740654 435.264996 
L 272.740654 429.761767 
L 195.87685 429.761767 
z
" clip-path="url(#p83f0d9599f)" style="fill: #1f77b4; opacity: 0.668883"/>
   </g>
   <g id="patch_206">
    <path d="M 118.858113 435.264996 
L 146.904481 435.264996 
L 146.904481 429.761767 
L 118.858113 429.761767 
z
" clip-path="url(#p83f0d9599f)" style="fill: #1f77b4; opacity: 0.838807"/>
   </g>
   <g id="patch_207">
    <path d="M 75.412519 435.264996 
L 81.650334 435.264996 
L 81.650334 429.761767 
L 75.412519 429.761767 
z
" clip-path="url(#p83f0d9599f)" style="fill: #1f77b4; opacity: 0.364879"/>
   </g>
   <g id="patch_208">
    <path d="M 54.441262 435.264996 
L 60.312406 435.264996 
L 60.312406 429.761767 
L 54.441262 429.761767 
z
" clip-path="url(#p83f0d9599f)" style="fill: #1f77b4; opacity: 0.222299"/>
   </g>
  </g>
  <g id="axes_17">
   <g id="patch_209">
    <path d="M 22.706865 474.012166 
L 692.306865 474.012166 
L 692.306865 446.30476 
L 22.706865 446.30476 
z
" style="fill: #ffffff"/>
   </g>
   <g id="patch_210">
    <path d="M 23.511813 462.895895 
L 118.227388 462.895895 
L 118.227388 457.354414 
L 23.511813 457.354414 
z
" clip-path="url(#p8763b13043)" style="fill: #ebeaea"/>
   </g>
   <g id="patch_211">
    <path d="M 126.545186 462.895895 
L 265.904116 462.895895 
L 265.904116 457.354414 
L 126.545186 457.354414 
z
" clip-path="url(#p8763b13043)" style="fill: #ebeaea"/>
   </g>
   <g id="patch_212">
    <path d="M 23.511813 462.895895 
L 118.227388 462.895895 
L 118.227388 457.354414 
L 23.511813 457.354414 
L 23.511813 462.895895 
z
" clip-path="url(#p8763b13043)" style="fill: none; stroke: #000000; stroke-width: 0.7; stroke-linejoin: miter"/>
   </g>
   <g id="patch_213">
    <path d="M 126.545186 462.895895 
L 265.904116 462.895895 
L 265.904116 457.354414 
L 126.545186 457.354414 
L 126.545186 462.895895 
z
" clip-path="url(#p8763b13043)" style="fill: none; stroke: #000000; stroke-width: 0.7; stroke-linejoin: miter"/>
   </g>
   <g id="matplotlib.axis_33">
    <g id="xtick_81"/>
    <g id="xtick_82"/>
    <g id="xtick_83"/>
    <g id="xtick_84"/>
    <g id="xtick_85"/>
   </g>
   <g id="matplotlib.axis_34">
    <g id="ytick_33"/>
    <g id="ytick_34"/>
   </g>
   <g id="patch_214">
    <path d="M 118.227388 462.895895 
L 118.227388 457.354414 
L 126.545186 462.895895 
L 126.545186 457.354414 
z
" clip-path="url(#p8763b13043)" style="fill: #777777; stroke: #777777; stroke-width: 0.64; stroke-linejoin: miter"/>
   </g>
   <g id="text_22">
    <!-- 16 -->
    <g style="fill: #262626" transform="translate(10.848026 461.939686) scale(0.07 -0.07)">
     <use xlink:href="#Arial-BoldMT-31"/>
     <use xlink:href="#Arial-BoldMT-36" x="55.615234"/>
    </g>
   </g>
   <g id="patch_215">
    <path d="M 213.430356 462.972401 
L 214.020271 462.972401 
L 214.020271 457.469173 
L 213.430356 457.469173 
z
" clip-path="url(#p8763b13043)" style="fill: #1f77b4; opacity: 0.714451"/>
   </g>
   <g id="patch_216">
    <path d="M 153.788909 462.972401 
L 209.458197 462.972401 
L 209.458197 457.469173 
L 153.788909 457.469173 
z
" clip-path="url(#p8763b13043)" style="fill: #1f77b4; opacity: 0.627176"/>
   </g>
   <g id="patch_217">
    <path d="M 76.307452 462.972401 
L 97.415427 462.972401 
L 97.415427 457.469173 
L 76.307452 457.469173 
z
" clip-path="url(#p8763b13043)" style="fill: #1f77b4; opacity: 0.174708"/>
   </g>
   <g id="patch_218">
    <path d="M 31.829222 462.972401 
L 33.250562 462.972401 
L 33.250562 457.469173 
L 31.829222 457.469173 
z
" clip-path="url(#p8763b13043)" style="fill: #1f77b4; opacity: 0.992672"/>
   </g>
  </g>
  <g id="axes_18">
   <g id="patch_219">
    <path d="M 22.706865 501.719571 
L 692.306865 501.719571 
L 692.306865 474.012166 
L 22.706865 474.012166 
z
" style="fill: #ffffff"/>
   </g>
   <g id="patch_220">
    <path d="M 23.511813 490.603301 
L 84.419562 490.603301 
L 84.419562 485.06182 
L 23.511813 485.06182 
z
" clip-path="url(#pa908d1380c)" style="fill: #ebeaea"/>
   </g>
   <g id="patch_221">
    <path d="M 97.030418 490.603301 
L 246.904912 490.603301 
L 246.904912 485.06182 
L 97.030418 485.06182 
z
" clip-path="url(#pa908d1380c)" style="fill: #ebeaea"/>
   </g>
   <g id="patch_222">
    <path d="M 23.511813 490.603301 
L 84.419562 490.603301 
L 84.419562 485.06182 
L 23.511813 485.06182 
L 23.511813 490.603301 
z
" clip-path="url(#pa908d1380c)" style="fill: none; stroke: #000000; stroke-width: 0.7; stroke-linejoin: miter"/>
   </g>
   <g id="patch_223">
    <path d="M 97.030418 490.603301 
L 246.904912 490.603301 
L 246.904912 485.06182 
L 97.030418 485.06182 
L 97.030418 490.603301 
z
" clip-path="url(#pa908d1380c)" style="fill: none; stroke: #000000; stroke-width: 0.7; stroke-linejoin: miter"/>
   </g>
   <g id="matplotlib.axis_35">
    <g id="xtick_86"/>
    <g id="xtick_87"/>
    <g id="xtick_88"/>
    <g id="xtick_89"/>
    <g id="xtick_90"/>
   </g>
   <g id="matplotlib.axis_36">
    <g id="ytick_35"/>
    <g id="ytick_36"/>
   </g>
   <g id="patch_224">
    <path d="M 84.419562 490.603301 
L 84.419562 485.06182 
L 97.030418 490.603301 
L 97.030418 485.06182 
z
" clip-path="url(#pa908d1380c)" style="fill: #777777; stroke: #777777; stroke-width: 0.64; stroke-linejoin: miter"/>
   </g>
   <g id="text_23">
    <!-- 17 -->
    <g style="fill: #262626" transform="translate(10.848026 489.647092) scale(0.07 -0.07)">
     <use xlink:href="#Arial-BoldMT-31"/>
     <use xlink:href="#Arial-BoldMT-37" x="55.615234"/>
    </g>
   </g>
   <g id="patch_225">
    <path d="M 155.570578 490.679807 
L 210.200901 490.679807 
L 210.200901 485.176579 
L 155.570578 485.176579 
z
" clip-path="url(#pa908d1380c)" style="fill: #1f77b4; opacity: 0.870163"/>
   </g>
   <g id="patch_226">
    <path d="M 130.862177 490.679807 
L 151.607869 490.679807 
L 151.607869 485.176579 
L 130.862177 485.176579 
z
" clip-path="url(#pa908d1380c)" style="fill: #1f77b4; opacity: 0.71715"/>
   </g>
   <g id="patch_227">
    <path d="M 103.745663 490.679807 
L 117.546638 490.679807 
L 117.546638 485.176579 
L 103.745663 485.176579 
z
" clip-path="url(#pa908d1380c)" style="fill: #1f77b4; opacity: 0.243307"/>
   </g>
   <g id="patch_228">
    <path d="M 56.287236 490.679807 
L 83.668283 490.679807 
L 83.668283 485.176579 
L 56.287236 485.176579 
z
" clip-path="url(#pa908d1380c)" style="fill: #1f77b4; opacity: 0.085757"/>
   </g>
  </g>
  <g id="axes_19">
   <g id="patch_229">
    <path d="M 22.706865 529.426977 
L 692.306865 529.426977 
L 692.306865 501.719571 
L 22.706865 501.719571 
z
" style="fill: #ffffff"/>
   </g>
   <g id="patch_230">
    <path d="M 23.511813 518.310707 
L 64.832489 518.310707 
L 64.832489 512.769226 
L 23.511813 512.769226 
z
" clip-path="url(#ped7b3bf390)" style="fill: #ebeaea"/>
   </g>
   <g id="patch_231">
    <path d="M 81.199769 518.310707 
L 239.166258 518.310707 
L 239.166258 512.769226 
L 81.199769 512.769226 
z
" clip-path="url(#ped7b3bf390)" style="fill: #ebeaea"/>
   </g>
   <g id="patch_232">
    <path d="M 23.511813 518.310707 
L 64.832489 518.310707 
L 64.832489 512.769226 
L 23.511813 512.769226 
L 23.511813 518.310707 
z
" clip-path="url(#ped7b3bf390)" style="fill: none; stroke: #000000; stroke-width: 0.7; stroke-linejoin: miter"/>
   </g>
   <g id="patch_233">
    <path d="M 81.199769 518.310707 
L 239.166258 518.310707 
L 239.166258 512.769226 
L 81.199769 512.769226 
L 81.199769 518.310707 
z
" clip-path="url(#ped7b3bf390)" style="fill: none; stroke: #000000; stroke-width: 0.7; stroke-linejoin: miter"/>
   </g>
   <g id="matplotlib.axis_37">
    <g id="xtick_91"/>
    <g id="xtick_92"/>
    <g id="xtick_93"/>
    <g id="xtick_94"/>
    <g id="xtick_95"/>
   </g>
   <g id="matplotlib.axis_38">
    <g id="ytick_37"/>
    <g id="ytick_38"/>
   </g>
   <g id="patch_234">
    <path d="M 64.832489 518.310707 
L 64.832489 512.769226 
L 81.199769 518.310707 
L 81.199769 512.769226 
z
" clip-path="url(#ped7b3bf390)" style="fill: #777777; stroke: #777777; stroke-width: 0.64; stroke-linejoin: miter"/>
   </g>
   <g id="text_24">
    <!-- 18 -->
    <g style="fill: #262626" transform="translate(10.848026 517.354498) scale(0.07 -0.07)">
     <use xlink:href="#Arial-BoldMT-31"/>
     <use xlink:href="#Arial-BoldMT-38" x="55.615234"/>
    </g>
   </g>
   <g id="patch_235">
    <path d="M 215.313109 518.387213 
L 218.545156 518.387213 
L 218.545156 512.883985 
L 215.313109 512.883985 
z
" clip-path="url(#ped7b3bf390)" style="fill: #1f77b4; opacity: 0.199182"/>
   </g>
   <g id="patch_236">
    <path d="M 167.809368 518.387213 
L 204.546956 518.387213 
L 204.546956 512.883985 
L 167.809368 512.883985 
z
" clip-path="url(#ped7b3bf390)" style="fill: #1f77b4; opacity: 0.572105"/>
   </g>
   <g id="patch_237">
    <path d="M 109.721953 518.387213 
L 142.233321 518.387213 
L 142.233321 512.883985 
L 109.721953 512.883985 
z
" clip-path="url(#ped7b3bf390)" style="fill: #1f77b4; opacity: 0.686268"/>
   </g>
   <g id="patch_238">
    <path d="M 93.78931 518.387213 
L 103.835305 518.387213 
L 103.835305 512.883985 
L 93.78931 512.883985 
z
" clip-path="url(#ped7b3bf390)" style="fill: #1f77b4; opacity: 0.656781"/>
   </g>
  </g>
  <g id="axes_20">
   <g id="patch_239">
    <path d="M 22.706865 557.134383 
L 692.306865 557.134383 
L 692.306865 529.426977 
L 22.706865 529.426977 
z
" style="fill: #ffffff"/>
   </g>
   <g id="patch_240">
    <path d="M 23.511813 546.018113 
L 88.444303 546.018113 
L 88.444303 540.476631 
L 23.511813 540.476631 
z
" clip-path="url(#pc9e96d758f)" style="fill: #ebeaea"/>
   </g>
   <g id="patch_241">
    <path d="M 98.90863 546.018113 
L 180.7923 546.018113 
L 180.7923 540.476631 
L 98.90863 540.476631 
z
" clip-path="url(#pc9e96d758f)" style="fill: #ebeaea"/>
   </g>
   <g id="patch_242">
    <path d="M 23.511813 546.018113 
L 88.444303 546.018113 
L 88.444303 540.476631 
L 23.511813 540.476631 
L 23.511813 546.018113 
z
" clip-path="url(#pc9e96d758f)" style="fill: none; stroke: #000000; stroke-width: 0.7; stroke-linejoin: miter"/>
   </g>
   <g id="patch_243">
    <path d="M 98.90863 546.018113 
L 180.7923 546.018113 
L 180.7923 540.476631 
L 98.90863 540.476631 
L 98.90863 546.018113 
z
" clip-path="url(#pc9e96d758f)" style="fill: none; stroke: #000000; stroke-width: 0.7; stroke-linejoin: miter"/>
   </g>
   <g id="matplotlib.axis_39">
    <g id="xtick_96"/>
    <g id="xtick_97"/>
    <g id="xtick_98"/>
    <g id="xtick_99"/>
    <g id="xtick_100"/>
   </g>
   <g id="matplotlib.axis_40">
    <g id="ytick_39"/>
    <g id="ytick_40"/>
   </g>
   <g id="patch_244">
    <path d="M 88.444303 546.018113 
L 88.444303 540.476631 
L 98.90863 546.018113 
L 98.90863 540.476631 
z
" clip-path="url(#pc9e96d758f)" style="fill: #777777; stroke: #777777; stroke-width: 0.64; stroke-linejoin: miter"/>
   </g>
   <g id="text_25">
    <!-- 19 -->
    <g style="fill: #262626" transform="translate(10.848026 545.061903) scale(0.07 -0.07)">
     <use xlink:href="#Arial-BoldMT-31"/>
     <use xlink:href="#Arial-BoldMT-39" x="55.615234"/>
    </g>
   </g>
   <g id="patch_245">
    <path d="M 116.719843 546.094618 
L 156.73621 546.094618 
L 156.73621 540.59139 
L 116.719843 540.59139 
z
" clip-path="url(#pc9e96d758f)" style="fill: #1f77b4; opacity: 0.635474"/>
   </g>
   <g id="patch_246">
    <path d="M 59.509817 546.094618 
L 64.339401 546.094618 
L 64.339401 540.59139 
L 59.509817 540.59139 
z
" clip-path="url(#pc9e96d758f)" style="fill: #1f77b4; opacity: 0.910588"/>
   </g>
  </g>
  <g id="axes_21">
   <g id="patch_247">
    <path d="M 22.706865 584.841789 
L 692.306865 584.841789 
L 692.306865 557.134383 
L 22.706865 557.134383 
z
" style="fill: #ffffff"/>
   </g>
   <g id="patch_248">
    <path d="M 23.511813 573.725518 
L 92.469044 573.725518 
L 92.469044 568.184037 
L 23.511813 568.184037 
z
" clip-path="url(#p36e03a1f82)" style="fill: #ebeaea"/>
   </g>
   <g id="patch_249">
    <path d="M 105.0799 573.725518 
L 196.425873 573.725518 
L 196.425873 568.184037 
L 105.0799 568.184037 
z
" clip-path="url(#p36e03a1f82)" style="fill: #ebeaea"/>
   </g>
   <g id="patch_250">
    <path d="M 23.511813 573.725518 
L 92.469044 573.725518 
L 92.469044 568.184037 
L 23.511813 568.184037 
L 23.511813 573.725518 
z
" clip-path="url(#p36e03a1f82)" style="fill: none; stroke: #000000; stroke-width: 0.7; stroke-linejoin: miter"/>
   </g>
   <g id="patch_251">
    <path d="M 105.0799 573.725518 
L 196.425873 573.725518 
L 196.425873 568.184037 
L 105.0799 568.184037 
L 105.0799 573.725518 
z
" clip-path="url(#p36e03a1f82)" style="fill: none; stroke: #000000; stroke-width: 0.7; stroke-linejoin: miter"/>
   </g>
   <g id="matplotlib.axis_41">
    <g id="xtick_101"/>
    <g id="xtick_102"/>
    <g id="xtick_103"/>
    <g id="xtick_104"/>
    <g id="xtick_105"/>
   </g>
   <g id="matplotlib.axis_42">
    <g id="ytick_41"/>
    <g id="ytick_42"/>
   </g>
   <g id="patch_252">
    <path d="M 92.469044 573.725518 
L 92.469044 568.184037 
L 105.0799 573.725518 
L 105.0799 568.184037 
z
" clip-path="url(#p36e03a1f82)" style="fill: #777777; stroke: #777777; stroke-width: 0.64; stroke-linejoin: miter"/>
   </g>
   <g id="text_26">
    <!-- 20 -->
    <g style="fill: #262626" transform="translate(10.848026 572.769309) scale(0.07 -0.07)">
     <use xlink:href="#Arial-BoldMT-32"/>
     <use xlink:href="#Arial-BoldMT-30" x="55.615234"/>
    </g>
   </g>
   <g id="patch_253">
    <path d="M 155.13922 573.802024 
L 165.782822 573.802024 
L 165.782822 568.298796 
L 155.13922 568.298796 
z
" clip-path="url(#p36e03a1f82)" style="fill: #1f77b4; opacity: 0.074671"/>
   </g>
   <g id="patch_254">
    <path d="M 87.53578 573.802024 
L 112.244017 573.802024 
L 112.244017 568.298796 
L 87.53578 568.298796 
z
" clip-path="url(#p36e03a1f82)" style="fill: #1f77b4; opacity: 0.634054"/>
   </g>
   <g id="patch_255">
    <path d="M 28.273954 573.802024 
L 28.998404 573.802024 
L 28.998404 568.298796 
L 28.273954 568.298796 
z
" clip-path="url(#p36e03a1f82)" style="fill: #1f77b4; opacity: 0.791393"/>
   </g>
  </g>
  <g id="axes_22">
   <g id="patch_256">
    <path d="M 22.706865 612.549194 
L 445.612128 612.549194 
L 445.612128 584.841789 
L 22.706865 584.841789 
z
" style="fill: #ffffff"/>
   </g>
   <g id="patch_257">
    <path d="M 23.510685 601.432947 
L 52.716177 601.432947 
L 52.716177 595.891466 
L 23.510685 595.891466 
z
" clip-path="url(#p26aa060c54)" style="fill: #ebeaea"/>
   </g>
   <g id="patch_258">
    <path d="M 58.342924 601.432947 
L 148.665551 601.432947 
L 148.665551 595.891466 
L 58.342924 595.891466 
z
" clip-path="url(#p26aa060c54)" style="fill: #ebeaea"/>
   </g>
   <g id="patch_259">
    <path d="M 23.510685 601.432947 
L 52.716177 601.432947 
L 52.716177 595.891466 
L 23.510685 595.891466 
L 23.510685 601.432947 
z
" clip-path="url(#p26aa060c54)" style="fill: none; stroke: #000000; stroke-width: 0.7; stroke-linejoin: miter"/>
   </g>
   <g id="patch_260">
    <path d="M 58.342924 601.432947 
L 148.665551 601.432947 
L 148.665551 595.891466 
L 58.342924 595.891466 
L 58.342924 601.432947 
z
" clip-path="url(#p26aa060c54)" style="fill: none; stroke: #000000; stroke-width: 0.7; stroke-linejoin: miter"/>
   </g>
   <g id="matplotlib.axis_43">
    <g id="xtick_106"/>
    <g id="xtick_107"/>
    <g id="xtick_108"/>
    <g id="xtick_109"/>
    <g id="xtick_110"/>
    <g id="xtick_111"/>
    <g id="xtick_112"/>
    <g id="xtick_113"/>
   </g>
   <g id="matplotlib.axis_44">
    <g id="ytick_43"/>
    <g id="ytick_44"/>
   </g>
   <g id="patch_261">
    <path d="M 52.716177 601.432947 
L 52.716177 595.891466 
L 58.342924 601.432947 
L 58.342924 595.891466 
z
" clip-path="url(#p26aa060c54)" style="fill: #777777; stroke: #777777; stroke-width: 0.64; stroke-linejoin: miter"/>
   </g>
   <g id="text_27">
    <!-- 21 -->
    <g style="fill: #262626" transform="translate(7.2 600.476738) scale(0.07 -0.07)">
     <use xlink:href="#Arial-BoldMT-32"/>
     <use xlink:href="#Arial-BoldMT-31" x="55.615234"/>
    </g>
   </g>
   <g id="patch_262">
    <path d="M 73.753402 601.50174 
L 108.424967 601.50174 
L 108.424967 595.994656 
L 73.753402 595.994656 
z
" clip-path="url(#p26aa060c54)" style="fill: #1f77b4; opacity: 0.39408"/>
   </g>
   <g id="patch_263">
    <path d="M 58.330309 601.50174 
L 70.113265 601.50174 
L 70.113265 595.994656 
L 58.330309 595.994656 
z
" clip-path="url(#p26aa060c54)" style="fill: #1f77b4; opacity: 0.650104"/>
   </g>
  </g>
  <g id="axes_23">
   <g id="patch_264">
    <path d="M 22.706865 640.2566 
L 445.612128 640.2566 
L 445.612128 612.549194 
L 22.706865 612.549194 
z
" style="fill: #ffffff"/>
   </g>
   <g id="patch_265">
    <path d="M 23.510685 629.140353 
L 60.218506 629.140353 
L 60.218506 623.598872 
L 23.510685 623.598872 
z
" clip-path="url(#p66a2a548e8)" style="fill: #ebeaea"/>
   </g>
   <g id="patch_266">
    <path d="M 70.132296 629.140353 
L 159.673838 629.140353 
L 159.673838 623.598872 
L 70.132296 623.598872 
z
" clip-path="url(#p66a2a548e8)" style="fill: #ebeaea"/>
   </g>
   <g id="patch_267">
    <path d="M 23.510685 629.140353 
L 60.218506 629.140353 
L 60.218506 623.598872 
L 23.510685 623.598872 
L 23.510685 629.140353 
z
" clip-path="url(#p66a2a548e8)" style="fill: none; stroke: #000000; stroke-width: 0.7; stroke-linejoin: miter"/>
   </g>
   <g id="patch_268">
    <path d="M 70.132296 629.140353 
L 159.673838 629.140353 
L 159.673838 623.598872 
L 70.132296 623.598872 
L 70.132296 629.140353 
z
" clip-path="url(#p66a2a548e8)" style="fill: none; stroke: #000000; stroke-width: 0.7; stroke-linejoin: miter"/>
   </g>
   <g id="matplotlib.axis_45">
    <g id="xtick_114"/>
    <g id="xtick_115"/>
    <g id="xtick_116"/>
    <g id="xtick_117"/>
    <g id="xtick_118"/>
    <g id="xtick_119"/>
    <g id="xtick_120"/>
    <g id="xtick_121"/>
   </g>
   <g id="matplotlib.axis_46">
    <g id="ytick_45"/>
    <g id="ytick_46"/>
   </g>
   <g id="patch_269">
    <path d="M 60.218506 629.140353 
L 60.218506 623.598872 
L 70.132296 629.140353 
L 70.132296 623.598872 
z
" clip-path="url(#p66a2a548e8)" style="fill: #777777; stroke: #777777; stroke-width: 0.64; stroke-linejoin: miter"/>
   </g>
   <g id="text_28">
    <!-- 22 -->
    <g style="fill: #262626" transform="translate(7.2 628.184144) scale(0.07 -0.07)">
     <use xlink:href="#Arial-BoldMT-32"/>
     <use xlink:href="#Arial-BoldMT-32" x="55.615234"/>
    </g>
   </g>
   <g id="patch_270">
    <path d="M 132.321753 629.209146 
L 148.034222 629.209146 
L 148.034222 623.702062 
L 132.321753 623.702062 
z
" clip-path="url(#p66a2a548e8)" style="fill: #1f77b4; opacity: 0.503297"/>
   </g>
   <g id="patch_271">
    <path d="M 85.416417 629.209146 
L 103.927448 629.209146 
L 103.927448 623.702062 
L 85.416417 623.702062 
z
" clip-path="url(#p66a2a548e8)" style="fill: #1f77b4; opacity: 0.524231"/>
   </g>
  </g>
  <g id="axes_24">
   <g id="patch_272">
    <path d="M 269.401601 612.549194 
L 692.306865 612.549194 
L 692.306865 584.841789 
L 269.401601 584.841789 
z
" style="fill: #ffffff"/>
   </g>
   <g id="patch_273">
    <path d="M 270.211553 601.432693 
L 427.072224 601.432693 
L 427.072224 595.891212 
L 270.211553 595.891212 
z
" clip-path="url(#p628c619134)" style="fill: #ebeaea"/>
   </g>
   <g id="patch_274">
    <path d="M 442.461308 601.432693 
L 691.496913 601.432693 
L 691.496913 595.891212 
L 442.461308 595.891212 
z
" clip-path="url(#p628c619134)" style="fill: #ebeaea"/>
   </g>
   <g id="patch_275">
    <path d="M 270.211553 601.432693 
L 427.072224 601.432693 
L 427.072224 595.891212 
L 270.211553 595.891212 
L 270.211553 601.432693 
z
" clip-path="url(#p628c619134)" style="fill: none; stroke: #000000; stroke-width: 0.7; stroke-linejoin: miter"/>
   </g>
   <g id="patch_276">
    <path d="M 442.461308 601.432693 
L 691.496913 601.432693 
L 691.496913 595.891212 
L 442.461308 595.891212 
L 442.461308 601.432693 
z
" clip-path="url(#p628c619134)" style="fill: none; stroke: #000000; stroke-width: 0.7; stroke-linejoin: miter"/>
   </g>
   <g id="matplotlib.axis_47">
    <g id="xtick_122"/>
    <g id="xtick_123"/>
    <g id="xtick_124"/>
    <g id="xtick_125"/>
    <g id="xtick_126"/>
    <g id="xtick_127"/>
    <g id="xtick_128"/>
    <g id="xtick_129"/>
   </g>
   <g id="matplotlib.axis_48">
    <g id="ytick_47"/>
    <g id="ytick_48"/>
   </g>
   <g id="patch_277">
    <path d="M 427.072224 601.432693 
L 427.072224 595.891212 
L 442.461308 601.432693 
L 442.461308 595.891212 
z
" clip-path="url(#p628c619134)" style="fill: #777777; stroke: #777777; stroke-width: 0.64; stroke-linejoin: miter"/>
   </g>
   <g id="text_29">
    <!-- X -->
    <g style="fill: #262626" transform="translate(260.633536 600.476484) scale(0.07 -0.07)">
     <defs>
      <path id="Arial-BoldMT-58" d="M 0 0 
L 1566 2391 
L 147 4581 
L 1228 4581 
L 2147 3109 
L 3047 4581 
L 4119 4581 
L 2694 2356 
L 4259 0 
L 3144 0 
L 2128 1584 
L 1109 0 
L 0 0 
z
" transform="scale(0.015625)"/>
     </defs>
     <use xlink:href="#Arial-BoldMT-58"/>
    </g>
   </g>
   <g id="patch_278">
    <path d="M 610.893855 601.501428 
L 617.701586 601.501428 
L 617.701586 595.994314 
L 610.893855 595.994314 
z
" clip-path="url(#p628c619134)" style="fill: #1f77b4; opacity: 0.356481"/>
   </g>
   <g id="patch_279">
    <path d="M 523.519851 601.501428 
L 534.475076 601.501428 
L 534.475076 595.994314 
L 523.519851 595.994314 
z
" clip-path="url(#p628c619134)" style="fill: #1f77b4; opacity: 0.405031"/>
   </g>
   <g id="patch_280">
    <path d="M 514.980923 601.501428 
L 519.524574 601.501428 
L 519.524574 595.994314 
L 514.980923 595.994314 
z
" clip-path="url(#p628c619134)" style="fill: #1f77b4; opacity: 0.695384"/>
   </g>
   <g id="patch_281">
    <path d="M 429.987791 601.501428 
L 434.614125 601.501428 
L 434.614125 595.994314 
L 429.987791 595.994314 
z
" clip-path="url(#p628c619134)" style="fill: #1f77b4; opacity: 0.271776"/>
   </g>
   <g id="patch_282">
    <path d="M 412.770928 601.501428 
L 418.327598 601.501428 
L 418.327598 595.994314 
L 412.770928 595.994314 
z
" clip-path="url(#p628c619134)" style="fill: #1f77b4; opacity: 0.029576"/>
   </g>
   <g id="patch_283">
    <path d="M 331.653284 601.501428 
L 344.24817 601.501428 
L 344.24817 595.994314 
L 331.653284 595.994314 
z
" clip-path="url(#p628c619134)" style="fill: #1f77b4; opacity: 0.920587"/>
   </g>
   <g id="patch_284">
    <path d="M 271.59457 601.501428 
L 328.580162 601.501428 
L 328.580162 595.994314 
L 271.59457 595.994314 
z
" clip-path="url(#p628c619134)" style="fill: #1f77b4; opacity: 0.558955"/>
   </g>
  </g>
  <g id="axes_25">
   <g id="patch_285">
    <path d="M 269.401601 640.2566 
L 692.306865 640.2566 
L 692.306865 612.549194 
L 269.401601 612.549194 
z
" style="fill: #ffffff"/>
   </g>
   <g id="patch_286">
    <path d="M 270.211553 629.140099 
L 298.019899 629.140099 
L 298.019899 623.598618 
L 270.211553 623.598618 
z
" clip-path="url(#p543b08101f)" style="fill: #ebeaea"/>
   </g>
   <g id="patch_287">
    <path d="M 298.289883 629.140099 
L 424.716384 629.140099 
L 424.716384 623.598618 
L 298.289883 623.598618 
z
" clip-path="url(#p543b08101f)" style="fill: #ebeaea"/>
   </g>
   <g id="patch_288">
    <path d="M 270.211553 629.140099 
L 298.019899 629.140099 
L 298.019899 623.598618 
L 270.211553 623.598618 
L 270.211553 629.140099 
z
" clip-path="url(#p543b08101f)" style="fill: none; stroke: #000000; stroke-width: 0.7; stroke-linejoin: miter"/>
   </g>
   <g id="patch_289">
    <path d="M 298.289883 629.140099 
L 424.716384 629.140099 
L 424.716384 623.598618 
L 298.289883 623.598618 
L 298.289883 629.140099 
z
" clip-path="url(#p543b08101f)" style="fill: none; stroke: #000000; stroke-width: 0.7; stroke-linejoin: miter"/>
   </g>
   <g id="matplotlib.axis_49">
    <g id="xtick_130">
     <g id="line2d_6">
      <defs>
       <path id="m008895cf0e" d="M 0 0 
L 0 3.84 
" style="stroke: #262626; stroke-width: 0.8"/>
      </defs>
      <g>
       <use xlink:href="#m008895cf0e" x="270.211553" y="640.2566" style="fill: #262626; stroke: #262626; stroke-width: 0.8"/>
      </g>
     </g>
     <g id="text_30">
      <!-- 0.0 -->
      <g style="fill: #262626" transform="translate(265.318753 652.6357) scale(0.0704 -0.0704)">
       <use xlink:href="#ArialMT-30"/>
       <use xlink:href="#ArialMT-2e" x="55.615234"/>
       <use xlink:href="#ArialMT-30" x="83.398438"/>
      </g>
     </g>
    </g>
    <g id="xtick_131">
     <g id="line2d_7">
      <g>
       <use xlink:href="#m008895cf0e" x="324.208342" y="640.2566" style="fill: #262626; stroke: #262626; stroke-width: 0.8"/>
      </g>
     </g>
     <g id="text_31">
      <!-- 0.2 -->
      <g style="fill: #262626" transform="translate(319.315542 652.6357) scale(0.0704 -0.0704)">
       <use xlink:href="#ArialMT-30"/>
       <use xlink:href="#ArialMT-2e" x="55.615234"/>
       <use xlink:href="#ArialMT-32" x="83.398438"/>
      </g>
     </g>
    </g>
    <g id="xtick_132">
     <g id="line2d_8">
      <g>
       <use xlink:href="#m008895cf0e" x="378.20513" y="640.2566" style="fill: #262626; stroke: #262626; stroke-width: 0.8"/>
      </g>
     </g>
     <g id="text_32">
      <!-- 0.4 -->
      <g style="fill: #262626" transform="translate(373.31233 652.6357) scale(0.0704 -0.0704)">
       <defs>
        <path id="ArialMT-34" d="M 2069 0 
L 2069 1097 
L 81 1097 
L 81 1613 
L 2172 4581 
L 2631 4581 
L 2631 1613 
L 3250 1613 
L 3250 1097 
L 2631 1097 
L 2631 0 
L 2069 0 
z
M 2069 1613 
L 2069 3678 
L 634 1613 
L 2069 1613 
z
" transform="scale(0.015625)"/>
       </defs>
       <use xlink:href="#ArialMT-30"/>
       <use xlink:href="#ArialMT-2e" x="55.615234"/>
       <use xlink:href="#ArialMT-34" x="83.398438"/>
      </g>
     </g>
    </g>
    <g id="xtick_133">
     <g id="line2d_9">
      <g>
       <use xlink:href="#m008895cf0e" x="432.201918" y="640.2566" style="fill: #262626; stroke: #262626; stroke-width: 0.8"/>
      </g>
     </g>
     <g id="text_33">
      <!-- 0.6 -->
      <g style="fill: #262626" transform="translate(427.309118 652.6357) scale(0.0704 -0.0704)">
       <defs>
        <path id="ArialMT-36" d="M 3184 3459 
L 2625 3416 
Q 2550 3747 2413 3897 
Q 2184 4138 1850 4138 
Q 1581 4138 1378 3988 
Q 1113 3794 959 3422 
Q 806 3050 800 2363 
Q 1003 2672 1297 2822 
Q 1591 2972 1913 2972 
Q 2475 2972 2870 2558 
Q 3266 2144 3266 1488 
Q 3266 1056 3080 686 
Q 2894 316 2569 119 
Q 2244 -78 1831 -78 
Q 1128 -78 684 439 
Q 241 956 241 2144 
Q 241 3472 731 4075 
Q 1159 4600 1884 4600 
Q 2425 4600 2770 4297 
Q 3116 3994 3184 3459 
z
M 888 1484 
Q 888 1194 1011 928 
Q 1134 663 1356 523 
Q 1578 384 1822 384 
Q 2178 384 2434 671 
Q 2691 959 2691 1453 
Q 2691 1928 2437 2201 
Q 2184 2475 1800 2475 
Q 1419 2475 1153 2201 
Q 888 1928 888 1484 
z
" transform="scale(0.015625)"/>
       </defs>
       <use xlink:href="#ArialMT-30"/>
       <use xlink:href="#ArialMT-2e" x="55.615234"/>
       <use xlink:href="#ArialMT-36" x="83.398438"/>
      </g>
     </g>
    </g>
    <g id="xtick_134">
     <g id="line2d_10">
      <g>
       <use xlink:href="#m008895cf0e" x="486.198707" y="640.2566" style="fill: #262626; stroke: #262626; stroke-width: 0.8"/>
      </g>
     </g>
     <g id="text_34">
      <!-- 0.8 -->
      <g style="fill: #262626" transform="translate(481.305907 652.6357) scale(0.0704 -0.0704)">
       <use xlink:href="#ArialMT-30"/>
       <use xlink:href="#ArialMT-2e" x="55.615234"/>
       <use xlink:href="#ArialMT-38" x="83.398438"/>
      </g>
     </g>
    </g>
    <g id="xtick_135">
     <g id="line2d_11">
      <g>
       <use xlink:href="#m008895cf0e" x="540.195495" y="640.2566" style="fill: #262626; stroke: #262626; stroke-width: 0.8"/>
      </g>
     </g>
     <g id="text_35">
      <!-- 1.0 -->
      <g style="fill: #262626" transform="translate(535.302695 652.6357) scale(0.0704 -0.0704)">
       <use xlink:href="#ArialMT-31"/>
       <use xlink:href="#ArialMT-2e" x="55.615234"/>
       <use xlink:href="#ArialMT-30" x="83.398438"/>
      </g>
     </g>
    </g>
    <g id="xtick_136">
     <g id="line2d_12">
      <g>
       <use xlink:href="#m008895cf0e" x="594.192284" y="640.2566" style="fill: #262626; stroke: #262626; stroke-width: 0.8"/>
      </g>
     </g>
     <g id="text_36">
      <!-- 1.2 -->
      <g style="fill: #262626" transform="translate(589.299484 652.6357) scale(0.0704 -0.0704)">
       <use xlink:href="#ArialMT-31"/>
       <use xlink:href="#ArialMT-2e" x="55.615234"/>
       <use xlink:href="#ArialMT-32" x="83.398438"/>
      </g>
     </g>
    </g>
    <g id="xtick_137">
     <g id="line2d_13">
      <g>
       <use xlink:href="#m008895cf0e" x="648.189072" y="640.2566" style="fill: #262626; stroke: #262626; stroke-width: 0.8"/>
      </g>
     </g>
     <g id="text_37">
      <!-- 1.4 -->
      <g style="fill: #262626" transform="translate(643.296272 652.6357) scale(0.0704 -0.0704)">
       <use xlink:href="#ArialMT-31"/>
       <use xlink:href="#ArialMT-2e" x="55.615234"/>
       <use xlink:href="#ArialMT-34" x="83.398438"/>
      </g>
     </g>
    </g>
    <g id="text_38">
     <!-- 1e8 -->
     <g style="fill: #262626" transform="translate(680.562165 662.074) scale(0.0704 -0.0704)">
      <use xlink:href="#ArialMT-31"/>
      <use xlink:href="#ArialMT-65" x="55.615234"/>
      <use xlink:href="#ArialMT-38" x="111.230469"/>
     </g>
    </g>
   </g>
   <g id="patch_290">
    <path d="M 298.019899 629.140099 
L 298.019899 623.598618 
L 298.289883 629.140099 
L 298.289883 623.598618 
z
" clip-path="url(#p543b08101f)" style="fill: #777777; stroke: #777777; stroke-width: 0.64; stroke-linejoin: miter"/>
   </g>
   <g id="patch_291">
    <path d="M 269.401601 640.2566 
L 692.306865 640.2566 
" style="fill: none; stroke: #262626; stroke-width: 0.8; stroke-linejoin: miter; stroke-linecap: square"/>
   </g>
   <g id="text_39">
    <!-- Y -->
    <g style="fill: #262626" transform="translate(260.633536 628.18389) scale(0.07 -0.07)">
     <defs>
      <path id="Arial-BoldMT-59" d="M 1669 0 
L 1669 1928 
L -9 4581 
L 1075 4581 
L 2153 2769 
L 3209 4581 
L 4275 4581 
L 2591 1922 
L 2591 0 
L 1669 0 
z
" transform="scale(0.015625)"/>
     </defs>
     <use xlink:href="#Arial-BoldMT-59"/>
    </g>
   </g>
   <g id="patch_292">
    <path d="M 389.898545 629.208833 
L 411.951657 629.208833 
L 411.951657 623.701719 
L 389.898545 623.701719 
z
" clip-path="url(#p543b08101f)" style="fill: #1f77b4; opacity: 0.52938"/>
   </g>
   <g id="patch_293">
    <path d="M 291.93607 629.208833 
L 340.607685 629.208833 
L 340.607685 623.701719 
L 291.93607 623.701719 
z
" clip-path="url(#p543b08101f)" style="fill: #1f77b4; opacity: 0.782924"/>
   </g>
  </g>
 </g>
 <defs>
  <clipPath id="pbeff7a6f12">
   <rect x="22.706865" y="30.693674" width="669.6" height="27.707406"/>
  </clipPath>
  <clipPath id="p5e73d2beda">
   <rect x="22.706865" y="58.40108" width="669.6" height="27.707406"/>
  </clipPath>
  <clipPath id="p14b924450d">
   <rect x="22.706865" y="86.108486" width="669.6" height="27.707406"/>
  </clipPath>
  <clipPath id="p778bfc088e">
   <rect x="22.706865" y="113.815891" width="669.6" height="27.707406"/>
  </clipPath>
  <clipPath id="pd16d212f51">
   <rect x="22.706865" y="141.523297" width="669.6" height="27.707406"/>
  </clipPath>
  <clipPath id="p9fc5cebbf0">
   <rect x="22.706865" y="169.230703" width="669.6" height="27.707406"/>
  </clipPath>
  <clipPath id="pc2ef061b65">
   <rect x="22.706865" y="196.938108" width="669.6" height="27.707406"/>
  </clipPath>
  <clipPath id="p04e0723b87">
   <rect x="22.706865" y="224.645514" width="669.6" height="27.707406"/>
  </clipPath>
  <clipPath id="p684786fb76">
   <rect x="22.706865" y="252.35292" width="669.6" height="27.707406"/>
  </clipPath>
  <clipPath id="p35f756e53c">
   <rect x="22.706865" y="280.060326" width="669.6" height="27.707406"/>
  </clipPath>
  <clipPath id="p008af15ac9">
   <rect x="22.706865" y="307.767731" width="669.6" height="27.707406"/>
  </clipPath>
  <clipPath id="p2cfa0819ac">
   <rect x="22.706865" y="335.475137" width="669.6" height="27.707406"/>
  </clipPath>
  <clipPath id="p70bf1bb955">
   <rect x="22.706865" y="363.182543" width="669.6" height="27.707406"/>
  </clipPath>
  <clipPath id="p7bc890f02f">
   <rect x="22.706865" y="390.889948" width="669.6" height="27.707406"/>
  </clipPath>
  <clipPath id="p83f0d9599f">
   <rect x="22.706865" y="418.597354" width="669.6" height="27.707406"/>
  </clipPath>
  <clipPath id="p8763b13043">
   <rect x="22.706865" y="446.30476" width="669.6" height="27.707406"/>
  </clipPath>
  <clipPath id="pa908d1380c">
   <rect x="22.706865" y="474.012166" width="669.6" height="27.707406"/>
  </clipPath>
  <clipPath id="ped7b3bf390">
   <rect x="22.706865" y="501.719571" width="669.6" height="27.707406"/>
  </clipPath>
  <clipPath id="pc9e96d758f">
   <rect x="22.706865" y="529.426977" width="669.6" height="27.707406"/>
  </clipPath>
  <clipPath id="p36e03a1f82">
   <rect x="22.706865" y="557.134383" width="669.6" height="27.707406"/>
  </clipPath>
  <clipPath id="p26aa060c54">
   <rect x="22.706865" y="584.841789" width="422.905263" height="27.707406"/>
  </clipPath>
  <clipPath id="p66a2a548e8">
   <rect x="22.706865" y="612.549194" width="422.905263" height="27.707406"/>
  </clipPath>
  <clipPath id="p628c619134">
   <rect x="269.401601" y="584.841789" width="422.905263" height="27.707406"/>
  </clipPath>
  <clipPath id="p543b08101f">
   <rect x="269.401601" y="612.549194" width="422.905263" height="27.707406"/>
  </clipPath>
 </defs>
</svg>
