<?xml version="1.0" encoding="utf-8" standalone="no"?>
<!DOCTYPE svg PUBLIC "-//W3C//DTD SVG 1.1//EN"
  "http://www.w3.org/Graphics/SVG/1.1/DTD/svg11.dtd">
<svg xmlns:xlink="http://www.w3.org/1999/xlink" width="687.610376pt" height="292.6406pt" viewBox="0 0 687.610376 292.6406" xmlns="http://www.w3.org/2000/svg" version="1.1">
 <metadata>
  <rdf:RDF xmlns:dc="http://purl.org/dc/elements/1.1/" xmlns:cc="http://creativecommons.org/ns#" xmlns:rdf="http://www.w3.org/1999/02/22-rdf-syntax-ns#">
   <cc:Work>
    <dc:type rdf:resource="http://purl.org/dc/dcmitype/StillImage"/>
    <dc:date>2025-05-28T03:33:04.555080</dc:date>
    <dc:format>image/svg+xml</dc:format>
    <dc:creator>
     <cc:Agent>
      <dc:title>Matplotlib v3.10.3, https://matplotlib.org/</dc:title>
     </cc:Agent>
    </dc:creator>
   </cc:Work>
  </rdf:RDF>
 </metadata>
 <defs>
  <style type="text/css">*{stroke-linejoin: round; stroke-linecap: butt}</style>
 </defs>
 <g id="figure_1">
  <g id="patch_1">
   <path d="M 0 292.6406 
L 687.610376 292.6406 
L 687.610376 0 
L 0 0 
z
" style="fill: #ffffff"/>
  </g>
  <g id="axes_1">
   <g id="patch_2">
    <path d="M 10.810376 118.08 
L 680.410376 118.08 
L 680.410376 7.2 
L 10.810376 7.2 
z
" style="fill: #ffffff"/>
   </g>
   <g id="patch_3">
    <path d="M 12.0928 95.691642 
L 260.455528 95.691642 
L 260.455528 73.515642 
L 12.0928 73.515642 
z
" clip-path="url(#p47704c25be)" style="fill: #ebeaea"/>
   </g>
   <g id="patch_4">
    <path d="M 284.821579 95.691642 
L 679.127953 95.691642 
L 679.127953 73.515642 
L 284.821579 73.515642 
z
" clip-path="url(#p47704c25be)" style="fill: #ebeaea"/>
   </g>
   <g id="patch_5">
    <path d="M 12.0928 95.691642 
L 260.455528 95.691642 
L 260.455528 73.515642 
L 12.0928 73.515642 
L 12.0928 95.691642 
z
" clip-path="url(#p47704c25be)" style="fill: none; stroke: #000000; stroke-width: 0.7; stroke-linejoin: miter"/>
   </g>
   <g id="patch_6">
    <path d="M 284.821579 95.691642 
L 679.127953 95.691642 
L 679.127953 73.515642 
L 284.821579 73.515642 
L 284.821579 95.691642 
z
" clip-path="url(#p47704c25be)" style="fill: none; stroke: #000000; stroke-width: 0.7; stroke-linejoin: miter"/>
   </g>
   <g id="matplotlib.axis_1">
    <g id="xtick_1">
     <g id="line2d_1">
      <defs>
       <path id="m1c1482e54a" d="M 0 0 
L 0 3.84 
" style="stroke: #262626; stroke-width: 0.8"/>
      </defs>
      <g>
       <use xlink:href="#m1c1482e54a" x="12.0928" y="118.08" style="fill: #262626; stroke: #262626; stroke-width: 0.8"/>
      </g>
     </g>
     <g id="text_1">
      <!-- 0.0 -->
      <g style="fill: #262626" transform="translate(7.2 130.4591) scale(0.0704 -0.0704)">
       <defs>
        <path id="ArialMT-30" d="M 266 2259 
Q 266 3072 433 3567 
Q 600 4063 929 4331 
Q 1259 4600 1759 4600 
Q 2128 4600 2406 4451 
Q 2684 4303 2865 4023 
Q 3047 3744 3150 3342 
Q 3253 2941 3253 2259 
Q 3253 1453 3087 958 
Q 2922 463 2592 192 
Q 2263 -78 1759 -78 
Q 1097 -78 719 397 
Q 266 969 266 2259 
z
M 844 2259 
Q 844 1131 1108 757 
Q 1372 384 1759 384 
Q 2147 384 2411 759 
Q 2675 1134 2675 2259 
Q 2675 3391 2411 3762 
Q 2147 4134 1753 4134 
Q 1366 4134 1134 3806 
Q 844 3388 844 2259 
z
" transform="scale(0.015625)"/>
        <path id="ArialMT-2e" d="M 581 0 
L 581 641 
L 1222 641 
L 1222 0 
L 581 0 
z
" transform="scale(0.015625)"/>
       </defs>
       <use xlink:href="#ArialMT-30"/>
       <use xlink:href="#ArialMT-2e" transform="translate(55.615234 0)"/>
       <use xlink:href="#ArialMT-30" transform="translate(83.398438 0)"/>
      </g>
     </g>
    </g>
    <g id="xtick_2">
     <g id="line2d_2">
      <g>
       <use xlink:href="#m1c1482e54a" x="54.840257" y="118.08" style="fill: #262626; stroke: #262626; stroke-width: 0.8"/>
      </g>
     </g>
     <g id="text_2">
      <!-- 0.1 -->
      <g style="fill: #262626" transform="translate(49.947457 130.4591) scale(0.0704 -0.0704)">
       <defs>
        <path id="ArialMT-31" d="M 2384 0 
L 1822 0 
L 1822 3584 
Q 1619 3391 1289 3197 
Q 959 3003 697 2906 
L 697 3450 
Q 1169 3672 1522 3987 
Q 1875 4303 2022 4600 
L 2384 4600 
L 2384 0 
z
" transform="scale(0.015625)"/>
       </defs>
       <use xlink:href="#ArialMT-30"/>
       <use xlink:href="#ArialMT-2e" transform="translate(55.615234 0)"/>
       <use xlink:href="#ArialMT-31" transform="translate(83.398438 0)"/>
      </g>
     </g>
    </g>
    <g id="xtick_3">
     <g id="line2d_3">
      <g>
       <use xlink:href="#m1c1482e54a" x="97.587715" y="118.08" style="fill: #262626; stroke: #262626; stroke-width: 0.8"/>
      </g>
     </g>
     <g id="text_3">
      <!-- 0.2 -->
      <g style="fill: #262626" transform="translate(92.694915 130.4591) scale(0.0704 -0.0704)">
       <defs>
        <path id="ArialMT-32" d="M 3222 541 
L 3222 0 
L 194 0 
Q 188 203 259 391 
Q 375 700 629 1000 
Q 884 1300 1366 1694 
Q 2113 2306 2375 2664 
Q 2638 3022 2638 3341 
Q 2638 3675 2398 3904 
Q 2159 4134 1775 4134 
Q 1369 4134 1125 3890 
Q 881 3647 878 3216 
L 300 3275 
Q 359 3922 746 4261 
Q 1134 4600 1788 4600 
Q 2447 4600 2831 4234 
Q 3216 3869 3216 3328 
Q 3216 3053 3103 2787 
Q 2991 2522 2730 2228 
Q 2469 1934 1863 1422 
Q 1356 997 1212 845 
Q 1069 694 975 541 
L 3222 541 
z
" transform="scale(0.015625)"/>
       </defs>
       <use xlink:href="#ArialMT-30"/>
       <use xlink:href="#ArialMT-2e" transform="translate(55.615234 0)"/>
       <use xlink:href="#ArialMT-32" transform="translate(83.398438 0)"/>
      </g>
     </g>
    </g>
    <g id="xtick_4">
     <g id="line2d_4">
      <g>
       <use xlink:href="#m1c1482e54a" x="140.335172" y="118.08" style="fill: #262626; stroke: #262626; stroke-width: 0.8"/>
      </g>
     </g>
     <g id="text_4">
      <!-- 0.3 -->
      <g style="fill: #262626" transform="translate(135.442372 130.4591) scale(0.0704 -0.0704)">
       <defs>
        <path id="ArialMT-33" d="M 269 1209 
L 831 1284 
Q 928 806 1161 595 
Q 1394 384 1728 384 
Q 2125 384 2398 659 
Q 2672 934 2672 1341 
Q 2672 1728 2419 1979 
Q 2166 2231 1775 2231 
Q 1616 2231 1378 2169 
L 1441 2663 
Q 1497 2656 1531 2656 
Q 1891 2656 2178 2843 
Q 2466 3031 2466 3422 
Q 2466 3731 2256 3934 
Q 2047 4138 1716 4138 
Q 1388 4138 1169 3931 
Q 950 3725 888 3313 
L 325 3413 
Q 428 3978 793 4289 
Q 1159 4600 1703 4600 
Q 2078 4600 2393 4439 
Q 2709 4278 2876 4000 
Q 3044 3722 3044 3409 
Q 3044 3113 2884 2869 
Q 2725 2625 2413 2481 
Q 2819 2388 3044 2092 
Q 3269 1797 3269 1353 
Q 3269 753 2831 336 
Q 2394 -81 1725 -81 
Q 1122 -81 723 278 
Q 325 638 269 1209 
z
" transform="scale(0.015625)"/>
       </defs>
       <use xlink:href="#ArialMT-30"/>
       <use xlink:href="#ArialMT-2e" transform="translate(55.615234 0)"/>
       <use xlink:href="#ArialMT-33" transform="translate(83.398438 0)"/>
      </g>
     </g>
    </g>
    <g id="xtick_5">
     <g id="line2d_5">
      <g>
       <use xlink:href="#m1c1482e54a" x="183.08263" y="118.08" style="fill: #262626; stroke: #262626; stroke-width: 0.8"/>
      </g>
     </g>
     <g id="text_5">
      <!-- 0.4 -->
      <g style="fill: #262626" transform="translate(178.18983 130.4591) scale(0.0704 -0.0704)">
       <defs>
        <path id="ArialMT-34" d="M 2069 0 
L 2069 1097 
L 81 1097 
L 81 1613 
L 2172 4581 
L 2631 4581 
L 2631 1613 
L 3250 1613 
L 3250 1097 
L 2631 1097 
L 2631 0 
L 2069 0 
z
M 2069 1613 
L 2069 3678 
L 634 1613 
L 2069 1613 
z
" transform="scale(0.015625)"/>
       </defs>
       <use xlink:href="#ArialMT-30"/>
       <use xlink:href="#ArialMT-2e" transform="translate(55.615234 0)"/>
       <use xlink:href="#ArialMT-34" transform="translate(83.398438 0)"/>
      </g>
     </g>
    </g>
    <g id="xtick_6">
     <g id="line2d_6">
      <g>
       <use xlink:href="#m1c1482e54a" x="225.830087" y="118.08" style="fill: #262626; stroke: #262626; stroke-width: 0.8"/>
      </g>
     </g>
     <g id="text_6">
      <!-- 0.5 -->
      <g style="fill: #262626" transform="translate(220.937287 130.4591) scale(0.0704 -0.0704)">
       <defs>
        <path id="ArialMT-35" d="M 266 1200 
L 856 1250 
Q 922 819 1161 601 
Q 1400 384 1738 384 
Q 2144 384 2425 690 
Q 2706 997 2706 1503 
Q 2706 1984 2436 2262 
Q 2166 2541 1728 2541 
Q 1456 2541 1237 2417 
Q 1019 2294 894 2097 
L 366 2166 
L 809 4519 
L 3088 4519 
L 3088 3981 
L 1259 3981 
L 1013 2750 
Q 1425 3038 1878 3038 
Q 2478 3038 2890 2622 
Q 3303 2206 3303 1553 
Q 3303 931 2941 478 
Q 2500 -78 1738 -78 
Q 1113 -78 717 272 
Q 322 622 266 1200 
z
" transform="scale(0.015625)"/>
       </defs>
       <use xlink:href="#ArialMT-30"/>
       <use xlink:href="#ArialMT-2e" transform="translate(55.615234 0)"/>
       <use xlink:href="#ArialMT-35" transform="translate(83.398438 0)"/>
      </g>
     </g>
    </g>
    <g id="xtick_7">
     <g id="line2d_7">
      <g>
       <use xlink:href="#m1c1482e54a" x="268.577545" y="118.08" style="fill: #262626; stroke: #262626; stroke-width: 0.8"/>
      </g>
     </g>
     <g id="text_7">
      <!-- 0.6 -->
      <g style="fill: #262626" transform="translate(263.684745 130.4591) scale(0.0704 -0.0704)">
       <defs>
        <path id="ArialMT-36" d="M 3184 3459 
L 2625 3416 
Q 2550 3747 2413 3897 
Q 2184 4138 1850 4138 
Q 1581 4138 1378 3988 
Q 1113 3794 959 3422 
Q 806 3050 800 2363 
Q 1003 2672 1297 2822 
Q 1591 2972 1913 2972 
Q 2475 2972 2870 2558 
Q 3266 2144 3266 1488 
Q 3266 1056 3080 686 
Q 2894 316 2569 119 
Q 2244 -78 1831 -78 
Q 1128 -78 684 439 
Q 241 956 241 2144 
Q 241 3472 731 4075 
Q 1159 4600 1884 4600 
Q 2425 4600 2770 4297 
Q 3116 3994 3184 3459 
z
M 888 1484 
Q 888 1194 1011 928 
Q 1134 663 1356 523 
Q 1578 384 1822 384 
Q 2178 384 2434 671 
Q 2691 959 2691 1453 
Q 2691 1928 2437 2201 
Q 2184 2475 1800 2475 
Q 1419 2475 1153 2201 
Q 888 1928 888 1484 
z
" transform="scale(0.015625)"/>
       </defs>
       <use xlink:href="#ArialMT-30"/>
       <use xlink:href="#ArialMT-2e" transform="translate(55.615234 0)"/>
       <use xlink:href="#ArialMT-36" transform="translate(83.398438 0)"/>
      </g>
     </g>
    </g>
    <g id="xtick_8">
     <g id="line2d_8">
      <g>
       <use xlink:href="#m1c1482e54a" x="311.325002" y="118.08" style="fill: #262626; stroke: #262626; stroke-width: 0.8"/>
      </g>
     </g>
     <g id="text_8">
      <!-- 0.7 -->
      <g style="fill: #262626" transform="translate(306.432202 130.4591) scale(0.0704 -0.0704)">
       <defs>
        <path id="ArialMT-37" d="M 303 3981 
L 303 4522 
L 3269 4522 
L 3269 4084 
Q 2831 3619 2401 2847 
Q 1972 2075 1738 1259 
Q 1569 684 1522 0 
L 944 0 
Q 953 541 1156 1306 
Q 1359 2072 1739 2783 
Q 2119 3494 2547 3981 
L 303 3981 
z
" transform="scale(0.015625)"/>
       </defs>
       <use xlink:href="#ArialMT-30"/>
       <use xlink:href="#ArialMT-2e" transform="translate(55.615234 0)"/>
       <use xlink:href="#ArialMT-37" transform="translate(83.398438 0)"/>
      </g>
     </g>
    </g>
    <g id="xtick_9">
     <g id="line2d_9">
      <g>
       <use xlink:href="#m1c1482e54a" x="354.07246" y="118.08" style="fill: #262626; stroke: #262626; stroke-width: 0.8"/>
      </g>
     </g>
     <g id="text_9">
      <!-- 0.8 -->
      <g style="fill: #262626" transform="translate(349.17966 130.4591) scale(0.0704 -0.0704)">
       <defs>
        <path id="ArialMT-38" d="M 1131 2484 
Q 781 2613 612 2850 
Q 444 3088 444 3419 
Q 444 3919 803 4259 
Q 1163 4600 1759 4600 
Q 2359 4600 2725 4251 
Q 3091 3903 3091 3403 
Q 3091 3084 2923 2848 
Q 2756 2613 2416 2484 
Q 2838 2347 3058 2040 
Q 3278 1734 3278 1309 
Q 3278 722 2862 322 
Q 2447 -78 1769 -78 
Q 1091 -78 675 323 
Q 259 725 259 1325 
Q 259 1772 486 2073 
Q 713 2375 1131 2484 
z
M 1019 3438 
Q 1019 3113 1228 2906 
Q 1438 2700 1772 2700 
Q 2097 2700 2305 2904 
Q 2513 3109 2513 3406 
Q 2513 3716 2298 3927 
Q 2084 4138 1766 4138 
Q 1444 4138 1231 3931 
Q 1019 3725 1019 3438 
z
M 838 1322 
Q 838 1081 952 856 
Q 1066 631 1291 507 
Q 1516 384 1775 384 
Q 2178 384 2440 643 
Q 2703 903 2703 1303 
Q 2703 1709 2433 1975 
Q 2163 2241 1756 2241 
Q 1359 2241 1098 1978 
Q 838 1716 838 1322 
z
" transform="scale(0.015625)"/>
       </defs>
       <use xlink:href="#ArialMT-30"/>
       <use xlink:href="#ArialMT-2e" transform="translate(55.615234 0)"/>
       <use xlink:href="#ArialMT-38" transform="translate(83.398438 0)"/>
      </g>
     </g>
    </g>
    <g id="xtick_10">
     <g id="line2d_10">
      <g>
       <use xlink:href="#m1c1482e54a" x="396.819917" y="118.08" style="fill: #262626; stroke: #262626; stroke-width: 0.8"/>
      </g>
     </g>
     <g id="text_10">
      <!-- 0.9 -->
      <g style="fill: #262626" transform="translate(391.927117 130.4591) scale(0.0704 -0.0704)">
       <defs>
        <path id="ArialMT-39" d="M 350 1059 
L 891 1109 
Q 959 728 1153 556 
Q 1347 384 1650 384 
Q 1909 384 2104 503 
Q 2300 622 2425 820 
Q 2550 1019 2634 1356 
Q 2719 1694 2719 2044 
Q 2719 2081 2716 2156 
Q 2547 1888 2255 1720 
Q 1963 1553 1622 1553 
Q 1053 1553 659 1965 
Q 266 2378 266 3053 
Q 266 3750 677 4175 
Q 1088 4600 1706 4600 
Q 2153 4600 2523 4359 
Q 2894 4119 3086 3673 
Q 3278 3228 3278 2384 
Q 3278 1506 3087 986 
Q 2897 466 2520 194 
Q 2144 -78 1638 -78 
Q 1100 -78 759 220 
Q 419 519 350 1059 
z
M 2653 3081 
Q 2653 3566 2395 3850 
Q 2138 4134 1775 4134 
Q 1400 4134 1122 3828 
Q 844 3522 844 3034 
Q 844 2597 1108 2323 
Q 1372 2050 1759 2050 
Q 2150 2050 2401 2323 
Q 2653 2597 2653 3081 
z
" transform="scale(0.015625)"/>
       </defs>
       <use xlink:href="#ArialMT-30"/>
       <use xlink:href="#ArialMT-2e" transform="translate(55.615234 0)"/>
       <use xlink:href="#ArialMT-39" transform="translate(83.398438 0)"/>
      </g>
     </g>
    </g>
    <g id="xtick_11">
     <g id="line2d_11">
      <g>
       <use xlink:href="#m1c1482e54a" x="439.567375" y="118.08" style="fill: #262626; stroke: #262626; stroke-width: 0.8"/>
      </g>
     </g>
     <g id="text_11">
      <!-- 1.0 -->
      <g style="fill: #262626" transform="translate(434.674575 130.4591) scale(0.0704 -0.0704)">
       <use xlink:href="#ArialMT-31"/>
       <use xlink:href="#ArialMT-2e" transform="translate(55.615234 0)"/>
       <use xlink:href="#ArialMT-30" transform="translate(83.398438 0)"/>
      </g>
     </g>
    </g>
    <g id="xtick_12">
     <g id="line2d_12">
      <g>
       <use xlink:href="#m1c1482e54a" x="482.314832" y="118.08" style="fill: #262626; stroke: #262626; stroke-width: 0.8"/>
      </g>
     </g>
     <g id="text_12">
      <!-- 1.1 -->
      <g style="fill: #262626" transform="translate(477.422032 130.4591) scale(0.0704 -0.0704)">
       <use xlink:href="#ArialMT-31"/>
       <use xlink:href="#ArialMT-2e" transform="translate(55.615234 0)"/>
       <use xlink:href="#ArialMT-31" transform="translate(83.398438 0)"/>
      </g>
     </g>
    </g>
    <g id="xtick_13">
     <g id="line2d_13">
      <g>
       <use xlink:href="#m1c1482e54a" x="525.06229" y="118.08" style="fill: #262626; stroke: #262626; stroke-width: 0.8"/>
      </g>
     </g>
     <g id="text_13">
      <!-- 1.2 -->
      <g style="fill: #262626" transform="translate(520.16949 130.4591) scale(0.0704 -0.0704)">
       <use xlink:href="#ArialMT-31"/>
       <use xlink:href="#ArialMT-2e" transform="translate(55.615234 0)"/>
       <use xlink:href="#ArialMT-32" transform="translate(83.398438 0)"/>
      </g>
     </g>
    </g>
    <g id="xtick_14">
     <g id="line2d_14">
      <g>
       <use xlink:href="#m1c1482e54a" x="567.809747" y="118.08" style="fill: #262626; stroke: #262626; stroke-width: 0.8"/>
      </g>
     </g>
     <g id="text_14">
      <!-- 1.3 -->
      <g style="fill: #262626" transform="translate(562.916947 130.4591) scale(0.0704 -0.0704)">
       <use xlink:href="#ArialMT-31"/>
       <use xlink:href="#ArialMT-2e" transform="translate(55.615234 0)"/>
       <use xlink:href="#ArialMT-33" transform="translate(83.398438 0)"/>
      </g>
     </g>
    </g>
    <g id="xtick_15">
     <g id="line2d_15">
      <g>
       <use xlink:href="#m1c1482e54a" x="610.557205" y="118.08" style="fill: #262626; stroke: #262626; stroke-width: 0.8"/>
      </g>
     </g>
     <g id="text_15">
      <!-- 1.4 -->
      <g style="fill: #262626" transform="translate(605.664405 130.4591) scale(0.0704 -0.0704)">
       <use xlink:href="#ArialMT-31"/>
       <use xlink:href="#ArialMT-2e" transform="translate(55.615234 0)"/>
       <use xlink:href="#ArialMT-34" transform="translate(83.398438 0)"/>
      </g>
     </g>
    </g>
    <g id="xtick_16">
     <g id="line2d_16">
      <g>
       <use xlink:href="#m1c1482e54a" x="653.304662" y="118.08" style="fill: #262626; stroke: #262626; stroke-width: 0.8"/>
      </g>
     </g>
     <g id="text_16">
      <!-- 1.5 -->
      <g style="fill: #262626" transform="translate(648.411862 130.4591) scale(0.0704 -0.0704)">
       <use xlink:href="#ArialMT-31"/>
       <use xlink:href="#ArialMT-2e" transform="translate(55.615234 0)"/>
       <use xlink:href="#ArialMT-35" transform="translate(83.398438 0)"/>
      </g>
     </g>
    </g>
    <g id="text_17">
     <!-- 1e8 -->
     <g style="fill: #262626" transform="translate(668.665676 139.8974) scale(0.0704 -0.0704)">
      <defs>
       <path id="ArialMT-65" d="M 2694 1069 
L 3275 997 
Q 3138 488 2766 206 
Q 2394 -75 1816 -75 
Q 1088 -75 661 373 
Q 234 822 234 1631 
Q 234 2469 665 2931 
Q 1097 3394 1784 3394 
Q 2450 3394 2872 2941 
Q 3294 2488 3294 1666 
Q 3294 1616 3291 1516 
L 816 1516 
Q 847 969 1125 678 
Q 1403 388 1819 388 
Q 2128 388 2347 550 
Q 2566 713 2694 1069 
z
M 847 1978 
L 2700 1978 
Q 2663 2397 2488 2606 
Q 2219 2931 1791 2931 
Q 1403 2931 1139 2672 
Q 875 2413 847 1978 
z
" transform="scale(0.015625)"/>
      </defs>
      <use xlink:href="#ArialMT-31"/>
      <use xlink:href="#ArialMT-65" transform="translate(55.615234 0)"/>
      <use xlink:href="#ArialMT-38" transform="translate(111.230469 0)"/>
     </g>
    </g>
   </g>
   <g id="patch_7">
    <path d="M 76.213986 118.08 
L 118.961444 118.08 
L 118.961444 7.2 
L 76.213986 7.2 
z
" clip-path="url(#p47704c25be)" style="fill: #d3d3d3; opacity: 0.3; stroke: #000000; stroke-width: 0.5; stroke-linejoin: miter"/>
   </g>
   <g id="patch_8">
    <path d="M 10.810376 151.344 
L 76.213986 118.08 
" style="fill: none; stroke: #ffffff; stroke-width: 0.64; stroke-linejoin: miter"/>
   </g>
   <g id="patch_9">
    <path d="M 265.896091 151.344 
L 118.961444 118.08 
" style="fill: none; stroke: #ffffff; stroke-width: 0.64; stroke-linejoin: miter"/>
   </g>
   <g id="patch_10">
    <path d="M 10.810376 151.344 
L 76.213986 118.08 
L 118.961444 118.08 
L 265.896091 151.344 
L 10.810376 151.344 
" style="fill: #d3d3d3; opacity: 0.3; stroke: #000000; stroke-width: 0.5; stroke-linejoin: miter"/>
   </g>
   <g id="patch_11">
    <path d="M 396.819917 118.08 
L 460.941104 118.08 
L 460.941104 7.2 
L 396.819917 7.2 
z
" clip-path="url(#p47704c25be)" style="fill: #d3d3d3; opacity: 0.3; stroke: #000000; stroke-width: 0.5; stroke-linejoin: miter"/>
   </g>
   <g id="patch_12">
    <path d="M 297.781805 151.344 
L 396.819917 118.08 
" style="fill: none; stroke: #ffffff; stroke-width: 0.64; stroke-linejoin: miter"/>
   </g>
   <g id="patch_13">
    <path d="M 680.410376 151.344 
L 460.941104 118.08 
" style="fill: none; stroke: #ffffff; stroke-width: 0.64; stroke-linejoin: miter"/>
   </g>
   <g id="patch_14">
    <path d="M 297.781805 151.344 
L 396.819917 118.08 
L 460.941104 118.08 
L 680.410376 151.344 
L 297.781805 151.344 
" style="fill: #d3d3d3; opacity: 0.3; stroke: #000000; stroke-width: 0.5; stroke-linejoin: miter"/>
   </g>
   <g id="patch_15">
    <path d="M 260.455528 95.691642 
L 260.455528 73.515642 
L 284.821579 95.691642 
L 284.821579 73.515642 
z
" clip-path="url(#p47704c25be)" style="fill: #777777; stroke: #777777; stroke-width: 0.64; stroke-linejoin: miter"/>
   </g>
   <g id="line2d_17">
    <path d="M 551.506444 73.515625 
L 551.615322 72.535077 
L 551.7242 71.57454 
L 551.833078 70.634015 
L 551.941956 69.713501 
L 552.050833 68.812998 
L 552.159711 67.932506 
L 552.268589 67.072025 
L 552.377467 66.231556 
L 552.486345 65.411097 
L 552.595223 64.61065 
L 552.704101 63.830214 
L 552.812978 63.069789 
L 552.921856 62.329376 
L 553.030734 61.608973 
L 553.139612 60.908582 
L 553.24849 60.228202 
L 553.357368 59.567833 
L 553.466246 58.927475 
L 553.575124 58.307129 
L 553.684001 57.706793 
L 553.792879 57.126469 
L 553.901757 56.566156 
L 554.010635 56.025854 
L 554.119513 55.505564 
L 554.228391 55.005284 
L 554.337269 54.525016 
L 554.446146 54.064759 
L 554.555024 53.624513 
L 554.663902 53.204278 
L 554.77278 52.804055 
L 554.881658 52.423842 
L 554.990536 52.063641 
L 555.099414 51.723451 
L 555.208291 51.403272 
L 555.317169 51.103104 
L 555.426047 50.822948 
L 555.534925 50.562803 
L 555.643803 50.322668 
L 555.752681 50.102546 
L 555.861559 49.902434 
L 555.970436 49.722333 
L 556.079314 49.562244 
L 556.188192 49.422165 
L 556.29707 49.302098 
L 556.405948 49.202042 
L 556.514826 49.121998 
L 556.623704 49.061964 
L 556.732581 49.021942 
L 556.841459 49.001931 
L 556.950337 49.001931 
L 557.059215 49.021942 
L 557.168093 49.061964 
L 557.276971 49.121998 
L 557.385849 49.202042 
L 557.494726 49.302098 
L 557.603604 49.422165 
L 557.712482 49.562244 
L 557.82136 49.722333 
L 557.930238 49.902434 
L 558.039116 50.102546 
L 558.147994 50.322668 
L 558.256872 50.562803 
L 558.365749 50.822948 
L 558.474627 51.103104 
L 558.583505 51.403272 
L 558.692383 51.723451 
L 558.801261 52.063641 
L 558.910139 52.423842 
L 559.019017 52.804055 
L 559.127894 53.204278 
L 559.236772 53.624513 
L 559.34565 54.064759 
L 559.454528 54.525016 
L 559.563406 55.005284 
L 559.672284 55.505564 
L 559.781162 56.025854 
L 559.890039 56.566156 
L 559.998917 57.126469 
L 560.107795 57.706793 
L 560.216673 58.307129 
L 560.325551 58.927475 
L 560.434429 59.567833 
L 560.543307 60.228202 
L 560.652184 60.908582 
L 560.761062 61.608973 
L 560.86994 62.329376 
L 560.978818 63.069789 
L 561.087696 63.830214 
L 561.196574 64.61065 
L 561.305452 65.411097 
L 561.414329 66.231556 
L 561.523207 67.072025 
L 561.632085 67.932506 
L 561.740963 68.812998 
L 561.849841 69.713501 
L 561.958719 70.634015 
L 562.067597 71.57454 
L 562.176474 72.535077 
L 562.285352 73.515625 
" clip-path="url(#p47704c25be)" style="fill: none; stroke: #ffa500; stroke-linecap: round"/>
   </g>
   <g id="line2d_18">
    <path d="M 413.164271 73.515625 
L 413.339481 72.503429 
L 413.514691 71.51189 
L 413.6899 70.541009 
L 413.86511 69.590784 
L 414.04032 68.661217 
L 414.21553 67.752306 
L 414.39074 66.864053 
L 414.56595 65.996456 
L 414.741159 65.149517 
L 414.916369 64.323235 
L 415.091579 63.51761 
L 415.266789 62.732642 
L 415.441999 61.968331 
L 415.617209 61.224677 
L 415.792418 60.50168 
L 415.967628 59.79934 
L 416.142838 59.117657 
L 416.318048 58.456631 
L 416.493258 57.816262 
L 416.668467 57.196551 
L 416.843677 56.597496 
L 417.018887 56.019099 
L 417.194097 55.461358 
L 417.369307 54.924275 
L 417.544517 54.407848 
L 417.719726 53.912079 
L 417.894936 53.436967 
L 418.070146 52.982511 
L 418.245356 52.548713 
L 418.420566 52.135572 
L 418.595776 51.743088 
L 418.770985 51.371261 
L 418.946195 51.020091 
L 419.121405 50.689578 
L 419.296615 50.379722 
L 419.471825 50.090524 
L 419.647034 49.821982 
L 419.822244 49.574097 
L 419.997454 49.34687 
L 420.172664 49.140299 
L 420.347874 48.954385 
L 420.523084 48.789129 
L 420.698293 48.64453 
L 420.873503 48.520587 
L 421.048713 48.417302 
L 421.223923 48.334674 
L 421.399133 48.272703 
L 421.574343 48.231389 
L 421.749552 48.210731 
L 421.924762 48.210731 
L 422.099972 48.231389 
L 422.275182 48.272703 
L 422.450392 48.334674 
L 422.625601 48.417302 
L 422.800811 48.520587 
L 422.976021 48.64453 
L 423.151231 48.789129 
L 423.326441 48.954385 
L 423.501651 49.140299 
L 423.67686 49.34687 
L 423.85207 49.574097 
L 424.02728 49.821982 
L 424.20249 50.090524 
L 424.3777 50.379722 
L 424.55291 50.689578 
L 424.728119 51.020091 
L 424.903329 51.371261 
L 425.078539 51.743088 
L 425.253749 52.135572 
L 425.428959 52.548713 
L 425.604169 52.982511 
L 425.779378 53.436967 
L 425.954588 53.912079 
L 426.129798 54.407848 
L 426.305008 54.924275 
L 426.480218 55.461358 
L 426.655427 56.019099 
L 426.830637 56.597496 
L 427.005847 57.196551 
L 427.181057 57.816262 
L 427.356267 58.456631 
L 427.531477 59.117657 
L 427.706686 59.79934 
L 427.881896 60.50168 
L 428.057106 61.224677 
L 428.232316 61.968331 
L 428.407526 62.732642 
L 428.582736 63.51761 
L 428.757945 64.323235 
L 428.933155 65.149517 
L 429.108365 65.996456 
L 429.283575 66.864053 
L 429.458785 67.752306 
L 429.633994 68.661217 
L 429.809204 69.590784 
L 429.984414 70.541009 
L 430.159624 71.51189 
L 430.334834 72.503429 
L 430.510044 73.515625 
" clip-path="url(#p47704c25be)" style="fill: none; stroke: #ffa500; stroke-linecap: round"/>
   </g>
   <g id="line2d_19">
    <path d="M 399.644302 73.515625 
L 399.71697 72.561973 
L 399.789637 71.627784 
L 399.862305 70.713057 
L 399.934973 69.817793 
L 400.007641 68.941991 
L 400.080309 68.085651 
L 400.152977 67.248773 
L 400.225644 66.431357 
L 400.298312 65.633404 
L 400.37098 64.854913 
L 400.443648 64.095885 
L 400.516316 63.356318 
L 400.588984 62.636214 
L 400.661651 61.935572 
L 400.734319 61.254393 
L 400.806987 60.592675 
L 400.879655 59.95042 
L 400.952323 59.327628 
L 401.02499 58.724297 
L 401.097658 58.140429 
L 401.170326 57.576023 
L 401.242994 57.03108 
L 401.315662 56.505598 
L 401.38833 55.999579 
L 401.460997 55.513022 
L 401.533665 55.045928 
L 401.606333 54.598295 
L 401.679001 54.170125 
L 401.751669 53.761418 
L 401.824337 53.372172 
L 401.897004 53.002389 
L 401.969672 52.652068 
L 402.04234 52.321209 
L 402.115008 52.009813 
L 402.187676 51.717879 
L 402.260344 51.445407 
L 402.333011 51.192398 
L 402.405679 50.95885 
L 402.478347 50.744765 
L 402.551015 50.550143 
L 402.623683 50.374982 
L 402.696351 50.219284 
L 402.769018 50.083048 
L 402.841686 49.966274 
L 402.914354 49.868963 
L 402.987022 49.791114 
L 403.05969 49.732727 
L 403.132357 49.693803 
L 403.205025 49.67434 
L 403.277693 49.67434 
L 403.350361 49.693803 
L 403.423029 49.732727 
L 403.495697 49.791114 
L 403.568364 49.868963 
L 403.641032 49.966274 
L 403.7137 50.083048 
L 403.786368 50.219284 
L 403.859036 50.374982 
L 403.931704 50.550143 
L 404.004371 50.744765 
L 404.077039 50.95885 
L 404.149707 51.192398 
L 404.222375 51.445407 
L 404.295043 51.717879 
L 404.367711 52.009813 
L 404.440378 52.321209 
L 404.513046 52.652068 
L 404.585714 53.002389 
L 404.658382 53.372172 
L 404.73105 53.761418 
L 404.803718 54.170125 
L 404.876385 54.598295 
L 404.949053 55.045928 
L 405.021721 55.513022 
L 405.094389 55.999579 
L 405.167057 56.505598 
L 405.239725 57.03108 
L 405.312392 57.576023 
L 405.38506 58.140429 
L 405.457728 58.724297 
L 405.530396 59.327628 
L 405.603064 59.95042 
L 405.675731 60.592675 
L 405.748399 61.254393 
L 405.821067 61.935572 
L 405.893735 62.636214 
L 405.966403 63.356318 
L 406.039071 64.095885 
L 406.111738 64.854913 
L 406.184406 65.633404 
L 406.257074 66.431357 
L 406.329742 67.248773 
L 406.40241 68.085651 
L 406.475078 68.941991 
L 406.547745 69.817793 
L 406.620413 70.713057 
L 406.693081 71.627784 
L 406.765749 72.561973 
L 406.838417 73.515625 
" clip-path="url(#p47704c25be)" style="fill: none; stroke: #ffa500; stroke-linecap: round"/>
   </g>
   <g id="line2d_20">
    <path d="M 265.071843 73.515625 
L 265.145833 72.560774 
L 265.219823 71.625409 
L 265.293814 70.709532 
L 265.367804 69.813141 
L 265.441794 68.936237 
L 265.515784 68.07882 
L 265.589774 67.24089 
L 265.663765 66.422446 
L 265.737755 65.623489 
L 265.811745 64.844019 
L 265.885735 64.084035 
L 265.959725 63.343538 
L 266.033716 62.622529 
L 266.107706 61.921005 
L 266.181696 61.238969 
L 266.255686 60.576419 
L 266.329676 59.933356 
L 266.403667 59.30978 
L 266.477657 58.705691 
L 266.551647 58.121088 
L 266.625637 57.555972 
L 266.699627 57.010343 
L 266.773617 56.484201 
L 266.847608 55.977545 
L 266.921598 55.490376 
L 266.995588 55.022694 
L 267.069578 54.574499 
L 267.143568 54.14579 
L 267.217559 53.736568 
L 267.291549 53.346833 
L 267.365539 52.976585 
L 267.439529 52.625823 
L 267.513519 52.294548 
L 267.58751 51.98276 
L 267.6615 51.690459 
L 267.73549 51.417644 
L 267.80948 51.164316 
L 267.88347 50.930475 
L 267.957461 50.716121 
L 268.031451 50.521254 
L 268.105441 50.345873 
L 268.179431 50.189979 
L 268.253421 50.053571 
L 268.327412 49.936651 
L 268.401402 49.839217 
L 268.475392 49.76127 
L 268.549382 49.70281 
L 268.623372 49.663836 
L 268.697362 49.64435 
L 268.771353 49.64435 
L 268.845343 49.663836 
L 268.919333 49.70281 
L 268.993323 49.76127 
L 269.067313 49.839217 
L 269.141304 49.936651 
L 269.215294 50.053571 
L 269.289284 50.189979 
L 269.363274 50.345873 
L 269.437264 50.521254 
L 269.511255 50.716121 
L 269.585245 50.930475 
L 269.659235 51.164316 
L 269.733225 51.417644 
L 269.807215 51.690459 
L 269.881206 51.98276 
L 269.955196 52.294548 
L 270.029186 52.625823 
L 270.103176 52.976585 
L 270.177166 53.346833 
L 270.251157 53.736568 
L 270.325147 54.14579 
L 270.399137 54.574499 
L 270.473127 55.022694 
L 270.547117 55.490376 
L 270.621107 55.977545 
L 270.695098 56.484201 
L 270.769088 57.010343 
L 270.843078 57.555972 
L 270.917068 58.121088 
L 270.991058 58.705691 
L 271.065049 59.30978 
L 271.139039 59.933356 
L 271.213029 60.576419 
L 271.287019 61.238969 
L 271.361009 61.921005 
L 271.435 62.622529 
L 271.50899 63.343538 
L 271.58298 64.084035 
L 271.65697 64.844019 
L 271.73096 65.623489 
L 271.804951 66.422446 
L 271.878941 67.24089 
L 271.952931 68.07882 
L 272.026921 68.936237 
L 272.100911 69.813141 
L 272.174902 70.709532 
L 272.248892 71.625409 
L 272.322882 72.560774 
L 272.396872 73.515625 
" clip-path="url(#p47704c25be)" style="fill: none; stroke: #ffa500; stroke-linecap: round"/>
   </g>
   <g id="line2d_21">
    <path d="M 237.811811 73.515625 
L 237.90068 72.548585 
L 237.989549 71.60128 
L 238.078419 70.673711 
L 238.167288 69.765878 
L 238.256157 68.87778 
L 238.345026 68.009418 
L 238.433896 67.160791 
L 238.522765 66.331899 
L 238.611634 65.522743 
L 238.700504 64.733323 
L 238.789373 63.963638 
L 238.878242 63.213689 
L 238.967112 62.483475 
L 239.055981 61.772997 
L 239.14485 61.082254 
L 239.233719 60.411247 
L 239.322589 59.759975 
L 239.411458 59.128438 
L 239.500327 58.516638 
L 239.589197 57.924572 
L 239.678066 57.352243 
L 239.766935 56.799648 
L 239.855804 56.26679 
L 239.944674 55.753666 
L 240.033543 55.260279 
L 240.122412 54.786626 
L 240.211282 54.33271 
L 240.300151 53.898528 
L 240.38902 53.484083 
L 240.477889 53.089373 
L 240.566759 52.714398 
L 240.655628 52.359159 
L 240.744497 52.023655 
L 240.833367 51.707887 
L 240.922236 51.411854 
L 241.011105 51.135557 
L 241.099974 50.878996 
L 241.188844 50.642169 
L 241.277713 50.425079 
L 241.366582 50.227724 
L 241.455452 50.050104 
L 241.544321 49.89222 
L 241.63319 49.754071 
L 241.722059 49.635658 
L 241.810929 49.536981 
L 241.899798 49.458039 
L 241.988667 49.398832 
L 242.077537 49.359361 
L 242.166406 49.339626 
L 242.255275 49.339626 
L 242.344144 49.359361 
L 242.433014 49.398832 
L 242.521883 49.458039 
L 242.610752 49.536981 
L 242.699622 49.635658 
L 242.788491 49.754071 
L 242.87736 49.89222 
L 242.966229 50.050104 
L 243.055099 50.227724 
L 243.143968 50.425079 
L 243.232837 50.642169 
L 243.321707 50.878996 
L 243.410576 51.135557 
L 243.499445 51.411854 
L 243.588314 51.707887 
L 243.677184 52.023655 
L 243.766053 52.359159 
L 243.854922 52.714398 
L 243.943792 53.089373 
L 244.032661 53.484083 
L 244.12153 53.898528 
L 244.210399 54.33271 
L 244.299269 54.786626 
L 244.388138 55.260279 
L 244.477007 55.753666 
L 244.565877 56.26679 
L 244.654746 56.799648 
L 244.743615 57.352243 
L 244.832484 57.924572 
L 244.921354 58.516638 
L 245.010223 59.128438 
L 245.099092 59.759975 
L 245.187962 60.411247 
L 245.276831 61.082254 
L 245.3657 61.772997 
L 245.454569 62.483475 
L 245.543439 63.213689 
L 245.632308 63.963638 
L 245.721177 64.733323 
L 245.810047 65.522743 
L 245.898916 66.331899 
L 245.987785 67.160791 
L 246.076654 68.009418 
L 246.165524 68.87778 
L 246.254393 69.765878 
L 246.343262 70.673711 
L 246.432132 71.60128 
L 246.521001 72.548585 
L 246.60987 73.515625 
" clip-path="url(#p47704c25be)" style="fill: none; stroke: #ffa500; stroke-linecap: round"/>
   </g>
   <g id="line2d_22">
    <path d="M 109.37554 73.515625 
L 109.576973 72.494151 
L 109.778407 71.493524 
L 109.97984 70.513743 
L 110.181274 69.554808 
L 110.382707 68.61672 
L 110.58414 67.699478 
L 110.785574 66.803083 
L 110.987007 65.927534 
L 111.18844 65.072832 
L 111.389874 64.238975 
L 111.591307 63.425966 
L 111.79274 62.633802 
L 111.994174 61.862486 
L 112.195607 61.112015 
L 112.397041 60.382391 
L 112.598474 59.673613 
L 112.799907 58.985682 
L 113.001341 58.318597 
L 113.202774 57.672359 
L 113.404207 57.046967 
L 113.605641 56.442421 
L 113.807074 55.858722 
L 114.008507 55.295869 
L 114.209941 54.753862 
L 114.411374 54.232702 
L 114.612807 53.732389 
L 114.814241 53.252921 
L 115.015674 52.7943 
L 115.217108 52.356526 
L 115.418541 51.939598 
L 115.619974 51.543516 
L 115.821408 51.168281 
L 116.022841 50.813892 
L 116.224274 50.48035 
L 116.425708 50.167654 
L 116.627141 49.875804 
L 116.828574 49.604801 
L 117.030008 49.354644 
L 117.231441 49.125334 
L 117.432875 48.91687 
L 117.634308 48.729252 
L 117.835741 48.562481 
L 118.037175 48.416556 
L 118.238608 48.291477 
L 118.440041 48.187245 
L 118.641475 48.10386 
L 118.842908 48.041321 
L 119.044341 47.999628 
L 119.245775 47.978781 
L 119.447208 47.978781 
L 119.648641 47.999628 
L 119.850075 48.041321 
L 120.051508 48.10386 
L 120.252942 48.187245 
L 120.454375 48.291477 
L 120.655808 48.416556 
L 120.857242 48.562481 
L 121.058675 48.729252 
L 121.260108 48.91687 
L 121.461542 49.125334 
L 121.662975 49.354644 
L 121.864408 49.604801 
L 122.065842 49.875804 
L 122.267275 50.167654 
L 122.468709 50.48035 
L 122.670142 50.813892 
L 122.871575 51.168281 
L 123.073009 51.543516 
L 123.274442 51.939598 
L 123.475875 52.356526 
L 123.677309 52.7943 
L 123.878742 53.252921 
L 124.080175 53.732389 
L 124.281609 54.232702 
L 124.483042 54.753862 
L 124.684475 55.295869 
L 124.885909 55.858722 
L 125.087342 56.442421 
L 125.288776 57.046967 
L 125.490209 57.672359 
L 125.691642 58.318597 
L 125.893076 58.985682 
L 126.094509 59.673613 
L 126.295942 60.382391 
L 126.497376 61.112015 
L 126.698809 61.862486 
L 126.900242 62.633802 
L 127.101676 63.425966 
L 127.303109 64.238975 
L 127.504543 65.072832 
L 127.705976 65.927534 
L 127.907409 66.803083 
L 128.108843 67.699478 
L 128.310276 68.61672 
L 128.511709 69.554808 
L 128.713143 70.513743 
L 128.914576 71.493524 
L 129.116009 72.494151 
L 129.317443 73.515625 
" clip-path="url(#p47704c25be)" style="fill: none; stroke: #ffa500; stroke-linecap: round"/>
   </g>
   <g id="line2d_23">
    <path d="M 14.282577 73.515625 
L 15.193963 72.393737 
L 16.105348 71.294744 
L 17.016734 70.218648 
L 17.92812 69.165447 
L 18.839506 68.135141 
L 19.750891 67.127732 
L 20.662277 66.143218 
L 21.573663 65.181599 
L 22.485049 64.242877 
L 23.396434 63.32705 
L 24.30782 62.434119 
L 25.219206 61.564083 
L 26.130591 60.716943 
L 27.041977 59.892699 
L 27.953363 59.09135 
L 28.864749 58.312897 
L 29.776134 57.55734 
L 30.68752 56.824679 
L 31.598906 56.114913 
L 32.510291 55.428043 
L 33.421677 54.764068 
L 34.333063 54.122989 
L 35.244449 53.504806 
L 36.155834 52.909518 
L 37.06722 52.337127 
L 37.978606 51.78763 
L 38.889992 51.26103 
L 39.801377 50.757325 
L 40.712763 50.276516 
L 41.624149 49.818602 
L 42.535534 49.383585 
L 43.44692 48.971463 
L 44.358306 48.582236 
L 45.269692 48.215905 
L 46.181077 47.87247 
L 47.092463 47.551931 
L 48.003849 47.254287 
L 48.915235 46.979539 
L 49.82662 46.727687 
L 50.738006 46.49873 
L 51.649392 46.292669 
L 52.560777 46.109503 
L 53.472163 45.949234 
L 54.383549 45.81186 
L 55.294935 45.697381 
L 56.20632 45.605799 
L 57.117706 45.537112 
L 58.029092 45.49132 
L 58.940478 45.468425 
L 59.851863 45.468425 
L 60.763249 45.49132 
L 61.674635 45.537112 
L 62.58602 45.605799 
L 63.497406 45.697381 
L 64.408792 45.81186 
L 65.320178 45.949234 
L 66.231563 46.109503 
L 67.142949 46.292669 
L 68.054335 46.49873 
L 68.96572 46.727687 
L 69.877106 46.979539 
L 70.788492 47.254287 
L 71.699878 47.551931 
L 72.611263 47.87247 
L 73.522649 48.215905 
L 74.434035 48.582236 
L 75.345421 48.971463 
L 76.256806 49.383585 
L 77.168192 49.818602 
L 78.079578 50.276516 
L 78.990963 50.757325 
L 79.902349 51.26103 
L 80.813735 51.78763 
L 81.725121 52.337127 
L 82.636506 52.909518 
L 83.547892 53.504806 
L 84.459278 54.122989 
L 85.370664 54.764068 
L 86.282049 55.428043 
L 87.193435 56.114913 
L 88.104821 56.824679 
L 89.016206 57.55734 
L 89.927592 58.312897 
L 90.838978 59.09135 
L 91.750364 59.892699 
L 92.661749 60.716943 
L 93.573135 61.564083 
L 94.484521 62.434119 
L 95.395906 63.32705 
L 96.307292 64.242877 
L 97.218678 65.181599 
L 98.130064 66.143218 
L 99.041449 67.127732 
L 99.952835 68.135141 
L 100.864221 69.165447 
L 101.775607 70.218648 
L 102.686992 71.294744 
L 103.598378 72.393737 
L 104.509764 73.515625 
" clip-path="url(#p47704c25be)" style="fill: none; stroke: #ffa500; stroke-linecap: round"/>
   </g>
   <g id="patch_16">
    <path d="M 10.810376 118.08 
L 680.410376 118.08 
" style="fill: none; stroke: #262626; stroke-width: 0.8; stroke-linejoin: miter; stroke-linecap: square"/>
   </g>
  </g>
  <g id="axes_2">
   <g id="patch_17">
    <path d="M 10.810376 262.224 
L 265.896091 262.224 
L 265.896091 151.344 
L 10.810376 151.344 
L 10.810376 262.224 
z
" style="fill: none"/>
   </g>
   <g id="patch_18">
    <path d="M 1110.229805 240.048 
L 1110.229805 217.872 
L 1255.628662 240.048 
L 1255.628662 217.872 
z
" clip-path="url(#p5ee39135b1)" style="fill: #777777; stroke: #777777; stroke-width: 0.64; stroke-linejoin: miter"/>
   </g>
   <g id="patch_19">
    <path d="M -371.818195 240.048 
L 1110.229805 240.048 
L 1110.229805 217.872 
L -371.818195 217.872 
z
" clip-path="url(#p5ee39135b1)" style="fill: #ebeaea"/>
   </g>
   <g id="patch_20">
    <path d="M 1255.628662 240.048 
L 3608.562121 240.048 
L 3608.562121 217.872 
L 1255.628662 217.872 
z
" clip-path="url(#p5ee39135b1)" style="fill: #ebeaea"/>
   </g>
   <g id="patch_21">
    <path d="M -1 240.048 
L 688.610376 240.048 
M 688.610376 217.872 
L -1 217.872 
" clip-path="url(#p5ee39135b1)" style="fill: none; stroke: #000000; stroke-width: 0.7; stroke-linejoin: miter"/>
   </g>
   <g id="patch_22">
    <path clip-path="url(#p5ee39135b1)" style="fill: none; stroke: #000000; stroke-width: 0.7; stroke-linejoin: miter"/>
   </g>
   <g id="matplotlib.axis_2">
    <g id="xtick_17">
     <g id="text_18">
      <!-- 1.6 -->
      <g style="fill: #262626" transform="translate(31.426148 274.6031) scale(0.0704 -0.0704)">
       <use xlink:href="#ArialMT-31"/>
       <use xlink:href="#ArialMT-2e" transform="translate(55.615234 0)"/>
       <use xlink:href="#ArialMT-36" transform="translate(83.398438 0)"/>
      </g>
     </g>
    </g>
    <g id="xtick_18">
     <g id="text_19">
      <!-- 1.8 -->
      <g style="fill: #262626" transform="translate(82.443291 274.6031) scale(0.0704 -0.0704)">
       <use xlink:href="#ArialMT-31"/>
       <use xlink:href="#ArialMT-2e" transform="translate(55.615234 0)"/>
       <use xlink:href="#ArialMT-38" transform="translate(83.398438 0)"/>
      </g>
     </g>
    </g>
    <g id="xtick_19">
     <g id="text_20">
      <!-- 2.0 -->
      <g style="fill: #262626" transform="translate(133.460433 274.6031) scale(0.0704 -0.0704)">
       <use xlink:href="#ArialMT-32"/>
       <use xlink:href="#ArialMT-2e" transform="translate(55.615234 0)"/>
       <use xlink:href="#ArialMT-30" transform="translate(83.398438 0)"/>
      </g>
     </g>
    </g>
    <g id="xtick_20">
     <g id="text_21">
      <!-- 2.2 -->
      <g style="fill: #262626" transform="translate(184.477576 274.6031) scale(0.0704 -0.0704)">
       <use xlink:href="#ArialMT-32"/>
       <use xlink:href="#ArialMT-2e" transform="translate(55.615234 0)"/>
       <use xlink:href="#ArialMT-32" transform="translate(83.398438 0)"/>
      </g>
     </g>
    </g>
    <g id="xtick_21">
     <g id="text_22">
      <!-- 2.4 -->
      <g style="fill: #262626" transform="translate(235.494719 274.6031) scale(0.0704 -0.0704)">
       <use xlink:href="#ArialMT-32"/>
       <use xlink:href="#ArialMT-2e" transform="translate(55.615234 0)"/>
       <use xlink:href="#ArialMT-34" transform="translate(83.398438 0)"/>
      </g>
     </g>
    </g>
    <g id="xtick_22"/>
    <g id="xtick_23"/>
    <g id="xtick_24"/>
    <g id="xtick_25"/>
    <g id="xtick_26"/>
    <g id="xtick_27"/>
    <g id="xtick_28"/>
    <g id="xtick_29"/>
    <g id="xtick_30"/>
    <g id="xtick_31"/>
    <g id="xtick_32"/>
    <g id="xtick_33"/>
    <g id="xtick_34"/>
    <g id="xtick_35"/>
    <g id="xtick_36"/>
    <g id="xtick_37"/>
    <g id="xtick_38"/>
    <g id="xtick_39"/>
    <g id="xtick_40"/>
    <g id="xtick_41"/>
    <g id="xtick_42"/>
    <g id="xtick_43"/>
    <g id="xtick_44"/>
    <g id="xtick_45"/>
    <g id="xtick_46"/>
    <g id="xtick_47"/>
    <g id="xtick_48"/>
    <g id="xtick_49"/>
    <g id="xtick_50"/>
    <g id="xtick_51"/>
    <g id="xtick_52"/>
    <g id="xtick_53"/>
    <g id="xtick_54"/>
    <g id="xtick_55"/>
    <g id="xtick_56"/>
    <g id="xtick_57"/>
    <g id="xtick_58"/>
    <g id="xtick_59"/>
    <g id="xtick_60"/>
    <g id="xtick_61"/>
    <g id="xtick_62"/>
    <g id="xtick_63"/>
    <g id="xtick_64"/>
    <g id="xtick_65"/>
    <g id="xtick_66"/>
    <g id="xtick_67"/>
    <g id="text_23">
     <!-- 1e7 -->
     <g style="fill: #262626" transform="translate(254.151391 284.0414) scale(0.0704 -0.0704)">
      <use xlink:href="#ArialMT-31"/>
      <use xlink:href="#ArialMT-65" transform="translate(55.615234 0)"/>
      <use xlink:href="#ArialMT-37" transform="translate(111.230469 0)"/>
     </g>
    </g>
   </g>
   <g id="matplotlib.axis_3">
    <g id="ytick_1"/>
    <g id="ytick_2"/>
    <g id="ytick_3"/>
    <g id="ytick_4"/>
    <g id="ytick_5"/>
    <g id="ytick_6"/>
    <g id="ytick_7"/>
    <g id="ytick_8"/>
    <g id="ytick_9"/>
    <g id="ytick_10"/>
    <g id="ytick_11"/>
    <g id="ytick_12"/>
    <g id="ytick_13"/>
    <g id="ytick_14"/>
    <g id="ytick_15"/>
    <g id="ytick_16"/>
    <g id="ytick_17"/>
    <g id="ytick_18"/>
    <g id="ytick_19"/>
    <g id="ytick_20"/>
    <g id="ytick_21"/>
    <g id="ytick_22"/>
    <g id="ytick_23"/>
    <g id="ytick_24"/>
   </g>
   <g id="patch_23">
    <path d="M 10.810376 262.224 
L 265.896091 262.224 
L 265.896091 151.344 
L 10.810376 151.344 
L 10.810376 262.224 
z
" clip-path="url(#p5ee39135b1)" style="fill: none"/>
   </g>
   <g id="line2d_24">
    <path clip-path="url(#p5ee39135b1)" style="fill: none; stroke: #ffa500; stroke-linecap: round"/>
   </g>
   <g id="line2d_25">
    <path clip-path="url(#p5ee39135b1)" style="fill: none; stroke: #ffa500; stroke-linecap: round"/>
   </g>
   <g id="line2d_26">
    <path clip-path="url(#p5ee39135b1)" style="fill: none; stroke: #ffa500; stroke-linecap: round"/>
   </g>
   <g id="line2d_27">
    <path clip-path="url(#p5ee39135b1)" style="fill: none; stroke: #ffa500; stroke-linecap: round"/>
   </g>
   <g id="line2d_28">
    <path clip-path="url(#p5ee39135b1)" style="fill: none; stroke: #ffa500; stroke-linecap: round"/>
   </g>
   <g id="line2d_29">
    <path d="M 208.694395 217.871907 
L 209.896402 216.850433 
L 211.09841 215.849806 
L 212.300418 214.870025 
L 213.502425 213.91109 
L 214.704433 212.973002 
L 215.906441 212.05576 
L 217.108448 211.159365 
L 218.310456 210.283816 
L 219.512464 209.429114 
L 220.714471 208.595258 
L 221.916479 207.782248 
L 223.118487 206.990085 
L 224.320495 206.218768 
L 225.522502 205.468297 
L 226.72451 204.738673 
L 227.926518 204.029895 
L 229.128525 203.341964 
L 230.330533 202.674879 
L 231.532541 202.028641 
L 232.734548 201.403249 
L 233.936556 200.798703 
L 235.138564 200.215004 
L 236.340571 199.652151 
L 237.542579 199.110144 
L 238.744587 198.588984 
L 239.946594 198.088671 
L 241.148602 197.609203 
L 242.35061 197.150583 
L 243.552618 196.712808 
L 244.754625 196.29588 
L 245.956633 195.899798 
L 247.158641 195.524563 
L 248.360648 195.170174 
L 249.562656 194.836632 
L 250.764664 194.523936 
L 251.966671 194.232086 
L 253.168679 193.961083 
L 254.370687 193.710926 
L 255.572694 193.481616 
L 256.774702 193.273152 
L 257.97671 193.085534 
L 259.178717 192.918763 
L 260.380725 192.772838 
L 261.582733 192.64776 
L 262.784741 192.543528 
L 263.986748 192.460142 
L 265.188756 192.397603 
L 266.390764 192.35591 
L 267.592771 192.335064 
L 268.794779 192.335064 
L 269.996787 192.35591 
L 271.198794 192.397603 
L 272.400802 192.460142 
L 273.60281 192.543528 
L 274.804817 192.64776 
L 276.006825 192.772838 
L 277.208833 192.918763 
L 278.41084 193.085534 
L 279.612848 193.273152 
L 280.814856 193.481616 
L 282.016864 193.710926 
L 283.218871 193.961083 
L 284.420879 194.232086 
L 285.622887 194.523936 
L 286.824894 194.836632 
L 288.026902 195.170174 
L 289.22891 195.524563 
L 290.430917 195.899798 
L 291.632925 196.29588 
L 292.834933 196.712808 
L 294.03694 197.150583 
L 295.238948 197.609203 
L 296.440956 198.088671 
L 297.642963 198.588984 
L 298.844971 199.110144 
L 300.046979 199.652151 
L 301.248987 200.215004 
L 302.450994 200.798703 
L 303.653002 201.403249 
L 304.85501 202.028641 
L 306.057017 202.674879 
L 307.259025 203.341964 
L 308.461033 204.029895 
L 309.66304 204.738673 
L 310.865048 205.468297 
L 312.067056 206.218768 
L 313.269063 206.990085 
L 314.471071 207.782248 
L 315.673079 208.595258 
L 316.875087 209.429114 
L 318.077094 210.283816 
L 319.279102 211.159365 
L 320.48111 212.05576 
L 321.683117 212.973002 
L 322.885125 213.91109 
L 324.087133 214.870025 
L 325.28914 215.849806 
L 326.491148 216.850433 
L 327.693156 217.871907 
" clip-path="url(#p5ee39135b1)" style="fill: none; stroke: #ffa500; stroke-linecap: round"/>
   </g>
   <g id="line2d_30">
    <path d="M -1 192.858434 
L 0.188922 192.938518 
L 5.627408 193.327745 
L 11.065895 193.739867 
L 16.504382 194.174885 
L 21.942869 194.632798 
L 27.381355 195.113607 
L 32.819842 195.617312 
L 38.258329 196.143913 
L 43.696815 196.693409 
L 49.135302 197.265801 
L 54.573789 197.861088 
L 60.012275 198.479271 
L 65.450762 199.12035 
L 70.889249 199.784325 
L 76.327735 200.471195 
L 81.766222 201.180961 
L 87.204709 201.913622 
L 92.643195 202.66918 
L 98.081682 203.447632 
L 103.520169 204.248981 
L 108.958656 205.073225 
L 114.397142 205.920365 
L 119.835629 206.790401 
L 125.274116 207.683332 
L 130.712602 208.599159 
L 136.151089 209.537882 
L 141.589576 210.4995 
L 147.028062 211.484014 
L 152.466549 212.491424 
L 157.905036 213.521729 
L 163.343522 214.57493 
L 168.782009 215.651026 
L 174.220496 216.750019 
L 179.658983 217.871907 
" clip-path="url(#p5ee39135b1)" style="fill: none; stroke: #ffa500; stroke-linecap: round"/>
   </g>
   <g id="patch_24">
    <path d="M 10.810376 262.224 
L 10.810376 151.344 
" style="fill: none; stroke: #262626; stroke-width: 0.8; stroke-linejoin: miter; stroke-linecap: square"/>
   </g>
   <g id="patch_25">
    <path d="M 265.896091 262.224 
L 265.896091 151.344 
" style="fill: none; stroke: #262626; stroke-width: 0.8; stroke-linejoin: miter; stroke-linecap: square"/>
   </g>
   <g id="patch_26">
    <path d="M 10.810376 262.224 
L 265.896091 262.224 
" style="fill: none; stroke: #262626; stroke-width: 0.8; stroke-linejoin: miter; stroke-linecap: square"/>
   </g>
   <g id="patch_27">
    <path d="M 10.810376 151.344 
L 265.896091 151.344 
" style="fill: none; stroke: #262626; stroke-width: 0.8; stroke-linejoin: miter; stroke-linecap: square"/>
   </g>
  </g>
  <g id="axes_3">
   <g id="patch_28">
    <path d="M 297.781805 262.224 
L 680.410376 262.224 
L 680.410376 151.344 
L 297.781805 151.344 
L 297.781805 262.224 
z
" style="fill: none"/>
   </g>
   <g id="patch_29">
    <path d="M -515.941624 240.048 
L -515.941624 217.872 
L -370.542767 240.048 
L -370.542767 217.872 
z
" clip-path="url(#pb02f4cb78a)" style="fill: #777777; stroke: #777777; stroke-width: 0.64; stroke-linejoin: miter"/>
   </g>
   <g id="patch_30">
    <path d="M -1997.989624 240.048 
L -515.941624 240.048 
L -515.941624 217.872 
L -1997.989624 217.872 
z
" clip-path="url(#pb02f4cb78a)" style="fill: #ebeaea"/>
   </g>
   <g id="patch_31">
    <path d="M -370.542767 240.048 
L 1982.390692 240.048 
L 1982.390692 217.872 
L -370.542767 217.872 
z
" clip-path="url(#pb02f4cb78a)" style="fill: #ebeaea"/>
   </g>
   <g id="patch_32">
    <path clip-path="url(#pb02f4cb78a)" style="fill: none; stroke: #000000; stroke-width: 0.7; stroke-linejoin: miter"/>
   </g>
   <g id="patch_33">
    <path d="M -1 240.048 
L 688.610376 240.048 
M 688.610376 217.872 
L -1 217.872 
" clip-path="url(#pb02f4cb78a)" style="fill: none; stroke: #000000; stroke-width: 0.7; stroke-linejoin: miter"/>
   </g>
   <g id="matplotlib.axis_4">
    <g id="xtick_68">
     <g id="text_24">
      <!-- 0.90 -->
      <g style="fill: #262626" transform="translate(290.931555 274.6031) scale(0.0704 -0.0704)">
       <use xlink:href="#ArialMT-30"/>
       <use xlink:href="#ArialMT-2e" transform="translate(55.615234 0)"/>
       <use xlink:href="#ArialMT-39" transform="translate(83.398438 0)"/>
       <use xlink:href="#ArialMT-30" transform="translate(139.013672 0)"/>
      </g>
     </g>
    </g>
    <g id="xtick_69">
     <g id="text_25">
      <!-- 0.92 -->
      <g style="fill: #262626" transform="translate(341.948698 274.6031) scale(0.0704 -0.0704)">
       <use xlink:href="#ArialMT-30"/>
       <use xlink:href="#ArialMT-2e" transform="translate(55.615234 0)"/>
       <use xlink:href="#ArialMT-39" transform="translate(83.398438 0)"/>
       <use xlink:href="#ArialMT-32" transform="translate(139.013672 0)"/>
      </g>
     </g>
    </g>
    <g id="xtick_70">
     <g id="text_26">
      <!-- 0.94 -->
      <g style="fill: #262626" transform="translate(392.965841 274.6031) scale(0.0704 -0.0704)">
       <use xlink:href="#ArialMT-30"/>
       <use xlink:href="#ArialMT-2e" transform="translate(55.615234 0)"/>
       <use xlink:href="#ArialMT-39" transform="translate(83.398438 0)"/>
       <use xlink:href="#ArialMT-34" transform="translate(139.013672 0)"/>
      </g>
     </g>
    </g>
    <g id="xtick_71">
     <g id="text_27">
      <!-- 0.96 -->
      <g style="fill: #262626" transform="translate(443.982983 274.6031) scale(0.0704 -0.0704)">
       <use xlink:href="#ArialMT-30"/>
       <use xlink:href="#ArialMT-2e" transform="translate(55.615234 0)"/>
       <use xlink:href="#ArialMT-39" transform="translate(83.398438 0)"/>
       <use xlink:href="#ArialMT-36" transform="translate(139.013672 0)"/>
      </g>
     </g>
    </g>
    <g id="xtick_72">
     <g id="text_28">
      <!-- 0.98 -->
      <g style="fill: #262626" transform="translate(495.000126 274.6031) scale(0.0704 -0.0704)">
       <use xlink:href="#ArialMT-30"/>
       <use xlink:href="#ArialMT-2e" transform="translate(55.615234 0)"/>
       <use xlink:href="#ArialMT-39" transform="translate(83.398438 0)"/>
       <use xlink:href="#ArialMT-38" transform="translate(139.013672 0)"/>
      </g>
     </g>
    </g>
    <g id="xtick_73">
     <g id="text_29">
      <!-- 1.00 -->
      <g style="fill: #262626" transform="translate(546.017269 274.6031) scale(0.0704 -0.0704)">
       <use xlink:href="#ArialMT-31"/>
       <use xlink:href="#ArialMT-2e" transform="translate(55.615234 0)"/>
       <use xlink:href="#ArialMT-30" transform="translate(83.398438 0)"/>
       <use xlink:href="#ArialMT-30" transform="translate(139.013672 0)"/>
      </g>
     </g>
    </g>
    <g id="xtick_74">
     <g id="text_30">
      <!-- 1.02 -->
      <g style="fill: #262626" transform="translate(597.034412 274.6031) scale(0.0704 -0.0704)">
       <use xlink:href="#ArialMT-31"/>
       <use xlink:href="#ArialMT-2e" transform="translate(55.615234 0)"/>
       <use xlink:href="#ArialMT-30" transform="translate(83.398438 0)"/>
       <use xlink:href="#ArialMT-32" transform="translate(139.013672 0)"/>
      </g>
     </g>
    </g>
    <g id="xtick_75">
     <g id="text_31">
      <!-- 1.04 -->
      <g style="fill: #262626" transform="translate(648.051555 274.6031) scale(0.0704 -0.0704)">
       <use xlink:href="#ArialMT-31"/>
       <use xlink:href="#ArialMT-2e" transform="translate(55.615234 0)"/>
       <use xlink:href="#ArialMT-30" transform="translate(83.398438 0)"/>
       <use xlink:href="#ArialMT-34" transform="translate(139.013672 0)"/>
      </g>
     </g>
    </g>
    <g id="xtick_76"/>
    <g id="xtick_77"/>
    <g id="xtick_78"/>
    <g id="xtick_79"/>
    <g id="xtick_80"/>
    <g id="xtick_81"/>
    <g id="xtick_82"/>
    <g id="xtick_83"/>
    <g id="xtick_84"/>
    <g id="xtick_85"/>
    <g id="xtick_86"/>
    <g id="xtick_87"/>
    <g id="xtick_88"/>
    <g id="xtick_89"/>
    <g id="xtick_90"/>
    <g id="xtick_91"/>
    <g id="xtick_92"/>
    <g id="xtick_93"/>
    <g id="xtick_94"/>
    <g id="xtick_95"/>
    <g id="xtick_96"/>
    <g id="xtick_97"/>
    <g id="xtick_98"/>
    <g id="text_32">
     <!-- 1e8 -->
     <g style="fill: #262626" transform="translate(668.665676 284.0414) scale(0.0704 -0.0704)">
      <use xlink:href="#ArialMT-31"/>
      <use xlink:href="#ArialMT-65" transform="translate(55.615234 0)"/>
      <use xlink:href="#ArialMT-38" transform="translate(111.230469 0)"/>
     </g>
    </g>
   </g>
   <g id="matplotlib.axis_5">
    <g id="ytick_25"/>
    <g id="ytick_26"/>
    <g id="ytick_27"/>
    <g id="ytick_28"/>
    <g id="ytick_29"/>
    <g id="ytick_30"/>
    <g id="ytick_31"/>
    <g id="ytick_32"/>
    <g id="ytick_33"/>
    <g id="ytick_34"/>
    <g id="ytick_35"/>
    <g id="ytick_36"/>
    <g id="ytick_37"/>
    <g id="ytick_38"/>
    <g id="ytick_39"/>
    <g id="ytick_40"/>
    <g id="ytick_41"/>
    <g id="ytick_42"/>
    <g id="ytick_43"/>
    <g id="ytick_44"/>
    <g id="ytick_45"/>
    <g id="ytick_46"/>
    <g id="ytick_47"/>
    <g id="ytick_48"/>
   </g>
   <g id="patch_34">
    <path d="M 297.781805 262.224 
L 680.410376 262.224 
L 680.410376 151.344 
L 297.781805 151.344 
L 297.781805 262.224 
z
" clip-path="url(#pb02f4cb78a)" style="fill: none"/>
   </g>
   <g id="line2d_31">
    <path clip-path="url(#pb02f4cb78a)" style="fill: none; stroke: #ffa500; stroke-linecap: round"/>
   </g>
   <g id="line2d_32">
    <path d="M 395.313011 217.871907 
L 396.358536 216.859711 
L 397.404061 215.868172 
L 398.449586 214.897291 
L 399.49511 213.947066 
L 400.540635 213.017499 
L 401.58616 212.108588 
L 402.631684 211.220335 
L 403.677209 210.352739 
L 404.722734 209.505799 
L 405.768259 208.679517 
L 406.813783 207.873892 
L 407.859308 207.088924 
L 408.904833 206.324613 
L 409.950357 205.580959 
L 410.995882 204.857962 
L 412.041407 204.155622 
L 413.086932 203.473939 
L 414.132456 202.812913 
L 415.177981 202.172545 
L 416.223506 201.552833 
L 417.26903 200.953778 
L 418.314555 200.375381 
L 419.36008 199.81764 
L 420.405605 199.280557 
L 421.451129 198.76413 
L 422.496654 198.268361 
L 423.542179 197.793249 
L 424.587703 197.338794 
L 425.633228 196.904995 
L 426.678753 196.491854 
L 427.724278 196.09937 
L 428.769802 195.727543 
L 429.815327 195.376373 
L 430.860852 195.04586 
L 431.906376 194.736004 
L 432.951901 194.446806 
L 433.997426 194.178264 
L 435.042951 193.930379 
L 436.088475 193.703152 
L 437.134 193.496581 
L 438.179525 193.310668 
L 439.225049 193.145411 
L 440.270574 193.000812 
L 441.316099 192.876869 
L 442.361624 192.773584 
L 443.407148 192.690956 
L 444.452673 192.628985 
L 445.498198 192.587671 
L 446.543722 192.567014 
L 447.589247 192.567014 
L 448.634772 192.587671 
L 449.680296 192.628985 
L 450.725821 192.690956 
L 451.771346 192.773584 
L 452.816871 192.876869 
L 453.862395 193.000812 
L 454.90792 193.145411 
L 455.953445 193.310668 
L 456.998969 193.496581 
L 458.044494 193.703152 
L 459.090019 193.930379 
L 460.135544 194.178264 
L 461.181068 194.446806 
L 462.226593 194.736004 
L 463.272118 195.04586 
L 464.317642 195.376373 
L 465.363167 195.727543 
L 466.408692 196.09937 
L 467.454217 196.491854 
L 468.499741 196.904995 
L 469.545266 197.338794 
L 470.590791 197.793249 
L 471.636315 198.268361 
L 472.68184 198.76413 
L 473.727365 199.280557 
L 474.77289 199.81764 
L 475.818414 200.375381 
L 476.863939 200.953778 
L 477.909464 201.552833 
L 478.954988 202.172545 
L 480.000513 202.812913 
L 481.046038 203.473939 
L 482.091563 204.155622 
L 483.137087 204.857962 
L 484.182612 205.580959 
L 485.228137 206.324613 
L 486.273661 207.088924 
L 487.319186 207.873892 
L 488.364711 208.679517 
L 489.410236 209.505799 
L 490.45576 210.352739 
L 491.501285 211.220335 
L 492.54681 212.108588 
L 493.592334 213.017499 
L 494.637859 213.947066 
L 495.683384 214.897291 
L 496.728909 215.868172 
L 497.774433 216.859711 
L 498.819958 217.871907 
" clip-path="url(#pb02f4cb78a)" style="fill: none; stroke: #ffa500; stroke-linecap: round"/>
   </g>
   <g id="line2d_33">
    <path d="M 314.635675 217.871907 
L 315.069304 216.918255 
L 315.502933 215.984066 
L 315.936561 215.06934 
L 316.37019 214.174075 
L 316.803819 213.298273 
L 317.237447 212.441933 
L 317.671076 211.605055 
L 318.104705 210.787639 
L 318.538333 209.989686 
L 318.971962 209.211195 
L 319.405591 208.452167 
L 319.83922 207.7126 
L 320.272848 206.992496 
L 320.706477 206.291854 
L 321.140106 205.610675 
L 321.573734 204.948958 
L 322.007363 204.306703 
L 322.440992 203.68391 
L 322.874621 203.080579 
L 323.308249 202.496711 
L 323.741878 201.932305 
L 324.175507 201.387362 
L 324.609135 200.86188 
L 325.042764 200.355861 
L 325.476393 199.869304 
L 325.910022 199.40221 
L 326.34365 198.954578 
L 326.777279 198.526408 
L 327.210908 198.1177 
L 327.644536 197.728454 
L 328.078165 197.358671 
L 328.511794 197.00835 
L 328.945422 196.677492 
L 329.379051 196.366095 
L 329.81268 196.074161 
L 330.246309 195.801689 
L 330.679937 195.54868 
L 331.113566 195.315133 
L 331.547195 195.101048 
L 331.980823 194.906425 
L 332.414452 194.731264 
L 332.848081 194.575566 
L 333.28171 194.43933 
L 333.715338 194.322557 
L 334.148967 194.225245 
L 334.582596 194.147396 
L 335.016224 194.089009 
L 335.449853 194.050085 
L 335.883482 194.030622 
L 336.317111 194.030622 
L 336.750739 194.050085 
L 337.184368 194.089009 
L 337.617997 194.147396 
L 338.051625 194.225245 
L 338.485254 194.322557 
L 338.918883 194.43933 
L 339.352511 194.575566 
L 339.78614 194.731264 
L 340.219769 194.906425 
L 340.653398 195.101048 
L 341.087026 195.315133 
L 341.520655 195.54868 
L 341.954284 195.801689 
L 342.387912 196.074161 
L 342.821541 196.366095 
L 343.25517 196.677492 
L 343.688799 197.00835 
L 344.122427 197.358671 
L 344.556056 197.728454 
L 344.989685 198.1177 
L 345.423313 198.526408 
L 345.856942 198.954578 
L 346.290571 199.40221 
L 346.7242 199.869304 
L 347.157828 200.355861 
L 347.591457 200.86188 
L 348.025086 201.387362 
L 348.458714 201.932305 
L 348.892343 202.496711 
L 349.325972 203.080579 
L 349.759601 203.68391 
L 350.193229 204.306703 
L 350.626858 204.948958 
L 351.060487 205.610675 
L 351.494115 206.291854 
L 351.927744 206.992496 
L 352.361373 207.7126 
L 352.795001 208.452167 
L 353.22863 209.211195 
L 353.662259 209.989686 
L 354.095888 210.787639 
L 354.529516 211.605055 
L 354.963145 212.441933 
L 355.396774 213.298273 
L 355.830402 214.174075 
L 356.264031 215.06934 
L 356.69766 215.984066 
L 357.131289 216.918255 
L 357.564917 217.871907 
" clip-path="url(#pb02f4cb78a)" style="fill: none; stroke: #ffa500; stroke-linecap: round"/>
   </g>
   <g id="line2d_34">
    <path clip-path="url(#pb02f4cb78a)" style="fill: none; stroke: #ffa500; stroke-linecap: round"/>
   </g>
   <g id="line2d_35">
    <path clip-path="url(#pb02f4cb78a)" style="fill: none; stroke: #ffa500; stroke-linecap: round"/>
   </g>
   <g id="line2d_36">
    <path clip-path="url(#pb02f4cb78a)" style="fill: none; stroke: #ffa500; stroke-linecap: round"/>
   </g>
   <g id="line2d_37">
    <path clip-path="url(#pb02f4cb78a)" style="fill: none; stroke: #ffa500; stroke-linecap: round"/>
   </g>
   <g id="patch_35">
    <path d="M 297.781805 262.224 
L 297.781805 151.344 
" style="fill: none; stroke: #262626; stroke-width: 0.8; stroke-linejoin: miter; stroke-linecap: square"/>
   </g>
   <g id="patch_36">
    <path d="M 680.410376 262.224 
L 680.410376 151.344 
" style="fill: none; stroke: #262626; stroke-width: 0.8; stroke-linejoin: miter; stroke-linecap: square"/>
   </g>
   <g id="patch_37">
    <path d="M 297.781805 262.224 
L 680.410376 262.224 
" style="fill: none; stroke: #262626; stroke-width: 0.8; stroke-linejoin: miter; stroke-linecap: square"/>
   </g>
   <g id="patch_38">
    <path d="M 297.781805 151.344 
L 680.410376 151.344 
" style="fill: none; stroke: #262626; stroke-width: 0.8; stroke-linejoin: miter; stroke-linecap: square"/>
   </g>
  </g>
 </g>
 <defs>
  <clipPath id="p47704c25be">
   <rect x="10.810376" y="7.2" width="669.6" height="110.88"/>
  </clipPath>
  <clipPath id="p5ee39135b1">
   <rect x="10.810376" y="151.344" width="255.085714" height="110.88"/>
  </clipPath>
  <clipPath id="pb02f4cb78a">
   <rect x="297.781805" y="151.344" width="382.628571" height="110.88"/>
  </clipPath>
 </defs>
</svg>
