<?xml version="1.0" encoding="utf-8" standalone="no"?>
<!DOCTYPE svg PUBLIC "-//W3C//DTD SVG 1.1//EN"
  "http://www.w3.org/Graphics/SVG/1.1/DTD/svg11.dtd">
<svg xmlns:xlink="http://www.w3.org/1999/xlink" width="695.858838pt" height="670.6732pt" viewBox="0 0 695.858838 670.6732" xmlns="http://www.w3.org/2000/svg" version="1.1">
 <metadata>
  <rdf:RDF xmlns:dc="http://purl.org/dc/elements/1.1/" xmlns:cc="http://creativecommons.org/ns#" xmlns:rdf="http://www.w3.org/1999/02/22-rdf-syntax-ns#">
   <cc:Work>
    <dc:type rdf:resource="http://purl.org/dc/dcmitype/StillImage"/>
    <dc:date>2025-01-01T19:19:36.422282</dc:date>
    <dc:format>image/svg+xml</dc:format>
    <dc:creator>
     <cc:Agent>
      <dc:title>Matplotlib v3.8.4, https://matplotlib.org/</dc:title>
     </cc:Agent>
    </dc:creator>
   </cc:Work>
  </rdf:RDF>
 </metadata>
 <defs>
  <style type="text/css">*{stroke-linejoin: round; stroke-linecap: butt}</style>
 </defs>
 <g id="figure_1">
  <g id="patch_1">
   <path d="M 0 670.6732 
L 695.858838 670.6732 
L 695.858838 0 
L 0 0 
z
" style="fill: #ffffff"/>
  </g>
  <g id="axes_1">
   <g id="patch_2">
    <path d="M 19.058838 30.693674 
L 688.658838 30.693674 
L 688.658838 30.4166 
L 19.058838 30.4166 
z
" style="fill: #ffffff"/>
   </g>
   <g id="matplotlib.axis_1">
    <g id="xtick_1">
     <g id="line2d_1">
      <defs>
       <path id="m4ff49c36df" d="M 0 0 
L 0 -3.84 
" style="stroke: #262626; stroke-width: 0.8"/>
      </defs>
      <g>
       <use xlink:href="#m4ff49c36df" x="19.863787" y="30.4166" style="fill: #262626; stroke: #262626; stroke-width: 0.8"/>
      </g>
     </g>
     <g id="text_1">
      <!-- 0.0 -->
      <g style="fill: #262626" transform="translate(14.970987 21.6774) scale(0.0704 -0.0704)">
       <defs>
        <path id="ArialMT-30" d="M 266 2259 
Q 266 3072 433 3567 
Q 600 4063 929 4331 
Q 1259 4600 1759 4600 
Q 2128 4600 2406 4451 
Q 2684 4303 2865 4023 
Q 3047 3744 3150 3342 
Q 3253 2941 3253 2259 
Q 3253 1453 3087 958 
Q 2922 463 2592 192 
Q 2263 -78 1759 -78 
Q 1097 -78 719 397 
Q 266 969 266 2259 
z
M 844 2259 
Q 844 1131 1108 757 
Q 1372 384 1759 384 
Q 2147 384 2411 759 
Q 2675 1134 2675 2259 
Q 2675 3391 2411 3762 
Q 2147 4134 1753 4134 
Q 1366 4134 1134 3806 
Q 844 3388 844 2259 
z
" transform="scale(0.015625)"/>
        <path id="ArialMT-2e" d="M 581 0 
L 581 641 
L 1222 641 
L 1222 0 
L 581 0 
z
" transform="scale(0.015625)"/>
       </defs>
       <use xlink:href="#ArialMT-30"/>
       <use xlink:href="#ArialMT-2e" x="55.615234"/>
       <use xlink:href="#ArialMT-30" x="83.398438"/>
      </g>
     </g>
    </g>
    <g id="xtick_2">
     <g id="line2d_2">
      <g>
       <use xlink:href="#m4ff49c36df" x="154.021825" y="30.4166" style="fill: #262626; stroke: #262626; stroke-width: 0.8"/>
      </g>
     </g>
     <g id="text_2">
      <!-- 0.5 -->
      <g style="fill: #262626" transform="translate(149.129025 21.6774) scale(0.0704 -0.0704)">
       <defs>
        <path id="ArialMT-35" d="M 266 1200 
L 856 1250 
Q 922 819 1161 601 
Q 1400 384 1738 384 
Q 2144 384 2425 690 
Q 2706 997 2706 1503 
Q 2706 1984 2436 2262 
Q 2166 2541 1728 2541 
Q 1456 2541 1237 2417 
Q 1019 2294 894 2097 
L 366 2166 
L 809 4519 
L 3088 4519 
L 3088 3981 
L 1259 3981 
L 1013 2750 
Q 1425 3038 1878 3038 
Q 2478 3038 2890 2622 
Q 3303 2206 3303 1553 
Q 3303 931 2941 478 
Q 2500 -78 1738 -78 
Q 1113 -78 717 272 
Q 322 622 266 1200 
z
" transform="scale(0.015625)"/>
       </defs>
       <use xlink:href="#ArialMT-30"/>
       <use xlink:href="#ArialMT-2e" x="55.615234"/>
       <use xlink:href="#ArialMT-35" x="83.398438"/>
      </g>
     </g>
    </g>
    <g id="xtick_3">
     <g id="line2d_3">
      <g>
       <use xlink:href="#m4ff49c36df" x="288.179863" y="30.4166" style="fill: #262626; stroke: #262626; stroke-width: 0.8"/>
      </g>
     </g>
     <g id="text_3">
      <!-- 1.0 -->
      <g style="fill: #262626" transform="translate(283.287063 21.6774) scale(0.0704 -0.0704)">
       <defs>
        <path id="ArialMT-31" d="M 2384 0 
L 1822 0 
L 1822 3584 
Q 1619 3391 1289 3197 
Q 959 3003 697 2906 
L 697 3450 
Q 1169 3672 1522 3987 
Q 1875 4303 2022 4600 
L 2384 4600 
L 2384 0 
z
" transform="scale(0.015625)"/>
       </defs>
       <use xlink:href="#ArialMT-31"/>
       <use xlink:href="#ArialMT-2e" x="55.615234"/>
       <use xlink:href="#ArialMT-30" x="83.398438"/>
      </g>
     </g>
    </g>
    <g id="xtick_4">
     <g id="line2d_4">
      <g>
       <use xlink:href="#m4ff49c36df" x="422.337901" y="30.4166" style="fill: #262626; stroke: #262626; stroke-width: 0.8"/>
      </g>
     </g>
     <g id="text_4">
      <!-- 1.5 -->
      <g style="fill: #262626" transform="translate(417.445101 21.6774) scale(0.0704 -0.0704)">
       <use xlink:href="#ArialMT-31"/>
       <use xlink:href="#ArialMT-2e" x="55.615234"/>
       <use xlink:href="#ArialMT-35" x="83.398438"/>
      </g>
     </g>
    </g>
    <g id="xtick_5">
     <g id="line2d_5">
      <g>
       <use xlink:href="#m4ff49c36df" x="556.495939" y="30.4166" style="fill: #262626; stroke: #262626; stroke-width: 0.8"/>
      </g>
     </g>
     <g id="text_5">
      <!-- 2.0 -->
      <g style="fill: #262626" transform="translate(551.603139 21.6774) scale(0.0704 -0.0704)">
       <defs>
        <path id="ArialMT-32" d="M 3222 541 
L 3222 0 
L 194 0 
Q 188 203 259 391 
Q 375 700 629 1000 
Q 884 1300 1366 1694 
Q 2113 2306 2375 2664 
Q 2638 3022 2638 3341 
Q 2638 3675 2398 3904 
Q 2159 4134 1775 4134 
Q 1369 4134 1125 3890 
Q 881 3647 878 3216 
L 300 3275 
Q 359 3922 746 4261 
Q 1134 4600 1788 4600 
Q 2447 4600 2831 4234 
Q 3216 3869 3216 3328 
Q 3216 3053 3103 2787 
Q 2991 2522 2730 2228 
Q 2469 1934 1863 1422 
Q 1356 997 1212 845 
Q 1069 694 975 541 
L 3222 541 
z
" transform="scale(0.015625)"/>
       </defs>
       <use xlink:href="#ArialMT-32"/>
       <use xlink:href="#ArialMT-2e" x="55.615234"/>
       <use xlink:href="#ArialMT-30" x="83.398438"/>
      </g>
     </g>
    </g>
    <g id="text_6">
     <!-- 1e8 -->
     <g style="fill: #262626" transform="translate(676.914138 12.2391) scale(0.0704 -0.0704)">
      <defs>
       <path id="ArialMT-65" d="M 2694 1069 
L 3275 997 
Q 3138 488 2766 206 
Q 2394 -75 1816 -75 
Q 1088 -75 661 373 
Q 234 822 234 1631 
Q 234 2469 665 2931 
Q 1097 3394 1784 3394 
Q 2450 3394 2872 2941 
Q 3294 2488 3294 1666 
Q 3294 1616 3291 1516 
L 816 1516 
Q 847 969 1125 678 
Q 1403 388 1819 388 
Q 2128 388 2347 550 
Q 2566 713 2694 1069 
z
M 847 1978 
L 2700 1978 
Q 2663 2397 2488 2606 
Q 2219 2931 1791 2931 
Q 1403 2931 1139 2672 
Q 875 2413 847 1978 
z
" transform="scale(0.015625)"/>
       <path id="ArialMT-38" d="M 1131 2484 
Q 781 2613 612 2850 
Q 444 3088 444 3419 
Q 444 3919 803 4259 
Q 1163 4600 1759 4600 
Q 2359 4600 2725 4251 
Q 3091 3903 3091 3403 
Q 3091 3084 2923 2848 
Q 2756 2613 2416 2484 
Q 2838 2347 3058 2040 
Q 3278 1734 3278 1309 
Q 3278 722 2862 322 
Q 2447 -78 1769 -78 
Q 1091 -78 675 323 
Q 259 725 259 1325 
Q 259 1772 486 2073 
Q 713 2375 1131 2484 
z
M 1019 3438 
Q 1019 3113 1228 2906 
Q 1438 2700 1772 2700 
Q 2097 2700 2305 2904 
Q 2513 3109 2513 3406 
Q 2513 3716 2298 3927 
Q 2084 4138 1766 4138 
Q 1444 4138 1231 3931 
Q 1019 3725 1019 3438 
z
M 838 1322 
Q 838 1081 952 856 
Q 1066 631 1291 507 
Q 1516 384 1775 384 
Q 2178 384 2440 643 
Q 2703 903 2703 1303 
Q 2703 1709 2433 1975 
Q 2163 2241 1756 2241 
Q 1359 2241 1098 1978 
Q 838 1716 838 1322 
z
" transform="scale(0.015625)"/>
      </defs>
      <use xlink:href="#ArialMT-31"/>
      <use xlink:href="#ArialMT-65" x="55.615234"/>
      <use xlink:href="#ArialMT-38" x="111.230469"/>
     </g>
    </g>
   </g>
   <g id="matplotlib.axis_2">
    <g id="ytick_1"/>
    <g id="ytick_2"/>
   </g>
   <g id="patch_3">
    <path d="M 19.058838 30.693674 
L 19.058838 30.4166 
" style="fill: none; stroke: #262626; stroke-width: 0.8; stroke-linejoin: miter; stroke-linecap: square"/>
   </g>
   <g id="patch_4">
    <path d="M 688.658838 30.693674 
L 688.658838 30.4166 
" style="fill: none; stroke: #262626; stroke-width: 0.8; stroke-linejoin: miter; stroke-linecap: square"/>
   </g>
   <g id="patch_5">
    <path d="M 19.058838 30.693674 
L 688.658838 30.693674 
" style="fill: none; stroke: #262626; stroke-width: 0.8; stroke-linejoin: miter; stroke-linecap: square"/>
   </g>
   <g id="patch_6">
    <path d="M 19.058838 30.4166 
L 688.658838 30.4166 
" style="fill: none; stroke: #262626; stroke-width: 0.8; stroke-linejoin: miter; stroke-linecap: square"/>
   </g>
  </g>
  <g id="axes_2">
   <g id="patch_7">
    <path d="M 19.058838 58.40108 
L 688.658838 58.40108 
L 688.658838 30.693674 
L 19.058838 30.693674 
z
" style="fill: #ffffff"/>
   </g>
   <g id="patch_8">
    <path d="M 19.863787 47.28481 
L 346.404452 47.28481 
L 346.404452 41.743328 
L 19.863787 41.743328 
z
" clip-path="url(#pf8a80662b7)" style="fill: #ebeaea"/>
   </g>
   <g id="patch_9">
    <path d="M 355.527198 47.28481 
L 687.85389 47.28481 
L 687.85389 41.743328 
L 355.527198 41.743328 
z
" clip-path="url(#pf8a80662b7)" style="fill: #ebeaea"/>
   </g>
   <g id="patch_10">
    <path d="M 19.863787 47.28481 
L 346.404452 47.28481 
L 346.404452 41.743328 
L 19.863787 41.743328 
L 19.863787 47.28481 
z
" clip-path="url(#pf8a80662b7)" style="fill: none; stroke: #000000; stroke-width: 0.7; stroke-linejoin: miter"/>
   </g>
   <g id="patch_11">
    <path d="M 355.527198 47.28481 
L 687.85389 47.28481 
L 687.85389 41.743328 
L 355.527198 41.743328 
L 355.527198 47.28481 
z
" clip-path="url(#pf8a80662b7)" style="fill: none; stroke: #000000; stroke-width: 0.7; stroke-linejoin: miter"/>
   </g>
   <g id="matplotlib.axis_3">
    <g id="xtick_6"/>
    <g id="xtick_7"/>
    <g id="xtick_8"/>
    <g id="xtick_9"/>
    <g id="xtick_10"/>
   </g>
   <g id="matplotlib.axis_4">
    <g id="ytick_3"/>
    <g id="ytick_4"/>
   </g>
   <g id="patch_12">
    <path d="M 346.404452 47.28481 
L 346.404452 41.743328 
L 355.527198 47.28481 
L 355.527198 41.743328 
z
" clip-path="url(#pf8a80662b7)" style="fill: #777777; stroke: #777777; stroke-width: 0.64; stroke-linejoin: miter"/>
   </g>
   <g id="text_7">
    <!-- 1 -->
    <g style="fill: #262626" transform="translate(11.092656 46.3286) scale(0.07 -0.07)">
     <defs>
      <path id="Arial-BoldMT-31" d="M 2519 0 
L 1641 0 
L 1641 3309 
Q 1159 2859 506 2644 
L 506 3441 
Q 850 3553 1253 3867 
Q 1656 4181 1806 4600 
L 2519 4600 
L 2519 0 
z
" transform="scale(0.015625)"/>
     </defs>
     <use xlink:href="#Arial-BoldMT-31"/>
    </g>
   </g>
  </g>
  <g id="axes_3">
   <g id="patch_13">
    <path d="M 19.058838 86.108486 
L 688.658838 86.108486 
L 688.658838 58.40108 
L 19.058838 58.40108 
z
" style="fill: #ffffff"/>
   </g>
   <g id="patch_14">
    <path d="M 19.863787 74.992215 
L 266.177945 74.992215 
L 266.177945 69.450734 
L 19.863787 69.450734 
z
" clip-path="url(#pe41ab1dda2)" style="fill: #ebeaea"/>
   </g>
   <g id="patch_15">
    <path d="M 277.44722 74.992215 
L 669.707961 74.992215 
L 669.707961 69.450734 
L 277.44722 69.450734 
z
" clip-path="url(#pe41ab1dda2)" style="fill: #ebeaea"/>
   </g>
   <g id="patch_16">
    <path d="M 19.863787 74.992215 
L 266.177945 74.992215 
L 266.177945 69.450734 
L 19.863787 69.450734 
L 19.863787 74.992215 
z
" clip-path="url(#pe41ab1dda2)" style="fill: none; stroke: #000000; stroke-width: 0.7; stroke-linejoin: miter"/>
   </g>
   <g id="patch_17">
    <path d="M 277.44722 74.992215 
L 669.707961 74.992215 
L 669.707961 69.450734 
L 277.44722 69.450734 
L 277.44722 74.992215 
z
" clip-path="url(#pe41ab1dda2)" style="fill: none; stroke: #000000; stroke-width: 0.7; stroke-linejoin: miter"/>
   </g>
   <g id="matplotlib.axis_5">
    <g id="xtick_11"/>
    <g id="xtick_12"/>
    <g id="xtick_13"/>
    <g id="xtick_14"/>
    <g id="xtick_15"/>
   </g>
   <g id="matplotlib.axis_6">
    <g id="ytick_5"/>
    <g id="ytick_6"/>
   </g>
   <g id="patch_18">
    <path d="M 266.177945 74.992215 
L 266.177945 69.450734 
L 277.44722 74.992215 
L 277.44722 69.450734 
z
" clip-path="url(#pe41ab1dda2)" style="fill: #777777; stroke: #777777; stroke-width: 0.64; stroke-linejoin: miter"/>
   </g>
   <g id="text_8">
    <!-- 2 -->
    <g style="fill: #262626" transform="translate(11.092656 74.036006) scale(0.07 -0.07)">
     <defs>
      <path id="Arial-BoldMT-32" d="M 3238 816 
L 3238 0 
L 159 0 
Q 209 463 459 877 
Q 709 1291 1447 1975 
Q 2041 2528 2175 2725 
Q 2356 2997 2356 3263 
Q 2356 3556 2198 3714 
Q 2041 3872 1763 3872 
Q 1488 3872 1325 3706 
Q 1163 3541 1138 3156 
L 263 3244 
Q 341 3969 753 4284 
Q 1166 4600 1784 4600 
Q 2463 4600 2850 4234 
Q 3238 3869 3238 3325 
Q 3238 3016 3127 2736 
Q 3016 2456 2775 2150 
Q 2616 1947 2200 1565 
Q 1784 1184 1673 1059 
Q 1563 934 1494 816 
L 3238 816 
z
" transform="scale(0.015625)"/>
     </defs>
     <use xlink:href="#Arial-BoldMT-32"/>
    </g>
   </g>
  </g>
  <g id="axes_4">
   <g id="patch_19">
    <path d="M 19.058838 113.815891 
L 688.658838 113.815891 
L 688.658838 86.108486 
L 19.058838 86.108486 
z
" style="fill: #ffffff"/>
   </g>
   <g id="patch_20">
    <path d="M 19.863787 102.699621 
L 255.445302 102.699621 
L 255.445302 97.15814 
L 19.863787 97.15814 
z
" clip-path="url(#pb34eaa1b8e)" style="fill: #ebeaea"/>
   </g>
   <g id="patch_21">
    <path d="M 272.080898 102.699621 
L 551.92265 102.699621 
L 551.92265 97.15814 
L 272.080898 97.15814 
z
" clip-path="url(#pb34eaa1b8e)" style="fill: #ebeaea"/>
   </g>
   <g id="patch_22">
    <path d="M 19.863787 102.699621 
L 255.445302 102.699621 
L 255.445302 97.15814 
L 19.863787 97.15814 
L 19.863787 102.699621 
z
" clip-path="url(#pb34eaa1b8e)" style="fill: none; stroke: #000000; stroke-width: 0.7; stroke-linejoin: miter"/>
   </g>
   <g id="patch_23">
    <path d="M 272.080898 102.699621 
L 551.92265 102.699621 
L 551.92265 97.15814 
L 272.080898 97.15814 
L 272.080898 102.699621 
z
" clip-path="url(#pb34eaa1b8e)" style="fill: none; stroke: #000000; stroke-width: 0.7; stroke-linejoin: miter"/>
   </g>
   <g id="matplotlib.axis_7">
    <g id="xtick_16"/>
    <g id="xtick_17"/>
    <g id="xtick_18"/>
    <g id="xtick_19"/>
    <g id="xtick_20"/>
   </g>
   <g id="matplotlib.axis_8">
    <g id="ytick_7"/>
    <g id="ytick_8"/>
   </g>
   <g id="patch_24">
    <path d="M 255.445302 102.699621 
L 255.445302 97.15814 
L 272.080898 102.699621 
L 272.080898 97.15814 
z
" clip-path="url(#pb34eaa1b8e)" style="fill: #777777; stroke: #777777; stroke-width: 0.64; stroke-linejoin: miter"/>
   </g>
   <g id="text_9">
    <!-- 3 -->
    <g style="fill: #262626" transform="translate(11.092656 101.743412) scale(0.07 -0.07)">
     <defs>
      <path id="Arial-BoldMT-33" d="M 241 1216 
L 1091 1319 
Q 1131 994 1309 822 
Q 1488 650 1741 650 
Q 2013 650 2198 856 
Q 2384 1063 2384 1413 
Q 2384 1744 2206 1937 
Q 2028 2131 1772 2131 
Q 1603 2131 1369 2066 
L 1466 2781 
Q 1822 2772 2009 2936 
Q 2197 3100 2197 3372 
Q 2197 3603 2059 3740 
Q 1922 3878 1694 3878 
Q 1469 3878 1309 3722 
Q 1150 3566 1116 3266 
L 306 3403 
Q 391 3819 561 4067 
Q 731 4316 1036 4458 
Q 1341 4600 1719 4600 
Q 2366 4600 2756 4188 
Q 3078 3850 3078 3425 
Q 3078 2822 2419 2463 
Q 2813 2378 3048 2084 
Q 3284 1791 3284 1375 
Q 3284 772 2843 347 
Q 2403 -78 1747 -78 
Q 1125 -78 715 280 
Q 306 638 241 1216 
z
" transform="scale(0.015625)"/>
     </defs>
     <use xlink:href="#Arial-BoldMT-33"/>
    </g>
   </g>
  </g>
  <g id="axes_5">
   <g id="patch_25">
    <path d="M 19.058838 141.523297 
L 688.658838 141.523297 
L 688.658838 113.815891 
L 19.058838 113.815891 
z
" style="fill: #ffffff"/>
   </g>
   <g id="patch_26">
    <path d="M 19.863787 130.407027 
L 149.192135 130.407027 
L 149.192135 124.865546 
L 19.863787 124.865546 
z
" clip-path="url(#pe81f05b209)" style="fill: #ebeaea"/>
   </g>
   <g id="patch_27">
    <path d="M 158.851514 130.407027 
L 530.240017 130.407027 
L 530.240017 124.865546 
L 158.851514 124.865546 
z
" clip-path="url(#pe81f05b209)" style="fill: #ebeaea"/>
   </g>
   <g id="patch_28">
    <path d="M 19.863787 130.407027 
L 149.192135 130.407027 
L 149.192135 124.865546 
L 19.863787 124.865546 
L 19.863787 130.407027 
z
" clip-path="url(#pe81f05b209)" style="fill: none; stroke: #000000; stroke-width: 0.7; stroke-linejoin: miter"/>
   </g>
   <g id="patch_29">
    <path d="M 158.851514 130.407027 
L 530.240017 130.407027 
L 530.240017 124.865546 
L 158.851514 124.865546 
L 158.851514 130.407027 
z
" clip-path="url(#pe81f05b209)" style="fill: none; stroke: #000000; stroke-width: 0.7; stroke-linejoin: miter"/>
   </g>
   <g id="matplotlib.axis_9">
    <g id="xtick_21"/>
    <g id="xtick_22"/>
    <g id="xtick_23"/>
    <g id="xtick_24"/>
    <g id="xtick_25"/>
   </g>
   <g id="matplotlib.axis_10">
    <g id="ytick_9"/>
    <g id="ytick_10"/>
   </g>
   <g id="patch_30">
    <path d="M 149.192135 130.407027 
L 149.192135 124.865546 
L 158.851514 130.407027 
L 158.851514 124.865546 
z
" clip-path="url(#pe81f05b209)" style="fill: #777777; stroke: #777777; stroke-width: 0.64; stroke-linejoin: miter"/>
   </g>
   <g id="text_10">
    <!-- 4 -->
    <g style="fill: #262626" transform="translate(11.092656 129.450817) scale(0.07 -0.07)">
     <defs>
      <path id="Arial-BoldMT-34" d="M 1994 0 
L 1994 922 
L 119 922 
L 119 1691 
L 2106 4600 
L 2844 4600 
L 2844 1694 
L 3413 1694 
L 3413 922 
L 2844 922 
L 2844 0 
L 1994 0 
z
M 1994 1694 
L 1994 3259 
L 941 1694 
L 1994 1694 
z
" transform="scale(0.015625)"/>
     </defs>
     <use xlink:href="#Arial-BoldMT-34"/>
    </g>
   </g>
  </g>
  <g id="axes_6">
   <g id="patch_31">
    <path d="M 19.058838 169.230703 
L 688.658838 169.230703 
L 688.658838 141.523297 
L 19.058838 141.523297 
z
" style="fill: #ffffff"/>
   </g>
   <g id="patch_32">
    <path d="M 19.863787 158.114432 
L 143.557498 158.114432 
L 143.557498 152.572951 
L 19.863787 152.572951 
z
" clip-path="url(#p79e6117af8)" style="fill: #ebeaea"/>
   </g>
   <g id="patch_33">
    <path d="M 157.77825 158.114432 
L 506.96012 158.114432 
L 506.96012 152.572951 
L 157.77825 152.572951 
z
" clip-path="url(#p79e6117af8)" style="fill: #ebeaea"/>
   </g>
   <g id="patch_34">
    <path d="M 19.863787 158.114432 
L 143.557498 158.114432 
L 143.557498 152.572951 
L 19.863787 152.572951 
L 19.863787 158.114432 
z
" clip-path="url(#p79e6117af8)" style="fill: none; stroke: #000000; stroke-width: 0.7; stroke-linejoin: miter"/>
   </g>
   <g id="patch_35">
    <path d="M 157.77825 158.114432 
L 506.96012 158.114432 
L 506.96012 152.572951 
L 157.77825 152.572951 
L 157.77825 158.114432 
z
" clip-path="url(#p79e6117af8)" style="fill: none; stroke: #000000; stroke-width: 0.7; stroke-linejoin: miter"/>
   </g>
   <g id="matplotlib.axis_11">
    <g id="xtick_26"/>
    <g id="xtick_27"/>
    <g id="xtick_28"/>
    <g id="xtick_29"/>
    <g id="xtick_30"/>
   </g>
   <g id="matplotlib.axis_12">
    <g id="ytick_11"/>
    <g id="ytick_12"/>
   </g>
   <g id="patch_36">
    <path d="M 143.557498 158.114432 
L 143.557498 152.572951 
L 157.77825 158.114432 
L 157.77825 152.572951 
z
" clip-path="url(#p79e6117af8)" style="fill: #777777; stroke: #777777; stroke-width: 0.64; stroke-linejoin: miter"/>
   </g>
   <g id="text_11">
    <!-- 5 -->
    <g style="fill: #262626" transform="translate(11.092656 157.158223) scale(0.07 -0.07)">
     <defs>
      <path id="Arial-BoldMT-35" d="M 284 1178 
L 1159 1269 
Q 1197 972 1381 798 
Q 1566 625 1806 625 
Q 2081 625 2272 848 
Q 2463 1072 2463 1522 
Q 2463 1944 2273 2155 
Q 2084 2366 1781 2366 
Q 1403 2366 1103 2031 
L 391 2134 
L 841 4519 
L 3163 4519 
L 3163 3697 
L 1506 3697 
L 1369 2919 
Q 1663 3066 1969 3066 
Q 2553 3066 2959 2641 
Q 3366 2216 3366 1538 
Q 3366 972 3038 528 
Q 2591 -78 1797 -78 
Q 1163 -78 763 262 
Q 363 603 284 1178 
z
" transform="scale(0.015625)"/>
     </defs>
     <use xlink:href="#Arial-BoldMT-35"/>
    </g>
   </g>
  </g>
  <g id="axes_7">
   <g id="patch_37">
    <path d="M 19.058838 196.938108 
L 688.658838 196.938108 
L 688.658838 169.230703 
L 19.058838 169.230703 
z
" style="fill: #ffffff"/>
   </g>
   <g id="patch_38">
    <path d="M 19.863787 185.821838 
L 176.828691 185.821838 
L 176.828691 180.280357 
L 19.863787 180.280357 
z
" clip-path="url(#p94b8d145d3)" style="fill: #ebeaea"/>
   </g>
   <g id="patch_39">
    <path d="M 187.82965 185.821838 
L 478.163688 185.821838 
L 478.163688 180.280357 
L 187.82965 180.280357 
z
" clip-path="url(#p94b8d145d3)" style="fill: #ebeaea"/>
   </g>
   <g id="patch_40">
    <path d="M 19.863787 185.821838 
L 176.828691 185.821838 
L 176.828691 180.280357 
L 19.863787 180.280357 
L 19.863787 185.821838 
z
" clip-path="url(#p94b8d145d3)" style="fill: none; stroke: #000000; stroke-width: 0.7; stroke-linejoin: miter"/>
   </g>
   <g id="patch_41">
    <path d="M 187.82965 185.821838 
L 478.163688 185.821838 
L 478.163688 180.280357 
L 187.82965 180.280357 
L 187.82965 185.821838 
z
" clip-path="url(#p94b8d145d3)" style="fill: none; stroke: #000000; stroke-width: 0.7; stroke-linejoin: miter"/>
   </g>
   <g id="matplotlib.axis_13">
    <g id="xtick_31"/>
    <g id="xtick_32"/>
    <g id="xtick_33"/>
    <g id="xtick_34"/>
    <g id="xtick_35"/>
   </g>
   <g id="matplotlib.axis_14">
    <g id="ytick_13"/>
    <g id="ytick_14"/>
   </g>
   <g id="patch_42">
    <path d="M 176.828691 185.821838 
L 176.828691 180.280357 
L 187.82965 185.821838 
L 187.82965 180.280357 
z
" clip-path="url(#p94b8d145d3)" style="fill: #777777; stroke: #777777; stroke-width: 0.64; stroke-linejoin: miter"/>
   </g>
   <g id="text_12">
    <!-- 6 -->
    <g style="fill: #262626" transform="translate(11.092656 184.865629) scale(0.07 -0.07)">
     <defs>
      <path id="Arial-BoldMT-36" d="M 3247 3459 
L 2397 3366 
Q 2366 3628 2234 3753 
Q 2103 3878 1894 3878 
Q 1616 3878 1423 3628 
Q 1231 3378 1181 2588 
Q 1509 2975 1997 2975 
Q 2547 2975 2939 2556 
Q 3331 2138 3331 1475 
Q 3331 772 2918 347 
Q 2506 -78 1859 -78 
Q 1166 -78 719 461 
Q 272 1000 272 2228 
Q 272 3488 737 4044 
Q 1203 4600 1947 4600 
Q 2469 4600 2811 4308 
Q 3153 4016 3247 3459 
z
M 1256 1544 
Q 1256 1116 1453 883 
Q 1650 650 1903 650 
Q 2147 650 2309 840 
Q 2472 1031 2472 1466 
Q 2472 1913 2297 2120 
Q 2122 2328 1859 2328 
Q 1606 2328 1431 2129 
Q 1256 1931 1256 1544 
z
" transform="scale(0.015625)"/>
     </defs>
     <use xlink:href="#Arial-BoldMT-36"/>
    </g>
   </g>
  </g>
  <g id="axes_8">
   <g id="patch_43">
    <path d="M 19.058838 224.645514 
L 688.658838 224.645514 
L 688.658838 196.938108 
L 19.058838 196.938108 
z
" style="fill: #ffffff"/>
   </g>
   <g id="patch_44">
    <path d="M 19.863787 213.529244 
L 175.755427 213.529244 
L 175.755427 207.987763 
L 19.863787 207.987763 
z
" clip-path="url(#pc4d44db2c0)" style="fill: #ebeaea"/>
   </g>
   <g id="patch_45">
    <path d="M 186.48807 213.529244 
L 447.414649 213.529244 
L 447.414649 207.987763 
L 186.48807 207.987763 
z
" clip-path="url(#pc4d44db2c0)" style="fill: #ebeaea"/>
   </g>
   <g id="patch_46">
    <path d="M 19.863787 213.529244 
L 175.755427 213.529244 
L 175.755427 207.987763 
L 19.863787 207.987763 
L 19.863787 213.529244 
z
" clip-path="url(#pc4d44db2c0)" style="fill: none; stroke: #000000; stroke-width: 0.7; stroke-linejoin: miter"/>
   </g>
   <g id="patch_47">
    <path d="M 186.48807 213.529244 
L 447.414649 213.529244 
L 447.414649 207.987763 
L 186.48807 207.987763 
L 186.48807 213.529244 
z
" clip-path="url(#pc4d44db2c0)" style="fill: none; stroke: #000000; stroke-width: 0.7; stroke-linejoin: miter"/>
   </g>
   <g id="matplotlib.axis_15">
    <g id="xtick_36"/>
    <g id="xtick_37"/>
    <g id="xtick_38"/>
    <g id="xtick_39"/>
    <g id="xtick_40"/>
   </g>
   <g id="matplotlib.axis_16">
    <g id="ytick_15"/>
    <g id="ytick_16"/>
   </g>
   <g id="patch_48">
    <path d="M 175.755427 213.529244 
L 175.755427 207.987763 
L 186.48807 213.529244 
L 186.48807 207.987763 
z
" clip-path="url(#pc4d44db2c0)" style="fill: #777777; stroke: #777777; stroke-width: 0.64; stroke-linejoin: miter"/>
   </g>
   <g id="text_13">
    <!-- 7 -->
    <g style="fill: #262626" transform="translate(11.092656 212.573035) scale(0.07 -0.07)">
     <defs>
      <path id="Arial-BoldMT-37" d="M 272 3703 
L 272 4519 
L 3275 4519 
L 3275 3881 
Q 2903 3516 2518 2831 
Q 2134 2147 1932 1376 
Q 1731 606 1734 0 
L 888 0 
Q 909 950 1279 1937 
Q 1650 2925 2269 3703 
L 272 3703 
z
" transform="scale(0.015625)"/>
     </defs>
     <use xlink:href="#Arial-BoldMT-37"/>
    </g>
   </g>
  </g>
  <g id="axes_9">
   <g id="patch_49">
    <path d="M 19.058838 252.35292 
L 688.658838 252.35292 
L 688.658838 224.645514 
L 19.058838 224.645514 
z
" style="fill: #ffffff"/>
   </g>
   <g id="patch_50">
    <path d="M 19.863787 241.23665 
L 135.776332 241.23665 
L 135.776332 235.695168 
L 19.863787 235.695168 
z
" clip-path="url(#p4d0a6d69c7)" style="fill: #ebeaea"/>
   </g>
   <g id="patch_51">
    <path d="M 146.508975 241.23665 
L 409.29408 241.23665 
L 409.29408 235.695168 
L 146.508975 235.695168 
z
" clip-path="url(#p4d0a6d69c7)" style="fill: #ebeaea"/>
   </g>
   <g id="patch_52">
    <path d="M 19.863787 241.23665 
L 135.776332 241.23665 
L 135.776332 235.695168 
L 19.863787 235.695168 
L 19.863787 241.23665 
z
" clip-path="url(#p4d0a6d69c7)" style="fill: none; stroke: #000000; stroke-width: 0.7; stroke-linejoin: miter"/>
   </g>
   <g id="patch_53">
    <path d="M 146.508975 241.23665 
L 409.29408 241.23665 
L 409.29408 235.695168 
L 146.508975 235.695168 
L 146.508975 241.23665 
z
" clip-path="url(#p4d0a6d69c7)" style="fill: none; stroke: #000000; stroke-width: 0.7; stroke-linejoin: miter"/>
   </g>
   <g id="matplotlib.axis_17">
    <g id="xtick_41"/>
    <g id="xtick_42"/>
    <g id="xtick_43"/>
    <g id="xtick_44"/>
    <g id="xtick_45"/>
   </g>
   <g id="matplotlib.axis_18">
    <g id="ytick_17"/>
    <g id="ytick_18"/>
   </g>
   <g id="patch_54">
    <path d="M 135.776332 241.23665 
L 135.776332 235.695168 
L 146.508975 241.23665 
L 146.508975 235.695168 
z
" clip-path="url(#p4d0a6d69c7)" style="fill: #777777; stroke: #777777; stroke-width: 0.64; stroke-linejoin: miter"/>
   </g>
   <g id="text_14">
    <!-- 8 -->
    <g style="fill: #262626" transform="translate(11.092656 240.28044) scale(0.07 -0.07)">
     <defs>
      <path id="Arial-BoldMT-38" d="M 1025 2472 
Q 684 2616 529 2867 
Q 375 3119 375 3419 
Q 375 3931 733 4265 
Q 1091 4600 1750 4600 
Q 2403 4600 2764 4265 
Q 3125 3931 3125 3419 
Q 3125 3100 2959 2851 
Q 2794 2603 2494 2472 
Q 2875 2319 3073 2025 
Q 3272 1731 3272 1347 
Q 3272 713 2867 316 
Q 2463 -81 1791 -81 
Q 1166 -81 750 247 
Q 259 634 259 1309 
Q 259 1681 443 1992 
Q 628 2303 1025 2472 
z
M 1206 3356 
Q 1206 3094 1354 2947 
Q 1503 2800 1750 2800 
Q 2000 2800 2150 2948 
Q 2300 3097 2300 3359 
Q 2300 3606 2151 3754 
Q 2003 3903 1759 3903 
Q 1506 3903 1356 3753 
Q 1206 3603 1206 3356 
z
M 1125 1394 
Q 1125 1031 1311 828 
Q 1497 625 1775 625 
Q 2047 625 2225 820 
Q 2403 1016 2403 1384 
Q 2403 1706 2222 1901 
Q 2041 2097 1763 2097 
Q 1441 2097 1283 1875 
Q 1125 1653 1125 1394 
z
" transform="scale(0.015625)"/>
     </defs>
     <use xlink:href="#Arial-BoldMT-38"/>
    </g>
   </g>
  </g>
  <g id="axes_10">
   <g id="patch_55">
    <path d="M 19.058838 280.060326 
L 688.658838 280.060326 
L 688.658838 252.35292 
L 19.058838 252.35292 
z
" style="fill: #ffffff"/>
   </g>
   <g id="patch_56">
    <path d="M 19.863787 268.944055 
L 133.093171 268.944055 
L 133.093171 263.402574 
L 19.863787 263.402574 
z
" clip-path="url(#paddb8cd8da)" style="fill: #ebeaea"/>
   </g>
   <g id="patch_57">
    <path d="M 141.947601 268.944055 
L 391.199061 268.944055 
L 391.199061 263.402574 
L 141.947601 263.402574 
z
" clip-path="url(#paddb8cd8da)" style="fill: #ebeaea"/>
   </g>
   <g id="patch_58">
    <path d="M 19.863787 268.944055 
L 133.093171 268.944055 
L 133.093171 263.402574 
L 19.863787 263.402574 
L 19.863787 268.944055 
z
" clip-path="url(#paddb8cd8da)" style="fill: none; stroke: #000000; stroke-width: 0.7; stroke-linejoin: miter"/>
   </g>
   <g id="patch_59">
    <path d="M 141.947601 268.944055 
L 391.199061 268.944055 
L 391.199061 263.402574 
L 141.947601 263.402574 
L 141.947601 268.944055 
z
" clip-path="url(#paddb8cd8da)" style="fill: none; stroke: #000000; stroke-width: 0.7; stroke-linejoin: miter"/>
   </g>
   <g id="matplotlib.axis_19">
    <g id="xtick_46"/>
    <g id="xtick_47"/>
    <g id="xtick_48"/>
    <g id="xtick_49"/>
    <g id="xtick_50"/>
   </g>
   <g id="matplotlib.axis_20">
    <g id="ytick_19"/>
    <g id="ytick_20"/>
   </g>
   <g id="patch_60">
    <path d="M 133.093171 268.944055 
L 133.093171 263.402574 
L 141.947601 268.944055 
L 141.947601 263.402574 
z
" clip-path="url(#paddb8cd8da)" style="fill: #777777; stroke: #777777; stroke-width: 0.64; stroke-linejoin: miter"/>
   </g>
   <g id="text_15">
    <!-- 9 -->
    <g style="fill: #262626" transform="translate(11.092656 267.987846) scale(0.07 -0.07)">
     <defs>
      <path id="Arial-BoldMT-39" d="M 291 1059 
L 1141 1153 
Q 1172 894 1303 769 
Q 1434 644 1650 644 
Q 1922 644 2112 894 
Q 2303 1144 2356 1931 
Q 2025 1547 1528 1547 
Q 988 1547 595 1964 
Q 203 2381 203 3050 
Q 203 3747 617 4173 
Q 1031 4600 1672 4600 
Q 2369 4600 2816 4061 
Q 3263 3522 3263 2288 
Q 3263 1031 2797 475 
Q 2331 -81 1584 -81 
Q 1047 -81 715 205 
Q 384 491 291 1059 
z
M 2278 2978 
Q 2278 3403 2083 3637 
Q 1888 3872 1631 3872 
Q 1388 3872 1227 3680 
Q 1066 3488 1066 3050 
Q 1066 2606 1241 2398 
Q 1416 2191 1678 2191 
Q 1931 2191 2104 2391 
Q 2278 2591 2278 2978 
z
" transform="scale(0.015625)"/>
     </defs>
     <use xlink:href="#Arial-BoldMT-39"/>
    </g>
   </g>
  </g>
  <g id="axes_11">
   <g id="patch_61">
    <path d="M 19.058838 307.767731 
L 688.658838 307.767731 
L 688.658838 280.060326 
L 19.058838 280.060326 
z
" style="fill: #ffffff"/>
   </g>
   <g id="patch_62">
    <path d="M 19.863787 296.651461 
L 121.823896 296.651461 
L 121.823896 291.10998 
L 19.863787 291.10998 
z
" clip-path="url(#pb3eb3d16e9)" style="fill: #ebeaea"/>
   </g>
   <g id="patch_63">
    <path d="M 131.483274 296.651461 
L 378.86378 296.651461 
L 378.86378 291.10998 
L 131.483274 291.10998 
z
" clip-path="url(#pb3eb3d16e9)" style="fill: #ebeaea"/>
   </g>
   <g id="patch_64">
    <path d="M 19.863787 296.651461 
L 121.823896 296.651461 
L 121.823896 291.10998 
L 19.863787 291.10998 
L 19.863787 296.651461 
z
" clip-path="url(#pb3eb3d16e9)" style="fill: none; stroke: #000000; stroke-width: 0.7; stroke-linejoin: miter"/>
   </g>
   <g id="patch_65">
    <path d="M 131.483274 296.651461 
L 378.86378 296.651461 
L 378.86378 291.10998 
L 131.483274 291.10998 
L 131.483274 296.651461 
z
" clip-path="url(#pb3eb3d16e9)" style="fill: none; stroke: #000000; stroke-width: 0.7; stroke-linejoin: miter"/>
   </g>
   <g id="matplotlib.axis_21">
    <g id="xtick_51"/>
    <g id="xtick_52"/>
    <g id="xtick_53"/>
    <g id="xtick_54"/>
    <g id="xtick_55"/>
   </g>
   <g id="matplotlib.axis_22">
    <g id="ytick_21"/>
    <g id="ytick_22"/>
   </g>
   <g id="patch_66">
    <path d="M 121.823896 296.651461 
L 121.823896 291.10998 
L 131.483274 296.651461 
L 131.483274 291.10998 
z
" clip-path="url(#pb3eb3d16e9)" style="fill: #777777; stroke: #777777; stroke-width: 0.64; stroke-linejoin: miter"/>
   </g>
   <g id="text_16">
    <!-- 10 -->
    <g style="fill: #262626" transform="translate(7.2 295.695252) scale(0.07 -0.07)">
     <defs>
      <path id="Arial-BoldMT-30" d="M 1756 4600 
Q 2422 4600 2797 4125 
Q 3244 3563 3244 2259 
Q 3244 959 2794 391 
Q 2422 -78 1756 -78 
Q 1088 -78 678 436 
Q 269 950 269 2269 
Q 269 3563 719 4131 
Q 1091 4600 1756 4600 
z
M 1756 3872 
Q 1597 3872 1472 3770 
Q 1347 3669 1278 3406 
Q 1188 3066 1188 2259 
Q 1188 1453 1269 1151 
Q 1350 850 1473 750 
Q 1597 650 1756 650 
Q 1916 650 2041 751 
Q 2166 853 2234 1116 
Q 2325 1453 2325 2259 
Q 2325 3066 2244 3367 
Q 2163 3669 2039 3770 
Q 1916 3872 1756 3872 
z
" transform="scale(0.015625)"/>
     </defs>
     <use xlink:href="#Arial-BoldMT-31"/>
     <use xlink:href="#Arial-BoldMT-30" x="55.615234"/>
    </g>
   </g>
  </g>
  <g id="axes_12">
   <g id="patch_67">
    <path d="M 19.058838 335.475137 
L 688.658838 335.475137 
L 688.658838 307.767731 
L 19.058838 307.767731 
z
" style="fill: #ffffff"/>
   </g>
   <g id="patch_68">
    <path d="M 19.863787 324.358867 
L 156.704986 324.358867 
L 156.704986 318.817386 
L 19.863787 318.817386 
z
" clip-path="url(#p03dc286b23)" style="fill: #ebeaea"/>
   </g>
   <g id="patch_69">
    <path d="M 169.584157 324.358867 
L 382.322911 324.358867 
L 382.322911 318.817386 
L 169.584157 318.817386 
z
" clip-path="url(#p03dc286b23)" style="fill: #ebeaea"/>
   </g>
   <g id="patch_70">
    <path d="M 19.863787 324.358867 
L 156.704986 324.358867 
L 156.704986 318.817386 
L 19.863787 318.817386 
L 19.863787 324.358867 
z
" clip-path="url(#p03dc286b23)" style="fill: none; stroke: #000000; stroke-width: 0.7; stroke-linejoin: miter"/>
   </g>
   <g id="patch_71">
    <path d="M 169.584157 324.358867 
L 382.322911 324.358867 
L 382.322911 318.817386 
L 169.584157 318.817386 
L 169.584157 324.358867 
z
" clip-path="url(#p03dc286b23)" style="fill: none; stroke: #000000; stroke-width: 0.7; stroke-linejoin: miter"/>
   </g>
   <g id="matplotlib.axis_23">
    <g id="xtick_56"/>
    <g id="xtick_57"/>
    <g id="xtick_58"/>
    <g id="xtick_59"/>
    <g id="xtick_60"/>
   </g>
   <g id="matplotlib.axis_24">
    <g id="ytick_23"/>
    <g id="ytick_24"/>
   </g>
   <g id="patch_72">
    <path d="M 156.704986 324.358867 
L 156.704986 318.817386 
L 169.584157 324.358867 
L 169.584157 318.817386 
z
" clip-path="url(#p03dc286b23)" style="fill: #777777; stroke: #777777; stroke-width: 0.64; stroke-linejoin: miter"/>
   </g>
   <g id="text_17">
    <!-- 11 -->
    <g style="fill: #262626" transform="translate(7.585 323.402657) scale(0.07 -0.07)">
     <use xlink:href="#Arial-BoldMT-31"/>
     <use xlink:href="#Arial-BoldMT-31" x="50.115234"/>
    </g>
   </g>
  </g>
  <g id="axes_13">
   <g id="patch_73">
    <path d="M 19.058838 363.182543 
L 688.658838 363.182543 
L 688.658838 335.475137 
L 19.058838 335.475137 
z
" style="fill: #ffffff"/>
   </g>
   <g id="patch_74">
    <path d="M 19.863787 352.066272 
L 108.944724 352.066272 
L 108.944724 346.524791 
L 19.863787 346.524791 
z
" clip-path="url(#p644a84131e)" style="fill: #ebeaea"/>
   </g>
   <g id="patch_75">
    <path d="M 121.287264 352.066272 
L 377.462867 352.066272 
L 377.462867 346.524791 
L 121.287264 346.524791 
z
" clip-path="url(#p644a84131e)" style="fill: #ebeaea"/>
   </g>
   <g id="patch_76">
    <path d="M 19.863787 352.066272 
L 108.944724 352.066272 
L 108.944724 346.524791 
L 19.863787 346.524791 
L 19.863787 352.066272 
z
" clip-path="url(#p644a84131e)" style="fill: none; stroke: #000000; stroke-width: 0.7; stroke-linejoin: miter"/>
   </g>
   <g id="patch_77">
    <path d="M 121.287264 352.066272 
L 377.462867 352.066272 
L 377.462867 346.524791 
L 121.287264 346.524791 
L 121.287264 352.066272 
z
" clip-path="url(#p644a84131e)" style="fill: none; stroke: #000000; stroke-width: 0.7; stroke-linejoin: miter"/>
   </g>
   <g id="matplotlib.axis_25">
    <g id="xtick_61"/>
    <g id="xtick_62"/>
    <g id="xtick_63"/>
    <g id="xtick_64"/>
    <g id="xtick_65"/>
   </g>
   <g id="matplotlib.axis_26">
    <g id="ytick_25"/>
    <g id="ytick_26"/>
   </g>
   <g id="patch_78">
    <path d="M 108.944724 352.066272 
L 108.944724 346.524791 
L 121.287264 352.066272 
L 121.287264 346.524791 
z
" clip-path="url(#p644a84131e)" style="fill: #777777; stroke: #777777; stroke-width: 0.64; stroke-linejoin: miter"/>
   </g>
   <g id="text_18">
    <!-- 12 -->
    <g style="fill: #262626" transform="translate(7.2 351.110063) scale(0.07 -0.07)">
     <use xlink:href="#Arial-BoldMT-31"/>
     <use xlink:href="#Arial-BoldMT-32" x="55.615234"/>
    </g>
   </g>
  </g>
  <g id="axes_14">
   <g id="patch_79">
    <path d="M 19.058838 390.889948 
L 688.658838 390.889948 
L 688.658838 363.182543 
L 19.058838 363.182543 
z
" style="fill: #ffffff"/>
   </g>
   <g id="patch_80">
    <path d="M 19.863787 379.773678 
L 64.135939 379.773678 
L 64.135939 374.232197 
L 19.863787 374.232197 
z
" clip-path="url(#p6740fe7b1a)" style="fill: #ebeaea"/>
   </g>
   <g id="patch_81">
    <path d="M 70.575525 379.773678 
L 326.721664 379.773678 
L 326.721664 374.232197 
L 70.575525 374.232197 
z
" clip-path="url(#p6740fe7b1a)" style="fill: #ebeaea"/>
   </g>
   <g id="patch_82">
    <path d="M 19.863787 379.773678 
L 64.135939 379.773678 
L 64.135939 374.232197 
L 19.863787 374.232197 
L 19.863787 379.773678 
z
" clip-path="url(#p6740fe7b1a)" style="fill: none; stroke: #000000; stroke-width: 0.7; stroke-linejoin: miter"/>
   </g>
   <g id="patch_83">
    <path d="M 70.575525 379.773678 
L 326.721664 379.773678 
L 326.721664 374.232197 
L 70.575525 374.232197 
L 70.575525 379.773678 
z
" clip-path="url(#p6740fe7b1a)" style="fill: none; stroke: #000000; stroke-width: 0.7; stroke-linejoin: miter"/>
   </g>
   <g id="matplotlib.axis_27">
    <g id="xtick_66"/>
    <g id="xtick_67"/>
    <g id="xtick_68"/>
    <g id="xtick_69"/>
    <g id="xtick_70"/>
   </g>
   <g id="matplotlib.axis_28">
    <g id="ytick_27"/>
    <g id="ytick_28"/>
   </g>
   <g id="patch_84">
    <path d="M 64.135939 379.773678 
L 64.135939 374.232197 
L 70.575525 379.773678 
L 70.575525 374.232197 
z
" clip-path="url(#p6740fe7b1a)" style="fill: #777777; stroke: #777777; stroke-width: 0.64; stroke-linejoin: miter"/>
   </g>
   <g id="text_19">
    <!-- 13 -->
    <g style="fill: #262626" transform="translate(7.2 378.817469) scale(0.07 -0.07)">
     <use xlink:href="#Arial-BoldMT-31"/>
     <use xlink:href="#Arial-BoldMT-33" x="55.615234"/>
    </g>
   </g>
  </g>
  <g id="axes_15">
   <g id="patch_85">
    <path d="M 19.058838 418.597354 
L 688.658838 418.597354 
L 688.658838 390.889948 
L 19.058838 390.889948 
z
" style="fill: #ffffff"/>
   </g>
   <g id="patch_86">
    <path d="M 19.863787 407.481084 
L 63.062675 407.481084 
L 63.062675 401.939603 
L 19.863787 401.939603 
z
" clip-path="url(#pfbf1f671e0)" style="fill: #ebeaea"/>
   </g>
   <g id="patch_87">
    <path d="M 68.697313 407.481084 
L 307.079291 407.481084 
L 307.079291 401.939603 
L 68.697313 401.939603 
z
" clip-path="url(#pfbf1f671e0)" style="fill: #ebeaea"/>
   </g>
   <g id="patch_88">
    <path d="M 19.863787 407.481084 
L 63.062675 407.481084 
L 63.062675 401.939603 
L 19.863787 401.939603 
L 19.863787 407.481084 
z
" clip-path="url(#pfbf1f671e0)" style="fill: none; stroke: #000000; stroke-width: 0.7; stroke-linejoin: miter"/>
   </g>
   <g id="patch_89">
    <path d="M 68.697313 407.481084 
L 307.079291 407.481084 
L 307.079291 401.939603 
L 68.697313 401.939603 
L 68.697313 407.481084 
z
" clip-path="url(#pfbf1f671e0)" style="fill: none; stroke: #000000; stroke-width: 0.7; stroke-linejoin: miter"/>
   </g>
   <g id="matplotlib.axis_29">
    <g id="xtick_71"/>
    <g id="xtick_72"/>
    <g id="xtick_73"/>
    <g id="xtick_74"/>
    <g id="xtick_75"/>
   </g>
   <g id="matplotlib.axis_30">
    <g id="ytick_29"/>
    <g id="ytick_30"/>
   </g>
   <g id="patch_90">
    <path d="M 63.062675 407.481084 
L 63.062675 401.939603 
L 68.697313 407.481084 
L 68.697313 401.939603 
z
" clip-path="url(#pfbf1f671e0)" style="fill: #777777; stroke: #777777; stroke-width: 0.64; stroke-linejoin: miter"/>
   </g>
   <g id="text_20">
    <!-- 14 -->
    <g style="fill: #262626" transform="translate(7.2 406.524875) scale(0.07 -0.07)">
     <use xlink:href="#Arial-BoldMT-31"/>
     <use xlink:href="#Arial-BoldMT-34" x="55.615234"/>
    </g>
   </g>
  </g>
  <g id="axes_16">
   <g id="patch_91">
    <path d="M 19.058838 446.30476 
L 688.658838 446.30476 
L 688.658838 418.597354 
L 19.058838 418.597354 
z
" style="fill: #ffffff"/>
   </g>
   <g id="patch_92">
    <path d="M 19.863787 435.18849 
L 66.8191 435.18849 
L 66.8191 429.647009 
L 19.863787 429.647009 
z
" clip-path="url(#p2f02f04965)" style="fill: #ebeaea"/>
   </g>
   <g id="patch_93">
    <path d="M 74.868582 435.18849 
L 293.522543 435.18849 
L 293.522543 429.647009 
L 74.868582 429.647009 
z
" clip-path="url(#p2f02f04965)" style="fill: #ebeaea"/>
   </g>
   <g id="patch_94">
    <path d="M 19.863787 435.18849 
L 66.8191 435.18849 
L 66.8191 429.647009 
L 19.863787 429.647009 
L 19.863787 435.18849 
z
" clip-path="url(#p2f02f04965)" style="fill: none; stroke: #000000; stroke-width: 0.7; stroke-linejoin: miter"/>
   </g>
   <g id="patch_95">
    <path d="M 74.868582 435.18849 
L 293.522543 435.18849 
L 293.522543 429.647009 
L 74.868582 429.647009 
L 74.868582 435.18849 
z
" clip-path="url(#p2f02f04965)" style="fill: none; stroke: #000000; stroke-width: 0.7; stroke-linejoin: miter"/>
   </g>
   <g id="matplotlib.axis_31">
    <g id="xtick_76"/>
    <g id="xtick_77"/>
    <g id="xtick_78"/>
    <g id="xtick_79"/>
    <g id="xtick_80"/>
   </g>
   <g id="matplotlib.axis_32">
    <g id="ytick_31"/>
    <g id="ytick_32"/>
   </g>
   <g id="patch_96">
    <path d="M 66.8191 435.18849 
L 66.8191 429.647009 
L 74.868582 435.18849 
L 74.868582 429.647009 
z
" clip-path="url(#p2f02f04965)" style="fill: #777777; stroke: #777777; stroke-width: 0.64; stroke-linejoin: miter"/>
   </g>
   <g id="text_21">
    <!-- 15 -->
    <g style="fill: #262626" transform="translate(7.2 434.23228) scale(0.07 -0.07)">
     <use xlink:href="#Arial-BoldMT-31"/>
     <use xlink:href="#Arial-BoldMT-35" x="55.615234"/>
    </g>
   </g>
  </g>
  <g id="axes_17">
   <g id="patch_97">
    <path d="M 19.058838 474.012166 
L 688.658838 474.012166 
L 688.658838 446.30476 
L 19.058838 446.30476 
z
" style="fill: #ffffff"/>
   </g>
   <g id="patch_98">
    <path d="M 19.863787 462.895895 
L 114.579362 462.895895 
L 114.579362 457.354414 
L 19.863787 457.354414 
z
" clip-path="url(#pa9bed8fa75)" style="fill: #ebeaea"/>
   </g>
   <g id="patch_99">
    <path d="M 122.89716 462.895895 
L 262.256089 462.895895 
L 262.256089 457.354414 
L 122.89716 457.354414 
z
" clip-path="url(#pa9bed8fa75)" style="fill: #ebeaea"/>
   </g>
   <g id="patch_100">
    <path d="M 19.863787 462.895895 
L 114.579362 462.895895 
L 114.579362 457.354414 
L 19.863787 457.354414 
L 19.863787 462.895895 
z
" clip-path="url(#pa9bed8fa75)" style="fill: none; stroke: #000000; stroke-width: 0.7; stroke-linejoin: miter"/>
   </g>
   <g id="patch_101">
    <path d="M 122.89716 462.895895 
L 262.256089 462.895895 
L 262.256089 457.354414 
L 122.89716 457.354414 
L 122.89716 462.895895 
z
" clip-path="url(#pa9bed8fa75)" style="fill: none; stroke: #000000; stroke-width: 0.7; stroke-linejoin: miter"/>
   </g>
   <g id="matplotlib.axis_33">
    <g id="xtick_81"/>
    <g id="xtick_82"/>
    <g id="xtick_83"/>
    <g id="xtick_84"/>
    <g id="xtick_85"/>
   </g>
   <g id="matplotlib.axis_34">
    <g id="ytick_33"/>
    <g id="ytick_34"/>
   </g>
   <g id="patch_102">
    <path d="M 114.579362 462.895895 
L 114.579362 457.354414 
L 122.89716 462.895895 
L 122.89716 457.354414 
z
" clip-path="url(#pa9bed8fa75)" style="fill: #777777; stroke: #777777; stroke-width: 0.64; stroke-linejoin: miter"/>
   </g>
   <g id="text_22">
    <!-- 16 -->
    <g style="fill: #262626" transform="translate(7.2 461.939686) scale(0.07 -0.07)">
     <use xlink:href="#Arial-BoldMT-31"/>
     <use xlink:href="#Arial-BoldMT-36" x="55.615234"/>
    </g>
   </g>
  </g>
  <g id="axes_18">
   <g id="patch_103">
    <path d="M 19.058838 501.719571 
L 688.658838 501.719571 
L 688.658838 474.012166 
L 19.058838 474.012166 
z
" style="fill: #ffffff"/>
   </g>
   <g id="patch_104">
    <path d="M 19.863787 490.603301 
L 80.771536 490.603301 
L 80.771536 485.06182 
L 19.863787 485.06182 
z
" clip-path="url(#p47d7f0f778)" style="fill: #ebeaea"/>
   </g>
   <g id="patch_105">
    <path d="M 93.382392 490.603301 
L 243.256886 490.603301 
L 243.256886 485.06182 
L 93.382392 485.06182 
z
" clip-path="url(#p47d7f0f778)" style="fill: #ebeaea"/>
   </g>
   <g id="patch_106">
    <path d="M 19.863787 490.603301 
L 80.771536 490.603301 
L 80.771536 485.06182 
L 19.863787 485.06182 
L 19.863787 490.603301 
z
" clip-path="url(#p47d7f0f778)" style="fill: none; stroke: #000000; stroke-width: 0.7; stroke-linejoin: miter"/>
   </g>
   <g id="patch_107">
    <path d="M 93.382392 490.603301 
L 243.256886 490.603301 
L 243.256886 485.06182 
L 93.382392 485.06182 
L 93.382392 490.603301 
z
" clip-path="url(#p47d7f0f778)" style="fill: none; stroke: #000000; stroke-width: 0.7; stroke-linejoin: miter"/>
   </g>
   <g id="matplotlib.axis_35">
    <g id="xtick_86"/>
    <g id="xtick_87"/>
    <g id="xtick_88"/>
    <g id="xtick_89"/>
    <g id="xtick_90"/>
   </g>
   <g id="matplotlib.axis_36">
    <g id="ytick_35"/>
    <g id="ytick_36"/>
   </g>
   <g id="patch_108">
    <path d="M 80.771536 490.603301 
L 80.771536 485.06182 
L 93.382392 490.603301 
L 93.382392 485.06182 
z
" clip-path="url(#p47d7f0f778)" style="fill: #777777; stroke: #777777; stroke-width: 0.64; stroke-linejoin: miter"/>
   </g>
   <g id="text_23">
    <!-- 17 -->
    <g style="fill: #262626" transform="translate(7.2 489.647092) scale(0.07 -0.07)">
     <use xlink:href="#Arial-BoldMT-31"/>
     <use xlink:href="#Arial-BoldMT-37" x="55.615234"/>
    </g>
   </g>
  </g>
  <g id="axes_19">
   <g id="patch_109">
    <path d="M 19.058838 529.426977 
L 688.658838 529.426977 
L 688.658838 501.719571 
L 19.058838 501.719571 
z
" style="fill: #ffffff"/>
   </g>
   <g id="patch_110">
    <path d="M 19.863787 518.310707 
L 61.184462 518.310707 
L 61.184462 512.769226 
L 19.863787 512.769226 
z
" clip-path="url(#p82f72e921d)" style="fill: #ebeaea"/>
   </g>
   <g id="patch_111">
    <path d="M 77.551743 518.310707 
L 235.518231 518.310707 
L 235.518231 512.769226 
L 77.551743 512.769226 
z
" clip-path="url(#p82f72e921d)" style="fill: #ebeaea"/>
   </g>
   <g id="patch_112">
    <path d="M 19.863787 518.310707 
L 61.184462 518.310707 
L 61.184462 512.769226 
L 19.863787 512.769226 
L 19.863787 518.310707 
z
" clip-path="url(#p82f72e921d)" style="fill: none; stroke: #000000; stroke-width: 0.7; stroke-linejoin: miter"/>
   </g>
   <g id="patch_113">
    <path d="M 77.551743 518.310707 
L 235.518231 518.310707 
L 235.518231 512.769226 
L 77.551743 512.769226 
L 77.551743 518.310707 
z
" clip-path="url(#p82f72e921d)" style="fill: none; stroke: #000000; stroke-width: 0.7; stroke-linejoin: miter"/>
   </g>
   <g id="matplotlib.axis_37">
    <g id="xtick_91"/>
    <g id="xtick_92"/>
    <g id="xtick_93"/>
    <g id="xtick_94"/>
    <g id="xtick_95"/>
   </g>
   <g id="matplotlib.axis_38">
    <g id="ytick_37"/>
    <g id="ytick_38"/>
   </g>
   <g id="patch_114">
    <path d="M 61.184462 518.310707 
L 61.184462 512.769226 
L 77.551743 518.310707 
L 77.551743 512.769226 
z
" clip-path="url(#p82f72e921d)" style="fill: #777777; stroke: #777777; stroke-width: 0.64; stroke-linejoin: miter"/>
   </g>
   <g id="text_24">
    <!-- 18 -->
    <g style="fill: #262626" transform="translate(7.2 517.354498) scale(0.07 -0.07)">
     <use xlink:href="#Arial-BoldMT-31"/>
     <use xlink:href="#Arial-BoldMT-38" x="55.615234"/>
    </g>
   </g>
  </g>
  <g id="axes_20">
   <g id="patch_115">
    <path d="M 19.058838 557.134383 
L 688.658838 557.134383 
L 688.658838 529.426977 
L 19.058838 529.426977 
z
" style="fill: #ffffff"/>
   </g>
   <g id="patch_116">
    <path d="M 19.863787 546.018113 
L 84.796277 546.018113 
L 84.796277 540.476631 
L 19.863787 540.476631 
z
" clip-path="url(#p7f4d525915)" style="fill: #ebeaea"/>
   </g>
   <g id="patch_117">
    <path d="M 95.260604 546.018113 
L 177.144274 546.018113 
L 177.144274 540.476631 
L 95.260604 540.476631 
z
" clip-path="url(#p7f4d525915)" style="fill: #ebeaea"/>
   </g>
   <g id="patch_118">
    <path d="M 19.863787 546.018113 
L 84.796277 546.018113 
L 84.796277 540.476631 
L 19.863787 540.476631 
L 19.863787 546.018113 
z
" clip-path="url(#p7f4d525915)" style="fill: none; stroke: #000000; stroke-width: 0.7; stroke-linejoin: miter"/>
   </g>
   <g id="patch_119">
    <path d="M 95.260604 546.018113 
L 177.144274 546.018113 
L 177.144274 540.476631 
L 95.260604 540.476631 
L 95.260604 546.018113 
z
" clip-path="url(#p7f4d525915)" style="fill: none; stroke: #000000; stroke-width: 0.7; stroke-linejoin: miter"/>
   </g>
   <g id="matplotlib.axis_39">
    <g id="xtick_96"/>
    <g id="xtick_97"/>
    <g id="xtick_98"/>
    <g id="xtick_99"/>
    <g id="xtick_100"/>
   </g>
   <g id="matplotlib.axis_40">
    <g id="ytick_39"/>
    <g id="ytick_40"/>
   </g>
   <g id="patch_120">
    <path d="M 84.796277 546.018113 
L 84.796277 540.476631 
L 95.260604 546.018113 
L 95.260604 540.476631 
z
" clip-path="url(#p7f4d525915)" style="fill: #777777; stroke: #777777; stroke-width: 0.64; stroke-linejoin: miter"/>
   </g>
   <g id="text_25">
    <!-- 19 -->
    <g style="fill: #262626" transform="translate(7.2 545.061903) scale(0.07 -0.07)">
     <use xlink:href="#Arial-BoldMT-31"/>
     <use xlink:href="#Arial-BoldMT-39" x="55.615234"/>
    </g>
   </g>
  </g>
  <g id="axes_21">
   <g id="patch_121">
    <path d="M 19.058838 584.841789 
L 688.658838 584.841789 
L 688.658838 557.134383 
L 19.058838 557.134383 
z
" style="fill: #ffffff"/>
   </g>
   <g id="patch_122">
    <path d="M 19.863787 573.725518 
L 88.821018 573.725518 
L 88.821018 568.184037 
L 19.863787 568.184037 
z
" clip-path="url(#p39e55ab335)" style="fill: #ebeaea"/>
   </g>
   <g id="patch_123">
    <path d="M 101.431874 573.725518 
L 192.777847 573.725518 
L 192.777847 568.184037 
L 101.431874 568.184037 
z
" clip-path="url(#p39e55ab335)" style="fill: #ebeaea"/>
   </g>
   <g id="patch_124">
    <path d="M 19.863787 573.725518 
L 88.821018 573.725518 
L 88.821018 568.184037 
L 19.863787 568.184037 
L 19.863787 573.725518 
z
" clip-path="url(#p39e55ab335)" style="fill: none; stroke: #000000; stroke-width: 0.7; stroke-linejoin: miter"/>
   </g>
   <g id="patch_125">
    <path d="M 101.431874 573.725518 
L 192.777847 573.725518 
L 192.777847 568.184037 
L 101.431874 568.184037 
L 101.431874 573.725518 
z
" clip-path="url(#p39e55ab335)" style="fill: none; stroke: #000000; stroke-width: 0.7; stroke-linejoin: miter"/>
   </g>
   <g id="matplotlib.axis_41">
    <g id="xtick_101"/>
    <g id="xtick_102"/>
    <g id="xtick_103"/>
    <g id="xtick_104"/>
    <g id="xtick_105"/>
   </g>
   <g id="matplotlib.axis_42">
    <g id="ytick_41"/>
    <g id="ytick_42"/>
   </g>
   <g id="patch_126">
    <path d="M 88.821018 573.725518 
L 88.821018 568.184037 
L 101.431874 573.725518 
L 101.431874 568.184037 
z
" clip-path="url(#p39e55ab335)" style="fill: #777777; stroke: #777777; stroke-width: 0.64; stroke-linejoin: miter"/>
   </g>
   <g id="text_26">
    <!-- 20 -->
    <g style="fill: #262626" transform="translate(7.2 572.769309) scale(0.07 -0.07)">
     <use xlink:href="#Arial-BoldMT-32"/>
     <use xlink:href="#Arial-BoldMT-30" x="55.615234"/>
    </g>
   </g>
  </g>
  <g id="axes_22">
   <g id="patch_127">
    <path d="M 19.058838 612.549194 
L 353.858838 612.549194 
L 353.858838 584.841789 
L 19.058838 584.841789 
z
" style="fill: #ffffff"/>
   </g>
   <g id="patch_128">
    <path d="M 19.461313 601.449568 
L 34.084539 601.449568 
L 34.084539 595.908087 
L 19.461313 595.908087 
z
" clip-path="url(#p7d91e9ee72)" style="fill: #ebeaea"/>
   </g>
   <g id="patch_129">
    <path d="M 36.901857 601.449568 
L 82.126509 601.449568 
L 82.126509 595.908087 
L 36.901857 595.908087 
z
" clip-path="url(#p7d91e9ee72)" style="fill: #ebeaea"/>
   </g>
   <g id="patch_130">
    <path d="M 19.461313 601.449568 
L 34.084539 601.449568 
L 34.084539 595.908087 
L 19.461313 595.908087 
L 19.461313 601.449568 
z
" clip-path="url(#p7d91e9ee72)" style="fill: none; stroke: #000000; stroke-width: 0.7; stroke-linejoin: miter"/>
   </g>
   <g id="patch_131">
    <path d="M 36.901857 601.449568 
L 82.126509 601.449568 
L 82.126509 595.908087 
L 36.901857 595.908087 
L 36.901857 601.449568 
z
" clip-path="url(#p7d91e9ee72)" style="fill: none; stroke: #000000; stroke-width: 0.7; stroke-linejoin: miter"/>
   </g>
   <g id="matplotlib.axis_43">
    <g id="xtick_106"/>
    <g id="xtick_107"/>
    <g id="xtick_108"/>
    <g id="xtick_109"/>
    <g id="xtick_110"/>
   </g>
   <g id="matplotlib.axis_44">
    <g id="ytick_43"/>
    <g id="ytick_44"/>
   </g>
   <g id="patch_132">
    <path d="M 34.084539 601.449568 
L 34.084539 595.908087 
L 36.901857 601.449568 
L 36.901857 595.908087 
z
" clip-path="url(#p7d91e9ee72)" style="fill: #777777; stroke: #777777; stroke-width: 0.64; stroke-linejoin: miter"/>
   </g>
   <g id="text_27">
    <!-- 21 -->
    <g style="fill: #262626" transform="translate(7.407335 600.493359) scale(0.07 -0.07)">
     <use xlink:href="#Arial-BoldMT-32"/>
     <use xlink:href="#Arial-BoldMT-31" x="55.615234"/>
    </g>
   </g>
  </g>
  <g id="axes_23">
   <g id="patch_133">
    <path d="M 19.058838 640.2566 
L 353.858838 640.2566 
L 353.858838 612.549194 
L 19.058838 612.549194 
z
" style="fill: #ffffff"/>
   </g>
   <g id="patch_134">
    <path d="M 19.461313 629.156974 
L 37.840964 629.156974 
L 37.840964 623.615493 
L 19.461313 623.615493 
z
" clip-path="url(#pb95004ed7b)" style="fill: #ebeaea"/>
   </g>
   <g id="patch_135">
    <path d="M 42.804811 629.156974 
L 87.638372 629.156974 
L 87.638372 623.615493 
L 42.804811 623.615493 
z
" clip-path="url(#pb95004ed7b)" style="fill: #ebeaea"/>
   </g>
   <g id="patch_136">
    <path d="M 19.461313 629.156974 
L 37.840964 629.156974 
L 37.840964 623.615493 
L 19.461313 623.615493 
L 19.461313 629.156974 
z
" clip-path="url(#pb95004ed7b)" style="fill: none; stroke: #000000; stroke-width: 0.7; stroke-linejoin: miter"/>
   </g>
   <g id="patch_137">
    <path d="M 42.804811 629.156974 
L 87.638372 629.156974 
L 87.638372 623.615493 
L 42.804811 623.615493 
L 42.804811 629.156974 
z
" clip-path="url(#pb95004ed7b)" style="fill: none; stroke: #000000; stroke-width: 0.7; stroke-linejoin: miter"/>
   </g>
   <g id="matplotlib.axis_45">
    <g id="xtick_111"/>
    <g id="xtick_112"/>
    <g id="xtick_113"/>
    <g id="xtick_114"/>
    <g id="xtick_115"/>
   </g>
   <g id="matplotlib.axis_46">
    <g id="ytick_45"/>
    <g id="ytick_46"/>
   </g>
   <g id="patch_138">
    <path d="M 37.840964 629.156974 
L 37.840964 623.615493 
L 42.804811 629.156974 
L 42.804811 623.615493 
z
" clip-path="url(#pb95004ed7b)" style="fill: #777777; stroke: #777777; stroke-width: 0.64; stroke-linejoin: miter"/>
   </g>
   <g id="text_28">
    <!-- 22 -->
    <g style="fill: #262626" transform="translate(7.407335 628.200764) scale(0.07 -0.07)">
     <use xlink:href="#Arial-BoldMT-32"/>
     <use xlink:href="#Arial-BoldMT-32" x="55.615234"/>
    </g>
   </g>
  </g>
  <g id="axes_24">
   <g id="patch_139">
    <path d="M 353.858838 612.549194 
L 688.658838 612.549194 
L 688.658838 584.841789 
L 353.858838 584.841789 
z
" style="fill: #ffffff"/>
   </g>
   <g id="patch_140">
    <path d="M 354.261313 601.449568 
L 432.207133 601.449568 
L 432.207133 595.908087 
L 354.261313 595.908087 
z
" clip-path="url(#pd13760a1a8)" style="fill: #ebeaea"/>
   </g>
   <g id="patch_141">
    <path d="M 439.854141 601.449568 
L 563.602716 601.449568 
L 563.602716 595.908087 
L 439.854141 595.908087 
z
" clip-path="url(#pd13760a1a8)" style="fill: #ebeaea"/>
   </g>
   <g id="patch_142">
    <path d="M 354.261313 601.449568 
L 432.207133 601.449568 
L 432.207133 595.908087 
L 354.261313 595.908087 
L 354.261313 601.449568 
z
" clip-path="url(#pd13760a1a8)" style="fill: none; stroke: #000000; stroke-width: 0.7; stroke-linejoin: miter"/>
   </g>
   <g id="patch_143">
    <path d="M 439.854141 601.449568 
L 563.602716 601.449568 
L 563.602716 595.908087 
L 439.854141 595.908087 
L 439.854141 601.449568 
z
" clip-path="url(#pd13760a1a8)" style="fill: none; stroke: #000000; stroke-width: 0.7; stroke-linejoin: miter"/>
   </g>
   <g id="matplotlib.axis_47">
    <g id="xtick_116"/>
    <g id="xtick_117"/>
    <g id="xtick_118"/>
    <g id="xtick_119"/>
    <g id="xtick_120"/>
   </g>
   <g id="matplotlib.axis_48">
    <g id="ytick_47"/>
    <g id="ytick_48"/>
   </g>
   <g id="patch_144">
    <path d="M 432.207133 601.449568 
L 432.207133 595.908087 
L 439.854141 601.449568 
L 439.854141 595.908087 
z
" clip-path="url(#pd13760a1a8)" style="fill: #777777; stroke: #777777; stroke-width: 0.64; stroke-linejoin: miter"/>
   </g>
   <g id="text_29">
    <!-- X -->
    <g style="fill: #262626" transform="translate(347.152857 600.493359) scale(0.07 -0.07)">
     <defs>
      <path id="Arial-BoldMT-58" d="M 0 0 
L 1566 2391 
L 147 4581 
L 1228 4581 
L 2147 3109 
L 3047 4581 
L 4119 4581 
L 2694 2356 
L 4259 0 
L 3144 0 
L 2128 1584 
L 1109 0 
L 0 0 
z
" transform="scale(0.015625)"/>
     </defs>
     <use xlink:href="#Arial-BoldMT-58"/>
    </g>
   </g>
  </g>
  <g id="axes_25">
   <g id="patch_145">
    <path d="M 353.858838 640.2566 
L 688.658838 640.2566 
L 688.658838 612.549194 
L 353.858838 612.549194 
z
" style="fill: #ffffff"/>
   </g>
   <g id="patch_146">
    <path d="M 354.261313 629.156974 
L 368.07959 629.156974 
L 368.07959 623.615493 
L 354.261313 623.615493 
z
" clip-path="url(#pb323668a86)" style="fill: #ebeaea"/>
   </g>
   <g id="patch_147">
    <path d="M 368.213748 629.156974 
L 431.03649 629.156974 
L 431.03649 623.615493 
L 368.213748 623.615493 
z
" clip-path="url(#pb323668a86)" style="fill: #ebeaea"/>
   </g>
   <g id="patch_148">
    <path d="M 354.261313 629.156974 
L 368.07959 629.156974 
L 368.07959 623.615493 
L 354.261313 623.615493 
L 354.261313 629.156974 
z
" clip-path="url(#pb323668a86)" style="fill: none; stroke: #000000; stroke-width: 0.7; stroke-linejoin: miter"/>
   </g>
   <g id="patch_149">
    <path d="M 368.213748 629.156974 
L 431.03649 629.156974 
L 431.03649 623.615493 
L 368.213748 623.615493 
L 368.213748 629.156974 
z
" clip-path="url(#pb323668a86)" style="fill: none; stroke: #000000; stroke-width: 0.7; stroke-linejoin: miter"/>
   </g>
   <g id="matplotlib.axis_49">
    <g id="xtick_121">
     <g id="line2d_6">
      <defs>
       <path id="m41c43c3a04" d="M 0 0 
L 0 3.84 
" style="stroke: #262626; stroke-width: 0.8"/>
      </defs>
      <g>
       <use xlink:href="#m41c43c3a04" x="354.261313" y="640.2566" style="fill: #262626; stroke: #262626; stroke-width: 0.8"/>
      </g>
     </g>
     <g id="text_30">
      <!-- 0.0 -->
      <g style="fill: #262626" transform="translate(349.368513 652.6357) scale(0.0704 -0.0704)">
       <use xlink:href="#ArialMT-30"/>
       <use xlink:href="#ArialMT-2e" x="55.615234"/>
       <use xlink:href="#ArialMT-30" x="83.398438"/>
      </g>
     </g>
    </g>
    <g id="xtick_122">
     <g id="line2d_7">
      <g>
       <use xlink:href="#m41c43c3a04" x="421.340332" y="640.2566" style="fill: #262626; stroke: #262626; stroke-width: 0.8"/>
      </g>
     </g>
     <g id="text_31">
      <!-- 0.5 -->
      <g style="fill: #262626" transform="translate(416.447532 652.6357) scale(0.0704 -0.0704)">
       <use xlink:href="#ArialMT-30"/>
       <use xlink:href="#ArialMT-2e" x="55.615234"/>
       <use xlink:href="#ArialMT-35" x="83.398438"/>
      </g>
     </g>
    </g>
    <g id="xtick_123">
     <g id="line2d_8">
      <g>
       <use xlink:href="#m41c43c3a04" x="488.419351" y="640.2566" style="fill: #262626; stroke: #262626; stroke-width: 0.8"/>
      </g>
     </g>
     <g id="text_32">
      <!-- 1.0 -->
      <g style="fill: #262626" transform="translate(483.526551 652.6357) scale(0.0704 -0.0704)">
       <use xlink:href="#ArialMT-31"/>
       <use xlink:href="#ArialMT-2e" x="55.615234"/>
       <use xlink:href="#ArialMT-30" x="83.398438"/>
      </g>
     </g>
    </g>
    <g id="xtick_124">
     <g id="line2d_9">
      <g>
       <use xlink:href="#m41c43c3a04" x="555.49837" y="640.2566" style="fill: #262626; stroke: #262626; stroke-width: 0.8"/>
      </g>
     </g>
     <g id="text_33">
      <!-- 1.5 -->
      <g style="fill: #262626" transform="translate(550.60557 652.6357) scale(0.0704 -0.0704)">
       <use xlink:href="#ArialMT-31"/>
       <use xlink:href="#ArialMT-2e" x="55.615234"/>
       <use xlink:href="#ArialMT-35" x="83.398438"/>
      </g>
     </g>
    </g>
    <g id="xtick_125">
     <g id="line2d_10">
      <g>
       <use xlink:href="#m41c43c3a04" x="622.577389" y="640.2566" style="fill: #262626; stroke: #262626; stroke-width: 0.8"/>
      </g>
     </g>
     <g id="text_34">
      <!-- 2.0 -->
      <g style="fill: #262626" transform="translate(617.684589 652.6357) scale(0.0704 -0.0704)">
       <use xlink:href="#ArialMT-32"/>
       <use xlink:href="#ArialMT-2e" x="55.615234"/>
       <use xlink:href="#ArialMT-30" x="83.398438"/>
      </g>
     </g>
    </g>
    <g id="text_35">
     <!-- 1e8 -->
     <g style="fill: #262626" transform="translate(676.914138 662.074) scale(0.0704 -0.0704)">
      <use xlink:href="#ArialMT-31"/>
      <use xlink:href="#ArialMT-65" x="55.615234"/>
      <use xlink:href="#ArialMT-38" x="111.230469"/>
     </g>
    </g>
   </g>
   <g id="patch_150">
    <path d="M 368.07959 629.156974 
L 368.07959 623.615493 
L 368.213748 629.156974 
L 368.213748 623.615493 
z
" clip-path="url(#pb323668a86)" style="fill: #777777; stroke: #777777; stroke-width: 0.64; stroke-linejoin: miter"/>
   </g>
   <g id="patch_151">
    <path d="M 353.858838 640.2566 
L 688.658838 640.2566 
" style="fill: none; stroke: #262626; stroke-width: 0.8; stroke-linejoin: miter; stroke-linecap: square"/>
   </g>
   <g id="text_36">
    <!-- Y -->
    <g style="fill: #262626" transform="translate(347.152857 628.200764) scale(0.07 -0.07)">
     <defs>
      <path id="Arial-BoldMT-59" d="M 1669 0 
L 1669 1928 
L -9 4581 
L 1075 4581 
L 2153 2769 
L 3209 4581 
L 4275 4581 
L 2591 1922 
L 2591 0 
L 1669 0 
z
" transform="scale(0.015625)"/>
     </defs>
     <use xlink:href="#Arial-BoldMT-59"/>
    </g>
   </g>
  </g>
 </g>
 <defs>
  <clipPath id="pf8a80662b7">
   <rect x="19.058838" y="30.693674" width="669.6" height="27.707406"/>
  </clipPath>
  <clipPath id="pe41ab1dda2">
   <rect x="19.058838" y="58.40108" width="669.6" height="27.707406"/>
  </clipPath>
  <clipPath id="pb34eaa1b8e">
   <rect x="19.058838" y="86.108486" width="669.6" height="27.707406"/>
  </clipPath>
  <clipPath id="pe81f05b209">
   <rect x="19.058838" y="113.815891" width="669.6" height="27.707406"/>
  </clipPath>
  <clipPath id="p79e6117af8">
   <rect x="19.058838" y="141.523297" width="669.6" height="27.707406"/>
  </clipPath>
  <clipPath id="p94b8d145d3">
   <rect x="19.058838" y="169.230703" width="669.6" height="27.707406"/>
  </clipPath>
  <clipPath id="pc4d44db2c0">
   <rect x="19.058838" y="196.938108" width="669.6" height="27.707406"/>
  </clipPath>
  <clipPath id="p4d0a6d69c7">
   <rect x="19.058838" y="224.645514" width="669.6" height="27.707406"/>
  </clipPath>
  <clipPath id="paddb8cd8da">
   <rect x="19.058838" y="252.35292" width="669.6" height="27.707406"/>
  </clipPath>
  <clipPath id="pb3eb3d16e9">
   <rect x="19.058838" y="280.060326" width="669.6" height="27.707406"/>
  </clipPath>
  <clipPath id="p03dc286b23">
   <rect x="19.058838" y="307.767731" width="669.6" height="27.707406"/>
  </clipPath>
  <clipPath id="p644a84131e">
   <rect x="19.058838" y="335.475137" width="669.6" height="27.707406"/>
  </clipPath>
  <clipPath id="p6740fe7b1a">
   <rect x="19.058838" y="363.182543" width="669.6" height="27.707406"/>
  </clipPath>
  <clipPath id="pfbf1f671e0">
   <rect x="19.058838" y="390.889948" width="669.6" height="27.707406"/>
  </clipPath>
  <clipPath id="p2f02f04965">
   <rect x="19.058838" y="418.597354" width="669.6" height="27.707406"/>
  </clipPath>
  <clipPath id="pa9bed8fa75">
   <rect x="19.058838" y="446.30476" width="669.6" height="27.707406"/>
  </clipPath>
  <clipPath id="p47d7f0f778">
   <rect x="19.058838" y="474.012166" width="669.6" height="27.707406"/>
  </clipPath>
  <clipPath id="p82f72e921d">
   <rect x="19.058838" y="501.719571" width="669.6" height="27.707406"/>
  </clipPath>
  <clipPath id="p7f4d525915">
   <rect x="19.058838" y="529.426977" width="669.6" height="27.707406"/>
  </clipPath>
  <clipPath id="p39e55ab335">
   <rect x="19.058838" y="557.134383" width="669.6" height="27.707406"/>
  </clipPath>
  <clipPath id="p7d91e9ee72">
   <rect x="19.058838" y="584.841789" width="334.8" height="27.707406"/>
  </clipPath>
  <clipPath id="pb95004ed7b">
   <rect x="19.058838" y="612.549194" width="334.8" height="27.707406"/>
  </clipPath>
  <clipPath id="pd13760a1a8">
   <rect x="353.858838" y="584.841789" width="334.8" height="27.707406"/>
  </clipPath>
  <clipPath id="pb323668a86">
   <rect x="353.858838" y="612.549194" width="334.8" height="27.707406"/>
  </clipPath>
 </defs>
</svg>
