<?xml version="1.0" encoding="utf-8" standalone="no"?>
<!DOCTYPE svg PUBLIC "-//W3C//DTD SVG 1.1//EN"
  "http://www.w3.org/Graphics/SVG/1.1/DTD/svg11.dtd">
<svg xmlns:xlink="http://www.w3.org/1999/xlink" width="687.610376pt" height="148.4966pt" viewBox="0 0 687.610376 148.4966" xmlns="http://www.w3.org/2000/svg" version="1.1">
 <metadata>
  <rdf:RDF xmlns:dc="http://purl.org/dc/elements/1.1/" xmlns:cc="http://creativecommons.org/ns#" xmlns:rdf="http://www.w3.org/1999/02/22-rdf-syntax-ns#">
   <cc:Work>
    <dc:type rdf:resource="http://purl.org/dc/dcmitype/StillImage"/>
    <dc:date>2026-02-13T14:50:55.899022</dc:date>
    <dc:format>image/svg+xml</dc:format>
    <dc:creator>
     <cc:Agent>
      <dc:title>Matplotlib v3.10.8, https://matplotlib.org/</dc:title>
     </cc:Agent>
    </dc:creator>
   </cc:Work>
  </rdf:RDF>
 </metadata>
 <defs>
  <style type="text/css">*{stroke-linejoin: round; stroke-linecap: butt}</style>
 </defs>
 <g id="figure_1">
  <g id="patch_1">
   <path d="M 0 148.4966 
L 687.610376 148.4966 
L 687.610376 0 
L 0 0 
z
" style="fill: #ffffff"/>
  </g>
  <g id="axes_1">
   <g id="patch_2">
    <path d="M 10.810376 118.08 
L 680.410376 118.08 
L 680.410376 7.2 
L 10.810376 7.2 
z
" style="fill: #ffffff"/>
   </g>
   <g id="line2d_1">
    <path d="M 551.506444 84.603629 
L 551.615322 81.94278 
L 551.7242 79.336235 
L 551.833078 76.783993 
L 551.941956 74.286053 
L 552.050833 71.842417 
L 552.159711 69.453083 
L 552.268589 67.118053 
L 552.377467 64.837326 
L 552.486345 62.610902 
L 552.595223 60.43878 
L 552.704101 58.320962 
L 552.812978 56.257447 
L 552.921856 54.248235 
L 553.030734 52.293326 
L 553.139612 50.39272 
L 553.24849 48.546417 
L 553.357368 46.754417 
L 553.466246 45.01672 
L 553.575124 43.333326 
L 553.684001 41.704235 
L 553.792879 40.129447 
L 553.901757 38.608962 
L 554.010635 37.14278 
L 554.119513 35.730902 
L 554.228391 34.373326 
L 554.337269 33.070053 
L 554.446146 31.821083 
L 554.555024 30.626417 
L 554.663902 29.486053 
L 554.77278 28.399993 
L 554.881658 27.368235 
L 554.990536 26.39078 
L 555.099414 25.467629 
L 555.208291 24.59878 
L 555.317169 23.784235 
L 555.426047 23.023993 
L 555.534925 22.318053 
L 555.643803 21.666417 
L 555.752681 21.069083 
L 555.861559 20.526053 
L 555.970436 20.037326 
L 556.079314 19.602902 
L 556.188192 19.22278 
L 556.29707 18.896962 
L 556.405948 18.625447 
L 556.514826 18.408235 
L 556.623704 18.245326 
L 556.732581 18.13672 
L 556.841459 18.082417 
L 556.950337 18.082417 
L 557.059215 18.13672 
L 557.168093 18.245326 
L 557.276971 18.408235 
L 557.385849 18.625447 
L 557.494726 18.896962 
L 557.603604 19.22278 
L 557.712482 19.602902 
L 557.82136 20.037326 
L 557.930238 20.526053 
L 558.039116 21.069083 
L 558.147994 21.666417 
L 558.256872 22.318053 
L 558.365749 23.023993 
L 558.474627 23.784235 
L 558.583505 24.59878 
L 558.692383 25.467629 
L 558.801261 26.39078 
L 558.910139 27.368235 
L 559.019017 28.399993 
L 559.127894 29.486053 
L 559.236772 30.626417 
L 559.34565 31.821083 
L 559.454528 33.070053 
L 559.563406 34.373326 
L 559.672284 35.730902 
L 559.781162 37.14278 
L 559.890039 38.608962 
L 559.998917 40.129447 
L 560.107795 41.704235 
L 560.216673 43.333326 
L 560.325551 45.01672 
L 560.434429 46.754417 
L 560.543307 48.546417 
L 560.652184 50.39272 
L 560.761062 52.293326 
L 560.86994 54.248235 
L 560.978818 56.257447 
L 561.087696 58.320962 
L 561.196574 60.43878 
L 561.305452 62.610902 
L 561.414329 64.837326 
L 561.523207 67.118053 
L 561.632085 69.453083 
L 561.740963 71.842417 
L 561.849841 74.286053 
L 561.958719 76.783993 
L 562.067597 79.336235 
L 562.176474 81.94278 
L 562.285352 84.603629 
" clip-path="url(#p45d0cf65c1)" style="fill: none; stroke: #ffa500; stroke-opacity: 0.5; stroke-width: 5; stroke-linecap: round"/>
   </g>
   <g id="line2d_2">
    <path d="M 413.164271 84.603629 
L 413.339481 81.94278 
L 413.514691 79.336235 
L 413.6899 76.783993 
L 413.86511 74.286053 
L 414.04032 71.842417 
L 414.21553 69.453083 
L 414.39074 67.118053 
L 414.56595 64.837326 
L 414.741159 62.610902 
L 414.916369 60.43878 
L 415.091579 58.320962 
L 415.266789 56.257447 
L 415.441999 54.248235 
L 415.617209 52.293326 
L 415.792418 50.39272 
L 415.967628 48.546417 
L 416.142838 46.754417 
L 416.318048 45.01672 
L 416.493258 43.333326 
L 416.668467 41.704235 
L 416.843677 40.129447 
L 417.018887 38.608962 
L 417.194097 37.14278 
L 417.369307 35.730902 
L 417.544517 34.373326 
L 417.719726 33.070053 
L 417.894936 31.821083 
L 418.070146 30.626417 
L 418.245356 29.486053 
L 418.420566 28.399993 
L 418.595776 27.368235 
L 418.770985 26.39078 
L 418.946195 25.467629 
L 419.121405 24.59878 
L 419.296615 23.784235 
L 419.471825 23.023993 
L 419.647034 22.318053 
L 419.822244 21.666417 
L 419.997454 21.069083 
L 420.172664 20.526053 
L 420.347874 20.037326 
L 420.523084 19.602902 
L 420.698293 19.22278 
L 420.873503 18.896962 
L 421.048713 18.625447 
L 421.223923 18.408235 
L 421.399133 18.245326 
L 421.574343 18.13672 
L 421.749552 18.082417 
L 421.924762 18.082417 
L 422.099972 18.13672 
L 422.275182 18.245326 
L 422.450392 18.408235 
L 422.625601 18.625447 
L 422.800811 18.896962 
L 422.976021 19.22278 
L 423.151231 19.602902 
L 423.326441 20.037326 
L 423.501651 20.526053 
L 423.67686 21.069083 
L 423.85207 21.666417 
L 424.02728 22.318053 
L 424.20249 23.023993 
L 424.3777 23.784235 
L 424.55291 24.59878 
L 424.728119 25.467629 
L 424.903329 26.39078 
L 425.078539 27.368235 
L 425.253749 28.399993 
L 425.428959 29.486053 
L 425.604169 30.626417 
L 425.779378 31.821083 
L 425.954588 33.070053 
L 426.129798 34.373326 
L 426.305008 35.730902 
L 426.480218 37.14278 
L 426.655427 38.608962 
L 426.830637 40.129447 
L 427.005847 41.704235 
L 427.181057 43.333326 
L 427.356267 45.01672 
L 427.531477 46.754417 
L 427.706686 48.546417 
L 427.881896 50.39272 
L 428.057106 52.293326 
L 428.232316 54.248235 
L 428.407526 56.257447 
L 428.582736 58.320962 
L 428.757945 60.43878 
L 428.933155 62.610902 
L 429.108365 64.837326 
L 429.283575 67.118053 
L 429.458785 69.453083 
L 429.633994 71.842417 
L 429.809204 74.286053 
L 429.984414 76.783993 
L 430.159624 79.336235 
L 430.334834 81.94278 
L 430.510044 84.603629 
" clip-path="url(#p45d0cf65c1)" style="fill: none; stroke: #ffa500; stroke-opacity: 0.5; stroke-width: 5; stroke-linecap: round"/>
   </g>
   <g id="line2d_3">
    <path d="M 399.644302 84.603629 
L 399.71697 81.94278 
L 399.789637 79.336235 
L 399.862305 76.783993 
L 399.934973 74.286053 
L 400.007641 71.842417 
L 400.080309 69.453083 
L 400.152977 67.118053 
L 400.225644 64.837326 
L 400.298312 62.610902 
L 400.37098 60.43878 
L 400.443648 58.320962 
L 400.516316 56.257447 
L 400.588984 54.248235 
L 400.661651 52.293326 
L 400.734319 50.39272 
L 400.806987 48.546417 
L 400.879655 46.754417 
L 400.952323 45.01672 
L 401.02499 43.333326 
L 401.097658 41.704235 
L 401.170326 40.129447 
L 401.242994 38.608962 
L 401.315662 37.14278 
L 401.38833 35.730902 
L 401.460997 34.373326 
L 401.533665 33.070053 
L 401.606333 31.821083 
L 401.679001 30.626417 
L 401.751669 29.486053 
L 401.824337 28.399993 
L 401.897004 27.368235 
L 401.969672 26.39078 
L 402.04234 25.467629 
L 402.115008 24.59878 
L 402.187676 23.784235 
L 402.260344 23.023993 
L 402.333011 22.318053 
L 402.405679 21.666417 
L 402.478347 21.069083 
L 402.551015 20.526053 
L 402.623683 20.037326 
L 402.696351 19.602902 
L 402.769018 19.22278 
L 402.841686 18.896962 
L 402.914354 18.625447 
L 402.987022 18.408235 
L 403.05969 18.245326 
L 403.132357 18.13672 
L 403.205025 18.082417 
L 403.277693 18.082417 
L 403.350361 18.13672 
L 403.423029 18.245326 
L 403.495697 18.408235 
L 403.568364 18.625447 
L 403.641032 18.896962 
L 403.7137 19.22278 
L 403.786368 19.602902 
L 403.859036 20.037326 
L 403.931704 20.526053 
L 404.004371 21.069083 
L 404.077039 21.666417 
L 404.149707 22.318053 
L 404.222375 23.023993 
L 404.295043 23.784235 
L 404.367711 24.59878 
L 404.440378 25.467629 
L 404.513046 26.39078 
L 404.585714 27.368235 
L 404.658382 28.399993 
L 404.73105 29.486053 
L 404.803718 30.626417 
L 404.876385 31.821083 
L 404.949053 33.070053 
L 405.021721 34.373326 
L 405.094389 35.730902 
L 405.167057 37.14278 
L 405.239725 38.608962 
L 405.312392 40.129447 
L 405.38506 41.704235 
L 405.457728 43.333326 
L 405.530396 45.01672 
L 405.603064 46.754417 
L 405.675731 48.546417 
L 405.748399 50.39272 
L 405.821067 52.293326 
L 405.893735 54.248235 
L 405.966403 56.257447 
L 406.039071 58.320962 
L 406.111738 60.43878 
L 406.184406 62.610902 
L 406.257074 64.837326 
L 406.329742 67.118053 
L 406.40241 69.453083 
L 406.475078 71.842417 
L 406.547745 74.286053 
L 406.620413 76.783993 
L 406.693081 79.336235 
L 406.765749 81.94278 
L 406.838417 84.603629 
" clip-path="url(#p45d0cf65c1)" style="fill: none; stroke: #ffa500; stroke-opacity: 0.5; stroke-width: 5; stroke-linecap: round"/>
   </g>
   <g id="line2d_4">
    <path d="M 265.071843 84.603629 
L 265.145833 81.94278 
L 265.219823 79.336235 
L 265.293814 76.783993 
L 265.367804 74.286053 
L 265.441794 71.842417 
L 265.515784 69.453083 
L 265.589774 67.118053 
L 265.663765 64.837326 
L 265.737755 62.610902 
L 265.811745 60.43878 
L 265.885735 58.320962 
L 265.959725 56.257447 
L 266.033716 54.248235 
L 266.107706 52.293326 
L 266.181696 50.39272 
L 266.255686 48.546417 
L 266.329676 46.754417 
L 266.403667 45.01672 
L 266.477657 43.333326 
L 266.551647 41.704235 
L 266.625637 40.129447 
L 266.699627 38.608962 
L 266.773617 37.14278 
L 266.847608 35.730902 
L 266.921598 34.373326 
L 266.995588 33.070053 
L 267.069578 31.821083 
L 267.143568 30.626417 
L 267.217559 29.486053 
L 267.291549 28.399993 
L 267.365539 27.368235 
L 267.439529 26.39078 
L 267.513519 25.467629 
L 267.58751 24.59878 
L 267.6615 23.784235 
L 267.73549 23.023993 
L 267.80948 22.318053 
L 267.88347 21.666417 
L 267.957461 21.069083 
L 268.031451 20.526053 
L 268.105441 20.037326 
L 268.179431 19.602902 
L 268.253421 19.22278 
L 268.327412 18.896962 
L 268.401402 18.625447 
L 268.475392 18.408235 
L 268.549382 18.245326 
L 268.623372 18.13672 
L 268.697362 18.082417 
L 268.771353 18.082417 
L 268.845343 18.13672 
L 268.919333 18.245326 
L 268.993323 18.408235 
L 269.067313 18.625447 
L 269.141304 18.896962 
L 269.215294 19.22278 
L 269.289284 19.602902 
L 269.363274 20.037326 
L 269.437264 20.526053 
L 269.511255 21.069083 
L 269.585245 21.666417 
L 269.659235 22.318053 
L 269.733225 23.023993 
L 269.807215 23.784235 
L 269.881206 24.59878 
L 269.955196 25.467629 
L 270.029186 26.39078 
L 270.103176 27.368235 
L 270.177166 28.399993 
L 270.251157 29.486053 
L 270.325147 30.626417 
L 270.399137 31.821083 
L 270.473127 33.070053 
L 270.547117 34.373326 
L 270.621107 35.730902 
L 270.695098 37.14278 
L 270.769088 38.608962 
L 270.843078 40.129447 
L 270.917068 41.704235 
L 270.991058 43.333326 
L 271.065049 45.01672 
L 271.139039 46.754417 
L 271.213029 48.546417 
L 271.287019 50.39272 
L 271.361009 52.293326 
L 271.435 54.248235 
L 271.50899 56.257447 
L 271.58298 58.320962 
L 271.65697 60.43878 
L 271.73096 62.610902 
L 271.804951 64.837326 
L 271.878941 67.118053 
L 271.952931 69.453083 
L 272.026921 71.842417 
L 272.100911 74.286053 
L 272.174902 76.783993 
L 272.248892 79.336235 
L 272.322882 81.94278 
L 272.396872 84.603629 
" clip-path="url(#p45d0cf65c1)" style="fill: none; stroke: #ffa500; stroke-opacity: 0.5; stroke-width: 5; stroke-linecap: round"/>
   </g>
   <g id="line2d_5">
    <path d="M 237.811811 84.603629 
L 237.90068 81.94278 
L 237.989549 79.336235 
L 238.078419 76.783993 
L 238.167288 74.286053 
L 238.256157 71.842417 
L 238.345026 69.453083 
L 238.433896 67.118053 
L 238.522765 64.837326 
L 238.611634 62.610902 
L 238.700504 60.43878 
L 238.789373 58.320962 
L 238.878242 56.257447 
L 238.967112 54.248235 
L 239.055981 52.293326 
L 239.14485 50.39272 
L 239.233719 48.546417 
L 239.322589 46.754417 
L 239.411458 45.01672 
L 239.500327 43.333326 
L 239.589197 41.704235 
L 239.678066 40.129447 
L 239.766935 38.608962 
L 239.855804 37.14278 
L 239.944674 35.730902 
L 240.033543 34.373326 
L 240.122412 33.070053 
L 240.211282 31.821083 
L 240.300151 30.626417 
L 240.38902 29.486053 
L 240.477889 28.399993 
L 240.566759 27.368235 
L 240.655628 26.39078 
L 240.744497 25.467629 
L 240.833367 24.59878 
L 240.922236 23.784235 
L 241.011105 23.023993 
L 241.099974 22.318053 
L 241.188844 21.666417 
L 241.277713 21.069083 
L 241.366582 20.526053 
L 241.455452 20.037326 
L 241.544321 19.602902 
L 241.63319 19.22278 
L 241.722059 18.896962 
L 241.810929 18.625447 
L 241.899798 18.408235 
L 241.988667 18.245326 
L 242.077537 18.13672 
L 242.166406 18.082417 
L 242.255275 18.082417 
L 242.344144 18.13672 
L 242.433014 18.245326 
L 242.521883 18.408235 
L 242.610752 18.625447 
L 242.699622 18.896962 
L 242.788491 19.22278 
L 242.87736 19.602902 
L 242.966229 20.037326 
L 243.055099 20.526053 
L 243.143968 21.069083 
L 243.232837 21.666417 
L 243.321707 22.318053 
L 243.410576 23.023993 
L 243.499445 23.784235 
L 243.588314 24.59878 
L 243.677184 25.467629 
L 243.766053 26.39078 
L 243.854922 27.368235 
L 243.943792 28.399993 
L 244.032661 29.486053 
L 244.12153 30.626417 
L 244.210399 31.821083 
L 244.299269 33.070053 
L 244.388138 34.373326 
L 244.477007 35.730902 
L 244.565877 37.14278 
L 244.654746 38.608962 
L 244.743615 40.129447 
L 244.832484 41.704235 
L 244.921354 43.333326 
L 245.010223 45.01672 
L 245.099092 46.754417 
L 245.187962 48.546417 
L 245.276831 50.39272 
L 245.3657 52.293326 
L 245.454569 54.248235 
L 245.543439 56.257447 
L 245.632308 58.320962 
L 245.721177 60.43878 
L 245.810047 62.610902 
L 245.898916 64.837326 
L 245.987785 67.118053 
L 246.076654 69.453083 
L 246.165524 71.842417 
L 246.254393 74.286053 
L 246.343262 76.783993 
L 246.432132 79.336235 
L 246.521001 81.94278 
L 246.60987 84.603629 
" clip-path="url(#p45d0cf65c1)" style="fill: none; stroke: #ffa500; stroke-opacity: 0.5; stroke-width: 5; stroke-linecap: round"/>
   </g>
   <g id="line2d_6">
    <path d="M 109.37554 84.603629 
L 109.576973 81.94278 
L 109.778407 79.336235 
L 109.97984 76.783993 
L 110.181274 74.286053 
L 110.382707 71.842417 
L 110.58414 69.453083 
L 110.785574 67.118053 
L 110.987007 64.837326 
L 111.18844 62.610902 
L 111.389874 60.43878 
L 111.591307 58.320962 
L 111.79274 56.257447 
L 111.994174 54.248235 
L 112.195607 52.293326 
L 112.397041 50.39272 
L 112.598474 48.546417 
L 112.799907 46.754417 
L 113.001341 45.01672 
L 113.202774 43.333326 
L 113.404207 41.704235 
L 113.605641 40.129447 
L 113.807074 38.608962 
L 114.008507 37.14278 
L 114.209941 35.730902 
L 114.411374 34.373326 
L 114.612807 33.070053 
L 114.814241 31.821083 
L 115.015674 30.626417 
L 115.217108 29.486053 
L 115.418541 28.399993 
L 115.619974 27.368235 
L 115.821408 26.39078 
L 116.022841 25.467629 
L 116.224274 24.59878 
L 116.425708 23.784235 
L 116.627141 23.023993 
L 116.828574 22.318053 
L 117.030008 21.666417 
L 117.231441 21.069083 
L 117.432875 20.526053 
L 117.634308 20.037326 
L 117.835741 19.602902 
L 118.037175 19.22278 
L 118.238608 18.896962 
L 118.440041 18.625447 
L 118.641475 18.408235 
L 118.842908 18.245326 
L 119.044341 18.13672 
L 119.245775 18.082417 
L 119.447208 18.082417 
L 119.648641 18.13672 
L 119.850075 18.245326 
L 120.051508 18.408235 
L 120.252942 18.625447 
L 120.454375 18.896962 
L 120.655808 19.22278 
L 120.857242 19.602902 
L 121.058675 20.037326 
L 121.260108 20.526053 
L 121.461542 21.069083 
L 121.662975 21.666417 
L 121.864408 22.318053 
L 122.065842 23.023993 
L 122.267275 23.784235 
L 122.468709 24.59878 
L 122.670142 25.467629 
L 122.871575 26.39078 
L 123.073009 27.368235 
L 123.274442 28.399993 
L 123.475875 29.486053 
L 123.677309 30.626417 
L 123.878742 31.821083 
L 124.080175 33.070053 
L 124.281609 34.373326 
L 124.483042 35.730902 
L 124.684475 37.14278 
L 124.885909 38.608962 
L 125.087342 40.129447 
L 125.288776 41.704235 
L 125.490209 43.333326 
L 125.691642 45.01672 
L 125.893076 46.754417 
L 126.094509 48.546417 
L 126.295942 50.39272 
L 126.497376 52.293326 
L 126.698809 54.248235 
L 126.900242 56.257447 
L 127.101676 58.320962 
L 127.303109 60.43878 
L 127.504543 62.610902 
L 127.705976 64.837326 
L 127.907409 67.118053 
L 128.108843 69.453083 
L 128.310276 71.842417 
L 128.511709 74.286053 
L 128.713143 76.783993 
L 128.914576 79.336235 
L 129.116009 81.94278 
L 129.317443 84.603629 
" clip-path="url(#p45d0cf65c1)" style="fill: none; stroke: #ffa500; stroke-opacity: 0.5; stroke-width: 5; stroke-linecap: round"/>
   </g>
   <g id="line2d_7">
    <path d="M 14.282577 84.603629 
L 15.193963 81.94278 
L 16.105348 79.336235 
L 17.016734 76.783993 
L 17.92812 74.286053 
L 18.839506 71.842417 
L 19.750891 69.453083 
L 20.662277 67.118053 
L 21.573663 64.837326 
L 22.485049 62.610902 
L 23.396434 60.43878 
L 24.30782 58.320962 
L 25.219206 56.257447 
L 26.130591 54.248235 
L 27.041977 52.293326 
L 27.953363 50.39272 
L 28.864749 48.546417 
L 29.776134 46.754417 
L 30.68752 45.01672 
L 31.598906 43.333326 
L 32.510291 41.704235 
L 33.421677 40.129447 
L 34.333063 38.608962 
L 35.244449 37.14278 
L 36.155834 35.730902 
L 37.06722 34.373326 
L 37.978606 33.070053 
L 38.889992 31.821083 
L 39.801377 30.626417 
L 40.712763 29.486053 
L 41.624149 28.399993 
L 42.535534 27.368235 
L 43.44692 26.39078 
L 44.358306 25.467629 
L 45.269692 24.59878 
L 46.181077 23.784235 
L 47.092463 23.023993 
L 48.003849 22.318053 
L 48.915235 21.666417 
L 49.82662 21.069083 
L 50.738006 20.526053 
L 51.649392 20.037326 
L 52.560777 19.602902 
L 53.472163 19.22278 
L 54.383549 18.896962 
L 55.294935 18.625447 
L 56.20632 18.408235 
L 57.117706 18.245326 
L 58.029092 18.13672 
L 58.940478 18.082417 
L 59.851863 18.082417 
L 60.763249 18.13672 
L 61.674635 18.245326 
L 62.58602 18.408235 
L 63.497406 18.625447 
L 64.408792 18.896962 
L 65.320178 19.22278 
L 66.231563 19.602902 
L 67.142949 20.037326 
L 68.054335 20.526053 
L 68.96572 21.069083 
L 69.877106 21.666417 
L 70.788492 22.318053 
L 71.699878 23.023993 
L 72.611263 23.784235 
L 73.522649 24.59878 
L 74.434035 25.467629 
L 75.345421 26.39078 
L 76.256806 27.368235 
L 77.168192 28.399993 
L 78.079578 29.486053 
L 78.990963 30.626417 
L 79.902349 31.821083 
L 80.813735 33.070053 
L 81.725121 34.373326 
L 82.636506 35.730902 
L 83.547892 37.14278 
L 84.459278 38.608962 
L 85.370664 40.129447 
L 86.282049 41.704235 
L 87.193435 43.333326 
L 88.104821 45.01672 
L 89.016206 46.754417 
L 89.927592 48.546417 
L 90.838978 50.39272 
L 91.750364 52.293326 
L 92.661749 54.248235 
L 93.573135 56.257447 
L 94.484521 58.320962 
L 95.395906 60.43878 
L 96.307292 62.610902 
L 97.218678 64.837326 
L 98.130064 67.118053 
L 99.041449 69.453083 
L 99.952835 71.842417 
L 100.864221 74.286053 
L 101.775607 76.783993 
L 102.686992 79.336235 
L 103.598378 81.94278 
L 104.509764 84.603629 
" clip-path="url(#p45d0cf65c1)" style="fill: none; stroke: #ffa500; stroke-opacity: 0.5; stroke-width: 5; stroke-linecap: round"/>
   </g>
   <g id="patch_3">
    <path d="M 12.0928 95.691642 
L 260.455528 95.691642 
L 260.455528 84.603642 
L 12.0928 84.603642 
z
" clip-path="url(#p45d0cf65c1)" style="fill: #ebeaea"/>
   </g>
   <g id="patch_4">
    <path d="M 284.821579 95.691642 
L 679.127953 95.691642 
L 679.127953 84.603642 
L 284.821579 84.603642 
z
" clip-path="url(#p45d0cf65c1)" style="fill: #ebeaea"/>
   </g>
   <g id="patch_5">
    <path d="M 12.0928 95.691642 
L 260.455528 95.691642 
L 260.455528 84.603642 
L 12.0928 84.603642 
L 12.0928 95.691642 
z
" clip-path="url(#p45d0cf65c1)" style="fill: none; stroke: #000000; stroke-width: 0.7; stroke-linejoin: miter"/>
   </g>
   <g id="patch_6">
    <path d="M 284.821579 95.691642 
L 679.127953 95.691642 
L 679.127953 84.603642 
L 284.821579 84.603642 
L 284.821579 95.691642 
z
" clip-path="url(#p45d0cf65c1)" style="fill: none; stroke: #000000; stroke-width: 0.7; stroke-linejoin: miter"/>
   </g>
   <g id="matplotlib.axis_1">
    <g id="xtick_1">
     <g id="line2d_8">
      <defs>
       <path id="m65bd85ac96" d="M 0 0 
L 0 3.84 
" style="stroke: #262626; stroke-width: 0.8"/>
      </defs>
      <g>
       <use xlink:href="#m65bd85ac96" x="12.0928" y="118.08" style="fill: #262626; stroke: #262626; stroke-width: 0.8"/>
      </g>
     </g>
     <g id="text_1">
      <!-- 0.0 -->
      <g style="fill: #262626" transform="translate(7.2 130.4591) scale(0.0704 -0.0704)">
       <defs>
        <path id="ArialMT-30" d="M 266 2259 
Q 266 3072 433 3567 
Q 600 4063 929 4331 
Q 1259 4600 1759 4600 
Q 2128 4600 2406 4451 
Q 2684 4303 2865 4023 
Q 3047 3744 3150 3342 
Q 3253 2941 3253 2259 
Q 3253 1453 3087 958 
Q 2922 463 2592 192 
Q 2263 -78 1759 -78 
Q 1097 -78 719 397 
Q 266 969 266 2259 
z
M 844 2259 
Q 844 1131 1108 757 
Q 1372 384 1759 384 
Q 2147 384 2411 759 
Q 2675 1134 2675 2259 
Q 2675 3391 2411 3762 
Q 2147 4134 1753 4134 
Q 1366 4134 1134 3806 
Q 844 3388 844 2259 
z
" transform="scale(0.015625)"/>
        <path id="ArialMT-2e" d="M 581 0 
L 581 641 
L 1222 641 
L 1222 0 
L 581 0 
z
" transform="scale(0.015625)"/>
       </defs>
       <use xlink:href="#ArialMT-30"/>
       <use xlink:href="#ArialMT-2e" transform="translate(55.615234 0)"/>
       <use xlink:href="#ArialMT-30" transform="translate(83.398438 0)"/>
      </g>
     </g>
    </g>
    <g id="xtick_2">
     <g id="line2d_9">
      <g>
       <use xlink:href="#m65bd85ac96" x="54.840257" y="118.08" style="fill: #262626; stroke: #262626; stroke-width: 0.8"/>
      </g>
     </g>
     <g id="text_2">
      <!-- 0.1 -->
      <g style="fill: #262626" transform="translate(49.947457 130.4591) scale(0.0704 -0.0704)">
       <defs>
        <path id="ArialMT-31" d="M 2384 0 
L 1822 0 
L 1822 3584 
Q 1619 3391 1289 3197 
Q 959 3003 697 2906 
L 697 3450 
Q 1169 3672 1522 3987 
Q 1875 4303 2022 4600 
L 2384 4600 
L 2384 0 
z
" transform="scale(0.015625)"/>
       </defs>
       <use xlink:href="#ArialMT-30"/>
       <use xlink:href="#ArialMT-2e" transform="translate(55.615234 0)"/>
       <use xlink:href="#ArialMT-31" transform="translate(83.398438 0)"/>
      </g>
     </g>
    </g>
    <g id="xtick_3">
     <g id="line2d_10">
      <g>
       <use xlink:href="#m65bd85ac96" x="97.587715" y="118.08" style="fill: #262626; stroke: #262626; stroke-width: 0.8"/>
      </g>
     </g>
     <g id="text_3">
      <!-- 0.2 -->
      <g style="fill: #262626" transform="translate(92.694915 130.4591) scale(0.0704 -0.0704)">
       <defs>
        <path id="ArialMT-32" d="M 3222 541 
L 3222 0 
L 194 0 
Q 188 203 259 391 
Q 375 700 629 1000 
Q 884 1300 1366 1694 
Q 2113 2306 2375 2664 
Q 2638 3022 2638 3341 
Q 2638 3675 2398 3904 
Q 2159 4134 1775 4134 
Q 1369 4134 1125 3890 
Q 881 3647 878 3216 
L 300 3275 
Q 359 3922 746 4261 
Q 1134 4600 1788 4600 
Q 2447 4600 2831 4234 
Q 3216 3869 3216 3328 
Q 3216 3053 3103 2787 
Q 2991 2522 2730 2228 
Q 2469 1934 1863 1422 
Q 1356 997 1212 845 
Q 1069 694 975 541 
L 3222 541 
z
" transform="scale(0.015625)"/>
       </defs>
       <use xlink:href="#ArialMT-30"/>
       <use xlink:href="#ArialMT-2e" transform="translate(55.615234 0)"/>
       <use xlink:href="#ArialMT-32" transform="translate(83.398438 0)"/>
      </g>
     </g>
    </g>
    <g id="xtick_4">
     <g id="line2d_11">
      <g>
       <use xlink:href="#m65bd85ac96" x="140.335172" y="118.08" style="fill: #262626; stroke: #262626; stroke-width: 0.8"/>
      </g>
     </g>
     <g id="text_4">
      <!-- 0.3 -->
      <g style="fill: #262626" transform="translate(135.442372 130.4591) scale(0.0704 -0.0704)">
       <defs>
        <path id="ArialMT-33" d="M 269 1209 
L 831 1284 
Q 928 806 1161 595 
Q 1394 384 1728 384 
Q 2125 384 2398 659 
Q 2672 934 2672 1341 
Q 2672 1728 2419 1979 
Q 2166 2231 1775 2231 
Q 1616 2231 1378 2169 
L 1441 2663 
Q 1497 2656 1531 2656 
Q 1891 2656 2178 2843 
Q 2466 3031 2466 3422 
Q 2466 3731 2256 3934 
Q 2047 4138 1716 4138 
Q 1388 4138 1169 3931 
Q 950 3725 888 3313 
L 325 3413 
Q 428 3978 793 4289 
Q 1159 4600 1703 4600 
Q 2078 4600 2393 4439 
Q 2709 4278 2876 4000 
Q 3044 3722 3044 3409 
Q 3044 3113 2884 2869 
Q 2725 2625 2413 2481 
Q 2819 2388 3044 2092 
Q 3269 1797 3269 1353 
Q 3269 753 2831 336 
Q 2394 -81 1725 -81 
Q 1122 -81 723 278 
Q 325 638 269 1209 
z
" transform="scale(0.015625)"/>
       </defs>
       <use xlink:href="#ArialMT-30"/>
       <use xlink:href="#ArialMT-2e" transform="translate(55.615234 0)"/>
       <use xlink:href="#ArialMT-33" transform="translate(83.398438 0)"/>
      </g>
     </g>
    </g>
    <g id="xtick_5">
     <g id="line2d_12">
      <g>
       <use xlink:href="#m65bd85ac96" x="183.08263" y="118.08" style="fill: #262626; stroke: #262626; stroke-width: 0.8"/>
      </g>
     </g>
     <g id="text_5">
      <!-- 0.4 -->
      <g style="fill: #262626" transform="translate(178.18983 130.4591) scale(0.0704 -0.0704)">
       <defs>
        <path id="ArialMT-34" d="M 2069 0 
L 2069 1097 
L 81 1097 
L 81 1613 
L 2172 4581 
L 2631 4581 
L 2631 1613 
L 3250 1613 
L 3250 1097 
L 2631 1097 
L 2631 0 
L 2069 0 
z
M 2069 1613 
L 2069 3678 
L 634 1613 
L 2069 1613 
z
" transform="scale(0.015625)"/>
       </defs>
       <use xlink:href="#ArialMT-30"/>
       <use xlink:href="#ArialMT-2e" transform="translate(55.615234 0)"/>
       <use xlink:href="#ArialMT-34" transform="translate(83.398438 0)"/>
      </g>
     </g>
    </g>
    <g id="xtick_6">
     <g id="line2d_13">
      <g>
       <use xlink:href="#m65bd85ac96" x="225.830087" y="118.08" style="fill: #262626; stroke: #262626; stroke-width: 0.8"/>
      </g>
     </g>
     <g id="text_6">
      <!-- 0.5 -->
      <g style="fill: #262626" transform="translate(220.937287 130.4591) scale(0.0704 -0.0704)">
       <defs>
        <path id="ArialMT-35" d="M 266 1200 
L 856 1250 
Q 922 819 1161 601 
Q 1400 384 1738 384 
Q 2144 384 2425 690 
Q 2706 997 2706 1503 
Q 2706 1984 2436 2262 
Q 2166 2541 1728 2541 
Q 1456 2541 1237 2417 
Q 1019 2294 894 2097 
L 366 2166 
L 809 4519 
L 3088 4519 
L 3088 3981 
L 1259 3981 
L 1013 2750 
Q 1425 3038 1878 3038 
Q 2478 3038 2890 2622 
Q 3303 2206 3303 1553 
Q 3303 931 2941 478 
Q 2500 -78 1738 -78 
Q 1113 -78 717 272 
Q 322 622 266 1200 
z
" transform="scale(0.015625)"/>
       </defs>
       <use xlink:href="#ArialMT-30"/>
       <use xlink:href="#ArialMT-2e" transform="translate(55.615234 0)"/>
       <use xlink:href="#ArialMT-35" transform="translate(83.398438 0)"/>
      </g>
     </g>
    </g>
    <g id="xtick_7">
     <g id="line2d_14">
      <g>
       <use xlink:href="#m65bd85ac96" x="268.577545" y="118.08" style="fill: #262626; stroke: #262626; stroke-width: 0.8"/>
      </g>
     </g>
     <g id="text_7">
      <!-- 0.6 -->
      <g style="fill: #262626" transform="translate(263.684745 130.4591) scale(0.0704 -0.0704)">
       <defs>
        <path id="ArialMT-36" d="M 3184 3459 
L 2625 3416 
Q 2550 3747 2413 3897 
Q 2184 4138 1850 4138 
Q 1581 4138 1378 3988 
Q 1113 3794 959 3422 
Q 806 3050 800 2363 
Q 1003 2672 1297 2822 
Q 1591 2972 1913 2972 
Q 2475 2972 2870 2558 
Q 3266 2144 3266 1488 
Q 3266 1056 3080 686 
Q 2894 316 2569 119 
Q 2244 -78 1831 -78 
Q 1128 -78 684 439 
Q 241 956 241 2144 
Q 241 3472 731 4075 
Q 1159 4600 1884 4600 
Q 2425 4600 2770 4297 
Q 3116 3994 3184 3459 
z
M 888 1484 
Q 888 1194 1011 928 
Q 1134 663 1356 523 
Q 1578 384 1822 384 
Q 2178 384 2434 671 
Q 2691 959 2691 1453 
Q 2691 1928 2437 2201 
Q 2184 2475 1800 2475 
Q 1419 2475 1153 2201 
Q 888 1928 888 1484 
z
" transform="scale(0.015625)"/>
       </defs>
       <use xlink:href="#ArialMT-30"/>
       <use xlink:href="#ArialMT-2e" transform="translate(55.615234 0)"/>
       <use xlink:href="#ArialMT-36" transform="translate(83.398438 0)"/>
      </g>
     </g>
    </g>
    <g id="xtick_8">
     <g id="line2d_15">
      <g>
       <use xlink:href="#m65bd85ac96" x="311.325002" y="118.08" style="fill: #262626; stroke: #262626; stroke-width: 0.8"/>
      </g>
     </g>
     <g id="text_8">
      <!-- 0.7 -->
      <g style="fill: #262626" transform="translate(306.432202 130.4591) scale(0.0704 -0.0704)">
       <defs>
        <path id="ArialMT-37" d="M 303 3981 
L 303 4522 
L 3269 4522 
L 3269 4084 
Q 2831 3619 2401 2847 
Q 1972 2075 1738 1259 
Q 1569 684 1522 0 
L 944 0 
Q 953 541 1156 1306 
Q 1359 2072 1739 2783 
Q 2119 3494 2547 3981 
L 303 3981 
z
" transform="scale(0.015625)"/>
       </defs>
       <use xlink:href="#ArialMT-30"/>
       <use xlink:href="#ArialMT-2e" transform="translate(55.615234 0)"/>
       <use xlink:href="#ArialMT-37" transform="translate(83.398438 0)"/>
      </g>
     </g>
    </g>
    <g id="xtick_9">
     <g id="line2d_16">
      <g>
       <use xlink:href="#m65bd85ac96" x="354.07246" y="118.08" style="fill: #262626; stroke: #262626; stroke-width: 0.8"/>
      </g>
     </g>
     <g id="text_9">
      <!-- 0.8 -->
      <g style="fill: #262626" transform="translate(349.17966 130.4591) scale(0.0704 -0.0704)">
       <defs>
        <path id="ArialMT-38" d="M 1131 2484 
Q 781 2613 612 2850 
Q 444 3088 444 3419 
Q 444 3919 803 4259 
Q 1163 4600 1759 4600 
Q 2359 4600 2725 4251 
Q 3091 3903 3091 3403 
Q 3091 3084 2923 2848 
Q 2756 2613 2416 2484 
Q 2838 2347 3058 2040 
Q 3278 1734 3278 1309 
Q 3278 722 2862 322 
Q 2447 -78 1769 -78 
Q 1091 -78 675 323 
Q 259 725 259 1325 
Q 259 1772 486 2073 
Q 713 2375 1131 2484 
z
M 1019 3438 
Q 1019 3113 1228 2906 
Q 1438 2700 1772 2700 
Q 2097 2700 2305 2904 
Q 2513 3109 2513 3406 
Q 2513 3716 2298 3927 
Q 2084 4138 1766 4138 
Q 1444 4138 1231 3931 
Q 1019 3725 1019 3438 
z
M 838 1322 
Q 838 1081 952 856 
Q 1066 631 1291 507 
Q 1516 384 1775 384 
Q 2178 384 2440 643 
Q 2703 903 2703 1303 
Q 2703 1709 2433 1975 
Q 2163 2241 1756 2241 
Q 1359 2241 1098 1978 
Q 838 1716 838 1322 
z
" transform="scale(0.015625)"/>
       </defs>
       <use xlink:href="#ArialMT-30"/>
       <use xlink:href="#ArialMT-2e" transform="translate(55.615234 0)"/>
       <use xlink:href="#ArialMT-38" transform="translate(83.398438 0)"/>
      </g>
     </g>
    </g>
    <g id="xtick_10">
     <g id="line2d_17">
      <g>
       <use xlink:href="#m65bd85ac96" x="396.819917" y="118.08" style="fill: #262626; stroke: #262626; stroke-width: 0.8"/>
      </g>
     </g>
     <g id="text_10">
      <!-- 0.9 -->
      <g style="fill: #262626" transform="translate(391.927117 130.4591) scale(0.0704 -0.0704)">
       <defs>
        <path id="ArialMT-39" d="M 350 1059 
L 891 1109 
Q 959 728 1153 556 
Q 1347 384 1650 384 
Q 1909 384 2104 503 
Q 2300 622 2425 820 
Q 2550 1019 2634 1356 
Q 2719 1694 2719 2044 
Q 2719 2081 2716 2156 
Q 2547 1888 2255 1720 
Q 1963 1553 1622 1553 
Q 1053 1553 659 1965 
Q 266 2378 266 3053 
Q 266 3750 677 4175 
Q 1088 4600 1706 4600 
Q 2153 4600 2523 4359 
Q 2894 4119 3086 3673 
Q 3278 3228 3278 2384 
Q 3278 1506 3087 986 
Q 2897 466 2520 194 
Q 2144 -78 1638 -78 
Q 1100 -78 759 220 
Q 419 519 350 1059 
z
M 2653 3081 
Q 2653 3566 2395 3850 
Q 2138 4134 1775 4134 
Q 1400 4134 1122 3828 
Q 844 3522 844 3034 
Q 844 2597 1108 2323 
Q 1372 2050 1759 2050 
Q 2150 2050 2401 2323 
Q 2653 2597 2653 3081 
z
" transform="scale(0.015625)"/>
       </defs>
       <use xlink:href="#ArialMT-30"/>
       <use xlink:href="#ArialMT-2e" transform="translate(55.615234 0)"/>
       <use xlink:href="#ArialMT-39" transform="translate(83.398438 0)"/>
      </g>
     </g>
    </g>
    <g id="xtick_11">
     <g id="line2d_18">
      <g>
       <use xlink:href="#m65bd85ac96" x="439.567375" y="118.08" style="fill: #262626; stroke: #262626; stroke-width: 0.8"/>
      </g>
     </g>
     <g id="text_11">
      <!-- 1.0 -->
      <g style="fill: #262626" transform="translate(434.674575 130.4591) scale(0.0704 -0.0704)">
       <use xlink:href="#ArialMT-31"/>
       <use xlink:href="#ArialMT-2e" transform="translate(55.615234 0)"/>
       <use xlink:href="#ArialMT-30" transform="translate(83.398438 0)"/>
      </g>
     </g>
    </g>
    <g id="xtick_12">
     <g id="line2d_19">
      <g>
       <use xlink:href="#m65bd85ac96" x="482.314832" y="118.08" style="fill: #262626; stroke: #262626; stroke-width: 0.8"/>
      </g>
     </g>
     <g id="text_12">
      <!-- 1.1 -->
      <g style="fill: #262626" transform="translate(477.422032 130.4591) scale(0.0704 -0.0704)">
       <use xlink:href="#ArialMT-31"/>
       <use xlink:href="#ArialMT-2e" transform="translate(55.615234 0)"/>
       <use xlink:href="#ArialMT-31" transform="translate(83.398438 0)"/>
      </g>
     </g>
    </g>
    <g id="xtick_13">
     <g id="line2d_20">
      <g>
       <use xlink:href="#m65bd85ac96" x="525.06229" y="118.08" style="fill: #262626; stroke: #262626; stroke-width: 0.8"/>
      </g>
     </g>
     <g id="text_13">
      <!-- 1.2 -->
      <g style="fill: #262626" transform="translate(520.16949 130.4591) scale(0.0704 -0.0704)">
       <use xlink:href="#ArialMT-31"/>
       <use xlink:href="#ArialMT-2e" transform="translate(55.615234 0)"/>
       <use xlink:href="#ArialMT-32" transform="translate(83.398438 0)"/>
      </g>
     </g>
    </g>
    <g id="xtick_14">
     <g id="line2d_21">
      <g>
       <use xlink:href="#m65bd85ac96" x="567.809747" y="118.08" style="fill: #262626; stroke: #262626; stroke-width: 0.8"/>
      </g>
     </g>
     <g id="text_14">
      <!-- 1.3 -->
      <g style="fill: #262626" transform="translate(562.916947 130.4591) scale(0.0704 -0.0704)">
       <use xlink:href="#ArialMT-31"/>
       <use xlink:href="#ArialMT-2e" transform="translate(55.615234 0)"/>
       <use xlink:href="#ArialMT-33" transform="translate(83.398438 0)"/>
      </g>
     </g>
    </g>
    <g id="xtick_15">
     <g id="line2d_22">
      <g>
       <use xlink:href="#m65bd85ac96" x="610.557205" y="118.08" style="fill: #262626; stroke: #262626; stroke-width: 0.8"/>
      </g>
     </g>
     <g id="text_15">
      <!-- 1.4 -->
      <g style="fill: #262626" transform="translate(605.664405 130.4591) scale(0.0704 -0.0704)">
       <use xlink:href="#ArialMT-31"/>
       <use xlink:href="#ArialMT-2e" transform="translate(55.615234 0)"/>
       <use xlink:href="#ArialMT-34" transform="translate(83.398438 0)"/>
      </g>
     </g>
    </g>
    <g id="xtick_16">
     <g id="line2d_23">
      <g>
       <use xlink:href="#m65bd85ac96" x="653.304662" y="118.08" style="fill: #262626; stroke: #262626; stroke-width: 0.8"/>
      </g>
     </g>
     <g id="text_16">
      <!-- 1.5 -->
      <g style="fill: #262626" transform="translate(648.411862 130.4591) scale(0.0704 -0.0704)">
       <use xlink:href="#ArialMT-31"/>
       <use xlink:href="#ArialMT-2e" transform="translate(55.615234 0)"/>
       <use xlink:href="#ArialMT-35" transform="translate(83.398438 0)"/>
      </g>
     </g>
    </g>
    <g id="xtick_17">
     <g id="line2d_24">
      <defs>
       <path id="m93c3be1850" d="M 0 0 
L 0 2.56 
" style="stroke: #262626; stroke-width: 0.64"/>
      </defs>
      <g>
       <use xlink:href="#m93c3be1850" x="20.642291" y="118.08" style="fill: #262626; stroke: #262626; stroke-width: 0.64"/>
      </g>
     </g>
    </g>
    <g id="xtick_18">
     <g id="line2d_25">
      <g>
       <use xlink:href="#m93c3be1850" x="29.191783" y="118.08" style="fill: #262626; stroke: #262626; stroke-width: 0.64"/>
      </g>
     </g>
    </g>
    <g id="xtick_19">
     <g id="line2d_26">
      <g>
       <use xlink:href="#m93c3be1850" x="37.741274" y="118.08" style="fill: #262626; stroke: #262626; stroke-width: 0.64"/>
      </g>
     </g>
    </g>
    <g id="xtick_20">
     <g id="line2d_27">
      <g>
       <use xlink:href="#m93c3be1850" x="46.290766" y="118.08" style="fill: #262626; stroke: #262626; stroke-width: 0.64"/>
      </g>
     </g>
    </g>
    <g id="xtick_21">
     <g id="line2d_28">
      <g>
       <use xlink:href="#m93c3be1850" x="63.389749" y="118.08" style="fill: #262626; stroke: #262626; stroke-width: 0.64"/>
      </g>
     </g>
    </g>
    <g id="xtick_22">
     <g id="line2d_29">
      <g>
       <use xlink:href="#m93c3be1850" x="71.93924" y="118.08" style="fill: #262626; stroke: #262626; stroke-width: 0.64"/>
      </g>
     </g>
    </g>
    <g id="xtick_23">
     <g id="line2d_30">
      <g>
       <use xlink:href="#m93c3be1850" x="80.488732" y="118.08" style="fill: #262626; stroke: #262626; stroke-width: 0.64"/>
      </g>
     </g>
    </g>
    <g id="xtick_24">
     <g id="line2d_31">
      <g>
       <use xlink:href="#m93c3be1850" x="89.038223" y="118.08" style="fill: #262626; stroke: #262626; stroke-width: 0.64"/>
      </g>
     </g>
    </g>
    <g id="xtick_25">
     <g id="line2d_32">
      <g>
       <use xlink:href="#m93c3be1850" x="106.137206" y="118.08" style="fill: #262626; stroke: #262626; stroke-width: 0.64"/>
      </g>
     </g>
    </g>
    <g id="xtick_26">
     <g id="line2d_33">
      <g>
       <use xlink:href="#m93c3be1850" x="114.686698" y="118.08" style="fill: #262626; stroke: #262626; stroke-width: 0.64"/>
      </g>
     </g>
    </g>
    <g id="xtick_27">
     <g id="line2d_34">
      <g>
       <use xlink:href="#m93c3be1850" x="123.236189" y="118.08" style="fill: #262626; stroke: #262626; stroke-width: 0.64"/>
      </g>
     </g>
    </g>
    <g id="xtick_28">
     <g id="line2d_35">
      <g>
       <use xlink:href="#m93c3be1850" x="131.785681" y="118.08" style="fill: #262626; stroke: #262626; stroke-width: 0.64"/>
      </g>
     </g>
    </g>
    <g id="xtick_29">
     <g id="line2d_36">
      <g>
       <use xlink:href="#m93c3be1850" x="148.884664" y="118.08" style="fill: #262626; stroke: #262626; stroke-width: 0.64"/>
      </g>
     </g>
    </g>
    <g id="xtick_30">
     <g id="line2d_37">
      <g>
       <use xlink:href="#m93c3be1850" x="157.434155" y="118.08" style="fill: #262626; stroke: #262626; stroke-width: 0.64"/>
      </g>
     </g>
    </g>
    <g id="xtick_31">
     <g id="line2d_38">
      <g>
       <use xlink:href="#m93c3be1850" x="165.983647" y="118.08" style="fill: #262626; stroke: #262626; stroke-width: 0.64"/>
      </g>
     </g>
    </g>
    <g id="xtick_32">
     <g id="line2d_39">
      <g>
       <use xlink:href="#m93c3be1850" x="174.533138" y="118.08" style="fill: #262626; stroke: #262626; stroke-width: 0.64"/>
      </g>
     </g>
    </g>
    <g id="xtick_33">
     <g id="line2d_40">
      <g>
       <use xlink:href="#m93c3be1850" x="191.632121" y="118.08" style="fill: #262626; stroke: #262626; stroke-width: 0.64"/>
      </g>
     </g>
    </g>
    <g id="xtick_34">
     <g id="line2d_41">
      <g>
       <use xlink:href="#m93c3be1850" x="200.181613" y="118.08" style="fill: #262626; stroke: #262626; stroke-width: 0.64"/>
      </g>
     </g>
    </g>
    <g id="xtick_35">
     <g id="line2d_42">
      <g>
       <use xlink:href="#m93c3be1850" x="208.731104" y="118.08" style="fill: #262626; stroke: #262626; stroke-width: 0.64"/>
      </g>
     </g>
    </g>
    <g id="xtick_36">
     <g id="line2d_43">
      <g>
       <use xlink:href="#m93c3be1850" x="217.280596" y="118.08" style="fill: #262626; stroke: #262626; stroke-width: 0.64"/>
      </g>
     </g>
    </g>
    <g id="xtick_37">
     <g id="line2d_44">
      <g>
       <use xlink:href="#m93c3be1850" x="234.379579" y="118.08" style="fill: #262626; stroke: #262626; stroke-width: 0.64"/>
      </g>
     </g>
    </g>
    <g id="xtick_38">
     <g id="line2d_45">
      <g>
       <use xlink:href="#m93c3be1850" x="242.92907" y="118.08" style="fill: #262626; stroke: #262626; stroke-width: 0.64"/>
      </g>
     </g>
    </g>
    <g id="xtick_39">
     <g id="line2d_46">
      <g>
       <use xlink:href="#m93c3be1850" x="251.478562" y="118.08" style="fill: #262626; stroke: #262626; stroke-width: 0.64"/>
      </g>
     </g>
    </g>
    <g id="xtick_40">
     <g id="line2d_47">
      <g>
       <use xlink:href="#m93c3be1850" x="260.028053" y="118.08" style="fill: #262626; stroke: #262626; stroke-width: 0.64"/>
      </g>
     </g>
    </g>
    <g id="xtick_41">
     <g id="line2d_48">
      <g>
       <use xlink:href="#m93c3be1850" x="277.127036" y="118.08" style="fill: #262626; stroke: #262626; stroke-width: 0.64"/>
      </g>
     </g>
    </g>
    <g id="xtick_42">
     <g id="line2d_49">
      <g>
       <use xlink:href="#m93c3be1850" x="285.676528" y="118.08" style="fill: #262626; stroke: #262626; stroke-width: 0.64"/>
      </g>
     </g>
    </g>
    <g id="xtick_43">
     <g id="line2d_50">
      <g>
       <use xlink:href="#m93c3be1850" x="294.226019" y="118.08" style="fill: #262626; stroke: #262626; stroke-width: 0.64"/>
      </g>
     </g>
    </g>
    <g id="xtick_44">
     <g id="line2d_51">
      <g>
       <use xlink:href="#m93c3be1850" x="302.775511" y="118.08" style="fill: #262626; stroke: #262626; stroke-width: 0.64"/>
      </g>
     </g>
    </g>
    <g id="xtick_45">
     <g id="line2d_52">
      <g>
       <use xlink:href="#m93c3be1850" x="319.874494" y="118.08" style="fill: #262626; stroke: #262626; stroke-width: 0.64"/>
      </g>
     </g>
    </g>
    <g id="xtick_46">
     <g id="line2d_53">
      <g>
       <use xlink:href="#m93c3be1850" x="328.423985" y="118.08" style="fill: #262626; stroke: #262626; stroke-width: 0.64"/>
      </g>
     </g>
    </g>
    <g id="xtick_47">
     <g id="line2d_54">
      <g>
       <use xlink:href="#m93c3be1850" x="336.973477" y="118.08" style="fill: #262626; stroke: #262626; stroke-width: 0.64"/>
      </g>
     </g>
    </g>
    <g id="xtick_48">
     <g id="line2d_55">
      <g>
       <use xlink:href="#m93c3be1850" x="345.522968" y="118.08" style="fill: #262626; stroke: #262626; stroke-width: 0.64"/>
      </g>
     </g>
    </g>
    <g id="xtick_49">
     <g id="line2d_56">
      <g>
       <use xlink:href="#m93c3be1850" x="362.621951" y="118.08" style="fill: #262626; stroke: #262626; stroke-width: 0.64"/>
      </g>
     </g>
    </g>
    <g id="xtick_50">
     <g id="line2d_57">
      <g>
       <use xlink:href="#m93c3be1850" x="371.171443" y="118.08" style="fill: #262626; stroke: #262626; stroke-width: 0.64"/>
      </g>
     </g>
    </g>
    <g id="xtick_51">
     <g id="line2d_58">
      <g>
       <use xlink:href="#m93c3be1850" x="379.720934" y="118.08" style="fill: #262626; stroke: #262626; stroke-width: 0.64"/>
      </g>
     </g>
    </g>
    <g id="xtick_52">
     <g id="line2d_59">
      <g>
       <use xlink:href="#m93c3be1850" x="388.270426" y="118.08" style="fill: #262626; stroke: #262626; stroke-width: 0.64"/>
      </g>
     </g>
    </g>
    <g id="xtick_53">
     <g id="line2d_60">
      <g>
       <use xlink:href="#m93c3be1850" x="405.369409" y="118.08" style="fill: #262626; stroke: #262626; stroke-width: 0.64"/>
      </g>
     </g>
    </g>
    <g id="xtick_54">
     <g id="line2d_61">
      <g>
       <use xlink:href="#m93c3be1850" x="413.9189" y="118.08" style="fill: #262626; stroke: #262626; stroke-width: 0.64"/>
      </g>
     </g>
    </g>
    <g id="xtick_55">
     <g id="line2d_62">
      <g>
       <use xlink:href="#m93c3be1850" x="422.468392" y="118.08" style="fill: #262626; stroke: #262626; stroke-width: 0.64"/>
      </g>
     </g>
    </g>
    <g id="xtick_56">
     <g id="line2d_63">
      <g>
       <use xlink:href="#m93c3be1850" x="431.017883" y="118.08" style="fill: #262626; stroke: #262626; stroke-width: 0.64"/>
      </g>
     </g>
    </g>
    <g id="xtick_57">
     <g id="line2d_64">
      <g>
       <use xlink:href="#m93c3be1850" x="448.116866" y="118.08" style="fill: #262626; stroke: #262626; stroke-width: 0.64"/>
      </g>
     </g>
    </g>
    <g id="xtick_58">
     <g id="line2d_65">
      <g>
       <use xlink:href="#m93c3be1850" x="456.666358" y="118.08" style="fill: #262626; stroke: #262626; stroke-width: 0.64"/>
      </g>
     </g>
    </g>
    <g id="xtick_59">
     <g id="line2d_66">
      <g>
       <use xlink:href="#m93c3be1850" x="465.215849" y="118.08" style="fill: #262626; stroke: #262626; stroke-width: 0.64"/>
      </g>
     </g>
    </g>
    <g id="xtick_60">
     <g id="line2d_67">
      <g>
       <use xlink:href="#m93c3be1850" x="473.765341" y="118.08" style="fill: #262626; stroke: #262626; stroke-width: 0.64"/>
      </g>
     </g>
    </g>
    <g id="xtick_61">
     <g id="line2d_68">
      <g>
       <use xlink:href="#m93c3be1850" x="490.864324" y="118.08" style="fill: #262626; stroke: #262626; stroke-width: 0.64"/>
      </g>
     </g>
    </g>
    <g id="xtick_62">
     <g id="line2d_69">
      <g>
       <use xlink:href="#m93c3be1850" x="499.413815" y="118.08" style="fill: #262626; stroke: #262626; stroke-width: 0.64"/>
      </g>
     </g>
    </g>
    <g id="xtick_63">
     <g id="line2d_70">
      <g>
       <use xlink:href="#m93c3be1850" x="507.963307" y="118.08" style="fill: #262626; stroke: #262626; stroke-width: 0.64"/>
      </g>
     </g>
    </g>
    <g id="xtick_64">
     <g id="line2d_71">
      <g>
       <use xlink:href="#m93c3be1850" x="516.512798" y="118.08" style="fill: #262626; stroke: #262626; stroke-width: 0.64"/>
      </g>
     </g>
    </g>
    <g id="xtick_65">
     <g id="line2d_72">
      <g>
       <use xlink:href="#m93c3be1850" x="533.611781" y="118.08" style="fill: #262626; stroke: #262626; stroke-width: 0.64"/>
      </g>
     </g>
    </g>
    <g id="xtick_66">
     <g id="line2d_73">
      <g>
       <use xlink:href="#m93c3be1850" x="542.161273" y="118.08" style="fill: #262626; stroke: #262626; stroke-width: 0.64"/>
      </g>
     </g>
    </g>
    <g id="xtick_67">
     <g id="line2d_74">
      <g>
       <use xlink:href="#m93c3be1850" x="550.710764" y="118.08" style="fill: #262626; stroke: #262626; stroke-width: 0.64"/>
      </g>
     </g>
    </g>
    <g id="xtick_68">
     <g id="line2d_75">
      <g>
       <use xlink:href="#m93c3be1850" x="559.260256" y="118.08" style="fill: #262626; stroke: #262626; stroke-width: 0.64"/>
      </g>
     </g>
    </g>
    <g id="xtick_69">
     <g id="line2d_76">
      <g>
       <use xlink:href="#m93c3be1850" x="576.359239" y="118.08" style="fill: #262626; stroke: #262626; stroke-width: 0.64"/>
      </g>
     </g>
    </g>
    <g id="xtick_70">
     <g id="line2d_77">
      <g>
       <use xlink:href="#m93c3be1850" x="584.90873" y="118.08" style="fill: #262626; stroke: #262626; stroke-width: 0.64"/>
      </g>
     </g>
    </g>
    <g id="xtick_71">
     <g id="line2d_78">
      <g>
       <use xlink:href="#m93c3be1850" x="593.458222" y="118.08" style="fill: #262626; stroke: #262626; stroke-width: 0.64"/>
      </g>
     </g>
    </g>
    <g id="xtick_72">
     <g id="line2d_79">
      <g>
       <use xlink:href="#m93c3be1850" x="602.007713" y="118.08" style="fill: #262626; stroke: #262626; stroke-width: 0.64"/>
      </g>
     </g>
    </g>
    <g id="xtick_73">
     <g id="line2d_80">
      <g>
       <use xlink:href="#m93c3be1850" x="619.106696" y="118.08" style="fill: #262626; stroke: #262626; stroke-width: 0.64"/>
      </g>
     </g>
    </g>
    <g id="xtick_74">
     <g id="line2d_81">
      <g>
       <use xlink:href="#m93c3be1850" x="627.656188" y="118.08" style="fill: #262626; stroke: #262626; stroke-width: 0.64"/>
      </g>
     </g>
    </g>
    <g id="xtick_75">
     <g id="line2d_82">
      <g>
       <use xlink:href="#m93c3be1850" x="636.205679" y="118.08" style="fill: #262626; stroke: #262626; stroke-width: 0.64"/>
      </g>
     </g>
    </g>
    <g id="xtick_76">
     <g id="line2d_83">
      <g>
       <use xlink:href="#m93c3be1850" x="644.755171" y="118.08" style="fill: #262626; stroke: #262626; stroke-width: 0.64"/>
      </g>
     </g>
    </g>
    <g id="xtick_77">
     <g id="line2d_84">
      <g>
       <use xlink:href="#m93c3be1850" x="661.854154" y="118.08" style="fill: #262626; stroke: #262626; stroke-width: 0.64"/>
      </g>
     </g>
    </g>
    <g id="xtick_78">
     <g id="line2d_85">
      <g>
       <use xlink:href="#m93c3be1850" x="670.403645" y="118.08" style="fill: #262626; stroke: #262626; stroke-width: 0.64"/>
      </g>
     </g>
    </g>
    <g id="xtick_79">
     <g id="line2d_86">
      <g>
       <use xlink:href="#m93c3be1850" x="678.953137" y="118.08" style="fill: #262626; stroke: #262626; stroke-width: 0.64"/>
      </g>
     </g>
    </g>
    <g id="text_17">
     <!-- 1e8 -->
     <g style="fill: #262626" transform="translate(668.665676 139.8974) scale(0.0704 -0.0704)">
      <defs>
       <path id="ArialMT-65" d="M 2694 1069 
L 3275 997 
Q 3138 488 2766 206 
Q 2394 -75 1816 -75 
Q 1088 -75 661 373 
Q 234 822 234 1631 
Q 234 2469 665 2931 
Q 1097 3394 1784 3394 
Q 2450 3394 2872 2941 
Q 3294 2488 3294 1666 
Q 3294 1616 3291 1516 
L 816 1516 
Q 847 969 1125 678 
Q 1403 388 1819 388 
Q 2128 388 2347 550 
Q 2566 713 2694 1069 
z
M 847 1978 
L 2700 1978 
Q 2663 2397 2488 2606 
Q 2219 2931 1791 2931 
Q 1403 2931 1139 2672 
Q 875 2413 847 1978 
z
" transform="scale(0.015625)"/>
      </defs>
      <use xlink:href="#ArialMT-31"/>
      <use xlink:href="#ArialMT-65" transform="translate(55.615234 0)"/>
      <use xlink:href="#ArialMT-38" transform="translate(111.230469 0)"/>
     </g>
    </g>
   </g>
   <g id="patch_7">
    <path d="M 260.455528 95.691642 
L 260.455528 84.603642 
L 284.821579 95.691642 
L 284.821579 84.603642 
z
" clip-path="url(#p45d0cf65c1)" style="fill: #777777; stroke: #777777; stroke-width: 0.64; stroke-linejoin: miter"/>
   </g>
   <g id="patch_8">
    <path d="M 10.810376 118.08 
L 680.410376 118.08 
" style="fill: none; stroke: #262626; stroke-width: 0.8; stroke-linejoin: miter; stroke-linecap: square"/>
   </g>
  </g>
 </g>
 <defs>
  <clipPath id="p45d0cf65c1">
   <rect x="10.810376" y="7.2" width="669.6" height="110.88"/>
  </clipPath>
 </defs>
</svg>
