<?xml version="1.0" encoding="utf-8" standalone="no"?>
<!DOCTYPE svg PUBLIC "-//W3C//DTD SVG 1.1//EN"
  "http://www.w3.org/Graphics/SVG/1.1/DTD/svg11.dtd">
<svg xmlns:xlink="http://www.w3.org/1999/xlink" width="699.50841pt" height="670.6732pt" viewBox="0 0 699.50841 670.6732" xmlns="http://www.w3.org/2000/svg" version="1.1">
 <metadata>
  <rdf:RDF xmlns:dc="http://purl.org/dc/elements/1.1/" xmlns:cc="http://creativecommons.org/ns#" xmlns:rdf="http://www.w3.org/1999/02/22-rdf-syntax-ns#">
   <cc:Work>
    <dc:type rdf:resource="http://purl.org/dc/dcmitype/StillImage"/>
    <dc:date>2025-01-31T00:18:09.787967</dc:date>
    <dc:format>image/svg+xml</dc:format>
    <dc:creator>
     <cc:Agent>
      <dc:title>Matplotlib v3.8.4, https://matplotlib.org/</dc:title>
     </cc:Agent>
    </dc:creator>
   </cc:Work>
  </rdf:RDF>
 </metadata>
 <defs>
  <style type="text/css">*{stroke-linejoin: round; stroke-linecap: butt}</style>
 </defs>
 <g id="figure_1">
  <g id="patch_1">
   <path d="M 0 670.6732 
L 699.50841 670.6732 
L 699.50841 0 
L 0 0 
z
" style="fill: #ffffff"/>
  </g>
  <g id="axes_1">
   <g id="patch_2">
    <path d="M 22.70841 30.693674 
L 692.30841 30.693674 
L 692.30841 30.4166 
L 22.70841 30.4166 
z
" style="fill: #ffffff"/>
   </g>
   <g id="matplotlib.axis_1">
    <g id="xtick_1">
     <g id="line2d_1">
      <defs>
       <path id="m74f0445869" d="M 0 0 
L 0 -3.84 
" style="stroke: #262626; stroke-width: 0.8"/>
      </defs>
      <g>
       <use xlink:href="#m74f0445869" x="23.513358" y="30.4166" style="fill: #262626; stroke: #262626; stroke-width: 0.8"/>
      </g>
     </g>
     <g id="text_1">
      <!-- 0.0 -->
      <g style="fill: #262626" transform="translate(18.620558 21.6774) scale(0.0704 -0.0704)">
       <defs>
        <path id="ArialMT-30" d="M 266 2259 
Q 266 3072 433 3567 
Q 600 4063 929 4331 
Q 1259 4600 1759 4600 
Q 2128 4600 2406 4451 
Q 2684 4303 2865 4023 
Q 3047 3744 3150 3342 
Q 3253 2941 3253 2259 
Q 3253 1453 3087 958 
Q 2922 463 2592 192 
Q 2263 -78 1759 -78 
Q 1097 -78 719 397 
Q 266 969 266 2259 
z
M 844 2259 
Q 844 1131 1108 757 
Q 1372 384 1759 384 
Q 2147 384 2411 759 
Q 2675 1134 2675 2259 
Q 2675 3391 2411 3762 
Q 2147 4134 1753 4134 
Q 1366 4134 1134 3806 
Q 844 3388 844 2259 
z
" transform="scale(0.015625)"/>
        <path id="ArialMT-2e" d="M 581 0 
L 581 641 
L 1222 641 
L 1222 0 
L 581 0 
z
" transform="scale(0.015625)"/>
       </defs>
       <use xlink:href="#ArialMT-30"/>
       <use xlink:href="#ArialMT-2e" x="55.615234"/>
       <use xlink:href="#ArialMT-30" x="83.398438"/>
      </g>
     </g>
    </g>
    <g id="xtick_2">
     <g id="line2d_2">
      <g>
       <use xlink:href="#m74f0445869" x="157.671396" y="30.4166" style="fill: #262626; stroke: #262626; stroke-width: 0.8"/>
      </g>
     </g>
     <g id="text_2">
      <!-- 0.5 -->
      <g style="fill: #262626" transform="translate(152.778596 21.6774) scale(0.0704 -0.0704)">
       <defs>
        <path id="ArialMT-35" d="M 266 1200 
L 856 1250 
Q 922 819 1161 601 
Q 1400 384 1738 384 
Q 2144 384 2425 690 
Q 2706 997 2706 1503 
Q 2706 1984 2436 2262 
Q 2166 2541 1728 2541 
Q 1456 2541 1237 2417 
Q 1019 2294 894 2097 
L 366 2166 
L 809 4519 
L 3088 4519 
L 3088 3981 
L 1259 3981 
L 1013 2750 
Q 1425 3038 1878 3038 
Q 2478 3038 2890 2622 
Q 3303 2206 3303 1553 
Q 3303 931 2941 478 
Q 2500 -78 1738 -78 
Q 1113 -78 717 272 
Q 322 622 266 1200 
z
" transform="scale(0.015625)"/>
       </defs>
       <use xlink:href="#ArialMT-30"/>
       <use xlink:href="#ArialMT-2e" x="55.615234"/>
       <use xlink:href="#ArialMT-35" x="83.398438"/>
      </g>
     </g>
    </g>
    <g id="xtick_3">
     <g id="line2d_3">
      <g>
       <use xlink:href="#m74f0445869" x="291.829434" y="30.4166" style="fill: #262626; stroke: #262626; stroke-width: 0.8"/>
      </g>
     </g>
     <g id="text_3">
      <!-- 1.0 -->
      <g style="fill: #262626" transform="translate(286.936634 21.6774) scale(0.0704 -0.0704)">
       <defs>
        <path id="ArialMT-31" d="M 2384 0 
L 1822 0 
L 1822 3584 
Q 1619 3391 1289 3197 
Q 959 3003 697 2906 
L 697 3450 
Q 1169 3672 1522 3987 
Q 1875 4303 2022 4600 
L 2384 4600 
L 2384 0 
z
" transform="scale(0.015625)"/>
       </defs>
       <use xlink:href="#ArialMT-31"/>
       <use xlink:href="#ArialMT-2e" x="55.615234"/>
       <use xlink:href="#ArialMT-30" x="83.398438"/>
      </g>
     </g>
    </g>
    <g id="xtick_4">
     <g id="line2d_4">
      <g>
       <use xlink:href="#m74f0445869" x="425.987473" y="30.4166" style="fill: #262626; stroke: #262626; stroke-width: 0.8"/>
      </g>
     </g>
     <g id="text_4">
      <!-- 1.5 -->
      <g style="fill: #262626" transform="translate(421.094673 21.6774) scale(0.0704 -0.0704)">
       <use xlink:href="#ArialMT-31"/>
       <use xlink:href="#ArialMT-2e" x="55.615234"/>
       <use xlink:href="#ArialMT-35" x="83.398438"/>
      </g>
     </g>
    </g>
    <g id="xtick_5">
     <g id="line2d_5">
      <g>
       <use xlink:href="#m74f0445869" x="560.145511" y="30.4166" style="fill: #262626; stroke: #262626; stroke-width: 0.8"/>
      </g>
     </g>
     <g id="text_5">
      <!-- 2.0 -->
      <g style="fill: #262626" transform="translate(555.252711 21.6774) scale(0.0704 -0.0704)">
       <defs>
        <path id="ArialMT-32" d="M 3222 541 
L 3222 0 
L 194 0 
Q 188 203 259 391 
Q 375 700 629 1000 
Q 884 1300 1366 1694 
Q 2113 2306 2375 2664 
Q 2638 3022 2638 3341 
Q 2638 3675 2398 3904 
Q 2159 4134 1775 4134 
Q 1369 4134 1125 3890 
Q 881 3647 878 3216 
L 300 3275 
Q 359 3922 746 4261 
Q 1134 4600 1788 4600 
Q 2447 4600 2831 4234 
Q 3216 3869 3216 3328 
Q 3216 3053 3103 2787 
Q 2991 2522 2730 2228 
Q 2469 1934 1863 1422 
Q 1356 997 1212 845 
Q 1069 694 975 541 
L 3222 541 
z
" transform="scale(0.015625)"/>
       </defs>
       <use xlink:href="#ArialMT-32"/>
       <use xlink:href="#ArialMT-2e" x="55.615234"/>
       <use xlink:href="#ArialMT-30" x="83.398438"/>
      </g>
     </g>
    </g>
    <g id="text_6">
     <!-- 1e8 -->
     <g style="fill: #262626" transform="translate(680.56371 12.2391) scale(0.0704 -0.0704)">
      <defs>
       <path id="ArialMT-65" d="M 2694 1069 
L 3275 997 
Q 3138 488 2766 206 
Q 2394 -75 1816 -75 
Q 1088 -75 661 373 
Q 234 822 234 1631 
Q 234 2469 665 2931 
Q 1097 3394 1784 3394 
Q 2450 3394 2872 2941 
Q 3294 2488 3294 1666 
Q 3294 1616 3291 1516 
L 816 1516 
Q 847 969 1125 678 
Q 1403 388 1819 388 
Q 2128 388 2347 550 
Q 2566 713 2694 1069 
z
M 847 1978 
L 2700 1978 
Q 2663 2397 2488 2606 
Q 2219 2931 1791 2931 
Q 1403 2931 1139 2672 
Q 875 2413 847 1978 
z
" transform="scale(0.015625)"/>
       <path id="ArialMT-38" d="M 1131 2484 
Q 781 2613 612 2850 
Q 444 3088 444 3419 
Q 444 3919 803 4259 
Q 1163 4600 1759 4600 
Q 2359 4600 2725 4251 
Q 3091 3903 3091 3403 
Q 3091 3084 2923 2848 
Q 2756 2613 2416 2484 
Q 2838 2347 3058 2040 
Q 3278 1734 3278 1309 
Q 3278 722 2862 322 
Q 2447 -78 1769 -78 
Q 1091 -78 675 323 
Q 259 725 259 1325 
Q 259 1772 486 2073 
Q 713 2375 1131 2484 
z
M 1019 3438 
Q 1019 3113 1228 2906 
Q 1438 2700 1772 2700 
Q 2097 2700 2305 2904 
Q 2513 3109 2513 3406 
Q 2513 3716 2298 3927 
Q 2084 4138 1766 4138 
Q 1444 4138 1231 3931 
Q 1019 3725 1019 3438 
z
M 838 1322 
Q 838 1081 952 856 
Q 1066 631 1291 507 
Q 1516 384 1775 384 
Q 2178 384 2440 643 
Q 2703 903 2703 1303 
Q 2703 1709 2433 1975 
Q 2163 2241 1756 2241 
Q 1359 2241 1098 1978 
Q 838 1716 838 1322 
z
" transform="scale(0.015625)"/>
      </defs>
      <use xlink:href="#ArialMT-31"/>
      <use xlink:href="#ArialMT-65" x="55.615234"/>
      <use xlink:href="#ArialMT-38" x="111.230469"/>
     </g>
    </g>
   </g>
   <g id="matplotlib.axis_2">
    <g id="ytick_1"/>
    <g id="ytick_2"/>
   </g>
   <g id="patch_3">
    <path d="M 22.70841 30.693674 
L 22.70841 30.4166 
" style="fill: none; stroke: #262626; stroke-width: 0.8; stroke-linejoin: miter; stroke-linecap: square"/>
   </g>
   <g id="patch_4">
    <path d="M 692.30841 30.693674 
L 692.30841 30.4166 
" style="fill: none; stroke: #262626; stroke-width: 0.8; stroke-linejoin: miter; stroke-linecap: square"/>
   </g>
   <g id="patch_5">
    <path d="M 22.70841 30.693674 
L 692.30841 30.693674 
" style="fill: none; stroke: #262626; stroke-width: 0.8; stroke-linejoin: miter; stroke-linecap: square"/>
   </g>
   <g id="patch_6">
    <path d="M 22.70841 30.4166 
L 692.30841 30.4166 
" style="fill: none; stroke: #262626; stroke-width: 0.8; stroke-linejoin: miter; stroke-linecap: square"/>
   </g>
  </g>
  <g id="axes_2">
   <g id="patch_7">
    <path d="M 22.70841 58.40108 
L 692.30841 58.40108 
L 692.30841 30.693674 
L 22.70841 30.693674 
z
" style="fill: #ffffff"/>
   </g>
   <g id="patch_8">
    <path d="M 23.513358 47.28481 
L 350.054023 47.28481 
L 350.054023 41.743328 
L 23.513358 41.743328 
z
" clip-path="url(#p798c6bde17)" style="fill: #ebeaea"/>
   </g>
   <g id="patch_9">
    <path d="M 359.17677 47.28481 
L 691.503462 47.28481 
L 691.503462 41.743328 
L 359.17677 41.743328 
z
" clip-path="url(#p798c6bde17)" style="fill: #ebeaea"/>
   </g>
   <g id="patch_10">
    <path d="M 23.513358 47.28481 
L 350.054023 47.28481 
L 350.054023 41.743328 
L 23.513358 41.743328 
L 23.513358 47.28481 
z
" clip-path="url(#p798c6bde17)" style="fill: none; stroke: #000000; stroke-width: 0.7; stroke-linejoin: miter"/>
   </g>
   <g id="patch_11">
    <path d="M 359.17677 47.28481 
L 691.503462 47.28481 
L 691.503462 41.743328 
L 359.17677 41.743328 
L 359.17677 47.28481 
z
" clip-path="url(#p798c6bde17)" style="fill: none; stroke: #000000; stroke-width: 0.7; stroke-linejoin: miter"/>
   </g>
   <g id="matplotlib.axis_3">
    <g id="xtick_6"/>
    <g id="xtick_7"/>
    <g id="xtick_8"/>
    <g id="xtick_9"/>
    <g id="xtick_10"/>
   </g>
   <g id="matplotlib.axis_4">
    <g id="ytick_3"/>
    <g id="ytick_4"/>
   </g>
   <g id="patch_12">
    <path d="M 350.054023 47.28481 
L 350.054023 41.743328 
L 359.17677 47.28481 
L 359.17677 41.743328 
z
" clip-path="url(#p798c6bde17)" style="fill: #777777; stroke: #777777; stroke-width: 0.64; stroke-linejoin: miter"/>
   </g>
   <g id="text_7">
    <!-- 1 -->
    <g style="fill: #262626" transform="translate(14.742228 46.3286) scale(0.07 -0.07)">
     <defs>
      <path id="Arial-BoldMT-31" d="M 2519 0 
L 1641 0 
L 1641 3309 
Q 1159 2859 506 2644 
L 506 3441 
Q 850 3553 1253 3867 
Q 1656 4181 1806 4600 
L 2519 4600 
L 2519 0 
z
" transform="scale(0.015625)"/>
     </defs>
     <use xlink:href="#Arial-BoldMT-31"/>
    </g>
   </g>
   <g id="patch_13">
    <path d="M 615.040667 47.361315 
L 678.732698 47.361315 
L 678.732698 41.858087 
L 615.040667 41.858087 
z
" clip-path="url(#p798c6bde17)" style="fill: #1f77b4; opacity: 0.168118"/>
   </g>
   <g id="patch_14">
    <path d="M 443.269617 47.361315 
L 492.352484 47.361315 
L 492.352484 41.858087 
L 443.269617 41.858087 
z
" clip-path="url(#p798c6bde17)" style="fill: #1f77b4; opacity: 0.22029"/>
   </g>
   <g id="patch_15">
    <path d="M 409.48531 47.361315 
L 420.408162 47.361315 
L 420.408162 41.858087 
L 409.48531 41.858087 
z
" clip-path="url(#p798c6bde17)" style="fill: #1f77b4; opacity: 0.296724"/>
   </g>
   <g id="patch_16">
    <path d="M 335.84904 47.361315 
L 388.996729 47.361315 
L 388.996729 41.858087 
L 335.84904 41.858087 
z
" clip-path="url(#p798c6bde17)" style="fill: #1f77b4; opacity: 0.926368"/>
   </g>
   <g id="patch_17">
    <path d="M 324.704145 47.361315 
L 329.275631 47.361315 
L 329.275631 41.858087 
L 324.704145 41.858087 
z
" clip-path="url(#p798c6bde17)" style="fill: #1f77b4; opacity: 0.901853"/>
   </g>
   <g id="patch_18">
    <path d="M 286.902805 47.361315 
L 307.887143 47.361315 
L 307.887143 41.858087 
L 286.902805 41.858087 
z
" clip-path="url(#p798c6bde17)" style="fill: #1f77b4; opacity: 0.673305"/>
   </g>
   <g id="patch_19">
    <path d="M 196.852203 47.361315 
L 256.75568 47.361315 
L 256.75568 41.858087 
L 196.852203 41.858087 
z
" clip-path="url(#p798c6bde17)" style="fill: #1f77b4; opacity: 0.128267"/>
   </g>
   <g id="patch_20">
    <path d="M 132.163303 47.361315 
L 178.1509 47.361315 
L 178.1509 41.858087 
L 132.163303 41.858087 
z
" clip-path="url(#p798c6bde17)" style="fill: #1f77b4; opacity: 0.807861"/>
   </g>
   <g id="patch_21">
    <path d="M 88.849903 47.361315 
L 91.311038 47.361315 
L 91.311038 41.858087 
L 88.849903 41.858087 
z
" clip-path="url(#p798c6bde17)" style="fill: #1f77b4; opacity: 0.750001"/>
   </g>
   <g id="patch_22">
    <path d="M 75.685989 47.361315 
L 85.417325 47.361315 
L 85.417325 41.858087 
L 75.685989 41.858087 
z
" clip-path="url(#p798c6bde17)" style="fill: #1f77b4; opacity: 0.895764"/>
   </g>
   <g id="patch_23">
    <path d="M 65.287399 47.361315 
L 73.827109 47.361315 
L 73.827109 41.858087 
L 65.287399 41.858087 
z
" clip-path="url(#p798c6bde17)" style="fill: #1f77b4; opacity: 0.903171"/>
   </g>
   <g id="patch_24">
    <path d="M 50.519814 47.361315 
L 58.291922 47.361315 
L 58.291922 41.858087 
L 50.519814 41.858087 
z
" clip-path="url(#p798c6bde17)" style="fill: #1f77b4; opacity: 0.181188"/>
   </g>
  </g>
  <g id="axes_3">
   <g id="patch_25">
    <path d="M 22.70841 86.108486 
L 692.30841 86.108486 
L 692.30841 58.40108 
L 22.70841 58.40108 
z
" style="fill: #ffffff"/>
   </g>
   <g id="patch_26">
    <path d="M 23.513358 74.992215 
L 269.827516 74.992215 
L 269.827516 69.450734 
L 23.513358 69.450734 
z
" clip-path="url(#p754140f1a7)" style="fill: #ebeaea"/>
   </g>
   <g id="patch_27">
    <path d="M 281.096791 74.992215 
L 673.357532 74.992215 
L 673.357532 69.450734 
L 281.096791 69.450734 
z
" clip-path="url(#p754140f1a7)" style="fill: #ebeaea"/>
   </g>
   <g id="patch_28">
    <path d="M 23.513358 74.992215 
L 269.827516 74.992215 
L 269.827516 69.450734 
L 23.513358 69.450734 
L 23.513358 74.992215 
z
" clip-path="url(#p754140f1a7)" style="fill: none; stroke: #000000; stroke-width: 0.7; stroke-linejoin: miter"/>
   </g>
   <g id="patch_29">
    <path d="M 281.096791 74.992215 
L 673.357532 74.992215 
L 673.357532 69.450734 
L 281.096791 69.450734 
L 281.096791 74.992215 
z
" clip-path="url(#p754140f1a7)" style="fill: none; stroke: #000000; stroke-width: 0.7; stroke-linejoin: miter"/>
   </g>
   <g id="matplotlib.axis_5">
    <g id="xtick_11"/>
    <g id="xtick_12"/>
    <g id="xtick_13"/>
    <g id="xtick_14"/>
    <g id="xtick_15"/>
   </g>
   <g id="matplotlib.axis_6">
    <g id="ytick_5"/>
    <g id="ytick_6"/>
   </g>
   <g id="patch_30">
    <path d="M 269.827516 74.992215 
L 269.827516 69.450734 
L 281.096791 74.992215 
L 281.096791 69.450734 
z
" clip-path="url(#p754140f1a7)" style="fill: #777777; stroke: #777777; stroke-width: 0.64; stroke-linejoin: miter"/>
   </g>
   <g id="text_8">
    <!-- 2 -->
    <g style="fill: #262626" transform="translate(14.742228 74.036006) scale(0.07 -0.07)">
     <defs>
      <path id="Arial-BoldMT-32" d="M 3238 816 
L 3238 0 
L 159 0 
Q 209 463 459 877 
Q 709 1291 1447 1975 
Q 2041 2528 2175 2725 
Q 2356 2997 2356 3263 
Q 2356 3556 2198 3714 
Q 2041 3872 1763 3872 
Q 1488 3872 1325 3706 
Q 1163 3541 1138 3156 
L 263 3244 
Q 341 3969 753 4284 
Q 1166 4600 1784 4600 
Q 2463 4600 2850 4234 
Q 3238 3869 3238 3325 
Q 3238 3016 3127 2736 
Q 3016 2456 2775 2150 
Q 2616 1947 2200 1565 
Q 1784 1184 1673 1059 
Q 1563 934 1494 816 
L 3238 816 
z
" transform="scale(0.015625)"/>
     </defs>
     <use xlink:href="#Arial-BoldMT-32"/>
    </g>
   </g>
   <g id="patch_31">
    <path d="M 619.058132 75.068721 
L 641.829972 75.068721 
L 641.829972 69.565493 
L 619.058132 69.565493 
z
" clip-path="url(#p754140f1a7)" style="fill: #1f77b4; opacity: 0.278696"/>
   </g>
   <g id="patch_32">
    <path d="M 475.425576 75.068721 
L 477.725131 75.068721 
L 477.725131 69.565493 
L 475.425576 69.565493 
z
" clip-path="url(#p754140f1a7)" style="fill: #1f77b4; opacity: 0.266715"/>
   </g>
   <g id="patch_33">
    <path d="M 443.420073 75.068721 
L 445.252779 75.068721 
L 445.252779 69.565493 
L 443.420073 69.565493 
z
" clip-path="url(#p754140f1a7)" style="fill: #1f77b4; opacity: 0.747707"/>
   </g>
   <g id="patch_34">
    <path d="M 434.717075 75.068721 
L 439.174918 75.068721 
L 439.174918 69.565493 
L 434.717075 69.565493 
z
" clip-path="url(#p754140f1a7)" style="fill: #1f77b4; opacity: 0.993752"/>
   </g>
   <g id="patch_35">
    <path d="M 424.454301 75.068721 
L 430.784481 75.068721 
L 430.784481 69.565493 
L 424.454301 69.565493 
z
" clip-path="url(#p754140f1a7)" style="fill: #1f77b4; opacity: 0.367325"/>
   </g>
   <g id="patch_36">
    <path d="M 325.400552 75.068721 
L 412.945331 75.068721 
L 412.945331 69.565493 
L 325.400552 69.565493 
z
" clip-path="url(#p754140f1a7)" style="fill: #1f77b4; opacity: 0.508673"/>
   </g>
   <g id="patch_37">
    <path d="M 232.106035 75.068721 
L 309.224647 75.068721 
L 309.224647 69.565493 
L 232.106035 69.565493 
z
" clip-path="url(#p754140f1a7)" style="fill: #1f77b4; opacity: 0.123502"/>
   </g>
   <g id="patch_38">
    <path d="M 182.748756 75.068721 
L 184.302446 75.068721 
L 184.302446 69.565493 
L 182.748756 69.565493 
z
" clip-path="url(#p754140f1a7)" style="fill: #1f77b4; opacity: 0.57336"/>
   </g>
   <g id="patch_39">
    <path d="M 119.433248 75.068721 
L 127.41387 75.068721 
L 127.41387 69.565493 
L 119.433248 69.565493 
z
" clip-path="url(#p754140f1a7)" style="fill: #1f77b4; opacity: 0.140869"/>
   </g>
   <g id="patch_40">
    <path d="M 108.35386 75.068721 
L 112.682394 75.068721 
L 112.682394 69.565493 
L 108.35386 69.565493 
z
" clip-path="url(#p754140f1a7)" style="fill: #1f77b4; opacity: 0.077432"/>
   </g>
   <g id="patch_41">
    <path d="M 66.088022 75.068721 
L 68.069837 75.068721 
L 68.069837 69.565493 
L 66.088022 69.565493 
z
" clip-path="url(#p754140f1a7)" style="fill: #1f77b4; opacity: 0.144533"/>
   </g>
   <g id="patch_42">
    <path d="M 57.064789 75.068721 
L 59.23033 75.068721 
L 59.23033 69.565493 
L 57.064789 69.565493 
z
" clip-path="url(#p754140f1a7)" style="fill: #1f77b4; opacity: 0.530129"/>
   </g>
  </g>
  <g id="axes_4">
   <g id="patch_43">
    <path d="M 22.70841 113.815891 
L 692.30841 113.815891 
L 692.30841 86.108486 
L 22.70841 86.108486 
z
" style="fill: #ffffff"/>
   </g>
   <g id="patch_44">
    <path d="M 23.513358 102.699621 
L 259.094873 102.699621 
L 259.094873 97.15814 
L 23.513358 97.15814 
z
" clip-path="url(#pa43ddebc4c)" style="fill: #ebeaea"/>
   </g>
   <g id="patch_45">
    <path d="M 275.73047 102.699621 
L 555.572222 102.699621 
L 555.572222 97.15814 
L 275.73047 97.15814 
z
" clip-path="url(#pa43ddebc4c)" style="fill: #ebeaea"/>
   </g>
   <g id="patch_46">
    <path d="M 23.513358 102.699621 
L 259.094873 102.699621 
L 259.094873 97.15814 
L 23.513358 97.15814 
L 23.513358 102.699621 
z
" clip-path="url(#pa43ddebc4c)" style="fill: none; stroke: #000000; stroke-width: 0.7; stroke-linejoin: miter"/>
   </g>
   <g id="patch_47">
    <path d="M 275.73047 102.699621 
L 555.572222 102.699621 
L 555.572222 97.15814 
L 275.73047 97.15814 
L 275.73047 102.699621 
z
" clip-path="url(#pa43ddebc4c)" style="fill: none; stroke: #000000; stroke-width: 0.7; stroke-linejoin: miter"/>
   </g>
   <g id="matplotlib.axis_7">
    <g id="xtick_16"/>
    <g id="xtick_17"/>
    <g id="xtick_18"/>
    <g id="xtick_19"/>
    <g id="xtick_20"/>
   </g>
   <g id="matplotlib.axis_8">
    <g id="ytick_7"/>
    <g id="ytick_8"/>
   </g>
   <g id="patch_48">
    <path d="M 259.094873 102.699621 
L 259.094873 97.15814 
L 275.73047 102.699621 
L 275.73047 97.15814 
z
" clip-path="url(#pa43ddebc4c)" style="fill: #777777; stroke: #777777; stroke-width: 0.64; stroke-linejoin: miter"/>
   </g>
   <g id="text_9">
    <!-- 3 -->
    <g style="fill: #262626" transform="translate(14.742228 101.743412) scale(0.07 -0.07)">
     <defs>
      <path id="Arial-BoldMT-33" d="M 241 1216 
L 1091 1319 
Q 1131 994 1309 822 
Q 1488 650 1741 650 
Q 2013 650 2198 856 
Q 2384 1063 2384 1413 
Q 2384 1744 2206 1937 
Q 2028 2131 1772 2131 
Q 1603 2131 1369 2066 
L 1466 2781 
Q 1822 2772 2009 2936 
Q 2197 3100 2197 3372 
Q 2197 3603 2059 3740 
Q 1922 3878 1694 3878 
Q 1469 3878 1309 3722 
Q 1150 3566 1116 3266 
L 306 3403 
Q 391 3819 561 4067 
Q 731 4316 1036 4458 
Q 1341 4600 1719 4600 
Q 2366 4600 2756 4188 
Q 3078 3850 3078 3425 
Q 3078 2822 2419 2463 
Q 2813 2378 3048 2084 
Q 3284 1791 3284 1375 
Q 3284 772 2843 347 
Q 2403 -78 1747 -78 
Q 1125 -78 715 280 
Q 306 638 241 1216 
z
" transform="scale(0.015625)"/>
     </defs>
     <use xlink:href="#Arial-BoldMT-33"/>
    </g>
   </g>
   <g id="patch_49">
    <path d="M 483.694286 102.776127 
L 514.72954 102.776127 
L 514.72954 97.272899 
L 483.694286 97.272899 
z
" clip-path="url(#pa43ddebc4c)" style="fill: #1f77b4; opacity: 0.387324"/>
   </g>
   <g id="patch_50">
    <path d="M 442.414065 102.776127 
L 469.358413 102.776127 
L 469.358413 97.272899 
L 442.414065 97.272899 
z
" clip-path="url(#pa43ddebc4c)" style="fill: #1f77b4; opacity: 0.797438"/>
   </g>
   <g id="patch_51">
    <path d="M 430.002715 102.776127 
L 434.92645 102.776127 
L 434.92645 97.272899 
L 430.002715 97.272899 
z
" clip-path="url(#pa43ddebc4c)" style="fill: #1f77b4; opacity: 0.389002"/>
   </g>
   <g id="patch_52">
    <path d="M 418.029309 102.776127 
L 427.041732 102.776127 
L 427.041732 97.272899 
L 418.029309 97.272899 
z
" clip-path="url(#pa43ddebc4c)" style="fill: #1f77b4; opacity: 0.691753"/>
   </g>
   <g id="patch_53">
    <path d="M 291.73473 102.776127 
L 381.058616 102.776127 
L 381.058616 97.272899 
L 291.73473 97.272899 
z
" clip-path="url(#pa43ddebc4c)" style="fill: #1f77b4; opacity: 0.388612"/>
   </g>
   <g id="patch_54">
    <path d="M 171.85625 102.776127 
L 245.699083 102.776127 
L 245.699083 97.272899 
L 171.85625 97.272899 
z
" clip-path="url(#pa43ddebc4c)" style="fill: #1f77b4; opacity: 0.400968"/>
   </g>
   <g id="patch_55">
    <path d="M 153.682524 102.776127 
L 158.828493 102.776127 
L 158.828493 97.272899 
L 153.682524 97.272899 
z
" clip-path="url(#pa43ddebc4c)" style="fill: #1f77b4; opacity: 0.073468"/>
   </g>
   <g id="patch_56">
    <path d="M 93.688264 102.776127 
L 97.739797 102.776127 
L 97.739797 97.272899 
L 93.688264 97.272899 
z
" clip-path="url(#pa43ddebc4c)" style="fill: #1f77b4; opacity: 0.432043"/>
   </g>
   <g id="patch_57">
    <path d="M 66.441427 102.776127 
L 68.737461 102.776127 
L 68.737461 97.272899 
L 66.441427 97.272899 
z
" clip-path="url(#pa43ddebc4c)" style="fill: #1f77b4; opacity: 0.80231"/>
   </g>
  </g>
  <g id="axes_5">
   <g id="patch_58">
    <path d="M 22.70841 141.523297 
L 692.30841 141.523297 
L 692.30841 113.815891 
L 22.70841 113.815891 
z
" style="fill: #ffffff"/>
   </g>
   <g id="patch_59">
    <path d="M 23.513358 130.407027 
L 152.841707 130.407027 
L 152.841707 124.865546 
L 23.513358 124.865546 
z
" clip-path="url(#paadcbd27af)" style="fill: #ebeaea"/>
   </g>
   <g id="patch_60">
    <path d="M 162.501086 130.407027 
L 533.889589 130.407027 
L 533.889589 124.865546 
L 162.501086 124.865546 
z
" clip-path="url(#paadcbd27af)" style="fill: #ebeaea"/>
   </g>
   <g id="patch_61">
    <path d="M 23.513358 130.407027 
L 152.841707 130.407027 
L 152.841707 124.865546 
L 23.513358 124.865546 
L 23.513358 130.407027 
z
" clip-path="url(#paadcbd27af)" style="fill: none; stroke: #000000; stroke-width: 0.7; stroke-linejoin: miter"/>
   </g>
   <g id="patch_62">
    <path d="M 162.501086 130.407027 
L 533.889589 130.407027 
L 533.889589 124.865546 
L 162.501086 124.865546 
L 162.501086 130.407027 
z
" clip-path="url(#paadcbd27af)" style="fill: none; stroke: #000000; stroke-width: 0.7; stroke-linejoin: miter"/>
   </g>
   <g id="matplotlib.axis_9">
    <g id="xtick_21"/>
    <g id="xtick_22"/>
    <g id="xtick_23"/>
    <g id="xtick_24"/>
    <g id="xtick_25"/>
   </g>
   <g id="matplotlib.axis_10">
    <g id="ytick_9"/>
    <g id="ytick_10"/>
   </g>
   <g id="patch_63">
    <path d="M 152.841707 130.407027 
L 152.841707 124.865546 
L 162.501086 130.407027 
L 162.501086 124.865546 
z
" clip-path="url(#paadcbd27af)" style="fill: #777777; stroke: #777777; stroke-width: 0.64; stroke-linejoin: miter"/>
   </g>
   <g id="text_10">
    <!-- 4 -->
    <g style="fill: #262626" transform="translate(14.742228 129.450817) scale(0.07 -0.07)">
     <defs>
      <path id="Arial-BoldMT-34" d="M 1994 0 
L 1994 922 
L 119 922 
L 119 1691 
L 2106 4600 
L 2844 4600 
L 2844 1694 
L 3413 1694 
L 3413 922 
L 2844 922 
L 2844 0 
L 1994 0 
z
M 1994 1694 
L 1994 3259 
L 941 1694 
L 1994 1694 
z
" transform="scale(0.015625)"/>
     </defs>
     <use xlink:href="#Arial-BoldMT-34"/>
    </g>
   </g>
   <g id="patch_64">
    <path d="M 445.267499 130.483533 
L 513.575169 130.483533 
L 513.575169 124.980304 
L 445.267499 124.980304 
z
" clip-path="url(#paadcbd27af)" style="fill: #1f77b4; opacity: 0.744925"/>
   </g>
   <g id="patch_65">
    <path d="M 406.487779 130.483533 
L 437.245183 130.483533 
L 437.245183 124.980304 
L 406.487779 124.980304 
z
" clip-path="url(#paadcbd27af)" style="fill: #1f77b4; opacity: 0.251142"/>
   </g>
   <g id="patch_66">
    <path d="M 380.123626 130.483533 
L 401.789017 130.483533 
L 401.789017 124.980304 
L 380.123626 124.980304 
z
" clip-path="url(#paadcbd27af)" style="fill: #1f77b4; opacity: 0.736969"/>
   </g>
   <g id="patch_67">
    <path d="M 349.921891 130.483533 
L 358.865654 130.483533 
L 358.865654 124.980304 
L 349.921891 124.980304 
z
" clip-path="url(#paadcbd27af)" style="fill: #1f77b4; opacity: 0.874991"/>
   </g>
   <g id="patch_68">
    <path d="M 283.945034 130.483533 
L 331.489059 130.483533 
L 331.489059 124.980304 
L 283.945034 124.980304 
z
" clip-path="url(#paadcbd27af)" style="fill: #1f77b4; opacity: 0.762884"/>
   </g>
   <g id="patch_69">
    <path d="M 249.779578 130.483533 
L 270.903603 130.483533 
L 270.903603 124.980304 
L 249.779578 124.980304 
z
" clip-path="url(#paadcbd27af)" style="fill: #1f77b4; opacity: 0.730874"/>
   </g>
   <g id="patch_70">
    <path d="M 239.153864 130.483533 
L 240.037748 130.483533 
L 240.037748 124.980304 
L 239.153864 124.980304 
z
" clip-path="url(#paadcbd27af)" style="fill: #1f77b4; opacity: 0.451714"/>
   </g>
   <g id="patch_71">
    <path d="M 199.325211 130.483533 
L 202.443966 130.483533 
L 202.443966 124.980304 
L 199.325211 124.980304 
z
" clip-path="url(#paadcbd27af)" style="fill: #1f77b4; opacity: 0.918114"/>
   </g>
   <g id="patch_72">
    <path d="M 82.469878 130.483533 
L 152.991344 130.483533 
L 152.991344 124.980304 
L 82.469878 124.980304 
z
" clip-path="url(#paadcbd27af)" style="fill: #1f77b4; opacity: 0.741637"/>
   </g>
  </g>
  <g id="axes_6">
   <g id="patch_73">
    <path d="M 22.70841 169.230703 
L 692.30841 169.230703 
L 692.30841 141.523297 
L 22.70841 141.523297 
z
" style="fill: #ffffff"/>
   </g>
   <g id="patch_74">
    <path d="M 23.513358 158.114432 
L 147.207069 158.114432 
L 147.207069 152.572951 
L 23.513358 152.572951 
z
" clip-path="url(#p8fd5bfbb04)" style="fill: #ebeaea"/>
   </g>
   <g id="patch_75">
    <path d="M 161.427821 158.114432 
L 510.609692 158.114432 
L 510.609692 152.572951 
L 161.427821 152.572951 
z
" clip-path="url(#p8fd5bfbb04)" style="fill: #ebeaea"/>
   </g>
   <g id="patch_76">
    <path d="M 23.513358 158.114432 
L 147.207069 158.114432 
L 147.207069 152.572951 
L 23.513358 152.572951 
L 23.513358 158.114432 
z
" clip-path="url(#p8fd5bfbb04)" style="fill: none; stroke: #000000; stroke-width: 0.7; stroke-linejoin: miter"/>
   </g>
   <g id="patch_77">
    <path d="M 161.427821 158.114432 
L 510.609692 158.114432 
L 510.609692 152.572951 
L 161.427821 152.572951 
L 161.427821 158.114432 
z
" clip-path="url(#p8fd5bfbb04)" style="fill: none; stroke: #000000; stroke-width: 0.7; stroke-linejoin: miter"/>
   </g>
   <g id="matplotlib.axis_11">
    <g id="xtick_26"/>
    <g id="xtick_27"/>
    <g id="xtick_28"/>
    <g id="xtick_29"/>
    <g id="xtick_30"/>
   </g>
   <g id="matplotlib.axis_12">
    <g id="ytick_11"/>
    <g id="ytick_12"/>
   </g>
   <g id="patch_78">
    <path d="M 147.207069 158.114432 
L 147.207069 152.572951 
L 161.427821 158.114432 
L 161.427821 152.572951 
z
" clip-path="url(#p8fd5bfbb04)" style="fill: #777777; stroke: #777777; stroke-width: 0.64; stroke-linejoin: miter"/>
   </g>
   <g id="text_11">
    <!-- 5 -->
    <g style="fill: #262626" transform="translate(14.742228 157.158223) scale(0.07 -0.07)">
     <defs>
      <path id="Arial-BoldMT-35" d="M 284 1178 
L 1159 1269 
Q 1197 972 1381 798 
Q 1566 625 1806 625 
Q 2081 625 2272 848 
Q 2463 1072 2463 1522 
Q 2463 1944 2273 2155 
Q 2084 2366 1781 2366 
Q 1403 2366 1103 2031 
L 391 2134 
L 841 4519 
L 3163 4519 
L 3163 3697 
L 1506 3697 
L 1369 2919 
Q 1663 3066 1969 3066 
Q 2553 3066 2959 2641 
Q 3366 2216 3366 1538 
Q 3366 972 3038 528 
Q 2591 -78 1797 -78 
Q 1163 -78 763 262 
Q 363 603 284 1178 
z
" transform="scale(0.015625)"/>
     </defs>
     <use xlink:href="#Arial-BoldMT-35"/>
    </g>
   </g>
   <g id="patch_79">
    <path d="M 462.119428 158.190938 
L 504.799495 158.190938 
L 504.799495 152.68771 
L 462.119428 152.68771 
z
" clip-path="url(#p8fd5bfbb04)" style="fill: #1f77b4; opacity: 0.22029"/>
   </g>
   <g id="patch_80">
    <path d="M 425.470479 158.190938 
L 436.238432 158.190938 
L 436.238432 152.68771 
L 425.470479 152.68771 
z
" clip-path="url(#p8fd5bfbb04)" style="fill: #1f77b4; opacity: 0.385716"/>
   </g>
   <g id="patch_81">
    <path d="M 375.69171 158.190938 
L 392.235787 158.190938 
L 392.235787 152.68771 
L 375.69171 152.68771 
z
" clip-path="url(#p8fd5bfbb04)" style="fill: #1f77b4; opacity: 0.823184"/>
   </g>
   <g id="patch_82">
    <path d="M 327.24391 158.190938 
L 346.788646 158.190938 
L 346.788646 152.68771 
L 327.24391 152.68771 
z
" clip-path="url(#p8fd5bfbb04)" style="fill: #1f77b4; opacity: 0.801939"/>
   </g>
   <g id="patch_83">
    <path d="M 269.880927 158.190938 
L 324.668612 158.190938 
L 324.668612 152.68771 
L 269.880927 152.68771 
z
" clip-path="url(#p8fd5bfbb04)" style="fill: #1f77b4; opacity: 0.879345"/>
   </g>
   <g id="patch_84">
    <path d="M 230.902109 158.190938 
L 249.491723 158.190938 
L 249.491723 152.68771 
L 230.902109 152.68771 
z
" clip-path="url(#p8fd5bfbb04)" style="fill: #1f77b4; opacity: 0.150825"/>
   </g>
   <g id="patch_85">
    <path d="M 132.98105 158.190938 
L 142.328216 158.190938 
L 142.328216 152.68771 
L 132.98105 152.68771 
z
" clip-path="url(#p8fd5bfbb04)" style="fill: #1f77b4; opacity: 0.097271"/>
   </g>
   <g id="patch_86">
    <path d="M 79.419932 158.190938 
L 108.550882 158.190938 
L 108.550882 152.68771 
L 79.419932 152.68771 
z
" clip-path="url(#p8fd5bfbb04)" style="fill: #1f77b4; opacity: 0.489188"/>
   </g>
   <g id="patch_87">
    <path d="M 51.752597 158.190938 
L 76.236684 158.190938 
L 76.236684 152.68771 
L 51.752597 152.68771 
z
" clip-path="url(#p8fd5bfbb04)" style="fill: #1f77b4; opacity: 0.596518"/>
   </g>
  </g>
  <g id="axes_7">
   <g id="patch_88">
    <path d="M 22.70841 196.938108 
L 692.30841 196.938108 
L 692.30841 169.230703 
L 22.70841 169.230703 
z
" style="fill: #ffffff"/>
   </g>
   <g id="patch_89">
    <path d="M 23.513358 185.821838 
L 180.478263 185.821838 
L 180.478263 180.280357 
L 23.513358 180.280357 
z
" clip-path="url(#pbf733934e7)" style="fill: #ebeaea"/>
   </g>
   <g id="patch_90">
    <path d="M 191.479222 185.821838 
L 481.813259 185.821838 
L 481.813259 180.280357 
L 191.479222 180.280357 
z
" clip-path="url(#pbf733934e7)" style="fill: #ebeaea"/>
   </g>
   <g id="patch_91">
    <path d="M 23.513358 185.821838 
L 180.478263 185.821838 
L 180.478263 180.280357 
L 23.513358 180.280357 
L 23.513358 185.821838 
z
" clip-path="url(#pbf733934e7)" style="fill: none; stroke: #000000; stroke-width: 0.7; stroke-linejoin: miter"/>
   </g>
   <g id="patch_92">
    <path d="M 191.479222 185.821838 
L 481.813259 185.821838 
L 481.813259 180.280357 
L 191.479222 180.280357 
L 191.479222 185.821838 
z
" clip-path="url(#pbf733934e7)" style="fill: none; stroke: #000000; stroke-width: 0.7; stroke-linejoin: miter"/>
   </g>
   <g id="matplotlib.axis_13">
    <g id="xtick_31"/>
    <g id="xtick_32"/>
    <g id="xtick_33"/>
    <g id="xtick_34"/>
    <g id="xtick_35"/>
   </g>
   <g id="matplotlib.axis_14">
    <g id="ytick_13"/>
    <g id="ytick_14"/>
   </g>
   <g id="patch_93">
    <path d="M 180.478263 185.821838 
L 180.478263 180.280357 
L 191.479222 185.821838 
L 191.479222 180.280357 
z
" clip-path="url(#pbf733934e7)" style="fill: #777777; stroke: #777777; stroke-width: 0.64; stroke-linejoin: miter"/>
   </g>
   <g id="text_12">
    <!-- 6 -->
    <g style="fill: #262626" transform="translate(14.742228 184.865629) scale(0.07 -0.07)">
     <defs>
      <path id="Arial-BoldMT-36" d="M 3247 3459 
L 2397 3366 
Q 2366 3628 2234 3753 
Q 2103 3878 1894 3878 
Q 1616 3878 1423 3628 
Q 1231 3378 1181 2588 
Q 1509 2975 1997 2975 
Q 2547 2975 2939 2556 
Q 3331 2138 3331 1475 
Q 3331 772 2918 347 
Q 2506 -78 1859 -78 
Q 1166 -78 719 461 
Q 272 1000 272 2228 
Q 272 3488 737 4044 
Q 1203 4600 1947 4600 
Q 2469 4600 2811 4308 
Q 3153 4016 3247 3459 
z
M 1256 1544 
Q 1256 1116 1453 883 
Q 1650 650 1903 650 
Q 2147 650 2309 840 
Q 2472 1031 2472 1466 
Q 2472 1913 2297 2120 
Q 2122 2328 1859 2328 
Q 1606 2328 1431 2129 
Q 1256 1931 1256 1544 
z
" transform="scale(0.015625)"/>
     </defs>
     <use xlink:href="#Arial-BoldMT-36"/>
    </g>
   </g>
   <g id="patch_94">
    <path d="M 439.782297 185.898344 
L 441.186057 185.898344 
L 441.186057 180.395116 
L 439.782297 180.395116 
z
" clip-path="url(#pbf733934e7)" style="fill: #1f77b4; opacity: 0.038296"/>
   </g>
   <g id="patch_95">
    <path d="M 364.985281 185.898344 
L 381.2461 185.898344 
L 381.2461 180.395116 
L 364.985281 180.395116 
z
" clip-path="url(#pbf733934e7)" style="fill: #1f77b4; opacity: 0.886765"/>
   </g>
   <g id="patch_96">
    <path d="M 344.488565 185.898344 
L 352.097749 185.898344 
L 352.097749 180.395116 
L 344.488565 180.395116 
z
" clip-path="url(#pbf733934e7)" style="fill: #1f77b4; opacity: 0.724963"/>
   </g>
   <g id="patch_97">
    <path d="M 275.731261 185.898344 
L 301.381755 185.898344 
L 301.381755 180.395116 
L 275.731261 180.395116 
z
" clip-path="url(#pbf733934e7)" style="fill: #1f77b4; opacity: 0.768829"/>
   </g>
   <g id="patch_98">
    <path d="M 246.509765 185.898344 
L 268.488351 185.898344 
L 268.488351 180.395116 
L 246.509765 180.395116 
z
" clip-path="url(#pbf733934e7)" style="fill: #1f77b4; opacity: 0.959336"/>
   </g>
   <g id="patch_99">
    <path d="M 217.9386 185.898344 
L 228.494847 185.898344 
L 228.494847 180.395116 
L 217.9386 180.395116 
z
" clip-path="url(#pbf733934e7)" style="fill: #1f77b4; opacity: 0.41582"/>
   </g>
   <g id="patch_100">
    <path d="M 73.040248 185.898344 
L 90.926385 185.898344 
L 90.926385 180.395116 
L 73.040248 180.395116 
z
" clip-path="url(#pbf733934e7)" style="fill: #1f77b4; opacity: 0.452183"/>
   </g>
   <g id="patch_101">
    <path d="M 67.210842 185.898344 
L 70.329949 185.898344 
L 70.329949 180.395116 
L 67.210842 180.395116 
z
" clip-path="url(#pbf733934e7)" style="fill: #1f77b4; opacity: 0.636834"/>
   </g>
  </g>
  <g id="axes_8">
   <g id="patch_102">
    <path d="M 22.70841 224.645514 
L 692.30841 224.645514 
L 692.30841 196.938108 
L 22.70841 196.938108 
z
" style="fill: #ffffff"/>
   </g>
   <g id="patch_103">
    <path d="M 23.513358 213.529244 
L 179.404998 213.529244 
L 179.404998 207.987763 
L 23.513358 207.987763 
z
" clip-path="url(#p7d31294dd7)" style="fill: #ebeaea"/>
   </g>
   <g id="patch_104">
    <path d="M 190.137641 213.529244 
L 451.064221 213.529244 
L 451.064221 207.987763 
L 190.137641 207.987763 
z
" clip-path="url(#p7d31294dd7)" style="fill: #ebeaea"/>
   </g>
   <g id="patch_105">
    <path d="M 23.513358 213.529244 
L 179.404998 213.529244 
L 179.404998 207.987763 
L 23.513358 207.987763 
L 23.513358 213.529244 
z
" clip-path="url(#p7d31294dd7)" style="fill: none; stroke: #000000; stroke-width: 0.7; stroke-linejoin: miter"/>
   </g>
   <g id="patch_106">
    <path d="M 190.137641 213.529244 
L 451.064221 213.529244 
L 451.064221 207.987763 
L 190.137641 207.987763 
L 190.137641 213.529244 
z
" clip-path="url(#p7d31294dd7)" style="fill: none; stroke: #000000; stroke-width: 0.7; stroke-linejoin: miter"/>
   </g>
   <g id="matplotlib.axis_15">
    <g id="xtick_36"/>
    <g id="xtick_37"/>
    <g id="xtick_38"/>
    <g id="xtick_39"/>
    <g id="xtick_40"/>
   </g>
   <g id="matplotlib.axis_16">
    <g id="ytick_15"/>
    <g id="ytick_16"/>
   </g>
   <g id="patch_107">
    <path d="M 179.404998 213.529244 
L 179.404998 207.987763 
L 190.137641 213.529244 
L 190.137641 207.987763 
z
" clip-path="url(#p7d31294dd7)" style="fill: #777777; stroke: #777777; stroke-width: 0.64; stroke-linejoin: miter"/>
   </g>
   <g id="text_13">
    <!-- 7 -->
    <g style="fill: #262626" transform="translate(14.742228 212.573035) scale(0.07 -0.07)">
     <defs>
      <path id="Arial-BoldMT-37" d="M 272 3703 
L 272 4519 
L 3275 4519 
L 3275 3881 
Q 2903 3516 2518 2831 
Q 2134 2147 1932 1376 
Q 1731 606 1734 0 
L 888 0 
Q 909 950 1279 1937 
Q 1650 2925 2269 3703 
L 272 3703 
z
" transform="scale(0.015625)"/>
     </defs>
     <use xlink:href="#Arial-BoldMT-37"/>
    </g>
   </g>
   <g id="patch_108">
    <path d="M 356.05192 213.60575 
L 379.098444 213.60575 
L 379.098444 208.102522 
L 356.05192 208.102522 
z
" clip-path="url(#p7d31294dd7)" style="fill: #1f77b4; opacity: 0.596205"/>
   </g>
   <g id="patch_109">
    <path d="M 305.097023 213.60575 
L 310.101343 213.60575 
L 310.101343 208.102522 
L 305.097023 208.102522 
z
" clip-path="url(#p7d31294dd7)" style="fill: #1f77b4; opacity: 0.497172"/>
   </g>
   <g id="patch_110">
    <path d="M 273.445799 213.60575 
L 279.538331 213.60575 
L 279.538331 208.102522 
L 273.445799 208.102522 
z
" clip-path="url(#p7d31294dd7)" style="fill: #1f77b4; opacity: 0.276462"/>
   </g>
   <g id="patch_111">
    <path d="M 201.859298 213.60575 
L 230.537781 213.60575 
L 230.537781 208.102522 
L 201.859298 208.102522 
z
" clip-path="url(#p7d31294dd7)" style="fill: #1f77b4; opacity: 0.413584"/>
   </g>
   <g id="patch_112">
    <path d="M 144.551121 213.60575 
L 180.678703 213.60575 
L 180.678703 208.102522 
L 144.551121 208.102522 
z
" clip-path="url(#p7d31294dd7)" style="fill: #1f77b4; opacity: 0.915585"/>
   </g>
   <g id="patch_113">
    <path d="M 107.852246 213.60575 
L 116.671358 213.60575 
L 116.671358 208.102522 
L 107.852246 208.102522 
z
" clip-path="url(#p7d31294dd7)" style="fill: #1f77b4; opacity: 0.904292"/>
   </g>
   <g id="patch_114">
    <path d="M 39.764426 213.60575 
L 65.975601 213.60575 
L 65.975601 208.102522 
L 39.764426 208.102522 
z
" clip-path="url(#p7d31294dd7)" style="fill: #1f77b4; opacity: 0.220065"/>
   </g>
  </g>
  <g id="axes_9">
   <g id="patch_115">
    <path d="M 22.70841 252.35292 
L 692.30841 252.35292 
L 692.30841 224.645514 
L 22.70841 224.645514 
z
" style="fill: #ffffff"/>
   </g>
   <g id="patch_116">
    <path d="M 23.513358 241.23665 
L 139.425903 241.23665 
L 139.425903 235.695168 
L 23.513358 235.695168 
z
" clip-path="url(#p1f342db1c6)" style="fill: #ebeaea"/>
   </g>
   <g id="patch_117">
    <path d="M 150.158546 241.23665 
L 412.943652 241.23665 
L 412.943652 235.695168 
L 150.158546 235.695168 
z
" clip-path="url(#p1f342db1c6)" style="fill: #ebeaea"/>
   </g>
   <g id="patch_118">
    <path d="M 23.513358 241.23665 
L 139.425903 241.23665 
L 139.425903 235.695168 
L 23.513358 235.695168 
L 23.513358 241.23665 
z
" clip-path="url(#p1f342db1c6)" style="fill: none; stroke: #000000; stroke-width: 0.7; stroke-linejoin: miter"/>
   </g>
   <g id="patch_119">
    <path d="M 150.158546 241.23665 
L 412.943652 241.23665 
L 412.943652 235.695168 
L 150.158546 235.695168 
L 150.158546 241.23665 
z
" clip-path="url(#p1f342db1c6)" style="fill: none; stroke: #000000; stroke-width: 0.7; stroke-linejoin: miter"/>
   </g>
   <g id="matplotlib.axis_17">
    <g id="xtick_41"/>
    <g id="xtick_42"/>
    <g id="xtick_43"/>
    <g id="xtick_44"/>
    <g id="xtick_45"/>
   </g>
   <g id="matplotlib.axis_18">
    <g id="ytick_17"/>
    <g id="ytick_18"/>
   </g>
   <g id="patch_120">
    <path d="M 139.425903 241.23665 
L 139.425903 235.695168 
L 150.158546 241.23665 
L 150.158546 235.695168 
z
" clip-path="url(#p1f342db1c6)" style="fill: #777777; stroke: #777777; stroke-width: 0.64; stroke-linejoin: miter"/>
   </g>
   <g id="text_14">
    <!-- 8 -->
    <g style="fill: #262626" transform="translate(14.742228 240.28044) scale(0.07 -0.07)">
     <defs>
      <path id="Arial-BoldMT-38" d="M 1025 2472 
Q 684 2616 529 2867 
Q 375 3119 375 3419 
Q 375 3931 733 4265 
Q 1091 4600 1750 4600 
Q 2403 4600 2764 4265 
Q 3125 3931 3125 3419 
Q 3125 3100 2959 2851 
Q 2794 2603 2494 2472 
Q 2875 2319 3073 2025 
Q 3272 1731 3272 1347 
Q 3272 713 2867 316 
Q 2463 -81 1791 -81 
Q 1166 -81 750 247 
Q 259 634 259 1309 
Q 259 1681 443 1992 
Q 628 2303 1025 2472 
z
M 1206 3356 
Q 1206 3094 1354 2947 
Q 1503 2800 1750 2800 
Q 2000 2800 2150 2948 
Q 2300 3097 2300 3359 
Q 2300 3606 2151 3754 
Q 2003 3903 1759 3903 
Q 1506 3903 1356 3753 
Q 1206 3603 1206 3356 
z
M 1125 1394 
Q 1125 1031 1311 828 
Q 1497 625 1775 625 
Q 2047 625 2225 820 
Q 2403 1016 2403 1384 
Q 2403 1706 2222 1901 
Q 2041 2097 1763 2097 
Q 1441 2097 1283 1875 
Q 1125 1653 1125 1394 
z
" transform="scale(0.015625)"/>
     </defs>
     <use xlink:href="#Arial-BoldMT-38"/>
    </g>
   </g>
   <g id="patch_121">
    <path d="M 333.598936 241.313155 
L 347.043044 241.313155 
L 347.043044 235.809927 
L 333.598936 235.809927 
z
" clip-path="url(#p1f342db1c6)" style="fill: #1f77b4; opacity: 0.442017"/>
   </g>
   <g id="patch_122">
    <path d="M 312.799836 241.313155 
L 322.632946 241.313155 
L 322.632946 235.809927 
L 312.799836 235.809927 
z
" clip-path="url(#p1f342db1c6)" style="fill: #1f77b4; opacity: 0.044426"/>
   </g>
   <g id="patch_123">
    <path d="M 281.920253 241.313155 
L 297.528285 241.313155 
L 297.528285 235.809927 
L 281.920253 235.809927 
z
" clip-path="url(#p1f342db1c6)" style="fill: #1f77b4; opacity: 0.455803"/>
   </g>
   <g id="patch_124">
    <path d="M 223.360197 241.313155 
L 224.315969 241.313155 
L 224.315969 235.809927 
L 223.360197 235.809927 
z
" clip-path="url(#p1f342db1c6)" style="fill: #1f77b4; opacity: 0.338788"/>
   </g>
   <g id="patch_125">
    <path d="M 143.339585 241.313155 
L 189.713399 241.313155 
L 189.713399 235.809927 
L 143.339585 235.809927 
z
" clip-path="url(#p1f342db1c6)" style="fill: #1f77b4; opacity: 0.336653"/>
   </g>
   <g id="patch_126">
    <path d="M 122.135162 241.313155 
L 132.21497 241.313155 
L 132.21497 235.809927 
L 122.135162 235.809927 
z
" clip-path="url(#p1f342db1c6)" style="fill: #1f77b4; opacity: 0.722929"/>
   </g>
   <g id="patch_127">
    <path d="M 81.552481 241.313155 
L 83.283538 241.313155 
L 83.283538 235.809927 
L 81.552481 235.809927 
z
" clip-path="url(#p1f342db1c6)" style="fill: #1f77b4; opacity: 0.092689"/>
   </g>
  </g>
  <g id="axes_10">
   <g id="patch_128">
    <path d="M 22.70841 280.060326 
L 692.30841 280.060326 
L 692.30841 252.35292 
L 22.70841 252.35292 
z
" style="fill: #ffffff"/>
   </g>
   <g id="patch_129">
    <path d="M 23.513358 268.944055 
L 136.742742 268.944055 
L 136.742742 263.402574 
L 23.513358 263.402574 
z
" clip-path="url(#p9ee7645002)" style="fill: #ebeaea"/>
   </g>
   <g id="patch_130">
    <path d="M 145.597173 268.944055 
L 394.848633 268.944055 
L 394.848633 263.402574 
L 145.597173 263.402574 
z
" clip-path="url(#p9ee7645002)" style="fill: #ebeaea"/>
   </g>
   <g id="patch_131">
    <path d="M 23.513358 268.944055 
L 136.742742 268.944055 
L 136.742742 263.402574 
L 23.513358 263.402574 
L 23.513358 268.944055 
z
" clip-path="url(#p9ee7645002)" style="fill: none; stroke: #000000; stroke-width: 0.7; stroke-linejoin: miter"/>
   </g>
   <g id="patch_132">
    <path d="M 145.597173 268.944055 
L 394.848633 268.944055 
L 394.848633 263.402574 
L 145.597173 263.402574 
L 145.597173 268.944055 
z
" clip-path="url(#p9ee7645002)" style="fill: none; stroke: #000000; stroke-width: 0.7; stroke-linejoin: miter"/>
   </g>
   <g id="matplotlib.axis_19">
    <g id="xtick_46"/>
    <g id="xtick_47"/>
    <g id="xtick_48"/>
    <g id="xtick_49"/>
    <g id="xtick_50"/>
   </g>
   <g id="matplotlib.axis_20">
    <g id="ytick_19"/>
    <g id="ytick_20"/>
   </g>
   <g id="patch_133">
    <path d="M 136.742742 268.944055 
L 136.742742 263.402574 
L 145.597173 268.944055 
L 145.597173 263.402574 
z
" clip-path="url(#p9ee7645002)" style="fill: #777777; stroke: #777777; stroke-width: 0.64; stroke-linejoin: miter"/>
   </g>
   <g id="text_15">
    <!-- 9 -->
    <g style="fill: #262626" transform="translate(14.742228 267.987846) scale(0.07 -0.07)">
     <defs>
      <path id="Arial-BoldMT-39" d="M 291 1059 
L 1141 1153 
Q 1172 894 1303 769 
Q 1434 644 1650 644 
Q 1922 644 2112 894 
Q 2303 1144 2356 1931 
Q 2025 1547 1528 1547 
Q 988 1547 595 1964 
Q 203 2381 203 3050 
Q 203 3747 617 4173 
Q 1031 4600 1672 4600 
Q 2369 4600 2816 4061 
Q 3263 3522 3263 2288 
Q 3263 1031 2797 475 
Q 2331 -81 1584 -81 
Q 1047 -81 715 205 
Q 384 491 291 1059 
z
M 2278 2978 
Q 2278 3403 2083 3637 
Q 1888 3872 1631 3872 
Q 1388 3872 1227 3680 
Q 1066 3488 1066 3050 
Q 1066 2606 1241 2398 
Q 1416 2191 1678 2191 
Q 1931 2191 2104 2391 
Q 2278 2591 2278 2978 
z
" transform="scale(0.015625)"/>
     </defs>
     <use xlink:href="#Arial-BoldMT-39"/>
    </g>
   </g>
   <g id="patch_134">
    <path d="M 289.470265 269.020561 
L 325.26187 269.020561 
L 325.26187 263.517333 
L 289.470265 263.517333 
z
" clip-path="url(#p9ee7645002)" style="fill: #1f77b4; opacity: 0.146446"/>
   </g>
   <g id="patch_135">
    <path d="M 212.75805 269.020561 
L 226.575509 269.020561 
L 226.575509 263.517333 
L 212.75805 263.517333 
z
" clip-path="url(#p9ee7645002)" style="fill: #1f77b4; opacity: 0.844884"/>
   </g>
   <g id="patch_136">
    <path d="M 190.581562 269.020561 
L 191.574952 269.020561 
L 191.574952 263.517333 
L 190.581562 263.517333 
z
" clip-path="url(#p9ee7645002)" style="fill: #1f77b4; opacity: 0.106221"/>
   </g>
   <g id="patch_137">
    <path d="M 150.435145 269.020561 
L 154.846811 269.020561 
L 154.846811 263.517333 
L 150.435145 263.517333 
z
" clip-path="url(#p9ee7645002)" style="fill: #1f77b4; opacity: 0.935044"/>
   </g>
   <g id="patch_138">
    <path d="M 128.437576 269.020561 
L 132.48685 269.020561 
L 132.48685 263.517333 
L 128.437576 263.517333 
z
" clip-path="url(#p9ee7645002)" style="fill: #1f77b4; opacity: 0.632246"/>
   </g>
   <g id="patch_139">
    <path d="M 26.4618 269.020561 
L 32.201843 269.020561 
L 32.201843 263.517333 
L 26.4618 263.517333 
z
" clip-path="url(#p9ee7645002)" style="fill: #1f77b4; opacity: 0.473047"/>
   </g>
  </g>
  <g id="axes_11">
   <g id="patch_140">
    <path d="M 22.70841 307.767731 
L 692.30841 307.767731 
L 692.30841 280.060326 
L 22.70841 280.060326 
z
" style="fill: #ffffff"/>
   </g>
   <g id="patch_141">
    <path d="M 23.513358 296.651461 
L 125.473467 296.651461 
L 125.473467 291.10998 
L 23.513358 291.10998 
z
" clip-path="url(#p985ca68369)" style="fill: #ebeaea"/>
   </g>
   <g id="patch_142">
    <path d="M 135.132846 296.651461 
L 382.513351 296.651461 
L 382.513351 291.10998 
L 135.132846 291.10998 
z
" clip-path="url(#p985ca68369)" style="fill: #ebeaea"/>
   </g>
   <g id="patch_143">
    <path d="M 23.513358 296.651461 
L 125.473467 296.651461 
L 125.473467 291.10998 
L 23.513358 291.10998 
L 23.513358 296.651461 
z
" clip-path="url(#p985ca68369)" style="fill: none; stroke: #000000; stroke-width: 0.7; stroke-linejoin: miter"/>
   </g>
   <g id="patch_144">
    <path d="M 135.132846 296.651461 
L 382.513351 296.651461 
L 382.513351 291.10998 
L 135.132846 291.10998 
L 135.132846 296.651461 
z
" clip-path="url(#p985ca68369)" style="fill: none; stroke: #000000; stroke-width: 0.7; stroke-linejoin: miter"/>
   </g>
   <g id="matplotlib.axis_21">
    <g id="xtick_51"/>
    <g id="xtick_52"/>
    <g id="xtick_53"/>
    <g id="xtick_54"/>
    <g id="xtick_55"/>
   </g>
   <g id="matplotlib.axis_22">
    <g id="ytick_21"/>
    <g id="ytick_22"/>
   </g>
   <g id="patch_145">
    <path d="M 125.473467 296.651461 
L 125.473467 291.10998 
L 135.132846 296.651461 
L 135.132846 291.10998 
z
" clip-path="url(#p985ca68369)" style="fill: #777777; stroke: #777777; stroke-width: 0.64; stroke-linejoin: miter"/>
   </g>
   <g id="text_16">
    <!-- 10 -->
    <g style="fill: #262626" transform="translate(10.849571 295.695252) scale(0.07 -0.07)">
     <defs>
      <path id="Arial-BoldMT-30" d="M 1756 4600 
Q 2422 4600 2797 4125 
Q 3244 3563 3244 2259 
Q 3244 959 2794 391 
Q 2422 -78 1756 -78 
Q 1088 -78 678 436 
Q 269 950 269 2269 
Q 269 3563 719 4131 
Q 1091 4600 1756 4600 
z
M 1756 3872 
Q 1597 3872 1472 3770 
Q 1347 3669 1278 3406 
Q 1188 3066 1188 2259 
Q 1188 1453 1269 1151 
Q 1350 850 1473 750 
Q 1597 650 1756 650 
Q 1916 650 2041 751 
Q 2166 853 2234 1116 
Q 2325 1453 2325 2259 
Q 2325 3066 2244 3367 
Q 2163 3669 2039 3770 
Q 1916 3872 1756 3872 
z
" transform="scale(0.015625)"/>
     </defs>
     <use xlink:href="#Arial-BoldMT-31"/>
     <use xlink:href="#Arial-BoldMT-30" x="55.615234"/>
    </g>
   </g>
   <g id="patch_146">
    <path d="M 332.935814 296.727967 
L 365.715361 296.727967 
L 365.715361 291.224739 
L 332.935814 291.224739 
z
" clip-path="url(#p985ca68369)" style="fill: #1f77b4; opacity: 0.181942"/>
   </g>
   <g id="patch_147">
    <path d="M 272.179277 296.727967 
L 289.930368 296.727967 
L 289.930368 291.224739 
L 272.179277 291.224739 
z
" clip-path="url(#p985ca68369)" style="fill: #1f77b4; opacity: 0.773863"/>
   </g>
   <g id="patch_148">
    <path d="M 259.38495 296.727967 
L 267.031765 296.727967 
L 267.031765 291.224739 
L 259.38495 291.224739 
z
" clip-path="url(#p985ca68369)" style="fill: #1f77b4; opacity: 0.054838"/>
   </g>
   <g id="patch_149">
    <path d="M 243.123732 296.727967 
L 245.925638 296.727967 
L 245.925638 291.224739 
L 243.123732 291.224739 
z
" clip-path="url(#p985ca68369)" style="fill: #1f77b4; opacity: 0.744193"/>
   </g>
   <g id="patch_150">
    <path d="M 209.156121 296.727967 
L 227.468543 296.727967 
L 227.468543 291.224739 
L 209.156121 291.224739 
z
" clip-path="url(#p985ca68369)" style="fill: #1f77b4; opacity: 0.181385"/>
   </g>
   <g id="patch_151">
    <path d="M 68.706331 296.727967 
L 138.254261 296.727967 
L 138.254261 291.224739 
L 68.706331 291.224739 
z
" clip-path="url(#p985ca68369)" style="fill: #1f77b4; opacity: 0.961358"/>
   </g>
  </g>
  <g id="axes_12">
   <g id="patch_152">
    <path d="M 22.70841 335.475137 
L 692.30841 335.475137 
L 692.30841 307.767731 
L 22.70841 307.767731 
z
" style="fill: #ffffff"/>
   </g>
   <g id="patch_153">
    <path d="M 23.513358 324.358867 
L 160.354557 324.358867 
L 160.354557 318.817386 
L 23.513358 318.817386 
z
" clip-path="url(#p23b81f228a)" style="fill: #ebeaea"/>
   </g>
   <g id="patch_154">
    <path d="M 173.233729 324.358867 
L 385.972482 324.358867 
L 385.972482 318.817386 
L 173.233729 318.817386 
z
" clip-path="url(#p23b81f228a)" style="fill: #ebeaea"/>
   </g>
   <g id="patch_155">
    <path d="M 23.513358 324.358867 
L 160.354557 324.358867 
L 160.354557 318.817386 
L 23.513358 318.817386 
L 23.513358 324.358867 
z
" clip-path="url(#p23b81f228a)" style="fill: none; stroke: #000000; stroke-width: 0.7; stroke-linejoin: miter"/>
   </g>
   <g id="patch_156">
    <path d="M 173.233729 324.358867 
L 385.972482 324.358867 
L 385.972482 318.817386 
L 173.233729 318.817386 
L 173.233729 324.358867 
z
" clip-path="url(#p23b81f228a)" style="fill: none; stroke: #000000; stroke-width: 0.7; stroke-linejoin: miter"/>
   </g>
   <g id="matplotlib.axis_23">
    <g id="xtick_56"/>
    <g id="xtick_57"/>
    <g id="xtick_58"/>
    <g id="xtick_59"/>
    <g id="xtick_60"/>
   </g>
   <g id="matplotlib.axis_24">
    <g id="ytick_23"/>
    <g id="ytick_24"/>
   </g>
   <g id="patch_157">
    <path d="M 160.354557 324.358867 
L 160.354557 318.817386 
L 173.233729 324.358867 
L 173.233729 318.817386 
z
" clip-path="url(#p23b81f228a)" style="fill: #777777; stroke: #777777; stroke-width: 0.64; stroke-linejoin: miter"/>
   </g>
   <g id="text_17">
    <!-- 11 -->
    <g style="fill: #262626" transform="translate(11.234571 323.402657) scale(0.07 -0.07)">
     <use xlink:href="#Arial-BoldMT-31"/>
     <use xlink:href="#Arial-BoldMT-31" x="50.115234"/>
    </g>
   </g>
   <g id="patch_158">
    <path d="M 311.934358 324.435373 
L 352.413501 324.435373 
L 352.413501 318.932144 
L 311.934358 318.932144 
z
" clip-path="url(#p23b81f228a)" style="fill: #1f77b4; opacity: 0.506484"/>
   </g>
   <g id="patch_159">
    <path d="M 310.22519 324.435373 
L 310.880048 324.435373 
L 310.880048 318.932144 
L 310.22519 318.932144 
z
" clip-path="url(#p23b81f228a)" style="fill: #1f77b4; opacity: 0.388976"/>
   </g>
   <g id="patch_160">
    <path d="M 306.126415 324.435373 
L 307.38046 324.435373 
L 307.38046 318.932144 
L 306.126415 318.932144 
z
" clip-path="url(#p23b81f228a)" style="fill: #1f77b4; opacity: 0.633517"/>
   </g>
   <g id="patch_161">
    <path d="M 160.800925 324.435373 
L 173.876185 324.435373 
L 173.876185 318.932144 
L 160.800925 318.932144 
z
" clip-path="url(#p23b81f228a)" style="fill: #1f77b4; opacity: 0.358732"/>
   </g>
   <g id="patch_162">
    <path d="M 72.020845 324.435373 
L 98.086515 324.435373 
L 98.086515 318.932144 
L 72.020845 318.932144 
z
" clip-path="url(#p23b81f228a)" style="fill: #1f77b4; opacity: 0.05619"/>
   </g>
   <g id="patch_163">
    <path d="M 62.402033 324.435373 
L 68.347692 324.435373 
L 68.347692 318.932144 
L 62.402033 318.932144 
z
" clip-path="url(#p23b81f228a)" style="fill: #1f77b4; opacity: 0.632384"/>
   </g>
  </g>
  <g id="axes_13">
   <g id="patch_164">
    <path d="M 22.70841 363.182543 
L 692.30841 363.182543 
L 692.30841 335.475137 
L 22.70841 335.475137 
z
" style="fill: #ffffff"/>
   </g>
   <g id="patch_165">
    <path d="M 23.513358 352.066272 
L 112.594295 352.066272 
L 112.594295 346.524791 
L 23.513358 346.524791 
z
" clip-path="url(#pab99f2f91a)" style="fill: #ebeaea"/>
   </g>
   <g id="patch_166">
    <path d="M 124.936835 352.066272 
L 381.112438 352.066272 
L 381.112438 346.524791 
L 124.936835 346.524791 
z
" clip-path="url(#pab99f2f91a)" style="fill: #ebeaea"/>
   </g>
   <g id="patch_167">
    <path d="M 23.513358 352.066272 
L 112.594295 352.066272 
L 112.594295 346.524791 
L 23.513358 346.524791 
L 23.513358 352.066272 
z
" clip-path="url(#pab99f2f91a)" style="fill: none; stroke: #000000; stroke-width: 0.7; stroke-linejoin: miter"/>
   </g>
   <g id="patch_168">
    <path d="M 124.936835 352.066272 
L 381.112438 352.066272 
L 381.112438 346.524791 
L 124.936835 346.524791 
L 124.936835 352.066272 
z
" clip-path="url(#pab99f2f91a)" style="fill: none; stroke: #000000; stroke-width: 0.7; stroke-linejoin: miter"/>
   </g>
   <g id="matplotlib.axis_25">
    <g id="xtick_61"/>
    <g id="xtick_62"/>
    <g id="xtick_63"/>
    <g id="xtick_64"/>
    <g id="xtick_65"/>
   </g>
   <g id="matplotlib.axis_26">
    <g id="ytick_25"/>
    <g id="ytick_26"/>
   </g>
   <g id="patch_169">
    <path d="M 112.594295 352.066272 
L 112.594295 346.524791 
L 124.936835 352.066272 
L 124.936835 346.524791 
z
" clip-path="url(#pab99f2f91a)" style="fill: #777777; stroke: #777777; stroke-width: 0.64; stroke-linejoin: miter"/>
   </g>
   <g id="text_18">
    <!-- 12 -->
    <g style="fill: #262626" transform="translate(10.849571 351.110063) scale(0.07 -0.07)">
     <use xlink:href="#Arial-BoldMT-31"/>
     <use xlink:href="#Arial-BoldMT-32" x="55.615234"/>
    </g>
   </g>
   <g id="patch_170">
    <path d="M 227.627858 352.142778 
L 239.85191 352.142778 
L 239.85191 346.63955 
L 227.627858 346.63955 
z
" clip-path="url(#pab99f2f91a)" style="fill: #1f77b4; opacity: 0.95101"/>
   </g>
   <g id="patch_171">
    <path d="M 182.195317 352.142778 
L 216.764634 352.142778 
L 216.764634 346.63955 
L 182.195317 346.63955 
z
" clip-path="url(#pab99f2f91a)" style="fill: #1f77b4; opacity: 0.666452"/>
   </g>
   <g id="patch_172">
    <path d="M 81.963238 352.142778 
L 145.97611 352.142778 
L 145.97611 346.63955 
L 81.963238 346.63955 
z
" clip-path="url(#pab99f2f91a)" style="fill: #1f77b4; opacity: 0.489444"/>
   </g>
   <g id="patch_173">
    <path d="M 63.101589 352.142778 
L 77.988055 352.142778 
L 77.988055 346.63955 
L 63.101589 346.63955 
z
" clip-path="url(#pab99f2f91a)" style="fill: #1f77b4; opacity: 0.0026"/>
   </g>
   <g id="patch_174">
    <path d="M 59.785173 352.142778 
L 60.651407 352.142778 
L 60.651407 346.63955 
L 59.785173 346.63955 
z
" clip-path="url(#pab99f2f91a)" style="fill: #1f77b4; opacity: 0.478444"/>
   </g>
   <g id="patch_175">
    <path d="M 23.597368 352.142778 
L 42.447291 352.142778 
L 42.447291 346.63955 
L 23.597368 346.63955 
z
" clip-path="url(#pab99f2f91a)" style="fill: #1f77b4; opacity: 0.04127"/>
   </g>
  </g>
  <g id="axes_14">
   <g id="patch_176">
    <path d="M 22.70841 390.889948 
L 692.30841 390.889948 
L 692.30841 363.182543 
L 22.70841 363.182543 
z
" style="fill: #ffffff"/>
   </g>
   <g id="patch_177">
    <path d="M 23.513358 379.773678 
L 67.785511 379.773678 
L 67.785511 374.232197 
L 23.513358 374.232197 
z
" clip-path="url(#p34c9356da2)" style="fill: #ebeaea"/>
   </g>
   <g id="patch_178">
    <path d="M 74.225096 379.773678 
L 330.371236 379.773678 
L 330.371236 374.232197 
L 74.225096 374.232197 
z
" clip-path="url(#p34c9356da2)" style="fill: #ebeaea"/>
   </g>
   <g id="patch_179">
    <path d="M 23.513358 379.773678 
L 67.785511 379.773678 
L 67.785511 374.232197 
L 23.513358 374.232197 
L 23.513358 379.773678 
z
" clip-path="url(#p34c9356da2)" style="fill: none; stroke: #000000; stroke-width: 0.7; stroke-linejoin: miter"/>
   </g>
   <g id="patch_180">
    <path d="M 74.225096 379.773678 
L 330.371236 379.773678 
L 330.371236 374.232197 
L 74.225096 374.232197 
L 74.225096 379.773678 
z
" clip-path="url(#p34c9356da2)" style="fill: none; stroke: #000000; stroke-width: 0.7; stroke-linejoin: miter"/>
   </g>
   <g id="matplotlib.axis_27">
    <g id="xtick_66"/>
    <g id="xtick_67"/>
    <g id="xtick_68"/>
    <g id="xtick_69"/>
    <g id="xtick_70"/>
   </g>
   <g id="matplotlib.axis_28">
    <g id="ytick_27"/>
    <g id="ytick_28"/>
   </g>
   <g id="patch_181">
    <path d="M 67.785511 379.773678 
L 67.785511 374.232197 
L 74.225096 379.773678 
L 74.225096 374.232197 
z
" clip-path="url(#p34c9356da2)" style="fill: #777777; stroke: #777777; stroke-width: 0.64; stroke-linejoin: miter"/>
   </g>
   <g id="text_19">
    <!-- 13 -->
    <g style="fill: #262626" transform="translate(10.849571 378.817469) scale(0.07 -0.07)">
     <use xlink:href="#Arial-BoldMT-31"/>
     <use xlink:href="#Arial-BoldMT-33" x="55.615234"/>
    </g>
   </g>
   <g id="patch_182">
    <path d="M 244.268856 379.850184 
L 244.924951 379.850184 
L 244.924951 374.346956 
L 244.268856 374.346956 
z
" clip-path="url(#p34c9356da2)" style="fill: #1f77b4; opacity: 0.866147"/>
   </g>
   <g id="patch_183">
    <path d="M 154.459376 379.850184 
L 159.003988 379.850184 
L 159.003988 374.346956 
L 154.459376 374.346956 
z
" clip-path="url(#p34c9356da2)" style="fill: #1f77b4; opacity: 0.253024"/>
   </g>
   <g id="patch_184">
    <path d="M 114.358372 379.850184 
L 148.617969 379.850184 
L 148.617969 374.346956 
L 114.358372 374.346956 
z
" clip-path="url(#p34c9356da2)" style="fill: #1f77b4; opacity: 0.868986"/>
   </g>
   <g id="patch_185">
    <path d="M 77.010507 379.850184 
L 98.402886 379.850184 
L 98.402886 374.346956 
L 77.010507 374.346956 
z
" clip-path="url(#p34c9356da2)" style="fill: #1f77b4; opacity: 0.075481"/>
   </g>
   <g id="patch_186">
    <path d="M 32.696935 379.850184 
L 48.835945 379.850184 
L 48.835945 374.346956 
L 32.696935 374.346956 
z
" clip-path="url(#p34c9356da2)" style="fill: #1f77b4; opacity: 0.703806"/>
   </g>
  </g>
  <g id="axes_15">
   <g id="patch_187">
    <path d="M 22.70841 418.597354 
L 692.30841 418.597354 
L 692.30841 390.889948 
L 22.70841 390.889948 
z
" style="fill: #ffffff"/>
   </g>
   <g id="patch_188">
    <path d="M 23.513358 407.481084 
L 66.712246 407.481084 
L 66.712246 401.939603 
L 23.513358 401.939603 
z
" clip-path="url(#p58b6d0b5f8)" style="fill: #ebeaea"/>
   </g>
   <g id="patch_189">
    <path d="M 72.346884 407.481084 
L 310.728862 407.481084 
L 310.728862 401.939603 
L 72.346884 401.939603 
z
" clip-path="url(#p58b6d0b5f8)" style="fill: #ebeaea"/>
   </g>
   <g id="patch_190">
    <path d="M 23.513358 407.481084 
L 66.712246 407.481084 
L 66.712246 401.939603 
L 23.513358 401.939603 
L 23.513358 407.481084 
z
" clip-path="url(#p58b6d0b5f8)" style="fill: none; stroke: #000000; stroke-width: 0.7; stroke-linejoin: miter"/>
   </g>
   <g id="patch_191">
    <path d="M 72.346884 407.481084 
L 310.728862 407.481084 
L 310.728862 401.939603 
L 72.346884 401.939603 
L 72.346884 407.481084 
z
" clip-path="url(#p58b6d0b5f8)" style="fill: none; stroke: #000000; stroke-width: 0.7; stroke-linejoin: miter"/>
   </g>
   <g id="matplotlib.axis_29">
    <g id="xtick_71"/>
    <g id="xtick_72"/>
    <g id="xtick_73"/>
    <g id="xtick_74"/>
    <g id="xtick_75"/>
   </g>
   <g id="matplotlib.axis_30">
    <g id="ytick_29"/>
    <g id="ytick_30"/>
   </g>
   <g id="patch_192">
    <path d="M 66.712246 407.481084 
L 66.712246 401.939603 
L 72.346884 407.481084 
L 72.346884 401.939603 
z
" clip-path="url(#p58b6d0b5f8)" style="fill: #777777; stroke: #777777; stroke-width: 0.64; stroke-linejoin: miter"/>
   </g>
   <g id="text_20">
    <!-- 14 -->
    <g style="fill: #262626" transform="translate(10.849571 406.524875) scale(0.07 -0.07)">
     <use xlink:href="#Arial-BoldMT-31"/>
     <use xlink:href="#Arial-BoldMT-34" x="55.615234"/>
    </g>
   </g>
   <g id="patch_193">
    <path d="M 199.280203 407.55759 
L 240.410801 407.55759 
L 240.410801 402.054362 
L 199.280203 402.054362 
z
" clip-path="url(#p58b6d0b5f8)" style="fill: #1f77b4; opacity: 0.546355"/>
   </g>
   <g id="patch_194">
    <path d="M 196.516961 407.55759 
L 197.755639 407.55759 
L 197.755639 402.054362 
L 196.516961 402.054362 
z
" clip-path="url(#p58b6d0b5f8)" style="fill: #1f77b4; opacity: 0.34376"/>
   </g>
   <g id="patch_195">
    <path d="M 191.329088 407.55759 
L 194.268453 407.55759 
L 194.268453 402.054362 
L 191.329088 402.054362 
z
" clip-path="url(#p58b6d0b5f8)" style="fill: #1f77b4; opacity: 0.978243"/>
   </g>
   <g id="patch_196">
    <path d="M 135.820027 407.55759 
L 154.658714 407.55759 
L 154.658714 402.054362 
L 135.820027 402.054362 
z
" clip-path="url(#p58b6d0b5f8)" style="fill: #1f77b4; opacity: 0.274542"/>
   </g>
   <g id="patch_197">
    <path d="M 65.055357 407.55759 
L 67.752253 407.55759 
L 67.752253 402.054362 
L 65.055357 402.054362 
z
" clip-path="url(#p58b6d0b5f8)" style="fill: #1f77b4; opacity: 0.495039"/>
   </g>
  </g>
  <g id="axes_16">
   <g id="patch_198">
    <path d="M 22.70841 446.30476 
L 692.30841 446.30476 
L 692.30841 418.597354 
L 22.70841 418.597354 
z
" style="fill: #ffffff"/>
   </g>
   <g id="patch_199">
    <path d="M 23.513358 435.18849 
L 70.468671 435.18849 
L 70.468671 429.647009 
L 23.513358 429.647009 
z
" clip-path="url(#p841116a2bd)" style="fill: #ebeaea"/>
   </g>
   <g id="patch_200">
    <path d="M 78.518154 435.18849 
L 297.172115 435.18849 
L 297.172115 429.647009 
L 78.518154 429.647009 
z
" clip-path="url(#p841116a2bd)" style="fill: #ebeaea"/>
   </g>
   <g id="patch_201">
    <path d="M 23.513358 435.18849 
L 70.468671 435.18849 
L 70.468671 429.647009 
L 23.513358 429.647009 
L 23.513358 435.18849 
z
" clip-path="url(#p841116a2bd)" style="fill: none; stroke: #000000; stroke-width: 0.7; stroke-linejoin: miter"/>
   </g>
   <g id="patch_202">
    <path d="M 78.518154 435.18849 
L 297.172115 435.18849 
L 297.172115 429.647009 
L 78.518154 429.647009 
L 78.518154 435.18849 
z
" clip-path="url(#p841116a2bd)" style="fill: none; stroke: #000000; stroke-width: 0.7; stroke-linejoin: miter"/>
   </g>
   <g id="matplotlib.axis_31">
    <g id="xtick_76"/>
    <g id="xtick_77"/>
    <g id="xtick_78"/>
    <g id="xtick_79"/>
    <g id="xtick_80"/>
   </g>
   <g id="matplotlib.axis_32">
    <g id="ytick_31"/>
    <g id="ytick_32"/>
   </g>
   <g id="patch_203">
    <path d="M 70.468671 435.18849 
L 70.468671 429.647009 
L 78.518154 435.18849 
L 78.518154 429.647009 
z
" clip-path="url(#p841116a2bd)" style="fill: #777777; stroke: #777777; stroke-width: 0.64; stroke-linejoin: miter"/>
   </g>
   <g id="text_21">
    <!-- 15 -->
    <g style="fill: #262626" transform="translate(10.849571 434.23228) scale(0.07 -0.07)">
     <use xlink:href="#Arial-BoldMT-31"/>
     <use xlink:href="#Arial-BoldMT-35" x="55.615234"/>
    </g>
   </g>
   <g id="patch_204">
    <path d="M 290.134372 435.264996 
L 293.491733 435.264996 
L 293.491733 429.761767 
L 290.134372 429.761767 
z
" clip-path="url(#p841116a2bd)" style="fill: #1f77b4; opacity: 0.73628"/>
   </g>
   <g id="patch_205">
    <path d="M 195.878395 435.264996 
L 272.742199 435.264996 
L 272.742199 429.761767 
L 195.878395 429.761767 
z
" clip-path="url(#p841116a2bd)" style="fill: #1f77b4; opacity: 0.672438"/>
   </g>
   <g id="patch_206">
    <path d="M 118.859658 435.264996 
L 146.906027 435.264996 
L 146.906027 429.761767 
L 118.859658 429.761767 
z
" clip-path="url(#p841116a2bd)" style="fill: #1f77b4; opacity: 0.810391"/>
   </g>
   <g id="patch_207">
    <path d="M 75.414064 435.264996 
L 81.651879 435.264996 
L 81.651879 429.761767 
L 75.414064 429.761767 
z
" clip-path="url(#p841116a2bd)" style="fill: #1f77b4; opacity: 0.431569"/>
   </g>
   <g id="patch_208">
    <path d="M 54.442807 435.264996 
L 60.313952 435.264996 
L 60.313952 429.761767 
L 54.442807 429.761767 
z
" clip-path="url(#p841116a2bd)" style="fill: #1f77b4; opacity: 0.080936"/>
   </g>
  </g>
  <g id="axes_17">
   <g id="patch_209">
    <path d="M 22.70841 474.012166 
L 692.30841 474.012166 
L 692.30841 446.30476 
L 22.70841 446.30476 
z
" style="fill: #ffffff"/>
   </g>
   <g id="patch_210">
    <path d="M 23.513358 462.895895 
L 118.228933 462.895895 
L 118.228933 457.354414 
L 23.513358 457.354414 
z
" clip-path="url(#p163f488759)" style="fill: #ebeaea"/>
   </g>
   <g id="patch_211">
    <path d="M 126.546731 462.895895 
L 265.905661 462.895895 
L 265.905661 457.354414 
L 126.546731 457.354414 
z
" clip-path="url(#p163f488759)" style="fill: #ebeaea"/>
   </g>
   <g id="patch_212">
    <path d="M 23.513358 462.895895 
L 118.228933 462.895895 
L 118.228933 457.354414 
L 23.513358 457.354414 
L 23.513358 462.895895 
z
" clip-path="url(#p163f488759)" style="fill: none; stroke: #000000; stroke-width: 0.7; stroke-linejoin: miter"/>
   </g>
   <g id="patch_213">
    <path d="M 126.546731 462.895895 
L 265.905661 462.895895 
L 265.905661 457.354414 
L 126.546731 457.354414 
L 126.546731 462.895895 
z
" clip-path="url(#p163f488759)" style="fill: none; stroke: #000000; stroke-width: 0.7; stroke-linejoin: miter"/>
   </g>
   <g id="matplotlib.axis_33">
    <g id="xtick_81"/>
    <g id="xtick_82"/>
    <g id="xtick_83"/>
    <g id="xtick_84"/>
    <g id="xtick_85"/>
   </g>
   <g id="matplotlib.axis_34">
    <g id="ytick_33"/>
    <g id="ytick_34"/>
   </g>
   <g id="patch_214">
    <path d="M 118.228933 462.895895 
L 118.228933 457.354414 
L 126.546731 462.895895 
L 126.546731 457.354414 
z
" clip-path="url(#p163f488759)" style="fill: #777777; stroke: #777777; stroke-width: 0.64; stroke-linejoin: miter"/>
   </g>
   <g id="text_22">
    <!-- 16 -->
    <g style="fill: #262626" transform="translate(10.849571 461.939686) scale(0.07 -0.07)">
     <use xlink:href="#Arial-BoldMT-31"/>
     <use xlink:href="#Arial-BoldMT-36" x="55.615234"/>
    </g>
   </g>
   <g id="patch_215">
    <path d="M 213.431901 462.972401 
L 214.021816 462.972401 
L 214.021816 457.469173 
L 213.431901 457.469173 
z
" clip-path="url(#p163f488759)" style="fill: #1f77b4; opacity: 0.051118"/>
   </g>
   <g id="patch_216">
    <path d="M 153.790454 462.972401 
L 209.459742 462.972401 
L 209.459742 457.469173 
L 153.790454 457.469173 
z
" clip-path="url(#p163f488759)" style="fill: #1f77b4; opacity: 0.706772"/>
   </g>
   <g id="patch_217">
    <path d="M 76.308997 462.972401 
L 97.416972 462.972401 
L 97.416972 457.469173 
L 76.308997 457.469173 
z
" clip-path="url(#p163f488759)" style="fill: #1f77b4; opacity: 0.053017"/>
   </g>
   <g id="patch_218">
    <path d="M 31.830767 462.972401 
L 33.252107 462.972401 
L 33.252107 457.469173 
L 31.830767 457.469173 
z
" clip-path="url(#p163f488759)" style="fill: #1f77b4; opacity: 0.112194"/>
   </g>
  </g>
  <g id="axes_18">
   <g id="patch_219">
    <path d="M 22.70841 501.719571 
L 692.30841 501.719571 
L 692.30841 474.012166 
L 22.70841 474.012166 
z
" style="fill: #ffffff"/>
   </g>
   <g id="patch_220">
    <path d="M 23.513358 490.603301 
L 84.421107 490.603301 
L 84.421107 485.06182 
L 23.513358 485.06182 
z
" clip-path="url(#p7c840f8b88)" style="fill: #ebeaea"/>
   </g>
   <g id="patch_221">
    <path d="M 97.031963 490.603301 
L 246.906457 490.603301 
L 246.906457 485.06182 
L 97.031963 485.06182 
z
" clip-path="url(#p7c840f8b88)" style="fill: #ebeaea"/>
   </g>
   <g id="patch_222">
    <path d="M 23.513358 490.603301 
L 84.421107 490.603301 
L 84.421107 485.06182 
L 23.513358 485.06182 
L 23.513358 490.603301 
z
" clip-path="url(#p7c840f8b88)" style="fill: none; stroke: #000000; stroke-width: 0.7; stroke-linejoin: miter"/>
   </g>
   <g id="patch_223">
    <path d="M 97.031963 490.603301 
L 246.906457 490.603301 
L 246.906457 485.06182 
L 97.031963 485.06182 
L 97.031963 490.603301 
z
" clip-path="url(#p7c840f8b88)" style="fill: none; stroke: #000000; stroke-width: 0.7; stroke-linejoin: miter"/>
   </g>
   <g id="matplotlib.axis_35">
    <g id="xtick_86"/>
    <g id="xtick_87"/>
    <g id="xtick_88"/>
    <g id="xtick_89"/>
    <g id="xtick_90"/>
   </g>
   <g id="matplotlib.axis_36">
    <g id="ytick_35"/>
    <g id="ytick_36"/>
   </g>
   <g id="patch_224">
    <path d="M 84.421107 490.603301 
L 84.421107 485.06182 
L 97.031963 490.603301 
L 97.031963 485.06182 
z
" clip-path="url(#p7c840f8b88)" style="fill: #777777; stroke: #777777; stroke-width: 0.64; stroke-linejoin: miter"/>
   </g>
   <g id="text_23">
    <!-- 17 -->
    <g style="fill: #262626" transform="translate(10.849571 489.647092) scale(0.07 -0.07)">
     <use xlink:href="#Arial-BoldMT-31"/>
     <use xlink:href="#Arial-BoldMT-37" x="55.615234"/>
    </g>
   </g>
   <g id="patch_225">
    <path d="M 155.572123 490.679807 
L 210.202446 490.679807 
L 210.202446 485.176579 
L 155.572123 485.176579 
z
" clip-path="url(#p7c840f8b88)" style="fill: #1f77b4; opacity: 0.082598"/>
   </g>
   <g id="patch_226">
    <path d="M 130.863722 490.679807 
L 151.609414 490.679807 
L 151.609414 485.176579 
L 130.863722 485.176579 
z
" clip-path="url(#p7c840f8b88)" style="fill: #1f77b4; opacity: 0.087063"/>
   </g>
   <g id="patch_227">
    <path d="M 103.747209 490.679807 
L 117.548183 490.679807 
L 117.548183 485.176579 
L 103.747209 485.176579 
z
" clip-path="url(#p7c840f8b88)" style="fill: #1f77b4; opacity: 0.849859"/>
   </g>
   <g id="patch_228">
    <path d="M 56.288781 490.679807 
L 83.669828 490.679807 
L 83.669828 485.176579 
L 56.288781 485.176579 
z
" clip-path="url(#p7c840f8b88)" style="fill: #1f77b4; opacity: 0.8779"/>
   </g>
  </g>
  <g id="axes_19">
   <g id="patch_229">
    <path d="M 22.70841 529.426977 
L 692.30841 529.426977 
L 692.30841 501.719571 
L 22.70841 501.719571 
z
" style="fill: #ffffff"/>
   </g>
   <g id="patch_230">
    <path d="M 23.513358 518.310707 
L 64.834034 518.310707 
L 64.834034 512.769226 
L 23.513358 512.769226 
z
" clip-path="url(#p93f4430fb0)" style="fill: #ebeaea"/>
   </g>
   <g id="patch_231">
    <path d="M 81.201314 518.310707 
L 239.167803 518.310707 
L 239.167803 512.769226 
L 81.201314 512.769226 
z
" clip-path="url(#p93f4430fb0)" style="fill: #ebeaea"/>
   </g>
   <g id="patch_232">
    <path d="M 23.513358 518.310707 
L 64.834034 518.310707 
L 64.834034 512.769226 
L 23.513358 512.769226 
L 23.513358 518.310707 
z
" clip-path="url(#p93f4430fb0)" style="fill: none; stroke: #000000; stroke-width: 0.7; stroke-linejoin: miter"/>
   </g>
   <g id="patch_233">
    <path d="M 81.201314 518.310707 
L 239.167803 518.310707 
L 239.167803 512.769226 
L 81.201314 512.769226 
L 81.201314 518.310707 
z
" clip-path="url(#p93f4430fb0)" style="fill: none; stroke: #000000; stroke-width: 0.7; stroke-linejoin: miter"/>
   </g>
   <g id="matplotlib.axis_37">
    <g id="xtick_91"/>
    <g id="xtick_92"/>
    <g id="xtick_93"/>
    <g id="xtick_94"/>
    <g id="xtick_95"/>
   </g>
   <g id="matplotlib.axis_38">
    <g id="ytick_37"/>
    <g id="ytick_38"/>
   </g>
   <g id="patch_234">
    <path d="M 64.834034 518.310707 
L 64.834034 512.769226 
L 81.201314 518.310707 
L 81.201314 512.769226 
z
" clip-path="url(#p93f4430fb0)" style="fill: #777777; stroke: #777777; stroke-width: 0.64; stroke-linejoin: miter"/>
   </g>
   <g id="text_24">
    <!-- 18 -->
    <g style="fill: #262626" transform="translate(10.849571 517.354498) scale(0.07 -0.07)">
     <use xlink:href="#Arial-BoldMT-31"/>
     <use xlink:href="#Arial-BoldMT-38" x="55.615234"/>
    </g>
   </g>
   <g id="patch_235">
    <path d="M 215.314654 518.387213 
L 218.546701 518.387213 
L 218.546701 512.883985 
L 215.314654 512.883985 
z
" clip-path="url(#p93f4430fb0)" style="fill: #1f77b4; opacity: 0.209941"/>
   </g>
   <g id="patch_236">
    <path d="M 167.810913 518.387213 
L 204.548501 518.387213 
L 204.548501 512.883985 
L 167.810913 512.883985 
z
" clip-path="url(#p93f4430fb0)" style="fill: #1f77b4; opacity: 0.203108"/>
   </g>
   <g id="patch_237">
    <path d="M 109.723499 518.387213 
L 142.234866 518.387213 
L 142.234866 512.883985 
L 109.723499 512.883985 
z
" clip-path="url(#p93f4430fb0)" style="fill: #1f77b4; opacity: 0.287809"/>
   </g>
   <g id="patch_238">
    <path d="M 93.790855 518.387213 
L 103.83685 518.387213 
L 103.83685 512.883985 
L 93.790855 512.883985 
z
" clip-path="url(#p93f4430fb0)" style="fill: #1f77b4; opacity: 0.479667"/>
   </g>
  </g>
  <g id="axes_20">
   <g id="patch_239">
    <path d="M 22.70841 557.134383 
L 692.30841 557.134383 
L 692.30841 529.426977 
L 22.70841 529.426977 
z
" style="fill: #ffffff"/>
   </g>
   <g id="patch_240">
    <path d="M 23.513358 546.018113 
L 88.445849 546.018113 
L 88.445849 540.476631 
L 23.513358 540.476631 
z
" clip-path="url(#p308b02ba24)" style="fill: #ebeaea"/>
   </g>
   <g id="patch_241">
    <path d="M 98.910175 546.018113 
L 180.793845 546.018113 
L 180.793845 540.476631 
L 98.910175 540.476631 
z
" clip-path="url(#p308b02ba24)" style="fill: #ebeaea"/>
   </g>
   <g id="patch_242">
    <path d="M 23.513358 546.018113 
L 88.445849 546.018113 
L 88.445849 540.476631 
L 23.513358 540.476631 
L 23.513358 546.018113 
z
" clip-path="url(#p308b02ba24)" style="fill: none; stroke: #000000; stroke-width: 0.7; stroke-linejoin: miter"/>
   </g>
   <g id="patch_243">
    <path d="M 98.910175 546.018113 
L 180.793845 546.018113 
L 180.793845 540.476631 
L 98.910175 540.476631 
L 98.910175 546.018113 
z
" clip-path="url(#p308b02ba24)" style="fill: none; stroke: #000000; stroke-width: 0.7; stroke-linejoin: miter"/>
   </g>
   <g id="matplotlib.axis_39">
    <g id="xtick_96"/>
    <g id="xtick_97"/>
    <g id="xtick_98"/>
    <g id="xtick_99"/>
    <g id="xtick_100"/>
   </g>
   <g id="matplotlib.axis_40">
    <g id="ytick_39"/>
    <g id="ytick_40"/>
   </g>
   <g id="patch_244">
    <path d="M 88.445849 546.018113 
L 88.445849 540.476631 
L 98.910175 546.018113 
L 98.910175 540.476631 
z
" clip-path="url(#p308b02ba24)" style="fill: #777777; stroke: #777777; stroke-width: 0.64; stroke-linejoin: miter"/>
   </g>
   <g id="text_25">
    <!-- 19 -->
    <g style="fill: #262626" transform="translate(10.849571 545.061903) scale(0.07 -0.07)">
     <use xlink:href="#Arial-BoldMT-31"/>
     <use xlink:href="#Arial-BoldMT-39" x="55.615234"/>
    </g>
   </g>
   <g id="patch_245">
    <path d="M 116.721388 546.094618 
L 156.737756 546.094618 
L 156.737756 540.59139 
L 116.721388 540.59139 
z
" clip-path="url(#p308b02ba24)" style="fill: #1f77b4; opacity: 0.184412"/>
   </g>
   <g id="patch_246">
    <path d="M 59.511362 546.094618 
L 64.340947 546.094618 
L 64.340947 540.59139 
L 59.511362 540.59139 
z
" clip-path="url(#p308b02ba24)" style="fill: #1f77b4; opacity: 0.036808"/>
   </g>
  </g>
  <g id="axes_21">
   <g id="patch_247">
    <path d="M 22.70841 584.841789 
L 692.30841 584.841789 
L 692.30841 557.134383 
L 22.70841 557.134383 
z
" style="fill: #ffffff"/>
   </g>
   <g id="patch_248">
    <path d="M 23.513358 573.725518 
L 92.47059 573.725518 
L 92.47059 568.184037 
L 23.513358 568.184037 
z
" clip-path="url(#pa3c201f91a)" style="fill: #ebeaea"/>
   </g>
   <g id="patch_249">
    <path d="M 105.081445 573.725518 
L 196.427418 573.725518 
L 196.427418 568.184037 
L 105.081445 568.184037 
z
" clip-path="url(#pa3c201f91a)" style="fill: #ebeaea"/>
   </g>
   <g id="patch_250">
    <path d="M 23.513358 573.725518 
L 92.47059 573.725518 
L 92.47059 568.184037 
L 23.513358 568.184037 
L 23.513358 573.725518 
z
" clip-path="url(#pa3c201f91a)" style="fill: none; stroke: #000000; stroke-width: 0.7; stroke-linejoin: miter"/>
   </g>
   <g id="patch_251">
    <path d="M 105.081445 573.725518 
L 196.427418 573.725518 
L 196.427418 568.184037 
L 105.081445 568.184037 
L 105.081445 573.725518 
z
" clip-path="url(#pa3c201f91a)" style="fill: none; stroke: #000000; stroke-width: 0.7; stroke-linejoin: miter"/>
   </g>
   <g id="matplotlib.axis_41">
    <g id="xtick_101"/>
    <g id="xtick_102"/>
    <g id="xtick_103"/>
    <g id="xtick_104"/>
    <g id="xtick_105"/>
   </g>
   <g id="matplotlib.axis_42">
    <g id="ytick_41"/>
    <g id="ytick_42"/>
   </g>
   <g id="patch_252">
    <path d="M 92.47059 573.725518 
L 92.47059 568.184037 
L 105.081445 573.725518 
L 105.081445 568.184037 
z
" clip-path="url(#pa3c201f91a)" style="fill: #777777; stroke: #777777; stroke-width: 0.64; stroke-linejoin: miter"/>
   </g>
   <g id="text_26">
    <!-- 20 -->
    <g style="fill: #262626" transform="translate(10.849571 572.769309) scale(0.07 -0.07)">
     <use xlink:href="#Arial-BoldMT-32"/>
     <use xlink:href="#Arial-BoldMT-30" x="55.615234"/>
    </g>
   </g>
   <g id="patch_253">
    <path d="M 155.140765 573.802024 
L 165.784367 573.802024 
L 165.784367 568.298796 
L 155.140765 568.298796 
z
" clip-path="url(#pa3c201f91a)" style="fill: #1f77b4; opacity: 0.083495"/>
   </g>
   <g id="patch_254">
    <path d="M 87.537325 573.802024 
L 112.245562 573.802024 
L 112.245562 568.298796 
L 87.537325 568.298796 
z
" clip-path="url(#pa3c201f91a)" style="fill: #1f77b4; opacity: 0.393481"/>
   </g>
   <g id="patch_255">
    <path d="M 28.275499 573.802024 
L 28.99995 573.802024 
L 28.99995 568.298796 
L 28.275499 568.298796 
z
" clip-path="url(#pa3c201f91a)" style="fill: #1f77b4; opacity: 0.145912"/>
   </g>
  </g>
  <g id="axes_22">
   <g id="patch_256">
    <path d="M 22.70841 612.549194 
L 469.10841 612.549194 
L 469.10841 584.841789 
L 22.70841 584.841789 
z
" style="fill: #ffffff"/>
   </g>
   <g id="patch_257">
    <path d="M 23.512392 601.432944 
L 52.723728 601.432944 
L 52.723728 595.891463 
L 23.512392 595.891463 
z
" clip-path="url(#p8493f51b95)" style="fill: #ebeaea"/>
   </g>
   <g id="patch_258">
    <path d="M 58.3516 601.432944 
L 148.692302 601.432944 
L 148.692302 595.891463 
L 58.3516 595.891463 
z
" clip-path="url(#p8493f51b95)" style="fill: #ebeaea"/>
   </g>
   <g id="patch_259">
    <path d="M 23.512392 601.432944 
L 52.723728 601.432944 
L 52.723728 595.891463 
L 23.512392 595.891463 
L 23.512392 601.432944 
z
" clip-path="url(#p8493f51b95)" style="fill: none; stroke: #000000; stroke-width: 0.7; stroke-linejoin: miter"/>
   </g>
   <g id="patch_260">
    <path d="M 58.3516 601.432944 
L 148.692302 601.432944 
L 148.692302 595.891463 
L 58.3516 595.891463 
L 58.3516 601.432944 
z
" clip-path="url(#p8493f51b95)" style="fill: none; stroke: #000000; stroke-width: 0.7; stroke-linejoin: miter"/>
   </g>
   <g id="matplotlib.axis_43">
    <g id="xtick_106"/>
    <g id="xtick_107"/>
    <g id="xtick_108"/>
    <g id="xtick_109"/>
    <g id="xtick_110"/>
    <g id="xtick_111"/>
    <g id="xtick_112"/>
    <g id="xtick_113"/>
    <g id="xtick_114"/>
   </g>
   <g id="matplotlib.axis_44">
    <g id="ytick_43"/>
    <g id="ytick_44"/>
   </g>
   <g id="patch_261">
    <path d="M 52.723728 601.432944 
L 52.723728 595.891463 
L 58.3516 601.432944 
L 58.3516 595.891463 
z
" clip-path="url(#p8493f51b95)" style="fill: #777777; stroke: #777777; stroke-width: 0.64; stroke-linejoin: miter"/>
   </g>
   <g id="text_27">
    <!-- 21 -->
    <g style="fill: #262626" transform="translate(7.2 600.476735) scale(0.07 -0.07)">
     <use xlink:href="#Arial-BoldMT-32"/>
     <use xlink:href="#Arial-BoldMT-31" x="55.615234"/>
    </g>
   </g>
   <g id="patch_262">
    <path d="M 73.765163 601.502838 
L 108.443666 601.502838 
L 108.443666 595.996304 
L 73.765163 595.996304 
z
" clip-path="url(#p8493f51b95)" style="fill: #1f77b4; opacity: 0.612307"/>
   </g>
   <g id="patch_263">
    <path d="M 58.338983 601.502838 
L 70.124297 601.502838 
L 70.124297 595.996304 
L 58.338983 595.996304 
z
" clip-path="url(#p8493f51b95)" style="fill: #1f77b4; opacity: 0.779889"/>
   </g>
  </g>
  <g id="axes_23">
   <g id="patch_264">
    <path d="M 22.70841 640.2566 
L 469.10841 640.2566 
L 469.10841 612.549194 
L 22.70841 612.549194 
z
" style="fill: #ffffff"/>
   </g>
   <g id="patch_265">
    <path d="M 23.512392 629.14035 
L 60.227557 629.14035 
L 60.227557 623.598869 
L 23.512392 623.598869 
z
" clip-path="url(#p87e9a5877c)" style="fill: #ebeaea"/>
   </g>
   <g id="patch_266">
    <path d="M 70.143332 629.14035 
L 159.702792 629.14035 
L 159.702792 623.598869 
L 70.143332 623.598869 
z
" clip-path="url(#p87e9a5877c)" style="fill: #ebeaea"/>
   </g>
   <g id="patch_267">
    <path d="M 23.512392 629.14035 
L 60.227557 629.14035 
L 60.227557 623.598869 
L 23.512392 623.598869 
L 23.512392 629.14035 
z
" clip-path="url(#p87e9a5877c)" style="fill: none; stroke: #000000; stroke-width: 0.7; stroke-linejoin: miter"/>
   </g>
   <g id="patch_268">
    <path d="M 70.143332 629.14035 
L 159.702792 629.14035 
L 159.702792 623.598869 
L 70.143332 623.598869 
L 70.143332 629.14035 
z
" clip-path="url(#p87e9a5877c)" style="fill: none; stroke: #000000; stroke-width: 0.7; stroke-linejoin: miter"/>
   </g>
   <g id="matplotlib.axis_45">
    <g id="xtick_115"/>
    <g id="xtick_116"/>
    <g id="xtick_117"/>
    <g id="xtick_118"/>
    <g id="xtick_119"/>
    <g id="xtick_120"/>
    <g id="xtick_121"/>
    <g id="xtick_122"/>
    <g id="xtick_123"/>
   </g>
   <g id="matplotlib.axis_46">
    <g id="ytick_45"/>
    <g id="ytick_46"/>
   </g>
   <g id="patch_269">
    <path d="M 60.227557 629.14035 
L 60.227557 623.598869 
L 70.143332 629.14035 
L 70.143332 623.598869 
z
" clip-path="url(#p87e9a5877c)" style="fill: #777777; stroke: #777777; stroke-width: 0.64; stroke-linejoin: miter"/>
   </g>
   <g id="text_28">
    <!-- 22 -->
    <g style="fill: #262626" transform="translate(7.2 628.18414) scale(0.07 -0.07)">
     <use xlink:href="#Arial-BoldMT-32"/>
     <use xlink:href="#Arial-BoldMT-32" x="55.615234"/>
    </g>
   </g>
   <g id="patch_270">
    <path d="M 132.345234 629.210244 
L 148.060847 629.210244 
L 148.060847 623.70371 
L 132.345234 623.70371 
z
" clip-path="url(#p87e9a5877c)" style="fill: #1f77b4; opacity: 0.700962"/>
   </g>
   <g id="patch_271">
    <path d="M 85.430512 629.210244 
L 103.945246 629.210244 
L 103.945246 623.70371 
L 85.430512 623.70371 
z
" clip-path="url(#p87e9a5877c)" style="fill: #1f77b4; opacity: 0.381161"/>
   </g>
  </g>
  <g id="axes_24">
   <g id="patch_272">
    <path d="M 245.90841 612.549194 
L 692.30841 612.549194 
L 692.30841 584.841789 
L 245.90841 584.841789 
z
" style="fill: #ffffff"/>
   </g>
   <g id="patch_273">
    <path d="M 246.763359 601.430832 
L 412.338511 601.430832 
L 412.338511 595.889351 
L 246.763359 595.889351 
z
" clip-path="url(#pb8891e10f4)" style="fill: #ebeaea"/>
   </g>
   <g id="patch_274">
    <path d="M 428.582545 601.430832 
L 691.453461 601.430832 
L 691.453461 595.889351 
L 428.582545 595.889351 
z
" clip-path="url(#pb8891e10f4)" style="fill: #ebeaea"/>
   </g>
   <g id="patch_275">
    <path d="M 246.763359 601.430832 
L 412.338511 601.430832 
L 412.338511 595.889351 
L 246.763359 595.889351 
L 246.763359 601.430832 
z
" clip-path="url(#pb8891e10f4)" style="fill: none; stroke: #000000; stroke-width: 0.7; stroke-linejoin: miter"/>
   </g>
   <g id="patch_276">
    <path d="M 428.582545 601.430832 
L 691.453461 601.430832 
L 691.453461 595.889351 
L 428.582545 595.889351 
L 428.582545 601.430832 
z
" clip-path="url(#pb8891e10f4)" style="fill: none; stroke: #000000; stroke-width: 0.7; stroke-linejoin: miter"/>
   </g>
   <g id="matplotlib.axis_47">
    <g id="xtick_124"/>
    <g id="xtick_125"/>
    <g id="xtick_126"/>
    <g id="xtick_127"/>
    <g id="xtick_128"/>
    <g id="xtick_129"/>
    <g id="xtick_130"/>
    <g id="xtick_131"/>
   </g>
   <g id="matplotlib.axis_48">
    <g id="ytick_47"/>
    <g id="ytick_48"/>
   </g>
   <g id="patch_277">
    <path d="M 412.338511 601.430832 
L 412.338511 595.889351 
L 428.582545 601.430832 
L 428.582545 595.889351 
z
" clip-path="url(#pb8891e10f4)" style="fill: #777777; stroke: #777777; stroke-width: 0.64; stroke-linejoin: miter"/>
   </g>
   <g id="text_29">
    <!-- X -->
    <g style="fill: #262626" transform="translate(236.91263 600.474623) scale(0.07 -0.07)">
     <defs>
      <path id="Arial-BoldMT-58" d="M 0 0 
L 1566 2391 
L 147 4581 
L 1228 4581 
L 2147 3109 
L 3047 4581 
L 4119 4581 
L 2694 2356 
L 4259 0 
L 3144 0 
L 2128 1584 
L 1109 0 
L 0 0 
z
" transform="scale(0.015625)"/>
     </defs>
     <use xlink:href="#Arial-BoldMT-58"/>
    </g>
   </g>
   <g id="patch_278">
    <path d="M 606.372455 601.500307 
L 613.558394 601.500307 
L 613.558394 595.993564 
L 606.372455 595.993564 
z
" clip-path="url(#pb8891e10f4)" style="fill: #1f77b4; opacity: 0.602041"/>
   </g>
   <g id="patch_279">
    <path d="M 514.14434 601.500307 
L 525.708188 601.500307 
L 525.708188 595.993564 
L 514.14434 595.993564 
z
" clip-path="url(#pb8891e10f4)" style="fill: #1f77b4; opacity: 0.228032"/>
   </g>
   <g id="patch_280">
    <path d="M 505.131027 601.500307 
L 509.927103 601.500307 
L 509.927103 595.993564 
L 505.131027 595.993564 
z
" clip-path="url(#pb8891e10f4)" style="fill: #1f77b4; opacity: 0.958285"/>
   </g>
   <g id="patch_281">
    <path d="M 415.416054 601.500307 
L 420.299407 601.500307 
L 420.299407 595.993564 
L 415.416054 595.993564 
z
" clip-path="url(#pb8891e10f4)" style="fill: #1f77b4; opacity: 0.193299"/>
   </g>
   <g id="patch_282">
    <path d="M 397.242699 601.500307 
L 403.108072 601.500307 
L 403.108072 595.993564 
L 397.242699 595.993564 
z
" clip-path="url(#pb8891e10f4)" style="fill: #1f77b4; opacity: 0.046617"/>
   </g>
   <g id="patch_283">
    <path d="M 311.618519 601.500307 
L 324.913121 601.500307 
L 324.913121 595.993564 
L 311.618519 595.993564 
z
" clip-path="url(#pb8891e10f4)" style="fill: #1f77b4; opacity: 0.079851"/>
   </g>
   <g id="patch_284">
    <path d="M 248.22321 601.500307 
L 308.374668 601.500307 
L 308.374668 595.993564 
L 248.22321 595.993564 
z
" clip-path="url(#pb8891e10f4)" style="fill: #1f77b4; opacity: 0.294563"/>
   </g>
  </g>
  <g id="axes_25">
   <g id="patch_285">
    <path d="M 245.90841 640.2566 
L 692.30841 640.2566 
L 692.30841 612.549194 
L 245.90841 612.549194 
z
" style="fill: #ffffff"/>
   </g>
   <g id="patch_286">
    <path d="M 246.763359 629.138238 
L 276.116613 629.138238 
L 276.116613 623.596757 
L 246.763359 623.596757 
z
" clip-path="url(#p1733a707f6)" style="fill: #ebeaea"/>
   </g>
   <g id="patch_287">
    <path d="M 276.401596 629.138238 
L 409.851792 629.138238 
L 409.851792 623.596757 
L 276.401596 623.596757 
z
" clip-path="url(#p1733a707f6)" style="fill: #ebeaea"/>
   </g>
   <g id="patch_288">
    <path d="M 246.763359 629.138238 
L 276.116613 629.138238 
L 276.116613 623.596757 
L 246.763359 623.596757 
L 246.763359 629.138238 
z
" clip-path="url(#p1733a707f6)" style="fill: none; stroke: #000000; stroke-width: 0.7; stroke-linejoin: miter"/>
   </g>
   <g id="patch_289">
    <path d="M 276.401596 629.138238 
L 409.851792 629.138238 
L 409.851792 623.596757 
L 276.401596 623.596757 
L 276.401596 629.138238 
z
" clip-path="url(#p1733a707f6)" style="fill: none; stroke: #000000; stroke-width: 0.7; stroke-linejoin: miter"/>
   </g>
   <g id="matplotlib.axis_49">
    <g id="xtick_132">
     <g id="line2d_6">
      <defs>
       <path id="m9fa921626e" d="M 0 0 
L 0 3.84 
" style="stroke: #262626; stroke-width: 0.8"/>
      </defs>
      <g>
       <use xlink:href="#m9fa921626e" x="246.763359" y="640.2566" style="fill: #262626; stroke: #262626; stroke-width: 0.8"/>
      </g>
     </g>
     <g id="text_30">
      <!-- 0.0 -->
      <g style="fill: #262626" transform="translate(241.870559 652.6357) scale(0.0704 -0.0704)">
       <use xlink:href="#ArialMT-30"/>
       <use xlink:href="#ArialMT-2e" x="55.615234"/>
       <use xlink:href="#ArialMT-30" x="83.398438"/>
      </g>
     </g>
    </g>
    <g id="xtick_133">
     <g id="line2d_7">
      <g>
       <use xlink:href="#m9fa921626e" x="303.759969" y="640.2566" style="fill: #262626; stroke: #262626; stroke-width: 0.8"/>
      </g>
     </g>
     <g id="text_31">
      <!-- 0.2 -->
      <g style="fill: #262626" transform="translate(298.867169 652.6357) scale(0.0704 -0.0704)">
       <use xlink:href="#ArialMT-30"/>
       <use xlink:href="#ArialMT-2e" x="55.615234"/>
       <use xlink:href="#ArialMT-32" x="83.398438"/>
      </g>
     </g>
    </g>
    <g id="xtick_134">
     <g id="line2d_8">
      <g>
       <use xlink:href="#m9fa921626e" x="360.756579" y="640.2566" style="fill: #262626; stroke: #262626; stroke-width: 0.8"/>
      </g>
     </g>
     <g id="text_32">
      <!-- 0.4 -->
      <g style="fill: #262626" transform="translate(355.863779 652.6357) scale(0.0704 -0.0704)">
       <defs>
        <path id="ArialMT-34" d="M 2069 0 
L 2069 1097 
L 81 1097 
L 81 1613 
L 2172 4581 
L 2631 4581 
L 2631 1613 
L 3250 1613 
L 3250 1097 
L 2631 1097 
L 2631 0 
L 2069 0 
z
M 2069 1613 
L 2069 3678 
L 634 1613 
L 2069 1613 
z
" transform="scale(0.015625)"/>
       </defs>
       <use xlink:href="#ArialMT-30"/>
       <use xlink:href="#ArialMT-2e" x="55.615234"/>
       <use xlink:href="#ArialMT-34" x="83.398438"/>
      </g>
     </g>
    </g>
    <g id="xtick_135">
     <g id="line2d_9">
      <g>
       <use xlink:href="#m9fa921626e" x="417.753189" y="640.2566" style="fill: #262626; stroke: #262626; stroke-width: 0.8"/>
      </g>
     </g>
     <g id="text_33">
      <!-- 0.6 -->
      <g style="fill: #262626" transform="translate(412.860389 652.6357) scale(0.0704 -0.0704)">
       <defs>
        <path id="ArialMT-36" d="M 3184 3459 
L 2625 3416 
Q 2550 3747 2413 3897 
Q 2184 4138 1850 4138 
Q 1581 4138 1378 3988 
Q 1113 3794 959 3422 
Q 806 3050 800 2363 
Q 1003 2672 1297 2822 
Q 1591 2972 1913 2972 
Q 2475 2972 2870 2558 
Q 3266 2144 3266 1488 
Q 3266 1056 3080 686 
Q 2894 316 2569 119 
Q 2244 -78 1831 -78 
Q 1128 -78 684 439 
Q 241 956 241 2144 
Q 241 3472 731 4075 
Q 1159 4600 1884 4600 
Q 2425 4600 2770 4297 
Q 3116 3994 3184 3459 
z
M 888 1484 
Q 888 1194 1011 928 
Q 1134 663 1356 523 
Q 1578 384 1822 384 
Q 2178 384 2434 671 
Q 2691 959 2691 1453 
Q 2691 1928 2437 2201 
Q 2184 2475 1800 2475 
Q 1419 2475 1153 2201 
Q 888 1928 888 1484 
z
" transform="scale(0.015625)"/>
       </defs>
       <use xlink:href="#ArialMT-30"/>
       <use xlink:href="#ArialMT-2e" x="55.615234"/>
       <use xlink:href="#ArialMT-36" x="83.398438"/>
      </g>
     </g>
    </g>
    <g id="xtick_136">
     <g id="line2d_10">
      <g>
       <use xlink:href="#m9fa921626e" x="474.749799" y="640.2566" style="fill: #262626; stroke: #262626; stroke-width: 0.8"/>
      </g>
     </g>
     <g id="text_34">
      <!-- 0.8 -->
      <g style="fill: #262626" transform="translate(469.856999 652.6357) scale(0.0704 -0.0704)">
       <use xlink:href="#ArialMT-30"/>
       <use xlink:href="#ArialMT-2e" x="55.615234"/>
       <use xlink:href="#ArialMT-38" x="83.398438"/>
      </g>
     </g>
    </g>
    <g id="xtick_137">
     <g id="line2d_11">
      <g>
       <use xlink:href="#m9fa921626e" x="531.746409" y="640.2566" style="fill: #262626; stroke: #262626; stroke-width: 0.8"/>
      </g>
     </g>
     <g id="text_35">
      <!-- 1.0 -->
      <g style="fill: #262626" transform="translate(526.853609 652.6357) scale(0.0704 -0.0704)">
       <use xlink:href="#ArialMT-31"/>
       <use xlink:href="#ArialMT-2e" x="55.615234"/>
       <use xlink:href="#ArialMT-30" x="83.398438"/>
      </g>
     </g>
    </g>
    <g id="xtick_138">
     <g id="line2d_12">
      <g>
       <use xlink:href="#m9fa921626e" x="588.743019" y="640.2566" style="fill: #262626; stroke: #262626; stroke-width: 0.8"/>
      </g>
     </g>
     <g id="text_36">
      <!-- 1.2 -->
      <g style="fill: #262626" transform="translate(583.850219 652.6357) scale(0.0704 -0.0704)">
       <use xlink:href="#ArialMT-31"/>
       <use xlink:href="#ArialMT-2e" x="55.615234"/>
       <use xlink:href="#ArialMT-32" x="83.398438"/>
      </g>
     </g>
    </g>
    <g id="xtick_139">
     <g id="line2d_13">
      <g>
       <use xlink:href="#m9fa921626e" x="645.739629" y="640.2566" style="fill: #262626; stroke: #262626; stroke-width: 0.8"/>
      </g>
     </g>
     <g id="text_37">
      <!-- 1.4 -->
      <g style="fill: #262626" transform="translate(640.846829 652.6357) scale(0.0704 -0.0704)">
       <use xlink:href="#ArialMT-31"/>
       <use xlink:href="#ArialMT-2e" x="55.615234"/>
       <use xlink:href="#ArialMT-34" x="83.398438"/>
      </g>
     </g>
    </g>
    <g id="text_38">
     <!-- 1e8 -->
     <g style="fill: #262626" transform="translate(680.56371 662.074) scale(0.0704 -0.0704)">
      <use xlink:href="#ArialMT-31"/>
      <use xlink:href="#ArialMT-65" x="55.615234"/>
      <use xlink:href="#ArialMT-38" x="111.230469"/>
     </g>
    </g>
   </g>
   <g id="patch_290">
    <path d="M 276.116613 629.138238 
L 276.116613 623.596757 
L 276.401596 629.138238 
L 276.401596 623.596757 
z
" clip-path="url(#p1733a707f6)" style="fill: #777777; stroke: #777777; stroke-width: 0.64; stroke-linejoin: miter"/>
   </g>
   <g id="patch_291">
    <path d="M 245.90841 640.2566 
L 692.30841 640.2566 
" style="fill: none; stroke: #262626; stroke-width: 0.8; stroke-linejoin: miter; stroke-linecap: square"/>
   </g>
   <g id="text_39">
    <!-- Y -->
    <g style="fill: #262626" transform="translate(236.91263 628.182029) scale(0.07 -0.07)">
     <defs>
      <path id="Arial-BoldMT-59" d="M 1669 0 
L 1669 1928 
L -9 4581 
L 1075 4581 
L 2153 2769 
L 3209 4581 
L 4275 4581 
L 2591 1922 
L 2591 0 
L 1669 0 
z
" transform="scale(0.015625)"/>
     </defs>
     <use xlink:href="#Arial-BoldMT-59"/>
    </g>
   </g>
   <g id="patch_292">
    <path d="M 373.099628 629.207713 
L 396.377913 629.207713 
L 396.377913 623.700969 
L 373.099628 623.700969 
z
" clip-path="url(#p1733a707f6)" style="fill: #1f77b4; opacity: 0.187393"/>
   </g>
   <g id="patch_293">
    <path d="M 269.694794 629.207713 
L 321.070387 629.207713 
L 321.070387 623.700969 
L 269.694794 623.700969 
z
" clip-path="url(#p1733a707f6)" style="fill: #1f77b4; opacity: 0.50492"/>
   </g>
  </g>
 </g>
 <defs>
  <clipPath id="p798c6bde17">
   <rect x="22.70841" y="30.693674" width="669.6" height="27.707406"/>
  </clipPath>
  <clipPath id="p754140f1a7">
   <rect x="22.70841" y="58.40108" width="669.6" height="27.707406"/>
  </clipPath>
  <clipPath id="pa43ddebc4c">
   <rect x="22.70841" y="86.108486" width="669.6" height="27.707406"/>
  </clipPath>
  <clipPath id="paadcbd27af">
   <rect x="22.70841" y="113.815891" width="669.6" height="27.707406"/>
  </clipPath>
  <clipPath id="p8fd5bfbb04">
   <rect x="22.70841" y="141.523297" width="669.6" height="27.707406"/>
  </clipPath>
  <clipPath id="pbf733934e7">
   <rect x="22.70841" y="169.230703" width="669.6" height="27.707406"/>
  </clipPath>
  <clipPath id="p7d31294dd7">
   <rect x="22.70841" y="196.938108" width="669.6" height="27.707406"/>
  </clipPath>
  <clipPath id="p1f342db1c6">
   <rect x="22.70841" y="224.645514" width="669.6" height="27.707406"/>
  </clipPath>
  <clipPath id="p9ee7645002">
   <rect x="22.70841" y="252.35292" width="669.6" height="27.707406"/>
  </clipPath>
  <clipPath id="p985ca68369">
   <rect x="22.70841" y="280.060326" width="669.6" height="27.707406"/>
  </clipPath>
  <clipPath id="p23b81f228a">
   <rect x="22.70841" y="307.767731" width="669.6" height="27.707406"/>
  </clipPath>
  <clipPath id="pab99f2f91a">
   <rect x="22.70841" y="335.475137" width="669.6" height="27.707406"/>
  </clipPath>
  <clipPath id="p34c9356da2">
   <rect x="22.70841" y="363.182543" width="669.6" height="27.707406"/>
  </clipPath>
  <clipPath id="p58b6d0b5f8">
   <rect x="22.70841" y="390.889948" width="669.6" height="27.707406"/>
  </clipPath>
  <clipPath id="p841116a2bd">
   <rect x="22.70841" y="418.597354" width="669.6" height="27.707406"/>
  </clipPath>
  <clipPath id="p163f488759">
   <rect x="22.70841" y="446.30476" width="669.6" height="27.707406"/>
  </clipPath>
  <clipPath id="p7c840f8b88">
   <rect x="22.70841" y="474.012166" width="669.6" height="27.707406"/>
  </clipPath>
  <clipPath id="p93f4430fb0">
   <rect x="22.70841" y="501.719571" width="669.6" height="27.707406"/>
  </clipPath>
  <clipPath id="p308b02ba24">
   <rect x="22.70841" y="529.426977" width="669.6" height="27.707406"/>
  </clipPath>
  <clipPath id="pa3c201f91a">
   <rect x="22.70841" y="557.134383" width="669.6" height="27.707406"/>
  </clipPath>
  <clipPath id="p8493f51b95">
   <rect x="22.70841" y="584.841789" width="446.4" height="27.707406"/>
  </clipPath>
  <clipPath id="p87e9a5877c">
   <rect x="22.70841" y="612.549194" width="446.4" height="27.707406"/>
  </clipPath>
  <clipPath id="pb8891e10f4">
   <rect x="245.90841" y="584.841789" width="446.4" height="27.707406"/>
  </clipPath>
  <clipPath id="p1733a707f6">
   <rect x="245.90841" y="612.549194" width="446.4" height="27.707406"/>
  </clipPath>
 </defs>
</svg>
