<?xml version="1.0" encoding="utf-8" standalone="no"?>
<!DOCTYPE svg PUBLIC "-//W3C//DTD SVG 1.1//EN"
  "http://www.w3.org/Graphics/SVG/1.1/DTD/svg11.dtd">
<svg xmlns:xlink="http://www.w3.org/1999/xlink" width="696.831766pt" height="698.3932pt" viewBox="0 0 696.831766 698.3932" xmlns="http://www.w3.org/2000/svg" version="1.1">
 <metadata>
  <rdf:RDF xmlns:dc="http://purl.org/dc/elements/1.1/" xmlns:cc="http://creativecommons.org/ns#" xmlns:rdf="http://www.w3.org/1999/02/22-rdf-syntax-ns#">
   <cc:Work>
    <dc:type rdf:resource="http://purl.org/dc/dcmitype/StillImage"/>
    <dc:date>2026-02-20T09:38:53.272531</dc:date>
    <dc:format>image/svg+xml</dc:format>
    <dc:creator>
     <cc:Agent>
      <dc:title>Matplotlib v3.10.8, https://matplotlib.org/</dc:title>
     </cc:Agent>
    </dc:creator>
   </cc:Work>
  </rdf:RDF>
 </metadata>
 <defs>
  <style type="text/css">*{stroke-linejoin: round; stroke-linecap: butt}</style>
 </defs>
 <g id="figure_1">
  <g id="patch_1">
   <path d="M 0 698.3932 
L 696.831766 698.3932 
L 696.831766 0 
L 0 0 
z
" style="fill: #ffffff"/>
  </g>
  <g id="axes_1">
   <g id="patch_2">
    <path d="M 20.031766 41.315062 
L 689.631766 41.315062 
L 689.631766 30.4166 
L 20.031766 30.4166 
z
" style="fill: #ffffff"/>
   </g>
   <g id="matplotlib.axis_1">
    <g id="xtick_1">
     <g id="line2d_1">
      <defs>
       <path id="m8ed27c1776" d="M 0 0 
L 0 -3.84 
" style="stroke: #262626; stroke-width: 0.8"/>
      </defs>
      <g>
       <use xlink:href="#m8ed27c1776" x="20.841379" y="30.4166" style="fill: #262626; stroke: #262626; stroke-width: 0.8"/>
      </g>
     </g>
     <g id="text_1">
      <!-- 0.0 -->
      <g style="fill: #262626" transform="translate(15.948579 21.6774) scale(0.0704 -0.0704)">
       <defs>
        <path id="ArialMT-30" d="M 266 2259 
Q 266 3072 433 3567 
Q 600 4063 929 4331 
Q 1259 4600 1759 4600 
Q 2128 4600 2406 4451 
Q 2684 4303 2865 4023 
Q 3047 3744 3150 3342 
Q 3253 2941 3253 2259 
Q 3253 1453 3087 958 
Q 2922 463 2592 192 
Q 2263 -78 1759 -78 
Q 1097 -78 719 397 
Q 266 969 266 2259 
z
M 844 2259 
Q 844 1131 1108 757 
Q 1372 384 1759 384 
Q 2147 384 2411 759 
Q 2675 1134 2675 2259 
Q 2675 3391 2411 3762 
Q 2147 4134 1753 4134 
Q 1366 4134 1134 3806 
Q 844 3388 844 2259 
z
" transform="scale(0.015625)"/>
        <path id="ArialMT-2e" d="M 581 0 
L 581 641 
L 1222 641 
L 1222 0 
L 581 0 
z
" transform="scale(0.015625)"/>
       </defs>
       <use xlink:href="#ArialMT-30"/>
       <use xlink:href="#ArialMT-2e" transform="translate(55.615234 0)"/>
       <use xlink:href="#ArialMT-30" transform="translate(83.398438 0)"/>
      </g>
     </g>
    </g>
    <g id="xtick_2">
     <g id="line2d_2">
      <g>
       <use xlink:href="#m8ed27c1776" x="155.776915" y="30.4166" style="fill: #262626; stroke: #262626; stroke-width: 0.8"/>
      </g>
     </g>
     <g id="text_2">
      <!-- 0.5 -->
      <g style="fill: #262626" transform="translate(150.884115 21.6774) scale(0.0704 -0.0704)">
       <defs>
        <path id="ArialMT-35" d="M 266 1200 
L 856 1250 
Q 922 819 1161 601 
Q 1400 384 1738 384 
Q 2144 384 2425 690 
Q 2706 997 2706 1503 
Q 2706 1984 2436 2262 
Q 2166 2541 1728 2541 
Q 1456 2541 1237 2417 
Q 1019 2294 894 2097 
L 366 2166 
L 809 4519 
L 3088 4519 
L 3088 3981 
L 1259 3981 
L 1013 2750 
Q 1425 3038 1878 3038 
Q 2478 3038 2890 2622 
Q 3303 2206 3303 1553 
Q 3303 931 2941 478 
Q 2500 -78 1738 -78 
Q 1113 -78 717 272 
Q 322 622 266 1200 
z
" transform="scale(0.015625)"/>
       </defs>
       <use xlink:href="#ArialMT-30"/>
       <use xlink:href="#ArialMT-2e" transform="translate(55.615234 0)"/>
       <use xlink:href="#ArialMT-35" transform="translate(83.398438 0)"/>
      </g>
     </g>
    </g>
    <g id="xtick_3">
     <g id="line2d_3">
      <g>
       <use xlink:href="#m8ed27c1776" x="290.712452" y="30.4166" style="fill: #262626; stroke: #262626; stroke-width: 0.8"/>
      </g>
     </g>
     <g id="text_3">
      <!-- 1.0 -->
      <g style="fill: #262626" transform="translate(285.819652 21.6774) scale(0.0704 -0.0704)">
       <defs>
        <path id="ArialMT-31" d="M 2384 0 
L 1822 0 
L 1822 3584 
Q 1619 3391 1289 3197 
Q 959 3003 697 2906 
L 697 3450 
Q 1169 3672 1522 3987 
Q 1875 4303 2022 4600 
L 2384 4600 
L 2384 0 
z
" transform="scale(0.015625)"/>
       </defs>
       <use xlink:href="#ArialMT-31"/>
       <use xlink:href="#ArialMT-2e" transform="translate(55.615234 0)"/>
       <use xlink:href="#ArialMT-30" transform="translate(83.398438 0)"/>
      </g>
     </g>
    </g>
    <g id="xtick_4">
     <g id="line2d_4">
      <g>
       <use xlink:href="#m8ed27c1776" x="425.647989" y="30.4166" style="fill: #262626; stroke: #262626; stroke-width: 0.8"/>
      </g>
     </g>
     <g id="text_4">
      <!-- 1.5 -->
      <g style="fill: #262626" transform="translate(420.755189 21.6774) scale(0.0704 -0.0704)">
       <use xlink:href="#ArialMT-31"/>
       <use xlink:href="#ArialMT-2e" transform="translate(55.615234 0)"/>
       <use xlink:href="#ArialMT-35" transform="translate(83.398438 0)"/>
      </g>
     </g>
    </g>
    <g id="xtick_5">
     <g id="line2d_5">
      <g>
       <use xlink:href="#m8ed27c1776" x="560.583526" y="30.4166" style="fill: #262626; stroke: #262626; stroke-width: 0.8"/>
      </g>
     </g>
     <g id="text_5">
      <!-- 2.0 -->
      <g style="fill: #262626" transform="translate(555.690726 21.6774) scale(0.0704 -0.0704)">
       <defs>
        <path id="ArialMT-32" d="M 3222 541 
L 3222 0 
L 194 0 
Q 188 203 259 391 
Q 375 700 629 1000 
Q 884 1300 1366 1694 
Q 2113 2306 2375 2664 
Q 2638 3022 2638 3341 
Q 2638 3675 2398 3904 
Q 2159 4134 1775 4134 
Q 1369 4134 1125 3890 
Q 881 3647 878 3216 
L 300 3275 
Q 359 3922 746 4261 
Q 1134 4600 1788 4600 
Q 2447 4600 2831 4234 
Q 3216 3869 3216 3328 
Q 3216 3053 3103 2787 
Q 2991 2522 2730 2228 
Q 2469 1934 1863 1422 
Q 1356 997 1212 845 
Q 1069 694 975 541 
L 3222 541 
z
" transform="scale(0.015625)"/>
       </defs>
       <use xlink:href="#ArialMT-32"/>
       <use xlink:href="#ArialMT-2e" transform="translate(55.615234 0)"/>
       <use xlink:href="#ArialMT-30" transform="translate(83.398438 0)"/>
      </g>
     </g>
    </g>
    <g id="text_6">
     <!-- 1e8 -->
     <g style="fill: #262626" transform="translate(677.887066 12.2391) scale(0.0704 -0.0704)">
      <defs>
       <path id="ArialMT-65" d="M 2694 1069 
L 3275 997 
Q 3138 488 2766 206 
Q 2394 -75 1816 -75 
Q 1088 -75 661 373 
Q 234 822 234 1631 
Q 234 2469 665 2931 
Q 1097 3394 1784 3394 
Q 2450 3394 2872 2941 
Q 3294 2488 3294 1666 
Q 3294 1616 3291 1516 
L 816 1516 
Q 847 969 1125 678 
Q 1403 388 1819 388 
Q 2128 388 2347 550 
Q 2566 713 2694 1069 
z
M 847 1978 
L 2700 1978 
Q 2663 2397 2488 2606 
Q 2219 2931 1791 2931 
Q 1403 2931 1139 2672 
Q 875 2413 847 1978 
z
" transform="scale(0.015625)"/>
       <path id="ArialMT-38" d="M 1131 2484 
Q 781 2613 612 2850 
Q 444 3088 444 3419 
Q 444 3919 803 4259 
Q 1163 4600 1759 4600 
Q 2359 4600 2725 4251 
Q 3091 3903 3091 3403 
Q 3091 3084 2923 2848 
Q 2756 2613 2416 2484 
Q 2838 2347 3058 2040 
Q 3278 1734 3278 1309 
Q 3278 722 2862 322 
Q 2447 -78 1769 -78 
Q 1091 -78 675 323 
Q 259 725 259 1325 
Q 259 1772 486 2073 
Q 713 2375 1131 2484 
z
M 1019 3438 
Q 1019 3113 1228 2906 
Q 1438 2700 1772 2700 
Q 2097 2700 2305 2904 
Q 2513 3109 2513 3406 
Q 2513 3716 2298 3927 
Q 2084 4138 1766 4138 
Q 1444 4138 1231 3931 
Q 1019 3725 1019 3438 
z
M 838 1322 
Q 838 1081 952 856 
Q 1066 631 1291 507 
Q 1516 384 1775 384 
Q 2178 384 2440 643 
Q 2703 903 2703 1303 
Q 2703 1709 2433 1975 
Q 2163 2241 1756 2241 
Q 1359 2241 1098 1978 
Q 838 1716 838 1322 
z
" transform="scale(0.015625)"/>
      </defs>
      <use xlink:href="#ArialMT-31"/>
      <use xlink:href="#ArialMT-65" transform="translate(55.615234 0)"/>
      <use xlink:href="#ArialMT-38" transform="translate(111.230469 0)"/>
     </g>
    </g>
   </g>
   <g id="matplotlib.axis_2">
    <g id="ytick_1"/>
    <g id="ytick_2"/>
   </g>
   <g id="patch_3">
    <path d="M 20.031766 30.4166 
L 689.631766 30.4166 
" style="fill: none; stroke: #262626; stroke-width: 0.8; stroke-linejoin: miter; stroke-linecap: square"/>
   </g>
  </g>
  <g id="axes_2">
   <g id="patch_4">
    <path d="M 20.031766 68.561215 
L 689.631766 68.561215 
L 689.631766 41.315062 
L 20.031766 41.315062 
z
" style="fill: #ffffff"/>
   </g>
   <g id="patch_5">
    <path d="M 20.841379 57.629811 
L 20.841379 57.629811 
L 20.841379 52.18058 
L 20.841379 52.18058 
z
" clip-path="url(#pf6c3bb78ac)" style="fill: #ebeaea"/>
   </g>
   <g id="patch_6">
    <path d="M 20.841379 57.629811 
L 637.048447 57.629811 
L 637.048447 52.18058 
L 20.841379 52.18058 
z
" clip-path="url(#pf6c3bb78ac)" style="fill: #ebeaea"/>
   </g>
   <g id="patch_7">
    <path d="M 20.841379 57.629811 
L 20.841379 57.629811 
L 20.841379 52.18058 
L 20.841379 52.18058 
L 20.841379 57.629811 
z
" clip-path="url(#pf6c3bb78ac)" style="fill: none; stroke: #000000; stroke-width: 0.7; stroke-linejoin: miter"/>
   </g>
   <g id="patch_8">
    <path d="M 20.841379 57.629811 
L 637.048447 57.629811 
L 637.048447 52.18058 
L 20.841379 52.18058 
L 20.841379 57.629811 
z
" clip-path="url(#pf6c3bb78ac)" style="fill: none; stroke: #000000; stroke-width: 0.7; stroke-linejoin: miter"/>
   </g>
   <g id="matplotlib.axis_3">
    <g id="xtick_6"/>
    <g id="xtick_7"/>
    <g id="xtick_8"/>
    <g id="xtick_9"/>
    <g id="xtick_10"/>
   </g>
   <g id="matplotlib.axis_4">
    <g id="ytick_3"/>
    <g id="ytick_4"/>
   </g>
   <g id="text_7">
    <!-- 1 -->
    <g style="fill: #262626" transform="translate(12.255313 56.719726) scale(0.07 -0.07)">
     <defs>
      <path id="Arial-BoldMT-31" d="M 2519 0 
L 1641 0 
L 1641 3309 
Q 1159 2859 506 2644 
L 506 3441 
Q 850 3553 1253 3867 
Q 1656 4181 1806 4600 
L 2519 4600 
L 2519 0 
z
" transform="scale(0.015625)"/>
     </defs>
     <use xlink:href="#Arial-BoldMT-31"/>
    </g>
   </g>
  </g>
  <g id="axes_3">
   <g id="patch_9">
    <path d="M 20.031766 95.807369 
L 689.631766 95.807369 
L 689.631766 68.561215 
L 20.031766 68.561215 
z
" style="fill: #ffffff"/>
   </g>
   <g id="patch_10">
    <path d="M 20.841379 84.875964 
L 20.841379 84.875964 
L 20.841379 79.426734 
L 20.841379 79.426734 
z
" clip-path="url(#p9325debc50)" style="fill: #ebeaea"/>
   </g>
   <g id="patch_11">
    <path d="M 20.841379 84.875964 
L 327.475299 84.875964 
L 327.475299 79.426734 
L 20.841379 79.426734 
z
" clip-path="url(#p9325debc50)" style="fill: #ebeaea"/>
   </g>
   <g id="patch_12">
    <path d="M 20.841379 84.875964 
L 20.841379 84.875964 
L 20.841379 79.426734 
L 20.841379 79.426734 
L 20.841379 84.875964 
z
" clip-path="url(#p9325debc50)" style="fill: none; stroke: #000000; stroke-width: 0.7; stroke-linejoin: miter"/>
   </g>
   <g id="patch_13">
    <path d="M 20.841379 84.875964 
L 327.475299 84.875964 
L 327.475299 79.426734 
L 20.841379 79.426734 
L 20.841379 84.875964 
z
" clip-path="url(#p9325debc50)" style="fill: none; stroke: #000000; stroke-width: 0.7; stroke-linejoin: miter"/>
   </g>
   <g id="matplotlib.axis_5">
    <g id="xtick_11"/>
    <g id="xtick_12"/>
    <g id="xtick_13"/>
    <g id="xtick_14"/>
    <g id="xtick_15"/>
   </g>
   <g id="matplotlib.axis_6">
    <g id="ytick_5"/>
    <g id="ytick_6"/>
   </g>
   <g id="text_8">
    <!-- 2A -->
    <g style="fill: #262626" transform="translate(7.2 83.96588) scale(0.07 -0.07)">
     <defs>
      <path id="Arial-BoldMT-32" d="M 3238 816 
L 3238 0 
L 159 0 
Q 209 463 459 877 
Q 709 1291 1447 1975 
Q 2041 2528 2175 2725 
Q 2356 2997 2356 3263 
Q 2356 3556 2198 3714 
Q 2041 3872 1763 3872 
Q 1488 3872 1325 3706 
Q 1163 3541 1138 3156 
L 263 3244 
Q 341 3969 753 4284 
Q 1166 4600 1784 4600 
Q 2463 4600 2850 4234 
Q 3238 3869 3238 3325 
Q 3238 3016 3127 2736 
Q 3016 2456 2775 2150 
Q 2616 1947 2200 1565 
Q 1784 1184 1673 1059 
Q 1563 934 1494 816 
L 3238 816 
z
" transform="scale(0.015625)"/>
      <path id="Arial-BoldMT-41" d="M 4597 0 
L 3591 0 
L 3191 1041 
L 1359 1041 
L 981 0 
L 0 0 
L 1784 4581 
L 2763 4581 
L 4597 0 
z
M 2894 1813 
L 2263 3513 
L 1644 1813 
L 2894 1813 
z
" transform="scale(0.015625)"/>
     </defs>
     <use xlink:href="#Arial-BoldMT-32"/>
     <use xlink:href="#Arial-BoldMT-41" transform="translate(55.615234 0)"/>
    </g>
   </g>
  </g>
  <g id="axes_4">
   <g id="patch_14">
    <path d="M 20.031766 123.053523 
L 689.631766 123.053523 
L 689.631766 95.807369 
L 20.031766 95.807369 
z
" style="fill: #ffffff"/>
   </g>
   <g id="patch_15">
    <path d="M 20.841379 112.122118 
L 20.841379 112.122118 
L 20.841379 106.672887 
L 20.841379 106.672887 
z
" clip-path="url(#p313d940f18)" style="fill: #ebeaea"/>
   </g>
   <g id="patch_16">
    <path d="M 20.841379 112.122118 
L 688.822152 112.122118 
L 688.822152 106.672887 
L 20.841379 106.672887 
z
" clip-path="url(#p313d940f18)" style="fill: #ebeaea"/>
   </g>
   <g id="patch_17">
    <path d="M 20.841379 112.122118 
L 20.841379 112.122118 
L 20.841379 106.672887 
L 20.841379 106.672887 
L 20.841379 112.122118 
z
" clip-path="url(#p313d940f18)" style="fill: none; stroke: #000000; stroke-width: 0.7; stroke-linejoin: miter"/>
   </g>
   <g id="patch_18">
    <path d="M 20.841379 112.122118 
L 688.822152 112.122118 
L 688.822152 106.672887 
L 20.841379 106.672887 
L 20.841379 112.122118 
z
" clip-path="url(#p313d940f18)" style="fill: none; stroke: #000000; stroke-width: 0.7; stroke-linejoin: miter"/>
   </g>
   <g id="matplotlib.axis_7">
    <g id="xtick_16"/>
    <g id="xtick_17"/>
    <g id="xtick_18"/>
    <g id="xtick_19"/>
    <g id="xtick_20"/>
   </g>
   <g id="matplotlib.axis_8">
    <g id="ytick_7"/>
    <g id="ytick_8"/>
   </g>
   <g id="text_9">
    <!-- 2B -->
    <g style="fill: #262626" transform="translate(7.2 111.212034) scale(0.07 -0.07)">
     <defs>
      <path id="Arial-BoldMT-42" d="M 469 4581 
L 2300 4581 
Q 2844 4581 3111 4536 
Q 3378 4491 3589 4347 
Q 3800 4203 3940 3964 
Q 4081 3725 4081 3428 
Q 4081 3106 3907 2837 
Q 3734 2569 3438 2434 
Q 3856 2313 4081 2019 
Q 4306 1725 4306 1328 
Q 4306 1016 4161 720 
Q 4016 425 3764 248 
Q 3513 72 3144 31 
Q 2913 6 2028 0 
L 469 0 
L 469 4581 
z
M 1394 3819 
L 1394 2759 
L 2000 2759 
Q 2541 2759 2672 2775 
Q 2909 2803 3045 2939 
Q 3181 3075 3181 3297 
Q 3181 3509 3064 3642 
Q 2947 3775 2716 3803 
Q 2578 3819 1925 3819 
L 1394 3819 
z
M 1394 1997 
L 1394 772 
L 2250 772 
Q 2750 772 2884 800 
Q 3091 838 3220 983 
Q 3350 1128 3350 1372 
Q 3350 1578 3250 1722 
Q 3150 1866 2961 1931 
Q 2772 1997 2141 1997 
L 1394 1997 
z
" transform="scale(0.015625)"/>
     </defs>
     <use xlink:href="#Arial-BoldMT-32"/>
     <use xlink:href="#Arial-BoldMT-42" transform="translate(55.615234 0)"/>
    </g>
   </g>
  </g>
  <g id="axes_5">
   <g id="patch_19">
    <path d="M 20.031766 150.299677 
L 689.631766 150.299677 
L 689.631766 123.053523 
L 20.031766 123.053523 
z
" style="fill: #ffffff"/>
   </g>
   <g id="patch_20">
    <path d="M 20.841379 139.368272 
L 20.841379 139.368272 
L 20.841379 133.919041 
L 20.841379 133.919041 
z
" clip-path="url(#pe111c307e7)" style="fill: #ebeaea"/>
   </g>
   <g id="patch_21">
    <path d="M 20.841379 139.368272 
L 566.8714 139.368272 
L 566.8714 133.919041 
L 20.841379 133.919041 
z
" clip-path="url(#pe111c307e7)" style="fill: #ebeaea"/>
   </g>
   <g id="patch_22">
    <path d="M 20.841379 139.368272 
L 20.841379 139.368272 
L 20.841379 133.919041 
L 20.841379 133.919041 
L 20.841379 139.368272 
z
" clip-path="url(#pe111c307e7)" style="fill: none; stroke: #000000; stroke-width: 0.7; stroke-linejoin: miter"/>
   </g>
   <g id="patch_23">
    <path d="M 20.841379 139.368272 
L 566.8714 139.368272 
L 566.8714 133.919041 
L 20.841379 133.919041 
L 20.841379 139.368272 
z
" clip-path="url(#pe111c307e7)" style="fill: none; stroke: #000000; stroke-width: 0.7; stroke-linejoin: miter"/>
   </g>
   <g id="matplotlib.axis_9">
    <g id="xtick_21"/>
    <g id="xtick_22"/>
    <g id="xtick_23"/>
    <g id="xtick_24"/>
    <g id="xtick_25"/>
   </g>
   <g id="matplotlib.axis_10">
    <g id="ytick_9"/>
    <g id="ytick_10"/>
   </g>
   <g id="text_10">
    <!-- 3 -->
    <g style="fill: #262626" transform="translate(12.255313 138.458188) scale(0.07 -0.07)">
     <defs>
      <path id="Arial-BoldMT-33" d="M 241 1216 
L 1091 1319 
Q 1131 994 1309 822 
Q 1488 650 1741 650 
Q 2013 650 2198 856 
Q 2384 1063 2384 1413 
Q 2384 1744 2206 1937 
Q 2028 2131 1772 2131 
Q 1603 2131 1369 2066 
L 1466 2781 
Q 1822 2772 2009 2936 
Q 2197 3100 2197 3372 
Q 2197 3603 2059 3740 
Q 1922 3878 1694 3878 
Q 1469 3878 1309 3722 
Q 1150 3566 1116 3266 
L 306 3403 
Q 391 3819 561 4067 
Q 731 4316 1036 4458 
Q 1341 4600 1719 4600 
Q 2366 4600 2756 4188 
Q 3078 3850 3078 3425 
Q 3078 2822 2419 2463 
Q 2813 2378 3048 2084 
Q 3284 1791 3284 1375 
Q 3284 772 2843 347 
Q 2403 -78 1747 -78 
Q 1125 -78 715 280 
Q 306 638 241 1216 
z
" transform="scale(0.015625)"/>
     </defs>
     <use xlink:href="#Arial-BoldMT-33"/>
    </g>
   </g>
  </g>
  <g id="axes_6">
   <g id="patch_24">
    <path d="M 20.031766 177.545831 
L 689.631766 177.545831 
L 689.631766 150.299677 
L 20.031766 150.299677 
z
" style="fill: #ffffff"/>
   </g>
   <g id="patch_25">
    <path d="M 20.841379 166.614426 
L 20.841379 166.614426 
L 20.841379 161.165195 
L 20.841379 161.165195 
z
" clip-path="url(#p78bc0aa245)" style="fill: #ebeaea"/>
   </g>
   <g id="patch_26">
    <path d="M 20.841379 166.614426 
L 543.028661 166.614426 
L 543.028661 161.165195 
L 20.841379 161.165195 
z
" clip-path="url(#p78bc0aa245)" style="fill: #ebeaea"/>
   </g>
   <g id="patch_27">
    <path d="M 20.841379 166.614426 
L 20.841379 166.614426 
L 20.841379 161.165195 
L 20.841379 161.165195 
L 20.841379 166.614426 
z
" clip-path="url(#p78bc0aa245)" style="fill: none; stroke: #000000; stroke-width: 0.7; stroke-linejoin: miter"/>
   </g>
   <g id="patch_28">
    <path d="M 20.841379 166.614426 
L 543.028661 166.614426 
L 543.028661 161.165195 
L 20.841379 161.165195 
L 20.841379 166.614426 
z
" clip-path="url(#p78bc0aa245)" style="fill: none; stroke: #000000; stroke-width: 0.7; stroke-linejoin: miter"/>
   </g>
   <g id="matplotlib.axis_11">
    <g id="xtick_26"/>
    <g id="xtick_27"/>
    <g id="xtick_28"/>
    <g id="xtick_29"/>
    <g id="xtick_30"/>
   </g>
   <g id="matplotlib.axis_12">
    <g id="ytick_11"/>
    <g id="ytick_12"/>
   </g>
   <g id="text_11">
    <!-- 4 -->
    <g style="fill: #262626" transform="translate(12.255313 165.704342) scale(0.07 -0.07)">
     <defs>
      <path id="Arial-BoldMT-34" d="M 1994 0 
L 1994 922 
L 119 922 
L 119 1691 
L 2106 4600 
L 2844 4600 
L 2844 1694 
L 3413 1694 
L 3413 922 
L 2844 922 
L 2844 0 
L 1994 0 
z
M 1994 1694 
L 1994 3259 
L 941 1694 
L 1994 1694 
z
" transform="scale(0.015625)"/>
     </defs>
     <use xlink:href="#Arial-BoldMT-34"/>
    </g>
   </g>
  </g>
  <g id="axes_7">
   <g id="patch_29">
    <path d="M 20.031766 204.791985 
L 689.631766 204.791985 
L 689.631766 177.545831 
L 20.031766 177.545831 
z
" style="fill: #ffffff"/>
   </g>
   <g id="patch_30">
    <path d="M 20.841379 193.86058 
L 20.841379 193.86058 
L 20.841379 188.411349 
L 20.841379 188.411349 
z
" clip-path="url(#p75fe984d66)" style="fill: #ebeaea"/>
   </g>
   <g id="patch_31">
    <path d="M 20.841379 193.86058 
L 513.763855 193.86058 
L 513.763855 188.411349 
L 20.841379 188.411349 
z
" clip-path="url(#p75fe984d66)" style="fill: #ebeaea"/>
   </g>
   <g id="patch_32">
    <path d="M 20.841379 193.86058 
L 20.841379 193.86058 
L 20.841379 188.411349 
L 20.841379 188.411349 
L 20.841379 193.86058 
z
" clip-path="url(#p75fe984d66)" style="fill: none; stroke: #000000; stroke-width: 0.7; stroke-linejoin: miter"/>
   </g>
   <g id="patch_33">
    <path d="M 20.841379 193.86058 
L 513.763855 193.86058 
L 513.763855 188.411349 
L 20.841379 188.411349 
L 20.841379 193.86058 
z
" clip-path="url(#p75fe984d66)" style="fill: none; stroke: #000000; stroke-width: 0.7; stroke-linejoin: miter"/>
   </g>
   <g id="matplotlib.axis_13">
    <g id="xtick_31"/>
    <g id="xtick_32"/>
    <g id="xtick_33"/>
    <g id="xtick_34"/>
    <g id="xtick_35"/>
   </g>
   <g id="matplotlib.axis_14">
    <g id="ytick_13"/>
    <g id="ytick_14"/>
   </g>
   <g id="text_12">
    <!-- 5 -->
    <g style="fill: #262626" transform="translate(12.255313 192.950496) scale(0.07 -0.07)">
     <defs>
      <path id="Arial-BoldMT-35" d="M 284 1178 
L 1159 1269 
Q 1197 972 1381 798 
Q 1566 625 1806 625 
Q 2081 625 2272 848 
Q 2463 1072 2463 1522 
Q 2463 1944 2273 2155 
Q 2084 2366 1781 2366 
Q 1403 2366 1103 2031 
L 391 2134 
L 841 4519 
L 3163 4519 
L 3163 3697 
L 1506 3697 
L 1369 2919 
Q 1663 3066 1969 3066 
Q 2553 3066 2959 2641 
Q 3366 2216 3366 1538 
Q 3366 972 3038 528 
Q 2591 -78 1797 -78 
Q 1163 -78 763 262 
Q 363 603 284 1178 
z
" transform="scale(0.015625)"/>
     </defs>
     <use xlink:href="#Arial-BoldMT-35"/>
    </g>
   </g>
  </g>
  <g id="axes_8">
   <g id="patch_34">
    <path d="M 20.031766 232.038138 
L 689.631766 232.038138 
L 689.631766 204.791985 
L 20.031766 204.791985 
z
" style="fill: #ffffff"/>
   </g>
   <g id="patch_35">
    <path d="M 20.841379 221.106734 
L 20.841379 221.106734 
L 20.841379 215.657503 
L 20.841379 215.657503 
z
" clip-path="url(#pb5f907cb2a)" style="fill: #ebeaea"/>
   </g>
   <g id="patch_36">
    <path d="M 20.841379 221.106734 
L 486.703299 221.106734 
L 486.703299 215.657503 
L 20.841379 215.657503 
z
" clip-path="url(#pb5f907cb2a)" style="fill: #ebeaea"/>
   </g>
   <g id="patch_37">
    <path d="M 20.841379 221.106734 
L 20.841379 221.106734 
L 20.841379 215.657503 
L 20.841379 215.657503 
L 20.841379 221.106734 
z
" clip-path="url(#pb5f907cb2a)" style="fill: none; stroke: #000000; stroke-width: 0.7; stroke-linejoin: miter"/>
   </g>
   <g id="patch_38">
    <path d="M 20.841379 221.106734 
L 486.703299 221.106734 
L 486.703299 215.657503 
L 20.841379 215.657503 
L 20.841379 221.106734 
z
" clip-path="url(#pb5f907cb2a)" style="fill: none; stroke: #000000; stroke-width: 0.7; stroke-linejoin: miter"/>
   </g>
   <g id="matplotlib.axis_15">
    <g id="xtick_36"/>
    <g id="xtick_37"/>
    <g id="xtick_38"/>
    <g id="xtick_39"/>
    <g id="xtick_40"/>
   </g>
   <g id="matplotlib.axis_16">
    <g id="ytick_15"/>
    <g id="ytick_16"/>
   </g>
   <g id="text_13">
    <!-- 6 -->
    <g style="fill: #262626" transform="translate(12.255313 220.196649) scale(0.07 -0.07)">
     <defs>
      <path id="Arial-BoldMT-36" d="M 3247 3459 
L 2397 3366 
Q 2366 3628 2234 3753 
Q 2103 3878 1894 3878 
Q 1616 3878 1423 3628 
Q 1231 3378 1181 2588 
Q 1509 2975 1997 2975 
Q 2547 2975 2939 2556 
Q 3331 2138 3331 1475 
Q 3331 772 2918 347 
Q 2506 -78 1859 -78 
Q 1166 -78 719 461 
Q 272 1000 272 2228 
Q 272 3488 737 4044 
Q 1203 4600 1947 4600 
Q 2469 4600 2811 4308 
Q 3153 4016 3247 3459 
z
M 1256 1544 
Q 1256 1116 1453 883 
Q 1650 650 1903 650 
Q 2147 650 2309 840 
Q 2472 1031 2472 1466 
Q 2472 1913 2297 2120 
Q 2122 2328 1859 2328 
Q 1606 2328 1431 2129 
Q 1256 1931 1256 1544 
z
" transform="scale(0.015625)"/>
     </defs>
     <use xlink:href="#Arial-BoldMT-36"/>
    </g>
   </g>
  </g>
  <g id="axes_9">
   <g id="patch_39">
    <path d="M 20.031766 259.284292 
L 689.631766 259.284292 
L 689.631766 232.038138 
L 20.031766 232.038138 
z
" style="fill: #ffffff"/>
   </g>
   <g id="patch_40">
    <path d="M 20.841379 248.352887 
L 20.841379 248.352887 
L 20.841379 242.903657 
L 20.841379 242.903657 
z
" clip-path="url(#pb58113f388)" style="fill: #ebeaea"/>
   </g>
   <g id="patch_41">
    <path d="M 20.841379 248.352887 
L 457.559126 248.352887 
L 457.559126 242.903657 
L 20.841379 242.903657 
z
" clip-path="url(#pb58113f388)" style="fill: #ebeaea"/>
   </g>
   <g id="patch_42">
    <path d="M 20.841379 248.352887 
L 20.841379 248.352887 
L 20.841379 242.903657 
L 20.841379 242.903657 
L 20.841379 248.352887 
z
" clip-path="url(#pb58113f388)" style="fill: none; stroke: #000000; stroke-width: 0.7; stroke-linejoin: miter"/>
   </g>
   <g id="patch_43">
    <path d="M 20.841379 248.352887 
L 457.559126 248.352887 
L 457.559126 242.903657 
L 20.841379 242.903657 
L 20.841379 248.352887 
z
" clip-path="url(#pb58113f388)" style="fill: none; stroke: #000000; stroke-width: 0.7; stroke-linejoin: miter"/>
   </g>
   <g id="matplotlib.axis_17">
    <g id="xtick_41"/>
    <g id="xtick_42"/>
    <g id="xtick_43"/>
    <g id="xtick_44"/>
    <g id="xtick_45"/>
   </g>
   <g id="matplotlib.axis_18">
    <g id="ytick_17"/>
    <g id="ytick_18"/>
   </g>
   <g id="text_14">
    <!-- 7 -->
    <g style="fill: #262626" transform="translate(12.255313 247.442803) scale(0.07 -0.07)">
     <defs>
      <path id="Arial-BoldMT-37" d="M 272 3703 
L 272 4519 
L 3275 4519 
L 3275 3881 
Q 2903 3516 2518 2831 
Q 2134 2147 1932 1376 
Q 1731 606 1734 0 
L 888 0 
Q 909 950 1279 1937 
Q 1650 2925 2269 3703 
L 272 3703 
z
" transform="scale(0.015625)"/>
     </defs>
     <use xlink:href="#Arial-BoldMT-37"/>
    </g>
   </g>
  </g>
  <g id="axes_10">
   <g id="patch_44">
    <path d="M 20.031766 286.530446 
L 689.631766 286.530446 
L 689.631766 259.284292 
L 20.031766 259.284292 
z
" style="fill: #ffffff"/>
   </g>
   <g id="patch_45">
    <path d="M 20.841379 275.599041 
L 20.841379 275.599041 
L 20.841379 270.149811 
L 20.841379 270.149811 
z
" clip-path="url(#pb5902a4d50)" style="fill: #ebeaea"/>
   </g>
   <g id="patch_46">
    <path d="M 20.841379 275.599041 
L 409.419208 275.599041 
L 409.419208 270.149811 
L 20.841379 270.149811 
z
" clip-path="url(#pb5902a4d50)" style="fill: #ebeaea"/>
   </g>
   <g id="patch_47">
    <path d="M 20.841379 275.599041 
L 20.841379 275.599041 
L 20.841379 270.149811 
L 20.841379 270.149811 
L 20.841379 275.599041 
z
" clip-path="url(#pb5902a4d50)" style="fill: none; stroke: #000000; stroke-width: 0.7; stroke-linejoin: miter"/>
   </g>
   <g id="patch_48">
    <path d="M 20.841379 275.599041 
L 409.419208 275.599041 
L 409.419208 270.149811 
L 20.841379 270.149811 
L 20.841379 275.599041 
z
" clip-path="url(#pb5902a4d50)" style="fill: none; stroke: #000000; stroke-width: 0.7; stroke-linejoin: miter"/>
   </g>
   <g id="matplotlib.axis_19">
    <g id="xtick_46"/>
    <g id="xtick_47"/>
    <g id="xtick_48"/>
    <g id="xtick_49"/>
    <g id="xtick_50"/>
   </g>
   <g id="matplotlib.axis_20">
    <g id="ytick_19"/>
    <g id="ytick_20"/>
   </g>
   <g id="text_15">
    <!-- 8 -->
    <g style="fill: #262626" transform="translate(12.255313 274.688957) scale(0.07 -0.07)">
     <defs>
      <path id="Arial-BoldMT-38" d="M 1025 2472 
Q 684 2616 529 2867 
Q 375 3119 375 3419 
Q 375 3931 733 4265 
Q 1091 4600 1750 4600 
Q 2403 4600 2764 4265 
Q 3125 3931 3125 3419 
Q 3125 3100 2959 2851 
Q 2794 2603 2494 2472 
Q 2875 2319 3073 2025 
Q 3272 1731 3272 1347 
Q 3272 713 2867 316 
Q 2463 -81 1791 -81 
Q 1166 -81 750 247 
Q 259 634 259 1309 
Q 259 1681 443 1992 
Q 628 2303 1025 2472 
z
M 1206 3356 
Q 1206 3094 1354 2947 
Q 1503 2800 1750 2800 
Q 2000 2800 2150 2948 
Q 2300 3097 2300 3359 
Q 2300 3606 2151 3754 
Q 2003 3903 1759 3903 
Q 1506 3903 1356 3753 
Q 1206 3603 1206 3356 
z
M 1125 1394 
Q 1125 1031 1311 828 
Q 1497 625 1775 625 
Q 2047 625 2225 820 
Q 2403 1016 2403 1384 
Q 2403 1706 2222 1901 
Q 2041 2097 1763 2097 
Q 1441 2097 1283 1875 
Q 1125 1653 1125 1394 
z
" transform="scale(0.015625)"/>
     </defs>
     <use xlink:href="#Arial-BoldMT-38"/>
    </g>
   </g>
  </g>
  <g id="axes_11">
   <g id="patch_49">
    <path d="M 20.031766 313.7766 
L 689.631766 313.7766 
L 689.631766 286.530446 
L 20.031766 286.530446 
z
" style="fill: #ffffff"/>
   </g>
   <g id="patch_50">
    <path d="M 20.841379 302.845195 
L 20.841379 302.845195 
L 20.841379 297.395964 
L 20.841379 297.395964 
z
" clip-path="url(#pdb77df4fc8)" style="fill: #ebeaea"/>
   </g>
   <g id="patch_51">
    <path d="M 20.841379 302.845195 
L 392.83433 302.845195 
L 392.83433 297.395964 
L 20.841379 297.395964 
z
" clip-path="url(#pdb77df4fc8)" style="fill: #ebeaea"/>
   </g>
   <g id="patch_52">
    <path d="M 20.841379 302.845195 
L 20.841379 302.845195 
L 20.841379 297.395964 
L 20.841379 297.395964 
L 20.841379 302.845195 
z
" clip-path="url(#pdb77df4fc8)" style="fill: none; stroke: #000000; stroke-width: 0.7; stroke-linejoin: miter"/>
   </g>
   <g id="patch_53">
    <path d="M 20.841379 302.845195 
L 392.83433 302.845195 
L 392.83433 297.395964 
L 20.841379 297.395964 
L 20.841379 302.845195 
z
" clip-path="url(#pdb77df4fc8)" style="fill: none; stroke: #000000; stroke-width: 0.7; stroke-linejoin: miter"/>
   </g>
   <g id="matplotlib.axis_21">
    <g id="xtick_51"/>
    <g id="xtick_52"/>
    <g id="xtick_53"/>
    <g id="xtick_54"/>
    <g id="xtick_55"/>
   </g>
   <g id="matplotlib.axis_22">
    <g id="ytick_21"/>
    <g id="ytick_22"/>
   </g>
   <g id="text_16">
    <!-- 9 -->
    <g style="fill: #262626" transform="translate(12.255313 301.935111) scale(0.07 -0.07)">
     <defs>
      <path id="Arial-BoldMT-39" d="M 291 1059 
L 1141 1153 
Q 1172 894 1303 769 
Q 1434 644 1650 644 
Q 1922 644 2112 894 
Q 2303 1144 2356 1931 
Q 2025 1547 1528 1547 
Q 988 1547 595 1964 
Q 203 2381 203 3050 
Q 203 3747 617 4173 
Q 1031 4600 1672 4600 
Q 2369 4600 2816 4061 
Q 3263 3522 3263 2288 
Q 3263 1031 2797 475 
Q 2331 -81 1584 -81 
Q 1047 -81 715 205 
Q 384 491 291 1059 
z
M 2278 2978 
Q 2278 3403 2083 3637 
Q 1888 3872 1631 3872 
Q 1388 3872 1227 3680 
Q 1066 3488 1066 3050 
Q 1066 2606 1241 2398 
Q 1416 2191 1678 2191 
Q 1931 2191 2104 2391 
Q 2278 2591 2278 2978 
z
" transform="scale(0.015625)"/>
     </defs>
     <use xlink:href="#Arial-BoldMT-39"/>
    </g>
   </g>
  </g>
  <g id="axes_12">
   <g id="patch_54">
    <path d="M 20.031766 341.022754 
L 689.631766 341.022754 
L 689.631766 313.7766 
L 20.031766 313.7766 
z
" style="fill: #ffffff"/>
   </g>
   <g id="patch_55">
    <path d="M 20.841379 330.091349 
L 20.841379 330.091349 
L 20.841379 324.642118 
L 20.841379 324.642118 
z
" clip-path="url(#pedb4159ca4)" style="fill: #ebeaea"/>
   </g>
   <g id="patch_56">
    <path d="M 20.841379 330.091349 
L 381.185054 330.091349 
L 381.185054 324.642118 
L 20.841379 324.642118 
z
" clip-path="url(#pedb4159ca4)" style="fill: #ebeaea"/>
   </g>
   <g id="patch_57">
    <path d="M 20.841379 330.091349 
L 20.841379 330.091349 
L 20.841379 324.642118 
L 20.841379 324.642118 
L 20.841379 330.091349 
z
" clip-path="url(#pedb4159ca4)" style="fill: none; stroke: #000000; stroke-width: 0.7; stroke-linejoin: miter"/>
   </g>
   <g id="patch_58">
    <path d="M 20.841379 330.091349 
L 381.185054 330.091349 
L 381.185054 324.642118 
L 20.841379 324.642118 
L 20.841379 330.091349 
z
" clip-path="url(#pedb4159ca4)" style="fill: none; stroke: #000000; stroke-width: 0.7; stroke-linejoin: miter"/>
   </g>
   <g id="matplotlib.axis_23">
    <g id="xtick_56"/>
    <g id="xtick_57"/>
    <g id="xtick_58"/>
    <g id="xtick_59"/>
    <g id="xtick_60"/>
   </g>
   <g id="matplotlib.axis_24">
    <g id="ytick_23"/>
    <g id="ytick_24"/>
   </g>
   <g id="text_17">
    <!-- 10 -->
    <g style="fill: #262626" transform="translate(8.362656 329.181265) scale(0.07 -0.07)">
     <defs>
      <path id="Arial-BoldMT-30" d="M 1756 4600 
Q 2422 4600 2797 4125 
Q 3244 3563 3244 2259 
Q 3244 959 2794 391 
Q 2422 -78 1756 -78 
Q 1088 -78 678 436 
Q 269 950 269 2269 
Q 269 3563 719 4131 
Q 1091 4600 1756 4600 
z
M 1756 3872 
Q 1597 3872 1472 3770 
Q 1347 3669 1278 3406 
Q 1188 3066 1188 2259 
Q 1188 1453 1269 1151 
Q 1350 850 1473 750 
Q 1597 650 1756 650 
Q 1916 650 2041 751 
Q 2166 853 2234 1116 
Q 2325 1453 2325 2259 
Q 2325 3066 2244 3367 
Q 2163 3669 2039 3770 
Q 1916 3872 1756 3872 
z
" transform="scale(0.015625)"/>
     </defs>
     <use xlink:href="#Arial-BoldMT-31"/>
     <use xlink:href="#Arial-BoldMT-30" transform="translate(55.615234 0)"/>
    </g>
   </g>
  </g>
  <g id="axes_13">
   <g id="patch_59">
    <path d="M 20.031766 368.268908 
L 689.631766 368.268908 
L 689.631766 341.022754 
L 20.031766 341.022754 
z
" style="fill: #ffffff"/>
   </g>
   <g id="patch_60">
    <path d="M 20.841379 357.337503 
L 20.841379 357.337503 
L 20.841379 351.888272 
L 20.841379 351.888272 
z
" clip-path="url(#p8126b53973)" style="fill: #ebeaea"/>
   </g>
   <g id="patch_61">
    <path d="M 20.841379 357.337503 
L 380.097892 357.337503 
L 380.097892 351.888272 
L 20.841379 351.888272 
z
" clip-path="url(#p8126b53973)" style="fill: #ebeaea"/>
   </g>
   <g id="patch_62">
    <path d="M 20.841379 357.337503 
L 20.841379 357.337503 
L 20.841379 351.888272 
L 20.841379 351.888272 
L 20.841379 357.337503 
z
" clip-path="url(#p8126b53973)" style="fill: none; stroke: #000000; stroke-width: 0.7; stroke-linejoin: miter"/>
   </g>
   <g id="patch_63">
    <path d="M 20.841379 357.337503 
L 380.097892 357.337503 
L 380.097892 351.888272 
L 20.841379 351.888272 
L 20.841379 357.337503 
z
" clip-path="url(#p8126b53973)" style="fill: none; stroke: #000000; stroke-width: 0.7; stroke-linejoin: miter"/>
   </g>
   <g id="matplotlib.axis_25">
    <g id="xtick_61"/>
    <g id="xtick_62"/>
    <g id="xtick_63"/>
    <g id="xtick_64"/>
    <g id="xtick_65"/>
   </g>
   <g id="matplotlib.axis_26">
    <g id="ytick_25"/>
    <g id="ytick_26"/>
   </g>
   <g id="text_18">
    <!-- 11 -->
    <g style="fill: #262626" transform="translate(8.747656 356.427419) scale(0.07 -0.07)">
     <use xlink:href="#Arial-BoldMT-31"/>
     <use xlink:href="#Arial-BoldMT-31" transform="translate(50.115234 0)"/>
    </g>
   </g>
  </g>
  <g id="axes_14">
   <g id="patch_64">
    <path d="M 20.031766 395.515062 
L 689.631766 395.515062 
L 689.631766 368.268908 
L 20.031766 368.268908 
z
" style="fill: #ffffff"/>
   </g>
   <g id="patch_65">
    <path d="M 20.841379 384.583657 
L 20.841379 384.583657 
L 20.841379 379.134426 
L 20.841379 379.134426 
z
" clip-path="url(#p5ada57571a)" style="fill: #ebeaea"/>
   </g>
   <g id="patch_66">
    <path d="M 20.841379 384.583657 
L 383.133078 384.583657 
L 383.133078 379.134426 
L 20.841379 379.134426 
z
" clip-path="url(#p5ada57571a)" style="fill: #ebeaea"/>
   </g>
   <g id="patch_67">
    <path d="M 20.841379 384.583657 
L 20.841379 384.583657 
L 20.841379 379.134426 
L 20.841379 379.134426 
L 20.841379 384.583657 
z
" clip-path="url(#p5ada57571a)" style="fill: none; stroke: #000000; stroke-width: 0.7; stroke-linejoin: miter"/>
   </g>
   <g id="patch_68">
    <path d="M 20.841379 384.583657 
L 383.133078 384.583657 
L 383.133078 379.134426 
L 20.841379 379.134426 
L 20.841379 384.583657 
z
" clip-path="url(#p5ada57571a)" style="fill: none; stroke: #000000; stroke-width: 0.7; stroke-linejoin: miter"/>
   </g>
   <g id="matplotlib.axis_27">
    <g id="xtick_66"/>
    <g id="xtick_67"/>
    <g id="xtick_68"/>
    <g id="xtick_69"/>
    <g id="xtick_70"/>
   </g>
   <g id="matplotlib.axis_28">
    <g id="ytick_27"/>
    <g id="ytick_28"/>
   </g>
   <g id="text_19">
    <!-- 12 -->
    <g style="fill: #262626" transform="translate(8.362656 383.673573) scale(0.07 -0.07)">
     <use xlink:href="#Arial-BoldMT-31"/>
     <use xlink:href="#Arial-BoldMT-32" transform="translate(55.615234 0)"/>
    </g>
   </g>
  </g>
  <g id="axes_15">
   <g id="patch_69">
    <path d="M 20.031766 422.761215 
L 689.631766 422.761215 
L 689.631766 395.515062 
L 20.031766 395.515062 
z
" style="fill: #ffffff"/>
   </g>
   <g id="patch_70">
    <path d="M 20.841379 411.829811 
L 20.841379 411.829811 
L 20.841379 406.38058 
L 20.841379 406.38058 
z
" clip-path="url(#pfbc509feac)" style="fill: #ebeaea"/>
   </g>
   <g id="patch_71">
    <path d="M 20.841379 411.829811 
L 331.525683 411.829811 
L 331.525683 406.38058 
L 20.841379 406.38058 
z
" clip-path="url(#pfbc509feac)" style="fill: #ebeaea"/>
   </g>
   <g id="patch_72">
    <path d="M 20.841379 411.829811 
L 20.841379 411.829811 
L 20.841379 406.38058 
L 20.841379 406.38058 
L 20.841379 411.829811 
z
" clip-path="url(#pfbc509feac)" style="fill: none; stroke: #000000; stroke-width: 0.7; stroke-linejoin: miter"/>
   </g>
   <g id="patch_73">
    <path d="M 20.841379 411.829811 
L 331.525683 411.829811 
L 331.525683 406.38058 
L 20.841379 406.38058 
L 20.841379 411.829811 
z
" clip-path="url(#pfbc509feac)" style="fill: none; stroke: #000000; stroke-width: 0.7; stroke-linejoin: miter"/>
   </g>
   <g id="matplotlib.axis_29">
    <g id="xtick_71"/>
    <g id="xtick_72"/>
    <g id="xtick_73"/>
    <g id="xtick_74"/>
    <g id="xtick_75"/>
   </g>
   <g id="matplotlib.axis_30">
    <g id="ytick_29"/>
    <g id="ytick_30"/>
   </g>
   <g id="text_20">
    <!-- 13 -->
    <g style="fill: #262626" transform="translate(8.362656 410.919726) scale(0.07 -0.07)">
     <use xlink:href="#Arial-BoldMT-31"/>
     <use xlink:href="#Arial-BoldMT-33" transform="translate(55.615234 0)"/>
    </g>
   </g>
  </g>
  <g id="axes_16">
   <g id="patch_74">
    <path d="M 20.031766 450.007369 
L 689.631766 450.007369 
L 689.631766 422.761215 
L 20.031766 422.761215 
z
" style="fill: #ffffff"/>
   </g>
   <g id="patch_75">
    <path d="M 20.841379 439.075964 
L 20.841379 439.075964 
L 20.841379 433.626734 
L 20.841379 433.626734 
z
" clip-path="url(#pe4dc8c0c75)" style="fill: #ebeaea"/>
   </g>
   <g id="patch_76">
    <path d="M 20.841379 439.075964 
L 308.375347 439.075964 
L 308.375347 433.626734 
L 20.841379 433.626734 
z
" clip-path="url(#pe4dc8c0c75)" style="fill: #ebeaea"/>
   </g>
   <g id="patch_77">
    <path d="M 20.841379 439.075964 
L 20.841379 439.075964 
L 20.841379 433.626734 
L 20.841379 433.626734 
L 20.841379 439.075964 
z
" clip-path="url(#pe4dc8c0c75)" style="fill: none; stroke: #000000; stroke-width: 0.7; stroke-linejoin: miter"/>
   </g>
   <g id="patch_78">
    <path d="M 20.841379 439.075964 
L 308.375347 439.075964 
L 308.375347 433.626734 
L 20.841379 433.626734 
L 20.841379 439.075964 
z
" clip-path="url(#pe4dc8c0c75)" style="fill: none; stroke: #000000; stroke-width: 0.7; stroke-linejoin: miter"/>
   </g>
   <g id="matplotlib.axis_31">
    <g id="xtick_76"/>
    <g id="xtick_77"/>
    <g id="xtick_78"/>
    <g id="xtick_79"/>
    <g id="xtick_80"/>
   </g>
   <g id="matplotlib.axis_32">
    <g id="ytick_31"/>
    <g id="ytick_32"/>
   </g>
   <g id="text_21">
    <!-- 14 -->
    <g style="fill: #262626" transform="translate(8.362656 438.16588) scale(0.07 -0.07)">
     <use xlink:href="#Arial-BoldMT-31"/>
     <use xlink:href="#Arial-BoldMT-34" transform="translate(55.615234 0)"/>
    </g>
   </g>
  </g>
  <g id="axes_17">
   <g id="patch_79">
    <path d="M 20.031766 477.253523 
L 689.631766 477.253523 
L 689.631766 450.007369 
L 20.031766 450.007369 
z
" style="fill: #ffffff"/>
   </g>
   <g id="patch_80">
    <path d="M 20.841379 466.322118 
L 20.841379 466.322118 
L 20.841379 460.872887 
L 20.841379 460.872887 
z
" clip-path="url(#p134ead87d9)" style="fill: #ebeaea"/>
   </g>
   <g id="patch_81">
    <path d="M 20.841379 466.322118 
L 289.493493 466.322118 
L 289.493493 460.872887 
L 20.841379 460.872887 
z
" clip-path="url(#p134ead87d9)" style="fill: #ebeaea"/>
   </g>
   <g id="patch_82">
    <path d="M 20.841379 466.322118 
L 20.841379 466.322118 
L 20.841379 460.872887 
L 20.841379 460.872887 
L 20.841379 466.322118 
z
" clip-path="url(#p134ead87d9)" style="fill: none; stroke: #000000; stroke-width: 0.7; stroke-linejoin: miter"/>
   </g>
   <g id="patch_83">
    <path d="M 20.841379 466.322118 
L 289.493493 466.322118 
L 289.493493 460.872887 
L 20.841379 460.872887 
L 20.841379 466.322118 
z
" clip-path="url(#p134ead87d9)" style="fill: none; stroke: #000000; stroke-width: 0.7; stroke-linejoin: miter"/>
   </g>
   <g id="matplotlib.axis_33">
    <g id="xtick_81"/>
    <g id="xtick_82"/>
    <g id="xtick_83"/>
    <g id="xtick_84"/>
    <g id="xtick_85"/>
   </g>
   <g id="matplotlib.axis_34">
    <g id="ytick_33"/>
    <g id="ytick_34"/>
   </g>
   <g id="text_22">
    <!-- 15 -->
    <g style="fill: #262626" transform="translate(8.362656 465.412034) scale(0.07 -0.07)">
     <use xlink:href="#Arial-BoldMT-31"/>
     <use xlink:href="#Arial-BoldMT-35" transform="translate(55.615234 0)"/>
    </g>
   </g>
  </g>
  <g id="axes_18">
   <g id="patch_84">
    <path d="M 20.031766 504.499677 
L 689.631766 504.499677 
L 689.631766 477.253523 
L 20.031766 477.253523 
z
" style="fill: #ffffff"/>
   </g>
   <g id="patch_85">
    <path d="M 20.841379 493.568272 
L 20.841379 493.568272 
L 20.841379 488.119041 
L 20.841379 488.119041 
z
" clip-path="url(#p66c4083d18)" style="fill: #ebeaea"/>
   </g>
   <g id="patch_86">
    <path d="M 20.841379 493.568272 
L 263.681704 493.568272 
L 263.681704 488.119041 
L 20.841379 488.119041 
z
" clip-path="url(#p66c4083d18)" style="fill: #ebeaea"/>
   </g>
   <g id="patch_87">
    <path d="M 20.841379 493.568272 
L 20.841379 493.568272 
L 20.841379 488.119041 
L 20.841379 488.119041 
L 20.841379 493.568272 
z
" clip-path="url(#p66c4083d18)" style="fill: none; stroke: #000000; stroke-width: 0.7; stroke-linejoin: miter"/>
   </g>
   <g id="patch_88">
    <path d="M 20.841379 493.568272 
L 263.681704 493.568272 
L 263.681704 488.119041 
L 20.841379 488.119041 
L 20.841379 493.568272 
z
" clip-path="url(#p66c4083d18)" style="fill: none; stroke: #000000; stroke-width: 0.7; stroke-linejoin: miter"/>
   </g>
   <g id="matplotlib.axis_35">
    <g id="xtick_86"/>
    <g id="xtick_87"/>
    <g id="xtick_88"/>
    <g id="xtick_89"/>
    <g id="xtick_90"/>
   </g>
   <g id="matplotlib.axis_36">
    <g id="ytick_35"/>
    <g id="ytick_36"/>
   </g>
   <g id="text_23">
    <!-- 16 -->
    <g style="fill: #262626" transform="translate(8.362656 492.658188) scale(0.07 -0.07)">
     <use xlink:href="#Arial-BoldMT-31"/>
     <use xlink:href="#Arial-BoldMT-36" transform="translate(55.615234 0)"/>
    </g>
   </g>
  </g>
  <g id="axes_19">
   <g id="patch_89">
    <path d="M 20.031766 531.745831 
L 689.631766 531.745831 
L 689.631766 504.499677 
L 20.031766 504.499677 
z
" style="fill: #ffffff"/>
   </g>
   <g id="patch_90">
    <path d="M 20.841379 520.814426 
L 20.841379 520.814426 
L 20.841379 515.365195 
L 20.841379 515.365195 
z
" clip-path="url(#pad83f18667)" style="fill: #ebeaea"/>
   </g>
   <g id="patch_91">
    <path d="M 20.841379 520.814426 
L 243.83704 520.814426 
L 243.83704 515.365195 
L 20.841379 515.365195 
z
" clip-path="url(#pad83f18667)" style="fill: #ebeaea"/>
   </g>
   <g id="patch_92">
    <path d="M 20.841379 520.814426 
L 20.841379 520.814426 
L 20.841379 515.365195 
L 20.841379 515.365195 
L 20.841379 520.814426 
z
" clip-path="url(#pad83f18667)" style="fill: none; stroke: #000000; stroke-width: 0.7; stroke-linejoin: miter"/>
   </g>
   <g id="patch_93">
    <path d="M 20.841379 520.814426 
L 243.83704 520.814426 
L 243.83704 515.365195 
L 20.841379 515.365195 
L 20.841379 520.814426 
z
" clip-path="url(#pad83f18667)" style="fill: none; stroke: #000000; stroke-width: 0.7; stroke-linejoin: miter"/>
   </g>
   <g id="matplotlib.axis_37">
    <g id="xtick_91"/>
    <g id="xtick_92"/>
    <g id="xtick_93"/>
    <g id="xtick_94"/>
    <g id="xtick_95"/>
   </g>
   <g id="matplotlib.axis_38">
    <g id="ytick_37"/>
    <g id="ytick_38"/>
   </g>
   <g id="text_24">
    <!-- 17 -->
    <g style="fill: #262626" transform="translate(8.362656 519.904342) scale(0.07 -0.07)">
     <use xlink:href="#Arial-BoldMT-31"/>
     <use xlink:href="#Arial-BoldMT-37" transform="translate(55.615234 0)"/>
    </g>
   </g>
  </g>
  <g id="axes_20">
   <g id="patch_94">
    <path d="M 20.031766 558.991985 
L 689.631766 558.991985 
L 689.631766 531.745831 
L 20.031766 531.745831 
z
" style="fill: #ffffff"/>
   </g>
   <g id="patch_95">
    <path d="M 20.841379 548.06058 
L 20.841379 548.06058 
L 20.841379 542.611349 
L 20.841379 542.611349 
z
" clip-path="url(#p90c50e43b2)" style="fill: #ebeaea"/>
   </g>
   <g id="patch_96">
    <path d="M 20.841379 548.06058 
L 227.593653 548.06058 
L 227.593653 542.611349 
L 20.841379 542.611349 
z
" clip-path="url(#p90c50e43b2)" style="fill: #ebeaea"/>
   </g>
   <g id="patch_97">
    <path d="M 20.841379 548.06058 
L 20.841379 548.06058 
L 20.841379 542.611349 
L 20.841379 542.611349 
L 20.841379 548.06058 
z
" clip-path="url(#p90c50e43b2)" style="fill: none; stroke: #000000; stroke-width: 0.7; stroke-linejoin: miter"/>
   </g>
   <g id="patch_98">
    <path d="M 20.841379 548.06058 
L 227.593653 548.06058 
L 227.593653 542.611349 
L 20.841379 542.611349 
L 20.841379 548.06058 
z
" clip-path="url(#p90c50e43b2)" style="fill: none; stroke: #000000; stroke-width: 0.7; stroke-linejoin: miter"/>
   </g>
   <g id="matplotlib.axis_39">
    <g id="xtick_96"/>
    <g id="xtick_97"/>
    <g id="xtick_98"/>
    <g id="xtick_99"/>
    <g id="xtick_100"/>
   </g>
   <g id="matplotlib.axis_40">
    <g id="ytick_39"/>
    <g id="ytick_40"/>
   </g>
   <g id="text_25">
    <!-- 18 -->
    <g style="fill: #262626" transform="translate(8.362656 547.150496) scale(0.07 -0.07)">
     <use xlink:href="#Arial-BoldMT-31"/>
     <use xlink:href="#Arial-BoldMT-38" transform="translate(55.615234 0)"/>
    </g>
   </g>
  </g>
  <g id="axes_21">
   <g id="patch_99">
    <path d="M 20.031766 586.238138 
L 689.631766 586.238138 
L 689.631766 558.991985 
L 20.031766 558.991985 
z
" style="fill: #ffffff"/>
   </g>
   <g id="patch_100">
    <path d="M 20.841379 575.306734 
L 20.841379 575.306734 
L 20.841379 569.857503 
L 20.841379 569.857503 
z
" clip-path="url(#pa29ff845f1)" style="fill: #ebeaea"/>
   </g>
   <g id="patch_101">
    <path d="M 20.841379 575.306734 
L 192.600805 575.306734 
L 192.600805 569.857503 
L 20.841379 569.857503 
z
" clip-path="url(#pa29ff845f1)" style="fill: #ebeaea"/>
   </g>
   <g id="patch_102">
    <path d="M 20.841379 575.306734 
L 20.841379 575.306734 
L 20.841379 569.857503 
L 20.841379 569.857503 
L 20.841379 575.306734 
z
" clip-path="url(#pa29ff845f1)" style="fill: none; stroke: #000000; stroke-width: 0.7; stroke-linejoin: miter"/>
   </g>
   <g id="patch_103">
    <path d="M 20.841379 575.306734 
L 192.600805 575.306734 
L 192.600805 569.857503 
L 20.841379 569.857503 
L 20.841379 575.306734 
z
" clip-path="url(#pa29ff845f1)" style="fill: none; stroke: #000000; stroke-width: 0.7; stroke-linejoin: miter"/>
   </g>
   <g id="matplotlib.axis_41">
    <g id="xtick_101"/>
    <g id="xtick_102"/>
    <g id="xtick_103"/>
    <g id="xtick_104"/>
    <g id="xtick_105"/>
   </g>
   <g id="matplotlib.axis_42">
    <g id="ytick_41"/>
    <g id="ytick_42"/>
   </g>
   <g id="text_26">
    <!-- 19 -->
    <g style="fill: #262626" transform="translate(8.362656 574.396649) scale(0.07 -0.07)">
     <use xlink:href="#Arial-BoldMT-31"/>
     <use xlink:href="#Arial-BoldMT-39" transform="translate(55.615234 0)"/>
    </g>
   </g>
  </g>
  <g id="axes_22">
   <g id="patch_104">
    <path d="M 20.031766 613.484292 
L 689.631766 613.484292 
L 689.631766 586.238138 
L 20.031766 586.238138 
z
" style="fill: #ffffff"/>
   </g>
   <g id="patch_105">
    <path d="M 20.841379 602.552887 
L 20.841379 602.552887 
L 20.841379 597.103657 
L 20.841379 597.103657 
z
" clip-path="url(#pd26ac21945)" style="fill: #ebeaea"/>
   </g>
   <g id="patch_106">
    <path d="M 20.841379 602.552887 
L 187.430884 602.552887 
L 187.430884 597.103657 
L 20.841379 597.103657 
z
" clip-path="url(#pd26ac21945)" style="fill: #ebeaea"/>
   </g>
   <g id="patch_107">
    <path d="M 20.841379 602.552887 
L 20.841379 602.552887 
L 20.841379 597.103657 
L 20.841379 597.103657 
L 20.841379 602.552887 
z
" clip-path="url(#pd26ac21945)" style="fill: none; stroke: #000000; stroke-width: 0.7; stroke-linejoin: miter"/>
   </g>
   <g id="patch_108">
    <path d="M 20.841379 602.552887 
L 187.430884 602.552887 
L 187.430884 597.103657 
L 20.841379 597.103657 
L 20.841379 602.552887 
z
" clip-path="url(#pd26ac21945)" style="fill: none; stroke: #000000; stroke-width: 0.7; stroke-linejoin: miter"/>
   </g>
   <g id="matplotlib.axis_43">
    <g id="xtick_106"/>
    <g id="xtick_107"/>
    <g id="xtick_108"/>
    <g id="xtick_109"/>
    <g id="xtick_110"/>
   </g>
   <g id="matplotlib.axis_44">
    <g id="ytick_43"/>
    <g id="ytick_44"/>
   </g>
   <g id="text_27">
    <!-- 20 -->
    <g style="fill: #262626" transform="translate(8.362656 601.642803) scale(0.07 -0.07)">
     <use xlink:href="#Arial-BoldMT-32"/>
     <use xlink:href="#Arial-BoldMT-30" transform="translate(55.615234 0)"/>
    </g>
   </g>
  </g>
  <g id="axes_23">
   <g id="patch_109">
    <path d="M 20.031766 640.730446 
L 442.937029 640.730446 
L 442.937029 613.484292 
L 20.031766 613.484292 
z
" style="fill: #ffffff"/>
   </g>
   <g id="patch_110">
    <path d="M 20.840238 629.799065 
L 20.840238 629.799065 
L 20.840238 624.349834 
L 20.840238 624.349834 
z
" clip-path="url(#p861462a5b9)" style="fill: #ebeaea"/>
   </g>
   <g id="patch_111">
    <path d="M 20.840238 629.799065 
L 109.230863 629.799065 
L 109.230863 624.349834 
L 20.840238 624.349834 
z
" clip-path="url(#p861462a5b9)" style="fill: #ebeaea"/>
   </g>
   <g id="patch_112">
    <path d="M 20.840238 629.799065 
L 20.840238 629.799065 
L 20.840238 624.349834 
L 20.840238 624.349834 
L 20.840238 629.799065 
z
" clip-path="url(#p861462a5b9)" style="fill: none; stroke: #000000; stroke-width: 0.7; stroke-linejoin: miter"/>
   </g>
   <g id="patch_113">
    <path d="M 20.840238 629.799065 
L 109.230863 629.799065 
L 109.230863 624.349834 
L 20.840238 624.349834 
L 20.840238 629.799065 
z
" clip-path="url(#p861462a5b9)" style="fill: none; stroke: #000000; stroke-width: 0.7; stroke-linejoin: miter"/>
   </g>
   <g id="matplotlib.axis_45">
    <g id="xtick_111"/>
    <g id="xtick_112"/>
    <g id="xtick_113"/>
    <g id="xtick_114"/>
    <g id="xtick_115"/>
    <g id="xtick_116"/>
    <g id="xtick_117"/>
    <g id="xtick_118"/>
   </g>
   <g id="matplotlib.axis_46">
    <g id="ytick_45"/>
    <g id="ytick_46"/>
   </g>
   <g id="text_28">
    <!-- 21 -->
    <g style="fill: #262626" transform="translate(8.368127 628.88898) scale(0.07 -0.07)">
     <use xlink:href="#Arial-BoldMT-32"/>
     <use xlink:href="#Arial-BoldMT-31" transform="translate(55.615234 0)"/>
    </g>
   </g>
  </g>
  <g id="axes_24">
   <g id="patch_114">
    <path d="M 20.031766 667.9766 
L 442.937029 667.9766 
L 442.937029 640.730446 
L 20.031766 640.730446 
z
" style="fill: #ffffff"/>
   </g>
   <g id="patch_115">
    <path d="M 20.840238 657.045218 
L 20.840238 657.045218 
L 20.840238 651.595988 
L 20.840238 651.595988 
z
" clip-path="url(#p65c56c97c8)" style="fill: #ebeaea"/>
   </g>
   <g id="patch_116">
    <path d="M 20.840238 657.045218 
L 154.879591 657.045218 
L 154.879591 651.595988 
L 20.840238 651.595988 
z
" clip-path="url(#p65c56c97c8)" style="fill: #ebeaea"/>
   </g>
   <g id="patch_117">
    <path d="M 20.840238 657.045218 
L 20.840238 657.045218 
L 20.840238 651.595988 
L 20.840238 651.595988 
L 20.840238 657.045218 
z
" clip-path="url(#p65c56c97c8)" style="fill: none; stroke: #000000; stroke-width: 0.7; stroke-linejoin: miter"/>
   </g>
   <g id="patch_118">
    <path d="M 20.840238 657.045218 
L 154.879591 657.045218 
L 154.879591 651.595988 
L 20.840238 651.595988 
L 20.840238 657.045218 
z
" clip-path="url(#p65c56c97c8)" style="fill: none; stroke: #000000; stroke-width: 0.7; stroke-linejoin: miter"/>
   </g>
   <g id="matplotlib.axis_47">
    <g id="xtick_119"/>
    <g id="xtick_120"/>
    <g id="xtick_121"/>
    <g id="xtick_122"/>
    <g id="xtick_123"/>
    <g id="xtick_124"/>
    <g id="xtick_125"/>
    <g id="xtick_126"/>
   </g>
   <g id="matplotlib.axis_48">
    <g id="ytick_47"/>
    <g id="ytick_48"/>
   </g>
   <g id="text_29">
    <!-- 22 -->
    <g style="fill: #262626" transform="translate(8.368127 656.135134) scale(0.07 -0.07)">
     <use xlink:href="#Arial-BoldMT-32"/>
     <use xlink:href="#Arial-BoldMT-32" transform="translate(55.615234 0)"/>
    </g>
   </g>
  </g>
  <g id="axes_25">
   <g id="patch_119">
    <path d="M 266.726502 640.730446 
L 689.631766 640.730446 
L 689.631766 613.484292 
L 266.726502 613.484292 
z
" style="fill: #ffffff"/>
   </g>
   <g id="patch_120">
    <path d="M 267.532301 629.799173 
L 267.532301 629.799173 
L 267.532301 624.349943 
L 267.532301 624.349943 
z
" clip-path="url(#p9c7f175c92)" style="fill: #ebeaea"/>
   </g>
   <g id="patch_121">
    <path d="M 267.532301 629.799173 
L 688.825966 629.799173 
L 688.825966 624.349943 
L 267.532301 624.349943 
z
" clip-path="url(#p9c7f175c92)" style="fill: #ebeaea"/>
   </g>
   <g id="patch_122">
    <path d="M 267.532301 629.799173 
L 267.532301 629.799173 
L 267.532301 624.349943 
L 267.532301 624.349943 
L 267.532301 629.799173 
z
" clip-path="url(#p9c7f175c92)" style="fill: none; stroke: #000000; stroke-width: 0.7; stroke-linejoin: miter"/>
   </g>
   <g id="patch_123">
    <path d="M 267.532301 629.799173 
L 688.825966 629.799173 
L 688.825966 624.349943 
L 267.532301 624.349943 
L 267.532301 629.799173 
z
" clip-path="url(#p9c7f175c92)" style="fill: none; stroke: #000000; stroke-width: 0.7; stroke-linejoin: miter"/>
   </g>
   <g id="matplotlib.axis_49">
    <g id="xtick_127"/>
    <g id="xtick_128"/>
    <g id="xtick_129"/>
    <g id="xtick_130"/>
    <g id="xtick_131"/>
    <g id="xtick_132"/>
    <g id="xtick_133"/>
    <g id="xtick_134"/>
   </g>
   <g id="matplotlib.axis_50">
    <g id="ytick_49"/>
    <g id="ytick_50"/>
   </g>
   <g id="text_30">
    <!-- X -->
    <g style="fill: #262626" transform="translate(258.191783 628.889089) scale(0.07 -0.07)">
     <defs>
      <path id="Arial-BoldMT-58" d="M 0 0 
L 1566 2391 
L 147 4581 
L 1228 4581 
L 2147 3109 
L 3047 4581 
L 4119 4581 
L 2694 2356 
L 4259 0 
L 3144 0 
L 2128 1584 
L 1109 0 
L 0 0 
z
" transform="scale(0.015625)"/>
     </defs>
     <use xlink:href="#Arial-BoldMT-58"/>
    </g>
   </g>
  </g>
  <g id="axes_26">
   <g id="patch_124">
    <path d="M 266.726502 667.9766 
L 689.631766 667.9766 
L 689.631766 640.730446 
L 266.726502 640.730446 
z
" style="fill: #ffffff"/>
   </g>
   <g id="patch_125">
    <path d="M 267.532301 657.045327 
L 267.532301 657.045327 
L 267.532301 651.596097 
L 267.532301 651.596097 
z
" clip-path="url(#p2f389152e6)" style="fill: #ebeaea"/>
   </g>
   <g id="patch_126">
    <path d="M 267.532301 657.045327 
L 338.289177 657.045327 
L 338.289177 651.596097 
L 267.532301 651.596097 
z
" clip-path="url(#p2f389152e6)" style="fill: #ebeaea"/>
   </g>
   <g id="patch_127">
    <path d="M 267.532301 657.045327 
L 267.532301 657.045327 
L 267.532301 651.596097 
L 267.532301 651.596097 
L 267.532301 657.045327 
z
" clip-path="url(#p2f389152e6)" style="fill: none; stroke: #000000; stroke-width: 0.7; stroke-linejoin: miter"/>
   </g>
   <g id="patch_128">
    <path d="M 267.532301 657.045327 
L 338.289177 657.045327 
L 338.289177 651.596097 
L 267.532301 651.596097 
L 267.532301 657.045327 
z
" clip-path="url(#p2f389152e6)" style="fill: none; stroke: #000000; stroke-width: 0.7; stroke-linejoin: miter"/>
   </g>
   <g id="matplotlib.axis_51">
    <g id="xtick_135">
     <g id="line2d_6">
      <defs>
       <path id="m51ae365d41" d="M 0 0 
L 0 3.84 
" style="stroke: #262626; stroke-width: 0.8"/>
      </defs>
      <g>
       <use xlink:href="#m51ae365d41" x="267.532301" y="667.9766" style="fill: #262626; stroke: #262626; stroke-width: 0.8"/>
      </g>
     </g>
     <g id="text_31">
      <!-- 0.0 -->
      <g style="fill: #262626" transform="translate(262.639501 680.3557) scale(0.0704 -0.0704)">
       <use xlink:href="#ArialMT-30"/>
       <use xlink:href="#ArialMT-2e" transform="translate(55.615234 0)"/>
       <use xlink:href="#ArialMT-30" transform="translate(83.398438 0)"/>
      </g>
     </g>
    </g>
    <g id="xtick_136">
     <g id="line2d_7">
      <g>
       <use xlink:href="#m51ae365d41" x="321.252244" y="667.9766" style="fill: #262626; stroke: #262626; stroke-width: 0.8"/>
      </g>
     </g>
     <g id="text_32">
      <!-- 0.2 -->
      <g style="fill: #262626" transform="translate(316.359444 680.3557) scale(0.0704 -0.0704)">
       <use xlink:href="#ArialMT-30"/>
       <use xlink:href="#ArialMT-2e" transform="translate(55.615234 0)"/>
       <use xlink:href="#ArialMT-32" transform="translate(83.398438 0)"/>
      </g>
     </g>
    </g>
    <g id="xtick_137">
     <g id="line2d_8">
      <g>
       <use xlink:href="#m51ae365d41" x="374.972187" y="667.9766" style="fill: #262626; stroke: #262626; stroke-width: 0.8"/>
      </g>
     </g>
     <g id="text_33">
      <!-- 0.4 -->
      <g style="fill: #262626" transform="translate(370.079387 680.3557) scale(0.0704 -0.0704)">
       <defs>
        <path id="ArialMT-34" d="M 2069 0 
L 2069 1097 
L 81 1097 
L 81 1613 
L 2172 4581 
L 2631 4581 
L 2631 1613 
L 3250 1613 
L 3250 1097 
L 2631 1097 
L 2631 0 
L 2069 0 
z
M 2069 1613 
L 2069 3678 
L 634 1613 
L 2069 1613 
z
" transform="scale(0.015625)"/>
       </defs>
       <use xlink:href="#ArialMT-30"/>
       <use xlink:href="#ArialMT-2e" transform="translate(55.615234 0)"/>
       <use xlink:href="#ArialMT-34" transform="translate(83.398438 0)"/>
      </g>
     </g>
    </g>
    <g id="xtick_138">
     <g id="line2d_9">
      <g>
       <use xlink:href="#m51ae365d41" x="428.692129" y="667.9766" style="fill: #262626; stroke: #262626; stroke-width: 0.8"/>
      </g>
     </g>
     <g id="text_34">
      <!-- 0.6 -->
      <g style="fill: #262626" transform="translate(423.799329 680.3557) scale(0.0704 -0.0704)">
       <defs>
        <path id="ArialMT-36" d="M 3184 3459 
L 2625 3416 
Q 2550 3747 2413 3897 
Q 2184 4138 1850 4138 
Q 1581 4138 1378 3988 
Q 1113 3794 959 3422 
Q 806 3050 800 2363 
Q 1003 2672 1297 2822 
Q 1591 2972 1913 2972 
Q 2475 2972 2870 2558 
Q 3266 2144 3266 1488 
Q 3266 1056 3080 686 
Q 2894 316 2569 119 
Q 2244 -78 1831 -78 
Q 1128 -78 684 439 
Q 241 956 241 2144 
Q 241 3472 731 4075 
Q 1159 4600 1884 4600 
Q 2425 4600 2770 4297 
Q 3116 3994 3184 3459 
z
M 888 1484 
Q 888 1194 1011 928 
Q 1134 663 1356 523 
Q 1578 384 1822 384 
Q 2178 384 2434 671 
Q 2691 959 2691 1453 
Q 2691 1928 2437 2201 
Q 2184 2475 1800 2475 
Q 1419 2475 1153 2201 
Q 888 1928 888 1484 
z
" transform="scale(0.015625)"/>
       </defs>
       <use xlink:href="#ArialMT-30"/>
       <use xlink:href="#ArialMT-2e" transform="translate(55.615234 0)"/>
       <use xlink:href="#ArialMT-36" transform="translate(83.398438 0)"/>
      </g>
     </g>
    </g>
    <g id="xtick_139">
     <g id="line2d_10">
      <g>
       <use xlink:href="#m51ae365d41" x="482.412072" y="667.9766" style="fill: #262626; stroke: #262626; stroke-width: 0.8"/>
      </g>
     </g>
     <g id="text_35">
      <!-- 0.8 -->
      <g style="fill: #262626" transform="translate(477.519272 680.3557) scale(0.0704 -0.0704)">
       <use xlink:href="#ArialMT-30"/>
       <use xlink:href="#ArialMT-2e" transform="translate(55.615234 0)"/>
       <use xlink:href="#ArialMT-38" transform="translate(83.398438 0)"/>
      </g>
     </g>
    </g>
    <g id="xtick_140">
     <g id="line2d_11">
      <g>
       <use xlink:href="#m51ae365d41" x="536.132015" y="667.9766" style="fill: #262626; stroke: #262626; stroke-width: 0.8"/>
      </g>
     </g>
     <g id="text_36">
      <!-- 1.0 -->
      <g style="fill: #262626" transform="translate(531.239215 680.3557) scale(0.0704 -0.0704)">
       <use xlink:href="#ArialMT-31"/>
       <use xlink:href="#ArialMT-2e" transform="translate(55.615234 0)"/>
       <use xlink:href="#ArialMT-30" transform="translate(83.398438 0)"/>
      </g>
     </g>
    </g>
    <g id="xtick_141">
     <g id="line2d_12">
      <g>
       <use xlink:href="#m51ae365d41" x="589.851957" y="667.9766" style="fill: #262626; stroke: #262626; stroke-width: 0.8"/>
      </g>
     </g>
     <g id="text_37">
      <!-- 1.2 -->
      <g style="fill: #262626" transform="translate(584.959157 680.3557) scale(0.0704 -0.0704)">
       <use xlink:href="#ArialMT-31"/>
       <use xlink:href="#ArialMT-2e" transform="translate(55.615234 0)"/>
       <use xlink:href="#ArialMT-32" transform="translate(83.398438 0)"/>
      </g>
     </g>
    </g>
    <g id="xtick_142">
     <g id="line2d_13">
      <g>
       <use xlink:href="#m51ae365d41" x="643.5719" y="667.9766" style="fill: #262626; stroke: #262626; stroke-width: 0.8"/>
      </g>
     </g>
     <g id="text_38">
      <!-- 1.4 -->
      <g style="fill: #262626" transform="translate(638.6791 680.3557) scale(0.0704 -0.0704)">
       <use xlink:href="#ArialMT-31"/>
       <use xlink:href="#ArialMT-2e" transform="translate(55.615234 0)"/>
       <use xlink:href="#ArialMT-34" transform="translate(83.398438 0)"/>
      </g>
     </g>
    </g>
    <g id="text_39">
     <!-- 1e8 -->
     <g style="fill: #262626" transform="translate(677.887066 689.794) scale(0.0704 -0.0704)">
      <use xlink:href="#ArialMT-31"/>
      <use xlink:href="#ArialMT-65" transform="translate(55.615234 0)"/>
      <use xlink:href="#ArialMT-38" transform="translate(111.230469 0)"/>
     </g>
    </g>
   </g>
   <g id="patch_129">
    <path d="M 266.726502 667.9766 
L 689.631766 667.9766 
" style="fill: none; stroke: #262626; stroke-width: 0.8; stroke-linejoin: miter; stroke-linecap: square"/>
   </g>
   <g id="text_40">
    <!-- Y -->
    <g style="fill: #262626" transform="translate(258.191783 656.135243) scale(0.07 -0.07)">
     <defs>
      <path id="Arial-BoldMT-59" d="M 1669 0 
L 1669 1928 
L -9 4581 
L 1075 4581 
L 2153 2769 
L 3209 4581 
L 4275 4581 
L 2591 1922 
L 2591 0 
L 1669 0 
z
" transform="scale(0.015625)"/>
     </defs>
     <use xlink:href="#Arial-BoldMT-59"/>
    </g>
   </g>
  </g>
 </g>
 <defs>
  <clipPath id="pf6c3bb78ac">
   <rect x="20.031766" y="41.315062" width="669.6" height="27.246154"/>
  </clipPath>
  <clipPath id="p9325debc50">
   <rect x="20.031766" y="68.561215" width="669.6" height="27.246154"/>
  </clipPath>
  <clipPath id="p313d940f18">
   <rect x="20.031766" y="95.807369" width="669.6" height="27.246154"/>
  </clipPath>
  <clipPath id="pe111c307e7">
   <rect x="20.031766" y="123.053523" width="669.6" height="27.246154"/>
  </clipPath>
  <clipPath id="p78bc0aa245">
   <rect x="20.031766" y="150.299677" width="669.6" height="27.246154"/>
  </clipPath>
  <clipPath id="p75fe984d66">
   <rect x="20.031766" y="177.545831" width="669.6" height="27.246154"/>
  </clipPath>
  <clipPath id="pb5f907cb2a">
   <rect x="20.031766" y="204.791985" width="669.6" height="27.246154"/>
  </clipPath>
  <clipPath id="pb58113f388">
   <rect x="20.031766" y="232.038138" width="669.6" height="27.246154"/>
  </clipPath>
  <clipPath id="pb5902a4d50">
   <rect x="20.031766" y="259.284292" width="669.6" height="27.246154"/>
  </clipPath>
  <clipPath id="pdb77df4fc8">
   <rect x="20.031766" y="286.530446" width="669.6" height="27.246154"/>
  </clipPath>
  <clipPath id="pedb4159ca4">
   <rect x="20.031766" y="313.7766" width="669.6" height="27.246154"/>
  </clipPath>
  <clipPath id="p8126b53973">
   <rect x="20.031766" y="341.022754" width="669.6" height="27.246154"/>
  </clipPath>
  <clipPath id="p5ada57571a">
   <rect x="20.031766" y="368.268908" width="669.6" height="27.246154"/>
  </clipPath>
  <clipPath id="pfbc509feac">
   <rect x="20.031766" y="395.515062" width="669.6" height="27.246154"/>
  </clipPath>
  <clipPath id="pe4dc8c0c75">
   <rect x="20.031766" y="422.761215" width="669.6" height="27.246154"/>
  </clipPath>
  <clipPath id="p134ead87d9">
   <rect x="20.031766" y="450.007369" width="669.6" height="27.246154"/>
  </clipPath>
  <clipPath id="p66c4083d18">
   <rect x="20.031766" y="477.253523" width="669.6" height="27.246154"/>
  </clipPath>
  <clipPath id="pad83f18667">
   <rect x="20.031766" y="504.499677" width="669.6" height="27.246154"/>
  </clipPath>
  <clipPath id="p90c50e43b2">
   <rect x="20.031766" y="531.745831" width="669.6" height="27.246154"/>
  </clipPath>
  <clipPath id="pa29ff845f1">
   <rect x="20.031766" y="558.991985" width="669.6" height="27.246154"/>
  </clipPath>
  <clipPath id="pd26ac21945">
   <rect x="20.031766" y="586.238138" width="669.6" height="27.246154"/>
  </clipPath>
  <clipPath id="p861462a5b9">
   <rect x="20.031766" y="613.484292" width="422.905263" height="27.246154"/>
  </clipPath>
  <clipPath id="p65c56c97c8">
   <rect x="20.031766" y="640.730446" width="422.905263" height="27.246154"/>
  </clipPath>
  <clipPath id="p9c7f175c92">
   <rect x="266.726502" y="613.484292" width="422.905263" height="27.246154"/>
  </clipPath>
  <clipPath id="p2f389152e6">
   <rect x="266.726502" y="640.730446" width="422.905263" height="27.246154"/>
  </clipPath>
 </defs>
</svg>
