<?xml version="1.0" encoding="utf-8" standalone="no"?>
<!DOCTYPE svg PUBLIC "-//W3C//DTD SVG 1.1//EN"
  "http://www.w3.org/Graphics/SVG/1.1/DTD/svg11.dtd">
<svg xmlns:xlink="http://www.w3.org/1999/xlink" width="687.610376pt" height="292.6406pt" viewBox="0 0 687.610376 292.6406" xmlns="http://www.w3.org/2000/svg" version="1.1">
 <metadata>
  <rdf:RDF xmlns:dc="http://purl.org/dc/elements/1.1/" xmlns:cc="http://creativecommons.org/ns#" xmlns:rdf="http://www.w3.org/1999/02/22-rdf-syntax-ns#">
   <cc:Work>
    <dc:type rdf:resource="http://purl.org/dc/dcmitype/StillImage"/>
    <dc:date>2025-05-28T02:50:24.058123</dc:date>
    <dc:format>image/svg+xml</dc:format>
    <dc:creator>
     <cc:Agent>
      <dc:title>Matplotlib v3.10.3, https://matplotlib.org/</dc:title>
     </cc:Agent>
    </dc:creator>
   </cc:Work>
  </rdf:RDF>
 </metadata>
 <defs>
  <style type="text/css">*{stroke-linejoin: round; stroke-linecap: butt}</style>
 </defs>
 <g id="figure_1">
  <g id="patch_1">
   <path d="M 0 292.6406 
L 687.610376 292.6406 
L 687.610376 0 
L 0 0 
z
" style="fill: #ffffff"/>
  </g>
  <g id="axes_1">
   <g id="patch_2">
    <path d="M 10.810376 118.08 
L 680.410376 118.08 
L 680.410376 7.2 
L 10.810376 7.2 
z
" style="fill: #ffffff"/>
   </g>
   <g id="patch_3">
    <path d="M 12.0928 95.691642 
L 260.455528 95.691642 
L 260.455528 73.515642 
L 12.0928 73.515642 
z
" clip-path="url(#p9a7ed23187)" style="fill: #ebeaea"/>
   </g>
   <g id="patch_4">
    <path d="M 284.821579 95.691642 
L 679.127953 95.691642 
L 679.127953 73.515642 
L 284.821579 73.515642 
z
" clip-path="url(#p9a7ed23187)" style="fill: #ebeaea"/>
   </g>
   <g id="patch_5">
    <path d="M 12.0928 95.691642 
L 260.455528 95.691642 
L 260.455528 73.515642 
L 12.0928 73.515642 
L 12.0928 95.691642 
z
" clip-path="url(#p9a7ed23187)" style="fill: none; stroke: #000000; stroke-width: 0.7; stroke-linejoin: miter"/>
   </g>
   <g id="patch_6">
    <path d="M 284.821579 95.691642 
L 679.127953 95.691642 
L 679.127953 73.515642 
L 284.821579 73.515642 
L 284.821579 95.691642 
z
" clip-path="url(#p9a7ed23187)" style="fill: none; stroke: #000000; stroke-width: 0.7; stroke-linejoin: miter"/>
   </g>
   <g id="matplotlib.axis_1">
    <g id="xtick_1">
     <g id="line2d_1">
      <defs>
       <path id="m709694b1b7" d="M 0 0 
L 0 3.84 
" style="stroke: #262626; stroke-width: 0.8"/>
      </defs>
      <g>
       <use xlink:href="#m709694b1b7" x="12.0928" y="118.08" style="fill: #262626; stroke: #262626; stroke-width: 0.8"/>
      </g>
     </g>
     <g id="text_1">
      <!-- 0.0 -->
      <g style="fill: #262626" transform="translate(7.2 130.4591) scale(0.0704 -0.0704)">
       <defs>
        <path id="ArialMT-30" d="M 266 2259 
Q 266 3072 433 3567 
Q 600 4063 929 4331 
Q 1259 4600 1759 4600 
Q 2128 4600 2406 4451 
Q 2684 4303 2865 4023 
Q 3047 3744 3150 3342 
Q 3253 2941 3253 2259 
Q 3253 1453 3087 958 
Q 2922 463 2592 192 
Q 2263 -78 1759 -78 
Q 1097 -78 719 397 
Q 266 969 266 2259 
z
M 844 2259 
Q 844 1131 1108 757 
Q 1372 384 1759 384 
Q 2147 384 2411 759 
Q 2675 1134 2675 2259 
Q 2675 3391 2411 3762 
Q 2147 4134 1753 4134 
Q 1366 4134 1134 3806 
Q 844 3388 844 2259 
z
" transform="scale(0.015625)"/>
        <path id="ArialMT-2e" d="M 581 0 
L 581 641 
L 1222 641 
L 1222 0 
L 581 0 
z
" transform="scale(0.015625)"/>
       </defs>
       <use xlink:href="#ArialMT-30"/>
       <use xlink:href="#ArialMT-2e" transform="translate(55.615234 0)"/>
       <use xlink:href="#ArialMT-30" transform="translate(83.398438 0)"/>
      </g>
     </g>
    </g>
    <g id="xtick_2">
     <g id="line2d_2">
      <g>
       <use xlink:href="#m709694b1b7" x="54.840257" y="118.08" style="fill: #262626; stroke: #262626; stroke-width: 0.8"/>
      </g>
     </g>
     <g id="text_2">
      <!-- 0.1 -->
      <g style="fill: #262626" transform="translate(49.947457 130.4591) scale(0.0704 -0.0704)">
       <defs>
        <path id="ArialMT-31" d="M 2384 0 
L 1822 0 
L 1822 3584 
Q 1619 3391 1289 3197 
Q 959 3003 697 2906 
L 697 3450 
Q 1169 3672 1522 3987 
Q 1875 4303 2022 4600 
L 2384 4600 
L 2384 0 
z
" transform="scale(0.015625)"/>
       </defs>
       <use xlink:href="#ArialMT-30"/>
       <use xlink:href="#ArialMT-2e" transform="translate(55.615234 0)"/>
       <use xlink:href="#ArialMT-31" transform="translate(83.398438 0)"/>
      </g>
     </g>
    </g>
    <g id="xtick_3">
     <g id="line2d_3">
      <g>
       <use xlink:href="#m709694b1b7" x="97.587715" y="118.08" style="fill: #262626; stroke: #262626; stroke-width: 0.8"/>
      </g>
     </g>
     <g id="text_3">
      <!-- 0.2 -->
      <g style="fill: #262626" transform="translate(92.694915 130.4591) scale(0.0704 -0.0704)">
       <defs>
        <path id="ArialMT-32" d="M 3222 541 
L 3222 0 
L 194 0 
Q 188 203 259 391 
Q 375 700 629 1000 
Q 884 1300 1366 1694 
Q 2113 2306 2375 2664 
Q 2638 3022 2638 3341 
Q 2638 3675 2398 3904 
Q 2159 4134 1775 4134 
Q 1369 4134 1125 3890 
Q 881 3647 878 3216 
L 300 3275 
Q 359 3922 746 4261 
Q 1134 4600 1788 4600 
Q 2447 4600 2831 4234 
Q 3216 3869 3216 3328 
Q 3216 3053 3103 2787 
Q 2991 2522 2730 2228 
Q 2469 1934 1863 1422 
Q 1356 997 1212 845 
Q 1069 694 975 541 
L 3222 541 
z
" transform="scale(0.015625)"/>
       </defs>
       <use xlink:href="#ArialMT-30"/>
       <use xlink:href="#ArialMT-2e" transform="translate(55.615234 0)"/>
       <use xlink:href="#ArialMT-32" transform="translate(83.398438 0)"/>
      </g>
     </g>
    </g>
    <g id="xtick_4">
     <g id="line2d_4">
      <g>
       <use xlink:href="#m709694b1b7" x="140.335172" y="118.08" style="fill: #262626; stroke: #262626; stroke-width: 0.8"/>
      </g>
     </g>
     <g id="text_4">
      <!-- 0.3 -->
      <g style="fill: #262626" transform="translate(135.442372 130.4591) scale(0.0704 -0.0704)">
       <defs>
        <path id="ArialMT-33" d="M 269 1209 
L 831 1284 
Q 928 806 1161 595 
Q 1394 384 1728 384 
Q 2125 384 2398 659 
Q 2672 934 2672 1341 
Q 2672 1728 2419 1979 
Q 2166 2231 1775 2231 
Q 1616 2231 1378 2169 
L 1441 2663 
Q 1497 2656 1531 2656 
Q 1891 2656 2178 2843 
Q 2466 3031 2466 3422 
Q 2466 3731 2256 3934 
Q 2047 4138 1716 4138 
Q 1388 4138 1169 3931 
Q 950 3725 888 3313 
L 325 3413 
Q 428 3978 793 4289 
Q 1159 4600 1703 4600 
Q 2078 4600 2393 4439 
Q 2709 4278 2876 4000 
Q 3044 3722 3044 3409 
Q 3044 3113 2884 2869 
Q 2725 2625 2413 2481 
Q 2819 2388 3044 2092 
Q 3269 1797 3269 1353 
Q 3269 753 2831 336 
Q 2394 -81 1725 -81 
Q 1122 -81 723 278 
Q 325 638 269 1209 
z
" transform="scale(0.015625)"/>
       </defs>
       <use xlink:href="#ArialMT-30"/>
       <use xlink:href="#ArialMT-2e" transform="translate(55.615234 0)"/>
       <use xlink:href="#ArialMT-33" transform="translate(83.398438 0)"/>
      </g>
     </g>
    </g>
    <g id="xtick_5">
     <g id="line2d_5">
      <g>
       <use xlink:href="#m709694b1b7" x="183.08263" y="118.08" style="fill: #262626; stroke: #262626; stroke-width: 0.8"/>
      </g>
     </g>
     <g id="text_5">
      <!-- 0.4 -->
      <g style="fill: #262626" transform="translate(178.18983 130.4591) scale(0.0704 -0.0704)">
       <defs>
        <path id="ArialMT-34" d="M 2069 0 
L 2069 1097 
L 81 1097 
L 81 1613 
L 2172 4581 
L 2631 4581 
L 2631 1613 
L 3250 1613 
L 3250 1097 
L 2631 1097 
L 2631 0 
L 2069 0 
z
M 2069 1613 
L 2069 3678 
L 634 1613 
L 2069 1613 
z
" transform="scale(0.015625)"/>
       </defs>
       <use xlink:href="#ArialMT-30"/>
       <use xlink:href="#ArialMT-2e" transform="translate(55.615234 0)"/>
       <use xlink:href="#ArialMT-34" transform="translate(83.398438 0)"/>
      </g>
     </g>
    </g>
    <g id="xtick_6">
     <g id="line2d_6">
      <g>
       <use xlink:href="#m709694b1b7" x="225.830087" y="118.08" style="fill: #262626; stroke: #262626; stroke-width: 0.8"/>
      </g>
     </g>
     <g id="text_6">
      <!-- 0.5 -->
      <g style="fill: #262626" transform="translate(220.937287 130.4591) scale(0.0704 -0.0704)">
       <defs>
        <path id="ArialMT-35" d="M 266 1200 
L 856 1250 
Q 922 819 1161 601 
Q 1400 384 1738 384 
Q 2144 384 2425 690 
Q 2706 997 2706 1503 
Q 2706 1984 2436 2262 
Q 2166 2541 1728 2541 
Q 1456 2541 1237 2417 
Q 1019 2294 894 2097 
L 366 2166 
L 809 4519 
L 3088 4519 
L 3088 3981 
L 1259 3981 
L 1013 2750 
Q 1425 3038 1878 3038 
Q 2478 3038 2890 2622 
Q 3303 2206 3303 1553 
Q 3303 931 2941 478 
Q 2500 -78 1738 -78 
Q 1113 -78 717 272 
Q 322 622 266 1200 
z
" transform="scale(0.015625)"/>
       </defs>
       <use xlink:href="#ArialMT-30"/>
       <use xlink:href="#ArialMT-2e" transform="translate(55.615234 0)"/>
       <use xlink:href="#ArialMT-35" transform="translate(83.398438 0)"/>
      </g>
     </g>
    </g>
    <g id="xtick_7">
     <g id="line2d_7">
      <g>
       <use xlink:href="#m709694b1b7" x="268.577545" y="118.08" style="fill: #262626; stroke: #262626; stroke-width: 0.8"/>
      </g>
     </g>
     <g id="text_7">
      <!-- 0.6 -->
      <g style="fill: #262626" transform="translate(263.684745 130.4591) scale(0.0704 -0.0704)">
       <defs>
        <path id="ArialMT-36" d="M 3184 3459 
L 2625 3416 
Q 2550 3747 2413 3897 
Q 2184 4138 1850 4138 
Q 1581 4138 1378 3988 
Q 1113 3794 959 3422 
Q 806 3050 800 2363 
Q 1003 2672 1297 2822 
Q 1591 2972 1913 2972 
Q 2475 2972 2870 2558 
Q 3266 2144 3266 1488 
Q 3266 1056 3080 686 
Q 2894 316 2569 119 
Q 2244 -78 1831 -78 
Q 1128 -78 684 439 
Q 241 956 241 2144 
Q 241 3472 731 4075 
Q 1159 4600 1884 4600 
Q 2425 4600 2770 4297 
Q 3116 3994 3184 3459 
z
M 888 1484 
Q 888 1194 1011 928 
Q 1134 663 1356 523 
Q 1578 384 1822 384 
Q 2178 384 2434 671 
Q 2691 959 2691 1453 
Q 2691 1928 2437 2201 
Q 2184 2475 1800 2475 
Q 1419 2475 1153 2201 
Q 888 1928 888 1484 
z
" transform="scale(0.015625)"/>
       </defs>
       <use xlink:href="#ArialMT-30"/>
       <use xlink:href="#ArialMT-2e" transform="translate(55.615234 0)"/>
       <use xlink:href="#ArialMT-36" transform="translate(83.398438 0)"/>
      </g>
     </g>
    </g>
    <g id="xtick_8">
     <g id="line2d_8">
      <g>
       <use xlink:href="#m709694b1b7" x="311.325002" y="118.08" style="fill: #262626; stroke: #262626; stroke-width: 0.8"/>
      </g>
     </g>
     <g id="text_8">
      <!-- 0.7 -->
      <g style="fill: #262626" transform="translate(306.432202 130.4591) scale(0.0704 -0.0704)">
       <defs>
        <path id="ArialMT-37" d="M 303 3981 
L 303 4522 
L 3269 4522 
L 3269 4084 
Q 2831 3619 2401 2847 
Q 1972 2075 1738 1259 
Q 1569 684 1522 0 
L 944 0 
Q 953 541 1156 1306 
Q 1359 2072 1739 2783 
Q 2119 3494 2547 3981 
L 303 3981 
z
" transform="scale(0.015625)"/>
       </defs>
       <use xlink:href="#ArialMT-30"/>
       <use xlink:href="#ArialMT-2e" transform="translate(55.615234 0)"/>
       <use xlink:href="#ArialMT-37" transform="translate(83.398438 0)"/>
      </g>
     </g>
    </g>
    <g id="xtick_9">
     <g id="line2d_9">
      <g>
       <use xlink:href="#m709694b1b7" x="354.07246" y="118.08" style="fill: #262626; stroke: #262626; stroke-width: 0.8"/>
      </g>
     </g>
     <g id="text_9">
      <!-- 0.8 -->
      <g style="fill: #262626" transform="translate(349.17966 130.4591) scale(0.0704 -0.0704)">
       <defs>
        <path id="ArialMT-38" d="M 1131 2484 
Q 781 2613 612 2850 
Q 444 3088 444 3419 
Q 444 3919 803 4259 
Q 1163 4600 1759 4600 
Q 2359 4600 2725 4251 
Q 3091 3903 3091 3403 
Q 3091 3084 2923 2848 
Q 2756 2613 2416 2484 
Q 2838 2347 3058 2040 
Q 3278 1734 3278 1309 
Q 3278 722 2862 322 
Q 2447 -78 1769 -78 
Q 1091 -78 675 323 
Q 259 725 259 1325 
Q 259 1772 486 2073 
Q 713 2375 1131 2484 
z
M 1019 3438 
Q 1019 3113 1228 2906 
Q 1438 2700 1772 2700 
Q 2097 2700 2305 2904 
Q 2513 3109 2513 3406 
Q 2513 3716 2298 3927 
Q 2084 4138 1766 4138 
Q 1444 4138 1231 3931 
Q 1019 3725 1019 3438 
z
M 838 1322 
Q 838 1081 952 856 
Q 1066 631 1291 507 
Q 1516 384 1775 384 
Q 2178 384 2440 643 
Q 2703 903 2703 1303 
Q 2703 1709 2433 1975 
Q 2163 2241 1756 2241 
Q 1359 2241 1098 1978 
Q 838 1716 838 1322 
z
" transform="scale(0.015625)"/>
       </defs>
       <use xlink:href="#ArialMT-30"/>
       <use xlink:href="#ArialMT-2e" transform="translate(55.615234 0)"/>
       <use xlink:href="#ArialMT-38" transform="translate(83.398438 0)"/>
      </g>
     </g>
    </g>
    <g id="xtick_10">
     <g id="line2d_10">
      <g>
       <use xlink:href="#m709694b1b7" x="396.819917" y="118.08" style="fill: #262626; stroke: #262626; stroke-width: 0.8"/>
      </g>
     </g>
     <g id="text_10">
      <!-- 0.9 -->
      <g style="fill: #262626" transform="translate(391.927117 130.4591) scale(0.0704 -0.0704)">
       <defs>
        <path id="ArialMT-39" d="M 350 1059 
L 891 1109 
Q 959 728 1153 556 
Q 1347 384 1650 384 
Q 1909 384 2104 503 
Q 2300 622 2425 820 
Q 2550 1019 2634 1356 
Q 2719 1694 2719 2044 
Q 2719 2081 2716 2156 
Q 2547 1888 2255 1720 
Q 1963 1553 1622 1553 
Q 1053 1553 659 1965 
Q 266 2378 266 3053 
Q 266 3750 677 4175 
Q 1088 4600 1706 4600 
Q 2153 4600 2523 4359 
Q 2894 4119 3086 3673 
Q 3278 3228 3278 2384 
Q 3278 1506 3087 986 
Q 2897 466 2520 194 
Q 2144 -78 1638 -78 
Q 1100 -78 759 220 
Q 419 519 350 1059 
z
M 2653 3081 
Q 2653 3566 2395 3850 
Q 2138 4134 1775 4134 
Q 1400 4134 1122 3828 
Q 844 3522 844 3034 
Q 844 2597 1108 2323 
Q 1372 2050 1759 2050 
Q 2150 2050 2401 2323 
Q 2653 2597 2653 3081 
z
" transform="scale(0.015625)"/>
       </defs>
       <use xlink:href="#ArialMT-30"/>
       <use xlink:href="#ArialMT-2e" transform="translate(55.615234 0)"/>
       <use xlink:href="#ArialMT-39" transform="translate(83.398438 0)"/>
      </g>
     </g>
    </g>
    <g id="xtick_11">
     <g id="line2d_11">
      <g>
       <use xlink:href="#m709694b1b7" x="439.567375" y="118.08" style="fill: #262626; stroke: #262626; stroke-width: 0.8"/>
      </g>
     </g>
     <g id="text_11">
      <!-- 1.0 -->
      <g style="fill: #262626" transform="translate(434.674575 130.4591) scale(0.0704 -0.0704)">
       <use xlink:href="#ArialMT-31"/>
       <use xlink:href="#ArialMT-2e" transform="translate(55.615234 0)"/>
       <use xlink:href="#ArialMT-30" transform="translate(83.398438 0)"/>
      </g>
     </g>
    </g>
    <g id="xtick_12">
     <g id="line2d_12">
      <g>
       <use xlink:href="#m709694b1b7" x="482.314832" y="118.08" style="fill: #262626; stroke: #262626; stroke-width: 0.8"/>
      </g>
     </g>
     <g id="text_12">
      <!-- 1.1 -->
      <g style="fill: #262626" transform="translate(477.422032 130.4591) scale(0.0704 -0.0704)">
       <use xlink:href="#ArialMT-31"/>
       <use xlink:href="#ArialMT-2e" transform="translate(55.615234 0)"/>
       <use xlink:href="#ArialMT-31" transform="translate(83.398438 0)"/>
      </g>
     </g>
    </g>
    <g id="xtick_13">
     <g id="line2d_13">
      <g>
       <use xlink:href="#m709694b1b7" x="525.06229" y="118.08" style="fill: #262626; stroke: #262626; stroke-width: 0.8"/>
      </g>
     </g>
     <g id="text_13">
      <!-- 1.2 -->
      <g style="fill: #262626" transform="translate(520.16949 130.4591) scale(0.0704 -0.0704)">
       <use xlink:href="#ArialMT-31"/>
       <use xlink:href="#ArialMT-2e" transform="translate(55.615234 0)"/>
       <use xlink:href="#ArialMT-32" transform="translate(83.398438 0)"/>
      </g>
     </g>
    </g>
    <g id="xtick_14">
     <g id="line2d_14">
      <g>
       <use xlink:href="#m709694b1b7" x="567.809747" y="118.08" style="fill: #262626; stroke: #262626; stroke-width: 0.8"/>
      </g>
     </g>
     <g id="text_14">
      <!-- 1.3 -->
      <g style="fill: #262626" transform="translate(562.916947 130.4591) scale(0.0704 -0.0704)">
       <use xlink:href="#ArialMT-31"/>
       <use xlink:href="#ArialMT-2e" transform="translate(55.615234 0)"/>
       <use xlink:href="#ArialMT-33" transform="translate(83.398438 0)"/>
      </g>
     </g>
    </g>
    <g id="xtick_15">
     <g id="line2d_15">
      <g>
       <use xlink:href="#m709694b1b7" x="610.557205" y="118.08" style="fill: #262626; stroke: #262626; stroke-width: 0.8"/>
      </g>
     </g>
     <g id="text_15">
      <!-- 1.4 -->
      <g style="fill: #262626" transform="translate(605.664405 130.4591) scale(0.0704 -0.0704)">
       <use xlink:href="#ArialMT-31"/>
       <use xlink:href="#ArialMT-2e" transform="translate(55.615234 0)"/>
       <use xlink:href="#ArialMT-34" transform="translate(83.398438 0)"/>
      </g>
     </g>
    </g>
    <g id="xtick_16">
     <g id="line2d_16">
      <g>
       <use xlink:href="#m709694b1b7" x="653.304662" y="118.08" style="fill: #262626; stroke: #262626; stroke-width: 0.8"/>
      </g>
     </g>
     <g id="text_16">
      <!-- 1.5 -->
      <g style="fill: #262626" transform="translate(648.411862 130.4591) scale(0.0704 -0.0704)">
       <use xlink:href="#ArialMT-31"/>
       <use xlink:href="#ArialMT-2e" transform="translate(55.615234 0)"/>
       <use xlink:href="#ArialMT-35" transform="translate(83.398438 0)"/>
      </g>
     </g>
    </g>
    <g id="text_17">
     <!-- 1e8 -->
     <g style="fill: #262626" transform="translate(668.665676 139.8974) scale(0.0704 -0.0704)">
      <defs>
       <path id="ArialMT-65" d="M 2694 1069 
L 3275 997 
Q 3138 488 2766 206 
Q 2394 -75 1816 -75 
Q 1088 -75 661 373 
Q 234 822 234 1631 
Q 234 2469 665 2931 
Q 1097 3394 1784 3394 
Q 2450 3394 2872 2941 
Q 3294 2488 3294 1666 
Q 3294 1616 3291 1516 
L 816 1516 
Q 847 969 1125 678 
Q 1403 388 1819 388 
Q 2128 388 2347 550 
Q 2566 713 2694 1069 
z
M 847 1978 
L 2700 1978 
Q 2663 2397 2488 2606 
Q 2219 2931 1791 2931 
Q 1403 2931 1139 2672 
Q 875 2413 847 1978 
z
" transform="scale(0.015625)"/>
      </defs>
      <use xlink:href="#ArialMT-31"/>
      <use xlink:href="#ArialMT-65" transform="translate(55.615234 0)"/>
      <use xlink:href="#ArialMT-38" transform="translate(111.230469 0)"/>
     </g>
    </g>
   </g>
   <g id="patch_7">
    <path d="M 76.213986 118.08 
L 118.961444 118.08 
L 118.961444 7.2 
L 76.213986 7.2 
z
" clip-path="url(#p9a7ed23187)" style="fill: #d3d3d3; opacity: 0.3; stroke: #000000; stroke-width: 0.5; stroke-linejoin: miter"/>
   </g>
   <g id="patch_8">
    <path d="M 10.810376 151.344 
L 76.213986 118.08 
" style="fill: none; stroke: #ffffff; stroke-width: 0.64; stroke-linejoin: miter"/>
   </g>
   <g id="patch_9">
    <path d="M 265.896091 151.344 
L 118.961444 118.08 
" style="fill: none; stroke: #ffffff; stroke-width: 0.64; stroke-linejoin: miter"/>
   </g>
   <g id="patch_10">
    <path d="M 10.810376 151.344 
L 76.213986 118.08 
L 118.961444 118.08 
L 265.896091 151.344 
L 10.810376 151.344 
" style="fill: #d3d3d3; opacity: 0.3; stroke: #000000; stroke-width: 0.5; stroke-linejoin: miter"/>
   </g>
   <g id="patch_11">
    <path d="M 396.819917 118.08 
L 460.941104 118.08 
L 460.941104 7.2 
L 396.819917 7.2 
z
" clip-path="url(#p9a7ed23187)" style="fill: #d3d3d3; opacity: 0.3; stroke: #000000; stroke-width: 0.5; stroke-linejoin: miter"/>
   </g>
   <g id="patch_12">
    <path d="M 297.781805 151.344 
L 396.819917 118.08 
" style="fill: none; stroke: #ffffff; stroke-width: 0.64; stroke-linejoin: miter"/>
   </g>
   <g id="patch_13">
    <path d="M 680.410376 151.344 
L 460.941104 118.08 
" style="fill: none; stroke: #ffffff; stroke-width: 0.64; stroke-linejoin: miter"/>
   </g>
   <g id="patch_14">
    <path d="M 297.781805 151.344 
L 396.819917 118.08 
L 460.941104 118.08 
L 680.410376 151.344 
L 297.781805 151.344 
" style="fill: #d3d3d3; opacity: 0.3; stroke: #000000; stroke-width: 0.5; stroke-linejoin: miter"/>
   </g>
   <g id="patch_15">
    <path d="M 260.455528 95.691642 
L 260.455528 73.515642 
L 284.821579 95.691642 
L 284.821579 73.515642 
z
" clip-path="url(#p9a7ed23187)" style="fill: #777777; stroke: #777777; stroke-width: 0.64; stroke-linejoin: miter"/>
   </g>
   <g id="line2d_17">
    <path d="M 551.506444 73.515625 
L 551.615322 72.628675 
L 551.7242 71.759827 
L 551.833078 70.909079 
L 551.941956 70.076433 
L 552.050833 69.261887 
L 552.159711 68.465443 
L 552.268589 67.687099 
L 552.377467 66.926857 
L 552.486345 66.184716 
L 552.595223 65.460675 
L 552.704101 64.754736 
L 552.812978 64.066897 
L 552.921856 63.39716 
L 553.030734 62.745524 
L 553.139612 62.111988 
L 553.24849 61.496554 
L 553.357368 60.899221 
L 553.466246 60.319988 
L 553.575124 59.758857 
L 553.684001 59.215827 
L 553.792879 58.690897 
L 553.901757 58.184069 
L 554.010635 57.695342 
L 554.119513 57.224716 
L 554.228391 56.77219 
L 554.337269 56.337766 
L 554.446146 55.921443 
L 554.555024 55.523221 
L 554.663902 55.143099 
L 554.77278 54.781079 
L 554.881658 54.43716 
L 554.990536 54.111342 
L 555.099414 53.803625 
L 555.208291 53.514009 
L 555.317169 53.242493 
L 555.426047 52.989079 
L 555.534925 52.753766 
L 555.643803 52.536554 
L 555.752681 52.337443 
L 555.861559 52.156433 
L 555.970436 51.993524 
L 556.079314 51.848716 
L 556.188192 51.722009 
L 556.29707 51.613402 
L 556.405948 51.522897 
L 556.514826 51.450493 
L 556.623704 51.39619 
L 556.732581 51.359988 
L 556.841459 51.341887 
L 556.950337 51.341887 
L 557.059215 51.359988 
L 557.168093 51.39619 
L 557.276971 51.450493 
L 557.385849 51.522897 
L 557.494726 51.613402 
L 557.603604 51.722009 
L 557.712482 51.848716 
L 557.82136 51.993524 
L 557.930238 52.156433 
L 558.039116 52.337443 
L 558.147994 52.536554 
L 558.256872 52.753766 
L 558.365749 52.989079 
L 558.474627 53.242493 
L 558.583505 53.514009 
L 558.692383 53.803625 
L 558.801261 54.111342 
L 558.910139 54.43716 
L 559.019017 54.781079 
L 559.127894 55.143099 
L 559.236772 55.523221 
L 559.34565 55.921443 
L 559.454528 56.337766 
L 559.563406 56.77219 
L 559.672284 57.224716 
L 559.781162 57.695342 
L 559.890039 58.184069 
L 559.998917 58.690897 
L 560.107795 59.215827 
L 560.216673 59.758857 
L 560.325551 60.319988 
L 560.434429 60.899221 
L 560.543307 61.496554 
L 560.652184 62.111988 
L 560.761062 62.745524 
L 560.86994 63.39716 
L 560.978818 64.066897 
L 561.087696 64.754736 
L 561.196574 65.460675 
L 561.305452 66.184716 
L 561.414329 66.926857 
L 561.523207 67.687099 
L 561.632085 68.465443 
L 561.740963 69.261887 
L 561.849841 70.076433 
L 561.958719 70.909079 
L 562.067597 71.759827 
L 562.176474 72.628675 
L 562.285352 73.515625 
" clip-path="url(#p9a7ed23187)" style="fill: none; stroke: #ffa500; stroke-linecap: round"/>
   </g>
   <g id="line2d_18">
    <path d="M 413.164271 73.515625 
L 413.339481 72.628675 
L 413.514691 71.759827 
L 413.6899 70.909079 
L 413.86511 70.076433 
L 414.04032 69.261887 
L 414.21553 68.465443 
L 414.39074 67.687099 
L 414.56595 66.926857 
L 414.741159 66.184716 
L 414.916369 65.460675 
L 415.091579 64.754736 
L 415.266789 64.066897 
L 415.441999 63.39716 
L 415.617209 62.745524 
L 415.792418 62.111988 
L 415.967628 61.496554 
L 416.142838 60.899221 
L 416.318048 60.319988 
L 416.493258 59.758857 
L 416.668467 59.215827 
L 416.843677 58.690897 
L 417.018887 58.184069 
L 417.194097 57.695342 
L 417.369307 57.224716 
L 417.544517 56.77219 
L 417.719726 56.337766 
L 417.894936 55.921443 
L 418.070146 55.523221 
L 418.245356 55.143099 
L 418.420566 54.781079 
L 418.595776 54.43716 
L 418.770985 54.111342 
L 418.946195 53.803625 
L 419.121405 53.514009 
L 419.296615 53.242493 
L 419.471825 52.989079 
L 419.647034 52.753766 
L 419.822244 52.536554 
L 419.997454 52.337443 
L 420.172664 52.156433 
L 420.347874 51.993524 
L 420.523084 51.848716 
L 420.698293 51.722009 
L 420.873503 51.613402 
L 421.048713 51.522897 
L 421.223923 51.450493 
L 421.399133 51.39619 
L 421.574343 51.359988 
L 421.749552 51.341887 
L 421.924762 51.341887 
L 422.099972 51.359988 
L 422.275182 51.39619 
L 422.450392 51.450493 
L 422.625601 51.522897 
L 422.800811 51.613402 
L 422.976021 51.722009 
L 423.151231 51.848716 
L 423.326441 51.993524 
L 423.501651 52.156433 
L 423.67686 52.337443 
L 423.85207 52.536554 
L 424.02728 52.753766 
L 424.20249 52.989079 
L 424.3777 53.242493 
L 424.55291 53.514009 
L 424.728119 53.803625 
L 424.903329 54.111342 
L 425.078539 54.43716 
L 425.253749 54.781079 
L 425.428959 55.143099 
L 425.604169 55.523221 
L 425.779378 55.921443 
L 425.954588 56.337766 
L 426.129798 56.77219 
L 426.305008 57.224716 
L 426.480218 57.695342 
L 426.655427 58.184069 
L 426.830637 58.690897 
L 427.005847 59.215827 
L 427.181057 59.758857 
L 427.356267 60.319988 
L 427.531477 60.899221 
L 427.706686 61.496554 
L 427.881896 62.111988 
L 428.057106 62.745524 
L 428.232316 63.39716 
L 428.407526 64.066897 
L 428.582736 64.754736 
L 428.757945 65.460675 
L 428.933155 66.184716 
L 429.108365 66.926857 
L 429.283575 67.687099 
L 429.458785 68.465443 
L 429.633994 69.261887 
L 429.809204 70.076433 
L 429.984414 70.909079 
L 430.159624 71.759827 
L 430.334834 72.628675 
L 430.510044 73.515625 
" clip-path="url(#p9a7ed23187)" style="fill: none; stroke: #ffa500; stroke-linecap: round"/>
   </g>
   <g id="line2d_19">
    <path d="M 399.644302 73.515625 
L 399.71697 72.628675 
L 399.789637 71.759827 
L 399.862305 70.909079 
L 399.934973 70.076433 
L 400.007641 69.261887 
L 400.080309 68.465443 
L 400.152977 67.687099 
L 400.225644 66.926857 
L 400.298312 66.184716 
L 400.37098 65.460675 
L 400.443648 64.754736 
L 400.516316 64.066897 
L 400.588984 63.39716 
L 400.661651 62.745524 
L 400.734319 62.111988 
L 400.806987 61.496554 
L 400.879655 60.899221 
L 400.952323 60.319988 
L 401.02499 59.758857 
L 401.097658 59.215827 
L 401.170326 58.690897 
L 401.242994 58.184069 
L 401.315662 57.695342 
L 401.38833 57.224716 
L 401.460997 56.77219 
L 401.533665 56.337766 
L 401.606333 55.921443 
L 401.679001 55.523221 
L 401.751669 55.143099 
L 401.824337 54.781079 
L 401.897004 54.43716 
L 401.969672 54.111342 
L 402.04234 53.803625 
L 402.115008 53.514009 
L 402.187676 53.242493 
L 402.260344 52.989079 
L 402.333011 52.753766 
L 402.405679 52.536554 
L 402.478347 52.337443 
L 402.551015 52.156433 
L 402.623683 51.993524 
L 402.696351 51.848716 
L 402.769018 51.722009 
L 402.841686 51.613402 
L 402.914354 51.522897 
L 402.987022 51.450493 
L 403.05969 51.39619 
L 403.132357 51.359988 
L 403.205025 51.341887 
L 403.277693 51.341887 
L 403.350361 51.359988 
L 403.423029 51.39619 
L 403.495697 51.450493 
L 403.568364 51.522897 
L 403.641032 51.613402 
L 403.7137 51.722009 
L 403.786368 51.848716 
L 403.859036 51.993524 
L 403.931704 52.156433 
L 404.004371 52.337443 
L 404.077039 52.536554 
L 404.149707 52.753766 
L 404.222375 52.989079 
L 404.295043 53.242493 
L 404.367711 53.514009 
L 404.440378 53.803625 
L 404.513046 54.111342 
L 404.585714 54.43716 
L 404.658382 54.781079 
L 404.73105 55.143099 
L 404.803718 55.523221 
L 404.876385 55.921443 
L 404.949053 56.337766 
L 405.021721 56.77219 
L 405.094389 57.224716 
L 405.167057 57.695342 
L 405.239725 58.184069 
L 405.312392 58.690897 
L 405.38506 59.215827 
L 405.457728 59.758857 
L 405.530396 60.319988 
L 405.603064 60.899221 
L 405.675731 61.496554 
L 405.748399 62.111988 
L 405.821067 62.745524 
L 405.893735 63.39716 
L 405.966403 64.066897 
L 406.039071 64.754736 
L 406.111738 65.460675 
L 406.184406 66.184716 
L 406.257074 66.926857 
L 406.329742 67.687099 
L 406.40241 68.465443 
L 406.475078 69.261887 
L 406.547745 70.076433 
L 406.620413 70.909079 
L 406.693081 71.759827 
L 406.765749 72.628675 
L 406.838417 73.515625 
" clip-path="url(#p9a7ed23187)" style="fill: none; stroke: #ffa500; stroke-linecap: round"/>
   </g>
   <g id="line2d_20">
    <path d="M 265.071843 73.515625 
L 265.145833 72.628675 
L 265.219823 71.759827 
L 265.293814 70.909079 
L 265.367804 70.076433 
L 265.441794 69.261887 
L 265.515784 68.465443 
L 265.589774 67.687099 
L 265.663765 66.926857 
L 265.737755 66.184716 
L 265.811745 65.460675 
L 265.885735 64.754736 
L 265.959725 64.066897 
L 266.033716 63.39716 
L 266.107706 62.745524 
L 266.181696 62.111988 
L 266.255686 61.496554 
L 266.329676 60.899221 
L 266.403667 60.319988 
L 266.477657 59.758857 
L 266.551647 59.215827 
L 266.625637 58.690897 
L 266.699627 58.184069 
L 266.773617 57.695342 
L 266.847608 57.224716 
L 266.921598 56.77219 
L 266.995588 56.337766 
L 267.069578 55.921443 
L 267.143568 55.523221 
L 267.217559 55.143099 
L 267.291549 54.781079 
L 267.365539 54.43716 
L 267.439529 54.111342 
L 267.513519 53.803625 
L 267.58751 53.514009 
L 267.6615 53.242493 
L 267.73549 52.989079 
L 267.80948 52.753766 
L 267.88347 52.536554 
L 267.957461 52.337443 
L 268.031451 52.156433 
L 268.105441 51.993524 
L 268.179431 51.848716 
L 268.253421 51.722009 
L 268.327412 51.613402 
L 268.401402 51.522897 
L 268.475392 51.450493 
L 268.549382 51.39619 
L 268.623372 51.359988 
L 268.697362 51.341887 
L 268.771353 51.341887 
L 268.845343 51.359988 
L 268.919333 51.39619 
L 268.993323 51.450493 
L 269.067313 51.522897 
L 269.141304 51.613402 
L 269.215294 51.722009 
L 269.289284 51.848716 
L 269.363274 51.993524 
L 269.437264 52.156433 
L 269.511255 52.337443 
L 269.585245 52.536554 
L 269.659235 52.753766 
L 269.733225 52.989079 
L 269.807215 53.242493 
L 269.881206 53.514009 
L 269.955196 53.803625 
L 270.029186 54.111342 
L 270.103176 54.43716 
L 270.177166 54.781079 
L 270.251157 55.143099 
L 270.325147 55.523221 
L 270.399137 55.921443 
L 270.473127 56.337766 
L 270.547117 56.77219 
L 270.621107 57.224716 
L 270.695098 57.695342 
L 270.769088 58.184069 
L 270.843078 58.690897 
L 270.917068 59.215827 
L 270.991058 59.758857 
L 271.065049 60.319988 
L 271.139039 60.899221 
L 271.213029 61.496554 
L 271.287019 62.111988 
L 271.361009 62.745524 
L 271.435 63.39716 
L 271.50899 64.066897 
L 271.58298 64.754736 
L 271.65697 65.460675 
L 271.73096 66.184716 
L 271.804951 66.926857 
L 271.878941 67.687099 
L 271.952931 68.465443 
L 272.026921 69.261887 
L 272.100911 70.076433 
L 272.174902 70.909079 
L 272.248892 71.759827 
L 272.322882 72.628675 
L 272.396872 73.515625 
" clip-path="url(#p9a7ed23187)" style="fill: none; stroke: #ffa500; stroke-linecap: round"/>
   </g>
   <g id="line2d_21">
    <path d="M 237.811811 73.515625 
L 237.90068 72.628675 
L 237.989549 71.759827 
L 238.078419 70.909079 
L 238.167288 70.076433 
L 238.256157 69.261887 
L 238.345026 68.465443 
L 238.433896 67.687099 
L 238.522765 66.926857 
L 238.611634 66.184716 
L 238.700504 65.460675 
L 238.789373 64.754736 
L 238.878242 64.066897 
L 238.967112 63.39716 
L 239.055981 62.745524 
L 239.14485 62.111988 
L 239.233719 61.496554 
L 239.322589 60.899221 
L 239.411458 60.319988 
L 239.500327 59.758857 
L 239.589197 59.215827 
L 239.678066 58.690897 
L 239.766935 58.184069 
L 239.855804 57.695342 
L 239.944674 57.224716 
L 240.033543 56.77219 
L 240.122412 56.337766 
L 240.211282 55.921443 
L 240.300151 55.523221 
L 240.38902 55.143099 
L 240.477889 54.781079 
L 240.566759 54.43716 
L 240.655628 54.111342 
L 240.744497 53.803625 
L 240.833367 53.514009 
L 240.922236 53.242493 
L 241.011105 52.989079 
L 241.099974 52.753766 
L 241.188844 52.536554 
L 241.277713 52.337443 
L 241.366582 52.156433 
L 241.455452 51.993524 
L 241.544321 51.848716 
L 241.63319 51.722009 
L 241.722059 51.613402 
L 241.810929 51.522897 
L 241.899798 51.450493 
L 241.988667 51.39619 
L 242.077537 51.359988 
L 242.166406 51.341887 
L 242.255275 51.341887 
L 242.344144 51.359988 
L 242.433014 51.39619 
L 242.521883 51.450493 
L 242.610752 51.522897 
L 242.699622 51.613402 
L 242.788491 51.722009 
L 242.87736 51.848716 
L 242.966229 51.993524 
L 243.055099 52.156433 
L 243.143968 52.337443 
L 243.232837 52.536554 
L 243.321707 52.753766 
L 243.410576 52.989079 
L 243.499445 53.242493 
L 243.588314 53.514009 
L 243.677184 53.803625 
L 243.766053 54.111342 
L 243.854922 54.43716 
L 243.943792 54.781079 
L 244.032661 55.143099 
L 244.12153 55.523221 
L 244.210399 55.921443 
L 244.299269 56.337766 
L 244.388138 56.77219 
L 244.477007 57.224716 
L 244.565877 57.695342 
L 244.654746 58.184069 
L 244.743615 58.690897 
L 244.832484 59.215827 
L 244.921354 59.758857 
L 245.010223 60.319988 
L 245.099092 60.899221 
L 245.187962 61.496554 
L 245.276831 62.111988 
L 245.3657 62.745524 
L 245.454569 63.39716 
L 245.543439 64.066897 
L 245.632308 64.754736 
L 245.721177 65.460675 
L 245.810047 66.184716 
L 245.898916 66.926857 
L 245.987785 67.687099 
L 246.076654 68.465443 
L 246.165524 69.261887 
L 246.254393 70.076433 
L 246.343262 70.909079 
L 246.432132 71.759827 
L 246.521001 72.628675 
L 246.60987 73.515625 
" clip-path="url(#p9a7ed23187)" style="fill: none; stroke: #ffa500; stroke-linecap: round"/>
   </g>
   <g id="line2d_22">
    <path d="M 109.37554 73.515625 
L 109.576973 72.628675 
L 109.778407 71.759827 
L 109.97984 70.909079 
L 110.181274 70.076433 
L 110.382707 69.261887 
L 110.58414 68.465443 
L 110.785574 67.687099 
L 110.987007 66.926857 
L 111.18844 66.184716 
L 111.389874 65.460675 
L 111.591307 64.754736 
L 111.79274 64.066897 
L 111.994174 63.39716 
L 112.195607 62.745524 
L 112.397041 62.111988 
L 112.598474 61.496554 
L 112.799907 60.899221 
L 113.001341 60.319988 
L 113.202774 59.758857 
L 113.404207 59.215827 
L 113.605641 58.690897 
L 113.807074 58.184069 
L 114.008507 57.695342 
L 114.209941 57.224716 
L 114.411374 56.77219 
L 114.612807 56.337766 
L 114.814241 55.921443 
L 115.015674 55.523221 
L 115.217108 55.143099 
L 115.418541 54.781079 
L 115.619974 54.43716 
L 115.821408 54.111342 
L 116.022841 53.803625 
L 116.224274 53.514009 
L 116.425708 53.242493 
L 116.627141 52.989079 
L 116.828574 52.753766 
L 117.030008 52.536554 
L 117.231441 52.337443 
L 117.432875 52.156433 
L 117.634308 51.993524 
L 117.835741 51.848716 
L 118.037175 51.722009 
L 118.238608 51.613402 
L 118.440041 51.522897 
L 118.641475 51.450493 
L 118.842908 51.39619 
L 119.044341 51.359988 
L 119.245775 51.341887 
L 119.447208 51.341887 
L 119.648641 51.359988 
L 119.850075 51.39619 
L 120.051508 51.450493 
L 120.252942 51.522897 
L 120.454375 51.613402 
L 120.655808 51.722009 
L 120.857242 51.848716 
L 121.058675 51.993524 
L 121.260108 52.156433 
L 121.461542 52.337443 
L 121.662975 52.536554 
L 121.864408 52.753766 
L 122.065842 52.989079 
L 122.267275 53.242493 
L 122.468709 53.514009 
L 122.670142 53.803625 
L 122.871575 54.111342 
L 123.073009 54.43716 
L 123.274442 54.781079 
L 123.475875 55.143099 
L 123.677309 55.523221 
L 123.878742 55.921443 
L 124.080175 56.337766 
L 124.281609 56.77219 
L 124.483042 57.224716 
L 124.684475 57.695342 
L 124.885909 58.184069 
L 125.087342 58.690897 
L 125.288776 59.215827 
L 125.490209 59.758857 
L 125.691642 60.319988 
L 125.893076 60.899221 
L 126.094509 61.496554 
L 126.295942 62.111988 
L 126.497376 62.745524 
L 126.698809 63.39716 
L 126.900242 64.066897 
L 127.101676 64.754736 
L 127.303109 65.460675 
L 127.504543 66.184716 
L 127.705976 66.926857 
L 127.907409 67.687099 
L 128.108843 68.465443 
L 128.310276 69.261887 
L 128.511709 70.076433 
L 128.713143 70.909079 
L 128.914576 71.759827 
L 129.116009 72.628675 
L 129.317443 73.515625 
" clip-path="url(#p9a7ed23187)" style="fill: none; stroke: #ffa500; stroke-linecap: round"/>
   </g>
   <g id="line2d_23">
    <path d="M 14.282577 73.515625 
L 15.193963 72.628675 
L 16.105348 71.759827 
L 17.016734 70.909079 
L 17.92812 70.076433 
L 18.839506 69.261887 
L 19.750891 68.465443 
L 20.662277 67.687099 
L 21.573663 66.926857 
L 22.485049 66.184716 
L 23.396434 65.460675 
L 24.30782 64.754736 
L 25.219206 64.066897 
L 26.130591 63.39716 
L 27.041977 62.745524 
L 27.953363 62.111988 
L 28.864749 61.496554 
L 29.776134 60.899221 
L 30.68752 60.319988 
L 31.598906 59.758857 
L 32.510291 59.215827 
L 33.421677 58.690897 
L 34.333063 58.184069 
L 35.244449 57.695342 
L 36.155834 57.224716 
L 37.06722 56.77219 
L 37.978606 56.337766 
L 38.889992 55.921443 
L 39.801377 55.523221 
L 40.712763 55.143099 
L 41.624149 54.781079 
L 42.535534 54.43716 
L 43.44692 54.111342 
L 44.358306 53.803625 
L 45.269692 53.514009 
L 46.181077 53.242493 
L 47.092463 52.989079 
L 48.003849 52.753766 
L 48.915235 52.536554 
L 49.82662 52.337443 
L 50.738006 52.156433 
L 51.649392 51.993524 
L 52.560777 51.848716 
L 53.472163 51.722009 
L 54.383549 51.613402 
L 55.294935 51.522897 
L 56.20632 51.450493 
L 57.117706 51.39619 
L 58.029092 51.359988 
L 58.940478 51.341887 
L 59.851863 51.341887 
L 60.763249 51.359988 
L 61.674635 51.39619 
L 62.58602 51.450493 
L 63.497406 51.522897 
L 64.408792 51.613402 
L 65.320178 51.722009 
L 66.231563 51.848716 
L 67.142949 51.993524 
L 68.054335 52.156433 
L 68.96572 52.337443 
L 69.877106 52.536554 
L 70.788492 52.753766 
L 71.699878 52.989079 
L 72.611263 53.242493 
L 73.522649 53.514009 
L 74.434035 53.803625 
L 75.345421 54.111342 
L 76.256806 54.43716 
L 77.168192 54.781079 
L 78.079578 55.143099 
L 78.990963 55.523221 
L 79.902349 55.921443 
L 80.813735 56.337766 
L 81.725121 56.77219 
L 82.636506 57.224716 
L 83.547892 57.695342 
L 84.459278 58.184069 
L 85.370664 58.690897 
L 86.282049 59.215827 
L 87.193435 59.758857 
L 88.104821 60.319988 
L 89.016206 60.899221 
L 89.927592 61.496554 
L 90.838978 62.111988 
L 91.750364 62.745524 
L 92.661749 63.39716 
L 93.573135 64.066897 
L 94.484521 64.754736 
L 95.395906 65.460675 
L 96.307292 66.184716 
L 97.218678 66.926857 
L 98.130064 67.687099 
L 99.041449 68.465443 
L 99.952835 69.261887 
L 100.864221 70.076433 
L 101.775607 70.909079 
L 102.686992 71.759827 
L 103.598378 72.628675 
L 104.509764 73.515625 
" clip-path="url(#p9a7ed23187)" style="fill: none; stroke: #ffa500; stroke-linecap: round"/>
   </g>
   <g id="patch_16">
    <path d="M 10.810376 118.08 
L 680.410376 118.08 
" style="fill: none; stroke: #262626; stroke-width: 0.8; stroke-linejoin: miter; stroke-linecap: square"/>
   </g>
  </g>
  <g id="axes_2">
   <g id="patch_17">
    <path d="M 10.810376 262.224 
L 265.896091 262.224 
L 265.896091 151.344 
L 10.810376 151.344 
L 10.810376 262.224 
z
" style="fill: none"/>
   </g>
   <g id="patch_18">
    <path d="M 1110.229805 240.048 
L 1110.229805 217.872 
L 1255.628662 240.048 
L 1255.628662 217.872 
z
" clip-path="url(#p57d173e408)" style="fill: #777777; stroke: #777777; stroke-width: 0.64; stroke-linejoin: miter"/>
   </g>
   <g id="patch_19">
    <path d="M -371.818195 240.048 
L 1110.229805 240.048 
L 1110.229805 217.872 
L -371.818195 217.872 
z
" clip-path="url(#p57d173e408)" style="fill: #ebeaea"/>
   </g>
   <g id="patch_20">
    <path d="M 1255.628662 240.048 
L 3608.562121 240.048 
L 3608.562121 217.872 
L 1255.628662 217.872 
z
" clip-path="url(#p57d173e408)" style="fill: #ebeaea"/>
   </g>
   <g id="patch_21">
    <path d="M -1 240.048 
L 688.610376 240.048 
M 688.610376 217.872 
L -1 217.872 
" clip-path="url(#p57d173e408)" style="fill: none; stroke: #000000; stroke-width: 0.7; stroke-linejoin: miter"/>
   </g>
   <g id="patch_22">
    <path clip-path="url(#p57d173e408)" style="fill: none; stroke: #000000; stroke-width: 0.7; stroke-linejoin: miter"/>
   </g>
   <g id="matplotlib.axis_2">
    <g id="xtick_17">
     <g id="text_18">
      <!-- 1.6 -->
      <g style="fill: #262626" transform="translate(31.426148 274.6031) scale(0.0704 -0.0704)">
       <use xlink:href="#ArialMT-31"/>
       <use xlink:href="#ArialMT-2e" transform="translate(55.615234 0)"/>
       <use xlink:href="#ArialMT-36" transform="translate(83.398438 0)"/>
      </g>
     </g>
    </g>
    <g id="xtick_18">
     <g id="text_19">
      <!-- 1.8 -->
      <g style="fill: #262626" transform="translate(82.443291 274.6031) scale(0.0704 -0.0704)">
       <use xlink:href="#ArialMT-31"/>
       <use xlink:href="#ArialMT-2e" transform="translate(55.615234 0)"/>
       <use xlink:href="#ArialMT-38" transform="translate(83.398438 0)"/>
      </g>
     </g>
    </g>
    <g id="xtick_19">
     <g id="text_20">
      <!-- 2.0 -->
      <g style="fill: #262626" transform="translate(133.460433 274.6031) scale(0.0704 -0.0704)">
       <use xlink:href="#ArialMT-32"/>
       <use xlink:href="#ArialMT-2e" transform="translate(55.615234 0)"/>
       <use xlink:href="#ArialMT-30" transform="translate(83.398438 0)"/>
      </g>
     </g>
    </g>
    <g id="xtick_20">
     <g id="text_21">
      <!-- 2.2 -->
      <g style="fill: #262626" transform="translate(184.477576 274.6031) scale(0.0704 -0.0704)">
       <use xlink:href="#ArialMT-32"/>
       <use xlink:href="#ArialMT-2e" transform="translate(55.615234 0)"/>
       <use xlink:href="#ArialMT-32" transform="translate(83.398438 0)"/>
      </g>
     </g>
    </g>
    <g id="xtick_21">
     <g id="text_22">
      <!-- 2.4 -->
      <g style="fill: #262626" transform="translate(235.494719 274.6031) scale(0.0704 -0.0704)">
       <use xlink:href="#ArialMT-32"/>
       <use xlink:href="#ArialMT-2e" transform="translate(55.615234 0)"/>
       <use xlink:href="#ArialMT-34" transform="translate(83.398438 0)"/>
      </g>
     </g>
    </g>
    <g id="xtick_22"/>
    <g id="xtick_23"/>
    <g id="xtick_24"/>
    <g id="xtick_25"/>
    <g id="xtick_26"/>
    <g id="xtick_27"/>
    <g id="xtick_28"/>
    <g id="xtick_29"/>
    <g id="xtick_30"/>
    <g id="xtick_31"/>
    <g id="xtick_32"/>
    <g id="xtick_33"/>
    <g id="xtick_34"/>
    <g id="xtick_35"/>
    <g id="xtick_36"/>
    <g id="xtick_37"/>
    <g id="xtick_38"/>
    <g id="xtick_39"/>
    <g id="xtick_40"/>
    <g id="xtick_41"/>
    <g id="xtick_42"/>
    <g id="xtick_43"/>
    <g id="xtick_44"/>
    <g id="xtick_45"/>
    <g id="xtick_46"/>
    <g id="xtick_47"/>
    <g id="xtick_48"/>
    <g id="xtick_49"/>
    <g id="xtick_50"/>
    <g id="xtick_51"/>
    <g id="xtick_52"/>
    <g id="xtick_53"/>
    <g id="xtick_54"/>
    <g id="xtick_55"/>
    <g id="xtick_56"/>
    <g id="xtick_57"/>
    <g id="xtick_58"/>
    <g id="xtick_59"/>
    <g id="xtick_60"/>
    <g id="xtick_61"/>
    <g id="xtick_62"/>
    <g id="xtick_63"/>
    <g id="xtick_64"/>
    <g id="xtick_65"/>
    <g id="xtick_66"/>
    <g id="xtick_67"/>
    <g id="text_23">
     <!-- 1e7 -->
     <g style="fill: #262626" transform="translate(254.151391 284.0414) scale(0.0704 -0.0704)">
      <use xlink:href="#ArialMT-31"/>
      <use xlink:href="#ArialMT-65" transform="translate(55.615234 0)"/>
      <use xlink:href="#ArialMT-37" transform="translate(111.230469 0)"/>
     </g>
    </g>
   </g>
   <g id="matplotlib.axis_3">
    <g id="ytick_1"/>
    <g id="ytick_2"/>
    <g id="ytick_3"/>
    <g id="ytick_4"/>
    <g id="ytick_5"/>
    <g id="ytick_6"/>
    <g id="ytick_7"/>
    <g id="ytick_8"/>
    <g id="ytick_9"/>
    <g id="ytick_10"/>
    <g id="ytick_11"/>
    <g id="ytick_12"/>
    <g id="ytick_13"/>
    <g id="ytick_14"/>
    <g id="ytick_15"/>
    <g id="ytick_16"/>
    <g id="ytick_17"/>
    <g id="ytick_18"/>
    <g id="ytick_19"/>
    <g id="ytick_20"/>
    <g id="ytick_21"/>
    <g id="ytick_22"/>
    <g id="ytick_23"/>
    <g id="ytick_24"/>
   </g>
   <g id="patch_23">
    <path d="M 10.810376 262.224 
L 265.896091 262.224 
L 265.896091 151.344 
L 10.810376 151.344 
L 10.810376 262.224 
z
" clip-path="url(#p57d173e408)" style="fill: none"/>
   </g>
   <g id="line2d_24">
    <path clip-path="url(#p57d173e408)" style="fill: none; stroke: #ffa500; stroke-linecap: round"/>
   </g>
   <g id="line2d_25">
    <path clip-path="url(#p57d173e408)" style="fill: none; stroke: #ffa500; stroke-linecap: round"/>
   </g>
   <g id="line2d_26">
    <path clip-path="url(#p57d173e408)" style="fill: none; stroke: #ffa500; stroke-linecap: round"/>
   </g>
   <g id="line2d_27">
    <path clip-path="url(#p57d173e408)" style="fill: none; stroke: #ffa500; stroke-linecap: round"/>
   </g>
   <g id="line2d_28">
    <path clip-path="url(#p57d173e408)" style="fill: none; stroke: #ffa500; stroke-linecap: round"/>
   </g>
   <g id="line2d_29">
    <path d="M 208.694395 217.871907 
L 209.896402 216.984957 
L 211.09841 216.116109 
L 212.300418 215.265361 
L 213.502425 214.432715 
L 214.704433 213.618169 
L 215.906441 212.821725 
L 217.108448 212.043382 
L 218.310456 211.283139 
L 219.512464 210.540998 
L 220.714471 209.816957 
L 221.916479 209.111018 
L 223.118487 208.42318 
L 224.320495 207.753442 
L 225.522502 207.101806 
L 226.72451 206.46827 
L 227.926518 205.852836 
L 229.128525 205.255503 
L 230.330533 204.67627 
L 231.532541 204.115139 
L 232.734548 203.572109 
L 233.936556 203.04718 
L 235.138564 202.540351 
L 236.340571 202.051624 
L 237.542579 201.580998 
L 238.744587 201.128472 
L 239.946594 200.694048 
L 241.148602 200.277725 
L 242.35061 199.879503 
L 243.552618 199.499382 
L 244.754625 199.137361 
L 245.956633 198.793442 
L 247.158641 198.467624 
L 248.360648 198.159907 
L 249.562656 197.870291 
L 250.764664 197.598776 
L 251.966671 197.345361 
L 253.168679 197.110048 
L 254.370687 196.892836 
L 255.572694 196.693725 
L 256.774702 196.512715 
L 257.97671 196.349806 
L 259.178717 196.204998 
L 260.380725 196.078291 
L 261.582733 195.969685 
L 262.784741 195.87918 
L 263.986748 195.806776 
L 265.188756 195.752472 
L 266.390764 195.71627 
L 267.592771 195.698169 
L 268.794779 195.698169 
L 269.996787 195.71627 
L 271.198794 195.752472 
L 272.400802 195.806776 
L 273.60281 195.87918 
L 274.804817 195.969685 
L 276.006825 196.078291 
L 277.208833 196.204998 
L 278.41084 196.349806 
L 279.612848 196.512715 
L 280.814856 196.693725 
L 282.016864 196.892836 
L 283.218871 197.110048 
L 284.420879 197.345361 
L 285.622887 197.598776 
L 286.824894 197.870291 
L 288.026902 198.159907 
L 289.22891 198.467624 
L 290.430917 198.793442 
L 291.632925 199.137361 
L 292.834933 199.499382 
L 294.03694 199.879503 
L 295.238948 200.277725 
L 296.440956 200.694048 
L 297.642963 201.128472 
L 298.844971 201.580998 
L 300.046979 202.051624 
L 301.248987 202.540351 
L 302.450994 203.04718 
L 303.653002 203.572109 
L 304.85501 204.115139 
L 306.057017 204.67627 
L 307.259025 205.255503 
L 308.461033 205.852836 
L 309.66304 206.46827 
L 310.865048 207.101806 
L 312.067056 207.753442 
L 313.269063 208.42318 
L 314.471071 209.111018 
L 315.673079 209.816957 
L 316.875087 210.540998 
L 318.077094 211.283139 
L 319.279102 212.043382 
L 320.48111 212.821725 
L 321.683117 213.618169 
L 322.885125 214.432715 
L 324.087133 215.265361 
L 325.28914 216.116109 
L 326.491148 216.984957 
L 327.693156 217.871907 
" clip-path="url(#p57d173e408)" style="fill: none; stroke: #ffa500; stroke-linecap: round"/>
   </g>
   <g id="line2d_30">
    <path d="M -1 198.096593 
L 0.188922 198.159907 
L 5.627408 198.467624 
L 11.065895 198.793442 
L 16.504382 199.137361 
L 21.942869 199.499382 
L 27.381355 199.879503 
L 32.819842 200.277725 
L 38.258329 200.694048 
L 43.696815 201.128472 
L 49.135302 201.580998 
L 54.573789 202.051624 
L 60.012275 202.540351 
L 65.450762 203.04718 
L 70.889249 203.572109 
L 76.327735 204.115139 
L 81.766222 204.67627 
L 87.204709 205.255503 
L 92.643195 205.852836 
L 98.081682 206.46827 
L 103.520169 207.101806 
L 108.958656 207.753442 
L 114.397142 208.42318 
L 119.835629 209.111018 
L 125.274116 209.816957 
L 130.712602 210.540998 
L 136.151089 211.283139 
L 141.589576 212.043382 
L 147.028062 212.821725 
L 152.466549 213.618169 
L 157.905036 214.432715 
L 163.343522 215.265361 
L 168.782009 216.116109 
L 174.220496 216.984957 
L 179.658983 217.871907 
" clip-path="url(#p57d173e408)" style="fill: none; stroke: #ffa500; stroke-linecap: round"/>
   </g>
   <g id="patch_24">
    <path d="M 10.810376 262.224 
L 10.810376 151.344 
" style="fill: none; stroke: #262626; stroke-width: 0.8; stroke-linejoin: miter; stroke-linecap: square"/>
   </g>
   <g id="patch_25">
    <path d="M 265.896091 262.224 
L 265.896091 151.344 
" style="fill: none; stroke: #262626; stroke-width: 0.8; stroke-linejoin: miter; stroke-linecap: square"/>
   </g>
   <g id="patch_26">
    <path d="M 10.810376 262.224 
L 265.896091 262.224 
" style="fill: none; stroke: #262626; stroke-width: 0.8; stroke-linejoin: miter; stroke-linecap: square"/>
   </g>
   <g id="patch_27">
    <path d="M 10.810376 151.344 
L 265.896091 151.344 
" style="fill: none; stroke: #262626; stroke-width: 0.8; stroke-linejoin: miter; stroke-linecap: square"/>
   </g>
  </g>
  <g id="axes_3">
   <g id="patch_28">
    <path d="M 297.781805 262.224 
L 680.410376 262.224 
L 680.410376 151.344 
L 297.781805 151.344 
L 297.781805 262.224 
z
" style="fill: none"/>
   </g>
   <g id="patch_29">
    <path d="M -515.941624 240.048 
L -515.941624 217.872 
L -370.542767 240.048 
L -370.542767 217.872 
z
" clip-path="url(#p6e098e2305)" style="fill: #777777; stroke: #777777; stroke-width: 0.64; stroke-linejoin: miter"/>
   </g>
   <g id="patch_30">
    <path d="M -1997.989624 240.048 
L -515.941624 240.048 
L -515.941624 217.872 
L -1997.989624 217.872 
z
" clip-path="url(#p6e098e2305)" style="fill: #ebeaea"/>
   </g>
   <g id="patch_31">
    <path d="M -370.542767 240.048 
L 1982.390692 240.048 
L 1982.390692 217.872 
L -370.542767 217.872 
z
" clip-path="url(#p6e098e2305)" style="fill: #ebeaea"/>
   </g>
   <g id="patch_32">
    <path clip-path="url(#p6e098e2305)" style="fill: none; stroke: #000000; stroke-width: 0.7; stroke-linejoin: miter"/>
   </g>
   <g id="patch_33">
    <path d="M -1 240.048 
L 688.610376 240.048 
M 688.610376 217.872 
L -1 217.872 
" clip-path="url(#p6e098e2305)" style="fill: none; stroke: #000000; stroke-width: 0.7; stroke-linejoin: miter"/>
   </g>
   <g id="matplotlib.axis_4">
    <g id="xtick_68">
     <g id="text_24">
      <!-- 0.90 -->
      <g style="fill: #262626" transform="translate(290.931555 274.6031) scale(0.0704 -0.0704)">
       <use xlink:href="#ArialMT-30"/>
       <use xlink:href="#ArialMT-2e" transform="translate(55.615234 0)"/>
       <use xlink:href="#ArialMT-39" transform="translate(83.398438 0)"/>
       <use xlink:href="#ArialMT-30" transform="translate(139.013672 0)"/>
      </g>
     </g>
    </g>
    <g id="xtick_69">
     <g id="text_25">
      <!-- 0.92 -->
      <g style="fill: #262626" transform="translate(341.948698 274.6031) scale(0.0704 -0.0704)">
       <use xlink:href="#ArialMT-30"/>
       <use xlink:href="#ArialMT-2e" transform="translate(55.615234 0)"/>
       <use xlink:href="#ArialMT-39" transform="translate(83.398438 0)"/>
       <use xlink:href="#ArialMT-32" transform="translate(139.013672 0)"/>
      </g>
     </g>
    </g>
    <g id="xtick_70">
     <g id="text_26">
      <!-- 0.94 -->
      <g style="fill: #262626" transform="translate(392.965841 274.6031) scale(0.0704 -0.0704)">
       <use xlink:href="#ArialMT-30"/>
       <use xlink:href="#ArialMT-2e" transform="translate(55.615234 0)"/>
       <use xlink:href="#ArialMT-39" transform="translate(83.398438 0)"/>
       <use xlink:href="#ArialMT-34" transform="translate(139.013672 0)"/>
      </g>
     </g>
    </g>
    <g id="xtick_71">
     <g id="text_27">
      <!-- 0.96 -->
      <g style="fill: #262626" transform="translate(443.982983 274.6031) scale(0.0704 -0.0704)">
       <use xlink:href="#ArialMT-30"/>
       <use xlink:href="#ArialMT-2e" transform="translate(55.615234 0)"/>
       <use xlink:href="#ArialMT-39" transform="translate(83.398438 0)"/>
       <use xlink:href="#ArialMT-36" transform="translate(139.013672 0)"/>
      </g>
     </g>
    </g>
    <g id="xtick_72">
     <g id="text_28">
      <!-- 0.98 -->
      <g style="fill: #262626" transform="translate(495.000126 274.6031) scale(0.0704 -0.0704)">
       <use xlink:href="#ArialMT-30"/>
       <use xlink:href="#ArialMT-2e" transform="translate(55.615234 0)"/>
       <use xlink:href="#ArialMT-39" transform="translate(83.398438 0)"/>
       <use xlink:href="#ArialMT-38" transform="translate(139.013672 0)"/>
      </g>
     </g>
    </g>
    <g id="xtick_73">
     <g id="text_29">
      <!-- 1.00 -->
      <g style="fill: #262626" transform="translate(546.017269 274.6031) scale(0.0704 -0.0704)">
       <use xlink:href="#ArialMT-31"/>
       <use xlink:href="#ArialMT-2e" transform="translate(55.615234 0)"/>
       <use xlink:href="#ArialMT-30" transform="translate(83.398438 0)"/>
       <use xlink:href="#ArialMT-30" transform="translate(139.013672 0)"/>
      </g>
     </g>
    </g>
    <g id="xtick_74">
     <g id="text_30">
      <!-- 1.02 -->
      <g style="fill: #262626" transform="translate(597.034412 274.6031) scale(0.0704 -0.0704)">
       <use xlink:href="#ArialMT-31"/>
       <use xlink:href="#ArialMT-2e" transform="translate(55.615234 0)"/>
       <use xlink:href="#ArialMT-30" transform="translate(83.398438 0)"/>
       <use xlink:href="#ArialMT-32" transform="translate(139.013672 0)"/>
      </g>
     </g>
    </g>
    <g id="xtick_75">
     <g id="text_31">
      <!-- 1.04 -->
      <g style="fill: #262626" transform="translate(648.051555 274.6031) scale(0.0704 -0.0704)">
       <use xlink:href="#ArialMT-31"/>
       <use xlink:href="#ArialMT-2e" transform="translate(55.615234 0)"/>
       <use xlink:href="#ArialMT-30" transform="translate(83.398438 0)"/>
       <use xlink:href="#ArialMT-34" transform="translate(139.013672 0)"/>
      </g>
     </g>
    </g>
    <g id="xtick_76"/>
    <g id="xtick_77"/>
    <g id="xtick_78"/>
    <g id="xtick_79"/>
    <g id="xtick_80"/>
    <g id="xtick_81"/>
    <g id="xtick_82"/>
    <g id="xtick_83"/>
    <g id="xtick_84"/>
    <g id="xtick_85"/>
    <g id="xtick_86"/>
    <g id="xtick_87"/>
    <g id="xtick_88"/>
    <g id="xtick_89"/>
    <g id="xtick_90"/>
    <g id="xtick_91"/>
    <g id="xtick_92"/>
    <g id="xtick_93"/>
    <g id="xtick_94"/>
    <g id="xtick_95"/>
    <g id="xtick_96"/>
    <g id="xtick_97"/>
    <g id="xtick_98"/>
    <g id="text_32">
     <!-- 1e8 -->
     <g style="fill: #262626" transform="translate(668.665676 284.0414) scale(0.0704 -0.0704)">
      <use xlink:href="#ArialMT-31"/>
      <use xlink:href="#ArialMT-65" transform="translate(55.615234 0)"/>
      <use xlink:href="#ArialMT-38" transform="translate(111.230469 0)"/>
     </g>
    </g>
   </g>
   <g id="matplotlib.axis_5">
    <g id="ytick_25"/>
    <g id="ytick_26"/>
    <g id="ytick_27"/>
    <g id="ytick_28"/>
    <g id="ytick_29"/>
    <g id="ytick_30"/>
    <g id="ytick_31"/>
    <g id="ytick_32"/>
    <g id="ytick_33"/>
    <g id="ytick_34"/>
    <g id="ytick_35"/>
    <g id="ytick_36"/>
    <g id="ytick_37"/>
    <g id="ytick_38"/>
    <g id="ytick_39"/>
    <g id="ytick_40"/>
    <g id="ytick_41"/>
    <g id="ytick_42"/>
    <g id="ytick_43"/>
    <g id="ytick_44"/>
    <g id="ytick_45"/>
    <g id="ytick_46"/>
    <g id="ytick_47"/>
    <g id="ytick_48"/>
   </g>
   <g id="patch_34">
    <path d="M 297.781805 262.224 
L 680.410376 262.224 
L 680.410376 151.344 
L 297.781805 151.344 
L 297.781805 262.224 
z
" clip-path="url(#p6e098e2305)" style="fill: none"/>
   </g>
   <g id="line2d_31">
    <path clip-path="url(#p6e098e2305)" style="fill: none; stroke: #ffa500; stroke-linecap: round"/>
   </g>
   <g id="line2d_32">
    <path d="M 395.313011 217.871907 
L 396.358536 216.984957 
L 397.404061 216.116109 
L 398.449586 215.265361 
L 399.49511 214.432715 
L 400.540635 213.618169 
L 401.58616 212.821725 
L 402.631684 212.043382 
L 403.677209 211.283139 
L 404.722734 210.540998 
L 405.768259 209.816957 
L 406.813783 209.111018 
L 407.859308 208.42318 
L 408.904833 207.753442 
L 409.950357 207.101806 
L 410.995882 206.46827 
L 412.041407 205.852836 
L 413.086932 205.255503 
L 414.132456 204.67627 
L 415.177981 204.115139 
L 416.223506 203.572109 
L 417.26903 203.04718 
L 418.314555 202.540351 
L 419.36008 202.051624 
L 420.405605 201.580998 
L 421.451129 201.128472 
L 422.496654 200.694048 
L 423.542179 200.277725 
L 424.587703 199.879503 
L 425.633228 199.499382 
L 426.678753 199.137361 
L 427.724278 198.793442 
L 428.769802 198.467624 
L 429.815327 198.159907 
L 430.860852 197.870291 
L 431.906376 197.598776 
L 432.951901 197.345361 
L 433.997426 197.110048 
L 435.042951 196.892836 
L 436.088475 196.693725 
L 437.134 196.512715 
L 438.179525 196.349806 
L 439.225049 196.204998 
L 440.270574 196.078291 
L 441.316099 195.969685 
L 442.361624 195.87918 
L 443.407148 195.806776 
L 444.452673 195.752472 
L 445.498198 195.71627 
L 446.543722 195.698169 
L 447.589247 195.698169 
L 448.634772 195.71627 
L 449.680296 195.752472 
L 450.725821 195.806776 
L 451.771346 195.87918 
L 452.816871 195.969685 
L 453.862395 196.078291 
L 454.90792 196.204998 
L 455.953445 196.349806 
L 456.998969 196.512715 
L 458.044494 196.693725 
L 459.090019 196.892836 
L 460.135544 197.110048 
L 461.181068 197.345361 
L 462.226593 197.598776 
L 463.272118 197.870291 
L 464.317642 198.159907 
L 465.363167 198.467624 
L 466.408692 198.793442 
L 467.454217 199.137361 
L 468.499741 199.499382 
L 469.545266 199.879503 
L 470.590791 200.277725 
L 471.636315 200.694048 
L 472.68184 201.128472 
L 473.727365 201.580998 
L 474.77289 202.051624 
L 475.818414 202.540351 
L 476.863939 203.04718 
L 477.909464 203.572109 
L 478.954988 204.115139 
L 480.000513 204.67627 
L 481.046038 205.255503 
L 482.091563 205.852836 
L 483.137087 206.46827 
L 484.182612 207.101806 
L 485.228137 207.753442 
L 486.273661 208.42318 
L 487.319186 209.111018 
L 488.364711 209.816957 
L 489.410236 210.540998 
L 490.45576 211.283139 
L 491.501285 212.043382 
L 492.54681 212.821725 
L 493.592334 213.618169 
L 494.637859 214.432715 
L 495.683384 215.265361 
L 496.728909 216.116109 
L 497.774433 216.984957 
L 498.819958 217.871907 
" clip-path="url(#p6e098e2305)" style="fill: none; stroke: #ffa500; stroke-linecap: round"/>
   </g>
   <g id="line2d_33">
    <path d="M 314.635675 217.871907 
L 315.069304 216.984957 
L 315.502933 216.116109 
L 315.936561 215.265361 
L 316.37019 214.432715 
L 316.803819 213.618169 
L 317.237447 212.821725 
L 317.671076 212.043382 
L 318.104705 211.283139 
L 318.538333 210.540998 
L 318.971962 209.816957 
L 319.405591 209.111018 
L 319.83922 208.42318 
L 320.272848 207.753442 
L 320.706477 207.101806 
L 321.140106 206.46827 
L 321.573734 205.852836 
L 322.007363 205.255503 
L 322.440992 204.67627 
L 322.874621 204.115139 
L 323.308249 203.572109 
L 323.741878 203.04718 
L 324.175507 202.540351 
L 324.609135 202.051624 
L 325.042764 201.580998 
L 325.476393 201.128472 
L 325.910022 200.694048 
L 326.34365 200.277725 
L 326.777279 199.879503 
L 327.210908 199.499382 
L 327.644536 199.137361 
L 328.078165 198.793442 
L 328.511794 198.467624 
L 328.945422 198.159907 
L 329.379051 197.870291 
L 329.81268 197.598776 
L 330.246309 197.345361 
L 330.679937 197.110048 
L 331.113566 196.892836 
L 331.547195 196.693725 
L 331.980823 196.512715 
L 332.414452 196.349806 
L 332.848081 196.204998 
L 333.28171 196.078291 
L 333.715338 195.969685 
L 334.148967 195.87918 
L 334.582596 195.806776 
L 335.016224 195.752472 
L 335.449853 195.71627 
L 335.883482 195.698169 
L 336.317111 195.698169 
L 336.750739 195.71627 
L 337.184368 195.752472 
L 337.617997 195.806776 
L 338.051625 195.87918 
L 338.485254 195.969685 
L 338.918883 196.078291 
L 339.352511 196.204998 
L 339.78614 196.349806 
L 340.219769 196.512715 
L 340.653398 196.693725 
L 341.087026 196.892836 
L 341.520655 197.110048 
L 341.954284 197.345361 
L 342.387912 197.598776 
L 342.821541 197.870291 
L 343.25517 198.159907 
L 343.688799 198.467624 
L 344.122427 198.793442 
L 344.556056 199.137361 
L 344.989685 199.499382 
L 345.423313 199.879503 
L 345.856942 200.277725 
L 346.290571 200.694048 
L 346.7242 201.128472 
L 347.157828 201.580998 
L 347.591457 202.051624 
L 348.025086 202.540351 
L 348.458714 203.04718 
L 348.892343 203.572109 
L 349.325972 204.115139 
L 349.759601 204.67627 
L 350.193229 205.255503 
L 350.626858 205.852836 
L 351.060487 206.46827 
L 351.494115 207.101806 
L 351.927744 207.753442 
L 352.361373 208.42318 
L 352.795001 209.111018 
L 353.22863 209.816957 
L 353.662259 210.540998 
L 354.095888 211.283139 
L 354.529516 212.043382 
L 354.963145 212.821725 
L 355.396774 213.618169 
L 355.830402 214.432715 
L 356.264031 215.265361 
L 356.69766 216.116109 
L 357.131289 216.984957 
L 357.564917 217.871907 
" clip-path="url(#p6e098e2305)" style="fill: none; stroke: #ffa500; stroke-linecap: round"/>
   </g>
   <g id="line2d_34">
    <path clip-path="url(#p6e098e2305)" style="fill: none; stroke: #ffa500; stroke-linecap: round"/>
   </g>
   <g id="line2d_35">
    <path clip-path="url(#p6e098e2305)" style="fill: none; stroke: #ffa500; stroke-linecap: round"/>
   </g>
   <g id="line2d_36">
    <path clip-path="url(#p6e098e2305)" style="fill: none; stroke: #ffa500; stroke-linecap: round"/>
   </g>
   <g id="line2d_37">
    <path clip-path="url(#p6e098e2305)" style="fill: none; stroke: #ffa500; stroke-linecap: round"/>
   </g>
   <g id="patch_35">
    <path d="M 297.781805 262.224 
L 297.781805 151.344 
" style="fill: none; stroke: #262626; stroke-width: 0.8; stroke-linejoin: miter; stroke-linecap: square"/>
   </g>
   <g id="patch_36">
    <path d="M 680.410376 262.224 
L 680.410376 151.344 
" style="fill: none; stroke: #262626; stroke-width: 0.8; stroke-linejoin: miter; stroke-linecap: square"/>
   </g>
   <g id="patch_37">
    <path d="M 297.781805 262.224 
L 680.410376 262.224 
" style="fill: none; stroke: #262626; stroke-width: 0.8; stroke-linejoin: miter; stroke-linecap: square"/>
   </g>
   <g id="patch_38">
    <path d="M 297.781805 151.344 
L 680.410376 151.344 
" style="fill: none; stroke: #262626; stroke-width: 0.8; stroke-linejoin: miter; stroke-linecap: square"/>
   </g>
  </g>
 </g>
 <defs>
  <clipPath id="p9a7ed23187">
   <rect x="10.810376" y="7.2" width="669.6" height="110.88"/>
  </clipPath>
  <clipPath id="p57d173e408">
   <rect x="10.810376" y="151.344" width="255.085714" height="110.88"/>
  </clipPath>
  <clipPath id="p6e098e2305">
   <rect x="297.781805" y="151.344" width="382.628571" height="110.88"/>
  </clipPath>
 </defs>
</svg>
