<?xml version="1.0" encoding="utf-8" standalone="no"?>
<!DOCTYPE svg PUBLIC "-//W3C//DTD SVG 1.1//EN"
  "http://www.w3.org/Graphics/SVG/1.1/DTD/svg11.dtd">
<svg xmlns:xlink="http://www.w3.org/1999/xlink" width="695.858838pt" height="670.6732pt" viewBox="0 0 695.858838 670.6732" xmlns="http://www.w3.org/2000/svg" version="1.1">
 <metadata>
  <rdf:RDF xmlns:dc="http://purl.org/dc/elements/1.1/" xmlns:cc="http://creativecommons.org/ns#" xmlns:rdf="http://www.w3.org/1999/02/22-rdf-syntax-ns#">
   <cc:Work>
    <dc:type rdf:resource="http://purl.org/dc/dcmitype/StillImage"/>
    <dc:date>2026-02-13T14:50:51.531537</dc:date>
    <dc:format>image/svg+xml</dc:format>
    <dc:creator>
     <cc:Agent>
      <dc:title>Matplotlib v3.10.8, https://matplotlib.org/</dc:title>
     </cc:Agent>
    </dc:creator>
   </cc:Work>
  </rdf:RDF>
 </metadata>
 <defs>
  <style type="text/css">*{stroke-linejoin: round; stroke-linecap: butt}</style>
 </defs>
 <g id="figure_1">
  <g id="patch_1">
   <path d="M 0 670.6732 
L 695.858838 670.6732 
L 695.858838 0 
L 0 0 
z
" style="fill: #ffffff"/>
  </g>
  <g id="axes_1">
   <g id="patch_2">
    <path d="M 19.058838 41.3066 
L 688.658838 41.3066 
L 688.658838 30.4166 
L 19.058838 30.4166 
z
" style="fill: #ffffff"/>
   </g>
   <g id="matplotlib.axis_1">
    <g id="xtick_1">
     <g id="line2d_1">
      <defs>
       <path id="m476108f566" d="M 0 0 
L 0 -3.84 
" style="stroke: #262626; stroke-width: 0.8"/>
      </defs>
      <g>
       <use xlink:href="#m476108f566" x="19.863787" y="30.4166" style="fill: #262626; stroke: #262626; stroke-width: 0.8"/>
      </g>
     </g>
     <g id="text_1">
      <!-- 0.0 -->
      <g style="fill: #262626" transform="translate(14.970987 21.6774) scale(0.0704 -0.0704)">
       <defs>
        <path id="ArialMT-30" d="M 266 2259 
Q 266 3072 433 3567 
Q 600 4063 929 4331 
Q 1259 4600 1759 4600 
Q 2128 4600 2406 4451 
Q 2684 4303 2865 4023 
Q 3047 3744 3150 3342 
Q 3253 2941 3253 2259 
Q 3253 1453 3087 958 
Q 2922 463 2592 192 
Q 2263 -78 1759 -78 
Q 1097 -78 719 397 
Q 266 969 266 2259 
z
M 844 2259 
Q 844 1131 1108 757 
Q 1372 384 1759 384 
Q 2147 384 2411 759 
Q 2675 1134 2675 2259 
Q 2675 3391 2411 3762 
Q 2147 4134 1753 4134 
Q 1366 4134 1134 3806 
Q 844 3388 844 2259 
z
" transform="scale(0.015625)"/>
        <path id="ArialMT-2e" d="M 581 0 
L 581 641 
L 1222 641 
L 1222 0 
L 581 0 
z
" transform="scale(0.015625)"/>
       </defs>
       <use xlink:href="#ArialMT-30"/>
       <use xlink:href="#ArialMT-2e" transform="translate(55.615234 0)"/>
       <use xlink:href="#ArialMT-30" transform="translate(83.398438 0)"/>
      </g>
     </g>
    </g>
    <g id="xtick_2">
     <g id="line2d_2">
      <g>
       <use xlink:href="#m476108f566" x="154.021825" y="30.4166" style="fill: #262626; stroke: #262626; stroke-width: 0.8"/>
      </g>
     </g>
     <g id="text_2">
      <!-- 0.5 -->
      <g style="fill: #262626" transform="translate(149.129025 21.6774) scale(0.0704 -0.0704)">
       <defs>
        <path id="ArialMT-35" d="M 266 1200 
L 856 1250 
Q 922 819 1161 601 
Q 1400 384 1738 384 
Q 2144 384 2425 690 
Q 2706 997 2706 1503 
Q 2706 1984 2436 2262 
Q 2166 2541 1728 2541 
Q 1456 2541 1237 2417 
Q 1019 2294 894 2097 
L 366 2166 
L 809 4519 
L 3088 4519 
L 3088 3981 
L 1259 3981 
L 1013 2750 
Q 1425 3038 1878 3038 
Q 2478 3038 2890 2622 
Q 3303 2206 3303 1553 
Q 3303 931 2941 478 
Q 2500 -78 1738 -78 
Q 1113 -78 717 272 
Q 322 622 266 1200 
z
" transform="scale(0.015625)"/>
       </defs>
       <use xlink:href="#ArialMT-30"/>
       <use xlink:href="#ArialMT-2e" transform="translate(55.615234 0)"/>
       <use xlink:href="#ArialMT-35" transform="translate(83.398438 0)"/>
      </g>
     </g>
    </g>
    <g id="xtick_3">
     <g id="line2d_3">
      <g>
       <use xlink:href="#m476108f566" x="288.179863" y="30.4166" style="fill: #262626; stroke: #262626; stroke-width: 0.8"/>
      </g>
     </g>
     <g id="text_3">
      <!-- 1.0 -->
      <g style="fill: #262626" transform="translate(283.287063 21.6774) scale(0.0704 -0.0704)">
       <defs>
        <path id="ArialMT-31" d="M 2384 0 
L 1822 0 
L 1822 3584 
Q 1619 3391 1289 3197 
Q 959 3003 697 2906 
L 697 3450 
Q 1169 3672 1522 3987 
Q 1875 4303 2022 4600 
L 2384 4600 
L 2384 0 
z
" transform="scale(0.015625)"/>
       </defs>
       <use xlink:href="#ArialMT-31"/>
       <use xlink:href="#ArialMT-2e" transform="translate(55.615234 0)"/>
       <use xlink:href="#ArialMT-30" transform="translate(83.398438 0)"/>
      </g>
     </g>
    </g>
    <g id="xtick_4">
     <g id="line2d_4">
      <g>
       <use xlink:href="#m476108f566" x="422.337901" y="30.4166" style="fill: #262626; stroke: #262626; stroke-width: 0.8"/>
      </g>
     </g>
     <g id="text_4">
      <!-- 1.5 -->
      <g style="fill: #262626" transform="translate(417.445101 21.6774) scale(0.0704 -0.0704)">
       <use xlink:href="#ArialMT-31"/>
       <use xlink:href="#ArialMT-2e" transform="translate(55.615234 0)"/>
       <use xlink:href="#ArialMT-35" transform="translate(83.398438 0)"/>
      </g>
     </g>
    </g>
    <g id="xtick_5">
     <g id="line2d_5">
      <g>
       <use xlink:href="#m476108f566" x="556.495939" y="30.4166" style="fill: #262626; stroke: #262626; stroke-width: 0.8"/>
      </g>
     </g>
     <g id="text_5">
      <!-- 2.0 -->
      <g style="fill: #262626" transform="translate(551.603139 21.6774) scale(0.0704 -0.0704)">
       <defs>
        <path id="ArialMT-32" d="M 3222 541 
L 3222 0 
L 194 0 
Q 188 203 259 391 
Q 375 700 629 1000 
Q 884 1300 1366 1694 
Q 2113 2306 2375 2664 
Q 2638 3022 2638 3341 
Q 2638 3675 2398 3904 
Q 2159 4134 1775 4134 
Q 1369 4134 1125 3890 
Q 881 3647 878 3216 
L 300 3275 
Q 359 3922 746 4261 
Q 1134 4600 1788 4600 
Q 2447 4600 2831 4234 
Q 3216 3869 3216 3328 
Q 3216 3053 3103 2787 
Q 2991 2522 2730 2228 
Q 2469 1934 1863 1422 
Q 1356 997 1212 845 
Q 1069 694 975 541 
L 3222 541 
z
" transform="scale(0.015625)"/>
       </defs>
       <use xlink:href="#ArialMT-32"/>
       <use xlink:href="#ArialMT-2e" transform="translate(55.615234 0)"/>
       <use xlink:href="#ArialMT-30" transform="translate(83.398438 0)"/>
      </g>
     </g>
    </g>
    <g id="text_6">
     <!-- 1e8 -->
     <g style="fill: #262626" transform="translate(676.914138 12.2391) scale(0.0704 -0.0704)">
      <defs>
       <path id="ArialMT-65" d="M 2694 1069 
L 3275 997 
Q 3138 488 2766 206 
Q 2394 -75 1816 -75 
Q 1088 -75 661 373 
Q 234 822 234 1631 
Q 234 2469 665 2931 
Q 1097 3394 1784 3394 
Q 2450 3394 2872 2941 
Q 3294 2488 3294 1666 
Q 3294 1616 3291 1516 
L 816 1516 
Q 847 969 1125 678 
Q 1403 388 1819 388 
Q 2128 388 2347 550 
Q 2566 713 2694 1069 
z
M 847 1978 
L 2700 1978 
Q 2663 2397 2488 2606 
Q 2219 2931 1791 2931 
Q 1403 2931 1139 2672 
Q 875 2413 847 1978 
z
" transform="scale(0.015625)"/>
       <path id="ArialMT-38" d="M 1131 2484 
Q 781 2613 612 2850 
Q 444 3088 444 3419 
Q 444 3919 803 4259 
Q 1163 4600 1759 4600 
Q 2359 4600 2725 4251 
Q 3091 3903 3091 3403 
Q 3091 3084 2923 2848 
Q 2756 2613 2416 2484 
Q 2838 2347 3058 2040 
Q 3278 1734 3278 1309 
Q 3278 722 2862 322 
Q 2447 -78 1769 -78 
Q 1091 -78 675 323 
Q 259 725 259 1325 
Q 259 1772 486 2073 
Q 713 2375 1131 2484 
z
M 1019 3438 
Q 1019 3113 1228 2906 
Q 1438 2700 1772 2700 
Q 2097 2700 2305 2904 
Q 2513 3109 2513 3406 
Q 2513 3716 2298 3927 
Q 2084 4138 1766 4138 
Q 1444 4138 1231 3931 
Q 1019 3725 1019 3438 
z
M 838 1322 
Q 838 1081 952 856 
Q 1066 631 1291 507 
Q 1516 384 1775 384 
Q 2178 384 2440 643 
Q 2703 903 2703 1303 
Q 2703 1709 2433 1975 
Q 2163 2241 1756 2241 
Q 1359 2241 1098 1978 
Q 838 1716 838 1322 
z
" transform="scale(0.015625)"/>
      </defs>
      <use xlink:href="#ArialMT-31"/>
      <use xlink:href="#ArialMT-65" transform="translate(55.615234 0)"/>
      <use xlink:href="#ArialMT-38" transform="translate(111.230469 0)"/>
     </g>
    </g>
   </g>
   <g id="matplotlib.axis_2">
    <g id="ytick_1"/>
    <g id="ytick_2"/>
   </g>
   <g id="patch_3">
    <path d="M 19.058838 30.4166 
L 688.658838 30.4166 
" style="fill: none; stroke: #262626; stroke-width: 0.8; stroke-linejoin: miter; stroke-linecap: square"/>
   </g>
  </g>
  <g id="axes_2">
   <g id="patch_4">
    <path d="M 19.058838 68.5316 
L 688.658838 68.5316 
L 688.658838 41.3066 
L 19.058838 41.3066 
z
" style="fill: #ffffff"/>
   </g>
   <g id="patch_5">
    <path d="M 19.863787 57.608872 
L 347.280394 57.608872 
L 347.280394 52.163872 
L 19.863787 52.163872 
z
" clip-path="url(#p500f2f452d)" style="fill: #ebeaea"/>
   </g>
   <g id="patch_6">
    <path d="M 355.07837 57.608872 
L 687.85389 57.608872 
L 687.85389 52.163872 
L 355.07837 52.163872 
z
" clip-path="url(#p500f2f452d)" style="fill: #ebeaea"/>
   </g>
   <g id="patch_7">
    <path d="M 611.391096 57.608872 
L 675.083126 57.608872 
L 675.083126 52.163872 
L 611.391096 52.163872 
z
" clip-path="url(#p500f2f452d)" style="fill: #1f77b4; opacity: 0.801127"/>
   </g>
   <g id="patch_8">
    <path d="M 439.620046 57.608872 
L 488.702913 57.608872 
L 488.702913 52.163872 
L 439.620046 52.163872 
z
" clip-path="url(#p500f2f452d)" style="fill: #1f77b4; opacity: 0.888967"/>
   </g>
   <g id="patch_9">
    <path d="M 405.835738 57.608872 
L 416.75859 57.608872 
L 416.75859 52.163872 
L 405.835738 52.163872 
z
" clip-path="url(#p500f2f452d)" style="fill: #1f77b4; opacity: 0.838428"/>
   </g>
   <g id="patch_10">
    <path d="M 332.199469 57.608872 
L 385.347157 57.608872 
L 385.347157 52.163872 
L 332.199469 52.163872 
z
" clip-path="url(#p500f2f452d)" style="fill: #1f77b4; opacity: 0.494359"/>
   </g>
   <g id="patch_11">
    <path d="M 321.054574 57.608872 
L 325.62606 57.608872 
L 325.62606 52.163872 
L 321.054574 52.163872 
z
" clip-path="url(#p500f2f452d)" style="fill: #1f77b4; opacity: 0.286505"/>
   </g>
   <g id="patch_12">
    <path d="M 283.253234 57.608872 
L 304.237571 57.608872 
L 304.237571 52.163872 
L 283.253234 52.163872 
z
" clip-path="url(#p500f2f452d)" style="fill: #1f77b4; opacity: 0.005407"/>
   </g>
   <g id="patch_13">
    <path d="M 193.202632 57.608872 
L 253.106109 57.608872 
L 253.106109 52.163872 
L 193.202632 52.163872 
z
" clip-path="url(#p500f2f452d)" style="fill: #1f77b4; opacity: 0.459538"/>
   </g>
   <g id="patch_14">
    <path d="M 128.513732 57.608872 
L 174.501328 57.608872 
L 174.501328 52.163872 
L 128.513732 52.163872 
z
" clip-path="url(#p500f2f452d)" style="fill: #1f77b4; opacity: 0.299947"/>
   </g>
   <g id="patch_15">
    <path d="M 85.200332 57.608872 
L 87.661466 57.608872 
L 87.661466 52.163872 
L 85.200332 52.163872 
z
" clip-path="url(#p500f2f452d)" style="fill: #1f77b4; opacity: 0.697826"/>
   </g>
   <g id="patch_16">
    <path d="M 72.036418 57.608872 
L 81.767753 57.608872 
L 81.767753 52.163872 
L 72.036418 52.163872 
z
" clip-path="url(#p500f2f452d)" style="fill: #1f77b4; opacity: 0.233982"/>
   </g>
   <g id="patch_17">
    <path d="M 61.637828 57.608872 
L 70.177537 57.608872 
L 70.177537 52.163872 
L 61.637828 52.163872 
z
" clip-path="url(#p500f2f452d)" style="fill: #1f77b4; opacity: 0.995803"/>
   </g>
   <g id="patch_18">
    <path d="M 46.870242 57.608872 
L 54.64235 57.608872 
L 54.64235 52.163872 
L 46.870242 52.163872 
z
" clip-path="url(#p500f2f452d)" style="fill: #1f77b4; opacity: 0.819802"/>
   </g>
   <g id="patch_19">
    <path d="M 19.863787 57.608872 
L 347.280394 57.608872 
L 347.280394 52.163872 
L 19.863787 52.163872 
L 19.863787 57.608872 
z
" clip-path="url(#p500f2f452d)" style="fill: none; stroke: #000000; stroke-width: 0.7; stroke-linejoin: miter"/>
   </g>
   <g id="patch_20">
    <path d="M 355.07837 57.608872 
L 687.85389 57.608872 
L 687.85389 52.163872 
L 355.07837 52.163872 
L 355.07837 57.608872 
z
" clip-path="url(#p500f2f452d)" style="fill: none; stroke: #000000; stroke-width: 0.7; stroke-linejoin: miter"/>
   </g>
   <g id="matplotlib.axis_3">
    <g id="xtick_6"/>
    <g id="xtick_7"/>
    <g id="xtick_8"/>
    <g id="xtick_9"/>
    <g id="xtick_10"/>
   </g>
   <g id="matplotlib.axis_4">
    <g id="ytick_3"/>
    <g id="ytick_4"/>
   </g>
   <g id="patch_21">
    <path d="M 347.280394 57.608872 
L 347.280394 52.163872 
L 355.07837 57.608872 
L 355.07837 52.163872 
z
" clip-path="url(#p500f2f452d)" style="fill: #777777; stroke: #777777; stroke-width: 0.64; stroke-linejoin: miter"/>
   </g>
   <g id="text_7">
    <!-- 1 -->
    <g style="fill: #262626" transform="translate(11.092656 56.700903) scale(0.07 -0.07)">
     <defs>
      <path id="Arial-BoldMT-31" d="M 2519 0 
L 1641 0 
L 1641 3309 
Q 1159 2859 506 2644 
L 506 3441 
Q 850 3553 1253 3867 
Q 1656 4181 1806 4600 
L 2519 4600 
L 2519 0 
z
" transform="scale(0.015625)"/>
     </defs>
     <use xlink:href="#Arial-BoldMT-31"/>
    </g>
   </g>
  </g>
  <g id="axes_3">
   <g id="patch_22">
    <path d="M 19.058838 95.7566 
L 688.658838 95.7566 
L 688.658838 68.5316 
L 19.058838 68.5316 
z
" style="fill: #ffffff"/>
   </g>
   <g id="patch_23">
    <path d="M 19.863787 84.833872 
L 267.2194 84.833872 
L 267.2194 79.388872 
L 19.863787 79.388872 
z
" clip-path="url(#pd19a7efc9f)" style="fill: #ebeaea"/>
   </g>
   <g id="patch_24">
    <path d="M 272.323877 84.833872 
L 669.707961 84.833872 
L 669.707961 79.388872 
L 272.323877 79.388872 
z
" clip-path="url(#pd19a7efc9f)" style="fill: #ebeaea"/>
   </g>
   <g id="patch_25">
    <path d="M 615.40856 84.833872 
L 638.180401 84.833872 
L 638.180401 79.388872 
L 615.40856 79.388872 
z
" clip-path="url(#pd19a7efc9f)" style="fill: #1f77b4; opacity: 0.215558"/>
   </g>
   <g id="patch_26">
    <path d="M 471.776005 84.833872 
L 474.07556 84.833872 
L 474.07556 79.388872 
L 471.776005 79.388872 
z
" clip-path="url(#pd19a7efc9f)" style="fill: #1f77b4; opacity: 0.896337"/>
   </g>
   <g id="patch_27">
    <path d="M 439.770501 84.833872 
L 441.603208 84.833872 
L 441.603208 79.388872 
L 439.770501 79.388872 
z
" clip-path="url(#pd19a7efc9f)" style="fill: #1f77b4; opacity: 0.306481"/>
   </g>
   <g id="patch_28">
    <path d="M 431.067503 84.833872 
L 435.525347 84.833872 
L 435.525347 79.388872 
L 431.067503 79.388872 
z
" clip-path="url(#pd19a7efc9f)" style="fill: #1f77b4; opacity: 0.309037"/>
   </g>
   <g id="patch_29">
    <path d="M 420.80473 84.833872 
L 427.13491 84.833872 
L 427.13491 79.388872 
L 420.80473 79.388872 
z
" clip-path="url(#pd19a7efc9f)" style="fill: #1f77b4; opacity: 0.54073"/>
   </g>
   <g id="patch_30">
    <path d="M 321.75098 84.833872 
L 409.29576 84.833872 
L 409.29576 79.388872 
L 321.75098 79.388872 
z
" clip-path="url(#pd19a7efc9f)" style="fill: #1f77b4; opacity: 0.488013"/>
   </g>
   <g id="patch_31">
    <path d="M 228.456464 84.833872 
L 305.575076 84.833872 
L 305.575076 79.388872 
L 228.456464 79.388872 
z
" clip-path="url(#pd19a7efc9f)" style="fill: #1f77b4; opacity: 0.314711"/>
   </g>
   <g id="patch_32">
    <path d="M 179.099185 84.833872 
L 180.652874 84.833872 
L 180.652874 79.388872 
L 179.099185 79.388872 
z
" clip-path="url(#pd19a7efc9f)" style="fill: #1f77b4; opacity: 0.49495"/>
   </g>
   <g id="patch_33">
    <path d="M 115.783677 84.833872 
L 123.764298 84.833872 
L 123.764298 79.388872 
L 115.783677 79.388872 
z
" clip-path="url(#pd19a7efc9f)" style="fill: #1f77b4; opacity: 0.280575"/>
   </g>
   <g id="patch_34">
    <path d="M 104.704289 84.833872 
L 109.032823 84.833872 
L 109.032823 79.388872 
L 104.704289 79.388872 
z
" clip-path="url(#pd19a7efc9f)" style="fill: #1f77b4; opacity: 0.901138"/>
   </g>
   <g id="patch_35">
    <path d="M 62.438451 84.833872 
L 64.420266 84.833872 
L 64.420266 79.388872 
L 62.438451 79.388872 
z
" clip-path="url(#pd19a7efc9f)" style="fill: #1f77b4; opacity: 0.421058"/>
   </g>
   <g id="patch_36">
    <path d="M 53.415217 84.833872 
L 55.580759 84.833872 
L 55.580759 79.388872 
L 53.415217 79.388872 
z
" clip-path="url(#pd19a7efc9f)" style="fill: #1f77b4; opacity: 0.562408"/>
   </g>
   <g id="patch_37">
    <path d="M 19.863787 84.833872 
L 267.2194 84.833872 
L 267.2194 79.388872 
L 19.863787 79.388872 
L 19.863787 84.833872 
z
" clip-path="url(#pd19a7efc9f)" style="fill: none; stroke: #000000; stroke-width: 0.7; stroke-linejoin: miter"/>
   </g>
   <g id="patch_38">
    <path d="M 272.323877 84.833872 
L 669.707961 84.833872 
L 669.707961 79.388872 
L 272.323877 79.388872 
L 272.323877 84.833872 
z
" clip-path="url(#pd19a7efc9f)" style="fill: none; stroke: #000000; stroke-width: 0.7; stroke-linejoin: miter"/>
   </g>
   <g id="matplotlib.axis_5">
    <g id="xtick_11"/>
    <g id="xtick_12"/>
    <g id="xtick_13"/>
    <g id="xtick_14"/>
    <g id="xtick_15"/>
   </g>
   <g id="matplotlib.axis_6">
    <g id="ytick_5"/>
    <g id="ytick_6"/>
   </g>
   <g id="patch_39">
    <path d="M 267.2194 84.833872 
L 267.2194 79.388872 
L 272.323877 84.833872 
L 272.323877 79.388872 
z
" clip-path="url(#pd19a7efc9f)" style="fill: #777777; stroke: #777777; stroke-width: 0.64; stroke-linejoin: miter"/>
   </g>
   <g id="text_8">
    <!-- 2 -->
    <g style="fill: #262626" transform="translate(11.092656 83.925903) scale(0.07 -0.07)">
     <defs>
      <path id="Arial-BoldMT-32" d="M 3238 816 
L 3238 0 
L 159 0 
Q 209 463 459 877 
Q 709 1291 1447 1975 
Q 2041 2528 2175 2725 
Q 2356 2997 2356 3263 
Q 2356 3556 2198 3714 
Q 2041 3872 1763 3872 
Q 1488 3872 1325 3706 
Q 1163 3541 1138 3156 
L 263 3244 
Q 341 3969 753 4284 
Q 1166 4600 1784 4600 
Q 2463 4600 2850 4234 
Q 3238 3869 3238 3325 
Q 3238 3016 3127 2736 
Q 3016 2456 2775 2150 
Q 2616 1947 2200 1565 
Q 1784 1184 1673 1059 
Q 1563 934 1494 816 
L 3238 816 
z
" transform="scale(0.015625)"/>
     </defs>
     <use xlink:href="#Arial-BoldMT-32"/>
    </g>
   </g>
  </g>
  <g id="axes_4">
   <g id="patch_40">
    <path d="M 19.058838 122.9816 
L 688.658838 122.9816 
L 688.658838 95.7566 
L 19.058838 95.7566 
z
" style="fill: #ffffff"/>
   </g>
   <g id="patch_41">
    <path d="M 19.863787 112.058872 
L 263.420884 112.058872 
L 263.420884 106.613872 
L 19.863787 106.613872 
z
" clip-path="url(#p7cff53a04e)" style="fill: #ebeaea"/>
   </g>
   <g id="patch_42">
    <path d="M 271.156748 112.058872 
L 551.92265 112.058872 
L 551.92265 106.613872 
L 271.156748 106.613872 
z
" clip-path="url(#p7cff53a04e)" style="fill: #ebeaea"/>
   </g>
   <g id="patch_43">
    <path d="M 480.044715 112.058872 
L 511.079969 112.058872 
L 511.079969 106.613872 
L 480.044715 106.613872 
z
" clip-path="url(#p7cff53a04e)" style="fill: #1f77b4; opacity: 0.387916"/>
   </g>
   <g id="patch_44">
    <path d="M 438.764493 112.058872 
L 465.708842 112.058872 
L 465.708842 106.613872 
L 438.764493 106.613872 
z
" clip-path="url(#p7cff53a04e)" style="fill: #1f77b4; opacity: 0.601659"/>
   </g>
   <g id="patch_45">
    <path d="M 426.353144 112.058872 
L 431.276878 112.058872 
L 431.276878 106.613872 
L 426.353144 106.613872 
z
" clip-path="url(#p7cff53a04e)" style="fill: #1f77b4; opacity: 0.243518"/>
   </g>
   <g id="patch_46">
    <path d="M 414.379738 112.058872 
L 423.392161 112.058872 
L 423.392161 106.613872 
L 414.379738 106.613872 
z
" clip-path="url(#p7cff53a04e)" style="fill: #1f77b4; opacity: 0.280288"/>
   </g>
   <g id="patch_47">
    <path d="M 288.085158 112.058872 
L 377.409045 112.058872 
L 377.409045 106.613872 
L 288.085158 106.613872 
z
" clip-path="url(#p7cff53a04e)" style="fill: #1f77b4; opacity: 0.69862"/>
   </g>
   <g id="patch_48">
    <path d="M 168.206679 112.058872 
L 242.049512 112.058872 
L 242.049512 106.613872 
L 168.206679 106.613872 
z
" clip-path="url(#p7cff53a04e)" style="fill: #1f77b4; opacity: 0.133155"/>
   </g>
   <g id="patch_49">
    <path d="M 150.032952 112.058872 
L 155.178922 112.058872 
L 155.178922 106.613872 
L 150.032952 106.613872 
z
" clip-path="url(#p7cff53a04e)" style="fill: #1f77b4; opacity: 0.556464"/>
   </g>
   <g id="patch_50">
    <path d="M 90.038693 112.058872 
L 94.090225 112.058872 
L 94.090225 106.613872 
L 90.038693 106.613872 
z
" clip-path="url(#p7cff53a04e)" style="fill: #1f77b4; opacity: 0.55215"/>
   </g>
   <g id="patch_51">
    <path d="M 62.791855 112.058872 
L 65.08789 112.058872 
L 65.08789 106.613872 
L 62.791855 106.613872 
z
" clip-path="url(#p7cff53a04e)" style="fill: #1f77b4; opacity: 0.09024"/>
   </g>
   <g id="patch_52">
    <path d="M 19.863787 112.058872 
L 263.420884 112.058872 
L 263.420884 106.613872 
L 19.863787 106.613872 
L 19.863787 112.058872 
z
" clip-path="url(#p7cff53a04e)" style="fill: none; stroke: #000000; stroke-width: 0.7; stroke-linejoin: miter"/>
   </g>
   <g id="patch_53">
    <path d="M 271.156748 112.058872 
L 551.92265 112.058872 
L 551.92265 106.613872 
L 271.156748 106.613872 
L 271.156748 112.058872 
z
" clip-path="url(#p7cff53a04e)" style="fill: none; stroke: #000000; stroke-width: 0.7; stroke-linejoin: miter"/>
   </g>
   <g id="matplotlib.axis_7">
    <g id="xtick_16"/>
    <g id="xtick_17"/>
    <g id="xtick_18"/>
    <g id="xtick_19"/>
    <g id="xtick_20"/>
   </g>
   <g id="matplotlib.axis_8">
    <g id="ytick_7"/>
    <g id="ytick_8"/>
   </g>
   <g id="patch_54">
    <path d="M 263.420884 112.058872 
L 263.420884 106.613872 
L 271.156748 112.058872 
L 271.156748 106.613872 
z
" clip-path="url(#p7cff53a04e)" style="fill: #777777; stroke: #777777; stroke-width: 0.64; stroke-linejoin: miter"/>
   </g>
   <g id="text_9">
    <!-- 3 -->
    <g style="fill: #262626" transform="translate(11.092656 111.150903) scale(0.07 -0.07)">
     <defs>
      <path id="Arial-BoldMT-33" d="M 241 1216 
L 1091 1319 
Q 1131 994 1309 822 
Q 1488 650 1741 650 
Q 2013 650 2198 856 
Q 2384 1063 2384 1413 
Q 2384 1744 2206 1937 
Q 2028 2131 1772 2131 
Q 1603 2131 1369 2066 
L 1466 2781 
Q 1822 2772 2009 2936 
Q 2197 3100 2197 3372 
Q 2197 3603 2059 3740 
Q 1922 3878 1694 3878 
Q 1469 3878 1309 3722 
Q 1150 3566 1116 3266 
L 306 3403 
Q 391 3819 561 4067 
Q 731 4316 1036 4458 
Q 1341 4600 1719 4600 
Q 2366 4600 2756 4188 
Q 3078 3850 3078 3425 
Q 3078 2822 2419 2463 
Q 2813 2378 3048 2084 
Q 3284 1791 3284 1375 
Q 3284 772 2843 347 
Q 2403 -78 1747 -78 
Q 1125 -78 715 280 
Q 306 638 241 1216 
z
" transform="scale(0.015625)"/>
     </defs>
     <use xlink:href="#Arial-BoldMT-33"/>
    </g>
   </g>
  </g>
  <g id="axes_5">
   <g id="patch_55">
    <path d="M 19.058838 150.2066 
L 688.658838 150.2066 
L 688.658838 122.9816 
L 19.058838 122.9816 
z
" style="fill: #ffffff"/>
   </g>
   <g id="patch_56">
    <path d="M 19.863787 139.283872 
L 153.249238 139.283872 
L 153.249238 133.838872 
L 19.863787 133.838872 
z
" clip-path="url(#p7e579303ca)" style="fill: #ebeaea"/>
   </g>
   <g id="patch_57">
    <path d="M 158.701126 139.283872 
L 530.240017 139.283872 
L 530.240017 133.838872 
L 158.701126 133.838872 
z
" clip-path="url(#p7e579303ca)" style="fill: #ebeaea"/>
   </g>
   <g id="patch_58">
    <path d="M 441.617927 139.283872 
L 509.925598 139.283872 
L 509.925598 133.838872 
L 441.617927 133.838872 
z
" clip-path="url(#p7e579303ca)" style="fill: #1f77b4; opacity: 0.492556"/>
   </g>
   <g id="patch_59">
    <path d="M 402.838208 139.283872 
L 433.595612 139.283872 
L 433.595612 133.838872 
L 402.838208 133.838872 
z
" clip-path="url(#p7e579303ca)" style="fill: #1f77b4; opacity: 0.501397"/>
   </g>
   <g id="patch_60">
    <path d="M 376.474055 139.283872 
L 398.139446 139.283872 
L 398.139446 133.838872 
L 376.474055 133.838872 
z
" clip-path="url(#p7e579303ca)" style="fill: #1f77b4; opacity: 0.395486"/>
   </g>
   <g id="patch_61">
    <path d="M 346.272319 139.283872 
L 355.216083 139.283872 
L 355.216083 133.838872 
L 346.272319 133.838872 
z
" clip-path="url(#p7e579303ca)" style="fill: #1f77b4; opacity: 0.519855"/>
   </g>
   <g id="patch_62">
    <path d="M 280.295462 139.283872 
L 327.839488 139.283872 
L 327.839488 133.838872 
L 280.295462 133.838872 
z
" clip-path="url(#p7e579303ca)" style="fill: #1f77b4; opacity: 0.137607"/>
   </g>
   <g id="patch_63">
    <path d="M 246.130006 139.283872 
L 267.254032 139.283872 
L 267.254032 133.838872 
L 246.130006 133.838872 
z
" clip-path="url(#p7e579303ca)" style="fill: #1f77b4; opacity: 0.589464"/>
   </g>
   <g id="patch_64">
    <path d="M 235.504292 139.283872 
L 236.388177 139.283872 
L 236.388177 133.838872 
L 235.504292 133.838872 
z
" clip-path="url(#p7e579303ca)" style="fill: #1f77b4; opacity: 0.617862"/>
   </g>
   <g id="patch_65">
    <path d="M 195.675639 139.283872 
L 198.794395 139.283872 
L 198.794395 133.838872 
L 195.675639 133.838872 
z
" clip-path="url(#p7e579303ca)" style="fill: #1f77b4; opacity: 0.886022"/>
   </g>
   <g id="patch_66">
    <path d="M 78.820307 139.283872 
L 149.341773 139.283872 
L 149.341773 133.838872 
L 78.820307 133.838872 
z
" clip-path="url(#p7e579303ca)" style="fill: #1f77b4; opacity: 0.641533"/>
   </g>
   <g id="patch_67">
    <path d="M 19.863787 139.283872 
L 153.249238 139.283872 
L 153.249238 133.838872 
L 19.863787 133.838872 
L 19.863787 139.283872 
z
" clip-path="url(#p7e579303ca)" style="fill: none; stroke: #000000; stroke-width: 0.7; stroke-linejoin: miter"/>
   </g>
   <g id="patch_68">
    <path d="M 158.701126 139.283872 
L 530.240017 139.283872 
L 530.240017 133.838872 
L 158.701126 133.838872 
L 158.701126 139.283872 
z
" clip-path="url(#p7e579303ca)" style="fill: none; stroke: #000000; stroke-width: 0.7; stroke-linejoin: miter"/>
   </g>
   <g id="matplotlib.axis_9">
    <g id="xtick_21"/>
    <g id="xtick_22"/>
    <g id="xtick_23"/>
    <g id="xtick_24"/>
    <g id="xtick_25"/>
   </g>
   <g id="matplotlib.axis_10">
    <g id="ytick_9"/>
    <g id="ytick_10"/>
   </g>
   <g id="patch_69">
    <path d="M 153.249238 139.283872 
L 153.249238 133.838872 
L 158.701126 139.283872 
L 158.701126 133.838872 
z
" clip-path="url(#p7e579303ca)" style="fill: #777777; stroke: #777777; stroke-width: 0.64; stroke-linejoin: miter"/>
   </g>
   <g id="text_10">
    <!-- 4 -->
    <g style="fill: #262626" transform="translate(11.092656 138.375903) scale(0.07 -0.07)">
     <defs>
      <path id="Arial-BoldMT-34" d="M 1994 0 
L 1994 922 
L 119 922 
L 119 1691 
L 2106 4600 
L 2844 4600 
L 2844 1694 
L 3413 1694 
L 3413 922 
L 2844 922 
L 2844 0 
L 1994 0 
z
M 1994 1694 
L 1994 3259 
L 941 1694 
L 1994 1694 
z
" transform="scale(0.015625)"/>
     </defs>
     <use xlink:href="#Arial-BoldMT-34"/>
    </g>
   </g>
  </g>
  <g id="axes_6">
   <g id="patch_70">
    <path d="M 19.058838 177.4316 
L 688.658838 177.4316 
L 688.658838 150.2066 
L 19.058838 150.2066 
z
" style="fill: #ffffff"/>
   </g>
   <g id="patch_71">
    <path d="M 19.863787 166.508872 
L 144.59293 166.508872 
L 144.59293 161.063872 
L 19.863787 161.063872 
z
" clip-path="url(#p07b83fc50f)" style="fill: #ebeaea"/>
   </g>
   <g id="patch_72">
    <path d="M 154.182297 166.508872 
L 506.96012 166.508872 
L 506.96012 161.063872 
L 154.182297 161.063872 
z
" clip-path="url(#p07b83fc50f)" style="fill: #ebeaea"/>
   </g>
   <g id="patch_73">
    <path d="M 458.469857 166.508872 
L 501.149924 166.508872 
L 501.149924 161.063872 
L 458.469857 161.063872 
z
" clip-path="url(#p07b83fc50f)" style="fill: #1f77b4; opacity: 0.921947"/>
   </g>
   <g id="patch_74">
    <path d="M 421.820907 166.508872 
L 432.588861 166.508872 
L 432.588861 161.063872 
L 421.820907 161.063872 
z
" clip-path="url(#p07b83fc50f)" style="fill: #1f77b4; opacity: 0.660614"/>
   </g>
   <g id="patch_75">
    <path d="M 372.042139 166.508872 
L 388.586215 166.508872 
L 388.586215 161.063872 
L 372.042139 161.063872 
z
" clip-path="url(#p07b83fc50f)" style="fill: #1f77b4; opacity: 0.637744"/>
   </g>
   <g id="patch_76">
    <path d="M 323.594339 166.508872 
L 343.139075 166.508872 
L 343.139075 161.063872 
L 323.594339 161.063872 
z
" clip-path="url(#p07b83fc50f)" style="fill: #1f77b4; opacity: 0.208375"/>
   </g>
   <g id="patch_77">
    <path d="M 266.231356 166.508872 
L 321.019041 166.508872 
L 321.019041 161.063872 
L 266.231356 161.063872 
z
" clip-path="url(#p07b83fc50f)" style="fill: #1f77b4; opacity: 0.042932"/>
   </g>
   <g id="patch_78">
    <path d="M 227.252537 166.508872 
L 245.842151 166.508872 
L 245.842151 161.063872 
L 227.252537 161.063872 
z
" clip-path="url(#p07b83fc50f)" style="fill: #1f77b4; opacity: 0.030138"/>
   </g>
   <g id="patch_79">
    <path d="M 129.331479 166.508872 
L 138.678645 166.508872 
L 138.678645 161.063872 
L 129.331479 161.063872 
z
" clip-path="url(#p07b83fc50f)" style="fill: #1f77b4; opacity: 0.4299"/>
   </g>
   <g id="patch_80">
    <path d="M 75.77036 166.508872 
L 104.901311 166.508872 
L 104.901311 161.063872 
L 75.77036 161.063872 
z
" clip-path="url(#p07b83fc50f)" style="fill: #1f77b4; opacity: 0.5527"/>
   </g>
   <g id="patch_81">
    <path d="M 48.103026 166.508872 
L 72.587112 166.508872 
L 72.587112 161.063872 
L 48.103026 161.063872 
z
" clip-path="url(#p07b83fc50f)" style="fill: #1f77b4; opacity: 0.551288"/>
   </g>
   <g id="patch_82">
    <path d="M 19.863787 166.508872 
L 144.59293 166.508872 
L 144.59293 161.063872 
L 19.863787 161.063872 
L 19.863787 166.508872 
z
" clip-path="url(#p07b83fc50f)" style="fill: none; stroke: #000000; stroke-width: 0.7; stroke-linejoin: miter"/>
   </g>
   <g id="patch_83">
    <path d="M 154.182297 166.508872 
L 506.96012 166.508872 
L 506.96012 161.063872 
L 154.182297 161.063872 
L 154.182297 166.508872 
z
" clip-path="url(#p07b83fc50f)" style="fill: none; stroke: #000000; stroke-width: 0.7; stroke-linejoin: miter"/>
   </g>
   <g id="matplotlib.axis_11">
    <g id="xtick_26"/>
    <g id="xtick_27"/>
    <g id="xtick_28"/>
    <g id="xtick_29"/>
    <g id="xtick_30"/>
   </g>
   <g id="matplotlib.axis_12">
    <g id="ytick_11"/>
    <g id="ytick_12"/>
   </g>
   <g id="patch_84">
    <path d="M 144.59293 166.508872 
L 144.59293 161.063872 
L 154.182297 166.508872 
L 154.182297 161.063872 
z
" clip-path="url(#p07b83fc50f)" style="fill: #777777; stroke: #777777; stroke-width: 0.64; stroke-linejoin: miter"/>
   </g>
   <g id="text_11">
    <!-- 5 -->
    <g style="fill: #262626" transform="translate(11.092656 165.600903) scale(0.07 -0.07)">
     <defs>
      <path id="Arial-BoldMT-35" d="M 284 1178 
L 1159 1269 
Q 1197 972 1381 798 
Q 1566 625 1806 625 
Q 2081 625 2272 848 
Q 2463 1072 2463 1522 
Q 2463 1944 2273 2155 
Q 2084 2366 1781 2366 
Q 1403 2366 1103 2031 
L 391 2134 
L 841 4519 
L 3163 4519 
L 3163 3697 
L 1506 3697 
L 1369 2919 
Q 1663 3066 1969 3066 
Q 2553 3066 2959 2641 
Q 3366 2216 3366 1538 
Q 3366 972 3038 528 
Q 2591 -78 1797 -78 
Q 1163 -78 763 262 
Q 363 603 284 1178 
z
" transform="scale(0.015625)"/>
     </defs>
     <use xlink:href="#Arial-BoldMT-35"/>
    </g>
   </g>
  </g>
  <g id="axes_7">
   <g id="patch_85">
    <path d="M 19.058838 204.6566 
L 688.658838 204.6566 
L 688.658838 177.4316 
L 19.058838 177.4316 
z
" style="fill: #ffffff"/>
   </g>
   <g id="patch_86">
    <path d="M 19.863787 193.733872 
L 176.973281 193.733872 
L 176.973281 188.288872 
L 19.863787 188.288872 
z
" clip-path="url(#pf2c8ae8da6)" style="fill: #ebeaea"/>
   </g>
   <g id="patch_87">
    <path d="M 180.397118 193.733872 
L 478.163688 193.733872 
L 478.163688 188.288872 
L 180.397118 188.288872 
z
" clip-path="url(#pf2c8ae8da6)" style="fill: #ebeaea"/>
   </g>
   <g id="patch_88">
    <path d="M 436.132726 193.733872 
L 437.536486 193.733872 
L 437.536486 188.288872 
L 436.132726 188.288872 
z
" clip-path="url(#pf2c8ae8da6)" style="fill: #1f77b4; opacity: 0.19718"/>
   </g>
   <g id="patch_89">
    <path d="M 361.33571 193.733872 
L 377.596528 193.733872 
L 377.596528 188.288872 
L 361.33571 188.288872 
z
" clip-path="url(#pf2c8ae8da6)" style="fill: #1f77b4; opacity: 0.61686"/>
   </g>
   <g id="patch_90">
    <path d="M 340.838994 193.733872 
L 348.448178 193.733872 
L 348.448178 188.288872 
L 340.838994 188.288872 
z
" clip-path="url(#pf2c8ae8da6)" style="fill: #1f77b4; opacity: 0.598823"/>
   </g>
   <g id="patch_91">
    <path d="M 272.08169 193.733872 
L 297.732184 193.733872 
L 297.732184 188.288872 
L 272.08169 188.288872 
z
" clip-path="url(#pf2c8ae8da6)" style="fill: #1f77b4; opacity: 0.603425"/>
   </g>
   <g id="patch_92">
    <path d="M 242.860194 193.733872 
L 264.838779 193.733872 
L 264.838779 188.288872 
L 242.860194 188.288872 
z
" clip-path="url(#pf2c8ae8da6)" style="fill: #1f77b4; opacity: 0.634843"/>
   </g>
   <g id="patch_93">
    <path d="M 214.289029 193.733872 
L 224.845275 193.733872 
L 224.845275 188.288872 
L 214.289029 188.288872 
z
" clip-path="url(#pf2c8ae8da6)" style="fill: #1f77b4; opacity: 0.612329"/>
   </g>
   <g id="patch_94">
    <path d="M 69.390676 193.733872 
L 87.276814 193.733872 
L 87.276814 188.288872 
L 69.390676 188.288872 
z
" clip-path="url(#pf2c8ae8da6)" style="fill: #1f77b4; opacity: 0.688067"/>
   </g>
   <g id="patch_95">
    <path d="M 63.561271 193.733872 
L 66.680378 193.733872 
L 66.680378 188.288872 
L 63.561271 188.288872 
z
" clip-path="url(#pf2c8ae8da6)" style="fill: #1f77b4; opacity: 0.906386"/>
   </g>
   <g id="patch_96">
    <path d="M 19.863787 193.733872 
L 176.973281 193.733872 
L 176.973281 188.288872 
L 19.863787 188.288872 
L 19.863787 193.733872 
z
" clip-path="url(#pf2c8ae8da6)" style="fill: none; stroke: #000000; stroke-width: 0.7; stroke-linejoin: miter"/>
   </g>
   <g id="patch_97">
    <path d="M 180.397118 193.733872 
L 478.163688 193.733872 
L 478.163688 188.288872 
L 180.397118 188.288872 
L 180.397118 193.733872 
z
" clip-path="url(#pf2c8ae8da6)" style="fill: none; stroke: #000000; stroke-width: 0.7; stroke-linejoin: miter"/>
   </g>
   <g id="matplotlib.axis_13">
    <g id="xtick_31"/>
    <g id="xtick_32"/>
    <g id="xtick_33"/>
    <g id="xtick_34"/>
    <g id="xtick_35"/>
   </g>
   <g id="matplotlib.axis_14">
    <g id="ytick_13"/>
    <g id="ytick_14"/>
   </g>
   <g id="patch_98">
    <path d="M 176.973281 193.733872 
L 176.973281 188.288872 
L 180.397118 193.733872 
L 180.397118 188.288872 
z
" clip-path="url(#pf2c8ae8da6)" style="fill: #777777; stroke: #777777; stroke-width: 0.64; stroke-linejoin: miter"/>
   </g>
   <g id="text_12">
    <!-- 6 -->
    <g style="fill: #262626" transform="translate(11.092656 192.825903) scale(0.07 -0.07)">
     <defs>
      <path id="Arial-BoldMT-36" d="M 3247 3459 
L 2397 3366 
Q 2366 3628 2234 3753 
Q 2103 3878 1894 3878 
Q 1616 3878 1423 3628 
Q 1231 3378 1181 2588 
Q 1509 2975 1997 2975 
Q 2547 2975 2939 2556 
Q 3331 2138 3331 1475 
Q 3331 772 2918 347 
Q 2506 -78 1859 -78 
Q 1166 -78 719 461 
Q 272 1000 272 2228 
Q 272 3488 737 4044 
Q 1203 4600 1947 4600 
Q 2469 4600 2811 4308 
Q 3153 4016 3247 3459 
z
M 1256 1544 
Q 1256 1116 1453 883 
Q 1650 650 1903 650 
Q 2147 650 2309 840 
Q 2472 1031 2472 1466 
Q 2472 1913 2297 2120 
Q 2122 2328 1859 2328 
Q 1606 2328 1431 2129 
Q 1256 1931 1256 1544 
z
" transform="scale(0.015625)"/>
     </defs>
     <use xlink:href="#Arial-BoldMT-36"/>
    </g>
   </g>
  </g>
  <g id="axes_8">
   <g id="patch_99">
    <path d="M 19.058838 231.8816 
L 688.658838 231.8816 
L 688.658838 204.6566 
L 19.058838 204.6566 
z
" style="fill: #ffffff"/>
   </g>
   <g id="patch_100">
    <path d="M 19.863787 220.958872 
L 175.942317 220.958872 
L 175.942317 215.513872 
L 19.863787 215.513872 
z
" clip-path="url(#p6846a271b0)" style="fill: #ebeaea"/>
   </g>
   <g id="patch_101">
    <path d="M 184.953356 220.958872 
L 447.414649 220.958872 
L 447.414649 215.513872 
L 184.953356 215.513872 
z
" clip-path="url(#p6846a271b0)" style="fill: #ebeaea"/>
   </g>
   <g id="patch_102">
    <path d="M 352.402349 220.958872 
L 375.448873 220.958872 
L 375.448873 215.513872 
L 352.402349 215.513872 
z
" clip-path="url(#p6846a271b0)" style="fill: #1f77b4; opacity: 0.266192"/>
   </g>
   <g id="patch_103">
    <path d="M 301.447452 220.958872 
L 306.451772 220.958872 
L 306.451772 215.513872 
L 301.447452 215.513872 
z
" clip-path="url(#p6846a271b0)" style="fill: #1f77b4; opacity: 0.171085"/>
   </g>
   <g id="patch_104">
    <path d="M 269.796227 220.958872 
L 275.88876 220.958872 
L 275.88876 215.513872 
L 269.796227 215.513872 
z
" clip-path="url(#p6846a271b0)" style="fill: #1f77b4; opacity: 0.4136"/>
   </g>
   <g id="patch_105">
    <path d="M 198.209726 220.958872 
L 226.88821 220.958872 
L 226.88821 215.513872 
L 198.209726 215.513872 
z
" clip-path="url(#p6846a271b0)" style="fill: #1f77b4; opacity: 0.695274"/>
   </g>
   <g id="patch_106">
    <path d="M 140.90155 220.958872 
L 177.029131 220.958872 
L 177.029131 215.513872 
L 140.90155 215.513872 
z
" clip-path="url(#p6846a271b0)" style="fill: #1f77b4; opacity: 0.749017"/>
   </g>
   <g id="patch_107">
    <path d="M 104.202675 220.958872 
L 113.021787 220.958872 
L 113.021787 215.513872 
L 104.202675 215.513872 
z
" clip-path="url(#p6846a271b0)" style="fill: #1f77b4; opacity: 0.322816"/>
   </g>
   <g id="patch_108">
    <path d="M 36.114854 220.958872 
L 62.326029 220.958872 
L 62.326029 215.513872 
L 36.114854 215.513872 
z
" clip-path="url(#p6846a271b0)" style="fill: #1f77b4; opacity: 0.216141"/>
   </g>
   <g id="patch_109">
    <path d="M 19.863787 220.958872 
L 175.942317 220.958872 
L 175.942317 215.513872 
L 19.863787 215.513872 
L 19.863787 220.958872 
z
" clip-path="url(#p6846a271b0)" style="fill: none; stroke: #000000; stroke-width: 0.7; stroke-linejoin: miter"/>
   </g>
   <g id="patch_110">
    <path d="M 184.953356 220.958872 
L 447.414649 220.958872 
L 447.414649 215.513872 
L 184.953356 215.513872 
L 184.953356 220.958872 
z
" clip-path="url(#p6846a271b0)" style="fill: none; stroke: #000000; stroke-width: 0.7; stroke-linejoin: miter"/>
   </g>
   <g id="matplotlib.axis_15">
    <g id="xtick_36"/>
    <g id="xtick_37"/>
    <g id="xtick_38"/>
    <g id="xtick_39"/>
    <g id="xtick_40"/>
   </g>
   <g id="matplotlib.axis_16">
    <g id="ytick_15"/>
    <g id="ytick_16"/>
   </g>
   <g id="patch_111">
    <path d="M 175.942317 220.958872 
L 175.942317 215.513872 
L 184.953356 220.958872 
L 184.953356 215.513872 
z
" clip-path="url(#p6846a271b0)" style="fill: #777777; stroke: #777777; stroke-width: 0.64; stroke-linejoin: miter"/>
   </g>
   <g id="text_13">
    <!-- 7 -->
    <g style="fill: #262626" transform="translate(11.092656 220.050903) scale(0.07 -0.07)">
     <defs>
      <path id="Arial-BoldMT-37" d="M 272 3703 
L 272 4519 
L 3275 4519 
L 3275 3881 
Q 2903 3516 2518 2831 
Q 2134 2147 1932 1376 
Q 1731 606 1734 0 
L 888 0 
Q 909 950 1279 1937 
Q 1650 2925 2269 3703 
L 272 3703 
z
" transform="scale(0.015625)"/>
     </defs>
     <use xlink:href="#Arial-BoldMT-37"/>
    </g>
   </g>
  </g>
  <g id="axes_9">
   <g id="patch_112">
    <path d="M 19.058838 259.1066 
L 688.658838 259.1066 
L 688.658838 231.8816 
L 19.058838 231.8816 
z
" style="fill: #ffffff"/>
   </g>
   <g id="patch_113">
    <path d="M 19.863787 248.183872 
L 138.013401 248.183872 
L 138.013401 242.738872 
L 19.863787 242.738872 
z
" clip-path="url(#p21da0f9c8f)" style="fill: #ebeaea"/>
   </g>
   <g id="patch_114">
    <path d="M 142.959864 248.183872 
L 409.29408 248.183872 
L 409.29408 242.738872 
L 142.959864 242.738872 
z
" clip-path="url(#p21da0f9c8f)" style="fill: #ebeaea"/>
   </g>
   <g id="patch_115">
    <path d="M 329.949365 248.183872 
L 343.393473 248.183872 
L 343.393473 242.738872 
L 329.949365 242.738872 
z
" clip-path="url(#p21da0f9c8f)" style="fill: #1f77b4; opacity: 0.49886"/>
   </g>
   <g id="patch_116">
    <path d="M 309.150264 248.183872 
L 318.983375 248.183872 
L 318.983375 242.738872 
L 309.150264 242.738872 
z
" clip-path="url(#p21da0f9c8f)" style="fill: #1f77b4; opacity: 0.421643"/>
   </g>
   <g id="patch_117">
    <path d="M 278.270682 248.183872 
L 293.878714 248.183872 
L 293.878714 242.738872 
L 278.270682 242.738872 
z
" clip-path="url(#p21da0f9c8f)" style="fill: #1f77b4; opacity: 0.158308"/>
   </g>
   <g id="patch_118">
    <path d="M 219.710626 248.183872 
L 220.666397 248.183872 
L 220.666397 242.738872 
L 219.710626 242.738872 
z
" clip-path="url(#p21da0f9c8f)" style="fill: #1f77b4; opacity: 0.532497"/>
   </g>
   <g id="patch_119">
    <path d="M 139.690014 248.183872 
L 186.063827 248.183872 
L 186.063827 242.738872 
L 139.690014 242.738872 
z
" clip-path="url(#p21da0f9c8f)" style="fill: #1f77b4; opacity: 0.002166"/>
   </g>
   <g id="patch_120">
    <path d="M 118.48559 248.183872 
L 128.565399 248.183872 
L 128.565399 242.738872 
L 118.48559 242.738872 
z
" clip-path="url(#p21da0f9c8f)" style="fill: #1f77b4; opacity: 0.558006"/>
   </g>
   <g id="patch_121">
    <path d="M 77.90291 248.183872 
L 79.633967 248.183872 
L 79.633967 242.738872 
L 77.90291 242.738872 
z
" clip-path="url(#p21da0f9c8f)" style="fill: #1f77b4; opacity: 0.48766"/>
   </g>
   <g id="patch_122">
    <path d="M 19.863787 248.183872 
L 138.013401 248.183872 
L 138.013401 242.738872 
L 19.863787 242.738872 
L 19.863787 248.183872 
z
" clip-path="url(#p21da0f9c8f)" style="fill: none; stroke: #000000; stroke-width: 0.7; stroke-linejoin: miter"/>
   </g>
   <g id="patch_123">
    <path d="M 142.959864 248.183872 
L 409.29408 248.183872 
L 409.29408 242.738872 
L 142.959864 242.738872 
L 142.959864 248.183872 
z
" clip-path="url(#p21da0f9c8f)" style="fill: none; stroke: #000000; stroke-width: 0.7; stroke-linejoin: miter"/>
   </g>
   <g id="matplotlib.axis_17">
    <g id="xtick_41"/>
    <g id="xtick_42"/>
    <g id="xtick_43"/>
    <g id="xtick_44"/>
    <g id="xtick_45"/>
   </g>
   <g id="matplotlib.axis_18">
    <g id="ytick_17"/>
    <g id="ytick_18"/>
   </g>
   <g id="patch_124">
    <path d="M 138.013401 248.183872 
L 138.013401 242.738872 
L 142.959864 248.183872 
L 142.959864 242.738872 
z
" clip-path="url(#p21da0f9c8f)" style="fill: #777777; stroke: #777777; stroke-width: 0.64; stroke-linejoin: miter"/>
   </g>
   <g id="text_14">
    <!-- 8 -->
    <g style="fill: #262626" transform="translate(11.092656 247.275903) scale(0.07 -0.07)">
     <defs>
      <path id="Arial-BoldMT-38" d="M 1025 2472 
Q 684 2616 529 2867 
Q 375 3119 375 3419 
Q 375 3931 733 4265 
Q 1091 4600 1750 4600 
Q 2403 4600 2764 4265 
Q 3125 3931 3125 3419 
Q 3125 3100 2959 2851 
Q 2794 2603 2494 2472 
Q 2875 2319 3073 2025 
Q 3272 1731 3272 1347 
Q 3272 713 2867 316 
Q 2463 -81 1791 -81 
Q 1166 -81 750 247 
Q 259 634 259 1309 
Q 259 1681 443 1992 
Q 628 2303 1025 2472 
z
M 1206 3356 
Q 1206 3094 1354 2947 
Q 1503 2800 1750 2800 
Q 2000 2800 2150 2948 
Q 2300 3097 2300 3359 
Q 2300 3606 2151 3754 
Q 2003 3903 1759 3903 
Q 1506 3903 1356 3753 
Q 1206 3603 1206 3356 
z
M 1125 1394 
Q 1125 1031 1311 828 
Q 1497 625 1775 625 
Q 2047 625 2225 820 
Q 2403 1016 2403 1384 
Q 2403 1706 2222 1901 
Q 2041 2097 1763 2097 
Q 1441 2097 1283 1875 
Q 1125 1653 1125 1394 
z
" transform="scale(0.015625)"/>
     </defs>
     <use xlink:href="#Arial-BoldMT-38"/>
    </g>
   </g>
  </g>
  <g id="axes_10">
   <g id="patch_125">
    <path d="M 19.058838 286.3316 
L 688.658838 286.3316 
L 688.658838 259.1066 
L 19.058838 259.1066 
z
" style="fill: #ffffff"/>
   </g>
   <g id="patch_126">
    <path d="M 19.863787 275.408872 
L 136.285153 275.408872 
L 136.285153 269.963872 
L 19.863787 269.963872 
z
" clip-path="url(#p50356fc52d)" style="fill: #ebeaea"/>
   </g>
   <g id="patch_127">
    <path d="M 141.997395 275.408872 
L 391.199061 275.408872 
L 391.199061 269.963872 
L 141.997395 269.963872 
z
" clip-path="url(#p50356fc52d)" style="fill: #ebeaea"/>
   </g>
   <g id="patch_128">
    <path d="M 285.820694 275.408872 
L 321.612298 275.408872 
L 321.612298 269.963872 
L 285.820694 269.963872 
z
" clip-path="url(#p50356fc52d)" style="fill: #1f77b4; opacity: 0.637136"/>
   </g>
   <g id="patch_129">
    <path d="M 209.108478 275.408872 
L 222.925938 275.408872 
L 222.925938 269.963872 
L 209.108478 269.963872 
z
" clip-path="url(#p50356fc52d)" style="fill: #1f77b4; opacity: 0.987913"/>
   </g>
   <g id="patch_130">
    <path d="M 186.931991 275.408872 
L 187.92538 275.408872 
L 187.92538 269.963872 
L 186.931991 269.963872 
z
" clip-path="url(#p50356fc52d)" style="fill: #1f77b4; opacity: 0.464251"/>
   </g>
   <g id="patch_131">
    <path d="M 146.785574 275.408872 
L 151.19724 275.408872 
L 151.19724 269.963872 
L 146.785574 269.963872 
z
" clip-path="url(#p50356fc52d)" style="fill: #1f77b4; opacity: 0.458209"/>
   </g>
   <g id="patch_132">
    <path d="M 124.788005 275.408872 
L 128.837278 275.408872 
L 128.837278 269.963872 
L 124.788005 269.963872 
z
" clip-path="url(#p50356fc52d)" style="fill: #1f77b4; opacity: 0.074978"/>
   </g>
   <g id="patch_133">
    <path d="M 22.812229 275.408872 
L 28.552272 275.408872 
L 28.552272 269.963872 
L 22.812229 269.963872 
z
" clip-path="url(#p50356fc52d)" style="fill: #1f77b4; opacity: 0.383129"/>
   </g>
   <g id="patch_134">
    <path d="M 19.863787 275.408872 
L 136.285153 275.408872 
L 136.285153 269.963872 
L 19.863787 269.963872 
L 19.863787 275.408872 
z
" clip-path="url(#p50356fc52d)" style="fill: none; stroke: #000000; stroke-width: 0.7; stroke-linejoin: miter"/>
   </g>
   <g id="patch_135">
    <path d="M 141.997395 275.408872 
L 391.199061 275.408872 
L 391.199061 269.963872 
L 141.997395 269.963872 
L 141.997395 275.408872 
z
" clip-path="url(#p50356fc52d)" style="fill: none; stroke: #000000; stroke-width: 0.7; stroke-linejoin: miter"/>
   </g>
   <g id="matplotlib.axis_19">
    <g id="xtick_46"/>
    <g id="xtick_47"/>
    <g id="xtick_48"/>
    <g id="xtick_49"/>
    <g id="xtick_50"/>
   </g>
   <g id="matplotlib.axis_20">
    <g id="ytick_19"/>
    <g id="ytick_20"/>
   </g>
   <g id="patch_136">
    <path d="M 136.285153 275.408872 
L 136.285153 269.963872 
L 141.997395 275.408872 
L 141.997395 269.963872 
z
" clip-path="url(#p50356fc52d)" style="fill: #777777; stroke: #777777; stroke-width: 0.64; stroke-linejoin: miter"/>
   </g>
   <g id="text_15">
    <!-- 9 -->
    <g style="fill: #262626" transform="translate(11.092656 274.500903) scale(0.07 -0.07)">
     <defs>
      <path id="Arial-BoldMT-39" d="M 291 1059 
L 1141 1153 
Q 1172 894 1303 769 
Q 1434 644 1650 644 
Q 1922 644 2112 894 
Q 2303 1144 2356 1931 
Q 2025 1547 1528 1547 
Q 988 1547 595 1964 
Q 203 2381 203 3050 
Q 203 3747 617 4173 
Q 1031 4600 1672 4600 
Q 2369 4600 2816 4061 
Q 3263 3522 3263 2288 
Q 3263 1031 2797 475 
Q 2331 -81 1584 -81 
Q 1047 -81 715 205 
Q 384 491 291 1059 
z
M 2278 2978 
Q 2278 3403 2083 3637 
Q 1888 3872 1631 3872 
Q 1388 3872 1227 3680 
Q 1066 3488 1066 3050 
Q 1066 2606 1241 2398 
Q 1416 2191 1678 2191 
Q 1931 2191 2104 2391 
Q 2278 2591 2278 2978 
z
" transform="scale(0.015625)"/>
     </defs>
     <use xlink:href="#Arial-BoldMT-39"/>
    </g>
   </g>
  </g>
  <g id="axes_11">
   <g id="patch_137">
    <path d="M 19.058838 313.5566 
L 688.658838 313.5566 
L 688.658838 286.3316 
L 19.058838 286.3316 
z
" style="fill: #ffffff"/>
   </g>
   <g id="patch_138">
    <path d="M 19.863787 302.633872 
L 126.349535 302.633872 
L 126.349535 297.188872 
L 19.863787 297.188872 
z
" clip-path="url(#pbfc6f0c211)" style="fill: #ebeaea"/>
   </g>
   <g id="patch_139">
    <path d="M 131.46589 302.633872 
L 378.86378 302.633872 
L 378.86378 297.188872 
L 131.46589 297.188872 
z
" clip-path="url(#pbfc6f0c211)" style="fill: #ebeaea"/>
   </g>
   <g id="patch_140">
    <path d="M 329.286243 302.633872 
L 362.06579 302.633872 
L 362.06579 297.188872 
L 329.286243 297.188872 
z
" clip-path="url(#pbfc6f0c211)" style="fill: #1f77b4; opacity: 0.668759"/>
   </g>
   <g id="patch_141">
    <path d="M 268.529706 302.633872 
L 286.280797 302.633872 
L 286.280797 297.188872 
L 268.529706 297.188872 
z
" clip-path="url(#pbfc6f0c211)" style="fill: #1f77b4; opacity: 0.931299"/>
   </g>
   <g id="patch_142">
    <path d="M 255.735378 302.633872 
L 263.382193 302.633872 
L 263.382193 297.188872 
L 255.735378 297.188872 
z
" clip-path="url(#pbfc6f0c211)" style="fill: #1f77b4; opacity: 0.389195"/>
   </g>
   <g id="patch_143">
    <path d="M 239.47416 302.633872 
L 242.276067 302.633872 
L 242.276067 297.188872 
L 239.47416 297.188872 
z
" clip-path="url(#pbfc6f0c211)" style="fill: #1f77b4; opacity: 0.528022"/>
   </g>
   <g id="patch_144">
    <path d="M 205.50655 302.633872 
L 223.818972 302.633872 
L 223.818972 297.188872 
L 205.50655 297.188872 
z
" clip-path="url(#pbfc6f0c211)" style="fill: #1f77b4; opacity: 0.603374"/>
   </g>
   <g id="patch_145">
    <path d="M 65.05676 302.633872 
L 134.604689 302.633872 
L 134.604689 297.188872 
L 65.05676 297.188872 
z
" clip-path="url(#pbfc6f0c211)" style="fill: #1f77b4; opacity: 0.802465"/>
   </g>
   <g id="patch_146">
    <path d="M 19.863787 302.633872 
L 126.349535 302.633872 
L 126.349535 297.188872 
L 19.863787 297.188872 
L 19.863787 302.633872 
z
" clip-path="url(#pbfc6f0c211)" style="fill: none; stroke: #000000; stroke-width: 0.7; stroke-linejoin: miter"/>
   </g>
   <g id="patch_147">
    <path d="M 131.46589 302.633872 
L 378.86378 302.633872 
L 378.86378 297.188872 
L 131.46589 297.188872 
L 131.46589 302.633872 
z
" clip-path="url(#pbfc6f0c211)" style="fill: none; stroke: #000000; stroke-width: 0.7; stroke-linejoin: miter"/>
   </g>
   <g id="matplotlib.axis_21">
    <g id="xtick_51"/>
    <g id="xtick_52"/>
    <g id="xtick_53"/>
    <g id="xtick_54"/>
    <g id="xtick_55"/>
   </g>
   <g id="matplotlib.axis_22">
    <g id="ytick_21"/>
    <g id="ytick_22"/>
   </g>
   <g id="patch_148">
    <path d="M 126.349535 302.633872 
L 126.349535 297.188872 
L 131.46589 302.633872 
L 131.46589 297.188872 
z
" clip-path="url(#pbfc6f0c211)" style="fill: #777777; stroke: #777777; stroke-width: 0.64; stroke-linejoin: miter"/>
   </g>
   <g id="text_16">
    <!-- 10 -->
    <g style="fill: #262626" transform="translate(7.2 301.725903) scale(0.07 -0.07)">
     <defs>
      <path id="Arial-BoldMT-30" d="M 1756 4600 
Q 2422 4600 2797 4125 
Q 3244 3563 3244 2259 
Q 3244 959 2794 391 
Q 2422 -78 1756 -78 
Q 1088 -78 678 436 
Q 269 950 269 2269 
Q 269 3563 719 4131 
Q 1091 4600 1756 4600 
z
M 1756 3872 
Q 1597 3872 1472 3770 
Q 1347 3669 1278 3406 
Q 1188 3066 1188 2259 
Q 1188 1453 1269 1151 
Q 1350 850 1473 750 
Q 1597 650 1756 650 
Q 1916 650 2041 751 
Q 2166 853 2234 1116 
Q 2325 1453 2325 2259 
Q 2325 3066 2244 3367 
Q 2163 3669 2039 3770 
Q 1916 3872 1756 3872 
z
" transform="scale(0.015625)"/>
     </defs>
     <use xlink:href="#Arial-BoldMT-31"/>
     <use xlink:href="#Arial-BoldMT-30" transform="translate(55.615234 0)"/>
    </g>
   </g>
  </g>
  <g id="axes_12">
   <g id="patch_149">
    <path d="M 19.058838 340.7816 
L 688.658838 340.7816 
L 688.658838 313.5566 
L 19.058838 313.5566 
z
" style="fill: #ffffff"/>
   </g>
   <g id="patch_150">
    <path d="M 19.863787 329.858872 
L 156.915206 329.858872 
L 156.915206 324.413872 
L 19.863787 324.413872 
z
" clip-path="url(#p490a99ab1b)" style="fill: #ebeaea"/>
   </g>
   <g id="patch_151">
    <path d="M 165.89501 329.858872 
L 382.322911 329.858872 
L 382.322911 324.413872 
L 165.89501 324.413872 
z
" clip-path="url(#p490a99ab1b)" style="fill: #ebeaea"/>
   </g>
   <g id="patch_152">
    <path d="M 308.284787 329.858872 
L 348.763929 329.858872 
L 348.763929 324.413872 
L 308.284787 324.413872 
z
" clip-path="url(#p490a99ab1b)" style="fill: #1f77b4; opacity: 0.104404"/>
   </g>
   <g id="patch_153">
    <path d="M 306.575619 329.858872 
L 307.230476 329.858872 
L 307.230476 324.413872 
L 306.575619 324.413872 
z
" clip-path="url(#p490a99ab1b)" style="fill: #1f77b4; opacity: 0.018355"/>
   </g>
   <g id="patch_154">
    <path d="M 302.476844 329.858872 
L 303.730889 329.858872 
L 303.730889 324.413872 
L 302.476844 324.413872 
z
" clip-path="url(#p490a99ab1b)" style="fill: #1f77b4; opacity: 0.632541"/>
   </g>
   <g id="patch_155">
    <path d="M 157.151354 329.858872 
L 170.226613 329.858872 
L 170.226613 324.413872 
L 157.151354 324.413872 
z
" clip-path="url(#p490a99ab1b)" style="fill: #1f77b4; opacity: 0.766208"/>
   </g>
   <g id="patch_156">
    <path d="M 68.371274 329.858872 
L 94.436944 329.858872 
L 94.436944 324.413872 
L 68.371274 324.413872 
z
" clip-path="url(#p490a99ab1b)" style="fill: #1f77b4; opacity: 0.685076"/>
   </g>
   <g id="patch_157">
    <path d="M 58.752462 329.858872 
L 64.69812 329.858872 
L 64.69812 324.413872 
L 58.752462 324.413872 
z
" clip-path="url(#p490a99ab1b)" style="fill: #1f77b4; opacity: 0.796999"/>
   </g>
   <g id="patch_158">
    <path d="M 19.863787 329.858872 
L 156.915206 329.858872 
L 156.915206 324.413872 
L 19.863787 324.413872 
L 19.863787 329.858872 
z
" clip-path="url(#p490a99ab1b)" style="fill: none; stroke: #000000; stroke-width: 0.7; stroke-linejoin: miter"/>
   </g>
   <g id="patch_159">
    <path d="M 165.89501 329.858872 
L 382.322911 329.858872 
L 382.322911 324.413872 
L 165.89501 324.413872 
L 165.89501 329.858872 
z
" clip-path="url(#p490a99ab1b)" style="fill: none; stroke: #000000; stroke-width: 0.7; stroke-linejoin: miter"/>
   </g>
   <g id="matplotlib.axis_23">
    <g id="xtick_56"/>
    <g id="xtick_57"/>
    <g id="xtick_58"/>
    <g id="xtick_59"/>
    <g id="xtick_60"/>
   </g>
   <g id="matplotlib.axis_24">
    <g id="ytick_23"/>
    <g id="ytick_24"/>
   </g>
   <g id="patch_160">
    <path d="M 156.915206 329.858872 
L 156.915206 324.413872 
L 165.89501 329.858872 
L 165.89501 324.413872 
z
" clip-path="url(#p490a99ab1b)" style="fill: #777777; stroke: #777777; stroke-width: 0.64; stroke-linejoin: miter"/>
   </g>
   <g id="text_17">
    <!-- 11 -->
    <g style="fill: #262626" transform="translate(7.585 328.950903) scale(0.07 -0.07)">
     <use xlink:href="#Arial-BoldMT-31"/>
     <use xlink:href="#Arial-BoldMT-31" transform="translate(50.115234 0)"/>
    </g>
   </g>
  </g>
  <g id="axes_13">
   <g id="patch_161">
    <path d="M 19.058838 368.0066 
L 688.658838 368.0066 
L 688.658838 340.7816 
L 19.058838 340.7816 
z
" style="fill: #ffffff"/>
   </g>
   <g id="patch_162">
    <path d="M 19.863787 357.083872 
L 113.155695 357.083872 
L 113.155695 351.638872 
L 19.863787 351.638872 
z
" clip-path="url(#p26c7c98232)" style="fill: #ebeaea"/>
   </g>
   <g id="patch_163">
    <path d="M 119.637796 357.083872 
L 377.462867 357.083872 
L 377.462867 351.638872 
L 119.637796 351.638872 
z
" clip-path="url(#p26c7c98232)" style="fill: #ebeaea"/>
   </g>
   <g id="patch_164">
    <path d="M 223.978287 357.083872 
L 236.202338 357.083872 
L 236.202338 351.638872 
L 223.978287 351.638872 
z
" clip-path="url(#p26c7c98232)" style="fill: #1f77b4; opacity: 0.439302"/>
   </g>
   <g id="patch_165">
    <path d="M 178.545745 357.083872 
L 213.115063 357.083872 
L 213.115063 351.638872 
L 178.545745 351.638872 
z
" clip-path="url(#p26c7c98232)" style="fill: #1f77b4; opacity: 0.455495"/>
   </g>
   <g id="patch_166">
    <path d="M 78.313667 357.083872 
L 142.326539 357.083872 
L 142.326539 351.638872 
L 78.313667 351.638872 
z
" clip-path="url(#p26c7c98232)" style="fill: #1f77b4; opacity: 0.462702"/>
   </g>
   <g id="patch_167">
    <path d="M 59.452018 357.083872 
L 74.338484 357.083872 
L 74.338484 351.638872 
L 59.452018 351.638872 
z
" clip-path="url(#p26c7c98232)" style="fill: #1f77b4; opacity: 0.584413"/>
   </g>
   <g id="patch_168">
    <path d="M 56.135602 357.083872 
L 57.001836 357.083872 
L 57.001836 351.638872 
L 56.135602 351.638872 
z
" clip-path="url(#p26c7c98232)" style="fill: #1f77b4; opacity: 0.910788"/>
   </g>
   <g id="patch_169">
    <path d="M 19.947796 357.083872 
L 38.79772 357.083872 
L 38.79772 351.638872 
L 19.947796 351.638872 
z
" clip-path="url(#p26c7c98232)" style="fill: #1f77b4; opacity: 0.958282"/>
   </g>
   <g id="patch_170">
    <path d="M 19.863787 357.083872 
L 113.155695 357.083872 
L 113.155695 351.638872 
L 19.863787 351.638872 
L 19.863787 357.083872 
z
" clip-path="url(#p26c7c98232)" style="fill: none; stroke: #000000; stroke-width: 0.7; stroke-linejoin: miter"/>
   </g>
   <g id="patch_171">
    <path d="M 119.637796 357.083872 
L 377.462867 357.083872 
L 377.462867 351.638872 
L 119.637796 351.638872 
L 119.637796 357.083872 
z
" clip-path="url(#p26c7c98232)" style="fill: none; stroke: #000000; stroke-width: 0.7; stroke-linejoin: miter"/>
   </g>
   <g id="matplotlib.axis_25">
    <g id="xtick_61"/>
    <g id="xtick_62"/>
    <g id="xtick_63"/>
    <g id="xtick_64"/>
    <g id="xtick_65"/>
   </g>
   <g id="matplotlib.axis_26">
    <g id="ytick_25"/>
    <g id="ytick_26"/>
   </g>
   <g id="patch_172">
    <path d="M 113.155695 357.083872 
L 113.155695 351.638872 
L 119.637796 357.083872 
L 119.637796 351.638872 
z
" clip-path="url(#p26c7c98232)" style="fill: #777777; stroke: #777777; stroke-width: 0.64; stroke-linejoin: miter"/>
   </g>
   <g id="text_18">
    <!-- 12 -->
    <g style="fill: #262626" transform="translate(7.2 356.175903) scale(0.07 -0.07)">
     <use xlink:href="#Arial-BoldMT-31"/>
     <use xlink:href="#Arial-BoldMT-32" transform="translate(55.615234 0)"/>
    </g>
   </g>
  </g>
  <g id="axes_14">
   <g id="patch_173">
    <path d="M 19.058838 395.2316 
L 688.658838 395.2316 
L 688.658838 368.0066 
L 19.058838 368.0066 
z
" style="fill: #ffffff"/>
   </g>
   <g id="patch_174">
    <path d="M 19.863787 384.308872 
L 62.794359 384.308872 
L 62.794359 378.863872 
L 19.863787 378.863872 
z
" clip-path="url(#pef3d4b74ba)" style="fill: #ebeaea"/>
   </g>
   <g id="patch_175">
    <path d="M 68.298187 384.308872 
L 326.721664 384.308872 
L 326.721664 378.863872 
L 68.298187 378.863872 
z
" clip-path="url(#pef3d4b74ba)" style="fill: #ebeaea"/>
   </g>
   <g id="patch_176">
    <path d="M 240.619285 384.308872 
L 241.275379 384.308872 
L 241.275379 378.863872 
L 240.619285 378.863872 
z
" clip-path="url(#pef3d4b74ba)" style="fill: #1f77b4; opacity: 0.367767"/>
   </g>
   <g id="patch_177">
    <path d="M 150.809805 384.308872 
L 155.354417 384.308872 
L 155.354417 378.863872 
L 150.809805 378.863872 
z
" clip-path="url(#pef3d4b74ba)" style="fill: #1f77b4; opacity: 0.798048"/>
   </g>
   <g id="patch_178">
    <path d="M 110.7088 384.308872 
L 144.968398 384.308872 
L 144.968398 378.863872 
L 110.7088 378.863872 
z
" clip-path="url(#pef3d4b74ba)" style="fill: #1f77b4; opacity: 0.678243"/>
   </g>
   <g id="patch_179">
    <path d="M 73.360936 384.308872 
L 94.753315 384.308872 
L 94.753315 378.863872 
L 73.360936 378.863872 
z
" clip-path="url(#pef3d4b74ba)" style="fill: #1f77b4; opacity: 0.577247"/>
   </g>
   <g id="patch_180">
    <path d="M 29.047363 384.308872 
L 45.186374 384.308872 
L 45.186374 378.863872 
L 29.047363 378.863872 
z
" clip-path="url(#pef3d4b74ba)" style="fill: #1f77b4; opacity: 0.412635"/>
   </g>
   <g id="patch_181">
    <path d="M 19.863787 384.308872 
L 62.794359 384.308872 
L 62.794359 378.863872 
L 19.863787 378.863872 
L 19.863787 384.308872 
z
" clip-path="url(#pef3d4b74ba)" style="fill: none; stroke: #000000; stroke-width: 0.7; stroke-linejoin: miter"/>
   </g>
   <g id="patch_182">
    <path d="M 68.298187 384.308872 
L 326.721664 384.308872 
L 326.721664 378.863872 
L 68.298187 378.863872 
L 68.298187 384.308872 
z
" clip-path="url(#pef3d4b74ba)" style="fill: none; stroke: #000000; stroke-width: 0.7; stroke-linejoin: miter"/>
   </g>
   <g id="matplotlib.axis_27">
    <g id="xtick_66"/>
    <g id="xtick_67"/>
    <g id="xtick_68"/>
    <g id="xtick_69"/>
    <g id="xtick_70"/>
   </g>
   <g id="matplotlib.axis_28">
    <g id="ytick_27"/>
    <g id="ytick_28"/>
   </g>
   <g id="patch_183">
    <path d="M 62.794359 384.308872 
L 62.794359 378.863872 
L 68.298187 384.308872 
L 68.298187 378.863872 
z
" clip-path="url(#pef3d4b74ba)" style="fill: #777777; stroke: #777777; stroke-width: 0.64; stroke-linejoin: miter"/>
   </g>
   <g id="text_19">
    <!-- 13 -->
    <g style="fill: #262626" transform="translate(7.2 383.400903) scale(0.07 -0.07)">
     <use xlink:href="#Arial-BoldMT-31"/>
     <use xlink:href="#Arial-BoldMT-33" transform="translate(55.615234 0)"/>
    </g>
   </g>
  </g>
  <g id="axes_15">
   <g id="patch_184">
    <path d="M 19.058838 422.4566 
L 688.658838 422.4566 
L 688.658838 395.2316 
L 19.058838 395.2316 
z
" style="fill: #ffffff"/>
   </g>
   <g id="patch_185">
    <path d="M 19.863787 411.533872 
L 62.794359 411.533872 
L 62.794359 406.088872 
L 19.863787 406.088872 
z
" clip-path="url(#p3f4b612cc4)" style="fill: #ebeaea"/>
   </g>
   <g id="patch_186">
    <path d="M 68.62627 411.533872 
L 307.079291 411.533872 
L 307.079291 406.088872 
L 68.62627 406.088872 
z
" clip-path="url(#p3f4b612cc4)" style="fill: #ebeaea"/>
   </g>
   <g id="patch_187">
    <path d="M 195.630632 411.533872 
L 236.76123 411.533872 
L 236.76123 406.088872 
L 195.630632 406.088872 
z
" clip-path="url(#p3f4b612cc4)" style="fill: #1f77b4; opacity: 0.516653"/>
   </g>
   <g id="patch_188">
    <path d="M 192.867389 411.533872 
L 194.106068 411.533872 
L 194.106068 406.088872 
L 192.867389 406.088872 
z
" clip-path="url(#p3f4b612cc4)" style="fill: #1f77b4; opacity: 0.356765"/>
   </g>
   <g id="patch_189">
    <path d="M 187.679517 411.533872 
L 190.618882 411.533872 
L 190.618882 406.088872 
L 187.679517 406.088872 
z
" clip-path="url(#p3f4b612cc4)" style="fill: #1f77b4; opacity: 0.577871"/>
   </g>
   <g id="patch_190">
    <path d="M 132.170456 411.533872 
L 151.009142 411.533872 
L 151.009142 406.088872 
L 132.170456 406.088872 
z
" clip-path="url(#p3f4b612cc4)" style="fill: #1f77b4; opacity: 0.230253"/>
   </g>
   <g id="patch_191">
    <path d="M 61.405786 411.533872 
L 64.102681 411.533872 
L 64.102681 406.088872 
L 61.405786 406.088872 
z
" clip-path="url(#p3f4b612cc4)" style="fill: #1f77b4; opacity: 0.922044"/>
   </g>
   <g id="patch_192">
    <path d="M 19.863787 411.533872 
L 62.794359 411.533872 
L 62.794359 406.088872 
L 19.863787 406.088872 
L 19.863787 411.533872 
z
" clip-path="url(#p3f4b612cc4)" style="fill: none; stroke: #000000; stroke-width: 0.7; stroke-linejoin: miter"/>
   </g>
   <g id="patch_193">
    <path d="M 68.62627 411.533872 
L 307.079291 411.533872 
L 307.079291 406.088872 
L 68.62627 406.088872 
L 68.62627 411.533872 
z
" clip-path="url(#p3f4b612cc4)" style="fill: none; stroke: #000000; stroke-width: 0.7; stroke-linejoin: miter"/>
   </g>
   <g id="matplotlib.axis_29">
    <g id="xtick_71"/>
    <g id="xtick_72"/>
    <g id="xtick_73"/>
    <g id="xtick_74"/>
    <g id="xtick_75"/>
   </g>
   <g id="matplotlib.axis_30">
    <g id="ytick_29"/>
    <g id="ytick_30"/>
   </g>
   <g id="patch_194">
    <path d="M 62.794359 411.533872 
L 62.794359 406.088872 
L 68.62627 411.533872 
L 68.62627 406.088872 
z
" clip-path="url(#p3f4b612cc4)" style="fill: #777777; stroke: #777777; stroke-width: 0.64; stroke-linejoin: miter"/>
   </g>
   <g id="text_20">
    <!-- 14 -->
    <g style="fill: #262626" transform="translate(7.2 410.625903) scale(0.07 -0.07)">
     <use xlink:href="#Arial-BoldMT-31"/>
     <use xlink:href="#Arial-BoldMT-34" transform="translate(55.615234 0)"/>
    </g>
   </g>
  </g>
  <g id="axes_16">
   <g id="patch_195">
    <path d="M 19.058838 449.6816 
L 688.658838 449.6816 
L 688.658838 422.4566 
L 19.058838 422.4566 
z
" style="fill: #ffffff"/>
   </g>
   <g id="patch_196">
    <path d="M 19.863787 438.758872 
L 65.702028 438.758872 
L 65.702028 433.313872 
L 19.863787 433.313872 
z
" clip-path="url(#pf79ca9dd01)" style="fill: #ebeaea"/>
   </g>
   <g id="patch_197">
    <path d="M 72.789814 438.758872 
L 293.522543 438.758872 
L 293.522543 433.313872 
L 72.789814 433.313872 
z
" clip-path="url(#pf79ca9dd01)" style="fill: #ebeaea"/>
   </g>
   <g id="patch_198">
    <path d="M 286.4848 438.758872 
L 289.842162 438.758872 
L 289.842162 433.313872 
L 286.4848 433.313872 
z
" clip-path="url(#pf79ca9dd01)" style="fill: #1f77b4; opacity: 0.736276"/>
   </g>
   <g id="patch_199">
    <path d="M 192.228824 438.758872 
L 269.092627 438.758872 
L 269.092627 433.313872 
L 192.228824 433.313872 
z
" clip-path="url(#pf79ca9dd01)" style="fill: #1f77b4; opacity: 0.699093"/>
   </g>
   <g id="patch_200">
    <path d="M 115.210087 438.758872 
L 143.256455 438.758872 
L 143.256455 433.313872 
L 115.210087 433.313872 
z
" clip-path="url(#pf79ca9dd01)" style="fill: #1f77b4; opacity: 0.782846"/>
   </g>
   <g id="patch_201">
    <path d="M 71.764493 438.758872 
L 78.002307 438.758872 
L 78.002307 433.313872 
L 71.764493 433.313872 
z
" clip-path="url(#pf79ca9dd01)" style="fill: #1f77b4; opacity: 0.126472"/>
   </g>
   <g id="patch_202">
    <path d="M 50.793235 438.758872 
L 56.66438 438.758872 
L 56.66438 433.313872 
L 50.793235 433.313872 
z
" clip-path="url(#pf79ca9dd01)" style="fill: #1f77b4; opacity: 0.047584"/>
   </g>
   <g id="patch_203">
    <path d="M 19.863787 438.758872 
L 65.702028 438.758872 
L 65.702028 433.313872 
L 19.863787 433.313872 
L 19.863787 438.758872 
z
" clip-path="url(#pf79ca9dd01)" style="fill: none; stroke: #000000; stroke-width: 0.7; stroke-linejoin: miter"/>
   </g>
   <g id="patch_204">
    <path d="M 72.789814 438.758872 
L 293.522543 438.758872 
L 293.522543 433.313872 
L 72.789814 433.313872 
L 72.789814 438.758872 
z
" clip-path="url(#pf79ca9dd01)" style="fill: none; stroke: #000000; stroke-width: 0.7; stroke-linejoin: miter"/>
   </g>
   <g id="matplotlib.axis_31">
    <g id="xtick_76"/>
    <g id="xtick_77"/>
    <g id="xtick_78"/>
    <g id="xtick_79"/>
    <g id="xtick_80"/>
   </g>
   <g id="matplotlib.axis_32">
    <g id="ytick_31"/>
    <g id="ytick_32"/>
   </g>
   <g id="patch_205">
    <path d="M 65.702028 438.758872 
L 65.702028 433.313872 
L 72.789814 438.758872 
L 72.789814 433.313872 
z
" clip-path="url(#pf79ca9dd01)" style="fill: #777777; stroke: #777777; stroke-width: 0.64; stroke-linejoin: miter"/>
   </g>
   <g id="text_21">
    <!-- 15 -->
    <g style="fill: #262626" transform="translate(7.2 437.850903) scale(0.07 -0.07)">
     <use xlink:href="#Arial-BoldMT-31"/>
     <use xlink:href="#Arial-BoldMT-35" transform="translate(55.615234 0)"/>
    </g>
   </g>
  </g>
  <g id="axes_17">
   <g id="patch_206">
    <path d="M 19.058838 476.9066 
L 688.658838 476.9066 
L 688.658838 449.6816 
L 19.058838 449.6816 
z
" style="fill: #ffffff"/>
   </g>
   <g id="patch_207">
    <path d="M 19.863787 465.983872 
L 117.292461 465.983872 
L 117.292461 460.538872 
L 19.863787 460.538872 
z
" clip-path="url(#p2356143961)" style="fill: #ebeaea"/>
   </g>
   <g id="patch_208">
    <path d="M 122.536728 465.983872 
L 262.256089 465.983872 
L 262.256089 460.538872 
L 122.536728 460.538872 
z
" clip-path="url(#p2356143961)" style="fill: #ebeaea"/>
   </g>
   <g id="patch_209">
    <path d="M 209.78233 465.983872 
L 210.372244 465.983872 
L 210.372244 460.538872 
L 209.78233 460.538872 
z
" clip-path="url(#p2356143961)" style="fill: #1f77b4; opacity: 0.681574"/>
   </g>
   <g id="patch_210">
    <path d="M 150.140882 465.983872 
L 205.810171 465.983872 
L 205.810171 460.538872 
L 150.140882 460.538872 
z
" clip-path="url(#p2356143961)" style="fill: #1f77b4; opacity: 0.326781"/>
   </g>
   <g id="patch_211">
    <path d="M 72.659426 465.983872 
L 93.767401 465.983872 
L 93.767401 460.538872 
L 72.659426 460.538872 
z
" clip-path="url(#p2356143961)" style="fill: #1f77b4; opacity: 0.019433"/>
   </g>
   <g id="patch_212">
    <path d="M 28.181196 465.983872 
L 29.602536 465.983872 
L 29.602536 460.538872 
L 28.181196 460.538872 
z
" clip-path="url(#p2356143961)" style="fill: #1f77b4; opacity: 0.879272"/>
   </g>
   <g id="patch_213">
    <path d="M 19.863787 465.983872 
L 117.292461 465.983872 
L 117.292461 460.538872 
L 19.863787 460.538872 
L 19.863787 465.983872 
z
" clip-path="url(#p2356143961)" style="fill: none; stroke: #000000; stroke-width: 0.7; stroke-linejoin: miter"/>
   </g>
   <g id="patch_214">
    <path d="M 122.536728 465.983872 
L 262.256089 465.983872 
L 262.256089 460.538872 
L 122.536728 460.538872 
L 122.536728 465.983872 
z
" clip-path="url(#p2356143961)" style="fill: none; stroke: #000000; stroke-width: 0.7; stroke-linejoin: miter"/>
   </g>
   <g id="matplotlib.axis_33">
    <g id="xtick_81"/>
    <g id="xtick_82"/>
    <g id="xtick_83"/>
    <g id="xtick_84"/>
    <g id="xtick_85"/>
   </g>
   <g id="matplotlib.axis_34">
    <g id="ytick_33"/>
    <g id="ytick_34"/>
   </g>
   <g id="patch_215">
    <path d="M 117.292461 465.983872 
L 117.292461 460.538872 
L 122.536728 465.983872 
L 122.536728 460.538872 
z
" clip-path="url(#p2356143961)" style="fill: #777777; stroke: #777777; stroke-width: 0.64; stroke-linejoin: miter"/>
   </g>
   <g id="text_22">
    <!-- 16 -->
    <g style="fill: #262626" transform="translate(7.2 465.075903) scale(0.07 -0.07)">
     <use xlink:href="#Arial-BoldMT-31"/>
     <use xlink:href="#Arial-BoldMT-36" transform="translate(55.615234 0)"/>
    </g>
   </g>
  </g>
  <g id="axes_18">
   <g id="patch_216">
    <path d="M 19.058838 504.1316 
L 688.658838 504.1316 
L 688.658838 476.9066 
L 19.058838 476.9066 
z
" style="fill: #ffffff"/>
   </g>
   <g id="patch_217">
    <path d="M 19.863787 493.208872 
L 81.076555 493.208872 
L 81.076555 487.763872 
L 19.863787 487.763872 
z
" clip-path="url(#pf8083011e2)" style="fill: #ebeaea"/>
   </g>
   <g id="patch_218">
    <path d="M 91.279234 493.208872 
L 243.256886 493.208872 
L 243.256886 487.763872 
L 91.279234 487.763872 
z
" clip-path="url(#pf8083011e2)" style="fill: #ebeaea"/>
   </g>
   <g id="patch_219">
    <path d="M 151.922552 493.208872 
L 206.552875 493.208872 
L 206.552875 487.763872 
L 151.922552 487.763872 
z
" clip-path="url(#pf8083011e2)" style="fill: #1f77b4; opacity: 0.47638"/>
   </g>
   <g id="patch_220">
    <path d="M 127.214151 493.208872 
L 147.959843 493.208872 
L 147.959843 487.763872 
L 127.214151 487.763872 
z
" clip-path="url(#pf8083011e2)" style="fill: #1f77b4; opacity: 0.083191"/>
   </g>
   <g id="patch_221">
    <path d="M 100.097637 493.208872 
L 113.898612 493.208872 
L 113.898612 487.763872 
L 100.097637 487.763872 
z
" clip-path="url(#pf8083011e2)" style="fill: #1f77b4; opacity: 0.11485"/>
   </g>
   <g id="patch_222">
    <path d="M 52.63921 493.208872 
L 80.020256 493.208872 
L 80.020256 487.763872 
L 52.63921 487.763872 
z
" clip-path="url(#pf8083011e2)" style="fill: #1f77b4; opacity: 0.893325"/>
   </g>
   <g id="patch_223">
    <path d="M 19.863787 493.208872 
L 81.076555 493.208872 
L 81.076555 487.763872 
L 19.863787 487.763872 
L 19.863787 493.208872 
z
" clip-path="url(#pf8083011e2)" style="fill: none; stroke: #000000; stroke-width: 0.7; stroke-linejoin: miter"/>
   </g>
   <g id="patch_224">
    <path d="M 91.279234 493.208872 
L 243.256886 493.208872 
L 243.256886 487.763872 
L 91.279234 487.763872 
L 91.279234 493.208872 
z
" clip-path="url(#pf8083011e2)" style="fill: none; stroke: #000000; stroke-width: 0.7; stroke-linejoin: miter"/>
   </g>
   <g id="matplotlib.axis_35">
    <g id="xtick_86"/>
    <g id="xtick_87"/>
    <g id="xtick_88"/>
    <g id="xtick_89"/>
    <g id="xtick_90"/>
   </g>
   <g id="matplotlib.axis_36">
    <g id="ytick_35"/>
    <g id="ytick_36"/>
   </g>
   <g id="patch_225">
    <path d="M 81.076555 493.208872 
L 81.076555 487.763872 
L 91.279234 493.208872 
L 91.279234 487.763872 
z
" clip-path="url(#pf8083011e2)" style="fill: #777777; stroke: #777777; stroke-width: 0.64; stroke-linejoin: miter"/>
   </g>
   <g id="text_23">
    <!-- 17 -->
    <g style="fill: #262626" transform="translate(7.2 492.300903) scale(0.07 -0.07)">
     <use xlink:href="#Arial-BoldMT-31"/>
     <use xlink:href="#Arial-BoldMT-37" transform="translate(55.615234 0)"/>
    </g>
   </g>
  </g>
  <g id="axes_19">
   <g id="patch_226">
    <path d="M 19.058838 531.3566 
L 688.658838 531.3566 
L 688.658838 504.1316 
L 19.058838 504.1316 
z
" style="fill: #ffffff"/>
   </g>
   <g id="patch_227">
    <path d="M 19.863787 520.433872 
L 61.347864 520.433872 
L 61.347864 514.988872 
L 19.863787 514.988872 
z
" clip-path="url(#p6c55b8d357)" style="fill: #ebeaea"/>
   </g>
   <g id="patch_228">
    <path d="M 75.837756 520.433872 
L 235.518231 520.433872 
L 235.518231 514.988872 
L 75.837756 514.988872 
z
" clip-path="url(#p6c55b8d357)" style="fill: #ebeaea"/>
   </g>
   <g id="patch_229">
    <path d="M 211.665082 520.433872 
L 214.897129 520.433872 
L 214.897129 514.988872 
L 211.665082 514.988872 
z
" clip-path="url(#p6c55b8d357)" style="fill: #1f77b4; opacity: 0.429934"/>
   </g>
   <g id="patch_230">
    <path d="M 164.161342 520.433872 
L 200.898929 520.433872 
L 200.898929 514.988872 
L 164.161342 514.988872 
z
" clip-path="url(#p6c55b8d357)" style="fill: #1f77b4; opacity: 0.065537"/>
   </g>
   <g id="patch_231">
    <path d="M 106.073927 520.433872 
L 138.585295 520.433872 
L 138.585295 514.988872 
L 106.073927 514.988872 
z
" clip-path="url(#p6c55b8d357)" style="fill: #1f77b4; opacity: 0.392062"/>
   </g>
   <g id="patch_232">
    <path d="M 90.141284 520.433872 
L 100.187279 520.433872 
L 100.187279 514.988872 
L 90.141284 514.988872 
z
" clip-path="url(#p6c55b8d357)" style="fill: #1f77b4; opacity: 0.680482"/>
   </g>
   <g id="patch_233">
    <path d="M 19.863787 520.433872 
L 61.347864 520.433872 
L 61.347864 514.988872 
L 19.863787 514.988872 
L 19.863787 520.433872 
z
" clip-path="url(#p6c55b8d357)" style="fill: none; stroke: #000000; stroke-width: 0.7; stroke-linejoin: miter"/>
   </g>
   <g id="patch_234">
    <path d="M 75.837756 520.433872 
L 235.518231 520.433872 
L 235.518231 514.988872 
L 75.837756 514.988872 
L 75.837756 520.433872 
z
" clip-path="url(#p6c55b8d357)" style="fill: none; stroke: #000000; stroke-width: 0.7; stroke-linejoin: miter"/>
   </g>
   <g id="matplotlib.axis_37">
    <g id="xtick_91"/>
    <g id="xtick_92"/>
    <g id="xtick_93"/>
    <g id="xtick_94"/>
    <g id="xtick_95"/>
   </g>
   <g id="matplotlib.axis_38">
    <g id="ytick_37"/>
    <g id="ytick_38"/>
   </g>
   <g id="patch_235">
    <path d="M 61.347864 520.433872 
L 61.347864 514.988872 
L 75.837756 520.433872 
L 75.837756 514.988872 
z
" clip-path="url(#p6c55b8d357)" style="fill: #777777; stroke: #777777; stroke-width: 0.64; stroke-linejoin: miter"/>
   </g>
   <g id="text_24">
    <!-- 18 -->
    <g style="fill: #262626" transform="translate(7.2 519.525903) scale(0.07 -0.07)">
     <use xlink:href="#Arial-BoldMT-31"/>
     <use xlink:href="#Arial-BoldMT-38" transform="translate(55.615234 0)"/>
    </g>
   </g>
  </g>
  <g id="axes_20">
   <g id="patch_236">
    <path d="M 19.058838 558.5816 
L 688.658838 558.5816 
L 688.658838 531.3566 
L 19.058838 531.3566 
z
" style="fill: #ffffff"/>
   </g>
   <g id="patch_237">
    <path d="M 19.863787 547.658872 
L 85.598489 547.658872 
L 85.598489 542.213872 
L 19.863787 542.213872 
z
" clip-path="url(#pd383330f08)" style="fill: #ebeaea"/>
   </g>
   <g id="patch_238">
    <path d="M 92.821273 547.658872 
L 177.144274 547.658872 
L 177.144274 542.213872 
L 92.821273 542.213872 
z
" clip-path="url(#pd383330f08)" style="fill: #ebeaea"/>
   </g>
   <g id="patch_239">
    <path d="M 113.071817 547.658872 
L 153.088184 547.658872 
L 153.088184 542.213872 
L 113.071817 542.213872 
z
" clip-path="url(#pd383330f08)" style="fill: #1f77b4; opacity: 0.055618"/>
   </g>
   <g id="patch_240">
    <path d="M 55.861791 547.658872 
L 60.691375 547.658872 
L 60.691375 542.213872 
L 55.861791 542.213872 
z
" clip-path="url(#pd383330f08)" style="fill: #1f77b4; opacity: 0.005842"/>
   </g>
   <g id="patch_241">
    <path d="M 19.863787 547.658872 
L 85.598489 547.658872 
L 85.598489 542.213872 
L 19.863787 542.213872 
L 19.863787 547.658872 
z
" clip-path="url(#pd383330f08)" style="fill: none; stroke: #000000; stroke-width: 0.7; stroke-linejoin: miter"/>
   </g>
   <g id="patch_242">
    <path d="M 92.821273 547.658872 
L 177.144274 547.658872 
L 177.144274 542.213872 
L 92.821273 542.213872 
L 92.821273 547.658872 
z
" clip-path="url(#pd383330f08)" style="fill: none; stroke: #000000; stroke-width: 0.7; stroke-linejoin: miter"/>
   </g>
   <g id="matplotlib.axis_39">
    <g id="xtick_96"/>
    <g id="xtick_97"/>
    <g id="xtick_98"/>
    <g id="xtick_99"/>
    <g id="xtick_100"/>
   </g>
   <g id="matplotlib.axis_40">
    <g id="ytick_39"/>
    <g id="ytick_40"/>
   </g>
   <g id="patch_243">
    <path d="M 85.598489 547.658872 
L 85.598489 542.213872 
L 92.821273 547.658872 
L 92.821273 542.213872 
z
" clip-path="url(#pd383330f08)" style="fill: #777777; stroke: #777777; stroke-width: 0.64; stroke-linejoin: miter"/>
   </g>
   <g id="text_25">
    <!-- 19 -->
    <g style="fill: #262626" transform="translate(7.2 546.750903) scale(0.07 -0.07)">
     <use xlink:href="#Arial-BoldMT-31"/>
     <use xlink:href="#Arial-BoldMT-39" transform="translate(55.615234 0)"/>
    </g>
   </g>
  </g>
  <g id="axes_21">
   <g id="patch_244">
    <path d="M 19.058838 585.8066 
L 688.658838 585.8066 
L 688.658838 558.5816 
L 19.058838 558.5816 
z
" style="fill: #ffffff"/>
   </g>
   <g id="patch_245">
    <path d="M 19.863787 574.883872 
L 90.796447 574.883872 
L 90.796447 569.438872 
L 19.863787 569.438872 
z
" clip-path="url(#p924d174f90)" style="fill: #ebeaea"/>
   </g>
   <g id="patch_246">
    <path d="M 100.461503 574.883872 
L 192.777847 574.883872 
L 192.777847 569.438872 
L 100.461503 569.438872 
z
" clip-path="url(#p924d174f90)" style="fill: #ebeaea"/>
   </g>
   <g id="patch_247">
    <path d="M 151.491194 574.883872 
L 162.134796 574.883872 
L 162.134796 569.438872 
L 151.491194 569.438872 
z
" clip-path="url(#p924d174f90)" style="fill: #1f77b4; opacity: 0.414535"/>
   </g>
   <g id="patch_248">
    <path d="M 83.887754 574.883872 
L 108.595991 574.883872 
L 108.595991 569.438872 
L 83.887754 569.438872 
z
" clip-path="url(#p924d174f90)" style="fill: #1f77b4; opacity: 0.070064"/>
   </g>
   <g id="patch_249">
    <path d="M 24.625927 574.883872 
L 25.350378 574.883872 
L 25.350378 569.438872 
L 24.625927 569.438872 
z
" clip-path="url(#p924d174f90)" style="fill: #1f77b4; opacity: 0.878364"/>
   </g>
   <g id="patch_250">
    <path d="M 19.863787 574.883872 
L 90.796447 574.883872 
L 90.796447 569.438872 
L 19.863787 569.438872 
L 19.863787 574.883872 
z
" clip-path="url(#p924d174f90)" style="fill: none; stroke: #000000; stroke-width: 0.7; stroke-linejoin: miter"/>
   </g>
   <g id="patch_251">
    <path d="M 100.461503 574.883872 
L 192.777847 574.883872 
L 192.777847 569.438872 
L 100.461503 569.438872 
L 100.461503 574.883872 
z
" clip-path="url(#p924d174f90)" style="fill: none; stroke: #000000; stroke-width: 0.7; stroke-linejoin: miter"/>
   </g>
   <g id="matplotlib.axis_41">
    <g id="xtick_101"/>
    <g id="xtick_102"/>
    <g id="xtick_103"/>
    <g id="xtick_104"/>
    <g id="xtick_105"/>
   </g>
   <g id="matplotlib.axis_42">
    <g id="ytick_41"/>
    <g id="ytick_42"/>
   </g>
   <g id="patch_252">
    <path d="M 90.796447 574.883872 
L 90.796447 569.438872 
L 100.461503 574.883872 
L 100.461503 569.438872 
z
" clip-path="url(#p924d174f90)" style="fill: #777777; stroke: #777777; stroke-width: 0.64; stroke-linejoin: miter"/>
   </g>
   <g id="text_26">
    <!-- 20 -->
    <g style="fill: #262626" transform="translate(7.2 573.975903) scale(0.07 -0.07)">
     <use xlink:href="#Arial-BoldMT-32"/>
     <use xlink:href="#Arial-BoldMT-30" transform="translate(55.615234 0)"/>
    </g>
   </g>
  </g>
  <g id="axes_22">
   <g id="patch_253">
    <path d="M 19.058838 613.0316 
L 441.964102 613.0316 
L 441.964102 585.8066 
L 19.058838 585.8066 
z
" style="fill: #ffffff"/>
   </g>
   <g id="patch_254">
    <path d="M 19.862659 602.108895 
L 48.973193 602.108895 
L 48.973193 596.663895 
L 19.862659 596.663895 
z
" clip-path="url(#p4d1595babc)" style="fill: #ebeaea"/>
   </g>
   <g id="patch_255">
    <path d="M 54.469313 602.108895 
L 145.017525 602.108895 
L 145.017525 596.663895 
L 54.469313 596.663895 
z
" clip-path="url(#p4d1595babc)" style="fill: #ebeaea"/>
   </g>
   <g id="patch_256">
    <path d="M 70.105376 602.108895 
L 104.776941 602.108895 
L 104.776941 596.663895 
L 70.105376 596.663895 
z
" clip-path="url(#p4d1595babc)" style="fill: #1f77b4; opacity: 0.690585"/>
   </g>
   <g id="patch_257">
    <path d="M 54.682283 602.108895 
L 66.465238 602.108895 
L 66.465238 596.663895 
L 54.682283 596.663895 
z
" clip-path="url(#p4d1595babc)" style="fill: #1f77b4; opacity: 0.016488"/>
   </g>
   <g id="patch_258">
    <path d="M 19.862659 602.108895 
L 48.973193 602.108895 
L 48.973193 596.663895 
L 19.862659 596.663895 
L 19.862659 602.108895 
z
" clip-path="url(#p4d1595babc)" style="fill: none; stroke: #000000; stroke-width: 0.7; stroke-linejoin: miter"/>
   </g>
   <g id="patch_259">
    <path d="M 54.469313 602.108895 
L 145.017525 602.108895 
L 145.017525 596.663895 
L 54.469313 596.663895 
L 54.469313 602.108895 
z
" clip-path="url(#p4d1595babc)" style="fill: none; stroke: #000000; stroke-width: 0.7; stroke-linejoin: miter"/>
   </g>
   <g id="matplotlib.axis_43">
    <g id="xtick_106"/>
    <g id="xtick_107"/>
    <g id="xtick_108"/>
    <g id="xtick_109"/>
    <g id="xtick_110"/>
    <g id="xtick_111"/>
    <g id="xtick_112"/>
    <g id="xtick_113"/>
   </g>
   <g id="matplotlib.axis_44">
    <g id="ytick_43"/>
    <g id="ytick_44"/>
   </g>
   <g id="patch_260">
    <path d="M 48.973193 602.108895 
L 48.973193 596.663895 
L 54.469313 602.108895 
L 54.469313 596.663895 
z
" clip-path="url(#p4d1595babc)" style="fill: #777777; stroke: #777777; stroke-width: 0.64; stroke-linejoin: miter"/>
   </g>
   <g id="text_27">
    <!-- 21 -->
    <g style="fill: #262626" transform="translate(7.205705 601.200926) scale(0.07 -0.07)">
     <use xlink:href="#Arial-BoldMT-32"/>
     <use xlink:href="#Arial-BoldMT-31" transform="translate(55.615234 0)"/>
    </g>
   </g>
  </g>
  <g id="axes_23">
   <g id="patch_261">
    <path d="M 19.058838 640.2566 
L 441.964102 640.2566 
L 441.964102 613.0316 
L 19.058838 613.0316 
z
" style="fill: #ffffff"/>
   </g>
   <g id="patch_262">
    <path d="M 19.862659 629.333895 
L 54.573756 629.333895 
L 54.573756 623.888895 
L 19.862659 623.888895 
z
" clip-path="url(#p729ae8060f)" style="fill: #ebeaea"/>
   </g>
   <g id="patch_263">
    <path d="M 60.199243 629.333895 
L 156.025811 629.333895 
L 156.025811 623.888895 
L 60.199243 623.888895 
z
" clip-path="url(#p729ae8060f)" style="fill: #ebeaea"/>
   </g>
   <g id="patch_264">
    <path d="M 128.673727 629.333895 
L 144.386196 629.333895 
L 144.386196 623.888895 
L 128.673727 623.888895 
z
" clip-path="url(#p729ae8060f)" style="fill: #1f77b4; opacity: 0.559624"/>
   </g>
   <g id="patch_265">
    <path d="M 81.768391 629.333895 
L 100.279421 629.333895 
L 100.279421 623.888895 
L 81.768391 623.888895 
z
" clip-path="url(#p729ae8060f)" style="fill: #1f77b4; opacity: 0.991662"/>
   </g>
   <g id="patch_266">
    <path d="M 19.862659 629.333895 
L 54.573756 629.333895 
L 54.573756 623.888895 
L 19.862659 623.888895 
L 19.862659 629.333895 
z
" clip-path="url(#p729ae8060f)" style="fill: none; stroke: #000000; stroke-width: 0.7; stroke-linejoin: miter"/>
   </g>
   <g id="patch_267">
    <path d="M 60.199243 629.333895 
L 156.025811 629.333895 
L 156.025811 623.888895 
L 60.199243 623.888895 
L 60.199243 629.333895 
z
" clip-path="url(#p729ae8060f)" style="fill: none; stroke: #000000; stroke-width: 0.7; stroke-linejoin: miter"/>
   </g>
   <g id="matplotlib.axis_45">
    <g id="xtick_114"/>
    <g id="xtick_115"/>
    <g id="xtick_116"/>
    <g id="xtick_117"/>
    <g id="xtick_118"/>
    <g id="xtick_119"/>
    <g id="xtick_120"/>
    <g id="xtick_121"/>
   </g>
   <g id="matplotlib.axis_46">
    <g id="ytick_45"/>
    <g id="ytick_46"/>
   </g>
   <g id="patch_268">
    <path d="M 54.573756 629.333895 
L 54.573756 623.888895 
L 60.199243 629.333895 
L 60.199243 623.888895 
z
" clip-path="url(#p729ae8060f)" style="fill: #777777; stroke: #777777; stroke-width: 0.64; stroke-linejoin: miter"/>
   </g>
   <g id="text_28">
    <!-- 22 -->
    <g style="fill: #262626" transform="translate(7.205705 628.425926) scale(0.07 -0.07)">
     <use xlink:href="#Arial-BoldMT-32"/>
     <use xlink:href="#Arial-BoldMT-32" transform="translate(55.615234 0)"/>
    </g>
   </g>
  </g>
  <g id="axes_24">
   <g id="patch_269">
    <path d="M 265.753575 613.0316 
L 688.658838 613.0316 
L 688.658838 585.8066 
L 265.753575 585.8066 
z
" style="fill: #ffffff"/>
   </g>
   <g id="patch_270">
    <path d="M 266.563527 602.108645 
L 424.789179 602.108645 
L 424.789179 596.663645 
L 266.563527 596.663645 
z
" clip-path="url(#p45a4e2df49)" style="fill: #ebeaea"/>
   </g>
   <g id="patch_271">
    <path d="M 435.067368 602.108645 
L 687.848887 602.108645 
L 687.848887 596.663645 
L 435.067368 596.663645 
z
" clip-path="url(#p45a4e2df49)" style="fill: #ebeaea"/>
   </g>
   <g id="patch_272">
    <path d="M 607.245829 602.108645 
L 614.05356 602.108645 
L 614.05356 596.663645 
L 607.245829 596.663645 
z
" clip-path="url(#p45a4e2df49)" style="fill: #1f77b4; opacity: 0.512105"/>
   </g>
   <g id="patch_273">
    <path d="M 519.871825 602.108645 
L 530.827049 602.108645 
L 530.827049 596.663645 
L 519.871825 596.663645 
z
" clip-path="url(#p45a4e2df49)" style="fill: #1f77b4; opacity: 0.304976"/>
   </g>
   <g id="patch_274">
    <path d="M 511.332897 602.108645 
L 515.876548 602.108645 
L 515.876548 596.663645 
L 511.332897 596.663645 
z
" clip-path="url(#p45a4e2df49)" style="fill: #1f77b4; opacity: 0.851593"/>
   </g>
   <g id="patch_275">
    <path d="M 426.339765 602.108645 
L 430.966099 602.108645 
L 430.966099 596.663645 
L 426.339765 596.663645 
z
" clip-path="url(#p45a4e2df49)" style="fill: #1f77b4; opacity: 0.090601"/>
   </g>
   <g id="patch_276">
    <path d="M 409.122902 602.108645 
L 414.679571 602.108645 
L 414.679571 596.663645 
L 409.122902 596.663645 
z
" clip-path="url(#p45a4e2df49)" style="fill: #1f77b4; opacity: 0.089241"/>
   </g>
   <g id="patch_277">
    <path d="M 328.005258 602.108645 
L 340.600144 602.108645 
L 340.600144 596.663645 
L 328.005258 596.663645 
z
" clip-path="url(#p45a4e2df49)" style="fill: #1f77b4; opacity: 0.262353"/>
   </g>
   <g id="patch_278">
    <path d="M 267.946544 602.108645 
L 324.932136 602.108645 
L 324.932136 596.663645 
L 267.946544 596.663645 
z
" clip-path="url(#p45a4e2df49)" style="fill: #1f77b4; opacity: 0.174335"/>
   </g>
   <g id="patch_279">
    <path d="M 266.563527 602.108645 
L 424.789179 602.108645 
L 424.789179 596.663645 
L 266.563527 596.663645 
L 266.563527 602.108645 
z
" clip-path="url(#p45a4e2df49)" style="fill: none; stroke: #000000; stroke-width: 0.7; stroke-linejoin: miter"/>
   </g>
   <g id="patch_280">
    <path d="M 435.067368 602.108645 
L 687.848887 602.108645 
L 687.848887 596.663645 
L 435.067368 596.663645 
L 435.067368 602.108645 
z
" clip-path="url(#p45a4e2df49)" style="fill: none; stroke: #000000; stroke-width: 0.7; stroke-linejoin: miter"/>
   </g>
   <g id="matplotlib.axis_47">
    <g id="xtick_122"/>
    <g id="xtick_123"/>
    <g id="xtick_124"/>
    <g id="xtick_125"/>
    <g id="xtick_126"/>
    <g id="xtick_127"/>
    <g id="xtick_128"/>
    <g id="xtick_129"/>
   </g>
   <g id="matplotlib.axis_48">
    <g id="ytick_47"/>
    <g id="ytick_48"/>
   </g>
   <g id="patch_281">
    <path d="M 424.789179 602.108645 
L 424.789179 596.663645 
L 435.067368 602.108645 
L 435.067368 596.663645 
z
" clip-path="url(#p45a4e2df49)" style="fill: #777777; stroke: #777777; stroke-width: 0.64; stroke-linejoin: miter"/>
   </g>
   <g id="text_29">
    <!-- X -->
    <g style="fill: #262626" transform="translate(256.985509 601.200676) scale(0.07 -0.07)">
     <defs>
      <path id="Arial-BoldMT-58" d="M 0 0 
L 1566 2391 
L 147 4581 
L 1228 4581 
L 2147 3109 
L 3047 4581 
L 4119 4581 
L 2694 2356 
L 4259 0 
L 3144 0 
L 2128 1584 
L 1109 0 
L 0 0 
z
" transform="scale(0.015625)"/>
     </defs>
     <use xlink:href="#Arial-BoldMT-58"/>
    </g>
   </g>
  </g>
  <g id="axes_25">
   <g id="patch_282">
    <path d="M 265.753575 640.2566 
L 688.658838 640.2566 
L 688.658838 613.0316 
L 265.753575 613.0316 
z
" style="fill: #ffffff"/>
   </g>
   <g id="patch_283">
    <path d="M 266.563527 629.333645 
L 294.417619 629.333645 
L 294.417619 623.888645 
L 266.563527 623.888645 
z
" clip-path="url(#p808770f940)" style="fill: #ebeaea"/>
   </g>
   <g id="patch_284">
    <path d="M 295.030739 629.333645 
L 421.068358 629.333645 
L 421.068358 623.888645 
L 295.030739 623.888645 
z
" clip-path="url(#p808770f940)" style="fill: #ebeaea"/>
   </g>
   <g id="patch_285">
    <path d="M 386.250519 629.333645 
L 408.303631 629.333645 
L 408.303631 623.888645 
L 386.250519 623.888645 
z
" clip-path="url(#p808770f940)" style="fill: #1f77b4; opacity: 0.574314"/>
   </g>
   <g id="patch_286">
    <path d="M 288.288044 629.333645 
L 336.959658 629.333645 
L 336.959658 623.888645 
L 288.288044 623.888645 
z
" clip-path="url(#p808770f940)" style="fill: #1f77b4; opacity: 0.008325"/>
   </g>
   <g id="patch_287">
    <path d="M 266.563527 629.333645 
L 294.417619 629.333645 
L 294.417619 623.888645 
L 266.563527 623.888645 
L 266.563527 629.333645 
z
" clip-path="url(#p808770f940)" style="fill: none; stroke: #000000; stroke-width: 0.7; stroke-linejoin: miter"/>
   </g>
   <g id="patch_288">
    <path d="M 295.030739 629.333645 
L 421.068358 629.333645 
L 421.068358 623.888645 
L 295.030739 623.888645 
L 295.030739 629.333645 
z
" clip-path="url(#p808770f940)" style="fill: none; stroke: #000000; stroke-width: 0.7; stroke-linejoin: miter"/>
   </g>
   <g id="matplotlib.axis_49">
    <g id="xtick_130">
     <g id="line2d_6">
      <defs>
       <path id="m6423fa3b70" d="M 0 0 
L 0 3.84 
" style="stroke: #262626; stroke-width: 0.8"/>
      </defs>
      <g>
       <use xlink:href="#m6423fa3b70" x="266.563527" y="640.2566" style="fill: #262626; stroke: #262626; stroke-width: 0.8"/>
      </g>
     </g>
     <g id="text_30">
      <!-- 0.0 -->
      <g style="fill: #262626" transform="translate(261.670727 652.6357) scale(0.0704 -0.0704)">
       <use xlink:href="#ArialMT-30"/>
       <use xlink:href="#ArialMT-2e" transform="translate(55.615234 0)"/>
       <use xlink:href="#ArialMT-30" transform="translate(83.398438 0)"/>
      </g>
     </g>
    </g>
    <g id="xtick_131">
     <g id="line2d_7">
      <g>
       <use xlink:href="#m6423fa3b70" x="320.560315" y="640.2566" style="fill: #262626; stroke: #262626; stroke-width: 0.8"/>
      </g>
     </g>
     <g id="text_31">
      <!-- 0.2 -->
      <g style="fill: #262626" transform="translate(315.667515 652.6357) scale(0.0704 -0.0704)">
       <use xlink:href="#ArialMT-30"/>
       <use xlink:href="#ArialMT-2e" transform="translate(55.615234 0)"/>
       <use xlink:href="#ArialMT-32" transform="translate(83.398438 0)"/>
      </g>
     </g>
    </g>
    <g id="xtick_132">
     <g id="line2d_8">
      <g>
       <use xlink:href="#m6423fa3b70" x="374.557104" y="640.2566" style="fill: #262626; stroke: #262626; stroke-width: 0.8"/>
      </g>
     </g>
     <g id="text_32">
      <!-- 0.4 -->
      <g style="fill: #262626" transform="translate(369.664304 652.6357) scale(0.0704 -0.0704)">
       <defs>
        <path id="ArialMT-34" d="M 2069 0 
L 2069 1097 
L 81 1097 
L 81 1613 
L 2172 4581 
L 2631 4581 
L 2631 1613 
L 3250 1613 
L 3250 1097 
L 2631 1097 
L 2631 0 
L 2069 0 
z
M 2069 1613 
L 2069 3678 
L 634 1613 
L 2069 1613 
z
" transform="scale(0.015625)"/>
       </defs>
       <use xlink:href="#ArialMT-30"/>
       <use xlink:href="#ArialMT-2e" transform="translate(55.615234 0)"/>
       <use xlink:href="#ArialMT-34" transform="translate(83.398438 0)"/>
      </g>
     </g>
    </g>
    <g id="xtick_133">
     <g id="line2d_9">
      <g>
       <use xlink:href="#m6423fa3b70" x="428.553892" y="640.2566" style="fill: #262626; stroke: #262626; stroke-width: 0.8"/>
      </g>
     </g>
     <g id="text_33">
      <!-- 0.6 -->
      <g style="fill: #262626" transform="translate(423.661092 652.6357) scale(0.0704 -0.0704)">
       <defs>
        <path id="ArialMT-36" d="M 3184 3459 
L 2625 3416 
Q 2550 3747 2413 3897 
Q 2184 4138 1850 4138 
Q 1581 4138 1378 3988 
Q 1113 3794 959 3422 
Q 806 3050 800 2363 
Q 1003 2672 1297 2822 
Q 1591 2972 1913 2972 
Q 2475 2972 2870 2558 
Q 3266 2144 3266 1488 
Q 3266 1056 3080 686 
Q 2894 316 2569 119 
Q 2244 -78 1831 -78 
Q 1128 -78 684 439 
Q 241 956 241 2144 
Q 241 3472 731 4075 
Q 1159 4600 1884 4600 
Q 2425 4600 2770 4297 
Q 3116 3994 3184 3459 
z
M 888 1484 
Q 888 1194 1011 928 
Q 1134 663 1356 523 
Q 1578 384 1822 384 
Q 2178 384 2434 671 
Q 2691 959 2691 1453 
Q 2691 1928 2437 2201 
Q 2184 2475 1800 2475 
Q 1419 2475 1153 2201 
Q 888 1928 888 1484 
z
" transform="scale(0.015625)"/>
       </defs>
       <use xlink:href="#ArialMT-30"/>
       <use xlink:href="#ArialMT-2e" transform="translate(55.615234 0)"/>
       <use xlink:href="#ArialMT-36" transform="translate(83.398438 0)"/>
      </g>
     </g>
    </g>
    <g id="xtick_134">
     <g id="line2d_10">
      <g>
       <use xlink:href="#m6423fa3b70" x="482.550681" y="640.2566" style="fill: #262626; stroke: #262626; stroke-width: 0.8"/>
      </g>
     </g>
     <g id="text_34">
      <!-- 0.8 -->
      <g style="fill: #262626" transform="translate(477.657881 652.6357) scale(0.0704 -0.0704)">
       <use xlink:href="#ArialMT-30"/>
       <use xlink:href="#ArialMT-2e" transform="translate(55.615234 0)"/>
       <use xlink:href="#ArialMT-38" transform="translate(83.398438 0)"/>
      </g>
     </g>
    </g>
    <g id="xtick_135">
     <g id="line2d_11">
      <g>
       <use xlink:href="#m6423fa3b70" x="536.547469" y="640.2566" style="fill: #262626; stroke: #262626; stroke-width: 0.8"/>
      </g>
     </g>
     <g id="text_35">
      <!-- 1.0 -->
      <g style="fill: #262626" transform="translate(531.654669 652.6357) scale(0.0704 -0.0704)">
       <use xlink:href="#ArialMT-31"/>
       <use xlink:href="#ArialMT-2e" transform="translate(55.615234 0)"/>
       <use xlink:href="#ArialMT-30" transform="translate(83.398438 0)"/>
      </g>
     </g>
    </g>
    <g id="xtick_136">
     <g id="line2d_12">
      <g>
       <use xlink:href="#m6423fa3b70" x="590.544257" y="640.2566" style="fill: #262626; stroke: #262626; stroke-width: 0.8"/>
      </g>
     </g>
     <g id="text_36">
      <!-- 1.2 -->
      <g style="fill: #262626" transform="translate(585.651457 652.6357) scale(0.0704 -0.0704)">
       <use xlink:href="#ArialMT-31"/>
       <use xlink:href="#ArialMT-2e" transform="translate(55.615234 0)"/>
       <use xlink:href="#ArialMT-32" transform="translate(83.398438 0)"/>
      </g>
     </g>
    </g>
    <g id="xtick_137">
     <g id="line2d_13">
      <g>
       <use xlink:href="#m6423fa3b70" x="644.541046" y="640.2566" style="fill: #262626; stroke: #262626; stroke-width: 0.8"/>
      </g>
     </g>
     <g id="text_37">
      <!-- 1.4 -->
      <g style="fill: #262626" transform="translate(639.648246 652.6357) scale(0.0704 -0.0704)">
       <use xlink:href="#ArialMT-31"/>
       <use xlink:href="#ArialMT-2e" transform="translate(55.615234 0)"/>
       <use xlink:href="#ArialMT-34" transform="translate(83.398438 0)"/>
      </g>
     </g>
    </g>
    <g id="text_38">
     <!-- 1e8 -->
     <g style="fill: #262626" transform="translate(676.914138 662.074) scale(0.0704 -0.0704)">
      <use xlink:href="#ArialMT-31"/>
      <use xlink:href="#ArialMT-65" transform="translate(55.615234 0)"/>
      <use xlink:href="#ArialMT-38" transform="translate(111.230469 0)"/>
     </g>
    </g>
   </g>
   <g id="patch_289">
    <path d="M 294.417619 629.333645 
L 294.417619 623.888645 
L 295.030739 629.333645 
L 295.030739 623.888645 
z
" clip-path="url(#p808770f940)" style="fill: #777777; stroke: #777777; stroke-width: 0.64; stroke-linejoin: miter"/>
   </g>
   <g id="patch_290">
    <path d="M 265.753575 640.2566 
L 688.658838 640.2566 
" style="fill: none; stroke: #262626; stroke-width: 0.8; stroke-linejoin: miter; stroke-linecap: square"/>
   </g>
   <g id="text_39">
    <!-- Y -->
    <g style="fill: #262626" transform="translate(256.985509 628.425676) scale(0.07 -0.07)">
     <defs>
      <path id="Arial-BoldMT-59" d="M 1669 0 
L 1669 1928 
L -9 4581 
L 1075 4581 
L 2153 2769 
L 3209 4581 
L 4275 4581 
L 2591 1922 
L 2591 0 
L 1669 0 
z
" transform="scale(0.015625)"/>
     </defs>
     <use xlink:href="#Arial-BoldMT-59"/>
    </g>
   </g>
  </g>
 </g>
 <defs>
  <clipPath id="p500f2f452d">
   <rect x="19.058838" y="41.3066" width="669.6" height="27.225"/>
  </clipPath>
  <clipPath id="pd19a7efc9f">
   <rect x="19.058838" y="68.5316" width="669.6" height="27.225"/>
  </clipPath>
  <clipPath id="p7cff53a04e">
   <rect x="19.058838" y="95.7566" width="669.6" height="27.225"/>
  </clipPath>
  <clipPath id="p7e579303ca">
   <rect x="19.058838" y="122.9816" width="669.6" height="27.225"/>
  </clipPath>
  <clipPath id="p07b83fc50f">
   <rect x="19.058838" y="150.2066" width="669.6" height="27.225"/>
  </clipPath>
  <clipPath id="pf2c8ae8da6">
   <rect x="19.058838" y="177.4316" width="669.6" height="27.225"/>
  </clipPath>
  <clipPath id="p6846a271b0">
   <rect x="19.058838" y="204.6566" width="669.6" height="27.225"/>
  </clipPath>
  <clipPath id="p21da0f9c8f">
   <rect x="19.058838" y="231.8816" width="669.6" height="27.225"/>
  </clipPath>
  <clipPath id="p50356fc52d">
   <rect x="19.058838" y="259.1066" width="669.6" height="27.225"/>
  </clipPath>
  <clipPath id="pbfc6f0c211">
   <rect x="19.058838" y="286.3316" width="669.6" height="27.225"/>
  </clipPath>
  <clipPath id="p490a99ab1b">
   <rect x="19.058838" y="313.5566" width="669.6" height="27.225"/>
  </clipPath>
  <clipPath id="p26c7c98232">
   <rect x="19.058838" y="340.7816" width="669.6" height="27.225"/>
  </clipPath>
  <clipPath id="pef3d4b74ba">
   <rect x="19.058838" y="368.0066" width="669.6" height="27.225"/>
  </clipPath>
  <clipPath id="p3f4b612cc4">
   <rect x="19.058838" y="395.2316" width="669.6" height="27.225"/>
  </clipPath>
  <clipPath id="pf79ca9dd01">
   <rect x="19.058838" y="422.4566" width="669.6" height="27.225"/>
  </clipPath>
  <clipPath id="p2356143961">
   <rect x="19.058838" y="449.6816" width="669.6" height="27.225"/>
  </clipPath>
  <clipPath id="pf8083011e2">
   <rect x="19.058838" y="476.9066" width="669.6" height="27.225"/>
  </clipPath>
  <clipPath id="p6c55b8d357">
   <rect x="19.058838" y="504.1316" width="669.6" height="27.225"/>
  </clipPath>
  <clipPath id="pd383330f08">
   <rect x="19.058838" y="531.3566" width="669.6" height="27.225"/>
  </clipPath>
  <clipPath id="p924d174f90">
   <rect x="19.058838" y="558.5816" width="669.6" height="27.225"/>
  </clipPath>
  <clipPath id="p4d1595babc">
   <rect x="19.058838" y="585.8066" width="422.905263" height="27.225"/>
  </clipPath>
  <clipPath id="p729ae8060f">
   <rect x="19.058838" y="613.0316" width="422.905263" height="27.225"/>
  </clipPath>
  <clipPath id="p45a4e2df49">
   <rect x="265.753575" y="585.8066" width="422.905263" height="27.225"/>
  </clipPath>
  <clipPath id="p808770f940">
   <rect x="265.753575" y="613.0316" width="422.905263" height="27.225"/>
  </clipPath>
 </defs>
</svg>
