<?xml version="1.0" encoding="utf-8" standalone="no"?>
<!DOCTYPE svg PUBLIC "-//W3C//DTD SVG 1.1//EN"
  "http://www.w3.org/Graphics/SVG/1.1/DTD/svg11.dtd">
<svg xmlns:xlink="http://www.w3.org/1999/xlink" width="800.358626pt" height="148.4966pt" viewBox="0 0 800.358626 148.4966" xmlns="http://www.w3.org/2000/svg" version="1.1">
 <metadata>
  <rdf:RDF xmlns:dc="http://purl.org/dc/elements/1.1/" xmlns:cc="http://creativecommons.org/ns#" xmlns:rdf="http://www.w3.org/1999/02/22-rdf-syntax-ns#">
   <cc:Work>
    <dc:type rdf:resource="http://purl.org/dc/dcmitype/StillImage"/>
    <dc:date>2025-02-01T16:15:24.823456</dc:date>
    <dc:format>image/svg+xml</dc:format>
    <dc:creator>
     <cc:Agent>
      <dc:title>Matplotlib v3.8.4, https://matplotlib.org/</dc:title>
     </cc:Agent>
    </dc:creator>
   </cc:Work>
  </rdf:RDF>
 </metadata>
 <defs>
  <style type="text/css">*{stroke-linejoin: round; stroke-linecap: butt}</style>
 </defs>
 <g id="figure_1">
  <g id="patch_1">
   <path d="M 0 148.4966 
L 800.358626 148.4966 
L 800.358626 0 
L 0 0 
z
" style="fill: #ffffff"/>
  </g>
  <g id="axes_1">
   <g id="patch_2">
    <path d="M 10.810376 118.08 
L 680.410376 118.08 
L 680.410376 7.2 
L 10.810376 7.2 
z
" style="fill: #ffffff"/>
   </g>
   <g id="patch_3">
    <path d="M 12.0928 73.515642 
L 260.455528 73.515642 
L 260.455528 51.339642 
L 12.0928 51.339642 
z
" clip-path="url(#p6c107c63f9)" style="fill: #ebeaea"/>
   </g>
   <g id="patch_4">
    <path d="M 284.821579 73.515642 
L 679.127953 73.515642 
L 679.127953 51.339642 
L 284.821579 51.339642 
z
" clip-path="url(#p6c107c63f9)" style="fill: #ebeaea"/>
   </g>
   <g id="patch_5">
    <path d="M 12.0928 73.515642 
L 260.455528 73.515642 
L 260.455528 51.339642 
L 12.0928 51.339642 
L 12.0928 73.515642 
z
" clip-path="url(#p6c107c63f9)" style="fill: none; stroke: #000000; stroke-width: 0.7; stroke-linejoin: miter"/>
   </g>
   <g id="patch_6">
    <path d="M 284.821579 73.515642 
L 679.127953 73.515642 
L 679.127953 51.339642 
L 284.821579 51.339642 
L 284.821579 73.515642 
z
" clip-path="url(#p6c107c63f9)" style="fill: none; stroke: #000000; stroke-width: 0.7; stroke-linejoin: miter"/>
   </g>
   <g id="matplotlib.axis_1">
    <g id="xtick_1">
     <g id="line2d_1">
      <defs>
       <path id="m952330516c" d="M 0 0 
L 0 3.84 
" style="stroke: #262626; stroke-width: 0.8"/>
      </defs>
      <g>
       <use xlink:href="#m952330516c" x="12.0928" y="118.08" style="fill: #262626; stroke: #262626; stroke-width: 0.8"/>
      </g>
     </g>
     <g id="text_1">
      <!-- 0.0 -->
      <g style="fill: #262626" transform="translate(7.2 130.4591) scale(0.0704 -0.0704)">
       <defs>
        <path id="ArialMT-30" d="M 266 2259 
Q 266 3072 433 3567 
Q 600 4063 929 4331 
Q 1259 4600 1759 4600 
Q 2128 4600 2406 4451 
Q 2684 4303 2865 4023 
Q 3047 3744 3150 3342 
Q 3253 2941 3253 2259 
Q 3253 1453 3087 958 
Q 2922 463 2592 192 
Q 2263 -78 1759 -78 
Q 1097 -78 719 397 
Q 266 969 266 2259 
z
M 844 2259 
Q 844 1131 1108 757 
Q 1372 384 1759 384 
Q 2147 384 2411 759 
Q 2675 1134 2675 2259 
Q 2675 3391 2411 3762 
Q 2147 4134 1753 4134 
Q 1366 4134 1134 3806 
Q 844 3388 844 2259 
z
" transform="scale(0.015625)"/>
        <path id="ArialMT-2e" d="M 581 0 
L 581 641 
L 1222 641 
L 1222 0 
L 581 0 
z
" transform="scale(0.015625)"/>
       </defs>
       <use xlink:href="#ArialMT-30"/>
       <use xlink:href="#ArialMT-2e" x="55.615234"/>
       <use xlink:href="#ArialMT-30" x="83.398438"/>
      </g>
     </g>
    </g>
    <g id="xtick_2">
     <g id="line2d_2">
      <g>
       <use xlink:href="#m952330516c" x="54.840257" y="118.08" style="fill: #262626; stroke: #262626; stroke-width: 0.8"/>
      </g>
     </g>
     <g id="text_2">
      <!-- 0.1 -->
      <g style="fill: #262626" transform="translate(49.947457 130.4591) scale(0.0704 -0.0704)">
       <defs>
        <path id="ArialMT-31" d="M 2384 0 
L 1822 0 
L 1822 3584 
Q 1619 3391 1289 3197 
Q 959 3003 697 2906 
L 697 3450 
Q 1169 3672 1522 3987 
Q 1875 4303 2022 4600 
L 2384 4600 
L 2384 0 
z
" transform="scale(0.015625)"/>
       </defs>
       <use xlink:href="#ArialMT-30"/>
       <use xlink:href="#ArialMT-2e" x="55.615234"/>
       <use xlink:href="#ArialMT-31" x="83.398438"/>
      </g>
     </g>
    </g>
    <g id="xtick_3">
     <g id="line2d_3">
      <g>
       <use xlink:href="#m952330516c" x="97.587715" y="118.08" style="fill: #262626; stroke: #262626; stroke-width: 0.8"/>
      </g>
     </g>
     <g id="text_3">
      <!-- 0.2 -->
      <g style="fill: #262626" transform="translate(92.694915 130.4591) scale(0.0704 -0.0704)">
       <defs>
        <path id="ArialMT-32" d="M 3222 541 
L 3222 0 
L 194 0 
Q 188 203 259 391 
Q 375 700 629 1000 
Q 884 1300 1366 1694 
Q 2113 2306 2375 2664 
Q 2638 3022 2638 3341 
Q 2638 3675 2398 3904 
Q 2159 4134 1775 4134 
Q 1369 4134 1125 3890 
Q 881 3647 878 3216 
L 300 3275 
Q 359 3922 746 4261 
Q 1134 4600 1788 4600 
Q 2447 4600 2831 4234 
Q 3216 3869 3216 3328 
Q 3216 3053 3103 2787 
Q 2991 2522 2730 2228 
Q 2469 1934 1863 1422 
Q 1356 997 1212 845 
Q 1069 694 975 541 
L 3222 541 
z
" transform="scale(0.015625)"/>
       </defs>
       <use xlink:href="#ArialMT-30"/>
       <use xlink:href="#ArialMT-2e" x="55.615234"/>
       <use xlink:href="#ArialMT-32" x="83.398438"/>
      </g>
     </g>
    </g>
    <g id="xtick_4">
     <g id="line2d_4">
      <g>
       <use xlink:href="#m952330516c" x="140.335172" y="118.08" style="fill: #262626; stroke: #262626; stroke-width: 0.8"/>
      </g>
     </g>
     <g id="text_4">
      <!-- 0.3 -->
      <g style="fill: #262626" transform="translate(135.442372 130.4591) scale(0.0704 -0.0704)">
       <defs>
        <path id="ArialMT-33" d="M 269 1209 
L 831 1284 
Q 928 806 1161 595 
Q 1394 384 1728 384 
Q 2125 384 2398 659 
Q 2672 934 2672 1341 
Q 2672 1728 2419 1979 
Q 2166 2231 1775 2231 
Q 1616 2231 1378 2169 
L 1441 2663 
Q 1497 2656 1531 2656 
Q 1891 2656 2178 2843 
Q 2466 3031 2466 3422 
Q 2466 3731 2256 3934 
Q 2047 4138 1716 4138 
Q 1388 4138 1169 3931 
Q 950 3725 888 3313 
L 325 3413 
Q 428 3978 793 4289 
Q 1159 4600 1703 4600 
Q 2078 4600 2393 4439 
Q 2709 4278 2876 4000 
Q 3044 3722 3044 3409 
Q 3044 3113 2884 2869 
Q 2725 2625 2413 2481 
Q 2819 2388 3044 2092 
Q 3269 1797 3269 1353 
Q 3269 753 2831 336 
Q 2394 -81 1725 -81 
Q 1122 -81 723 278 
Q 325 638 269 1209 
z
" transform="scale(0.015625)"/>
       </defs>
       <use xlink:href="#ArialMT-30"/>
       <use xlink:href="#ArialMT-2e" x="55.615234"/>
       <use xlink:href="#ArialMT-33" x="83.398438"/>
      </g>
     </g>
    </g>
    <g id="xtick_5">
     <g id="line2d_5">
      <g>
       <use xlink:href="#m952330516c" x="183.08263" y="118.08" style="fill: #262626; stroke: #262626; stroke-width: 0.8"/>
      </g>
     </g>
     <g id="text_5">
      <!-- 0.4 -->
      <g style="fill: #262626" transform="translate(178.18983 130.4591) scale(0.0704 -0.0704)">
       <defs>
        <path id="ArialMT-34" d="M 2069 0 
L 2069 1097 
L 81 1097 
L 81 1613 
L 2172 4581 
L 2631 4581 
L 2631 1613 
L 3250 1613 
L 3250 1097 
L 2631 1097 
L 2631 0 
L 2069 0 
z
M 2069 1613 
L 2069 3678 
L 634 1613 
L 2069 1613 
z
" transform="scale(0.015625)"/>
       </defs>
       <use xlink:href="#ArialMT-30"/>
       <use xlink:href="#ArialMT-2e" x="55.615234"/>
       <use xlink:href="#ArialMT-34" x="83.398438"/>
      </g>
     </g>
    </g>
    <g id="xtick_6">
     <g id="line2d_6">
      <g>
       <use xlink:href="#m952330516c" x="225.830087" y="118.08" style="fill: #262626; stroke: #262626; stroke-width: 0.8"/>
      </g>
     </g>
     <g id="text_6">
      <!-- 0.5 -->
      <g style="fill: #262626" transform="translate(220.937287 130.4591) scale(0.0704 -0.0704)">
       <defs>
        <path id="ArialMT-35" d="M 266 1200 
L 856 1250 
Q 922 819 1161 601 
Q 1400 384 1738 384 
Q 2144 384 2425 690 
Q 2706 997 2706 1503 
Q 2706 1984 2436 2262 
Q 2166 2541 1728 2541 
Q 1456 2541 1237 2417 
Q 1019 2294 894 2097 
L 366 2166 
L 809 4519 
L 3088 4519 
L 3088 3981 
L 1259 3981 
L 1013 2750 
Q 1425 3038 1878 3038 
Q 2478 3038 2890 2622 
Q 3303 2206 3303 1553 
Q 3303 931 2941 478 
Q 2500 -78 1738 -78 
Q 1113 -78 717 272 
Q 322 622 266 1200 
z
" transform="scale(0.015625)"/>
       </defs>
       <use xlink:href="#ArialMT-30"/>
       <use xlink:href="#ArialMT-2e" x="55.615234"/>
       <use xlink:href="#ArialMT-35" x="83.398438"/>
      </g>
     </g>
    </g>
    <g id="xtick_7">
     <g id="line2d_7">
      <g>
       <use xlink:href="#m952330516c" x="268.577545" y="118.08" style="fill: #262626; stroke: #262626; stroke-width: 0.8"/>
      </g>
     </g>
     <g id="text_7">
      <!-- 0.6 -->
      <g style="fill: #262626" transform="translate(263.684745 130.4591) scale(0.0704 -0.0704)">
       <defs>
        <path id="ArialMT-36" d="M 3184 3459 
L 2625 3416 
Q 2550 3747 2413 3897 
Q 2184 4138 1850 4138 
Q 1581 4138 1378 3988 
Q 1113 3794 959 3422 
Q 806 3050 800 2363 
Q 1003 2672 1297 2822 
Q 1591 2972 1913 2972 
Q 2475 2972 2870 2558 
Q 3266 2144 3266 1488 
Q 3266 1056 3080 686 
Q 2894 316 2569 119 
Q 2244 -78 1831 -78 
Q 1128 -78 684 439 
Q 241 956 241 2144 
Q 241 3472 731 4075 
Q 1159 4600 1884 4600 
Q 2425 4600 2770 4297 
Q 3116 3994 3184 3459 
z
M 888 1484 
Q 888 1194 1011 928 
Q 1134 663 1356 523 
Q 1578 384 1822 384 
Q 2178 384 2434 671 
Q 2691 959 2691 1453 
Q 2691 1928 2437 2201 
Q 2184 2475 1800 2475 
Q 1419 2475 1153 2201 
Q 888 1928 888 1484 
z
" transform="scale(0.015625)"/>
       </defs>
       <use xlink:href="#ArialMT-30"/>
       <use xlink:href="#ArialMT-2e" x="55.615234"/>
       <use xlink:href="#ArialMT-36" x="83.398438"/>
      </g>
     </g>
    </g>
    <g id="xtick_8">
     <g id="line2d_8">
      <g>
       <use xlink:href="#m952330516c" x="311.325002" y="118.08" style="fill: #262626; stroke: #262626; stroke-width: 0.8"/>
      </g>
     </g>
     <g id="text_8">
      <!-- 0.7 -->
      <g style="fill: #262626" transform="translate(306.432202 130.4591) scale(0.0704 -0.0704)">
       <defs>
        <path id="ArialMT-37" d="M 303 3981 
L 303 4522 
L 3269 4522 
L 3269 4084 
Q 2831 3619 2401 2847 
Q 1972 2075 1738 1259 
Q 1569 684 1522 0 
L 944 0 
Q 953 541 1156 1306 
Q 1359 2072 1739 2783 
Q 2119 3494 2547 3981 
L 303 3981 
z
" transform="scale(0.015625)"/>
       </defs>
       <use xlink:href="#ArialMT-30"/>
       <use xlink:href="#ArialMT-2e" x="55.615234"/>
       <use xlink:href="#ArialMT-37" x="83.398438"/>
      </g>
     </g>
    </g>
    <g id="xtick_9">
     <g id="line2d_9">
      <g>
       <use xlink:href="#m952330516c" x="354.07246" y="118.08" style="fill: #262626; stroke: #262626; stroke-width: 0.8"/>
      </g>
     </g>
     <g id="text_9">
      <!-- 0.8 -->
      <g style="fill: #262626" transform="translate(349.17966 130.4591) scale(0.0704 -0.0704)">
       <defs>
        <path id="ArialMT-38" d="M 1131 2484 
Q 781 2613 612 2850 
Q 444 3088 444 3419 
Q 444 3919 803 4259 
Q 1163 4600 1759 4600 
Q 2359 4600 2725 4251 
Q 3091 3903 3091 3403 
Q 3091 3084 2923 2848 
Q 2756 2613 2416 2484 
Q 2838 2347 3058 2040 
Q 3278 1734 3278 1309 
Q 3278 722 2862 322 
Q 2447 -78 1769 -78 
Q 1091 -78 675 323 
Q 259 725 259 1325 
Q 259 1772 486 2073 
Q 713 2375 1131 2484 
z
M 1019 3438 
Q 1019 3113 1228 2906 
Q 1438 2700 1772 2700 
Q 2097 2700 2305 2904 
Q 2513 3109 2513 3406 
Q 2513 3716 2298 3927 
Q 2084 4138 1766 4138 
Q 1444 4138 1231 3931 
Q 1019 3725 1019 3438 
z
M 838 1322 
Q 838 1081 952 856 
Q 1066 631 1291 507 
Q 1516 384 1775 384 
Q 2178 384 2440 643 
Q 2703 903 2703 1303 
Q 2703 1709 2433 1975 
Q 2163 2241 1756 2241 
Q 1359 2241 1098 1978 
Q 838 1716 838 1322 
z
" transform="scale(0.015625)"/>
       </defs>
       <use xlink:href="#ArialMT-30"/>
       <use xlink:href="#ArialMT-2e" x="55.615234"/>
       <use xlink:href="#ArialMT-38" x="83.398438"/>
      </g>
     </g>
    </g>
    <g id="xtick_10">
     <g id="line2d_10">
      <g>
       <use xlink:href="#m952330516c" x="396.819917" y="118.08" style="fill: #262626; stroke: #262626; stroke-width: 0.8"/>
      </g>
     </g>
     <g id="text_10">
      <!-- 0.9 -->
      <g style="fill: #262626" transform="translate(391.927117 130.4591) scale(0.0704 -0.0704)">
       <defs>
        <path id="ArialMT-39" d="M 350 1059 
L 891 1109 
Q 959 728 1153 556 
Q 1347 384 1650 384 
Q 1909 384 2104 503 
Q 2300 622 2425 820 
Q 2550 1019 2634 1356 
Q 2719 1694 2719 2044 
Q 2719 2081 2716 2156 
Q 2547 1888 2255 1720 
Q 1963 1553 1622 1553 
Q 1053 1553 659 1965 
Q 266 2378 266 3053 
Q 266 3750 677 4175 
Q 1088 4600 1706 4600 
Q 2153 4600 2523 4359 
Q 2894 4119 3086 3673 
Q 3278 3228 3278 2384 
Q 3278 1506 3087 986 
Q 2897 466 2520 194 
Q 2144 -78 1638 -78 
Q 1100 -78 759 220 
Q 419 519 350 1059 
z
M 2653 3081 
Q 2653 3566 2395 3850 
Q 2138 4134 1775 4134 
Q 1400 4134 1122 3828 
Q 844 3522 844 3034 
Q 844 2597 1108 2323 
Q 1372 2050 1759 2050 
Q 2150 2050 2401 2323 
Q 2653 2597 2653 3081 
z
" transform="scale(0.015625)"/>
       </defs>
       <use xlink:href="#ArialMT-30"/>
       <use xlink:href="#ArialMT-2e" x="55.615234"/>
       <use xlink:href="#ArialMT-39" x="83.398438"/>
      </g>
     </g>
    </g>
    <g id="xtick_11">
     <g id="line2d_11">
      <g>
       <use xlink:href="#m952330516c" x="439.567375" y="118.08" style="fill: #262626; stroke: #262626; stroke-width: 0.8"/>
      </g>
     </g>
     <g id="text_11">
      <!-- 1.0 -->
      <g style="fill: #262626" transform="translate(434.674575 130.4591) scale(0.0704 -0.0704)">
       <use xlink:href="#ArialMT-31"/>
       <use xlink:href="#ArialMT-2e" x="55.615234"/>
       <use xlink:href="#ArialMT-30" x="83.398438"/>
      </g>
     </g>
    </g>
    <g id="xtick_12">
     <g id="line2d_12">
      <g>
       <use xlink:href="#m952330516c" x="482.314832" y="118.08" style="fill: #262626; stroke: #262626; stroke-width: 0.8"/>
      </g>
     </g>
     <g id="text_12">
      <!-- 1.1 -->
      <g style="fill: #262626" transform="translate(477.422032 130.4591) scale(0.0704 -0.0704)">
       <use xlink:href="#ArialMT-31"/>
       <use xlink:href="#ArialMT-2e" x="55.615234"/>
       <use xlink:href="#ArialMT-31" x="83.398438"/>
      </g>
     </g>
    </g>
    <g id="xtick_13">
     <g id="line2d_13">
      <g>
       <use xlink:href="#m952330516c" x="525.06229" y="118.08" style="fill: #262626; stroke: #262626; stroke-width: 0.8"/>
      </g>
     </g>
     <g id="text_13">
      <!-- 1.2 -->
      <g style="fill: #262626" transform="translate(520.16949 130.4591) scale(0.0704 -0.0704)">
       <use xlink:href="#ArialMT-31"/>
       <use xlink:href="#ArialMT-2e" x="55.615234"/>
       <use xlink:href="#ArialMT-32" x="83.398438"/>
      </g>
     </g>
    </g>
    <g id="xtick_14">
     <g id="line2d_14">
      <g>
       <use xlink:href="#m952330516c" x="567.809747" y="118.08" style="fill: #262626; stroke: #262626; stroke-width: 0.8"/>
      </g>
     </g>
     <g id="text_14">
      <!-- 1.3 -->
      <g style="fill: #262626" transform="translate(562.916947 130.4591) scale(0.0704 -0.0704)">
       <use xlink:href="#ArialMT-31"/>
       <use xlink:href="#ArialMT-2e" x="55.615234"/>
       <use xlink:href="#ArialMT-33" x="83.398438"/>
      </g>
     </g>
    </g>
    <g id="xtick_15">
     <g id="line2d_15">
      <g>
       <use xlink:href="#m952330516c" x="610.557205" y="118.08" style="fill: #262626; stroke: #262626; stroke-width: 0.8"/>
      </g>
     </g>
     <g id="text_15">
      <!-- 1.4 -->
      <g style="fill: #262626" transform="translate(605.664405 130.4591) scale(0.0704 -0.0704)">
       <use xlink:href="#ArialMT-31"/>
       <use xlink:href="#ArialMT-2e" x="55.615234"/>
       <use xlink:href="#ArialMT-34" x="83.398438"/>
      </g>
     </g>
    </g>
    <g id="xtick_16">
     <g id="line2d_16">
      <g>
       <use xlink:href="#m952330516c" x="653.304662" y="118.08" style="fill: #262626; stroke: #262626; stroke-width: 0.8"/>
      </g>
     </g>
     <g id="text_16">
      <!-- 1.5 -->
      <g style="fill: #262626" transform="translate(648.411862 130.4591) scale(0.0704 -0.0704)">
       <use xlink:href="#ArialMT-31"/>
       <use xlink:href="#ArialMT-2e" x="55.615234"/>
       <use xlink:href="#ArialMT-35" x="83.398438"/>
      </g>
     </g>
    </g>
    <g id="xtick_17">
     <g id="line2d_17">
      <defs>
       <path id="m0c856823b3" d="M 0 0 
L 0 2.56 
" style="stroke: #262626; stroke-width: 0.64"/>
      </defs>
      <g>
       <use xlink:href="#m0c856823b3" x="20.642291" y="118.08" style="fill: #262626; stroke: #262626; stroke-width: 0.64"/>
      </g>
     </g>
    </g>
    <g id="xtick_18">
     <g id="line2d_18">
      <g>
       <use xlink:href="#m0c856823b3" x="29.191783" y="118.08" style="fill: #262626; stroke: #262626; stroke-width: 0.64"/>
      </g>
     </g>
    </g>
    <g id="xtick_19">
     <g id="line2d_19">
      <g>
       <use xlink:href="#m0c856823b3" x="37.741274" y="118.08" style="fill: #262626; stroke: #262626; stroke-width: 0.64"/>
      </g>
     </g>
    </g>
    <g id="xtick_20">
     <g id="line2d_20">
      <g>
       <use xlink:href="#m0c856823b3" x="46.290766" y="118.08" style="fill: #262626; stroke: #262626; stroke-width: 0.64"/>
      </g>
     </g>
    </g>
    <g id="xtick_21">
     <g id="line2d_21">
      <g>
       <use xlink:href="#m0c856823b3" x="63.389749" y="118.08" style="fill: #262626; stroke: #262626; stroke-width: 0.64"/>
      </g>
     </g>
    </g>
    <g id="xtick_22">
     <g id="line2d_22">
      <g>
       <use xlink:href="#m0c856823b3" x="71.93924" y="118.08" style="fill: #262626; stroke: #262626; stroke-width: 0.64"/>
      </g>
     </g>
    </g>
    <g id="xtick_23">
     <g id="line2d_23">
      <g>
       <use xlink:href="#m0c856823b3" x="80.488732" y="118.08" style="fill: #262626; stroke: #262626; stroke-width: 0.64"/>
      </g>
     </g>
    </g>
    <g id="xtick_24">
     <g id="line2d_24">
      <g>
       <use xlink:href="#m0c856823b3" x="89.038223" y="118.08" style="fill: #262626; stroke: #262626; stroke-width: 0.64"/>
      </g>
     </g>
    </g>
    <g id="xtick_25">
     <g id="line2d_25">
      <g>
       <use xlink:href="#m0c856823b3" x="106.137206" y="118.08" style="fill: #262626; stroke: #262626; stroke-width: 0.64"/>
      </g>
     </g>
    </g>
    <g id="xtick_26">
     <g id="line2d_26">
      <g>
       <use xlink:href="#m0c856823b3" x="114.686698" y="118.08" style="fill: #262626; stroke: #262626; stroke-width: 0.64"/>
      </g>
     </g>
    </g>
    <g id="xtick_27">
     <g id="line2d_27">
      <g>
       <use xlink:href="#m0c856823b3" x="123.236189" y="118.08" style="fill: #262626; stroke: #262626; stroke-width: 0.64"/>
      </g>
     </g>
    </g>
    <g id="xtick_28">
     <g id="line2d_28">
      <g>
       <use xlink:href="#m0c856823b3" x="131.785681" y="118.08" style="fill: #262626; stroke: #262626; stroke-width: 0.64"/>
      </g>
     </g>
    </g>
    <g id="xtick_29">
     <g id="line2d_29">
      <g>
       <use xlink:href="#m0c856823b3" x="148.884664" y="118.08" style="fill: #262626; stroke: #262626; stroke-width: 0.64"/>
      </g>
     </g>
    </g>
    <g id="xtick_30">
     <g id="line2d_30">
      <g>
       <use xlink:href="#m0c856823b3" x="157.434155" y="118.08" style="fill: #262626; stroke: #262626; stroke-width: 0.64"/>
      </g>
     </g>
    </g>
    <g id="xtick_31">
     <g id="line2d_31">
      <g>
       <use xlink:href="#m0c856823b3" x="165.983647" y="118.08" style="fill: #262626; stroke: #262626; stroke-width: 0.64"/>
      </g>
     </g>
    </g>
    <g id="xtick_32">
     <g id="line2d_32">
      <g>
       <use xlink:href="#m0c856823b3" x="174.533138" y="118.08" style="fill: #262626; stroke: #262626; stroke-width: 0.64"/>
      </g>
     </g>
    </g>
    <g id="xtick_33">
     <g id="line2d_33">
      <g>
       <use xlink:href="#m0c856823b3" x="191.632121" y="118.08" style="fill: #262626; stroke: #262626; stroke-width: 0.64"/>
      </g>
     </g>
    </g>
    <g id="xtick_34">
     <g id="line2d_34">
      <g>
       <use xlink:href="#m0c856823b3" x="200.181613" y="118.08" style="fill: #262626; stroke: #262626; stroke-width: 0.64"/>
      </g>
     </g>
    </g>
    <g id="xtick_35">
     <g id="line2d_35">
      <g>
       <use xlink:href="#m0c856823b3" x="208.731104" y="118.08" style="fill: #262626; stroke: #262626; stroke-width: 0.64"/>
      </g>
     </g>
    </g>
    <g id="xtick_36">
     <g id="line2d_36">
      <g>
       <use xlink:href="#m0c856823b3" x="217.280596" y="118.08" style="fill: #262626; stroke: #262626; stroke-width: 0.64"/>
      </g>
     </g>
    </g>
    <g id="xtick_37">
     <g id="line2d_37">
      <g>
       <use xlink:href="#m0c856823b3" x="234.379579" y="118.08" style="fill: #262626; stroke: #262626; stroke-width: 0.64"/>
      </g>
     </g>
    </g>
    <g id="xtick_38">
     <g id="line2d_38">
      <g>
       <use xlink:href="#m0c856823b3" x="242.92907" y="118.08" style="fill: #262626; stroke: #262626; stroke-width: 0.64"/>
      </g>
     </g>
    </g>
    <g id="xtick_39">
     <g id="line2d_39">
      <g>
       <use xlink:href="#m0c856823b3" x="251.478562" y="118.08" style="fill: #262626; stroke: #262626; stroke-width: 0.64"/>
      </g>
     </g>
    </g>
    <g id="xtick_40">
     <g id="line2d_40">
      <g>
       <use xlink:href="#m0c856823b3" x="260.028053" y="118.08" style="fill: #262626; stroke: #262626; stroke-width: 0.64"/>
      </g>
     </g>
    </g>
    <g id="xtick_41">
     <g id="line2d_41">
      <g>
       <use xlink:href="#m0c856823b3" x="277.127036" y="118.08" style="fill: #262626; stroke: #262626; stroke-width: 0.64"/>
      </g>
     </g>
    </g>
    <g id="xtick_42">
     <g id="line2d_42">
      <g>
       <use xlink:href="#m0c856823b3" x="285.676528" y="118.08" style="fill: #262626; stroke: #262626; stroke-width: 0.64"/>
      </g>
     </g>
    </g>
    <g id="xtick_43">
     <g id="line2d_43">
      <g>
       <use xlink:href="#m0c856823b3" x="294.226019" y="118.08" style="fill: #262626; stroke: #262626; stroke-width: 0.64"/>
      </g>
     </g>
    </g>
    <g id="xtick_44">
     <g id="line2d_44">
      <g>
       <use xlink:href="#m0c856823b3" x="302.775511" y="118.08" style="fill: #262626; stroke: #262626; stroke-width: 0.64"/>
      </g>
     </g>
    </g>
    <g id="xtick_45">
     <g id="line2d_45">
      <g>
       <use xlink:href="#m0c856823b3" x="319.874494" y="118.08" style="fill: #262626; stroke: #262626; stroke-width: 0.64"/>
      </g>
     </g>
    </g>
    <g id="xtick_46">
     <g id="line2d_46">
      <g>
       <use xlink:href="#m0c856823b3" x="328.423985" y="118.08" style="fill: #262626; stroke: #262626; stroke-width: 0.64"/>
      </g>
     </g>
    </g>
    <g id="xtick_47">
     <g id="line2d_47">
      <g>
       <use xlink:href="#m0c856823b3" x="336.973477" y="118.08" style="fill: #262626; stroke: #262626; stroke-width: 0.64"/>
      </g>
     </g>
    </g>
    <g id="xtick_48">
     <g id="line2d_48">
      <g>
       <use xlink:href="#m0c856823b3" x="345.522968" y="118.08" style="fill: #262626; stroke: #262626; stroke-width: 0.64"/>
      </g>
     </g>
    </g>
    <g id="xtick_49">
     <g id="line2d_49">
      <g>
       <use xlink:href="#m0c856823b3" x="362.621951" y="118.08" style="fill: #262626; stroke: #262626; stroke-width: 0.64"/>
      </g>
     </g>
    </g>
    <g id="xtick_50">
     <g id="line2d_50">
      <g>
       <use xlink:href="#m0c856823b3" x="371.171443" y="118.08" style="fill: #262626; stroke: #262626; stroke-width: 0.64"/>
      </g>
     </g>
    </g>
    <g id="xtick_51">
     <g id="line2d_51">
      <g>
       <use xlink:href="#m0c856823b3" x="379.720934" y="118.08" style="fill: #262626; stroke: #262626; stroke-width: 0.64"/>
      </g>
     </g>
    </g>
    <g id="xtick_52">
     <g id="line2d_52">
      <g>
       <use xlink:href="#m0c856823b3" x="388.270426" y="118.08" style="fill: #262626; stroke: #262626; stroke-width: 0.64"/>
      </g>
     </g>
    </g>
    <g id="xtick_53">
     <g id="line2d_53">
      <g>
       <use xlink:href="#m0c856823b3" x="405.369409" y="118.08" style="fill: #262626; stroke: #262626; stroke-width: 0.64"/>
      </g>
     </g>
    </g>
    <g id="xtick_54">
     <g id="line2d_54">
      <g>
       <use xlink:href="#m0c856823b3" x="413.9189" y="118.08" style="fill: #262626; stroke: #262626; stroke-width: 0.64"/>
      </g>
     </g>
    </g>
    <g id="xtick_55">
     <g id="line2d_55">
      <g>
       <use xlink:href="#m0c856823b3" x="422.468392" y="118.08" style="fill: #262626; stroke: #262626; stroke-width: 0.64"/>
      </g>
     </g>
    </g>
    <g id="xtick_56">
     <g id="line2d_56">
      <g>
       <use xlink:href="#m0c856823b3" x="431.017883" y="118.08" style="fill: #262626; stroke: #262626; stroke-width: 0.64"/>
      </g>
     </g>
    </g>
    <g id="xtick_57">
     <g id="line2d_57">
      <g>
       <use xlink:href="#m0c856823b3" x="448.116866" y="118.08" style="fill: #262626; stroke: #262626; stroke-width: 0.64"/>
      </g>
     </g>
    </g>
    <g id="xtick_58">
     <g id="line2d_58">
      <g>
       <use xlink:href="#m0c856823b3" x="456.666358" y="118.08" style="fill: #262626; stroke: #262626; stroke-width: 0.64"/>
      </g>
     </g>
    </g>
    <g id="xtick_59">
     <g id="line2d_59">
      <g>
       <use xlink:href="#m0c856823b3" x="465.215849" y="118.08" style="fill: #262626; stroke: #262626; stroke-width: 0.64"/>
      </g>
     </g>
    </g>
    <g id="xtick_60">
     <g id="line2d_60">
      <g>
       <use xlink:href="#m0c856823b3" x="473.765341" y="118.08" style="fill: #262626; stroke: #262626; stroke-width: 0.64"/>
      </g>
     </g>
    </g>
    <g id="xtick_61">
     <g id="line2d_61">
      <g>
       <use xlink:href="#m0c856823b3" x="490.864324" y="118.08" style="fill: #262626; stroke: #262626; stroke-width: 0.64"/>
      </g>
     </g>
    </g>
    <g id="xtick_62">
     <g id="line2d_62">
      <g>
       <use xlink:href="#m0c856823b3" x="499.413815" y="118.08" style="fill: #262626; stroke: #262626; stroke-width: 0.64"/>
      </g>
     </g>
    </g>
    <g id="xtick_63">
     <g id="line2d_63">
      <g>
       <use xlink:href="#m0c856823b3" x="507.963307" y="118.08" style="fill: #262626; stroke: #262626; stroke-width: 0.64"/>
      </g>
     </g>
    </g>
    <g id="xtick_64">
     <g id="line2d_64">
      <g>
       <use xlink:href="#m0c856823b3" x="516.512798" y="118.08" style="fill: #262626; stroke: #262626; stroke-width: 0.64"/>
      </g>
     </g>
    </g>
    <g id="xtick_65">
     <g id="line2d_65">
      <g>
       <use xlink:href="#m0c856823b3" x="533.611781" y="118.08" style="fill: #262626; stroke: #262626; stroke-width: 0.64"/>
      </g>
     </g>
    </g>
    <g id="xtick_66">
     <g id="line2d_66">
      <g>
       <use xlink:href="#m0c856823b3" x="542.161273" y="118.08" style="fill: #262626; stroke: #262626; stroke-width: 0.64"/>
      </g>
     </g>
    </g>
    <g id="xtick_67">
     <g id="line2d_67">
      <g>
       <use xlink:href="#m0c856823b3" x="550.710764" y="118.08" style="fill: #262626; stroke: #262626; stroke-width: 0.64"/>
      </g>
     </g>
    </g>
    <g id="xtick_68">
     <g id="line2d_68">
      <g>
       <use xlink:href="#m0c856823b3" x="559.260256" y="118.08" style="fill: #262626; stroke: #262626; stroke-width: 0.64"/>
      </g>
     </g>
    </g>
    <g id="xtick_69">
     <g id="line2d_69">
      <g>
       <use xlink:href="#m0c856823b3" x="576.359239" y="118.08" style="fill: #262626; stroke: #262626; stroke-width: 0.64"/>
      </g>
     </g>
    </g>
    <g id="xtick_70">
     <g id="line2d_70">
      <g>
       <use xlink:href="#m0c856823b3" x="584.90873" y="118.08" style="fill: #262626; stroke: #262626; stroke-width: 0.64"/>
      </g>
     </g>
    </g>
    <g id="xtick_71">
     <g id="line2d_71">
      <g>
       <use xlink:href="#m0c856823b3" x="593.458222" y="118.08" style="fill: #262626; stroke: #262626; stroke-width: 0.64"/>
      </g>
     </g>
    </g>
    <g id="xtick_72">
     <g id="line2d_72">
      <g>
       <use xlink:href="#m0c856823b3" x="602.007713" y="118.08" style="fill: #262626; stroke: #262626; stroke-width: 0.64"/>
      </g>
     </g>
    </g>
    <g id="xtick_73">
     <g id="line2d_73">
      <g>
       <use xlink:href="#m0c856823b3" x="619.106696" y="118.08" style="fill: #262626; stroke: #262626; stroke-width: 0.64"/>
      </g>
     </g>
    </g>
    <g id="xtick_74">
     <g id="line2d_74">
      <g>
       <use xlink:href="#m0c856823b3" x="627.656188" y="118.08" style="fill: #262626; stroke: #262626; stroke-width: 0.64"/>
      </g>
     </g>
    </g>
    <g id="xtick_75">
     <g id="line2d_75">
      <g>
       <use xlink:href="#m0c856823b3" x="636.205679" y="118.08" style="fill: #262626; stroke: #262626; stroke-width: 0.64"/>
      </g>
     </g>
    </g>
    <g id="xtick_76">
     <g id="line2d_76">
      <g>
       <use xlink:href="#m0c856823b3" x="644.755171" y="118.08" style="fill: #262626; stroke: #262626; stroke-width: 0.64"/>
      </g>
     </g>
    </g>
    <g id="xtick_77">
     <g id="line2d_77">
      <g>
       <use xlink:href="#m0c856823b3" x="661.854154" y="118.08" style="fill: #262626; stroke: #262626; stroke-width: 0.64"/>
      </g>
     </g>
    </g>
    <g id="xtick_78">
     <g id="line2d_78">
      <g>
       <use xlink:href="#m0c856823b3" x="670.403645" y="118.08" style="fill: #262626; stroke: #262626; stroke-width: 0.64"/>
      </g>
     </g>
    </g>
    <g id="xtick_79">
     <g id="line2d_79">
      <g>
       <use xlink:href="#m0c856823b3" x="678.953137" y="118.08" style="fill: #262626; stroke: #262626; stroke-width: 0.64"/>
      </g>
     </g>
    </g>
    <g id="text_17">
     <!-- 1e8 -->
     <g style="fill: #262626" transform="translate(668.665676 139.8974) scale(0.0704 -0.0704)">
      <defs>
       <path id="ArialMT-65" d="M 2694 1069 
L 3275 997 
Q 3138 488 2766 206 
Q 2394 -75 1816 -75 
Q 1088 -75 661 373 
Q 234 822 234 1631 
Q 234 2469 665 2931 
Q 1097 3394 1784 3394 
Q 2450 3394 2872 2941 
Q 3294 2488 3294 1666 
Q 3294 1616 3291 1516 
L 816 1516 
Q 847 969 1125 678 
Q 1403 388 1819 388 
Q 2128 388 2347 550 
Q 2566 713 2694 1069 
z
M 847 1978 
L 2700 1978 
Q 2663 2397 2488 2606 
Q 2219 2931 1791 2931 
Q 1403 2931 1139 2672 
Q 875 2413 847 1978 
z
" transform="scale(0.015625)"/>
      </defs>
      <use xlink:href="#ArialMT-31"/>
      <use xlink:href="#ArialMT-65" x="55.615234"/>
      <use xlink:href="#ArialMT-38" x="111.230469"/>
     </g>
    </g>
   </g>
   <g id="PolyCollection_1">
    <defs>
     <path id="m34afbed7ea" d="M 14.237608 -47.828972 
L 14.237608 -47.828972 
L 16.382415 -48.408666 
L 18.527223 -48.992619 
L 20.67203 -49.572347 
L 22.816838 -50.13832 
L 24.961645 -50.680056 
L 27.106453 -51.186266 
L 29.251261 -51.645046 
L 31.396068 -52.044132 
L 33.540876 -52.371202 
L 35.685683 -52.614243 
L 37.830491 -52.761963 
L 39.975298 -52.804253 
L 42.120106 -52.732685 
L 44.264913 -52.541024 
L 46.409721 -52.225754 
L 48.554529 -51.786578 
L 50.699336 -51.226873 
L 52.844144 -50.554076 
L 54.988951 -49.779962 
L 57.133759 -48.920783 
L 59.278566 -47.997242 
L 61.423374 -47.034267 
L 63.568182 -46.060558 
L 65.712989 -45.107897 
L 67.857797 -44.210212 
L 70.002604 -43.402394 
L 72.147412 -42.718892 
L 74.292219 -42.192124 
L 76.437027 -41.850757 
L 78.581834 -41.717933 
L 80.726642 -41.809523 
L 82.87145 -42.132532 
L 85.016257 -42.683755 
L 87.161065 -43.448816 
L 89.305872 -44.40171 
L 91.45068 -45.504953 
L 93.595487 -46.710431 
L 95.740295 -47.960994 
L 97.885103 -49.192821 
L 100.02991 -50.338497 
L 102.174718 -51.330718 
L 104.319525 -52.106451 
L 106.464333 -52.611328 
L 108.60914 -52.803981 
L 110.753948 -52.660012 
L 112.898756 -52.17523 
L 115.043563 -51.367814 
L 117.188371 -50.27908 
L 119.333178 -48.972591 
L 121.477986 -47.531473 
L 123.622793 -46.053878 
L 125.767601 -44.646753 
L 127.912408 -43.4182 
L 130.057216 -42.468905 
L 132.202024 -41.883267 
L 134.346831 -41.720989 
L 136.491639 -42.009953 
L 138.636446 -42.741204 
L 140.781254 -43.866794 
L 142.926061 -45.301033 
L 145.070869 -46.925462 
L 147.215677 -48.597493 
L 149.360484 -50.162295 
L 151.505292 -51.467067 
L 153.650099 -52.376494 
L 155.794907 -52.78786 
L 157.939714 -52.644138 
L 160.084522 -51.943355 
L 162.22933 -50.742778 
L 164.374137 -49.156822 
L 166.518945 -47.348257 
L 168.663752 -45.512983 
L 170.80856 -43.859537 
L 172.953367 -42.585252 
L 175.098175 -41.851703 
L 177.242982 -41.762475 
L 179.38779 -42.346365 
L 181.532598 -43.548805 
L 183.677405 -45.233485 
L 185.822213 -47.195016 
L 187.96702 -49.182014 
L 190.111828 -50.928418 
L 192.256635 -52.189409 
L 194.401443 -52.777205 
L 196.546251 -52.591458 
L 198.691058 -51.639197 
L 200.835866 -50.040283 
L 202.980673 -48.016157 
L 205.125481 -45.862052 
L 207.270288 -43.905512 
L 209.415096 -42.456636 
L 211.559903 -41.757388 
L 213.704711 -41.938329 
L 215.849519 -42.990699 
L 217.994326 -44.760027 
L 220.139134 -46.964295 
L 222.283941 -49.235628 
L 224.428749 -51.180157 
L 226.573556 -52.446781 
L 228.718364 -52.792977 
L 230.863172 -52.135136 
L 233.007979 -50.572591 
L 235.152787 -48.378522 
L 237.297594 -45.956708 
L 239.442402 -43.769827 
L 241.587209 -42.251264 
L 243.732017 -41.716958 
L 245.876825 -42.29537 
L 248.021632 -43.891624 
L 250.16644 -46.196113 
L 252.311247 -48.73927 
L 254.456055 -50.984261 
L 256.600862 -52.440257 
L 258.74567 -52.772654 
L 260.890477 -51.885214 
L 263.035285 -49.953201 
L 265.180093 -47.396148 
L 267.3249 -44.792062 
L 269.469708 -42.749039 
L 271.614515 -41.761946 
L 273.759323 -42.087911 
L 275.90413 -43.672675 
L 278.048938 -46.14985 
L 280.193746 -48.918549 
L 282.338553 -51.285179 
L 284.483361 -52.637306 
L 286.628168 -52.606342 
L 288.772976 -51.175186 
L 290.917783 -48.698093 
L 293.062591 -45.821317 
L 295.207399 -43.319463 
L 297.352206 -41.887232 
L 299.497014 -41.942073 
L 301.641821 -43.494561 
L 303.786629 -46.128335 
L 305.931436 -49.10274 
L 308.076244 -51.556076 
L 310.221051 -52.755606 
L 312.365859 -52.322106 
L 314.510667 -50.358987 
L 316.655474 -47.44007 
L 318.800282 -44.450768 
L 320.945089 -42.323314 
L 323.089897 -41.743534 
L 325.234704 -42.921708 
L 327.379512 -45.505978 
L 329.52432 -48.675644 
L 331.669127 -51.394443 
L 333.813935 -52.748609 
L 335.958742 -52.260197 
L 338.10355 -50.066729 
L 340.248357 -46.896886 
L 342.393165 -43.83853 
L 344.537972 -41.968769 
L 346.68278 -41.970113 
L 348.827588 -43.870497 
L 350.972395 -47.00926 
L 353.117203 -50.254718 
L 355.26201 -52.406918 
L 357.406818 -52.64474 
L 359.551625 -50.850131 
L 361.696433 -47.67813 
L 363.841241 -44.331214 
L 365.986048 -42.10965 
L 368.130856 -41.902947 
L 370.275663 -43.821979 
L 372.420471 -47.127677 
L 374.565278 -50.501554 
L 376.710086 -52.565639 
L 378.854894 -52.449895 
L 380.999701 -50.172263 
L 383.144509 -46.660819 
L 385.289316 -43.389484 
L 387.434124 -41.763565 
L 389.578931 -42.508777 
L 391.723739 -45.331725 
L 393.868546 -49.016209 
L 396.013354 -51.934948 
L 398.158162 -52.767654 
L 400.302969 -51.109612 
L 402.447777 -47.68603 
L 404.592584 -44.052959 
L 406.737392 -41.898486 
L 408.882199 -42.253349 
L 411.027007 -44.981627 
L 413.171815 -48.809604 
L 415.316622 -51.905475 
L 417.46143 -52.754131 
L 419.606237 -50.910965 
L 421.751045 -47.25462 
L 423.895852 -43.587893 
L 426.04066 -41.756911 
L 428.185468 -42.714044 
L 430.330275 -46.003137 
L 432.475083 -49.953673 
L 434.61989 -52.515924 
L 436.764698 -52.327384 
L 438.909505 -49.455033 
L 441.054313 -45.400943 
L 443.19912 -42.334169 
L 445.343928 -41.931328 
L 447.488736 -44.444096 
L 449.633543 -48.51976 
L 451.778351 -51.909012 
L 453.923158 -52.703155 
L 456.067966 -50.42349 
L 458.212773 -46.334109 
L 460.357581 -42.763526 
L 462.502389 -41.784904 
L 464.647196 -43.998413 
L 466.792004 -48.137808 
L 468.936811 -51.770817 
L 471.081619 -52.72156 
L 473.226426 -50.388194 
L 475.371234 -46.15038 
L 477.516041 -42.578105 
L 479.660849 -41.879132 
L 481.805657 -44.518259 
L 483.950464 -48.880702 
L 486.095272 -52.23589 
L 488.240079 -52.443014 
L 490.384887 -49.336375 
L 492.529694 -44.883084 
L 494.674502 -41.960042 
L 496.81931 -42.494736 
L 498.964117 -46.170677 
L 501.108925 -50.580817 
L 503.253732 -52.784757 
L 505.39854 -51.276126 
L 507.543347 -47.040385 
L 509.688155 -42.9432 
L 511.832963 -41.804541 
L 513.97777 -44.442856 
L 516.122578 -49.054765 
L 518.267385 -52.419024 
L 520.412193 -52.142667 
L 522.557 -48.386987 
L 524.701808 -43.813088 
L 526.846615 -41.717991 
L 528.991423 -43.64994 
L 531.136231 -48.232269 
L 533.281038 -52.110297 
L 535.425846 -52.397281 
L 537.570653 -48.844671 
L 539.715461 -44.090669 
L 541.860268 -41.726912 
L 544.005076 -43.579134 
L 546.149884 -48.26381 
L 548.294691 -52.184948 
L 550.439499 -52.283619 
L 552.584306 -48.447571 
L 554.729114 -43.666227 
L 556.873921 -41.726472 
L 559.018729 -44.20375 
L 561.163537 -49.14548 
L 563.308344 -52.57384 
L 565.453152 -51.682581 
L 567.597959 -47.164225 
L 569.742767 -42.714971 
L 571.887574 -42.029918 
L 574.032382 -45.714316 
L 576.177189 -50.707771 
L 578.321997 -52.796032 
L 580.466805 -50.17594 
L 582.611612 -45.052269 
L 584.75642 -41.821249 
L 586.901227 -43.301899 
L 589.046035 -48.241486 
L 591.190842 -52.330815 
L 593.33565 -51.949324 
L 595.480458 -47.399029 
L 597.625265 -42.715384 
L 599.770073 -42.11185 
L 601.91488 -46.168205 
L 604.059688 -51.228257 
L 606.204495 -52.664317 
L 608.349303 -49.123617 
L 610.49411 -43.84874 
L 612.638918 -41.745075 
L 614.783726 -44.811268 
L 616.928533 -50.195063 
L 619.073341 -52.804958 
L 621.218148 -50.127692 
L 623.362956 -44.692602 
L 625.507763 -41.727043 
L 627.652571 -44.130529 
L 629.797379 -49.596545 
L 631.942186 -52.778523 
L 634.086994 -50.515127 
L 636.231801 -45.014012 
L 638.376609 -41.747731 
L 640.521416 -44.015326 
L 642.666224 -49.56678 
L 644.811032 -52.785368 
L 646.955839 -50.364958 
L 649.100647 -44.750871 
L 651.245454 -41.719939 
L 653.390262 -44.439755 
L 655.535069 -50.111182 
L 657.679877 -52.799117 
L 659.824684 -49.64364 
L 661.969492 -43.953011 
L 664.1143 -41.78356 
L 666.259107 -45.488564 
L 668.403915 -51.112074 
L 670.548722 -52.567677 
L 672.69353 -48.238828 
L 674.838337 -42.830804 
L 676.983145 -42.296171 
L 676.983145 -42.296171 
L 676.983145 -42.296171 
L 674.838337 -42.830804 
L 672.69353 -48.238828 
L 670.548722 -52.567677 
L 668.403915 -51.112074 
L 666.259107 -45.488564 
L 664.1143 -41.78356 
L 661.969492 -43.953011 
L 659.824684 -49.64364 
L 657.679877 -52.799117 
L 655.535069 -50.111182 
L 653.390262 -44.439755 
L 651.245454 -41.719939 
L 649.100647 -44.750871 
L 646.955839 -50.364958 
L 644.811032 -52.785368 
L 642.666224 -49.56678 
L 640.521416 -44.015326 
L 638.376609 -41.747731 
L 636.231801 -45.014012 
L 634.086994 -50.515127 
L 631.942186 -52.778523 
L 629.797379 -49.596545 
L 627.652571 -44.130529 
L 625.507763 -41.727043 
L 623.362956 -44.692602 
L 621.218148 -50.127692 
L 619.073341 -52.804958 
L 616.928533 -50.195063 
L 614.783726 -44.811268 
L 612.638918 -41.745075 
L 610.49411 -43.84874 
L 608.349303 -49.123617 
L 606.204495 -52.664317 
L 604.059688 -51.228257 
L 601.91488 -46.168205 
L 599.770073 -42.11185 
L 597.625265 -42.715384 
L 595.480458 -47.399029 
L 593.33565 -51.949324 
L 591.190842 -52.330815 
L 589.046035 -48.241486 
L 586.901227 -43.301899 
L 584.75642 -41.821249 
L 582.611612 -45.052269 
L 580.466805 -50.17594 
L 578.321997 -52.796032 
L 576.177189 -50.707771 
L 574.032382 -45.714316 
L 571.887574 -42.029918 
L 569.742767 -42.714971 
L 567.597959 -47.164225 
L 565.453152 -51.682581 
L 563.308344 -52.57384 
L 561.163537 -49.14548 
L 559.018729 -44.20375 
L 556.873921 -41.726472 
L 554.729114 -43.666227 
L 552.584306 -48.447571 
L 550.439499 -52.283619 
L 548.294691 -52.184948 
L 546.149884 -48.26381 
L 544.005076 -43.579134 
L 541.860268 -41.726912 
L 539.715461 -44.090669 
L 537.570653 -48.844671 
L 535.425846 -52.397281 
L 533.281038 -52.110297 
L 531.136231 -48.232269 
L 528.991423 -43.64994 
L 526.846615 -41.717991 
L 524.701808 -43.813088 
L 522.557 -48.386987 
L 520.412193 -52.142667 
L 518.267385 -52.419024 
L 516.122578 -49.054765 
L 513.97777 -44.442856 
L 511.832963 -41.804541 
L 509.688155 -42.9432 
L 507.543347 -47.040385 
L 505.39854 -51.276126 
L 503.253732 -52.784757 
L 501.108925 -50.580817 
L 498.964117 -46.170677 
L 496.81931 -42.494736 
L 494.674502 -41.960042 
L 492.529694 -44.883084 
L 490.384887 -49.336375 
L 488.240079 -52.443014 
L 486.095272 -52.23589 
L 483.950464 -48.880702 
L 481.805657 -44.518259 
L 479.660849 -41.879132 
L 477.516041 -42.578105 
L 475.371234 -46.15038 
L 473.226426 -50.388194 
L 471.081619 -52.72156 
L 468.936811 -51.770817 
L 466.792004 -48.137808 
L 464.647196 -43.998413 
L 462.502389 -41.784904 
L 460.357581 -42.763526 
L 458.212773 -46.334109 
L 456.067966 -50.42349 
L 453.923158 -52.703155 
L 451.778351 -51.909012 
L 449.633543 -48.51976 
L 447.488736 -44.444096 
L 445.343928 -41.931328 
L 443.19912 -42.334169 
L 441.054313 -45.400943 
L 438.909505 -49.455033 
L 436.764698 -52.327384 
L 434.61989 -52.515924 
L 432.475083 -49.953673 
L 430.330275 -46.003137 
L 428.185468 -42.714044 
L 426.04066 -41.756911 
L 423.895852 -43.587893 
L 421.751045 -47.25462 
L 419.606237 -50.910965 
L 417.46143 -52.754131 
L 415.316622 -51.905475 
L 413.171815 -48.809604 
L 411.027007 -44.981627 
L 408.882199 -42.253349 
L 406.737392 -41.898486 
L 404.592584 -44.052959 
L 402.447777 -47.68603 
L 400.302969 -51.109612 
L 398.158162 -52.767654 
L 396.013354 -51.934948 
L 393.868546 -49.016209 
L 391.723739 -45.331725 
L 389.578931 -42.508777 
L 387.434124 -41.763565 
L 385.289316 -43.389484 
L 383.144509 -46.660819 
L 380.999701 -50.172263 
L 378.854894 -52.449895 
L 376.710086 -52.565639 
L 374.565278 -50.501554 
L 372.420471 -47.127677 
L 370.275663 -43.821979 
L 368.130856 -41.902947 
L 365.986048 -42.10965 
L 363.841241 -44.331214 
L 361.696433 -47.67813 
L 359.551625 -50.850131 
L 357.406818 -52.64474 
L 355.26201 -52.406918 
L 353.117203 -50.254718 
L 350.972395 -47.00926 
L 348.827588 -43.870497 
L 346.68278 -41.970113 
L 344.537972 -41.968769 
L 342.393165 -43.83853 
L 340.248357 -46.896886 
L 338.10355 -50.066729 
L 335.958742 -52.260197 
L 333.813935 -52.748609 
L 331.669127 -51.394443 
L 329.52432 -48.675644 
L 327.379512 -45.505978 
L 325.234704 -42.921708 
L 323.089897 -41.743534 
L 320.945089 -42.323314 
L 318.800282 -44.450768 
L 316.655474 -47.44007 
L 314.510667 -50.358987 
L 312.365859 -52.322106 
L 310.221051 -52.755606 
L 308.076244 -51.556076 
L 305.931436 -49.10274 
L 303.786629 -46.128335 
L 301.641821 -43.494561 
L 299.497014 -41.942073 
L 297.352206 -41.887232 
L 295.207399 -43.319463 
L 293.062591 -45.821317 
L 290.917783 -48.698093 
L 288.772976 -51.175186 
L 286.628168 -52.606342 
L 284.483361 -52.637306 
L 282.338553 -51.285179 
L 280.193746 -48.918549 
L 278.048938 -46.14985 
L 275.90413 -43.672675 
L 273.759323 -42.087911 
L 271.614515 -41.761946 
L 269.469708 -42.749039 
L 267.3249 -44.792062 
L 265.180093 -47.396148 
L 263.035285 -49.953201 
L 260.890477 -51.885214 
L 258.74567 -52.772654 
L 256.600862 -52.440257 
L 254.456055 -50.984261 
L 252.311247 -48.73927 
L 250.16644 -46.196113 
L 248.021632 -43.891624 
L 245.876825 -42.29537 
L 243.732017 -41.716958 
L 241.587209 -42.251264 
L 239.442402 -43.769827 
L 237.297594 -45.956708 
L 235.152787 -48.378522 
L 233.007979 -50.572591 
L 230.863172 -52.135136 
L 228.718364 -52.792977 
L 226.573556 -52.446781 
L 224.428749 -51.180157 
L 222.283941 -49.235628 
L 220.139134 -46.964295 
L 217.994326 -44.760027 
L 215.849519 -42.990699 
L 213.704711 -41.938329 
L 211.559903 -41.757388 
L 209.415096 -42.456636 
L 207.270288 -43.905512 
L 205.125481 -45.862052 
L 202.980673 -48.016157 
L 200.835866 -50.040283 
L 198.691058 -51.639197 
L 196.546251 -52.591458 
L 194.401443 -52.777205 
L 192.256635 -52.189409 
L 190.111828 -50.928418 
L 187.96702 -49.182014 
L 185.822213 -47.195016 
L 183.677405 -45.233485 
L 181.532598 -43.548805 
L 179.38779 -42.346365 
L 177.242982 -41.762475 
L 175.098175 -41.851703 
L 172.953367 -42.585252 
L 170.80856 -43.859537 
L 168.663752 -45.512983 
L 166.518945 -47.348257 
L 164.374137 -49.156822 
L 162.22933 -50.742778 
L 160.084522 -51.943355 
L 157.939714 -52.644138 
L 155.794907 -52.78786 
L 153.650099 -52.376494 
L 151.505292 -51.467067 
L 149.360484 -50.162295 
L 147.215677 -48.597493 
L 145.070869 -46.925462 
L 142.926061 -45.301033 
L 140.781254 -43.866794 
L 138.636446 -42.741204 
L 136.491639 -42.009953 
L 134.346831 -41.720989 
L 132.202024 -41.883267 
L 130.057216 -42.468905 
L 127.912408 -43.4182 
L 125.767601 -44.646753 
L 123.622793 -46.053878 
L 121.477986 -47.531473 
L 119.333178 -48.972591 
L 117.188371 -50.27908 
L 115.043563 -51.367814 
L 112.898756 -52.17523 
L 110.753948 -52.660012 
L 108.60914 -52.803981 
L 106.464333 -52.611328 
L 104.319525 -52.106451 
L 102.174718 -51.330718 
L 100.02991 -50.338497 
L 97.885103 -49.192821 
L 95.740295 -47.960994 
L 93.595487 -46.710431 
L 91.45068 -45.504953 
L 89.305872 -44.40171 
L 87.161065 -43.448816 
L 85.016257 -42.683755 
L 82.87145 -42.132532 
L 80.726642 -41.809523 
L 78.581834 -41.717933 
L 76.437027 -41.850757 
L 74.292219 -42.192124 
L 72.147412 -42.718892 
L 70.002604 -43.402394 
L 67.857797 -44.210212 
L 65.712989 -45.107897 
L 63.568182 -46.060558 
L 61.423374 -47.034267 
L 59.278566 -47.997242 
L 57.133759 -48.920783 
L 54.988951 -49.779962 
L 52.844144 -50.554076 
L 50.699336 -51.226873 
L 48.554529 -51.786578 
L 46.409721 -52.225754 
L 44.264913 -52.541024 
L 42.120106 -52.732685 
L 39.975298 -52.804253 
L 37.830491 -52.761963 
L 35.685683 -52.614243 
L 33.540876 -52.371202 
L 31.396068 -52.044132 
L 29.251261 -51.645046 
L 27.106453 -51.186266 
L 24.961645 -50.680056 
L 22.816838 -50.13832 
L 20.67203 -49.572347 
L 18.527223 -48.992619 
L 16.382415 -48.408666 
L 14.237608 -47.828972 
z
" style="stroke: #1f77b4; stroke-opacity: 0.2"/>
    </defs>
    <g clip-path="url(#p6c107c63f9)">
     <use xlink:href="#m34afbed7ea" x="0" y="148.4966" style="fill: #1f77b4; fill-opacity: 0.2; stroke: #1f77b4; stroke-opacity: 0.2"/>
    </g>
   </g>
   <g id="patch_7">
    <path d="M 260.455528 73.515642 
L 260.455528 51.339642 
L 284.821579 73.515642 
L 284.821579 51.339642 
z
" clip-path="url(#p6c107c63f9)" style="fill: #777777; stroke: #777777; stroke-width: 0.64; stroke-linejoin: miter"/>
   </g>
   <g id="line2d_80">
    <path d="M 14.237608 100.667628 
L 24.961645 97.816544 
L 29.251261 96.851554 
L 33.540876 96.125398 
L 37.830491 95.734637 
L 39.975298 95.692347 
L 42.120106 95.763915 
L 44.264913 95.955576 
L 46.409721 96.270846 
L 48.554529 96.710022 
L 52.844144 97.942524 
L 57.133759 99.575817 
L 70.002604 105.094206 
L 72.147412 105.777708 
L 74.292219 106.304476 
L 76.437027 106.645843 
L 78.581834 106.778667 
L 80.726642 106.687077 
L 82.87145 106.364068 
L 85.016257 105.812845 
L 87.161065 105.047784 
L 89.305872 104.09489 
L 93.595487 101.786169 
L 100.02991 98.158103 
L 102.174718 97.165882 
L 104.319525 96.390149 
L 106.464333 95.885272 
L 108.60914 95.692619 
L 110.753948 95.836588 
L 112.898756 96.32137 
L 115.043563 97.128786 
L 117.188371 98.21752 
L 119.333178 99.524009 
L 125.767601 103.849847 
L 127.912408 105.0784 
L 130.057216 106.027695 
L 132.202024 106.613333 
L 134.346831 106.775611 
L 136.491639 106.486647 
L 138.636446 105.755396 
L 140.781254 104.629806 
L 142.926061 103.195567 
L 149.360484 98.334305 
L 151.505292 97.029533 
L 153.650099 96.120106 
L 155.794907 95.70874 
L 157.939714 95.852462 
L 160.084522 96.553245 
L 162.22933 97.753822 
L 164.374137 99.339778 
L 170.80856 104.637063 
L 172.953367 105.911348 
L 175.098175 106.644897 
L 177.242982 106.734125 
L 179.38779 106.150235 
L 181.532598 104.947795 
L 183.677405 103.263115 
L 187.96702 99.314586 
L 190.111828 97.568182 
L 192.256635 96.307191 
L 194.401443 95.719395 
L 196.546251 95.905142 
L 198.691058 96.857403 
L 200.835866 98.456317 
L 207.270288 104.591088 
L 209.415096 106.039964 
L 211.559903 106.739212 
L 213.704711 106.558271 
L 215.849519 105.505901 
L 217.994326 103.736573 
L 222.283941 99.260972 
L 224.428749 97.316443 
L 226.573556 96.049819 
L 228.718364 95.703623 
L 230.863172 96.361464 
L 233.007979 97.924009 
L 235.152787 100.118078 
L 237.297594 102.539892 
L 239.442402 104.726773 
L 241.587209 106.245336 
L 243.732017 106.779642 
L 245.876825 106.20123 
L 248.021632 104.604976 
L 250.16644 102.300487 
L 252.311247 99.75733 
L 254.456055 97.512339 
L 256.600862 96.056343 
L 258.74567 95.723946 
L 260.890477 96.611386 
L 263.035285 98.543399 
L 267.3249 103.704538 
L 269.469708 105.747561 
L 271.614515 106.734654 
L 273.759323 106.408689 
L 275.90413 104.823925 
L 278.048938 102.34675 
L 280.193746 99.578051 
L 282.338553 97.211421 
L 284.483361 95.859294 
L 286.628168 95.890258 
L 288.772976 97.321414 
L 290.917783 99.798507 
L 293.062591 102.675283 
L 295.207399 105.177137 
L 297.352206 106.609368 
L 299.497014 106.554527 
L 301.641821 105.002039 
L 303.786629 102.368265 
L 305.931436 99.39386 
L 308.076244 96.940524 
L 310.221051 95.740994 
L 312.365859 96.174494 
L 314.510667 98.137613 
L 318.800282 104.045832 
L 320.945089 106.173286 
L 323.089897 106.753066 
L 325.234704 105.574892 
L 327.379512 102.990622 
L 329.52432 99.820956 
L 331.669127 97.102157 
L 333.813935 95.747991 
L 335.958742 96.236403 
L 338.10355 98.429871 
L 342.393165 104.65807 
L 344.537972 106.527831 
L 346.68278 106.526487 
L 348.827588 104.626103 
L 353.117203 98.241882 
L 355.26201 96.089682 
L 357.406818 95.85186 
L 359.551625 97.646469 
L 363.841241 104.165386 
L 365.986048 106.38695 
L 368.130856 106.593653 
L 370.275663 104.674621 
L 374.565278 97.995046 
L 376.710086 95.930961 
L 378.854894 96.046705 
L 380.999701 98.324337 
L 383.144509 101.835781 
L 385.289316 105.107116 
L 387.434124 106.733035 
L 389.578931 105.987823 
L 391.723739 103.164875 
L 393.868546 99.480391 
L 396.013354 96.561652 
L 398.158162 95.728946 
L 400.302969 97.386988 
L 402.447777 100.81057 
L 404.592584 104.443641 
L 406.737392 106.598114 
L 408.882199 106.243251 
L 411.027007 103.514973 
L 413.171815 99.686996 
L 415.316622 96.591125 
L 417.46143 95.742469 
L 419.606237 97.585635 
L 423.895852 104.908707 
L 426.04066 106.739689 
L 428.185468 105.782556 
L 430.330275 102.493463 
L 432.475083 98.542927 
L 434.61989 95.980676 
L 436.764698 96.169216 
L 438.909505 99.041567 
L 441.054313 103.095657 
L 443.19912 106.162431 
L 445.343928 106.565272 
L 447.488736 104.052504 
L 449.633543 99.97684 
L 451.778351 96.587588 
L 453.923158 95.793445 
L 456.067966 98.07311 
L 458.212773 102.162491 
L 460.357581 105.733074 
L 462.502389 106.711696 
L 464.647196 104.498187 
L 466.792004 100.358792 
L 468.936811 96.725783 
L 471.081619 95.77504 
L 473.226426 98.108406 
L 475.371234 102.34622 
L 477.516041 105.918495 
L 479.660849 106.617468 
L 481.805657 103.978341 
L 483.950464 99.615898 
L 486.095272 96.26071 
L 488.240079 96.053586 
L 490.384887 99.160225 
L 492.529694 103.613516 
L 494.674502 106.536558 
L 496.81931 106.001864 
L 498.964117 102.325923 
L 501.108925 97.915783 
L 503.253732 95.711843 
L 505.39854 97.220474 
L 509.688155 105.5534 
L 511.832963 106.692059 
L 513.97777 104.053744 
L 516.122578 99.441835 
L 518.267385 96.077576 
L 520.412193 96.353933 
L 522.557 100.109613 
L 524.701808 104.683512 
L 526.846615 106.778609 
L 528.991423 104.84666 
L 531.136231 100.264331 
L 533.281038 96.386303 
L 535.425846 96.099319 
L 537.570653 99.651929 
L 539.715461 104.405931 
L 541.860268 106.769688 
L 544.005076 104.917466 
L 546.149884 100.23279 
L 548.294691 96.311652 
L 550.439499 96.212981 
L 552.584306 100.049029 
L 554.729114 104.830373 
L 556.873921 106.770128 
L 559.018729 104.29285 
L 561.163537 99.35112 
L 563.308344 95.92276 
L 565.453152 96.814019 
L 569.742767 105.781629 
L 571.887574 106.466682 
L 574.032382 102.782284 
L 576.177189 97.788829 
L 578.321997 95.700568 
L 580.466805 98.32066 
L 582.611612 103.444331 
L 584.75642 106.675351 
L 586.901227 105.194701 
L 589.046035 100.255114 
L 591.190842 96.165785 
L 593.33565 96.547276 
L 597.625265 105.781216 
L 599.770073 106.38475 
L 601.91488 102.328395 
L 604.059688 97.268343 
L 606.204495 95.832283 
L 608.349303 99.372983 
L 610.49411 104.64786 
L 612.638918 106.751525 
L 614.783726 103.685332 
L 616.928533 98.301537 
L 619.073341 95.691642 
L 621.218148 98.368908 
L 623.362956 103.803998 
L 625.507763 106.769557 
L 627.652571 104.366071 
L 629.797379 98.900055 
L 631.942186 95.718077 
L 634.086994 97.981473 
L 636.231801 103.482588 
L 638.376609 106.748869 
L 640.521416 104.481274 
L 642.666224 98.92982 
L 644.811032 95.711232 
L 646.955839 98.131642 
L 649.100647 103.745729 
L 651.245454 106.776661 
L 653.390262 104.056845 
L 655.535069 98.385418 
L 657.679877 95.697483 
L 659.824684 98.85296 
L 661.969492 104.543589 
L 664.1143 106.71304 
L 666.259107 103.008036 
L 668.403915 97.384526 
L 670.548722 95.928923 
L 672.69353 100.257772 
L 674.838337 105.665796 
L 676.983145 106.200429 
L 676.983145 106.200429 
" clip-path="url(#p6c107c63f9)" style="fill: none; stroke: #1f77b4; stroke-width: 2; stroke-linecap: round"/>
   </g>
   <g id="patch_8">
    <path d="M 10.810376 118.08 
L 680.410376 118.08 
" style="fill: none; stroke: #262626; stroke-width: 0.8; stroke-linejoin: miter; stroke-linecap: square"/>
   </g>
   <g id="legend_1">
    <g id="line2d_81">
     <path d="M 702.802376 61.725156 
L 712.802376 61.725156 
L 722.802376 61.725156 
" style="fill: none; stroke: #1f77b4; stroke-width: 2; stroke-linecap: round"/>
    </g>
    <g id="text_18">
     <!-- sin curve line -->
     <g style="fill: #262626" transform="translate(730.802376 65.225156) scale(0.1 -0.1)">
      <defs>
       <path id="ArialMT-73" d="M 197 991 
L 753 1078 
Q 800 744 1014 566 
Q 1228 388 1613 388 
Q 2000 388 2187 545 
Q 2375 703 2375 916 
Q 2375 1106 2209 1216 
Q 2094 1291 1634 1406 
Q 1016 1563 777 1677 
Q 538 1791 414 1992 
Q 291 2194 291 2438 
Q 291 2659 392 2848 
Q 494 3038 669 3163 
Q 800 3259 1026 3326 
Q 1253 3394 1513 3394 
Q 1903 3394 2198 3281 
Q 2494 3169 2634 2976 
Q 2775 2784 2828 2463 
L 2278 2388 
Q 2241 2644 2061 2787 
Q 1881 2931 1553 2931 
Q 1166 2931 1000 2803 
Q 834 2675 834 2503 
Q 834 2394 903 2306 
Q 972 2216 1119 2156 
Q 1203 2125 1616 2013 
Q 2213 1853 2448 1751 
Q 2684 1650 2818 1456 
Q 2953 1263 2953 975 
Q 2953 694 2789 445 
Q 2625 197 2315 61 
Q 2006 -75 1616 -75 
Q 969 -75 630 194 
Q 291 463 197 991 
z
" transform="scale(0.015625)"/>
       <path id="ArialMT-69" d="M 425 3934 
L 425 4581 
L 988 4581 
L 988 3934 
L 425 3934 
z
M 425 0 
L 425 3319 
L 988 3319 
L 988 0 
L 425 0 
z
" transform="scale(0.015625)"/>
       <path id="ArialMT-6e" d="M 422 0 
L 422 3319 
L 928 3319 
L 928 2847 
Q 1294 3394 1984 3394 
Q 2284 3394 2536 3286 
Q 2788 3178 2913 3003 
Q 3038 2828 3088 2588 
Q 3119 2431 3119 2041 
L 3119 0 
L 2556 0 
L 2556 2019 
Q 2556 2363 2490 2533 
Q 2425 2703 2258 2804 
Q 2091 2906 1866 2906 
Q 1506 2906 1245 2678 
Q 984 2450 984 1813 
L 984 0 
L 422 0 
z
" transform="scale(0.015625)"/>
       <path id="ArialMT-20" transform="scale(0.015625)"/>
       <path id="ArialMT-63" d="M 2588 1216 
L 3141 1144 
Q 3050 572 2676 248 
Q 2303 -75 1759 -75 
Q 1078 -75 664 370 
Q 250 816 250 1647 
Q 250 2184 428 2587 
Q 606 2991 970 3192 
Q 1334 3394 1763 3394 
Q 2303 3394 2647 3120 
Q 2991 2847 3088 2344 
L 2541 2259 
Q 2463 2594 2264 2762 
Q 2066 2931 1784 2931 
Q 1359 2931 1093 2626 
Q 828 2322 828 1663 
Q 828 994 1084 691 
Q 1341 388 1753 388 
Q 2084 388 2306 591 
Q 2528 794 2588 1216 
z
" transform="scale(0.015625)"/>
       <path id="ArialMT-75" d="M 2597 0 
L 2597 488 
Q 2209 -75 1544 -75 
Q 1250 -75 995 37 
Q 741 150 617 320 
Q 494 491 444 738 
Q 409 903 409 1263 
L 409 3319 
L 972 3319 
L 972 1478 
Q 972 1038 1006 884 
Q 1059 663 1231 536 
Q 1403 409 1656 409 
Q 1909 409 2131 539 
Q 2353 669 2445 892 
Q 2538 1116 2538 1541 
L 2538 3319 
L 3100 3319 
L 3100 0 
L 2597 0 
z
" transform="scale(0.015625)"/>
       <path id="ArialMT-72" d="M 416 0 
L 416 3319 
L 922 3319 
L 922 2816 
Q 1116 3169 1280 3281 
Q 1444 3394 1641 3394 
Q 1925 3394 2219 3213 
L 2025 2691 
Q 1819 2813 1613 2813 
Q 1428 2813 1281 2702 
Q 1134 2591 1072 2394 
Q 978 2094 978 1738 
L 978 0 
L 416 0 
z
" transform="scale(0.015625)"/>
       <path id="ArialMT-76" d="M 1344 0 
L 81 3319 
L 675 3319 
L 1388 1331 
Q 1503 1009 1600 663 
Q 1675 925 1809 1294 
L 2547 3319 
L 3125 3319 
L 1869 0 
L 1344 0 
z
" transform="scale(0.015625)"/>
       <path id="ArialMT-6c" d="M 409 0 
L 409 4581 
L 972 4581 
L 972 0 
L 409 0 
z
" transform="scale(0.015625)"/>
      </defs>
      <use xlink:href="#ArialMT-73"/>
      <use xlink:href="#ArialMT-69" x="50"/>
      <use xlink:href="#ArialMT-6e" x="72.216797"/>
      <use xlink:href="#ArialMT-20" x="127.832031"/>
      <use xlink:href="#ArialMT-63" x="155.615234"/>
      <use xlink:href="#ArialMT-75" x="205.615234"/>
      <use xlink:href="#ArialMT-72" x="261.230469"/>
      <use xlink:href="#ArialMT-76" x="294.53125"/>
      <use xlink:href="#ArialMT-65" x="344.53125"/>
      <use xlink:href="#ArialMT-20" x="400.146484"/>
      <use xlink:href="#ArialMT-6c" x="427.929688"/>
      <use xlink:href="#ArialMT-69" x="450.146484"/>
      <use xlink:href="#ArialMT-6e" x="472.363281"/>
      <use xlink:href="#ArialMT-65" x="527.978516"/>
     </g>
    </g>
   </g>
  </g>
 </g>
 <defs>
  <clipPath id="p6c107c63f9">
   <rect x="10.810376" y="7.2" width="669.6" height="110.88"/>
  </clipPath>
 </defs>
</svg>
