<?xml version="1.0" encoding="utf-8" standalone="no"?>
<!DOCTYPE svg PUBLIC "-//W3C//DTD SVG 1.1//EN"
  "http://www.w3.org/Graphics/SVG/1.1/DTD/svg11.dtd">
<svg xmlns:xlink="http://www.w3.org/1999/xlink" width="696.128903pt" height="644.169941pt" viewBox="0 0 696.128903 644.169941" xmlns="http://www.w3.org/2000/svg" version="1.1">
 <metadata>
  <rdf:RDF xmlns:dc="http://purl.org/dc/elements/1.1/" xmlns:cc="http://creativecommons.org/ns#" xmlns:rdf="http://www.w3.org/1999/02/22-rdf-syntax-ns#">
   <cc:Work>
    <dc:type rdf:resource="http://purl.org/dc/dcmitype/StillImage"/>
    <dc:date>2024-12-28T20:04:22.950353</dc:date>
    <dc:format>image/svg+xml</dc:format>
    <dc:creator>
     <cc:Agent>
      <dc:title>Matplotlib v3.8.4, https://matplotlib.org/</dc:title>
     </cc:Agent>
    </dc:creator>
   </cc:Work>
  </rdf:RDF>
 </metadata>
 <defs>
  <style type="text/css">*{stroke-linejoin: round; stroke-linecap: butt}</style>
 </defs>
 <g id="figure_1">
  <g id="patch_1">
   <path d="M 0 644.169941 
L 696.128903 644.169941 
L 696.128903 0 
L 0 0 
z
" style="fill: #ffffff"/>
  </g>
  <g id="axes_1">
   <g id="patch_2">
    <path d="M 19.328903 30.681633 
L 688.928903 30.681633 
L 688.928903 30.4166 
L 19.328903 30.4166 
z
" style="fill: #ffffff"/>
   </g>
   <g id="matplotlib.axis_1">
    <g id="xtick_1">
     <g id="line2d_1">
      <defs>
       <path id="m30dc1add94" d="M 0 0 
L 0 -3.84 
" style="stroke: #262626; stroke-width: 0.8"/>
      </defs>
      <g>
       <use xlink:href="#m30dc1add94" x="20.133851" y="30.4166" style="fill: #262626; stroke: #262626; stroke-width: 0.8"/>
      </g>
     </g>
     <g id="text_1">
      <!-- 0.0 -->
      <g style="fill: #262626" transform="translate(15.241051 21.6774) scale(0.0704 -0.0704)">
       <defs>
        <path id="ArialMT-30" d="M 266 2259 
Q 266 3072 433 3567 
Q 600 4063 929 4331 
Q 1259 4600 1759 4600 
Q 2128 4600 2406 4451 
Q 2684 4303 2865 4023 
Q 3047 3744 3150 3342 
Q 3253 2941 3253 2259 
Q 3253 1453 3087 958 
Q 2922 463 2592 192 
Q 2263 -78 1759 -78 
Q 1097 -78 719 397 
Q 266 969 266 2259 
z
M 844 2259 
Q 844 1131 1108 757 
Q 1372 384 1759 384 
Q 2147 384 2411 759 
Q 2675 1134 2675 2259 
Q 2675 3391 2411 3762 
Q 2147 4134 1753 4134 
Q 1366 4134 1134 3806 
Q 844 3388 844 2259 
z
" transform="scale(0.015625)"/>
        <path id="ArialMT-2e" d="M 581 0 
L 581 641 
L 1222 641 
L 1222 0 
L 581 0 
z
" transform="scale(0.015625)"/>
       </defs>
       <use xlink:href="#ArialMT-30"/>
       <use xlink:href="#ArialMT-2e" x="55.615234"/>
       <use xlink:href="#ArialMT-30" x="83.398438"/>
      </g>
     </g>
    </g>
    <g id="xtick_2">
     <g id="line2d_2">
      <g>
       <use xlink:href="#m30dc1add94" x="154.291889" y="30.4166" style="fill: #262626; stroke: #262626; stroke-width: 0.8"/>
      </g>
     </g>
     <g id="text_2">
      <!-- 0.5 -->
      <g style="fill: #262626" transform="translate(149.399089 21.6774) scale(0.0704 -0.0704)">
       <defs>
        <path id="ArialMT-35" d="M 266 1200 
L 856 1250 
Q 922 819 1161 601 
Q 1400 384 1738 384 
Q 2144 384 2425 690 
Q 2706 997 2706 1503 
Q 2706 1984 2436 2262 
Q 2166 2541 1728 2541 
Q 1456 2541 1237 2417 
Q 1019 2294 894 2097 
L 366 2166 
L 809 4519 
L 3088 4519 
L 3088 3981 
L 1259 3981 
L 1013 2750 
Q 1425 3038 1878 3038 
Q 2478 3038 2890 2622 
Q 3303 2206 3303 1553 
Q 3303 931 2941 478 
Q 2500 -78 1738 -78 
Q 1113 -78 717 272 
Q 322 622 266 1200 
z
" transform="scale(0.015625)"/>
       </defs>
       <use xlink:href="#ArialMT-30"/>
       <use xlink:href="#ArialMT-2e" x="55.615234"/>
       <use xlink:href="#ArialMT-35" x="83.398438"/>
      </g>
     </g>
    </g>
    <g id="xtick_3">
     <g id="line2d_3">
      <g>
       <use xlink:href="#m30dc1add94" x="288.449927" y="30.4166" style="fill: #262626; stroke: #262626; stroke-width: 0.8"/>
      </g>
     </g>
     <g id="text_3">
      <!-- 1.0 -->
      <g style="fill: #262626" transform="translate(283.557127 21.6774) scale(0.0704 -0.0704)">
       <defs>
        <path id="ArialMT-31" d="M 2384 0 
L 1822 0 
L 1822 3584 
Q 1619 3391 1289 3197 
Q 959 3003 697 2906 
L 697 3450 
Q 1169 3672 1522 3987 
Q 1875 4303 2022 4600 
L 2384 4600 
L 2384 0 
z
" transform="scale(0.015625)"/>
       </defs>
       <use xlink:href="#ArialMT-31"/>
       <use xlink:href="#ArialMT-2e" x="55.615234"/>
       <use xlink:href="#ArialMT-30" x="83.398438"/>
      </g>
     </g>
    </g>
    <g id="xtick_4">
     <g id="line2d_4">
      <g>
       <use xlink:href="#m30dc1add94" x="422.607966" y="30.4166" style="fill: #262626; stroke: #262626; stroke-width: 0.8"/>
      </g>
     </g>
     <g id="text_4">
      <!-- 1.5 -->
      <g style="fill: #262626" transform="translate(417.715166 21.6774) scale(0.0704 -0.0704)">
       <use xlink:href="#ArialMT-31"/>
       <use xlink:href="#ArialMT-2e" x="55.615234"/>
       <use xlink:href="#ArialMT-35" x="83.398438"/>
      </g>
     </g>
    </g>
    <g id="xtick_5">
     <g id="line2d_5">
      <g>
       <use xlink:href="#m30dc1add94" x="556.766004" y="30.4166" style="fill: #262626; stroke: #262626; stroke-width: 0.8"/>
      </g>
     </g>
     <g id="text_5">
      <!-- 2.0 -->
      <g style="fill: #262626" transform="translate(551.873204 21.6774) scale(0.0704 -0.0704)">
       <defs>
        <path id="ArialMT-32" d="M 3222 541 
L 3222 0 
L 194 0 
Q 188 203 259 391 
Q 375 700 629 1000 
Q 884 1300 1366 1694 
Q 2113 2306 2375 2664 
Q 2638 3022 2638 3341 
Q 2638 3675 2398 3904 
Q 2159 4134 1775 4134 
Q 1369 4134 1125 3890 
Q 881 3647 878 3216 
L 300 3275 
Q 359 3922 746 4261 
Q 1134 4600 1788 4600 
Q 2447 4600 2831 4234 
Q 3216 3869 3216 3328 
Q 3216 3053 3103 2787 
Q 2991 2522 2730 2228 
Q 2469 1934 1863 1422 
Q 1356 997 1212 845 
Q 1069 694 975 541 
L 3222 541 
z
" transform="scale(0.015625)"/>
       </defs>
       <use xlink:href="#ArialMT-32"/>
       <use xlink:href="#ArialMT-2e" x="55.615234"/>
       <use xlink:href="#ArialMT-30" x="83.398438"/>
      </g>
     </g>
    </g>
    <g id="text_6">
     <!-- 1e8 -->
     <g style="fill: #262626" transform="translate(677.184203 12.2391) scale(0.0704 -0.0704)">
      <defs>
       <path id="ArialMT-65" d="M 2694 1069 
L 3275 997 
Q 3138 488 2766 206 
Q 2394 -75 1816 -75 
Q 1088 -75 661 373 
Q 234 822 234 1631 
Q 234 2469 665 2931 
Q 1097 3394 1784 3394 
Q 2450 3394 2872 2941 
Q 3294 2488 3294 1666 
Q 3294 1616 3291 1516 
L 816 1516 
Q 847 969 1125 678 
Q 1403 388 1819 388 
Q 2128 388 2347 550 
Q 2566 713 2694 1069 
z
M 847 1978 
L 2700 1978 
Q 2663 2397 2488 2606 
Q 2219 2931 1791 2931 
Q 1403 2931 1139 2672 
Q 875 2413 847 1978 
z
" transform="scale(0.015625)"/>
       <path id="ArialMT-38" d="M 1131 2484 
Q 781 2613 612 2850 
Q 444 3088 444 3419 
Q 444 3919 803 4259 
Q 1163 4600 1759 4600 
Q 2359 4600 2725 4251 
Q 3091 3903 3091 3403 
Q 3091 3084 2923 2848 
Q 2756 2613 2416 2484 
Q 2838 2347 3058 2040 
Q 3278 1734 3278 1309 
Q 3278 722 2862 322 
Q 2447 -78 1769 -78 
Q 1091 -78 675 323 
Q 259 725 259 1325 
Q 259 1772 486 2073 
Q 713 2375 1131 2484 
z
M 1019 3438 
Q 1019 3113 1228 2906 
Q 1438 2700 1772 2700 
Q 2097 2700 2305 2904 
Q 2513 3109 2513 3406 
Q 2513 3716 2298 3927 
Q 2084 4138 1766 4138 
Q 1444 4138 1231 3931 
Q 1019 3725 1019 3438 
z
M 838 1322 
Q 838 1081 952 856 
Q 1066 631 1291 507 
Q 1516 384 1775 384 
Q 2178 384 2440 643 
Q 2703 903 2703 1303 
Q 2703 1709 2433 1975 
Q 2163 2241 1756 2241 
Q 1359 2241 1098 1978 
Q 838 1716 838 1322 
z
" transform="scale(0.015625)"/>
      </defs>
      <use xlink:href="#ArialMT-31"/>
      <use xlink:href="#ArialMT-65" x="55.615234"/>
      <use xlink:href="#ArialMT-38" x="111.230469"/>
     </g>
    </g>
   </g>
   <g id="matplotlib.axis_2">
    <g id="ytick_1"/>
    <g id="ytick_2"/>
   </g>
   <g id="patch_3">
    <path d="M 19.328903 30.681633 
L 19.328903 30.4166 
" style="fill: none; stroke: #262626; stroke-width: 0.8; stroke-linejoin: miter; stroke-linecap: square"/>
   </g>
   <g id="patch_4">
    <path d="M 688.928903 30.681633 
L 688.928903 30.4166 
" style="fill: none; stroke: #262626; stroke-width: 0.8; stroke-linejoin: miter; stroke-linecap: square"/>
   </g>
   <g id="patch_5">
    <path d="M 19.328903 30.681633 
L 688.928903 30.681633 
" style="fill: none; stroke: #262626; stroke-width: 0.8; stroke-linejoin: miter; stroke-linecap: square"/>
   </g>
   <g id="patch_6">
    <path d="M 19.328903 30.4166 
L 688.928903 30.4166 
" style="fill: none; stroke: #262626; stroke-width: 0.8; stroke-linejoin: miter; stroke-linecap: square"/>
   </g>
  </g>
  <g id="axes_2">
   <g id="patch_7">
    <path d="M 19.328903 57.184892 
L 688.928903 57.184892 
L 688.928903 30.681633 
L 19.328903 30.681633 
z
" style="fill: #ffffff"/>
   </g>
   <g id="patch_8">
    <path d="M 20.133851 46.551728 
L 346.674516 46.551728 
L 346.674516 41.251076 
L 20.133851 41.251076 
z
" clip-path="url(#p8d474448a6)" style="fill: #ebeaea"/>
   </g>
   <g id="patch_9">
    <path d="M 355.797263 46.551728 
L 688.123955 46.551728 
L 688.123955 41.251076 
L 355.797263 41.251076 
z
" clip-path="url(#p8d474448a6)" style="fill: #ebeaea"/>
   </g>
   <g id="patch_10">
    <path d="M 20.133851 46.551728 
L 346.674516 46.551728 
L 346.674516 41.251076 
L 20.133851 41.251076 
L 20.133851 46.551728 
z
" clip-path="url(#p8d474448a6)" style="fill: none; stroke: #000000; stroke-width: 0.7; stroke-linejoin: miter"/>
   </g>
   <g id="patch_11">
    <path d="M 355.797263 46.551728 
L 688.123955 46.551728 
L 688.123955 41.251076 
L 355.797263 41.251076 
L 355.797263 46.551728 
z
" clip-path="url(#p8d474448a6)" style="fill: none; stroke: #000000; stroke-width: 0.7; stroke-linejoin: miter"/>
   </g>
   <g id="matplotlib.axis_3">
    <g id="xtick_6"/>
    <g id="xtick_7"/>
    <g id="xtick_8"/>
    <g id="xtick_9"/>
    <g id="xtick_10"/>
   </g>
   <g id="matplotlib.axis_4">
    <g id="ytick_3"/>
    <g id="ytick_4"/>
   </g>
   <g id="patch_12">
    <path d="M 346.674516 46.551728 
L 346.674516 41.251076 
L 355.797263 46.551728 
L 355.797263 41.251076 
z
" clip-path="url(#p8d474448a6)" style="fill: #777777; stroke: #777777; stroke-width: 0.64; stroke-linejoin: miter"/>
   </g>
   <g id="text_7">
    <!-- 1 -->
    <g style="fill: #262626" transform="translate(11.362721 45.715933) scale(0.07 -0.07)">
     <defs>
      <path id="Arial-BoldMT-31" d="M 2519 0 
L 1641 0 
L 1641 3309 
Q 1159 2859 506 2644 
L 506 3441 
Q 850 3553 1253 3867 
Q 1656 4181 1806 4600 
L 2519 4600 
L 2519 0 
z
" transform="scale(0.015625)"/>
     </defs>
     <use xlink:href="#Arial-BoldMT-31"/>
    </g>
   </g>
   <g id="patch_13">
    <path d="M 611.66116 47.082454 
L 675.353191 47.082454 
L 675.353191 42.047166 
L 611.66116 42.047166 
z
" clip-path="url(#p8d474448a6)" style="fill: #1f77b4; opacity: 0.944376"/>
   </g>
   <g id="patch_14">
    <path d="M 439.89011 47.082454 
L 488.972977 47.082454 
L 488.972977 42.047166 
L 439.89011 42.047166 
z
" clip-path="url(#p8d474448a6)" style="fill: #1f77b4; opacity: 0.7425"/>
   </g>
   <g id="patch_15">
    <path d="M 406.105803 47.082454 
L 417.028655 47.082454 
L 417.028655 42.047166 
L 406.105803 42.047166 
z
" clip-path="url(#p8d474448a6)" style="fill: #1f77b4; opacity: 0.113746"/>
   </g>
   <g id="patch_16">
    <path d="M 332.469533 47.082454 
L 385.617222 47.082454 
L 385.617222 42.047166 
L 332.469533 42.047166 
z
" clip-path="url(#p8d474448a6)" style="fill: #1f77b4; opacity: 0.772809"/>
   </g>
   <g id="patch_17">
    <path d="M 321.324638 47.082454 
L 325.896124 47.082454 
L 325.896124 42.047166 
L 321.324638 42.047166 
z
" clip-path="url(#p8d474448a6)" style="fill: #1f77b4; opacity: 0.977646"/>
   </g>
   <g id="patch_18">
    <path d="M 283.523298 47.082454 
L 304.507636 47.082454 
L 304.507636 42.047166 
L 283.523298 42.047166 
z
" clip-path="url(#p8d474448a6)" style="fill: #1f77b4; opacity: 0.662294"/>
   </g>
   <g id="patch_19">
    <path d="M 193.472696 47.082454 
L 253.376173 47.082454 
L 253.376173 42.047166 
L 193.472696 42.047166 
z
" clip-path="url(#p8d474448a6)" style="fill: #1f77b4; opacity: 0.359566"/>
   </g>
   <g id="patch_20">
    <path d="M 128.783796 47.082454 
L 174.771393 47.082454 
L 174.771393 42.047166 
L 128.783796 42.047166 
z
" clip-path="url(#p8d474448a6)" style="fill: #1f77b4; opacity: 0.626846"/>
   </g>
   <g id="patch_21">
    <path d="M 85.470396 47.082454 
L 87.931531 47.082454 
L 87.931531 42.047166 
L 85.470396 42.047166 
z
" clip-path="url(#p8d474448a6)" style="fill: #1f77b4; opacity: 0.419028"/>
   </g>
   <g id="patch_22">
    <path d="M 72.306482 47.082454 
L 82.037818 47.082454 
L 82.037818 42.047166 
L 72.306482 42.047166 
z
" clip-path="url(#p8d474448a6)" style="fill: #1f77b4; opacity: 0.155487"/>
   </g>
   <g id="patch_23">
    <path d="M 61.907892 47.082454 
L 70.447602 47.082454 
L 70.447602 42.047166 
L 61.907892 42.047166 
z
" clip-path="url(#p8d474448a6)" style="fill: #1f77b4; opacity: 0.936656"/>
   </g>
   <g id="patch_24">
    <path d="M 47.140307 47.082454 
L 54.912415 47.082454 
L 54.912415 42.047166 
L 47.140307 42.047166 
z
" clip-path="url(#p8d474448a6)" style="fill: #1f77b4; opacity: 0.843634"/>
   </g>
  </g>
  <g id="axes_3">
   <g id="patch_25">
    <path d="M 19.328903 83.688151 
L 688.928903 83.688151 
L 688.928903 57.184892 
L 19.328903 57.184892 
z
" style="fill: #ffffff"/>
   </g>
   <g id="patch_26">
    <path d="M 20.133851 73.054987 
L 266.448009 73.054987 
L 266.448009 67.754335 
L 20.133851 67.754335 
z
" clip-path="url(#pec2c2b8933)" style="fill: #ebeaea"/>
   </g>
   <g id="patch_27">
    <path d="M 277.717284 73.054987 
L 669.978025 73.054987 
L 669.978025 67.754335 
L 277.717284 67.754335 
z
" clip-path="url(#pec2c2b8933)" style="fill: #ebeaea"/>
   </g>
   <g id="patch_28">
    <path d="M 20.133851 73.054987 
L 266.448009 73.054987 
L 266.448009 67.754335 
L 20.133851 67.754335 
L 20.133851 73.054987 
z
" clip-path="url(#pec2c2b8933)" style="fill: none; stroke: #000000; stroke-width: 0.7; stroke-linejoin: miter"/>
   </g>
   <g id="patch_29">
    <path d="M 277.717284 73.054987 
L 669.978025 73.054987 
L 669.978025 67.754335 
L 277.717284 67.754335 
L 277.717284 73.054987 
z
" clip-path="url(#pec2c2b8933)" style="fill: none; stroke: #000000; stroke-width: 0.7; stroke-linejoin: miter"/>
   </g>
   <g id="matplotlib.axis_5">
    <g id="xtick_11"/>
    <g id="xtick_12"/>
    <g id="xtick_13"/>
    <g id="xtick_14"/>
    <g id="xtick_15"/>
   </g>
   <g id="matplotlib.axis_6">
    <g id="ytick_5"/>
    <g id="ytick_6"/>
   </g>
   <g id="patch_30">
    <path d="M 266.448009 73.054987 
L 266.448009 67.754335 
L 277.717284 73.054987 
L 277.717284 67.754335 
z
" clip-path="url(#pec2c2b8933)" style="fill: #777777; stroke: #777777; stroke-width: 0.64; stroke-linejoin: miter"/>
   </g>
   <g id="text_8">
    <!-- 2 -->
    <g style="fill: #262626" transform="translate(11.362721 72.219193) scale(0.07 -0.07)">
     <defs>
      <path id="Arial-BoldMT-32" d="M 3238 816 
L 3238 0 
L 159 0 
Q 209 463 459 877 
Q 709 1291 1447 1975 
Q 2041 2528 2175 2725 
Q 2356 2997 2356 3263 
Q 2356 3556 2198 3714 
Q 2041 3872 1763 3872 
Q 1488 3872 1325 3706 
Q 1163 3541 1138 3156 
L 263 3244 
Q 341 3969 753 4284 
Q 1166 4600 1784 4600 
Q 2463 4600 2850 4234 
Q 3238 3869 3238 3325 
Q 3238 3016 3127 2736 
Q 3016 2456 2775 2150 
Q 2616 1947 2200 1565 
Q 1784 1184 1673 1059 
Q 1563 934 1494 816 
L 3238 816 
z
" transform="scale(0.015625)"/>
     </defs>
     <use xlink:href="#Arial-BoldMT-32"/>
    </g>
   </g>
   <g id="patch_31">
    <path d="M 615.678625 73.585714 
L 638.450465 73.585714 
L 638.450465 68.550425 
L 615.678625 68.550425 
z
" clip-path="url(#pec2c2b8933)" style="fill: #1f77b4; opacity: 0.188933"/>
   </g>
   <g id="patch_32">
    <path d="M 472.046069 73.585714 
L 474.345624 73.585714 
L 474.345624 68.550425 
L 472.046069 68.550425 
z
" clip-path="url(#pec2c2b8933)" style="fill: #1f77b4; opacity: 0.593855"/>
   </g>
   <g id="patch_33">
    <path d="M 440.040566 73.585714 
L 441.873272 73.585714 
L 441.873272 68.550425 
L 440.040566 68.550425 
z
" clip-path="url(#pec2c2b8933)" style="fill: #1f77b4; opacity: 0.523703"/>
   </g>
   <g id="patch_34">
    <path d="M 431.337568 73.585714 
L 435.795411 73.585714 
L 435.795411 68.550425 
L 431.337568 68.550425 
z
" clip-path="url(#pec2c2b8933)" style="fill: #1f77b4; opacity: 0.180252"/>
   </g>
   <g id="patch_35">
    <path d="M 421.074794 73.585714 
L 427.404974 73.585714 
L 427.404974 68.550425 
L 421.074794 68.550425 
z
" clip-path="url(#pec2c2b8933)" style="fill: #1f77b4; opacity: 0.745284"/>
   </g>
   <g id="patch_36">
    <path d="M 322.021045 73.585714 
L 409.565824 73.585714 
L 409.565824 68.550425 
L 322.021045 68.550425 
z
" clip-path="url(#pec2c2b8933)" style="fill: #1f77b4; opacity: 0.757764"/>
   </g>
   <g id="patch_37">
    <path d="M 228.726528 73.585714 
L 305.84514 73.585714 
L 305.84514 68.550425 
L 228.726528 68.550425 
z
" clip-path="url(#pec2c2b8933)" style="fill: #1f77b4; opacity: 0.555642"/>
   </g>
   <g id="patch_38">
    <path d="M 179.369249 73.585714 
L 180.922939 73.585714 
L 180.922939 68.550425 
L 179.369249 68.550425 
z
" clip-path="url(#pec2c2b8933)" style="fill: #1f77b4; opacity: 0.363537"/>
   </g>
   <g id="patch_39">
    <path d="M 116.053741 73.585714 
L 124.034363 73.585714 
L 124.034363 68.550425 
L 116.053741 68.550425 
z
" clip-path="url(#pec2c2b8933)" style="fill: #1f77b4; opacity: 0.571343"/>
   </g>
   <g id="patch_40">
    <path d="M 104.974353 73.585714 
L 109.302887 73.585714 
L 109.302887 68.550425 
L 104.974353 68.550425 
z
" clip-path="url(#pec2c2b8933)" style="fill: #1f77b4; opacity: 0.542344"/>
   </g>
   <g id="patch_41">
    <path d="M 62.708515 73.585714 
L 64.69033 73.585714 
L 64.69033 68.550425 
L 62.708515 68.550425 
z
" clip-path="url(#pec2c2b8933)" style="fill: #1f77b4; opacity: 0.967332"/>
   </g>
   <g id="patch_42">
    <path d="M 53.685282 73.585714 
L 55.850823 73.585714 
L 55.850823 68.550425 
L 53.685282 68.550425 
z
" clip-path="url(#pec2c2b8933)" style="fill: #1f77b4; opacity: 0.47479"/>
   </g>
  </g>
  <g id="axes_4">
   <g id="patch_43">
    <path d="M 19.328903 110.191411 
L 688.928903 110.191411 
L 688.928903 83.688151 
L 19.328903 83.688151 
z
" style="fill: #ffffff"/>
   </g>
   <g id="patch_44">
    <path d="M 20.133851 99.558247 
L 255.715366 99.558247 
L 255.715366 94.257595 
L 20.133851 94.257595 
z
" clip-path="url(#p26a9ffaea5)" style="fill: #ebeaea"/>
   </g>
   <g id="patch_45">
    <path d="M 272.350963 99.558247 
L 552.192715 99.558247 
L 552.192715 94.257595 
L 272.350963 94.257595 
z
" clip-path="url(#p26a9ffaea5)" style="fill: #ebeaea"/>
   </g>
   <g id="patch_46">
    <path d="M 20.133851 99.558247 
L 255.715366 99.558247 
L 255.715366 94.257595 
L 20.133851 94.257595 
L 20.133851 99.558247 
z
" clip-path="url(#p26a9ffaea5)" style="fill: none; stroke: #000000; stroke-width: 0.7; stroke-linejoin: miter"/>
   </g>
   <g id="patch_47">
    <path d="M 272.350963 99.558247 
L 552.192715 99.558247 
L 552.192715 94.257595 
L 272.350963 94.257595 
L 272.350963 99.558247 
z
" clip-path="url(#p26a9ffaea5)" style="fill: none; stroke: #000000; stroke-width: 0.7; stroke-linejoin: miter"/>
   </g>
   <g id="matplotlib.axis_7">
    <g id="xtick_16"/>
    <g id="xtick_17"/>
    <g id="xtick_18"/>
    <g id="xtick_19"/>
    <g id="xtick_20"/>
   </g>
   <g id="matplotlib.axis_8">
    <g id="ytick_7"/>
    <g id="ytick_8"/>
   </g>
   <g id="patch_48">
    <path d="M 255.715366 99.558247 
L 255.715366 94.257595 
L 272.350963 99.558247 
L 272.350963 94.257595 
z
" clip-path="url(#p26a9ffaea5)" style="fill: #777777; stroke: #777777; stroke-width: 0.64; stroke-linejoin: miter"/>
   </g>
   <g id="text_9">
    <!-- 3 -->
    <g style="fill: #262626" transform="translate(11.362721 98.722452) scale(0.07 -0.07)">
     <defs>
      <path id="Arial-BoldMT-33" d="M 241 1216 
L 1091 1319 
Q 1131 994 1309 822 
Q 1488 650 1741 650 
Q 2013 650 2198 856 
Q 2384 1063 2384 1413 
Q 2384 1744 2206 1937 
Q 2028 2131 1772 2131 
Q 1603 2131 1369 2066 
L 1466 2781 
Q 1822 2772 2009 2936 
Q 2197 3100 2197 3372 
Q 2197 3603 2059 3740 
Q 1922 3878 1694 3878 
Q 1469 3878 1309 3722 
Q 1150 3566 1116 3266 
L 306 3403 
Q 391 3819 561 4067 
Q 731 4316 1036 4458 
Q 1341 4600 1719 4600 
Q 2366 4600 2756 4188 
Q 3078 3850 3078 3425 
Q 3078 2822 2419 2463 
Q 2813 2378 3048 2084 
Q 3284 1791 3284 1375 
Q 3284 772 2843 347 
Q 2403 -78 1747 -78 
Q 1125 -78 715 280 
Q 306 638 241 1216 
z
" transform="scale(0.015625)"/>
     </defs>
     <use xlink:href="#Arial-BoldMT-33"/>
    </g>
   </g>
   <g id="patch_49">
    <path d="M 480.314779 100.088973 
L 511.350033 100.088973 
L 511.350033 95.053685 
L 480.314779 95.053685 
z
" clip-path="url(#p26a9ffaea5)" style="fill: #1f77b4; opacity: 0.136542"/>
   </g>
   <g id="patch_50">
    <path d="M 439.034558 100.088973 
L 465.978906 100.088973 
L 465.978906 95.053685 
L 439.034558 95.053685 
z
" clip-path="url(#p26a9ffaea5)" style="fill: #1f77b4; opacity: 0.179738"/>
   </g>
   <g id="patch_51">
    <path d="M 426.623208 100.088973 
L 431.546943 100.088973 
L 431.546943 95.053685 
L 426.623208 95.053685 
z
" clip-path="url(#p26a9ffaea5)" style="fill: #1f77b4; opacity: 0.227334"/>
   </g>
   <g id="patch_52">
    <path d="M 414.649802 100.088973 
L 423.662225 100.088973 
L 423.662225 95.053685 
L 414.649802 95.053685 
z
" clip-path="url(#p26a9ffaea5)" style="fill: #1f77b4; opacity: 0.186619"/>
   </g>
   <g id="patch_53">
    <path d="M 288.355223 100.088973 
L 377.679109 100.088973 
L 377.679109 95.053685 
L 288.355223 95.053685 
z
" clip-path="url(#p26a9ffaea5)" style="fill: #1f77b4; opacity: 0.867946"/>
   </g>
   <g id="patch_54">
    <path d="M 168.476743 100.088973 
L 242.319576 100.088973 
L 242.319576 95.053685 
L 168.476743 95.053685 
z
" clip-path="url(#p26a9ffaea5)" style="fill: #1f77b4; opacity: 0.734143"/>
   </g>
   <g id="patch_55">
    <path d="M 150.303017 100.088973 
L 155.448986 100.088973 
L 155.448986 95.053685 
L 150.303017 95.053685 
z
" clip-path="url(#p26a9ffaea5)" style="fill: #1f77b4; opacity: 0.72047"/>
   </g>
   <g id="patch_56">
    <path d="M 90.308757 100.088973 
L 94.36029 100.088973 
L 94.36029 95.053685 
L 90.308757 95.053685 
z
" clip-path="url(#p26a9ffaea5)" style="fill: #1f77b4; opacity: 0.431967"/>
   </g>
   <g id="patch_57">
    <path d="M 63.06192 100.088973 
L 65.357954 100.088973 
L 65.357954 95.053685 
L 63.06192 95.053685 
z
" clip-path="url(#p26a9ffaea5)" style="fill: #1f77b4; opacity: 0.603568"/>
   </g>
  </g>
  <g id="axes_5">
   <g id="patch_58">
    <path d="M 19.328903 136.69467 
L 688.928903 136.69467 
L 688.928903 110.191411 
L 19.328903 110.191411 
z
" style="fill: #ffffff"/>
   </g>
   <g id="patch_59">
    <path d="M 20.133851 126.061506 
L 149.4622 126.061506 
L 149.4622 120.760854 
L 20.133851 120.760854 
z
" clip-path="url(#p11ab9f7f96)" style="fill: #ebeaea"/>
   </g>
   <g id="patch_60">
    <path d="M 159.121579 126.061506 
L 530.510082 126.061506 
L 530.510082 120.760854 
L 159.121579 120.760854 
z
" clip-path="url(#p11ab9f7f96)" style="fill: #ebeaea"/>
   </g>
   <g id="patch_61">
    <path d="M 20.133851 126.061506 
L 149.4622 126.061506 
L 149.4622 120.760854 
L 20.133851 120.760854 
L 20.133851 126.061506 
z
" clip-path="url(#p11ab9f7f96)" style="fill: none; stroke: #000000; stroke-width: 0.7; stroke-linejoin: miter"/>
   </g>
   <g id="patch_62">
    <path d="M 159.121579 126.061506 
L 530.510082 126.061506 
L 530.510082 120.760854 
L 159.121579 120.760854 
L 159.121579 126.061506 
z
" clip-path="url(#p11ab9f7f96)" style="fill: none; stroke: #000000; stroke-width: 0.7; stroke-linejoin: miter"/>
   </g>
   <g id="matplotlib.axis_9">
    <g id="xtick_21"/>
    <g id="xtick_22"/>
    <g id="xtick_23"/>
    <g id="xtick_24"/>
    <g id="xtick_25"/>
   </g>
   <g id="matplotlib.axis_10">
    <g id="ytick_9"/>
    <g id="ytick_10"/>
   </g>
   <g id="patch_63">
    <path d="M 149.4622 126.061506 
L 149.4622 120.760854 
L 159.121579 126.061506 
L 159.121579 120.760854 
z
" clip-path="url(#p11ab9f7f96)" style="fill: #777777; stroke: #777777; stroke-width: 0.64; stroke-linejoin: miter"/>
   </g>
   <g id="text_10">
    <!-- 4 -->
    <g style="fill: #262626" transform="translate(11.362721 125.225711) scale(0.07 -0.07)">
     <defs>
      <path id="Arial-BoldMT-34" d="M 1994 0 
L 1994 922 
L 119 922 
L 119 1691 
L 2106 4600 
L 2844 4600 
L 2844 1694 
L 3413 1694 
L 3413 922 
L 2844 922 
L 2844 0 
L 1994 0 
z
M 1994 1694 
L 1994 3259 
L 941 1694 
L 1994 1694 
z
" transform="scale(0.015625)"/>
     </defs>
     <use xlink:href="#Arial-BoldMT-34"/>
    </g>
   </g>
   <g id="patch_64">
    <path d="M 441.887992 126.592233 
L 510.195662 126.592233 
L 510.195662 121.556944 
L 441.887992 121.556944 
z
" clip-path="url(#p11ab9f7f96)" style="fill: #1f77b4; opacity: 0.135172"/>
   </g>
   <g id="patch_65">
    <path d="M 403.108272 126.592233 
L 433.865676 126.592233 
L 433.865676 121.556944 
L 403.108272 121.556944 
z
" clip-path="url(#p11ab9f7f96)" style="fill: #1f77b4; opacity: 0.066178"/>
   </g>
   <g id="patch_66">
    <path d="M 376.744119 126.592233 
L 398.40951 126.592233 
L 398.40951 121.556944 
L 376.744119 121.556944 
z
" clip-path="url(#p11ab9f7f96)" style="fill: #1f77b4; opacity: 0.356137"/>
   </g>
   <g id="patch_67">
    <path d="M 346.542384 126.592233 
L 355.486147 126.592233 
L 355.486147 121.556944 
L 346.542384 121.556944 
z
" clip-path="url(#p11ab9f7f96)" style="fill: #1f77b4; opacity: 0.56894"/>
   </g>
   <g id="patch_68">
    <path d="M 280.565527 126.592233 
L 328.109552 126.592233 
L 328.109552 121.556944 
L 280.565527 121.556944 
z
" clip-path="url(#p11ab9f7f96)" style="fill: #1f77b4; opacity: 0.586999"/>
   </g>
   <g id="patch_69">
    <path d="M 246.400071 126.592233 
L 267.524096 126.592233 
L 267.524096 121.556944 
L 246.400071 121.556944 
z
" clip-path="url(#p11ab9f7f96)" style="fill: #1f77b4; opacity: 0.06489"/>
   </g>
   <g id="patch_70">
    <path d="M 235.774357 126.592233 
L 236.658241 126.592233 
L 236.658241 121.556944 
L 235.774357 121.556944 
z
" clip-path="url(#p11ab9f7f96)" style="fill: #1f77b4; opacity: 0.30511"/>
   </g>
   <g id="patch_71">
    <path d="M 195.945704 126.592233 
L 199.064459 126.592233 
L 199.064459 121.556944 
L 195.945704 121.556944 
z
" clip-path="url(#p11ab9f7f96)" style="fill: #1f77b4; opacity: 0.48429"/>
   </g>
   <g id="patch_72">
    <path d="M 79.090371 126.592233 
L 149.611837 126.592233 
L 149.611837 121.556944 
L 79.090371 121.556944 
z
" clip-path="url(#p11ab9f7f96)" style="fill: #1f77b4; opacity: 0.580208"/>
   </g>
  </g>
  <g id="axes_6">
   <g id="patch_73">
    <path d="M 19.328903 163.19793 
L 688.928903 163.19793 
L 688.928903 136.69467 
L 19.328903 136.69467 
z
" style="fill: #ffffff"/>
   </g>
   <g id="patch_74">
    <path d="M 20.133851 152.564766 
L 143.827562 152.564766 
L 143.827562 147.264114 
L 20.133851 147.264114 
z
" clip-path="url(#p431c9a206a)" style="fill: #ebeaea"/>
   </g>
   <g id="patch_75">
    <path d="M 158.048314 152.564766 
L 507.230185 152.564766 
L 507.230185 147.264114 
L 158.048314 147.264114 
z
" clip-path="url(#p431c9a206a)" style="fill: #ebeaea"/>
   </g>
   <g id="patch_76">
    <path d="M 20.133851 152.564766 
L 143.827562 152.564766 
L 143.827562 147.264114 
L 20.133851 147.264114 
L 20.133851 152.564766 
z
" clip-path="url(#p431c9a206a)" style="fill: none; stroke: #000000; stroke-width: 0.7; stroke-linejoin: miter"/>
   </g>
   <g id="patch_77">
    <path d="M 158.048314 152.564766 
L 507.230185 152.564766 
L 507.230185 147.264114 
L 158.048314 147.264114 
L 158.048314 152.564766 
z
" clip-path="url(#p431c9a206a)" style="fill: none; stroke: #000000; stroke-width: 0.7; stroke-linejoin: miter"/>
   </g>
   <g id="matplotlib.axis_11">
    <g id="xtick_26"/>
    <g id="xtick_27"/>
    <g id="xtick_28"/>
    <g id="xtick_29"/>
    <g id="xtick_30"/>
   </g>
   <g id="matplotlib.axis_12">
    <g id="ytick_11"/>
    <g id="ytick_12"/>
   </g>
   <g id="patch_78">
    <path d="M 143.827562 152.564766 
L 143.827562 147.264114 
L 158.048314 152.564766 
L 158.048314 147.264114 
z
" clip-path="url(#p431c9a206a)" style="fill: #777777; stroke: #777777; stroke-width: 0.64; stroke-linejoin: miter"/>
   </g>
   <g id="text_11">
    <!-- 5 -->
    <g style="fill: #262626" transform="translate(11.362721 151.728971) scale(0.07 -0.07)">
     <defs>
      <path id="Arial-BoldMT-35" d="M 284 1178 
L 1159 1269 
Q 1197 972 1381 798 
Q 1566 625 1806 625 
Q 2081 625 2272 848 
Q 2463 1072 2463 1522 
Q 2463 1944 2273 2155 
Q 2084 2366 1781 2366 
Q 1403 2366 1103 2031 
L 391 2134 
L 841 4519 
L 3163 4519 
L 3163 3697 
L 1506 3697 
L 1369 2919 
Q 1663 3066 1969 3066 
Q 2553 3066 2959 2641 
Q 3366 2216 3366 1538 
Q 3366 972 3038 528 
Q 2591 -78 1797 -78 
Q 1163 -78 763 262 
Q 363 603 284 1178 
z
" transform="scale(0.015625)"/>
     </defs>
     <use xlink:href="#Arial-BoldMT-35"/>
    </g>
   </g>
   <g id="patch_79">
    <path d="M 458.739921 153.095492 
L 501.419988 153.095492 
L 501.419988 148.060204 
L 458.739921 148.060204 
z
" clip-path="url(#p431c9a206a)" style="fill: #1f77b4; opacity: 0.352145"/>
   </g>
   <g id="patch_80">
    <path d="M 422.090972 153.095492 
L 432.858925 153.095492 
L 432.858925 148.060204 
L 422.090972 148.060204 
z
" clip-path="url(#p431c9a206a)" style="fill: #1f77b4; opacity: 0.334326"/>
   </g>
   <g id="patch_81">
    <path d="M 372.312203 153.095492 
L 388.85628 153.095492 
L 388.85628 148.060204 
L 372.312203 148.060204 
z
" clip-path="url(#p431c9a206a)" style="fill: #1f77b4; opacity: 0.118303"/>
   </g>
   <g id="patch_82">
    <path d="M 323.864403 153.095492 
L 343.409139 153.095492 
L 343.409139 148.060204 
L 323.864403 148.060204 
z
" clip-path="url(#p431c9a206a)" style="fill: #1f77b4; opacity: 0.040353"/>
   </g>
   <g id="patch_83">
    <path d="M 266.50142 153.095492 
L 321.289105 153.095492 
L 321.289105 148.060204 
L 266.50142 148.060204 
z
" clip-path="url(#p431c9a206a)" style="fill: #1f77b4; opacity: 0.20217"/>
   </g>
   <g id="patch_84">
    <path d="M 227.522602 153.095492 
L 246.112216 153.095492 
L 246.112216 148.060204 
L 227.522602 148.060204 
z
" clip-path="url(#p431c9a206a)" style="fill: #1f77b4; opacity: 0.627352"/>
   </g>
   <g id="patch_85">
    <path d="M 129.601543 153.095492 
L 138.948709 153.095492 
L 138.948709 148.060204 
L 129.601543 148.060204 
z
" clip-path="url(#p431c9a206a)" style="fill: #1f77b4; opacity: 0.352619"/>
   </g>
   <g id="patch_86">
    <path d="M 76.040425 153.095492 
L 105.171375 153.095492 
L 105.171375 148.060204 
L 76.040425 148.060204 
z
" clip-path="url(#p431c9a206a)" style="fill: #1f77b4; opacity: 0.100997"/>
   </g>
   <g id="patch_87">
    <path d="M 48.37309 153.095492 
L 72.857177 153.095492 
L 72.857177 148.060204 
L 48.37309 148.060204 
z
" clip-path="url(#p431c9a206a)" style="fill: #1f77b4; opacity: 0.837577"/>
   </g>
  </g>
  <g id="axes_7">
   <g id="patch_88">
    <path d="M 19.328903 189.701189 
L 688.928903 189.701189 
L 688.928903 163.19793 
L 19.328903 163.19793 
z
" style="fill: #ffffff"/>
   </g>
   <g id="patch_89">
    <path d="M 20.133851 179.068025 
L 177.098756 179.068025 
L 177.098756 173.767373 
L 20.133851 173.767373 
z
" clip-path="url(#pac0612bb58)" style="fill: #ebeaea"/>
   </g>
   <g id="patch_90">
    <path d="M 188.099715 179.068025 
L 478.433752 179.068025 
L 478.433752 173.767373 
L 188.099715 173.767373 
z
" clip-path="url(#pac0612bb58)" style="fill: #ebeaea"/>
   </g>
   <g id="patch_91">
    <path d="M 20.133851 179.068025 
L 177.098756 179.068025 
L 177.098756 173.767373 
L 20.133851 173.767373 
L 20.133851 179.068025 
z
" clip-path="url(#pac0612bb58)" style="fill: none; stroke: #000000; stroke-width: 0.7; stroke-linejoin: miter"/>
   </g>
   <g id="patch_92">
    <path d="M 188.099715 179.068025 
L 478.433752 179.068025 
L 478.433752 173.767373 
L 188.099715 173.767373 
L 188.099715 179.068025 
z
" clip-path="url(#pac0612bb58)" style="fill: none; stroke: #000000; stroke-width: 0.7; stroke-linejoin: miter"/>
   </g>
   <g id="matplotlib.axis_13">
    <g id="xtick_31"/>
    <g id="xtick_32"/>
    <g id="xtick_33"/>
    <g id="xtick_34"/>
    <g id="xtick_35"/>
   </g>
   <g id="matplotlib.axis_14">
    <g id="ytick_13"/>
    <g id="ytick_14"/>
   </g>
   <g id="patch_93">
    <path d="M 177.098756 179.068025 
L 177.098756 173.767373 
L 188.099715 179.068025 
L 188.099715 173.767373 
z
" clip-path="url(#pac0612bb58)" style="fill: #777777; stroke: #777777; stroke-width: 0.64; stroke-linejoin: miter"/>
   </g>
   <g id="text_12">
    <!-- 6 -->
    <g style="fill: #262626" transform="translate(11.362721 178.23223) scale(0.07 -0.07)">
     <defs>
      <path id="Arial-BoldMT-36" d="M 3247 3459 
L 2397 3366 
Q 2366 3628 2234 3753 
Q 2103 3878 1894 3878 
Q 1616 3878 1423 3628 
Q 1231 3378 1181 2588 
Q 1509 2975 1997 2975 
Q 2547 2975 2939 2556 
Q 3331 2138 3331 1475 
Q 3331 772 2918 347 
Q 2506 -78 1859 -78 
Q 1166 -78 719 461 
Q 272 1000 272 2228 
Q 272 3488 737 4044 
Q 1203 4600 1947 4600 
Q 2469 4600 2811 4308 
Q 3153 4016 3247 3459 
z
M 1256 1544 
Q 1256 1116 1453 883 
Q 1650 650 1903 650 
Q 2147 650 2309 840 
Q 2472 1031 2472 1466 
Q 2472 1913 2297 2120 
Q 2122 2328 1859 2328 
Q 1606 2328 1431 2129 
Q 1256 1931 1256 1544 
z
" transform="scale(0.015625)"/>
     </defs>
     <use xlink:href="#Arial-BoldMT-36"/>
    </g>
   </g>
   <g id="patch_94">
    <path d="M 436.40279 179.598752 
L 437.80655 179.598752 
L 437.80655 174.563463 
L 436.40279 174.563463 
z
" clip-path="url(#pac0612bb58)" style="fill: #1f77b4; opacity: 0.861158"/>
   </g>
   <g id="patch_95">
    <path d="M 361.605774 179.598752 
L 377.866593 179.598752 
L 377.866593 174.563463 
L 361.605774 174.563463 
z
" clip-path="url(#pac0612bb58)" style="fill: #1f77b4; opacity: 0.001955"/>
   </g>
   <g id="patch_96">
    <path d="M 341.109058 179.598752 
L 348.718242 179.598752 
L 348.718242 174.563463 
L 341.109058 174.563463 
z
" clip-path="url(#pac0612bb58)" style="fill: #1f77b4; opacity: 0.753038"/>
   </g>
   <g id="patch_97">
    <path d="M 272.351754 179.598752 
L 298.002248 179.598752 
L 298.002248 174.563463 
L 272.351754 174.563463 
z
" clip-path="url(#pac0612bb58)" style="fill: #1f77b4; opacity: 0.275817"/>
   </g>
   <g id="patch_98">
    <path d="M 243.130258 179.598752 
L 265.108844 179.598752 
L 265.108844 174.563463 
L 243.130258 174.563463 
z
" clip-path="url(#pac0612bb58)" style="fill: #1f77b4; opacity: 0.281644"/>
   </g>
   <g id="patch_99">
    <path d="M 214.559093 179.598752 
L 225.11534 179.598752 
L 225.11534 174.563463 
L 214.559093 174.563463 
z
" clip-path="url(#pac0612bb58)" style="fill: #1f77b4; opacity: 0.566603"/>
   </g>
   <g id="patch_100">
    <path d="M 69.660741 179.598752 
L 87.546878 179.598752 
L 87.546878 174.563463 
L 69.660741 174.563463 
z
" clip-path="url(#pac0612bb58)" style="fill: #1f77b4; opacity: 0.972207"/>
   </g>
   <g id="patch_101">
    <path d="M 63.831335 179.598752 
L 66.950442 179.598752 
L 66.950442 174.563463 
L 63.831335 174.563463 
z
" clip-path="url(#pac0612bb58)" style="fill: #1f77b4; opacity: 0.458064"/>
   </g>
  </g>
  <g id="axes_8">
   <g id="patch_102">
    <path d="M 19.328903 216.204449 
L 688.928903 216.204449 
L 688.928903 189.701189 
L 19.328903 189.701189 
z
" style="fill: #ffffff"/>
   </g>
   <g id="patch_103">
    <path d="M 20.133851 205.571285 
L 176.025491 205.571285 
L 176.025491 200.270633 
L 20.133851 200.270633 
z
" clip-path="url(#p220ebd9296)" style="fill: #ebeaea"/>
   </g>
   <g id="patch_104">
    <path d="M 186.758135 205.571285 
L 447.684714 205.571285 
L 447.684714 200.270633 
L 186.758135 200.270633 
z
" clip-path="url(#p220ebd9296)" style="fill: #ebeaea"/>
   </g>
   <g id="patch_105">
    <path d="M 20.133851 205.571285 
L 176.025491 205.571285 
L 176.025491 200.270633 
L 20.133851 200.270633 
L 20.133851 205.571285 
z
" clip-path="url(#p220ebd9296)" style="fill: none; stroke: #000000; stroke-width: 0.7; stroke-linejoin: miter"/>
   </g>
   <g id="patch_106">
    <path d="M 186.758135 205.571285 
L 447.684714 205.571285 
L 447.684714 200.270633 
L 186.758135 200.270633 
L 186.758135 205.571285 
z
" clip-path="url(#p220ebd9296)" style="fill: none; stroke: #000000; stroke-width: 0.7; stroke-linejoin: miter"/>
   </g>
   <g id="matplotlib.axis_15">
    <g id="xtick_36"/>
    <g id="xtick_37"/>
    <g id="xtick_38"/>
    <g id="xtick_39"/>
    <g id="xtick_40"/>
   </g>
   <g id="matplotlib.axis_16">
    <g id="ytick_15"/>
    <g id="ytick_16"/>
   </g>
   <g id="patch_107">
    <path d="M 176.025491 205.571285 
L 176.025491 200.270633 
L 186.758135 205.571285 
L 186.758135 200.270633 
z
" clip-path="url(#p220ebd9296)" style="fill: #777777; stroke: #777777; stroke-width: 0.64; stroke-linejoin: miter"/>
   </g>
   <g id="text_13">
    <!-- 7 -->
    <g style="fill: #262626" transform="translate(11.362721 204.73549) scale(0.07 -0.07)">
     <defs>
      <path id="Arial-BoldMT-37" d="M 272 3703 
L 272 4519 
L 3275 4519 
L 3275 3881 
Q 2903 3516 2518 2831 
Q 2134 2147 1932 1376 
Q 1731 606 1734 0 
L 888 0 
Q 909 950 1279 1937 
Q 1650 2925 2269 3703 
L 272 3703 
z
" transform="scale(0.015625)"/>
     </defs>
     <use xlink:href="#Arial-BoldMT-37"/>
    </g>
   </g>
   <g id="patch_108">
    <path d="M 352.672413 206.102011 
L 375.718937 206.102011 
L 375.718937 201.066722 
L 352.672413 201.066722 
z
" clip-path="url(#p220ebd9296)" style="fill: #1f77b4; opacity: 0.990376"/>
   </g>
   <g id="patch_109">
    <path d="M 301.717516 206.102011 
L 306.721836 206.102011 
L 306.721836 201.066722 
L 301.717516 201.066722 
z
" clip-path="url(#p220ebd9296)" style="fill: #1f77b4; opacity: 0.315746"/>
   </g>
   <g id="patch_110">
    <path d="M 270.066292 206.102011 
L 276.158824 206.102011 
L 276.158824 201.066722 
L 270.066292 201.066722 
z
" clip-path="url(#p220ebd9296)" style="fill: #1f77b4; opacity: 0.462755"/>
   </g>
   <g id="patch_111">
    <path d="M 198.479791 206.102011 
L 227.158274 206.102011 
L 227.158274 201.066722 
L 198.479791 201.066722 
z
" clip-path="url(#p220ebd9296)" style="fill: #1f77b4; opacity: 0.266621"/>
   </g>
   <g id="patch_112">
    <path d="M 141.171614 206.102011 
L 177.299196 206.102011 
L 177.299196 201.066722 
L 141.171614 201.066722 
z
" clip-path="url(#p220ebd9296)" style="fill: #1f77b4; opacity: 0.664595"/>
   </g>
   <g id="patch_113">
    <path d="M 104.472739 206.102011 
L 113.291851 206.102011 
L 113.291851 201.066722 
L 104.472739 201.066722 
z
" clip-path="url(#p220ebd9296)" style="fill: #1f77b4; opacity: 0.950696"/>
   </g>
   <g id="patch_114">
    <path d="M 36.384919 206.102011 
L 62.596094 206.102011 
L 62.596094 201.066722 
L 36.384919 201.066722 
z
" clip-path="url(#p220ebd9296)" style="fill: #1f77b4; opacity: 0.345787"/>
   </g>
  </g>
  <g id="axes_9">
   <g id="patch_115">
    <path d="M 19.328903 242.707708 
L 688.928903 242.707708 
L 688.928903 216.204449 
L 19.328903 216.204449 
z
" style="fill: #ffffff"/>
   </g>
   <g id="patch_116">
    <path d="M 20.133851 232.074544 
L 136.046396 232.074544 
L 136.046396 226.773892 
L 20.133851 226.773892 
z
" clip-path="url(#pea1847acad)" style="fill: #ebeaea"/>
   </g>
   <g id="patch_117">
    <path d="M 146.779039 232.074544 
L 409.564145 232.074544 
L 409.564145 226.773892 
L 146.779039 226.773892 
z
" clip-path="url(#pea1847acad)" style="fill: #ebeaea"/>
   </g>
   <g id="patch_118">
    <path d="M 20.133851 232.074544 
L 136.046396 232.074544 
L 136.046396 226.773892 
L 20.133851 226.773892 
L 20.133851 232.074544 
z
" clip-path="url(#pea1847acad)" style="fill: none; stroke: #000000; stroke-width: 0.7; stroke-linejoin: miter"/>
   </g>
   <g id="patch_119">
    <path d="M 146.779039 232.074544 
L 409.564145 232.074544 
L 409.564145 226.773892 
L 146.779039 226.773892 
L 146.779039 232.074544 
z
" clip-path="url(#pea1847acad)" style="fill: none; stroke: #000000; stroke-width: 0.7; stroke-linejoin: miter"/>
   </g>
   <g id="matplotlib.axis_17">
    <g id="xtick_41"/>
    <g id="xtick_42"/>
    <g id="xtick_43"/>
    <g id="xtick_44"/>
    <g id="xtick_45"/>
   </g>
   <g id="matplotlib.axis_18">
    <g id="ytick_17"/>
    <g id="ytick_18"/>
   </g>
   <g id="patch_120">
    <path d="M 136.046396 232.074544 
L 136.046396 226.773892 
L 146.779039 232.074544 
L 146.779039 226.773892 
z
" clip-path="url(#pea1847acad)" style="fill: #777777; stroke: #777777; stroke-width: 0.64; stroke-linejoin: miter"/>
   </g>
   <g id="text_14">
    <!-- 8 -->
    <g style="fill: #262626" transform="translate(11.362721 231.238749) scale(0.07 -0.07)">
     <defs>
      <path id="Arial-BoldMT-38" d="M 1025 2472 
Q 684 2616 529 2867 
Q 375 3119 375 3419 
Q 375 3931 733 4265 
Q 1091 4600 1750 4600 
Q 2403 4600 2764 4265 
Q 3125 3931 3125 3419 
Q 3125 3100 2959 2851 
Q 2794 2603 2494 2472 
Q 2875 2319 3073 2025 
Q 3272 1731 3272 1347 
Q 3272 713 2867 316 
Q 2463 -81 1791 -81 
Q 1166 -81 750 247 
Q 259 634 259 1309 
Q 259 1681 443 1992 
Q 628 2303 1025 2472 
z
M 1206 3356 
Q 1206 3094 1354 2947 
Q 1503 2800 1750 2800 
Q 2000 2800 2150 2948 
Q 2300 3097 2300 3359 
Q 2300 3606 2151 3754 
Q 2003 3903 1759 3903 
Q 1506 3903 1356 3753 
Q 1206 3603 1206 3356 
z
M 1125 1394 
Q 1125 1031 1311 828 
Q 1497 625 1775 625 
Q 2047 625 2225 820 
Q 2403 1016 2403 1384 
Q 2403 1706 2222 1901 
Q 2041 2097 1763 2097 
Q 1441 2097 1283 1875 
Q 1125 1653 1125 1394 
z
" transform="scale(0.015625)"/>
     </defs>
     <use xlink:href="#Arial-BoldMT-38"/>
    </g>
   </g>
   <g id="patch_121">
    <path d="M 330.219429 232.605271 
L 343.663537 232.605271 
L 343.663537 227.569982 
L 330.219429 227.569982 
z
" clip-path="url(#pea1847acad)" style="fill: #1f77b4; opacity: 0.265537"/>
   </g>
   <g id="patch_122">
    <path d="M 309.420329 232.605271 
L 319.253439 232.605271 
L 319.253439 227.569982 
L 309.420329 227.569982 
z
" clip-path="url(#pea1847acad)" style="fill: #1f77b4; opacity: 0.908342"/>
   </g>
   <g id="patch_123">
    <path d="M 278.540746 232.605271 
L 294.148778 232.605271 
L 294.148778 227.569982 
L 278.540746 227.569982 
z
" clip-path="url(#pea1847acad)" style="fill: #1f77b4; opacity: 0.378907"/>
   </g>
   <g id="patch_124">
    <path d="M 219.98069 232.605271 
L 220.936462 232.605271 
L 220.936462 227.569982 
L 219.98069 227.569982 
z
" clip-path="url(#pea1847acad)" style="fill: #1f77b4; opacity: 0.433402"/>
   </g>
   <g id="patch_125">
    <path d="M 139.960078 232.605271 
L 186.333892 232.605271 
L 186.333892 227.569982 
L 139.960078 227.569982 
z
" clip-path="url(#pea1847acad)" style="fill: #1f77b4; opacity: 0.973279"/>
   </g>
   <g id="patch_126">
    <path d="M 118.755655 232.605271 
L 128.835463 232.605271 
L 128.835463 227.569982 
L 118.755655 227.569982 
z
" clip-path="url(#pea1847acad)" style="fill: #1f77b4; opacity: 0.196144"/>
   </g>
   <g id="patch_127">
    <path d="M 78.172974 232.605271 
L 79.904031 232.605271 
L 79.904031 227.569982 
L 78.172974 227.569982 
z
" clip-path="url(#pea1847acad)" style="fill: #1f77b4; opacity: 0.939573"/>
   </g>
  </g>
  <g id="axes_10">
   <g id="patch_128">
    <path d="M 19.328903 269.210968 
L 688.928903 269.210968 
L 688.928903 242.707708 
L 19.328903 242.707708 
z
" style="fill: #ffffff"/>
   </g>
   <g id="patch_129">
    <path d="M 20.133851 258.577803 
L 133.363235 258.577803 
L 133.363235 253.277152 
L 20.133851 253.277152 
z
" clip-path="url(#p95d6bd23a9)" style="fill: #ebeaea"/>
   </g>
   <g id="patch_130">
    <path d="M 142.217666 258.577803 
L 391.469126 258.577803 
L 391.469126 253.277152 
L 142.217666 253.277152 
z
" clip-path="url(#p95d6bd23a9)" style="fill: #ebeaea"/>
   </g>
   <g id="patch_131">
    <path d="M 20.133851 258.577803 
L 133.363235 258.577803 
L 133.363235 253.277152 
L 20.133851 253.277152 
L 20.133851 258.577803 
z
" clip-path="url(#p95d6bd23a9)" style="fill: none; stroke: #000000; stroke-width: 0.7; stroke-linejoin: miter"/>
   </g>
   <g id="patch_132">
    <path d="M 142.217666 258.577803 
L 391.469126 258.577803 
L 391.469126 253.277152 
L 142.217666 253.277152 
L 142.217666 258.577803 
z
" clip-path="url(#p95d6bd23a9)" style="fill: none; stroke: #000000; stroke-width: 0.7; stroke-linejoin: miter"/>
   </g>
   <g id="matplotlib.axis_19">
    <g id="xtick_46"/>
    <g id="xtick_47"/>
    <g id="xtick_48"/>
    <g id="xtick_49"/>
    <g id="xtick_50"/>
   </g>
   <g id="matplotlib.axis_20">
    <g id="ytick_19"/>
    <g id="ytick_20"/>
   </g>
   <g id="patch_133">
    <path d="M 133.363235 258.577803 
L 133.363235 253.277152 
L 142.217666 258.577803 
L 142.217666 253.277152 
z
" clip-path="url(#p95d6bd23a9)" style="fill: #777777; stroke: #777777; stroke-width: 0.64; stroke-linejoin: miter"/>
   </g>
   <g id="text_15">
    <!-- 9 -->
    <g style="fill: #262626" transform="translate(11.362721 257.742009) scale(0.07 -0.07)">
     <defs>
      <path id="Arial-BoldMT-39" d="M 291 1059 
L 1141 1153 
Q 1172 894 1303 769 
Q 1434 644 1650 644 
Q 1922 644 2112 894 
Q 2303 1144 2356 1931 
Q 2025 1547 1528 1547 
Q 988 1547 595 1964 
Q 203 2381 203 3050 
Q 203 3747 617 4173 
Q 1031 4600 1672 4600 
Q 2369 4600 2816 4061 
Q 3263 3522 3263 2288 
Q 3263 1031 2797 475 
Q 2331 -81 1584 -81 
Q 1047 -81 715 205 
Q 384 491 291 1059 
z
M 2278 2978 
Q 2278 3403 2083 3637 
Q 1888 3872 1631 3872 
Q 1388 3872 1227 3680 
Q 1066 3488 1066 3050 
Q 1066 2606 1241 2398 
Q 1416 2191 1678 2191 
Q 1931 2191 2104 2391 
Q 2278 2591 2278 2978 
z
" transform="scale(0.015625)"/>
     </defs>
     <use xlink:href="#Arial-BoldMT-39"/>
    </g>
   </g>
   <g id="patch_134">
    <path d="M 286.090758 259.10853 
L 321.882363 259.10853 
L 321.882363 254.073241 
L 286.090758 254.073241 
z
" clip-path="url(#p95d6bd23a9)" style="fill: #1f77b4; opacity: 0.928628"/>
   </g>
   <g id="patch_135">
    <path d="M 209.378543 259.10853 
L 223.196002 259.10853 
L 223.196002 254.073241 
L 209.378543 254.073241 
z
" clip-path="url(#p95d6bd23a9)" style="fill: #1f77b4; opacity: 0.22895"/>
   </g>
   <g id="patch_136">
    <path d="M 187.202055 259.10853 
L 188.195445 259.10853 
L 188.195445 254.073241 
L 187.202055 254.073241 
z
" clip-path="url(#p95d6bd23a9)" style="fill: #1f77b4; opacity: 0.777412"/>
   </g>
   <g id="patch_137">
    <path d="M 147.055638 259.10853 
L 151.467304 259.10853 
L 151.467304 254.073241 
L 147.055638 254.073241 
z
" clip-path="url(#p95d6bd23a9)" style="fill: #1f77b4; opacity: 0.843793"/>
   </g>
   <g id="patch_138">
    <path d="M 125.058069 259.10853 
L 129.107343 259.10853 
L 129.107343 254.073241 
L 125.058069 254.073241 
z
" clip-path="url(#p95d6bd23a9)" style="fill: #1f77b4; opacity: 0.629259"/>
   </g>
   <g id="patch_139">
    <path d="M 23.082293 259.10853 
L 28.822336 259.10853 
L 28.822336 254.073241 
L 23.082293 254.073241 
z
" clip-path="url(#p95d6bd23a9)" style="fill: #1f77b4; opacity: 0.09618"/>
   </g>
  </g>
  <g id="axes_11">
   <g id="patch_140">
    <path d="M 19.328903 295.714227 
L 688.928903 295.714227 
L 688.928903 269.210968 
L 19.328903 269.210968 
z
" style="fill: #ffffff"/>
   </g>
   <g id="patch_141">
    <path d="M 20.133851 285.081063 
L 122.09396 285.081063 
L 122.09396 279.780411 
L 20.133851 279.780411 
z
" clip-path="url(#p6dea476c9f)" style="fill: #ebeaea"/>
   </g>
   <g id="patch_142">
    <path d="M 131.753339 285.081063 
L 379.133844 285.081063 
L 379.133844 279.780411 
L 131.753339 279.780411 
z
" clip-path="url(#p6dea476c9f)" style="fill: #ebeaea"/>
   </g>
   <g id="patch_143">
    <path d="M 20.133851 285.081063 
L 122.09396 285.081063 
L 122.09396 279.780411 
L 20.133851 279.780411 
L 20.133851 285.081063 
z
" clip-path="url(#p6dea476c9f)" style="fill: none; stroke: #000000; stroke-width: 0.7; stroke-linejoin: miter"/>
   </g>
   <g id="patch_144">
    <path d="M 131.753339 285.081063 
L 379.133844 285.081063 
L 379.133844 279.780411 
L 131.753339 279.780411 
L 131.753339 285.081063 
z
" clip-path="url(#p6dea476c9f)" style="fill: none; stroke: #000000; stroke-width: 0.7; stroke-linejoin: miter"/>
   </g>
   <g id="matplotlib.axis_21">
    <g id="xtick_51"/>
    <g id="xtick_52"/>
    <g id="xtick_53"/>
    <g id="xtick_54"/>
    <g id="xtick_55"/>
   </g>
   <g id="matplotlib.axis_22">
    <g id="ytick_21"/>
    <g id="ytick_22"/>
   </g>
   <g id="patch_145">
    <path d="M 122.09396 285.081063 
L 122.09396 279.780411 
L 131.753339 285.081063 
L 131.753339 279.780411 
z
" clip-path="url(#p6dea476c9f)" style="fill: #777777; stroke: #777777; stroke-width: 0.64; stroke-linejoin: miter"/>
   </g>
   <g id="text_16">
    <!-- 10 -->
    <g style="fill: #262626" transform="translate(7.470064 284.245268) scale(0.07 -0.07)">
     <defs>
      <path id="Arial-BoldMT-30" d="M 1756 4600 
Q 2422 4600 2797 4125 
Q 3244 3563 3244 2259 
Q 3244 959 2794 391 
Q 2422 -78 1756 -78 
Q 1088 -78 678 436 
Q 269 950 269 2269 
Q 269 3563 719 4131 
Q 1091 4600 1756 4600 
z
M 1756 3872 
Q 1597 3872 1472 3770 
Q 1347 3669 1278 3406 
Q 1188 3066 1188 2259 
Q 1188 1453 1269 1151 
Q 1350 850 1473 750 
Q 1597 650 1756 650 
Q 1916 650 2041 751 
Q 2166 853 2234 1116 
Q 2325 1453 2325 2259 
Q 2325 3066 2244 3367 
Q 2163 3669 2039 3770 
Q 1916 3872 1756 3872 
z
" transform="scale(0.015625)"/>
     </defs>
     <use xlink:href="#Arial-BoldMT-31"/>
     <use xlink:href="#Arial-BoldMT-30" x="55.615234"/>
    </g>
   </g>
   <g id="patch_146">
    <path d="M 329.556307 285.611789 
L 362.335854 285.611789 
L 362.335854 280.576501 
L 329.556307 280.576501 
z
" clip-path="url(#p6dea476c9f)" style="fill: #1f77b4; opacity: 0.916137"/>
   </g>
   <g id="patch_147">
    <path d="M 268.79977 285.611789 
L 286.550861 285.611789 
L 286.550861 280.576501 
L 268.79977 280.576501 
z
" clip-path="url(#p6dea476c9f)" style="fill: #1f77b4; opacity: 0.023805"/>
   </g>
   <g id="patch_148">
    <path d="M 256.005443 285.611789 
L 263.652258 285.611789 
L 263.652258 280.576501 
L 256.005443 280.576501 
z
" clip-path="url(#p6dea476c9f)" style="fill: #1f77b4; opacity: 0.883735"/>
   </g>
   <g id="patch_149">
    <path d="M 239.744225 285.611789 
L 242.546131 285.611789 
L 242.546131 280.576501 
L 239.744225 280.576501 
z
" clip-path="url(#p6dea476c9f)" style="fill: #1f77b4; opacity: 0.024394"/>
   </g>
   <g id="patch_150">
    <path d="M 205.776614 285.611789 
L 224.089036 285.611789 
L 224.089036 280.576501 
L 205.776614 280.576501 
z
" clip-path="url(#p6dea476c9f)" style="fill: #1f77b4; opacity: 0.881016"/>
   </g>
   <g id="patch_151">
    <path d="M 65.326824 285.611789 
L 134.874754 285.611789 
L 134.874754 280.576501 
L 65.326824 280.576501 
z
" clip-path="url(#p6dea476c9f)" style="fill: #1f77b4; opacity: 0.427405"/>
   </g>
  </g>
  <g id="axes_12">
   <g id="patch_152">
    <path d="M 19.328903 322.217487 
L 688.928903 322.217487 
L 688.928903 295.714227 
L 19.328903 295.714227 
z
" style="fill: #ffffff"/>
   </g>
   <g id="patch_153">
    <path d="M 20.133851 311.584322 
L 156.97505 311.584322 
L 156.97505 306.28367 
L 20.133851 306.28367 
z
" clip-path="url(#p1007a06b5e)" style="fill: #ebeaea"/>
   </g>
   <g id="patch_154">
    <path d="M 169.854222 311.584322 
L 382.592975 311.584322 
L 382.592975 306.28367 
L 169.854222 306.28367 
z
" clip-path="url(#p1007a06b5e)" style="fill: #ebeaea"/>
   </g>
   <g id="patch_155">
    <path d="M 20.133851 311.584322 
L 156.97505 311.584322 
L 156.97505 306.28367 
L 20.133851 306.28367 
L 20.133851 311.584322 
z
" clip-path="url(#p1007a06b5e)" style="fill: none; stroke: #000000; stroke-width: 0.7; stroke-linejoin: miter"/>
   </g>
   <g id="patch_156">
    <path d="M 169.854222 311.584322 
L 382.592975 311.584322 
L 382.592975 306.28367 
L 169.854222 306.28367 
L 169.854222 311.584322 
z
" clip-path="url(#p1007a06b5e)" style="fill: none; stroke: #000000; stroke-width: 0.7; stroke-linejoin: miter"/>
   </g>
   <g id="matplotlib.axis_23">
    <g id="xtick_56"/>
    <g id="xtick_57"/>
    <g id="xtick_58"/>
    <g id="xtick_59"/>
    <g id="xtick_60"/>
   </g>
   <g id="matplotlib.axis_24">
    <g id="ytick_23"/>
    <g id="ytick_24"/>
   </g>
   <g id="patch_157">
    <path d="M 156.97505 311.584322 
L 156.97505 306.28367 
L 169.854222 311.584322 
L 169.854222 306.28367 
z
" clip-path="url(#p1007a06b5e)" style="fill: #777777; stroke: #777777; stroke-width: 0.64; stroke-linejoin: miter"/>
   </g>
   <g id="text_17">
    <!-- 11 -->
    <g style="fill: #262626" transform="translate(7.855064 310.748528) scale(0.07 -0.07)">
     <use xlink:href="#Arial-BoldMT-31"/>
     <use xlink:href="#Arial-BoldMT-31" x="50.115234"/>
    </g>
   </g>
   <g id="patch_158">
    <path d="M 308.554851 312.115049 
L 349.033994 312.115049 
L 349.033994 307.07976 
L 308.554851 307.07976 
z
" clip-path="url(#p1007a06b5e)" style="fill: #1f77b4; opacity: 0.540734"/>
   </g>
   <g id="patch_159">
    <path d="M 306.845683 312.115049 
L 307.500541 312.115049 
L 307.500541 307.07976 
L 306.845683 307.07976 
z
" clip-path="url(#p1007a06b5e)" style="fill: #1f77b4; opacity: 0.276696"/>
   </g>
   <g id="patch_160">
    <path d="M 302.746908 312.115049 
L 304.000953 312.115049 
L 304.000953 307.07976 
L 302.746908 307.07976 
z
" clip-path="url(#p1007a06b5e)" style="fill: #1f77b4; opacity: 0.364947"/>
   </g>
   <g id="patch_161">
    <path d="M 157.421418 312.115049 
L 170.496678 312.115049 
L 170.496678 307.07976 
L 157.421418 307.07976 
z
" clip-path="url(#p1007a06b5e)" style="fill: #1f77b4; opacity: 0.599113"/>
   </g>
   <g id="patch_162">
    <path d="M 68.641338 312.115049 
L 94.707008 312.115049 
L 94.707008 307.07976 
L 68.641338 307.07976 
z
" clip-path="url(#p1007a06b5e)" style="fill: #1f77b4; opacity: 0.261364"/>
   </g>
   <g id="patch_163">
    <path d="M 59.022526 312.115049 
L 64.968185 312.115049 
L 64.968185 307.07976 
L 59.022526 307.07976 
z
" clip-path="url(#p1007a06b5e)" style="fill: #1f77b4; opacity: 0.21596"/>
   </g>
  </g>
  <g id="axes_13">
   <g id="patch_164">
    <path d="M 19.328903 348.720746 
L 688.928903 348.720746 
L 688.928903 322.217487 
L 19.328903 322.217487 
z
" style="fill: #ffffff"/>
   </g>
   <g id="patch_165">
    <path d="M 20.133851 338.087582 
L 109.214788 338.087582 
L 109.214788 332.78693 
L 20.133851 332.78693 
z
" clip-path="url(#pae13ed5a11)" style="fill: #ebeaea"/>
   </g>
   <g id="patch_166">
    <path d="M 121.557328 338.087582 
L 377.732931 338.087582 
L 377.732931 332.78693 
L 121.557328 332.78693 
z
" clip-path="url(#pae13ed5a11)" style="fill: #ebeaea"/>
   </g>
   <g id="patch_167">
    <path d="M 20.133851 338.087582 
L 109.214788 338.087582 
L 109.214788 332.78693 
L 20.133851 332.78693 
L 20.133851 338.087582 
z
" clip-path="url(#pae13ed5a11)" style="fill: none; stroke: #000000; stroke-width: 0.7; stroke-linejoin: miter"/>
   </g>
   <g id="patch_168">
    <path d="M 121.557328 338.087582 
L 377.732931 338.087582 
L 377.732931 332.78693 
L 121.557328 332.78693 
L 121.557328 338.087582 
z
" clip-path="url(#pae13ed5a11)" style="fill: none; stroke: #000000; stroke-width: 0.7; stroke-linejoin: miter"/>
   </g>
   <g id="matplotlib.axis_25">
    <g id="xtick_61"/>
    <g id="xtick_62"/>
    <g id="xtick_63"/>
    <g id="xtick_64"/>
    <g id="xtick_65"/>
   </g>
   <g id="matplotlib.axis_26">
    <g id="ytick_25"/>
    <g id="ytick_26"/>
   </g>
   <g id="patch_169">
    <path d="M 109.214788 338.087582 
L 109.214788 332.78693 
L 121.557328 338.087582 
L 121.557328 332.78693 
z
" clip-path="url(#pae13ed5a11)" style="fill: #777777; stroke: #777777; stroke-width: 0.64; stroke-linejoin: miter"/>
   </g>
   <g id="text_18">
    <!-- 12 -->
    <g style="fill: #262626" transform="translate(7.470064 337.251787) scale(0.07 -0.07)">
     <use xlink:href="#Arial-BoldMT-31"/>
     <use xlink:href="#Arial-BoldMT-32" x="55.615234"/>
    </g>
   </g>
   <g id="patch_170">
    <path d="M 224.248351 338.618308 
L 236.472403 338.618308 
L 236.472403 333.58302 
L 224.248351 333.58302 
z
" clip-path="url(#pae13ed5a11)" style="fill: #1f77b4; opacity: 0.037853"/>
   </g>
   <g id="patch_171">
    <path d="M 178.81581 338.618308 
L 213.385127 338.618308 
L 213.385127 333.58302 
L 178.81581 333.58302 
z
" clip-path="url(#pae13ed5a11)" style="fill: #1f77b4; opacity: 0.280351"/>
   </g>
   <g id="patch_172">
    <path d="M 78.583731 338.618308 
L 142.596603 338.618308 
L 142.596603 333.58302 
L 78.583731 333.58302 
z
" clip-path="url(#pae13ed5a11)" style="fill: #1f77b4; opacity: 0.793554"/>
   </g>
   <g id="patch_173">
    <path d="M 59.722082 338.618308 
L 74.608548 338.618308 
L 74.608548 333.58302 
L 59.722082 333.58302 
z
" clip-path="url(#pae13ed5a11)" style="fill: #1f77b4; opacity: 0.36415"/>
   </g>
   <g id="patch_174">
    <path d="M 56.405666 338.618308 
L 57.2719 338.618308 
L 57.2719 333.58302 
L 56.405666 333.58302 
z
" clip-path="url(#pae13ed5a11)" style="fill: #1f77b4; opacity: 0.725478"/>
   </g>
   <g id="patch_175">
    <path d="M 20.217861 338.618308 
L 39.067784 338.618308 
L 39.067784 333.58302 
L 20.217861 333.58302 
z
" clip-path="url(#pae13ed5a11)" style="fill: #1f77b4; opacity: 0.180673"/>
   </g>
  </g>
  <g id="axes_14">
   <g id="patch_176">
    <path d="M 19.328903 375.224005 
L 688.928903 375.224005 
L 688.928903 348.720746 
L 19.328903 348.720746 
z
" style="fill: #ffffff"/>
   </g>
   <g id="patch_177">
    <path d="M 20.133851 364.590841 
L 64.406004 364.590841 
L 64.406004 359.290189 
L 20.133851 359.290189 
z
" clip-path="url(#p901feb0511)" style="fill: #ebeaea"/>
   </g>
   <g id="patch_178">
    <path d="M 70.845589 364.590841 
L 326.991729 364.590841 
L 326.991729 359.290189 
L 70.845589 359.290189 
z
" clip-path="url(#p901feb0511)" style="fill: #ebeaea"/>
   </g>
   <g id="patch_179">
    <path d="M 20.133851 364.590841 
L 64.406004 364.590841 
L 64.406004 359.290189 
L 20.133851 359.290189 
L 20.133851 364.590841 
z
" clip-path="url(#p901feb0511)" style="fill: none; stroke: #000000; stroke-width: 0.7; stroke-linejoin: miter"/>
   </g>
   <g id="patch_180">
    <path d="M 70.845589 364.590841 
L 326.991729 364.590841 
L 326.991729 359.290189 
L 70.845589 359.290189 
L 70.845589 364.590841 
z
" clip-path="url(#p901feb0511)" style="fill: none; stroke: #000000; stroke-width: 0.7; stroke-linejoin: miter"/>
   </g>
   <g id="matplotlib.axis_27">
    <g id="xtick_66"/>
    <g id="xtick_67"/>
    <g id="xtick_68"/>
    <g id="xtick_69"/>
    <g id="xtick_70"/>
   </g>
   <g id="matplotlib.axis_28">
    <g id="ytick_27"/>
    <g id="ytick_28"/>
   </g>
   <g id="patch_181">
    <path d="M 64.406004 364.590841 
L 64.406004 359.290189 
L 70.845589 364.590841 
L 70.845589 359.290189 
z
" clip-path="url(#p901feb0511)" style="fill: #777777; stroke: #777777; stroke-width: 0.64; stroke-linejoin: miter"/>
   </g>
   <g id="text_19">
    <!-- 13 -->
    <g style="fill: #262626" transform="translate(7.470064 363.755047) scale(0.07 -0.07)">
     <use xlink:href="#Arial-BoldMT-31"/>
     <use xlink:href="#Arial-BoldMT-33" x="55.615234"/>
    </g>
   </g>
   <g id="patch_182">
    <path d="M 240.889349 365.121568 
L 241.545444 365.121568 
L 241.545444 360.086279 
L 240.889349 360.086279 
z
" clip-path="url(#p901feb0511)" style="fill: #1f77b4; opacity: 0.120114"/>
   </g>
   <g id="patch_183">
    <path d="M 151.079869 365.121568 
L 155.624481 365.121568 
L 155.624481 360.086279 
L 151.079869 360.086279 
z
" clip-path="url(#p901feb0511)" style="fill: #1f77b4; opacity: 0.686706"/>
   </g>
   <g id="patch_184">
    <path d="M 110.978865 365.121568 
L 145.238462 365.121568 
L 145.238462 360.086279 
L 110.978865 360.086279 
z
" clip-path="url(#p901feb0511)" style="fill: #1f77b4; opacity: 0.613695"/>
   </g>
   <g id="patch_185">
    <path d="M 73.631 365.121568 
L 95.023379 365.121568 
L 95.023379 360.086279 
L 73.631 360.086279 
z
" clip-path="url(#p901feb0511)" style="fill: #1f77b4; opacity: 0.771877"/>
   </g>
   <g id="patch_186">
    <path d="M 29.317428 365.121568 
L 45.456438 365.121568 
L 45.456438 360.086279 
L 29.317428 360.086279 
z
" clip-path="url(#p901feb0511)" style="fill: #1f77b4; opacity: 0.793528"/>
   </g>
  </g>
  <g id="axes_15">
   <g id="patch_187">
    <path d="M 19.328903 401.727265 
L 688.928903 401.727265 
L 688.928903 375.224005 
L 19.328903 375.224005 
z
" style="fill: #ffffff"/>
   </g>
   <g id="patch_188">
    <path d="M 20.133851 391.094101 
L 63.332739 391.094101 
L 63.332739 385.793449 
L 20.133851 385.793449 
z
" clip-path="url(#pf98abe4805)" style="fill: #ebeaea"/>
   </g>
   <g id="patch_189">
    <path d="M 68.967377 391.094101 
L 307.349355 391.094101 
L 307.349355 385.793449 
L 68.967377 385.793449 
z
" clip-path="url(#pf98abe4805)" style="fill: #ebeaea"/>
   </g>
   <g id="patch_190">
    <path d="M 20.133851 391.094101 
L 63.332739 391.094101 
L 63.332739 385.793449 
L 20.133851 385.793449 
L 20.133851 391.094101 
z
" clip-path="url(#pf98abe4805)" style="fill: none; stroke: #000000; stroke-width: 0.7; stroke-linejoin: miter"/>
   </g>
   <g id="patch_191">
    <path d="M 68.967377 391.094101 
L 307.349355 391.094101 
L 307.349355 385.793449 
L 68.967377 385.793449 
L 68.967377 391.094101 
z
" clip-path="url(#pf98abe4805)" style="fill: none; stroke: #000000; stroke-width: 0.7; stroke-linejoin: miter"/>
   </g>
   <g id="matplotlib.axis_29">
    <g id="xtick_71"/>
    <g id="xtick_72"/>
    <g id="xtick_73"/>
    <g id="xtick_74"/>
    <g id="xtick_75"/>
   </g>
   <g id="matplotlib.axis_30">
    <g id="ytick_29"/>
    <g id="ytick_30"/>
   </g>
   <g id="patch_192">
    <path d="M 63.332739 391.094101 
L 63.332739 385.793449 
L 68.967377 391.094101 
L 68.967377 385.793449 
z
" clip-path="url(#pf98abe4805)" style="fill: #777777; stroke: #777777; stroke-width: 0.64; stroke-linejoin: miter"/>
   </g>
   <g id="text_20">
    <!-- 14 -->
    <g style="fill: #262626" transform="translate(7.470064 390.258306) scale(0.07 -0.07)">
     <use xlink:href="#Arial-BoldMT-31"/>
     <use xlink:href="#Arial-BoldMT-34" x="55.615234"/>
    </g>
   </g>
   <g id="patch_193">
    <path d="M 195.900696 391.624827 
L 237.031294 391.624827 
L 237.031294 386.589539 
L 195.900696 386.589539 
z
" clip-path="url(#pf98abe4805)" style="fill: #1f77b4; opacity: 0.193556"/>
   </g>
   <g id="patch_194">
    <path d="M 193.137454 391.624827 
L 194.376132 391.624827 
L 194.376132 386.589539 
L 193.137454 386.589539 
z
" clip-path="url(#pf98abe4805)" style="fill: #1f77b4; opacity: 0.682494"/>
   </g>
   <g id="patch_195">
    <path d="M 187.949581 391.624827 
L 190.888946 391.624827 
L 190.888946 386.589539 
L 187.949581 386.589539 
z
" clip-path="url(#pf98abe4805)" style="fill: #1f77b4; opacity: 0.327998"/>
   </g>
   <g id="patch_196">
    <path d="M 132.44052 391.624827 
L 151.279207 391.624827 
L 151.279207 386.589539 
L 132.44052 386.589539 
z
" clip-path="url(#pf98abe4805)" style="fill: #1f77b4; opacity: 0.333156"/>
   </g>
   <g id="patch_197">
    <path d="M 61.67585 391.624827 
L 64.372746 391.624827 
L 64.372746 386.589539 
L 61.67585 386.589539 
z
" clip-path="url(#pf98abe4805)" style="fill: #1f77b4; opacity: 0.438373"/>
   </g>
  </g>
  <g id="axes_16">
   <g id="patch_198">
    <path d="M 19.328903 428.230524 
L 688.928903 428.230524 
L 688.928903 401.727265 
L 19.328903 401.727265 
z
" style="fill: #ffffff"/>
   </g>
   <g id="patch_199">
    <path d="M 20.133851 417.59736 
L 67.089164 417.59736 
L 67.089164 412.296708 
L 20.133851 412.296708 
z
" clip-path="url(#paa9850bed7)" style="fill: #ebeaea"/>
   </g>
   <g id="patch_200">
    <path d="M 75.138647 417.59736 
L 293.792608 417.59736 
L 293.792608 412.296708 
L 75.138647 412.296708 
z
" clip-path="url(#paa9850bed7)" style="fill: #ebeaea"/>
   </g>
   <g id="patch_201">
    <path d="M 20.133851 417.59736 
L 67.089164 417.59736 
L 67.089164 412.296708 
L 20.133851 412.296708 
L 20.133851 417.59736 
z
" clip-path="url(#paa9850bed7)" style="fill: none; stroke: #000000; stroke-width: 0.7; stroke-linejoin: miter"/>
   </g>
   <g id="patch_202">
    <path d="M 75.138647 417.59736 
L 293.792608 417.59736 
L 293.792608 412.296708 
L 75.138647 412.296708 
L 75.138647 417.59736 
z
" clip-path="url(#paa9850bed7)" style="fill: none; stroke: #000000; stroke-width: 0.7; stroke-linejoin: miter"/>
   </g>
   <g id="matplotlib.axis_31">
    <g id="xtick_76"/>
    <g id="xtick_77"/>
    <g id="xtick_78"/>
    <g id="xtick_79"/>
    <g id="xtick_80"/>
   </g>
   <g id="matplotlib.axis_32">
    <g id="ytick_31"/>
    <g id="ytick_32"/>
   </g>
   <g id="patch_203">
    <path d="M 67.089164 417.59736 
L 67.089164 412.296708 
L 75.138647 417.59736 
L 75.138647 412.296708 
z
" clip-path="url(#paa9850bed7)" style="fill: #777777; stroke: #777777; stroke-width: 0.64; stroke-linejoin: miter"/>
   </g>
   <g id="text_21">
    <!-- 15 -->
    <g style="fill: #262626" transform="translate(7.470064 416.761565) scale(0.07 -0.07)">
     <use xlink:href="#Arial-BoldMT-31"/>
     <use xlink:href="#Arial-BoldMT-35" x="55.615234"/>
    </g>
   </g>
   <g id="patch_204">
    <path d="M 286.754865 418.128087 
L 290.112226 418.128087 
L 290.112226 413.092798 
L 286.754865 413.092798 
z
" clip-path="url(#paa9850bed7)" style="fill: #1f77b4; opacity: 0.484754"/>
   </g>
   <g id="patch_205">
    <path d="M 192.498888 418.128087 
L 269.362692 418.128087 
L 269.362692 413.092798 
L 192.498888 413.092798 
z
" clip-path="url(#paa9850bed7)" style="fill: #1f77b4; opacity: 0.644558"/>
   </g>
   <g id="patch_206">
    <path d="M 115.480151 418.128087 
L 143.52652 418.128087 
L 143.52652 413.092798 
L 115.480151 413.092798 
z
" clip-path="url(#paa9850bed7)" style="fill: #1f77b4; opacity: 0.782629"/>
   </g>
   <g id="patch_207">
    <path d="M 72.034557 418.128087 
L 78.272372 418.128087 
L 78.272372 413.092798 
L 72.034557 413.092798 
z
" clip-path="url(#paa9850bed7)" style="fill: #1f77b4; opacity: 0.613799"/>
   </g>
   <g id="patch_208">
    <path d="M 51.0633 418.128087 
L 56.934445 418.128087 
L 56.934445 413.092798 
L 51.0633 413.092798 
z
" clip-path="url(#paa9850bed7)" style="fill: #1f77b4; opacity: 0.901286"/>
   </g>
  </g>
  <g id="axes_17">
   <g id="patch_209">
    <path d="M 19.328903 454.733784 
L 688.928903 454.733784 
L 688.928903 428.230524 
L 19.328903 428.230524 
z
" style="fill: #ffffff"/>
   </g>
   <g id="patch_210">
    <path d="M 20.133851 444.10062 
L 114.849426 444.10062 
L 114.849426 438.799968 
L 20.133851 438.799968 
z
" clip-path="url(#p243e44ddb0)" style="fill: #ebeaea"/>
   </g>
   <g id="patch_211">
    <path d="M 123.167224 444.10062 
L 262.526154 444.10062 
L 262.526154 438.799968 
L 123.167224 438.799968 
z
" clip-path="url(#p243e44ddb0)" style="fill: #ebeaea"/>
   </g>
   <g id="patch_212">
    <path d="M 20.133851 444.10062 
L 114.849426 444.10062 
L 114.849426 438.799968 
L 20.133851 438.799968 
L 20.133851 444.10062 
z
" clip-path="url(#p243e44ddb0)" style="fill: none; stroke: #000000; stroke-width: 0.7; stroke-linejoin: miter"/>
   </g>
   <g id="patch_213">
    <path d="M 123.167224 444.10062 
L 262.526154 444.10062 
L 262.526154 438.799968 
L 123.167224 438.799968 
L 123.167224 444.10062 
z
" clip-path="url(#p243e44ddb0)" style="fill: none; stroke: #000000; stroke-width: 0.7; stroke-linejoin: miter"/>
   </g>
   <g id="matplotlib.axis_33">
    <g id="xtick_81"/>
    <g id="xtick_82"/>
    <g id="xtick_83"/>
    <g id="xtick_84"/>
    <g id="xtick_85"/>
   </g>
   <g id="matplotlib.axis_34">
    <g id="ytick_33"/>
    <g id="ytick_34"/>
   </g>
   <g id="patch_214">
    <path d="M 114.849426 444.10062 
L 114.849426 438.799968 
L 123.167224 444.10062 
L 123.167224 438.799968 
z
" clip-path="url(#p243e44ddb0)" style="fill: #777777; stroke: #777777; stroke-width: 0.64; stroke-linejoin: miter"/>
   </g>
   <g id="text_22">
    <!-- 16 -->
    <g style="fill: #262626" transform="translate(7.470064 443.264825) scale(0.07 -0.07)">
     <use xlink:href="#Arial-BoldMT-31"/>
     <use xlink:href="#Arial-BoldMT-36" x="55.615234"/>
    </g>
   </g>
   <g id="patch_215">
    <path d="M 210.052394 444.631346 
L 210.642309 444.631346 
L 210.642309 439.596058 
L 210.052394 439.596058 
z
" clip-path="url(#p243e44ddb0)" style="fill: #1f77b4; opacity: 0.967923"/>
   </g>
   <g id="patch_216">
    <path d="M 150.410947 444.631346 
L 206.080235 444.631346 
L 206.080235 439.596058 
L 150.410947 439.596058 
z
" clip-path="url(#p243e44ddb0)" style="fill: #1f77b4; opacity: 0.391175"/>
   </g>
   <g id="patch_217">
    <path d="M 72.92949 444.631346 
L 94.037465 444.631346 
L 94.037465 439.596058 
L 72.92949 439.596058 
z
" clip-path="url(#p243e44ddb0)" style="fill: #1f77b4; opacity: 0.885147"/>
   </g>
   <g id="patch_218">
    <path d="M 28.45126 444.631346 
L 29.8726 444.631346 
L 29.8726 439.596058 
L 28.45126 439.596058 
z
" clip-path="url(#p243e44ddb0)" style="fill: #1f77b4; opacity: 0.325785"/>
   </g>
  </g>
  <g id="axes_18">
   <g id="patch_219">
    <path d="M 19.328903 481.237043 
L 688.928903 481.237043 
L 688.928903 454.733784 
L 19.328903 454.733784 
z
" style="fill: #ffffff"/>
   </g>
   <g id="patch_220">
    <path d="M 20.133851 470.603879 
L 81.0416 470.603879 
L 81.0416 465.303227 
L 20.133851 465.303227 
z
" clip-path="url(#p21c3e62eb2)" style="fill: #ebeaea"/>
   </g>
   <g id="patch_221">
    <path d="M 93.652456 470.603879 
L 243.52695 470.603879 
L 243.52695 465.303227 
L 93.652456 465.303227 
z
" clip-path="url(#p21c3e62eb2)" style="fill: #ebeaea"/>
   </g>
   <g id="patch_222">
    <path d="M 20.133851 470.603879 
L 81.0416 470.603879 
L 81.0416 465.303227 
L 20.133851 465.303227 
L 20.133851 470.603879 
z
" clip-path="url(#p21c3e62eb2)" style="fill: none; stroke: #000000; stroke-width: 0.7; stroke-linejoin: miter"/>
   </g>
   <g id="patch_223">
    <path d="M 93.652456 470.603879 
L 243.52695 470.603879 
L 243.52695 465.303227 
L 93.652456 465.303227 
L 93.652456 470.603879 
z
" clip-path="url(#p21c3e62eb2)" style="fill: none; stroke: #000000; stroke-width: 0.7; stroke-linejoin: miter"/>
   </g>
   <g id="matplotlib.axis_35">
    <g id="xtick_86"/>
    <g id="xtick_87"/>
    <g id="xtick_88"/>
    <g id="xtick_89"/>
    <g id="xtick_90"/>
   </g>
   <g id="matplotlib.axis_36">
    <g id="ytick_35"/>
    <g id="ytick_36"/>
   </g>
   <g id="patch_224">
    <path d="M 81.0416 470.603879 
L 81.0416 465.303227 
L 93.652456 470.603879 
L 93.652456 465.303227 
z
" clip-path="url(#p21c3e62eb2)" style="fill: #777777; stroke: #777777; stroke-width: 0.64; stroke-linejoin: miter"/>
   </g>
   <g id="text_23">
    <!-- 17 -->
    <g style="fill: #262626" transform="translate(7.470064 469.768084) scale(0.07 -0.07)">
     <use xlink:href="#Arial-BoldMT-31"/>
     <use xlink:href="#Arial-BoldMT-37" x="55.615234"/>
    </g>
   </g>
   <g id="patch_225">
    <path d="M 152.192616 471.134606 
L 206.822939 471.134606 
L 206.822939 466.099317 
L 152.192616 466.099317 
z
" clip-path="url(#p21c3e62eb2)" style="fill: #1f77b4; opacity: 0.385052"/>
   </g>
   <g id="patch_226">
    <path d="M 127.484215 471.134606 
L 148.229907 471.134606 
L 148.229907 466.099317 
L 127.484215 466.099317 
z
" clip-path="url(#p21c3e62eb2)" style="fill: #1f77b4; opacity: 0.566527"/>
   </g>
   <g id="patch_227">
    <path d="M 100.367702 471.134606 
L 114.168676 471.134606 
L 114.168676 466.099317 
L 100.367702 466.099317 
z
" clip-path="url(#p21c3e62eb2)" style="fill: #1f77b4; opacity: 0.660063"/>
   </g>
   <g id="patch_228">
    <path d="M 52.909274 471.134606 
L 80.290321 471.134606 
L 80.290321 466.099317 
L 52.909274 466.099317 
z
" clip-path="url(#p21c3e62eb2)" style="fill: #1f77b4; opacity: 0.562842"/>
   </g>
  </g>
  <g id="axes_19">
   <g id="patch_229">
    <path d="M 19.328903 507.740303 
L 688.928903 507.740303 
L 688.928903 481.237043 
L 19.328903 481.237043 
z
" style="fill: #ffffff"/>
   </g>
   <g id="patch_230">
    <path d="M 20.133851 497.107139 
L 61.454527 497.107139 
L 61.454527 491.806487 
L 20.133851 491.806487 
z
" clip-path="url(#p9209afa7c9)" style="fill: #ebeaea"/>
   </g>
   <g id="patch_231">
    <path d="M 77.821807 497.107139 
L 235.788296 497.107139 
L 235.788296 491.806487 
L 77.821807 491.806487 
z
" clip-path="url(#p9209afa7c9)" style="fill: #ebeaea"/>
   </g>
   <g id="patch_232">
    <path d="M 20.133851 497.107139 
L 61.454527 497.107139 
L 61.454527 491.806487 
L 20.133851 491.806487 
L 20.133851 497.107139 
z
" clip-path="url(#p9209afa7c9)" style="fill: none; stroke: #000000; stroke-width: 0.7; stroke-linejoin: miter"/>
   </g>
   <g id="patch_233">
    <path d="M 77.821807 497.107139 
L 235.788296 497.107139 
L 235.788296 491.806487 
L 77.821807 491.806487 
L 77.821807 497.107139 
z
" clip-path="url(#p9209afa7c9)" style="fill: none; stroke: #000000; stroke-width: 0.7; stroke-linejoin: miter"/>
   </g>
   <g id="matplotlib.axis_37">
    <g id="xtick_91"/>
    <g id="xtick_92"/>
    <g id="xtick_93"/>
    <g id="xtick_94"/>
    <g id="xtick_95"/>
   </g>
   <g id="matplotlib.axis_38">
    <g id="ytick_37"/>
    <g id="ytick_38"/>
   </g>
   <g id="patch_234">
    <path d="M 61.454527 497.107139 
L 61.454527 491.806487 
L 77.821807 497.107139 
L 77.821807 491.806487 
z
" clip-path="url(#p9209afa7c9)" style="fill: #777777; stroke: #777777; stroke-width: 0.64; stroke-linejoin: miter"/>
   </g>
   <g id="text_24">
    <!-- 18 -->
    <g style="fill: #262626" transform="translate(7.470064 496.271344) scale(0.07 -0.07)">
     <use xlink:href="#Arial-BoldMT-31"/>
     <use xlink:href="#Arial-BoldMT-38" x="55.615234"/>
    </g>
   </g>
   <g id="patch_235">
    <path d="M 211.935147 497.637865 
L 215.167194 497.637865 
L 215.167194 492.602576 
L 211.935147 492.602576 
z
" clip-path="url(#p9209afa7c9)" style="fill: #1f77b4; opacity: 0.404819"/>
   </g>
   <g id="patch_236">
    <path d="M 164.431406 497.637865 
L 201.168994 497.637865 
L 201.168994 492.602576 
L 164.431406 492.602576 
z
" clip-path="url(#p9209afa7c9)" style="fill: #1f77b4; opacity: 0.280236"/>
   </g>
   <g id="patch_237">
    <path d="M 106.343992 497.637865 
L 138.855359 497.637865 
L 138.855359 492.602576 
L 106.343992 492.602576 
z
" clip-path="url(#p9209afa7c9)" style="fill: #1f77b4; opacity: 0.94979"/>
   </g>
   <g id="patch_238">
    <path d="M 90.411348 497.637865 
L 100.457343 497.637865 
L 100.457343 492.602576 
L 90.411348 492.602576 
z
" clip-path="url(#p9209afa7c9)" style="fill: #1f77b4; opacity: 0.59559"/>
   </g>
  </g>
  <g id="axes_20">
   <g id="patch_239">
    <path d="M 19.328903 534.243562 
L 688.928903 534.243562 
L 688.928903 507.740303 
L 19.328903 507.740303 
z
" style="fill: #ffffff"/>
   </g>
   <g id="patch_240">
    <path d="M 20.133851 523.610398 
L 85.066342 523.610398 
L 85.066342 518.309746 
L 20.133851 518.309746 
z
" clip-path="url(#p3bc3e365b9)" style="fill: #ebeaea"/>
   </g>
   <g id="patch_241">
    <path d="M 95.530669 523.610398 
L 177.414338 523.610398 
L 177.414338 518.309746 
L 95.530669 518.309746 
z
" clip-path="url(#p3bc3e365b9)" style="fill: #ebeaea"/>
   </g>
   <g id="patch_242">
    <path d="M 20.133851 523.610398 
L 85.066342 523.610398 
L 85.066342 518.309746 
L 20.133851 518.309746 
L 20.133851 523.610398 
z
" clip-path="url(#p3bc3e365b9)" style="fill: none; stroke: #000000; stroke-width: 0.7; stroke-linejoin: miter"/>
   </g>
   <g id="patch_243">
    <path d="M 95.530669 523.610398 
L 177.414338 523.610398 
L 177.414338 518.309746 
L 95.530669 518.309746 
L 95.530669 523.610398 
z
" clip-path="url(#p3bc3e365b9)" style="fill: none; stroke: #000000; stroke-width: 0.7; stroke-linejoin: miter"/>
   </g>
   <g id="matplotlib.axis_39">
    <g id="xtick_96"/>
    <g id="xtick_97"/>
    <g id="xtick_98"/>
    <g id="xtick_99"/>
    <g id="xtick_100"/>
   </g>
   <g id="matplotlib.axis_40">
    <g id="ytick_39"/>
    <g id="ytick_40"/>
   </g>
   <g id="patch_244">
    <path d="M 85.066342 523.610398 
L 85.066342 518.309746 
L 95.530669 523.610398 
L 95.530669 518.309746 
z
" clip-path="url(#p3bc3e365b9)" style="fill: #777777; stroke: #777777; stroke-width: 0.64; stroke-linejoin: miter"/>
   </g>
   <g id="text_25">
    <!-- 19 -->
    <g style="fill: #262626" transform="translate(7.470064 522.774603) scale(0.07 -0.07)">
     <use xlink:href="#Arial-BoldMT-31"/>
     <use xlink:href="#Arial-BoldMT-39" x="55.615234"/>
    </g>
   </g>
   <g id="patch_245">
    <path d="M 113.341881 524.141125 
L 153.358249 524.141125 
L 153.358249 519.105836 
L 113.341881 519.105836 
z
" clip-path="url(#p3bc3e365b9)" style="fill: #1f77b4; opacity: 0.556847"/>
   </g>
   <g id="patch_246">
    <path d="M 56.131855 524.141125 
L 60.96144 524.141125 
L 60.96144 519.105836 
L 56.131855 519.105836 
z
" clip-path="url(#p3bc3e365b9)" style="fill: #1f77b4; opacity: 0.069156"/>
   </g>
  </g>
  <g id="axes_21">
   <g id="patch_247">
    <path d="M 19.328903 560.746822 
L 688.928903 560.746822 
L 688.928903 534.243562 
L 19.328903 534.243562 
z
" style="fill: #ffffff"/>
   </g>
   <g id="patch_248">
    <path d="M 20.133851 550.113657 
L 89.091083 550.113657 
L 89.091083 544.813006 
L 20.133851 544.813006 
z
" clip-path="url(#pf7df06b006)" style="fill: #ebeaea"/>
   </g>
   <g id="patch_249">
    <path d="M 101.701938 550.113657 
L 193.047911 550.113657 
L 193.047911 544.813006 
L 101.701938 544.813006 
z
" clip-path="url(#pf7df06b006)" style="fill: #ebeaea"/>
   </g>
   <g id="patch_250">
    <path d="M 20.133851 550.113657 
L 89.091083 550.113657 
L 89.091083 544.813006 
L 20.133851 544.813006 
L 20.133851 550.113657 
z
" clip-path="url(#pf7df06b006)" style="fill: none; stroke: #000000; stroke-width: 0.7; stroke-linejoin: miter"/>
   </g>
   <g id="patch_251">
    <path d="M 101.701938 550.113657 
L 193.047911 550.113657 
L 193.047911 544.813006 
L 101.701938 544.813006 
L 101.701938 550.113657 
z
" clip-path="url(#pf7df06b006)" style="fill: none; stroke: #000000; stroke-width: 0.7; stroke-linejoin: miter"/>
   </g>
   <g id="matplotlib.axis_41">
    <g id="xtick_101"/>
    <g id="xtick_102"/>
    <g id="xtick_103"/>
    <g id="xtick_104"/>
    <g id="xtick_105"/>
   </g>
   <g id="matplotlib.axis_42">
    <g id="ytick_41"/>
    <g id="ytick_42"/>
   </g>
   <g id="patch_252">
    <path d="M 89.091083 550.113657 
L 89.091083 544.813006 
L 101.701938 550.113657 
L 101.701938 544.813006 
z
" clip-path="url(#pf7df06b006)" style="fill: #777777; stroke: #777777; stroke-width: 0.64; stroke-linejoin: miter"/>
   </g>
   <g id="text_26">
    <!-- 20 -->
    <g style="fill: #262626" transform="translate(7.470064 549.277863) scale(0.07 -0.07)">
     <use xlink:href="#Arial-BoldMT-32"/>
     <use xlink:href="#Arial-BoldMT-30" x="55.615234"/>
    </g>
   </g>
   <g id="patch_253">
    <path d="M 151.761258 550.644384 
L 162.40486 550.644384 
L 162.40486 545.609095 
L 151.761258 545.609095 
z
" clip-path="url(#pf7df06b006)" style="fill: #1f77b4; opacity: 0.85672"/>
   </g>
   <g id="patch_254">
    <path d="M 84.157818 550.644384 
L 108.866055 550.644384 
L 108.866055 545.609095 
L 84.157818 545.609095 
z
" clip-path="url(#pf7df06b006)" style="fill: #1f77b4; opacity: 0.177839"/>
   </g>
   <g id="patch_255">
    <path d="M 24.895992 550.644384 
L 25.620443 550.644384 
L 25.620443 545.609095 
L 24.895992 545.609095 
z
" clip-path="url(#pf7df06b006)" style="fill: #1f77b4; opacity: 0.860773"/>
   </g>
  </g>
  <g id="axes_22">
   <g id="patch_256">
    <path d="M 19.328903 587.250081 
L 260.384903 587.250081 
L 260.384903 560.746822 
L 19.328903 560.746822 
z
" style="fill: #ffffff"/>
   </g>
   <g id="patch_257">
    <path d="M 19.781075 576.599063 
L 36.209986 576.599063 
L 36.209986 571.298411 
L 19.781075 571.298411 
z
" clip-path="url(#pfc813dc112)" style="fill: #ebeaea"/>
   </g>
   <g id="patch_258">
    <path d="M 39.375189 576.599063 
L 90.184208 576.599063 
L 90.184208 571.298411 
L 39.375189 571.298411 
z
" clip-path="url(#pfc813dc112)" style="fill: #ebeaea"/>
   </g>
   <g id="patch_259">
    <path d="M 19.781075 576.599063 
L 36.209986 576.599063 
L 36.209986 571.298411 
L 19.781075 571.298411 
L 19.781075 576.599063 
z
" clip-path="url(#pfc813dc112)" style="fill: none; stroke: #000000; stroke-width: 0.7; stroke-linejoin: miter"/>
   </g>
   <g id="patch_260">
    <path d="M 39.375189 576.599063 
L 90.184208 576.599063 
L 90.184208 571.298411 
L 39.375189 571.298411 
L 39.375189 576.599063 
z
" clip-path="url(#pfc813dc112)" style="fill: none; stroke: #000000; stroke-width: 0.7; stroke-linejoin: miter"/>
   </g>
   <g id="matplotlib.axis_43">
    <g id="xtick_106"/>
    <g id="xtick_107"/>
    <g id="xtick_108"/>
    <g id="xtick_109"/>
    <g id="xtick_110"/>
    <g id="xtick_111"/>
    <g id="xtick_112"/>
    <g id="xtick_113"/>
   </g>
   <g id="matplotlib.axis_44">
    <g id="ytick_43"/>
    <g id="ytick_44"/>
   </g>
   <g id="patch_261">
    <path d="M 36.209986 576.599063 
L 36.209986 571.298411 
L 39.375189 576.599063 
L 39.375189 571.298411 
z
" clip-path="url(#pfc813dc112)" style="fill: #777777; stroke: #777777; stroke-width: 0.64; stroke-linejoin: miter"/>
   </g>
   <g id="text_27">
    <!-- 21 -->
    <g style="fill: #262626" transform="translate(7.2 575.763268) scale(0.07 -0.07)">
     <use xlink:href="#Arial-BoldMT-32"/>
     <use xlink:href="#Arial-BoldMT-31" x="55.615234"/>
    </g>
   </g>
   <g id="patch_262">
    <path d="M 48.044017 559.226541 
L 67.547748 559.226541 
L 67.547748 545.239628 
L 48.044017 545.239628 
z
" clip-path="url(#pfc813dc112)" style="fill: #1f77b4; opacity: 0.426192"/>
   </g>
   <g id="patch_263">
    <path d="M 39.368093 559.226541 
L 45.996337 559.226541 
L 45.996337 545.239628 
L 39.368093 545.239628 
z
" clip-path="url(#pfc813dc112)" style="fill: #1f77b4; opacity: 0.00416"/>
   </g>
  </g>
  <g id="axes_23">
   <g id="patch_264">
    <path d="M 19.328903 613.753341 
L 260.384903 613.753341 
L 260.384903 587.250081 
L 19.328903 587.250081 
z
" style="fill: #ffffff"/>
   </g>
   <g id="patch_265">
    <path d="M 19.781075 603.102322 
L 40.430256 603.102322 
L 40.430256 597.80167 
L 19.781075 597.80167 
z
" clip-path="url(#p2d35218124)" style="fill: #ebeaea"/>
   </g>
   <g id="patch_266">
    <path d="M 46.007043 603.102322 
L 96.376679 603.102322 
L 96.376679 597.80167 
L 46.007043 597.80167 
z
" clip-path="url(#p2d35218124)" style="fill: #ebeaea"/>
   </g>
   <g id="patch_267">
    <path d="M 19.781075 603.102322 
L 40.430256 603.102322 
L 40.430256 597.80167 
L 19.781075 597.80167 
L 19.781075 603.102322 
z
" clip-path="url(#p2d35218124)" style="fill: none; stroke: #000000; stroke-width: 0.7; stroke-linejoin: miter"/>
   </g>
   <g id="patch_268">
    <path d="M 46.007043 603.102322 
L 96.376679 603.102322 
L 96.376679 597.80167 
L 46.007043 597.80167 
L 46.007043 603.102322 
z
" clip-path="url(#p2d35218124)" style="fill: none; stroke: #000000; stroke-width: 0.7; stroke-linejoin: miter"/>
   </g>
   <g id="matplotlib.axis_45">
    <g id="xtick_114"/>
    <g id="xtick_115"/>
    <g id="xtick_116"/>
    <g id="xtick_117"/>
    <g id="xtick_118"/>
    <g id="xtick_119"/>
    <g id="xtick_120"/>
    <g id="xtick_121"/>
   </g>
   <g id="matplotlib.axis_46">
    <g id="ytick_45"/>
    <g id="ytick_46"/>
   </g>
   <g id="patch_269">
    <path d="M 40.430256 603.102322 
L 40.430256 597.80167 
L 46.007043 603.102322 
L 46.007043 597.80167 
z
" clip-path="url(#p2d35218124)" style="fill: #777777; stroke: #777777; stroke-width: 0.64; stroke-linejoin: miter"/>
   </g>
   <g id="text_28">
    <!-- 22 -->
    <g style="fill: #262626" transform="translate(7.2 602.266527) scale(0.07 -0.07)">
     <use xlink:href="#Arial-BoldMT-32"/>
     <use xlink:href="#Arial-BoldMT-32" x="55.615234"/>
    </g>
   </g>
   <g id="patch_270">
    <path d="M 80.990362 585.7298 
L 89.829068 585.7298 
L 89.829068 571.742887 
L 80.990362 571.742887 
z
" clip-path="url(#p2d35218124)" style="fill: #1f77b4; opacity: 0.868164"/>
   </g>
   <g id="patch_271">
    <path d="M 54.604791 585.7298 
L 65.017766 585.7298 
L 65.017766 571.742887 
L 54.604791 571.742887 
z
" clip-path="url(#p2d35218124)" style="fill: #1f77b4; opacity: 0.128124"/>
   </g>
  </g>
  <g id="axes_24">
   <g id="patch_272">
    <path d="M 260.384903 587.250081 
L 688.928903 587.250081 
L 688.928903 560.746822 
L 260.384903 560.746822 
z
" style="fill: #ffffff"/>
   </g>
   <g id="patch_273">
    <path d="M 261.188764 576.599063 
L 416.869861 576.599063 
L 416.869861 571.298411 
L 261.188764 571.298411 
z
" clip-path="url(#p921462fd99)" style="fill: #ebeaea"/>
   </g>
   <g id="patch_274">
    <path d="M 432.143222 576.599063 
L 679.306109 576.599063 
L 679.306109 571.298411 
L 432.143222 571.298411 
z
" clip-path="url(#p921462fd99)" style="fill: #ebeaea"/>
   </g>
   <g id="patch_275">
    <path d="M 261.188764 576.599063 
L 416.869861 576.599063 
L 416.869861 571.298411 
L 261.188764 571.298411 
L 261.188764 576.599063 
z
" clip-path="url(#p921462fd99)" style="fill: none; stroke: #000000; stroke-width: 0.7; stroke-linejoin: miter"/>
   </g>
   <g id="patch_276">
    <path d="M 432.143222 576.599063 
L 679.306109 576.599063 
L 679.306109 571.298411 
L 432.143222 571.298411 
L 432.143222 576.599063 
z
" clip-path="url(#p921462fd99)" style="fill: none; stroke: #000000; stroke-width: 0.7; stroke-linejoin: miter"/>
   </g>
   <g id="matplotlib.axis_47">
    <g id="xtick_122"/>
    <g id="xtick_123"/>
    <g id="xtick_124"/>
    <g id="xtick_125"/>
    <g id="xtick_126"/>
    <g id="xtick_127"/>
    <g id="xtick_128"/>
    <g id="xtick_129"/>
   </g>
   <g id="matplotlib.axis_48">
    <g id="ytick_47"/>
    <g id="ytick_48"/>
   </g>
   <g id="patch_277">
    <path d="M 416.869861 576.599063 
L 416.869861 571.298411 
L 432.143222 576.599063 
L 432.143222 571.298411 
z
" clip-path="url(#p921462fd99)" style="fill: #777777; stroke: #777777; stroke-width: 0.64; stroke-linejoin: miter"/>
   </g>
   <g id="text_29">
    <!-- X -->
    <g style="fill: #262626" transform="translate(251.64766 575.763268) scale(0.07 -0.07)">
     <defs>
      <path id="Arial-BoldMT-58" d="M 0 0 
L 1566 2391 
L 147 4581 
L 1228 4581 
L 2147 3109 
L 3047 4581 
L 4119 4581 
L 2694 2356 
L 4259 0 
L 3144 0 
L 2128 1584 
L 1109 0 
L 0 0 
z
" transform="scale(0.015625)"/>
     </defs>
     <use xlink:href="#Arial-BoldMT-58"/>
    </g>
   </g>
   <g id="patch_278">
    <path d="M 599.309176 571.465089 
L 606.065715 571.465089 
L 606.065715 563.597451 
L 599.309176 563.597451 
z
" clip-path="url(#p921462fd99)" style="fill: #1f77b4; opacity: 0.461755"/>
   </g>
   <g id="patch_279">
    <path d="M 512.592214 571.465089 
L 523.465057 571.465089 
L 523.465057 563.597451 
L 512.592214 563.597451 
z
" clip-path="url(#p921462fd99)" style="fill: #1f77b4; opacity: 0.171556"/>
   </g>
   <g id="patch_280">
    <path d="M 504.117498 571.465089 
L 508.626982 571.465089 
L 508.626982 563.597451 
L 504.117498 563.597451 
z
" clip-path="url(#p921462fd99)" style="fill: #1f77b4; opacity: 0.198607"/>
   </g>
   <g id="patch_281">
    <path d="M 419.763504 571.465089 
L 424.355049 571.465089 
L 424.355049 563.597451 
L 419.763504 563.597451 
z
" clip-path="url(#p921462fd99)" style="fill: #1f77b4; opacity: 0.389085"/>
   </g>
   <g id="patch_282">
    <path d="M 402.67611 571.465089 
L 408.190994 571.465089 
L 408.190994 563.597451 
L 402.67611 563.597451 
z
" clip-path="url(#p921462fd99)" style="fill: #1f77b4; opacity: 0.956884"/>
   </g>
   <g id="patch_283">
    <path d="M 322.16846 571.465089 
L 334.668634 571.465089 
L 334.668634 563.597451 
L 322.16846 563.597451 
z
" clip-path="url(#p921462fd99)" style="fill: #1f77b4; opacity: 0.895525"/>
   </g>
   <g id="patch_284">
    <path d="M 262.561381 571.465089 
L 319.118448 571.465089 
L 319.118448 563.597451 
L 262.561381 563.597451 
z
" clip-path="url(#p921462fd99)" style="fill: #1f77b4; opacity: 0.887333"/>
   </g>
  </g>
  <g id="axes_25">
   <g id="patch_285">
    <path d="M 260.384903 613.753341 
L 688.928903 613.753341 
L 688.928903 587.250081 
L 260.384903 587.250081 
z
" style="fill: #ffffff"/>
   </g>
   <g id="patch_286">
    <path d="M 261.188764 603.102322 
L 288.787995 603.102322 
L 288.787995 597.80167 
L 261.188764 597.80167 
z
" clip-path="url(#p9cbeb14433)" style="fill: #ebeaea"/>
   </g>
   <g id="patch_287">
    <path d="M 289.055948 603.102322 
L 414.531737 603.102322 
L 414.531737 597.80167 
L 289.055948 597.80167 
z
" clip-path="url(#p9cbeb14433)" style="fill: #ebeaea"/>
   </g>
   <g id="patch_288">
    <path d="M 261.188764 603.102322 
L 288.787995 603.102322 
L 288.787995 597.80167 
L 261.188764 597.80167 
L 261.188764 603.102322 
z
" clip-path="url(#p9cbeb14433)" style="fill: none; stroke: #000000; stroke-width: 0.7; stroke-linejoin: miter"/>
   </g>
   <g id="patch_289">
    <path d="M 289.055948 603.102322 
L 414.531737 603.102322 
L 414.531737 597.80167 
L 289.055948 597.80167 
L 289.055948 603.102322 
z
" clip-path="url(#p9cbeb14433)" style="fill: none; stroke: #000000; stroke-width: 0.7; stroke-linejoin: miter"/>
   </g>
   <g id="matplotlib.axis_49">
    <g id="xtick_130">
     <g id="line2d_6">
      <defs>
       <path id="m307ec14564" d="M 0 0 
L 0 3.84 
" style="stroke: #262626; stroke-width: 0.8"/>
      </defs>
      <g>
       <use xlink:href="#m307ec14564" x="261.188764" y="613.753341" style="fill: #262626; stroke: #262626; stroke-width: 0.8"/>
      </g>
     </g>
     <g id="text_30">
      <!-- 0.0 -->
      <g style="fill: #262626" transform="translate(256.295964 626.132441) scale(0.0704 -0.0704)">
       <use xlink:href="#ArialMT-30"/>
       <use xlink:href="#ArialMT-2e" x="55.615234"/>
       <use xlink:href="#ArialMT-30" x="83.398438"/>
      </g>
     </g>
    </g>
    <g id="xtick_131">
     <g id="line2d_7">
      <g>
       <use xlink:href="#m307ec14564" x="314.779503" y="613.753341" style="fill: #262626; stroke: #262626; stroke-width: 0.8"/>
      </g>
     </g>
     <g id="text_31">
      <!-- 0.2 -->
      <g style="fill: #262626" transform="translate(309.886703 626.132441) scale(0.0704 -0.0704)">
       <use xlink:href="#ArialMT-30"/>
       <use xlink:href="#ArialMT-2e" x="55.615234"/>
       <use xlink:href="#ArialMT-32" x="83.398438"/>
      </g>
     </g>
    </g>
    <g id="xtick_132">
     <g id="line2d_8">
      <g>
       <use xlink:href="#m307ec14564" x="368.370242" y="613.753341" style="fill: #262626; stroke: #262626; stroke-width: 0.8"/>
      </g>
     </g>
     <g id="text_32">
      <!-- 0.4 -->
      <g style="fill: #262626" transform="translate(363.477442 626.132441) scale(0.0704 -0.0704)">
       <defs>
        <path id="ArialMT-34" d="M 2069 0 
L 2069 1097 
L 81 1097 
L 81 1613 
L 2172 4581 
L 2631 4581 
L 2631 1613 
L 3250 1613 
L 3250 1097 
L 2631 1097 
L 2631 0 
L 2069 0 
z
M 2069 1613 
L 2069 3678 
L 634 1613 
L 2069 1613 
z
" transform="scale(0.015625)"/>
       </defs>
       <use xlink:href="#ArialMT-30"/>
       <use xlink:href="#ArialMT-2e" x="55.615234"/>
       <use xlink:href="#ArialMT-34" x="83.398438"/>
      </g>
     </g>
    </g>
    <g id="xtick_133">
     <g id="line2d_9">
      <g>
       <use xlink:href="#m307ec14564" x="421.960981" y="613.753341" style="fill: #262626; stroke: #262626; stroke-width: 0.8"/>
      </g>
     </g>
     <g id="text_33">
      <!-- 0.6 -->
      <g style="fill: #262626" transform="translate(417.068181 626.132441) scale(0.0704 -0.0704)">
       <defs>
        <path id="ArialMT-36" d="M 3184 3459 
L 2625 3416 
Q 2550 3747 2413 3897 
Q 2184 4138 1850 4138 
Q 1581 4138 1378 3988 
Q 1113 3794 959 3422 
Q 806 3050 800 2363 
Q 1003 2672 1297 2822 
Q 1591 2972 1913 2972 
Q 2475 2972 2870 2558 
Q 3266 2144 3266 1488 
Q 3266 1056 3080 686 
Q 2894 316 2569 119 
Q 2244 -78 1831 -78 
Q 1128 -78 684 439 
Q 241 956 241 2144 
Q 241 3472 731 4075 
Q 1159 4600 1884 4600 
Q 2425 4600 2770 4297 
Q 3116 3994 3184 3459 
z
M 888 1484 
Q 888 1194 1011 928 
Q 1134 663 1356 523 
Q 1578 384 1822 384 
Q 2178 384 2434 671 
Q 2691 959 2691 1453 
Q 2691 1928 2437 2201 
Q 2184 2475 1800 2475 
Q 1419 2475 1153 2201 
Q 888 1928 888 1484 
z
" transform="scale(0.015625)"/>
       </defs>
       <use xlink:href="#ArialMT-30"/>
       <use xlink:href="#ArialMT-2e" x="55.615234"/>
       <use xlink:href="#ArialMT-36" x="83.398438"/>
      </g>
     </g>
    </g>
    <g id="xtick_134">
     <g id="line2d_10">
      <g>
       <use xlink:href="#m307ec14564" x="475.551721" y="613.753341" style="fill: #262626; stroke: #262626; stroke-width: 0.8"/>
      </g>
     </g>
     <g id="text_34">
      <!-- 0.8 -->
      <g style="fill: #262626" transform="translate(470.658921 626.132441) scale(0.0704 -0.0704)">
       <use xlink:href="#ArialMT-30"/>
       <use xlink:href="#ArialMT-2e" x="55.615234"/>
       <use xlink:href="#ArialMT-38" x="83.398438"/>
      </g>
     </g>
    </g>
    <g id="xtick_135">
     <g id="line2d_11">
      <g>
       <use xlink:href="#m307ec14564" x="529.14246" y="613.753341" style="fill: #262626; stroke: #262626; stroke-width: 0.8"/>
      </g>
     </g>
     <g id="text_35">
      <!-- 1.0 -->
      <g style="fill: #262626" transform="translate(524.24966 626.132441) scale(0.0704 -0.0704)">
       <use xlink:href="#ArialMT-31"/>
       <use xlink:href="#ArialMT-2e" x="55.615234"/>
       <use xlink:href="#ArialMT-30" x="83.398438"/>
      </g>
     </g>
    </g>
    <g id="xtick_136">
     <g id="line2d_12">
      <g>
       <use xlink:href="#m307ec14564" x="582.733199" y="613.753341" style="fill: #262626; stroke: #262626; stroke-width: 0.8"/>
      </g>
     </g>
     <g id="text_36">
      <!-- 1.2 -->
      <g style="fill: #262626" transform="translate(577.840399 626.132441) scale(0.0704 -0.0704)">
       <use xlink:href="#ArialMT-31"/>
       <use xlink:href="#ArialMT-2e" x="55.615234"/>
       <use xlink:href="#ArialMT-32" x="83.398438"/>
      </g>
     </g>
    </g>
    <g id="xtick_137">
     <g id="line2d_13">
      <g>
       <use xlink:href="#m307ec14564" x="636.323938" y="613.753341" style="fill: #262626; stroke: #262626; stroke-width: 0.8"/>
      </g>
     </g>
     <g id="text_37">
      <!-- 1.4 -->
      <g style="fill: #262626" transform="translate(631.431138 626.132441) scale(0.0704 -0.0704)">
       <use xlink:href="#ArialMT-31"/>
       <use xlink:href="#ArialMT-2e" x="55.615234"/>
       <use xlink:href="#ArialMT-34" x="83.398438"/>
      </g>
     </g>
    </g>
    <g id="text_38">
     <!-- 1e8 -->
     <g style="fill: #262626" transform="translate(677.184203 635.570741) scale(0.0704 -0.0704)">
      <use xlink:href="#ArialMT-31"/>
      <use xlink:href="#ArialMT-65" x="55.615234"/>
      <use xlink:href="#ArialMT-38" x="111.230469"/>
     </g>
    </g>
   </g>
   <g id="patch_290">
    <path d="M 288.787995 603.102322 
L 288.787995 597.80167 
L 289.055948 603.102322 
L 289.055948 597.80167 
z
" clip-path="url(#p9cbeb14433)" style="fill: #777777; stroke: #777777; stroke-width: 0.64; stroke-linejoin: miter"/>
   </g>
   <g id="patch_291">
    <path d="M 260.384903 613.753341 
L 688.928903 613.753341 
" style="fill: none; stroke: #262626; stroke-width: 0.8; stroke-linejoin: miter; stroke-linecap: square"/>
   </g>
   <g id="text_39">
    <!-- Y -->
    <g style="fill: #262626" transform="translate(251.64766 602.266527) scale(0.07 -0.07)">
     <defs>
      <path id="Arial-BoldMT-59" d="M 1669 0 
L 1669 1928 
L -9 4581 
L 1075 4581 
L 2153 2769 
L 3209 4581 
L 4275 4581 
L 2591 1922 
L 2591 0 
L 1669 0 
z
" transform="scale(0.015625)"/>
     </defs>
     <use xlink:href="#Arial-BoldMT-59"/>
    </g>
   </g>
   <g id="patch_292">
    <path d="M 379.975724 597.968349 
L 401.862999 597.968349 
L 401.862999 590.10071 
L 379.975724 590.10071 
z
" clip-path="url(#p9cbeb14433)" style="fill: #1f77b4; opacity: 0.641458"/>
   </g>
   <g id="patch_293">
    <path d="M 282.749915 597.968349 
L 331.055525 597.968349 
L 331.055525 590.10071 
L 282.749915 590.10071 
z
" clip-path="url(#p9cbeb14433)" style="fill: #1f77b4; opacity: 0.025884"/>
   </g>
  </g>
 </g>
 <defs>
  <clipPath id="p8d474448a6">
   <rect x="19.328903" y="30.681633" width="669.6" height="26.503259"/>
  </clipPath>
  <clipPath id="pec2c2b8933">
   <rect x="19.328903" y="57.184892" width="669.6" height="26.503259"/>
  </clipPath>
  <clipPath id="p26a9ffaea5">
   <rect x="19.328903" y="83.688151" width="669.6" height="26.503259"/>
  </clipPath>
  <clipPath id="p11ab9f7f96">
   <rect x="19.328903" y="110.191411" width="669.6" height="26.503259"/>
  </clipPath>
  <clipPath id="p431c9a206a">
   <rect x="19.328903" y="136.69467" width="669.6" height="26.503259"/>
  </clipPath>
  <clipPath id="pac0612bb58">
   <rect x="19.328903" y="163.19793" width="669.6" height="26.503259"/>
  </clipPath>
  <clipPath id="p220ebd9296">
   <rect x="19.328903" y="189.701189" width="669.6" height="26.503259"/>
  </clipPath>
  <clipPath id="pea1847acad">
   <rect x="19.328903" y="216.204449" width="669.6" height="26.503259"/>
  </clipPath>
  <clipPath id="p95d6bd23a9">
   <rect x="19.328903" y="242.707708" width="669.6" height="26.503259"/>
  </clipPath>
  <clipPath id="p6dea476c9f">
   <rect x="19.328903" y="269.210968" width="669.6" height="26.503259"/>
  </clipPath>
  <clipPath id="p1007a06b5e">
   <rect x="19.328903" y="295.714227" width="669.6" height="26.503259"/>
  </clipPath>
  <clipPath id="pae13ed5a11">
   <rect x="19.328903" y="322.217487" width="669.6" height="26.503259"/>
  </clipPath>
  <clipPath id="p901feb0511">
   <rect x="19.328903" y="348.720746" width="669.6" height="26.503259"/>
  </clipPath>
  <clipPath id="pf98abe4805">
   <rect x="19.328903" y="375.224005" width="669.6" height="26.503259"/>
  </clipPath>
  <clipPath id="paa9850bed7">
   <rect x="19.328903" y="401.727265" width="669.6" height="26.503259"/>
  </clipPath>
  <clipPath id="p243e44ddb0">
   <rect x="19.328903" y="428.230524" width="669.6" height="26.503259"/>
  </clipPath>
  <clipPath id="p21c3e62eb2">
   <rect x="19.328903" y="454.733784" width="669.6" height="26.503259"/>
  </clipPath>
  <clipPath id="p9209afa7c9">
   <rect x="19.328903" y="481.237043" width="669.6" height="26.503259"/>
  </clipPath>
  <clipPath id="p3bc3e365b9">
   <rect x="19.328903" y="507.740303" width="669.6" height="26.503259"/>
  </clipPath>
  <clipPath id="pf7df06b006">
   <rect x="19.328903" y="534.243562" width="669.6" height="26.503259"/>
  </clipPath>
  <clipPath id="pfc813dc112">
   <rect x="19.328903" y="560.746822" width="241.056" height="26.503259"/>
  </clipPath>
  <clipPath id="p2d35218124">
   <rect x="19.328903" y="587.250081" width="241.056" height="26.503259"/>
  </clipPath>
  <clipPath id="p921462fd99">
   <rect x="260.384903" y="560.746822" width="428.544" height="26.503259"/>
  </clipPath>
  <clipPath id="p9cbeb14433">
   <rect x="260.384903" y="587.250081" width="428.544" height="26.503259"/>
  </clipPath>
 </defs>
</svg>
