<?xml version="1.0" encoding="utf-8" standalone="no"?>
<!DOCTYPE svg PUBLIC "-//W3C//DTD SVG 1.1//EN"
  "http://www.w3.org/Graphics/SVG/1.1/DTD/svg11.dtd">
<svg xmlns:xlink="http://www.w3.org/1999/xlink" width="401.584853pt" height="348.774844pt" viewBox="0 0 401.584853 348.774844" xmlns="http://www.w3.org/2000/svg" version="1.1">
 <metadata>
  <rdf:RDF xmlns:dc="http://purl.org/dc/elements/1.1/" xmlns:cc="http://creativecommons.org/ns#" xmlns:rdf="http://www.w3.org/1999/02/22-rdf-syntax-ns#">
   <cc:Work>
    <dc:type rdf:resource="http://purl.org/dc/dcmitype/StillImage"/>
    <dc:date>2024-10-17T11:27:29.837188</dc:date>
    <dc:format>image/svg+xml</dc:format>
    <dc:creator>
     <cc:Agent>
      <dc:title>Matplotlib v3.7.1, https://matplotlib.org/</dc:title>
     </cc:Agent>
    </dc:creator>
   </cc:Work>
  </rdf:RDF>
 </metadata>
 <defs>
  <style type="text/css">*{stroke-linejoin: round; stroke-linecap: butt}</style>
 </defs>
 <g id="figure_1">
  <g id="patch_1">
   <path d="M 0 348.774844 
L 401.584853 348.774844 
L 401.584853 0 
L 0 0 
z
" style="fill: #ffffff"/>
  </g>
  <g id="axes_1">
   <g id="patch_2">
    <path d="M 50.62 306.9 
L 342.219553 306.9 
L 342.219553 7.2 
L 50.62 7.2 
z
" style="fill: #ffffff"/>
   </g>
   <g id="matplotlib.axis_1">
    <g id="xtick_1">
     <g id="line2d_1">
      <path d="M 112.706986 306.9 
L 112.706986 7.2 
" clip-path="url(#p3440f2f7db)" style="fill: none; stroke: #cccccc; stroke-linecap: round"/>
     </g>
     <g id="text_1">
      <!-- 30 -->
      <g style="fill: #262626" transform="translate(106.589955 324.273594) scale(0.11 -0.11)">
       <defs>
        <path id="ArialMT-33" d="M 269 1209 
L 831 1284 
Q 928 806 1161 595 
Q 1394 384 1728 384 
Q 2125 384 2398 659 
Q 2672 934 2672 1341 
Q 2672 1728 2419 1979 
Q 2166 2231 1775 2231 
Q 1616 2231 1378 2169 
L 1441 2663 
Q 1497 2656 1531 2656 
Q 1891 2656 2178 2843 
Q 2466 3031 2466 3422 
Q 2466 3731 2256 3934 
Q 2047 4138 1716 4138 
Q 1388 4138 1169 3931 
Q 950 3725 888 3313 
L 325 3413 
Q 428 3978 793 4289 
Q 1159 4600 1703 4600 
Q 2078 4600 2393 4439 
Q 2709 4278 2876 4000 
Q 3044 3722 3044 3409 
Q 3044 3113 2884 2869 
Q 2725 2625 2413 2481 
Q 2819 2388 3044 2092 
Q 3269 1797 3269 1353 
Q 3269 753 2831 336 
Q 2394 -81 1725 -81 
Q 1122 -81 723 278 
Q 325 638 269 1209 
z
" transform="scale(0.015625)"/>
        <path id="ArialMT-30" d="M 266 2259 
Q 266 3072 433 3567 
Q 600 4063 929 4331 
Q 1259 4600 1759 4600 
Q 2128 4600 2406 4451 
Q 2684 4303 2865 4023 
Q 3047 3744 3150 3342 
Q 3253 2941 3253 2259 
Q 3253 1453 3087 958 
Q 2922 463 2592 192 
Q 2263 -78 1759 -78 
Q 1097 -78 719 397 
Q 266 969 266 2259 
z
M 844 2259 
Q 844 1131 1108 757 
Q 1372 384 1759 384 
Q 2147 384 2411 759 
Q 2675 1134 2675 2259 
Q 2675 3391 2411 3762 
Q 2147 4134 1753 4134 
Q 1366 4134 1134 3806 
Q 844 3388 844 2259 
z
" transform="scale(0.015625)"/>
       </defs>
       <use xlink:href="#ArialMT-33"/>
       <use xlink:href="#ArialMT-30" x="55.615234"/>
      </g>
     </g>
    </g>
    <g id="xtick_2">
     <g id="line2d_2">
      <path d="M 182.467645 306.9 
L 182.467645 7.2 
" clip-path="url(#p3440f2f7db)" style="fill: none; stroke: #cccccc; stroke-linecap: round"/>
     </g>
     <g id="text_2">
      <!-- 40 -->
      <g style="fill: #262626" transform="translate(176.350614 324.273594) scale(0.11 -0.11)">
       <defs>
        <path id="ArialMT-34" d="M 2069 0 
L 2069 1097 
L 81 1097 
L 81 1613 
L 2172 4581 
L 2631 4581 
L 2631 1613 
L 3250 1613 
L 3250 1097 
L 2631 1097 
L 2631 0 
L 2069 0 
z
M 2069 1613 
L 2069 3678 
L 634 1613 
L 2069 1613 
z
" transform="scale(0.015625)"/>
       </defs>
       <use xlink:href="#ArialMT-34"/>
       <use xlink:href="#ArialMT-30" x="55.615234"/>
      </g>
     </g>
    </g>
    <g id="xtick_3">
     <g id="line2d_3">
      <path d="M 252.228304 306.9 
L 252.228304 7.2 
" clip-path="url(#p3440f2f7db)" style="fill: none; stroke: #cccccc; stroke-linecap: round"/>
     </g>
     <g id="text_3">
      <!-- 50 -->
      <g style="fill: #262626" transform="translate(246.111272 324.273594) scale(0.11 -0.11)">
       <defs>
        <path id="ArialMT-35" d="M 266 1200 
L 856 1250 
Q 922 819 1161 601 
Q 1400 384 1738 384 
Q 2144 384 2425 690 
Q 2706 997 2706 1503 
Q 2706 1984 2436 2262 
Q 2166 2541 1728 2541 
Q 1456 2541 1237 2417 
Q 1019 2294 894 2097 
L 366 2166 
L 809 4519 
L 3088 4519 
L 3088 3981 
L 1259 3981 
L 1013 2750 
Q 1425 3038 1878 3038 
Q 2478 3038 2890 2622 
Q 3303 2206 3303 1553 
Q 3303 931 2941 478 
Q 2500 -78 1738 -78 
Q 1113 -78 717 272 
Q 322 622 266 1200 
z
" transform="scale(0.015625)"/>
       </defs>
       <use xlink:href="#ArialMT-35"/>
       <use xlink:href="#ArialMT-30" x="55.615234"/>
      </g>
     </g>
    </g>
    <g id="xtick_4">
     <g id="line2d_4">
      <path d="M 321.988962 306.9 
L 321.988962 7.2 
" clip-path="url(#p3440f2f7db)" style="fill: none; stroke: #cccccc; stroke-linecap: round"/>
     </g>
     <g id="text_4">
      <!-- 60 -->
      <g style="fill: #262626" transform="translate(315.871931 324.273594) scale(0.11 -0.11)">
       <defs>
        <path id="ArialMT-36" d="M 3184 3459 
L 2625 3416 
Q 2550 3747 2413 3897 
Q 2184 4138 1850 4138 
Q 1581 4138 1378 3988 
Q 1113 3794 959 3422 
Q 806 3050 800 2363 
Q 1003 2672 1297 2822 
Q 1591 2972 1913 2972 
Q 2475 2972 2870 2558 
Q 3266 2144 3266 1488 
Q 3266 1056 3080 686 
Q 2894 316 2569 119 
Q 2244 -78 1831 -78 
Q 1128 -78 684 439 
Q 241 956 241 2144 
Q 241 3472 731 4075 
Q 1159 4600 1884 4600 
Q 2425 4600 2770 4297 
Q 3116 3994 3184 3459 
z
M 888 1484 
Q 888 1194 1011 928 
Q 1134 663 1356 523 
Q 1578 384 1822 384 
Q 2178 384 2434 671 
Q 2691 959 2691 1453 
Q 2691 1928 2437 2201 
Q 2184 2475 1800 2475 
Q 1419 2475 1153 2201 
Q 888 1928 888 1484 
z
" transform="scale(0.015625)"/>
       </defs>
       <use xlink:href="#ArialMT-36"/>
       <use xlink:href="#ArialMT-30" x="55.615234"/>
      </g>
     </g>
    </g>
    <g id="text_5">
     <!-- Age -->
     <g style="fill: #262626" transform="translate(185.744464 339.049219) scale(0.12 -0.12)">
      <defs>
       <path id="ArialMT-41" d="M -9 0 
L 1750 4581 
L 2403 4581 
L 4278 0 
L 3588 0 
L 3053 1388 
L 1138 1388 
L 634 0 
L -9 0 
z
M 1313 1881 
L 2866 1881 
L 2388 3150 
Q 2169 3728 2063 4100 
Q 1975 3659 1816 3225 
L 1313 1881 
z
" transform="scale(0.015625)"/>
       <path id="ArialMT-67" d="M 319 -275 
L 866 -356 
Q 900 -609 1056 -725 
Q 1266 -881 1628 -881 
Q 2019 -881 2231 -725 
Q 2444 -569 2519 -288 
Q 2563 -116 2559 434 
Q 2191 0 1641 0 
Q 956 0 581 494 
Q 206 988 206 1678 
Q 206 2153 378 2554 
Q 550 2956 876 3175 
Q 1203 3394 1644 3394 
Q 2231 3394 2613 2919 
L 2613 3319 
L 3131 3319 
L 3131 450 
Q 3131 -325 2973 -648 
Q 2816 -972 2473 -1159 
Q 2131 -1347 1631 -1347 
Q 1038 -1347 672 -1080 
Q 306 -813 319 -275 
z
M 784 1719 
Q 784 1066 1043 766 
Q 1303 466 1694 466 
Q 2081 466 2343 764 
Q 2606 1063 2606 1700 
Q 2606 2309 2336 2618 
Q 2066 2928 1684 2928 
Q 1309 2928 1046 2623 
Q 784 2319 784 1719 
z
" transform="scale(0.015625)"/>
       <path id="ArialMT-65" d="M 2694 1069 
L 3275 997 
Q 3138 488 2766 206 
Q 2394 -75 1816 -75 
Q 1088 -75 661 373 
Q 234 822 234 1631 
Q 234 2469 665 2931 
Q 1097 3394 1784 3394 
Q 2450 3394 2872 2941 
Q 3294 2488 3294 1666 
Q 3294 1616 3291 1516 
L 816 1516 
Q 847 969 1125 678 
Q 1403 388 1819 388 
Q 2128 388 2347 550 
Q 2566 713 2694 1069 
z
M 847 1978 
L 2700 1978 
Q 2663 2397 2488 2606 
Q 2219 2931 1791 2931 
Q 1403 2931 1139 2672 
Q 875 2413 847 1978 
z
" transform="scale(0.015625)"/>
      </defs>
      <use xlink:href="#ArialMT-41"/>
      <use xlink:href="#ArialMT-67" x="66.699219"/>
      <use xlink:href="#ArialMT-65" x="122.314453"/>
     </g>
    </g>
   </g>
   <g id="matplotlib.axis_2">
    <g id="ytick_1">
     <g id="line2d_5">
      <path d="M 50.62 302.463421 
L 342.219553 302.463421 
" clip-path="url(#p3440f2f7db)" style="fill: none; stroke: #cccccc; stroke-linecap: round"/>
     </g>
     <g id="text_6">
      <!-- −10 -->
      <g style="fill: #262626" transform="translate(22.46125 306.400218) scale(0.11 -0.11)">
       <defs>
        <path id="ArialMT-2212" d="M 3381 1997 
L 356 1997 
L 356 2522 
L 3381 2522 
L 3381 1997 
z
" transform="scale(0.015625)"/>
        <path id="ArialMT-31" d="M 2384 0 
L 1822 0 
L 1822 3584 
Q 1619 3391 1289 3197 
Q 959 3003 697 2906 
L 697 3450 
Q 1169 3672 1522 3987 
Q 1875 4303 2022 4600 
L 2384 4600 
L 2384 0 
z
" transform="scale(0.015625)"/>
       </defs>
       <use xlink:href="#ArialMT-2212"/>
       <use xlink:href="#ArialMT-31" x="58.398438"/>
       <use xlink:href="#ArialMT-30" x="114.013672"/>
      </g>
     </g>
    </g>
    <g id="ytick_2">
     <g id="line2d_6">
      <path d="M 50.62 242.901162 
L 342.219553 242.901162 
" clip-path="url(#p3440f2f7db)" style="fill: none; stroke: #cccccc; stroke-linecap: round"/>
     </g>
     <g id="text_7">
      <!-- 0 -->
      <g style="fill: #262626" transform="translate(35.002969 246.837959) scale(0.11 -0.11)">
       <use xlink:href="#ArialMT-30"/>
      </g>
     </g>
    </g>
    <g id="ytick_3">
     <g id="line2d_7">
      <path d="M 50.62 183.338903 
L 342.219553 183.338903 
" clip-path="url(#p3440f2f7db)" style="fill: none; stroke: #cccccc; stroke-linecap: round"/>
     </g>
     <g id="text_8">
      <!-- 10 -->
      <g style="fill: #262626" transform="translate(28.885938 187.2757) scale(0.11 -0.11)">
       <use xlink:href="#ArialMT-31"/>
       <use xlink:href="#ArialMT-30" x="55.615234"/>
      </g>
     </g>
    </g>
    <g id="ytick_4">
     <g id="line2d_8">
      <path d="M 50.62 123.776644 
L 342.219553 123.776644 
" clip-path="url(#p3440f2f7db)" style="fill: none; stroke: #cccccc; stroke-linecap: round"/>
     </g>
     <g id="text_9">
      <!-- 20 -->
      <g style="fill: #262626" transform="translate(28.885938 127.71344) scale(0.11 -0.11)">
       <defs>
        <path id="ArialMT-32" d="M 3222 541 
L 3222 0 
L 194 0 
Q 188 203 259 391 
Q 375 700 629 1000 
Q 884 1300 1366 1694 
Q 2113 2306 2375 2664 
Q 2638 3022 2638 3341 
Q 2638 3675 2398 3904 
Q 2159 4134 1775 4134 
Q 1369 4134 1125 3890 
Q 881 3647 878 3216 
L 300 3275 
Q 359 3922 746 4261 
Q 1134 4600 1788 4600 
Q 2447 4600 2831 4234 
Q 3216 3869 3216 3328 
Q 3216 3053 3103 2787 
Q 2991 2522 2730 2228 
Q 2469 1934 1863 1422 
Q 1356 997 1212 845 
Q 1069 694 975 541 
L 3222 541 
z
" transform="scale(0.015625)"/>
       </defs>
       <use xlink:href="#ArialMT-32"/>
       <use xlink:href="#ArialMT-30" x="55.615234"/>
      </g>
     </g>
    </g>
    <g id="ytick_5">
     <g id="line2d_9">
      <path d="M 50.62 64.214384 
L 342.219553 64.214384 
" clip-path="url(#p3440f2f7db)" style="fill: none; stroke: #cccccc; stroke-linecap: round"/>
     </g>
     <g id="text_10">
      <!-- 30 -->
      <g style="fill: #262626" transform="translate(28.885938 68.151181) scale(0.11 -0.11)">
       <use xlink:href="#ArialMT-33"/>
       <use xlink:href="#ArialMT-30" x="55.615234"/>
      </g>
     </g>
    </g>
    <g id="text_11">
     <!-- How informal you can be -->
     <g style="fill: #262626" transform="translate(15.935625 223.078125) rotate(-90) scale(0.12 -0.12)">
      <defs>
       <path id="ArialMT-48" d="M 513 0 
L 513 4581 
L 1119 4581 
L 1119 2700 
L 3500 2700 
L 3500 4581 
L 4106 4581 
L 4106 0 
L 3500 0 
L 3500 2159 
L 1119 2159 
L 1119 0 
L 513 0 
z
" transform="scale(0.015625)"/>
       <path id="ArialMT-6f" d="M 213 1659 
Q 213 2581 725 3025 
Q 1153 3394 1769 3394 
Q 2453 3394 2887 2945 
Q 3322 2497 3322 1706 
Q 3322 1066 3130 698 
Q 2938 331 2570 128 
Q 2203 -75 1769 -75 
Q 1072 -75 642 372 
Q 213 819 213 1659 
z
M 791 1659 
Q 791 1022 1069 705 
Q 1347 388 1769 388 
Q 2188 388 2466 706 
Q 2744 1025 2744 1678 
Q 2744 2294 2464 2611 
Q 2184 2928 1769 2928 
Q 1347 2928 1069 2612 
Q 791 2297 791 1659 
z
" transform="scale(0.015625)"/>
       <path id="ArialMT-77" d="M 1034 0 
L 19 3319 
L 600 3319 
L 1128 1403 
L 1325 691 
Q 1338 744 1497 1375 
L 2025 3319 
L 2603 3319 
L 3100 1394 
L 3266 759 
L 3456 1400 
L 4025 3319 
L 4572 3319 
L 3534 0 
L 2950 0 
L 2422 1988 
L 2294 2553 
L 1622 0 
L 1034 0 
z
" transform="scale(0.015625)"/>
       <path id="ArialMT-20" transform="scale(0.015625)"/>
       <path id="ArialMT-69" d="M 425 3934 
L 425 4581 
L 988 4581 
L 988 3934 
L 425 3934 
z
M 425 0 
L 425 3319 
L 988 3319 
L 988 0 
L 425 0 
z
" transform="scale(0.015625)"/>
       <path id="ArialMT-6e" d="M 422 0 
L 422 3319 
L 928 3319 
L 928 2847 
Q 1294 3394 1984 3394 
Q 2284 3394 2536 3286 
Q 2788 3178 2913 3003 
Q 3038 2828 3088 2588 
Q 3119 2431 3119 2041 
L 3119 0 
L 2556 0 
L 2556 2019 
Q 2556 2363 2490 2533 
Q 2425 2703 2258 2804 
Q 2091 2906 1866 2906 
Q 1506 2906 1245 2678 
Q 984 2450 984 1813 
L 984 0 
L 422 0 
z
" transform="scale(0.015625)"/>
       <path id="ArialMT-66" d="M 556 0 
L 556 2881 
L 59 2881 
L 59 3319 
L 556 3319 
L 556 3672 
Q 556 4006 616 4169 
Q 697 4388 901 4523 
Q 1106 4659 1475 4659 
Q 1713 4659 2000 4603 
L 1916 4113 
Q 1741 4144 1584 4144 
Q 1328 4144 1222 4034 
Q 1116 3925 1116 3625 
L 1116 3319 
L 1763 3319 
L 1763 2881 
L 1116 2881 
L 1116 0 
L 556 0 
z
" transform="scale(0.015625)"/>
       <path id="ArialMT-72" d="M 416 0 
L 416 3319 
L 922 3319 
L 922 2816 
Q 1116 3169 1280 3281 
Q 1444 3394 1641 3394 
Q 1925 3394 2219 3213 
L 2025 2691 
Q 1819 2813 1613 2813 
Q 1428 2813 1281 2702 
Q 1134 2591 1072 2394 
Q 978 2094 978 1738 
L 978 0 
L 416 0 
z
" transform="scale(0.015625)"/>
       <path id="ArialMT-6d" d="M 422 0 
L 422 3319 
L 925 3319 
L 925 2853 
Q 1081 3097 1340 3245 
Q 1600 3394 1931 3394 
Q 2300 3394 2536 3241 
Q 2772 3088 2869 2813 
Q 3263 3394 3894 3394 
Q 4388 3394 4653 3120 
Q 4919 2847 4919 2278 
L 4919 0 
L 4359 0 
L 4359 2091 
Q 4359 2428 4304 2576 
Q 4250 2725 4106 2815 
Q 3963 2906 3769 2906 
Q 3419 2906 3187 2673 
Q 2956 2441 2956 1928 
L 2956 0 
L 2394 0 
L 2394 2156 
Q 2394 2531 2256 2718 
Q 2119 2906 1806 2906 
Q 1569 2906 1367 2781 
Q 1166 2656 1075 2415 
Q 984 2175 984 1722 
L 984 0 
L 422 0 
z
" transform="scale(0.015625)"/>
       <path id="ArialMT-61" d="M 2588 409 
Q 2275 144 1986 34 
Q 1697 -75 1366 -75 
Q 819 -75 525 192 
Q 231 459 231 875 
Q 231 1119 342 1320 
Q 453 1522 633 1644 
Q 813 1766 1038 1828 
Q 1203 1872 1538 1913 
Q 2219 1994 2541 2106 
Q 2544 2222 2544 2253 
Q 2544 2597 2384 2738 
Q 2169 2928 1744 2928 
Q 1347 2928 1158 2789 
Q 969 2650 878 2297 
L 328 2372 
Q 403 2725 575 2942 
Q 747 3159 1072 3276 
Q 1397 3394 1825 3394 
Q 2250 3394 2515 3294 
Q 2781 3194 2906 3042 
Q 3031 2891 3081 2659 
Q 3109 2516 3109 2141 
L 3109 1391 
Q 3109 606 3145 398 
Q 3181 191 3288 0 
L 2700 0 
Q 2613 175 2588 409 
z
M 2541 1666 
Q 2234 1541 1622 1453 
Q 1275 1403 1131 1340 
Q 988 1278 909 1158 
Q 831 1038 831 891 
Q 831 666 1001 516 
Q 1172 366 1500 366 
Q 1825 366 2078 508 
Q 2331 650 2450 897 
Q 2541 1088 2541 1459 
L 2541 1666 
z
" transform="scale(0.015625)"/>
       <path id="ArialMT-6c" d="M 409 0 
L 409 4581 
L 972 4581 
L 972 0 
L 409 0 
z
" transform="scale(0.015625)"/>
       <path id="ArialMT-79" d="M 397 -1278 
L 334 -750 
Q 519 -800 656 -800 
Q 844 -800 956 -737 
Q 1069 -675 1141 -563 
Q 1194 -478 1313 -144 
Q 1328 -97 1363 -6 
L 103 3319 
L 709 3319 
L 1400 1397 
Q 1534 1031 1641 628 
Q 1738 1016 1872 1384 
L 2581 3319 
L 3144 3319 
L 1881 -56 
Q 1678 -603 1566 -809 
Q 1416 -1088 1222 -1217 
Q 1028 -1347 759 -1347 
Q 597 -1347 397 -1278 
z
" transform="scale(0.015625)"/>
       <path id="ArialMT-75" d="M 2597 0 
L 2597 488 
Q 2209 -75 1544 -75 
Q 1250 -75 995 37 
Q 741 150 617 320 
Q 494 491 444 738 
Q 409 903 409 1263 
L 409 3319 
L 972 3319 
L 972 1478 
Q 972 1038 1006 884 
Q 1059 663 1231 536 
Q 1403 409 1656 409 
Q 1909 409 2131 539 
Q 2353 669 2445 892 
Q 2538 1116 2538 1541 
L 2538 3319 
L 3100 3319 
L 3100 0 
L 2597 0 
z
" transform="scale(0.015625)"/>
       <path id="ArialMT-63" d="M 2588 1216 
L 3141 1144 
Q 3050 572 2676 248 
Q 2303 -75 1759 -75 
Q 1078 -75 664 370 
Q 250 816 250 1647 
Q 250 2184 428 2587 
Q 606 2991 970 3192 
Q 1334 3394 1763 3394 
Q 2303 3394 2647 3120 
Q 2991 2847 3088 2344 
L 2541 2259 
Q 2463 2594 2264 2762 
Q 2066 2931 1784 2931 
Q 1359 2931 1093 2626 
Q 828 2322 828 1663 
Q 828 994 1084 691 
Q 1341 388 1753 388 
Q 2084 388 2306 591 
Q 2528 794 2588 1216 
z
" transform="scale(0.015625)"/>
       <path id="ArialMT-62" d="M 941 0 
L 419 0 
L 419 4581 
L 981 4581 
L 981 2947 
Q 1338 3394 1891 3394 
Q 2197 3394 2470 3270 
Q 2744 3147 2920 2923 
Q 3097 2700 3197 2384 
Q 3297 2069 3297 1709 
Q 3297 856 2875 390 
Q 2453 -75 1863 -75 
Q 1275 -75 941 416 
L 941 0 
z
M 934 1684 
Q 934 1088 1097 822 
Q 1363 388 1816 388 
Q 2184 388 2453 708 
Q 2722 1028 2722 1663 
Q 2722 2313 2464 2622 
Q 2206 2931 1841 2931 
Q 1472 2931 1203 2611 
Q 934 2291 934 1684 
z
" transform="scale(0.015625)"/>
      </defs>
      <use xlink:href="#ArialMT-48"/>
      <use xlink:href="#ArialMT-6f" x="72.216797"/>
      <use xlink:href="#ArialMT-77" x="127.832031"/>
      <use xlink:href="#ArialMT-20" x="200.048828"/>
      <use xlink:href="#ArialMT-69" x="227.832031"/>
      <use xlink:href="#ArialMT-6e" x="250.048828"/>
      <use xlink:href="#ArialMT-66" x="305.664062"/>
      <use xlink:href="#ArialMT-6f" x="333.447266"/>
      <use xlink:href="#ArialMT-72" x="389.0625"/>
      <use xlink:href="#ArialMT-6d" x="422.363281"/>
      <use xlink:href="#ArialMT-61" x="505.664062"/>
      <use xlink:href="#ArialMT-6c" x="561.279297"/>
      <use xlink:href="#ArialMT-20" x="583.496094"/>
      <use xlink:href="#ArialMT-79" x="611.279297"/>
      <use xlink:href="#ArialMT-6f" x="661.279297"/>
      <use xlink:href="#ArialMT-75" x="716.894531"/>
      <use xlink:href="#ArialMT-20" x="772.509766"/>
      <use xlink:href="#ArialMT-63" x="800.292969"/>
      <use xlink:href="#ArialMT-61" x="850.292969"/>
      <use xlink:href="#ArialMT-6e" x="905.908203"/>
      <use xlink:href="#ArialMT-20" x="961.523438"/>
      <use xlink:href="#ArialMT-62" x="989.306641"/>
      <use xlink:href="#ArialMT-65" x="1044.921875"/>
     </g>
    </g>
   </g>
   <g id="PathCollection_1">
    <defs>
     <path id="m1d96b37800" d="M 0 3 
C 0.795609 3 1.55874 2.683901 2.12132 2.12132 
C 2.683901 1.55874 3 0.795609 3 0 
C 3 -0.795609 2.683901 -1.55874 2.12132 -2.12132 
C 1.55874 -2.683901 0.795609 -3 0 -3 
C -0.795609 -3 -1.55874 -2.683901 -2.12132 -2.12132 
C -2.683901 -1.55874 -3 -0.795609 -3 0 
C -3 0.795609 -2.683901 1.55874 -2.12132 2.12132 
C -1.55874 2.683901 -0.795609 3 0 3 
z
" style="stroke: #443983; stroke-opacity: 0.8"/>
    </defs>
    <g clip-path="url(#p3440f2f7db)">
     <use xlink:href="#m1d96b37800" x="63.874525" y="179.141706" style="fill: #443983; fill-opacity: 0.8; stroke: #443983; stroke-opacity: 0.8"/>
     <use xlink:href="#m1d96b37800" x="119.683052" y="179.933408" style="fill: #443983; fill-opacity: 0.8; stroke: #443983; stroke-opacity: 0.8"/>
     <use xlink:href="#m1d96b37800" x="273.156501" y="181.824892" style="fill: #443983; fill-opacity: 0.8; stroke: #443983; stroke-opacity: 0.8"/>
     <use xlink:href="#m1d96b37800" x="112.706986" y="176.825359" style="fill: #443983; fill-opacity: 0.8; stroke: #443983; stroke-opacity: 0.8"/>
     <use xlink:href="#m1d96b37800" x="175.491579" y="182.005213" style="fill: #443983; fill-opacity: 0.8; stroke: #443983; stroke-opacity: 0.8"/>
     <use xlink:href="#m1d96b37800" x="147.587316" y="183.481911" style="fill: #443983; fill-opacity: 0.8; stroke: #443983; stroke-opacity: 0.8"/>
    </g>
   </g>
   <g id="PolyCollection_1">
    <defs>
     <path id="mdf6f282b74" d="M 63.874525 -175.362801 
L 63.874525 -166.781725 
L 65.988485 -166.779242 
L 68.102444 -166.776759 
L 70.216403 -166.774275 
L 72.330363 -166.771792 
L 74.444322 -166.769309 
L 76.558281 -166.766825 
L 78.672241 -166.764342 
L 80.7862 -166.761859 
L 82.900159 -166.759375 
L 85.014119 -166.756892 
L 87.128078 -166.754409 
L 89.242037 -166.751925 
L 91.355997 -166.749442 
L 93.469956 -166.746958 
L 95.583915 -166.744475 
L 97.697875 -166.741992 
L 99.811834 -166.739508 
L 101.925794 -166.737025 
L 104.039753 -166.733185 
L 106.153712 -166.715138 
L 108.267672 -166.697091 
L 110.381631 -166.679045 
L 112.49559 -166.661051 
L 114.60955 -166.657093 
L 116.723509 -166.66092 
L 118.837468 -166.664747 
L 120.951428 -166.668575 
L 123.065387 -166.655531 
L 125.179346 -166.653741 
L 127.293306 -166.654125 
L 129.407265 -166.582566 
L 131.521225 -166.493791 
L 133.635184 -166.387996 
L 135.749143 -166.382738 
L 137.863103 -166.382249 
L 139.977062 -166.13432 
L 142.091021 -165.991072 
L 144.204981 -165.765471 
L 146.31894 -165.648542 
L 148.432899 -165.626854 
L 150.546859 -165.563172 
L 152.660818 -165.588129 
L 154.774777 -165.614455 
L 156.888737 -165.596915 
L 159.002696 -165.497898 
L 161.116655 -165.470191 
L 163.230615 -165.340879 
L 165.344574 -165.202519 
L 167.458534 -165.034456 
L 169.572493 -164.921648 
L 171.686452 -164.786901 
L 173.800412 -164.555755 
L 175.914371 -164.41615 
L 178.02833 -164.26034 
L 180.14229 -164.056005 
L 182.256249 -163.850583 
L 184.370208 -163.645162 
L 186.484168 -163.43974 
L 188.598127 -163.310905 
L 190.712086 -163.193164 
L 192.826046 -163.075898 
L 194.940005 -162.95924 
L 197.053965 -162.842583 
L 199.167924 -162.725925 
L 201.281883 -162.585999 
L 203.395843 -162.398775 
L 205.509802 -162.286512 
L 207.623761 -162.159902 
L 209.737721 -161.962445 
L 211.85168 -161.764989 
L 213.965639 -161.585527 
L 216.079599 -161.448006 
L 218.193558 -161.310484 
L 220.307517 -161.172963 
L 222.421477 -161.035441 
L 224.535436 -160.890694 
L 226.649395 -160.722257 
L 228.763355 -160.55382 
L 230.877314 -160.385383 
L 232.991274 -160.216945 
L 235.105233 -160.048508 
L 237.219192 -159.880071 
L 239.333152 -159.711634 
L 241.447111 -159.543197 
L 243.56107 -159.374759 
L 245.67503 -159.206322 
L 247.788989 -159.037885 
L 249.902948 -158.869448 
L 252.016908 -158.70101 
L 254.130867 -158.519895 
L 256.244826 -158.335722 
L 258.358786 -158.151549 
L 260.472745 -157.967376 
L 262.586705 -157.783203 
L 264.700664 -157.599029 
L 266.814623 -157.414856 
L 268.928583 -157.230683 
L 271.042542 -157.04651 
L 273.156501 -156.862337 
L 273.156501 -167.463605 
L 273.156501 -167.463605 
L 271.042542 -167.504906 
L 268.928583 -167.546207 
L 266.814623 -167.587507 
L 264.700664 -167.628808 
L 262.586705 -167.670109 
L 260.472745 -167.711409 
L 258.358786 -167.75271 
L 256.244826 -167.79401 
L 254.130867 -167.835311 
L 252.016908 -167.876612 
L 249.902948 -167.917912 
L 247.788989 -167.959213 
L 245.67503 -167.992781 
L 243.56107 -168.02472 
L 241.447111 -168.05666 
L 239.333152 -168.088599 
L 237.219192 -168.120539 
L 235.105233 -168.166476 
L 232.991274 -168.21395 
L 230.877314 -168.261424 
L 228.763355 -168.308899 
L 226.649395 -168.356373 
L 224.535436 -168.403848 
L 222.421477 -168.451322 
L 220.307517 -168.496121 
L 218.193558 -168.537422 
L 216.079599 -168.578723 
L 213.965639 -168.620023 
L 211.85168 -168.661324 
L 209.737721 -168.642272 
L 207.623761 -168.702087 
L 205.509802 -168.761902 
L 203.395843 -168.821717 
L 201.281883 -168.867827 
L 199.167924 -168.909128 
L 197.053965 -168.950429 
L 194.940005 -168.991729 
L 192.826046 -169.03303 
L 190.712086 -169.074331 
L 188.598127 -169.115631 
L 186.484168 -169.156932 
L 184.370208 -169.198232 
L 182.256249 -169.23969 
L 180.14229 -169.280834 
L 178.02833 -169.322134 
L 175.914371 -169.363435 
L 173.800412 -169.404736 
L 171.686452 -169.446036 
L 169.572493 -169.487337 
L 167.458534 -169.528638 
L 165.344574 -169.569938 
L 163.230615 -169.611239 
L 161.116655 -169.65254 
L 159.002696 -169.69384 
L 156.888737 -169.735141 
L 154.774777 -169.776442 
L 152.660818 -169.817742 
L 150.546859 -169.826626 
L 148.432899 -169.824109 
L 146.31894 -169.880718 
L 144.204981 -169.945033 
L 142.091021 -170.009685 
L 139.977062 -170.065546 
L 137.863103 -170.106847 
L 135.749143 -170.148147 
L 133.635184 -170.189812 
L 131.521225 -170.2315 
L 129.407265 -170.273187 
L 127.293306 -170.335947 
L 125.179346 -170.381923 
L 123.065387 -170.548135 
L 120.951428 -170.601007 
L 118.837468 -170.756251 
L 116.723509 -170.860844 
L 114.60955 -171.040081 
L 112.49559 -171.164106 
L 110.381631 -171.438188 
L 108.267672 -171.519329 
L 106.153712 -171.75544 
L 104.039753 -171.949641 
L 101.925794 -172.120126 
L 99.811834 -172.29061 
L 97.697875 -172.461094 
L 95.583915 -172.633096 
L 93.469956 -172.804811 
L 91.355997 -172.976009 
L 89.242037 -173.147207 
L 87.128078 -173.318175 
L 85.014119 -173.488561 
L 82.900159 -173.658948 
L 80.7862 -173.829335 
L 78.672241 -174.059398 
L 76.558281 -174.325668 
L 74.444322 -174.501712 
L 72.330363 -174.670843 
L 70.216403 -174.839209 
L 68.102444 -175.006596 
L 65.988485 -175.173982 
L 63.874525 -175.362801 
z
" style="stroke: #ffffff; stroke-opacity: 0.15"/>
    </defs>
    <g clip-path="url(#p3440f2f7db)">
     <use xlink:href="#mdf6f282b74" x="0" y="348.774844" style="fill: #443983; fill-opacity: 0.15; stroke: #ffffff; stroke-opacity: 0.15"/>
    </g>
   </g>
   <g id="PathCollection_2">
    <defs>
     <path id="m1215863f44" d="M 0 3 
C 0.795609 3 1.55874 2.683901 2.12132 2.12132 
C 2.683901 1.55874 3 0.795609 3 0 
C 3 -0.795609 2.683901 -1.55874 2.12132 -2.12132 
C 1.55874 -2.683901 0.795609 -3 0 -3 
C -0.795609 -3 -1.55874 -2.683901 -2.12132 -2.12132 
C -2.683901 -1.55874 -3 -0.795609 -3 0 
C -3 0.795609 -2.683901 1.55874 -2.12132 2.12132 
C -1.55874 2.683901 -0.795609 3 0 3 
z
" style="stroke: #31688e; stroke-opacity: 0.8"/>
    </defs>
    <g clip-path="url(#p3440f2f7db)">
     <use xlink:href="#m1215863f44" x="105.73092" y="187.00601" style="fill: #31688e; fill-opacity: 0.8; stroke: #31688e; stroke-opacity: 0.8"/>
     <use xlink:href="#m1215863f44" x="147.587316" y="182.282701" style="fill: #31688e; fill-opacity: 0.8; stroke: #31688e; stroke-opacity: 0.8"/>
     <use xlink:href="#m1215863f44" x="84.802723" y="195.496929" style="fill: #31688e; fill-opacity: 0.8; stroke: #31688e; stroke-opacity: 0.8"/>
     <use xlink:href="#m1215863f44" x="105.73092" y="185.640674" style="fill: #31688e; fill-opacity: 0.8; stroke: #31688e; stroke-opacity: 0.8"/>
    </g>
   </g>
   <g id="PolyCollection_2">
    <defs>
     <path id="m5d689c4274" d="M 84.802723 -161.455183 
L 84.802723 -153.277915 
L 85.436911 -153.411392 
L 86.071098 -153.544869 
L 86.705286 -153.678346 
L 87.339474 -153.811823 
L 87.973662 -153.9453 
L 88.60785 -154.078777 
L 89.242037 -154.212254 
L 89.876225 -154.345731 
L 90.510413 -154.479208 
L 91.144601 -154.612685 
L 91.778789 -154.746162 
L 92.412976 -154.879639 
L 93.047164 -155.013117 
L 93.681352 -155.146594 
L 94.31554 -155.280071 
L 94.949728 -155.413548 
L 95.583915 -155.547025 
L 96.218103 -155.680502 
L 96.852291 -155.813979 
L 97.486479 -155.947456 
L 98.120667 -156.080933 
L 98.754855 -156.21441 
L 99.389042 -156.347887 
L 100.02323 -156.481364 
L 100.657418 -156.614841 
L 101.291606 -156.748318 
L 101.925794 -156.881795 
L 102.559981 -157.015272 
L 103.194169 -157.148749 
L 103.828357 -157.282226 
L 104.462545 -157.415703 
L 105.096733 -157.549181 
L 105.73092 -157.682658 
L 106.365108 -157.816135 
L 106.999296 -157.949612 
L 107.633484 -158.083089 
L 108.267672 -158.216566 
L 108.901859 -158.350043 
L 109.536047 -158.48352 
L 110.170235 -158.616997 
L 110.804423 -158.750474 
L 111.438611 -158.883951 
L 112.072798 -159.017428 
L 112.706986 -159.150905 
L 113.341174 -159.284382 
L 113.975362 -159.417859 
L 114.60955 -159.551336 
L 115.243737 -159.684813 
L 115.877925 -159.81829 
L 116.512113 -159.951768 
L 117.146301 -160.085245 
L 117.780489 -160.218722 
L 118.414677 -160.352199 
L 119.048864 -160.485676 
L 119.683052 -160.619153 
L 120.31724 -160.75263 
L 120.951428 -160.886107 
L 121.585616 -161.019584 
L 122.219803 -161.153061 
L 122.853991 -161.286538 
L 123.488179 -161.420015 
L 124.122367 -161.553492 
L 124.756555 -161.686969 
L 125.390742 -161.820446 
L 126.02493 -161.953923 
L 126.659118 -162.0874 
L 127.293306 -162.220877 
L 127.927494 -162.354354 
L 128.561681 -162.487832 
L 129.195869 -162.621309 
L 129.830057 -162.754786 
L 130.464245 -162.888263 
L 131.098433 -163.02174 
L 131.73262 -163.155217 
L 132.366808 -163.288694 
L 133.000996 -163.422171 
L 133.635184 -163.555648 
L 134.269372 -163.689125 
L 134.903559 -163.822602 
L 135.537747 -163.956079 
L 136.171935 -164.089556 
L 136.806123 -164.223033 
L 137.440311 -164.35651 
L 138.074499 -164.489987 
L 138.708686 -164.623464 
L 139.342874 -164.756941 
L 139.977062 -164.890418 
L 140.61125 -165.023896 
L 141.245438 -165.157373 
L 141.879625 -165.29085 
L 142.513813 -165.424327 
L 143.148001 -165.557804 
L 143.782189 -165.691281 
L 144.416377 -165.824758 
L 145.050564 -165.958235 
L 145.684752 -166.091712 
L 146.31894 -166.225189 
L 146.953128 -166.358666 
L 147.587316 -166.492143 
L 147.587316 -182.84668 
L 147.587316 -182.84668 
L 146.953128 -182.548005 
L 146.31894 -182.249331 
L 145.684752 -181.950657 
L 145.050564 -181.651982 
L 144.416377 -181.353308 
L 143.782189 -181.054633 
L 143.148001 -180.755959 
L 142.513813 -180.457285 
L 141.879625 -180.15861 
L 141.245438 -179.859936 
L 140.61125 -179.561261 
L 139.977062 -179.262587 
L 139.342874 -178.963913 
L 138.708686 -178.665238 
L 138.074499 -178.366564 
L 137.440311 -178.067889 
L 136.806123 -177.769215 
L 136.171935 -177.470541 
L 135.537747 -177.171866 
L 134.903559 -176.873192 
L 134.269372 -176.574517 
L 133.635184 -176.275843 
L 133.000996 -175.977169 
L 132.366808 -175.678494 
L 131.73262 -175.37982 
L 131.098433 -175.081145 
L 130.464245 -174.782471 
L 129.830057 -174.483797 
L 129.195869 -174.185122 
L 128.561681 -173.886448 
L 127.927494 -173.587774 
L 127.293306 -173.289099 
L 126.659118 -172.990425 
L 126.02493 -172.69175 
L 125.390742 -172.393076 
L 124.756555 -172.094402 
L 124.122367 -171.795727 
L 123.488179 -171.497053 
L 122.853991 -171.198378 
L 122.219803 -170.899704 
L 121.585616 -170.60103 
L 120.951428 -170.302355 
L 120.31724 -170.003681 
L 119.683052 -169.705006 
L 119.048864 -169.406332 
L 118.414677 -169.107658 
L 117.780489 -168.808983 
L 117.146301 -168.510309 
L 116.512113 -168.211634 
L 115.877925 -167.91296 
L 115.243737 -167.614286 
L 114.60955 -167.315611 
L 113.975362 -167.016937 
L 113.341174 -166.718262 
L 112.706986 -166.419588 
L 112.072798 -166.120914 
L 111.438611 -165.822239 
L 110.804423 -165.523565 
L 110.170235 -165.224891 
L 109.536047 -164.926216 
L 108.901859 -164.627542 
L 108.267672 -164.328867 
L 107.633484 -164.030193 
L 106.999296 -163.731519 
L 106.365108 -163.432844 
L 105.73092 -163.13417 
L 105.096733 -163.083291 
L 104.462545 -163.032413 
L 103.828357 -162.981535 
L 103.194169 -162.930656 
L 102.559981 -162.879778 
L 101.925794 -162.828899 
L 101.291606 -162.778021 
L 100.657418 -162.727143 
L 100.02323 -162.676264 
L 99.389042 -162.625386 
L 98.754855 -162.574508 
L 98.120667 -162.523629 
L 97.486479 -162.472751 
L 96.852291 -162.421872 
L 96.218103 -162.370994 
L 95.583915 -162.320116 
L 94.949728 -162.269237 
L 94.31554 -162.218359 
L 93.681352 -162.16748 
L 93.047164 -162.116602 
L 92.412976 -162.065724 
L 91.778789 -162.014845 
L 91.144601 -161.963967 
L 90.510413 -161.913089 
L 89.876225 -161.86221 
L 89.242037 -161.811332 
L 88.60785 -161.760453 
L 87.973662 -161.709575 
L 87.339474 -161.658697 
L 86.705286 -161.607818 
L 86.071098 -161.55694 
L 85.436911 -161.506061 
L 84.802723 -161.455183 
z
" style="stroke: #ffffff; stroke-opacity: 0.15"/>
    </defs>
    <g clip-path="url(#p3440f2f7db)">
     <use xlink:href="#m5d689c4274" x="0" y="348.774844" style="fill: #31688e; fill-opacity: 0.15; stroke: #ffffff; stroke-opacity: 0.15"/>
    </g>
   </g>
   <g id="PathCollection_3">
    <defs>
     <path id="m19b4e3d7e8" d="M 0 3 
C 0.795609 3 1.55874 2.683901 2.12132 2.12132 
C 2.683901 1.55874 3 0.795609 3 0 
C 3 -0.795609 2.683901 -1.55874 2.12132 -2.12132 
C 1.55874 -2.683901 0.795609 -3 0 -3 
C -0.795609 -3 -1.55874 -2.683901 -2.12132 -2.12132 
C -2.683901 -1.55874 -3 -0.795609 -3 0 
C -3 0.795609 -2.683901 1.55874 -2.12132 2.12132 
C -1.55874 2.683901 -0.795609 3 0 3 
z
" style="stroke: #21918c; stroke-opacity: 0.8"/>
    </defs>
    <g clip-path="url(#p3440f2f7db)">
     <use xlink:href="#m19b4e3d7e8" x="91.778789" y="182.972569" style="fill: #21918c; fill-opacity: 0.8; stroke: #21918c; stroke-opacity: 0.8"/>
     <use xlink:href="#m19b4e3d7e8" x="133.635184" y="184.554895" style="fill: #21918c; fill-opacity: 0.8; stroke: #21918c; stroke-opacity: 0.8"/>
     <use xlink:href="#m19b4e3d7e8" x="133.635184" y="182.258602" style="fill: #21918c; fill-opacity: 0.8; stroke: #21918c; stroke-opacity: 0.8"/>
     <use xlink:href="#m19b4e3d7e8" x="98.754855" y="184.885733" style="fill: #21918c; fill-opacity: 0.8; stroke: #21918c; stroke-opacity: 0.8"/>
     <use xlink:href="#m19b4e3d7e8" x="328.965028" y="191.254447" style="fill: #21918c; fill-opacity: 0.8; stroke: #21918c; stroke-opacity: 0.8"/>
     <use xlink:href="#m19b4e3d7e8" x="196.419777" y="175.667998" style="fill: #21918c; fill-opacity: 0.8; stroke: #21918c; stroke-opacity: 0.8"/>
    </g>
   </g>
   <g id="PolyCollection_3">
    <defs>
     <path id="m484e4792d2" d="M 91.778789 -171.957418 
L 91.778789 -161.394706 
L 94.174609 -161.651444 
L 96.57043 -161.908182 
L 98.96625 -162.165308 
L 101.362071 -162.4227 
L 103.757892 -162.517044 
L 106.153712 -162.718504 
L 108.549533 -162.983969 
L 110.945353 -163.249434 
L 113.341174 -163.484796 
L 115.736995 -163.701359 
L 118.132815 -163.812381 
L 120.528636 -163.834823 
L 122.924456 -163.831753 
L 125.320277 -163.829203 
L 127.716098 -163.75539 
L 130.111918 -163.720253 
L 132.507739 -163.683038 
L 134.903559 -163.607594 
L 137.29938 -163.53215 
L 139.695201 -163.456706 
L 142.091021 -163.381261 
L 144.486842 -163.305817 
L 146.882662 -163.230373 
L 149.278483 -163.154929 
L 151.674304 -163.079485 
L 154.070124 -163.004174 
L 156.465945 -162.928871 
L 158.861766 -162.853568 
L 161.257586 -162.778265 
L 163.653407 -162.702962 
L 166.049227 -162.627659 
L 168.445048 -162.552357 
L 170.840869 -162.477054 
L 173.236689 -162.403449 
L 175.63251 -162.335222 
L 178.02833 -162.26688 
L 180.424151 -162.198539 
L 182.819972 -162.130197 
L 185.215792 -162.061856 
L 187.611613 -161.993514 
L 190.007433 -161.925173 
L 192.403254 -161.850189 
L 194.799075 -161.775137 
L 197.194895 -161.700085 
L 199.590716 -161.625033 
L 201.986536 -161.549981 
L 204.382357 -161.474929 
L 206.778178 -161.399876 
L 209.173998 -161.324824 
L 211.569819 -161.249772 
L 213.965639 -161.17472 
L 216.36146 -161.099668 
L 218.757281 -161.024616 
L 221.153101 -160.9495 
L 223.548922 -160.871989 
L 225.944742 -160.794478 
L 228.340563 -160.716966 
L 230.736384 -160.639455 
L 233.132204 -160.561943 
L 235.528025 -160.4845 
L 237.923845 -160.407156 
L 240.319666 -160.329811 
L 242.715487 -160.252467 
L 245.111307 -160.175029 
L 247.507128 -160.097461 
L 249.902948 -160.019893 
L 252.298769 -159.942324 
L 254.69459 -159.864756 
L 257.09041 -159.787188 
L 259.486231 -159.711551 
L 261.882051 -159.639878 
L 264.277872 -159.568206 
L 266.673693 -159.496533 
L 269.069513 -159.424861 
L 271.465334 -159.353188 
L 273.861154 -159.281515 
L 276.256975 -159.209843 
L 278.652796 -159.13817 
L 281.048616 -159.066497 
L 283.444437 -158.991724 
L 285.840257 -158.91576 
L 288.236078 -158.83876 
L 290.631899 -158.760555 
L 293.027719 -158.68235 
L 295.42354 -158.607256 
L 297.81936 -158.53407 
L 300.215181 -158.457104 
L 302.611002 -158.378122 
L 305.006822 -158.298515 
L 307.402643 -158.219478 
L 309.798463 -158.146897 
L 312.194284 -158.072923 
L 314.590105 -157.996082 
L 316.985925 -157.919213 
L 319.381746 -157.841587 
L 321.777566 -157.762795 
L 324.173387 -157.684002 
L 326.569208 -157.602571 
L 328.965028 -157.520397 
L 328.965028 -186.421743 
L 328.965028 -186.421743 
L 326.569208 -186.175413 
L 324.173387 -185.929083 
L 321.777566 -185.682753 
L 319.381746 -185.436423 
L 316.985925 -185.190093 
L 314.590105 -184.943763 
L 312.194284 -184.697432 
L 309.798463 -184.451102 
L 307.402643 -184.204772 
L 305.006822 -183.958442 
L 302.611002 -183.712112 
L 300.215181 -183.465782 
L 297.81936 -183.219452 
L 295.42354 -182.973122 
L 293.027719 -182.726792 
L 290.631899 -182.480387 
L 288.236078 -182.233895 
L 285.840257 -181.987402 
L 283.444437 -181.74091 
L 281.048616 -181.494418 
L 278.652796 -181.247926 
L 276.256975 -181.001433 
L 273.861154 -180.754941 
L 271.465334 -180.508449 
L 269.069513 -180.261957 
L 266.673693 -180.015464 
L 264.277872 -179.768972 
L 261.882051 -179.52248 
L 259.486231 -179.275988 
L 257.09041 -179.029495 
L 254.69459 -178.783003 
L 252.298769 -178.536511 
L 249.902948 -178.290019 
L 247.507128 -178.043526 
L 245.111307 -177.80238 
L 242.715487 -177.566773 
L 240.319666 -177.331165 
L 237.923845 -177.074809 
L 235.528025 -176.817828 
L 233.132204 -176.564668 
L 230.736384 -176.318445 
L 228.340563 -176.072222 
L 225.944742 -175.825999 
L 223.548922 -175.579775 
L 221.153101 -175.333552 
L 218.757281 -175.089166 
L 216.36146 -174.860021 
L 213.965639 -174.630876 
L 211.569819 -174.401731 
L 209.173998 -174.154176 
L 206.778178 -173.948775 
L 204.382357 -173.745055 
L 201.986536 -173.541336 
L 199.590716 -173.335197 
L 197.194895 -173.108561 
L 194.799075 -172.8972 
L 192.403254 -172.611774 
L 190.007433 -172.340317 
L 187.611613 -172.124006 
L 185.215792 -171.956763 
L 182.819972 -171.775149 
L 180.424151 -171.565593 
L 178.02833 -171.360977 
L 175.63251 -171.146482 
L 173.236689 -171.000447 
L 170.840869 -170.808233 
L 168.445048 -170.60931 
L 166.049227 -170.420082 
L 163.653407 -170.224703 
L 161.257586 -170.078103 
L 158.861766 -169.890101 
L 156.465945 -169.809693 
L 154.070124 -169.652735 
L 151.674304 -169.615365 
L 149.278483 -169.528828 
L 146.882662 -169.598779 
L 144.486842 -169.454755 
L 142.091021 -169.540376 
L 139.695201 -169.625997 
L 137.29938 -169.711618 
L 134.903559 -169.797239 
L 132.507739 -169.88512 
L 130.111918 -170.008962 
L 127.716098 -170.132804 
L 125.320277 -170.256646 
L 122.924456 -170.380488 
L 120.528636 -170.494481 
L 118.132815 -170.574306 
L 115.736995 -170.690671 
L 113.341174 -170.817346 
L 110.945353 -170.944021 
L 108.549533 -171.070695 
L 106.153712 -171.19737 
L 103.757892 -171.324045 
L 101.362071 -171.45072 
L 98.96625 -171.577394 
L 96.57043 -171.704069 
L 94.174609 -171.830744 
L 91.778789 -171.957418 
z
" style="stroke: #ffffff; stroke-opacity: 0.15"/>
    </defs>
    <g clip-path="url(#p3440f2f7db)">
     <use xlink:href="#m484e4792d2" x="0" y="348.774844" style="fill: #21918c; fill-opacity: 0.15; stroke: #ffffff; stroke-opacity: 0.15"/>
    </g>
   </g>
   <g id="PathCollection_4">
    <defs>
     <path id="md8c1e8d1b7" d="M 0 3 
C 0.795609 3 1.55874 2.683901 2.12132 2.12132 
C 2.683901 1.55874 3 0.795609 3 0 
C 3 -0.795609 2.683901 -1.55874 2.12132 -2.12132 
C 1.55874 -2.683901 0.795609 -3 0 -3 
C -0.795609 -3 -1.55874 -2.683901 -2.12132 -2.12132 
C -2.683901 -1.55874 -3 -0.795609 -3 0 
C -3 0.795609 -2.683901 1.55874 -2.12132 2.12132 
C -1.55874 2.683901 -0.795609 3 0 3 
z
" style="stroke: #35b779; stroke-opacity: 0.8"/>
    </defs>
    <g clip-path="url(#p3440f2f7db)">
     <use xlink:href="#md8c1e8d1b7" x="126.659118" y="190.354649" style="fill: #35b779; fill-opacity: 0.8; stroke: #35b779; stroke-opacity: 0.8"/>
     <use xlink:href="#md8c1e8d1b7" x="196.419777" y="191.354385" style="fill: #35b779; fill-opacity: 0.8; stroke: #35b779; stroke-opacity: 0.8"/>
     <use xlink:href="#md8c1e8d1b7" x="112.706986" y="169.770125" style="fill: #35b779; fill-opacity: 0.8; stroke: #35b779; stroke-opacity: 0.8"/>
     <use xlink:href="#md8c1e8d1b7" x="105.73092" y="182.182408" style="fill: #35b779; fill-opacity: 0.8; stroke: #35b779; stroke-opacity: 0.8"/>
    </g>
   </g>
   <g id="PolyCollection_4">
    <defs>
     <path id="me455d6c652" d="M 105.73092 -189.296981 
L 105.73092 -158.720115 
L 106.646969 -158.706987 
L 107.563018 -158.693859 
L 108.479068 -158.680731 
L 109.395117 -158.667604 
L 110.311166 -158.654476 
L 111.227215 -158.641348 
L 112.143264 -158.62822 
L 113.059313 -158.615092 
L 113.975362 -158.601964 
L 114.891411 -158.588837 
L 115.80746 -158.575709 
L 116.723509 -158.562581 
L 117.639558 -158.549453 
L 118.555607 -158.536325 
L 119.471656 -158.523197 
L 120.387705 -158.51007 
L 121.303754 -158.496942 
L 122.219803 -158.483814 
L 123.135852 -158.470686 
L 124.051901 -158.457558 
L 124.967951 -158.44443 
L 125.884 -158.431302 
L 126.800049 -158.21227 
L 127.716098 -156.860761 
L 128.632147 -155.509251 
L 129.548196 -154.157742 
L 130.464245 -152.806233 
L 131.380294 -151.454724 
L 132.296343 -150.103215 
L 133.212392 -148.751705 
L 134.128441 -147.400196 
L 135.04449 -146.048687 
L 135.960539 -144.697178 
L 136.876588 -143.345669 
L 137.792637 -141.994159 
L 138.708686 -140.64265 
L 139.624735 -139.291141 
L 140.540784 -137.939632 
L 141.456833 -136.588123 
L 142.372883 -135.236614 
L 143.288932 -133.885104 
L 144.204981 -132.533595 
L 145.12103 -131.182086 
L 146.037079 -129.830577 
L 146.953128 -128.479068 
L 147.869177 -127.127558 
L 148.785226 -125.776049 
L 149.701275 -124.42454 
L 150.617324 -123.073031 
L 151.533373 -121.721522 
L 152.449422 -120.370012 
L 153.365471 -119.018503 
L 154.28152 -117.666994 
L 155.197569 -116.315485 
L 156.113618 -114.963976 
L 157.029667 -113.612466 
L 157.945716 -112.260957 
L 158.861766 -110.909448 
L 159.777815 -109.557939 
L 160.693864 -108.20643 
L 161.609913 -106.85492 
L 162.525962 -105.503411 
L 163.442011 -104.151902 
L 164.35806 -102.800393 
L 165.274109 -101.448884 
L 166.190158 -100.097374 
L 167.106207 -98.745865 
L 168.022256 -97.394356 
L 168.938305 -96.042847 
L 169.854354 -94.691338 
L 170.770403 -93.339828 
L 171.686452 -91.988319 
L 172.602501 -90.63681 
L 173.51855 -89.285301 
L 174.434599 -87.933792 
L 175.350648 -86.582282 
L 176.266698 -85.230773 
L 177.182747 -83.879264 
L 178.098796 -82.527755 
L 179.014845 -81.176246 
L 179.930894 -79.824737 
L 180.846943 -78.473227 
L 181.762992 -77.121718 
L 182.679041 -75.770209 
L 183.59509 -74.4187 
L 184.511139 -73.067191 
L 185.427188 -71.715681 
L 186.343237 -70.364172 
L 187.259286 -69.012663 
L 188.175335 -67.661154 
L 189.091384 -66.309645 
L 190.007433 -64.958135 
L 190.923482 -63.606626 
L 191.839531 -62.255117 
L 192.755581 -60.903608 
L 193.67163 -59.552099 
L 194.587679 -58.200589 
L 195.503728 -56.84908 
L 196.419777 -55.497571 
L 196.419777 -327.952116 
L 196.419777 -327.952116 
L 195.503728 -326.322221 
L 194.587679 -324.692325 
L 193.67163 -323.062429 
L 192.755581 -321.432533 
L 191.839531 -319.802638 
L 190.923482 -318.172742 
L 190.007433 -316.542846 
L 189.091384 -314.91295 
L 188.175335 -313.283055 
L 187.259286 -311.653159 
L 186.343237 -310.023263 
L 185.427188 -308.393367 
L 184.511139 -306.763472 
L 183.59509 -305.133576 
L 182.679041 -303.50368 
L 181.762992 -301.873784 
L 180.846943 -300.243888 
L 179.930894 -298.613993 
L 179.014845 -296.984097 
L 178.098796 -295.354201 
L 177.182747 -293.724305 
L 176.266698 -292.09441 
L 175.350648 -290.464514 
L 174.434599 -288.834618 
L 173.51855 -287.204722 
L 172.602501 -285.574827 
L 171.686452 -283.944931 
L 170.770403 -282.315035 
L 169.854354 -280.685139 
L 168.938305 -279.055244 
L 168.022256 -277.425348 
L 167.106207 -275.795452 
L 166.190158 -274.165556 
L 165.274109 -272.535661 
L 164.35806 -270.905765 
L 163.442011 -269.275869 
L 162.525962 -267.645973 
L 161.609913 -266.016077 
L 160.693864 -264.386182 
L 159.777815 -262.756286 
L 158.861766 -261.12639 
L 157.945716 -259.496494 
L 157.029667 -257.866599 
L 156.113618 -256.236703 
L 155.197569 -254.606807 
L 154.28152 -252.976911 
L 153.365471 -251.347016 
L 152.449422 -249.71712 
L 151.533373 -248.087224 
L 150.617324 -246.457328 
L 149.701275 -244.827433 
L 148.785226 -243.197537 
L 147.869177 -241.567641 
L 146.953128 -239.937745 
L 146.037079 -238.307849 
L 145.12103 -236.677954 
L 144.204981 -235.048058 
L 143.288932 -233.418162 
L 142.372883 -231.788266 
L 141.456833 -230.158371 
L 140.540784 -228.528475 
L 139.624735 -226.898579 
L 138.708686 -225.268683 
L 137.792637 -223.638788 
L 136.876588 -222.008892 
L 135.960539 -220.378996 
L 135.04449 -218.7491 
L 134.128441 -217.119205 
L 133.212392 -215.489309 
L 132.296343 -213.859413 
L 131.380294 -212.229517 
L 130.464245 -210.599621 
L 129.548196 -208.969726 
L 128.632147 -207.33983 
L 127.716098 -205.709934 
L 126.800049 -204.080038 
L 125.884 -202.450143 
L 124.967951 -200.820247 
L 124.051901 -199.190351 
L 123.135852 -197.560455 
L 122.219803 -195.93056 
L 121.303754 -194.300664 
L 120.387705 -192.670768 
L 119.471656 -191.040872 
L 118.555607 -189.410977 
L 117.639558 -187.781081 
L 116.723509 -186.151185 
L 115.80746 -184.521289 
L 114.891411 -182.891393 
L 113.975362 -181.261498 
L 113.059313 -179.631602 
L 112.143264 -179.836417 
L 111.227215 -181.187926 
L 110.311166 -182.539435 
L 109.395117 -183.890945 
L 108.479068 -185.242454 
L 107.563018 -186.593963 
L 106.646969 -187.945472 
L 105.73092 -189.296981 
z
" style="stroke: #ffffff; stroke-opacity: 0.15"/>
    </defs>
    <g clip-path="url(#p3440f2f7db)">
     <use xlink:href="#me455d6c652" x="0" y="348.774844" style="fill: #35b779; fill-opacity: 0.15; stroke: #ffffff; stroke-opacity: 0.15"/>
    </g>
   </g>
   <g id="PathCollection_5">
    <defs>
     <path id="m405bad5b49" d="M 0 3 
C 0.795609 3 1.55874 2.683901 2.12132 2.12132 
C 2.683901 1.55874 3 0.795609 3 0 
C 3 -0.795609 2.683901 -1.55874 2.12132 -2.12132 
C 1.55874 -2.683901 0.795609 -3 0 -3 
C -0.795609 -3 -1.55874 -2.683901 -2.12132 -2.12132 
C -2.683901 -1.55874 -3 -0.795609 -3 0 
C -3 0.795609 -2.683901 1.55874 -2.12132 2.12132 
C -1.55874 2.683901 -0.795609 3 0 3 
z
" style="stroke: #90d743; stroke-opacity: 0.8"/>
    </defs>
    <g clip-path="url(#p3440f2f7db)">
     <use xlink:href="#m405bad5b49" x="119.683052" y="183.366384" style="fill: #90d743; fill-opacity: 0.8; stroke: #90d743; stroke-opacity: 0.8"/>
     <use xlink:href="#m405bad5b49" x="140.61125" y="185.619917" style="fill: #90d743; fill-opacity: 0.8; stroke: #90d743; stroke-opacity: 0.8"/>
     <use xlink:href="#m405bad5b49" x="91.778789" y="177.124684" style="fill: #90d743; fill-opacity: 0.8; stroke: #90d743; stroke-opacity: 0.8"/>
     <use xlink:href="#m405bad5b49" x="112.706986" y="183.969725" style="fill: #90d743; fill-opacity: 0.8; stroke: #90d743; stroke-opacity: 0.8"/>
    </g>
   </g>
   <g id="PolyCollection_5">
    <defs>
     <path id="mefbd9e8527" d="M 91.778789 -171.650159 
L 91.778789 -162.995097 
L 92.272046 -163.037757 
L 92.765303 -163.080418 
L 93.25856 -163.123078 
L 93.751817 -163.165738 
L 94.245075 -163.208399 
L 94.738332 -163.251059 
L 95.231589 -163.29372 
L 95.724846 -163.33638 
L 96.218103 -163.379041 
L 96.71136 -163.421701 
L 97.204618 -163.464362 
L 97.697875 -163.507022 
L 98.191132 -163.549683 
L 98.684389 -163.592343 
L 99.177646 -163.635003 
L 99.670904 -163.677664 
L 100.164161 -163.720324 
L 100.657418 -163.762985 
L 101.150675 -163.805645 
L 101.643932 -163.848306 
L 102.137189 -163.890966 
L 102.630447 -163.933627 
L 103.123704 -163.976287 
L 103.616961 -164.018948 
L 104.110218 -164.061608 
L 104.603475 -164.104269 
L 105.096733 -164.146929 
L 105.58999 -164.189589 
L 106.083247 -164.23225 
L 106.576504 -164.27491 
L 107.069761 -164.317571 
L 107.563018 -164.360231 
L 108.056276 -164.402892 
L 108.549533 -164.445552 
L 109.04279 -164.488213 
L 109.536047 -164.530873 
L 110.029304 -164.573534 
L 110.522562 -164.616194 
L 111.015819 -164.658854 
L 111.509076 -164.701515 
L 112.002333 -164.744175 
L 112.49559 -164.786836 
L 112.988848 -164.71293 
L 113.482105 -164.551599 
L 113.975362 -164.390268 
L 114.468619 -164.228937 
L 114.961876 -164.067606 
L 115.455133 -163.906275 
L 115.948391 -163.744944 
L 116.441648 -163.583613 
L 116.934905 -163.422282 
L 117.428162 -163.260951 
L 117.921419 -163.099621 
L 118.414677 -162.93829 
L 118.907934 -162.776959 
L 119.401191 -162.615628 
L 119.894448 -162.454297 
L 120.387705 -162.292966 
L 120.880962 -162.131635 
L 121.37422 -161.970304 
L 121.867477 -161.808973 
L 122.360734 -161.647642 
L 122.853991 -161.486311 
L 123.347248 -161.32498 
L 123.840506 -161.16365 
L 124.333763 -161.002319 
L 124.82702 -160.840988 
L 125.320277 -160.679657 
L 125.813534 -160.518326 
L 126.306791 -160.356995 
L 126.800049 -160.195664 
L 127.293306 -160.034333 
L 127.786563 -159.873002 
L 128.27982 -159.711671 
L 128.773077 -159.55034 
L 129.266335 -159.389009 
L 129.759592 -159.227678 
L 130.252849 -159.066348 
L 130.746106 -158.905017 
L 131.239363 -158.743686 
L 131.73262 -158.582355 
L 132.225878 -158.421024 
L 132.719135 -158.259693 
L 133.212392 -158.098362 
L 133.705649 -157.937031 
L 134.198906 -157.7757 
L 134.692164 -157.614369 
L 135.185421 -157.453038 
L 135.678678 -157.291707 
L 136.171935 -157.130377 
L 136.665192 -156.969046 
L 137.158449 -156.807715 
L 137.651707 -156.646384 
L 138.144964 -156.485053 
L 138.638221 -156.323722 
L 139.131478 -156.162391 
L 139.624735 -156.00106 
L 140.117993 -155.839729 
L 140.61125 -155.678398 
L 140.61125 -167.218482 
L 140.61125 -167.218482 
L 140.117993 -167.175821 
L 139.624735 -167.133161 
L 139.131478 -167.090501 
L 138.638221 -167.04784 
L 138.144964 -167.00518 
L 137.651707 -166.962519 
L 137.158449 -166.919859 
L 136.665192 -166.877198 
L 136.171935 -166.834538 
L 135.678678 -166.791877 
L 135.185421 -166.749217 
L 134.692164 -166.706556 
L 134.198906 -166.663896 
L 133.705649 -166.621235 
L 133.212392 -166.578575 
L 132.719135 -166.535915 
L 132.225878 -166.493254 
L 131.73262 -166.450594 
L 131.239363 -166.407933 
L 130.746106 -166.365273 
L 130.252849 -166.322612 
L 129.759592 -166.279952 
L 129.266335 -166.237291 
L 128.773077 -166.194631 
L 128.27982 -166.15197 
L 127.786563 -166.10931 
L 127.293306 -166.06665 
L 126.800049 -166.023989 
L 126.306791 -165.981329 
L 125.813534 -165.938668 
L 125.320277 -165.896008 
L 124.82702 -165.900861 
L 124.333763 -165.986671 
L 123.840506 -166.072482 
L 123.347248 -166.158292 
L 122.853991 -166.244102 
L 122.360734 -166.329913 
L 121.867477 -166.415723 
L 121.37422 -166.501534 
L 120.880962 -166.587344 
L 120.387705 -166.673155 
L 119.894448 -166.758965 
L 119.401191 -166.844775 
L 118.907934 -166.930586 
L 118.414677 -167.016396 
L 117.921419 -167.102207 
L 117.428162 -167.188017 
L 116.934905 -167.273828 
L 116.441648 -167.359638 
L 115.948391 -167.445448 
L 115.455133 -167.531259 
L 114.961876 -167.617069 
L 114.468619 -167.70288 
L 113.975362 -167.78869 
L 113.482105 -167.874501 
L 112.988848 -167.960311 
L 112.49559 -168.046121 
L 112.002333 -168.131932 
L 111.509076 -168.217742 
L 111.015819 -168.303553 
L 110.522562 -168.389363 
L 110.029304 -168.475174 
L 109.536047 -168.560984 
L 109.04279 -168.646794 
L 108.549533 -168.732605 
L 108.056276 -168.818415 
L 107.563018 -168.904226 
L 107.069761 -168.990036 
L 106.576504 -169.075847 
L 106.083247 -169.161657 
L 105.58999 -169.247467 
L 105.096733 -169.333278 
L 104.603475 -169.419088 
L 104.110218 -169.504899 
L 103.616961 -169.590709 
L 103.123704 -169.67652 
L 102.630447 -169.76233 
L 102.137189 -169.84814 
L 101.643932 -169.933951 
L 101.150675 -170.019761 
L 100.657418 -170.105572 
L 100.164161 -170.191382 
L 99.670904 -170.277193 
L 99.177646 -170.363003 
L 98.684389 -170.448813 
L 98.191132 -170.534624 
L 97.697875 -170.620434 
L 97.204618 -170.706245 
L 96.71136 -170.792055 
L 96.218103 -170.877865 
L 95.724846 -170.963676 
L 95.231589 -171.049486 
L 94.738332 -171.135297 
L 94.245075 -171.221107 
L 93.751817 -171.306918 
L 93.25856 -171.392728 
L 92.765303 -171.478538 
L 92.272046 -171.564349 
L 91.778789 -171.650159 
z
" style="stroke: #ffffff; stroke-opacity: 0.15"/>
    </defs>
    <g clip-path="url(#p3440f2f7db)">
     <use xlink:href="#mefbd9e8527" x="0" y="348.774844" style="fill: #90d743; fill-opacity: 0.15; stroke: #ffffff; stroke-opacity: 0.15"/>
    </g>
   </g>
   <g id="line2d_10">
    <path d="M 63.874525 178.987495 
L 65.988485 179.026049 
L 68.102444 179.064602 
L 70.216403 179.103155 
L 72.330363 179.141709 
L 74.444322 179.180262 
L 76.558281 179.218816 
L 78.672241 179.257369 
L 80.7862 179.295923 
L 82.900159 179.334476 
L 85.014119 179.373029 
L 87.128078 179.411583 
L 89.242037 179.450136 
L 91.355997 179.48869 
L 93.469956 179.527243 
L 95.583915 179.565796 
L 97.697875 179.60435 
L 99.811834 179.642903 
L 101.925794 179.681457 
L 104.039753 179.72001 
L 106.153712 179.758564 
L 108.267672 179.797117 
L 110.381631 179.83567 
L 112.49559 179.874224 
L 114.60955 179.912777 
L 116.723509 179.951331 
L 118.837468 179.989884 
L 120.951428 180.028437 
L 123.065387 180.066991 
L 125.179346 180.105544 
L 127.293306 180.144098 
L 129.407265 180.182651 
L 131.521225 180.221205 
L 133.635184 180.259758 
L 135.749143 180.298311 
L 137.863103 180.336865 
L 139.977062 180.375418 
L 142.091021 180.413972 
L 144.204981 180.452525 
L 146.31894 180.491078 
L 148.432899 180.529632 
L 150.546859 180.568185 
L 152.660818 180.606739 
L 154.774777 180.645292 
L 156.888737 180.683846 
L 159.002696 180.722399 
L 161.116655 180.760952 
L 163.230615 180.799506 
L 165.344574 180.838059 
L 167.458534 180.876613 
L 169.572493 180.915166 
L 171.686452 180.953719 
L 173.800412 180.992273 
L 175.914371 181.030826 
L 178.02833 181.06938 
L 180.14229 181.107933 
L 182.256249 181.146487 
L 184.370208 181.18504 
L 186.484168 181.223593 
L 188.598127 181.262147 
L 190.712086 181.3007 
L 192.826046 181.339254 
L 194.940005 181.377807 
L 197.053965 181.41636 
L 199.167924 181.454914 
L 201.281883 181.493467 
L 203.395843 181.532021 
L 205.509802 181.570574 
L 207.623761 181.609128 
L 209.737721 181.647681 
L 211.85168 181.686234 
L 213.965639 181.724788 
L 216.079599 181.763341 
L 218.193558 181.801895 
L 220.307517 181.840448 
L 222.421477 181.879001 
L 224.535436 181.917555 
L 226.649395 181.956108 
L 228.763355 181.994662 
L 230.877314 182.033215 
L 232.991274 182.071769 
L 235.105233 182.110322 
L 237.219192 182.148875 
L 239.333152 182.187429 
L 241.447111 182.225982 
L 243.56107 182.264536 
L 245.67503 182.303089 
L 247.788989 182.341642 
L 249.902948 182.380196 
L 252.016908 182.418749 
L 254.130867 182.457303 
L 256.244826 182.495856 
L 258.358786 182.53441 
L 260.472745 182.572963 
L 262.586705 182.611516 
L 264.700664 182.65007 
L 266.814623 182.688623 
L 268.928583 182.727177 
L 271.042542 182.76573 
L 273.156501 182.804283 
" clip-path="url(#p3440f2f7db)" style="fill: none; stroke: #443983; stroke-width: 2.25; stroke-linecap: round"/>
   </g>
   <g id="line2d_11">
    <path d="M 84.802723 192.485027 
L 85.436911 192.366762 
L 86.071098 192.248497 
L 86.705286 192.130231 
L 87.339474 192.011966 
L 87.973662 191.8937 
L 88.60785 191.775435 
L 89.242037 191.657169 
L 89.876225 191.538904 
L 90.510413 191.420639 
L 91.144601 191.302373 
L 91.778789 191.184108 
L 92.412976 191.065842 
L 93.047164 190.947577 
L 93.681352 190.829311 
L 94.31554 190.711046 
L 94.949728 190.592781 
L 95.583915 190.474515 
L 96.218103 190.35625 
L 96.852291 190.237984 
L 97.486479 190.119719 
L 98.120667 190.001453 
L 98.754855 189.883188 
L 99.389042 189.764922 
L 100.02323 189.646657 
L 100.657418 189.528392 
L 101.291606 189.410126 
L 101.925794 189.291861 
L 102.559981 189.173595 
L 103.194169 189.05533 
L 103.828357 188.937064 
L 104.462545 188.818799 
L 105.096733 188.700534 
L 105.73092 188.582268 
L 106.365108 188.464003 
L 106.999296 188.345737 
L 107.633484 188.227472 
L 108.267672 188.109206 
L 108.901859 187.990941 
L 109.536047 187.872676 
L 110.170235 187.75441 
L 110.804423 187.636145 
L 111.438611 187.517879 
L 112.072798 187.399614 
L 112.706986 187.281348 
L 113.341174 187.163083 
L 113.975362 187.044818 
L 114.60955 186.926552 
L 115.243737 186.808287 
L 115.877925 186.690021 
L 116.512113 186.571756 
L 117.146301 186.45349 
L 117.780489 186.335225 
L 118.414677 186.21696 
L 119.048864 186.098694 
L 119.683052 185.980429 
L 120.31724 185.862163 
L 120.951428 185.743898 
L 121.585616 185.625632 
L 122.219803 185.507367 
L 122.853991 185.389102 
L 123.488179 185.270836 
L 124.122367 185.152571 
L 124.756555 185.034305 
L 125.390742 184.91604 
L 126.02493 184.797774 
L 126.659118 184.679509 
L 127.293306 184.561244 
L 127.927494 184.442978 
L 128.561681 184.324713 
L 129.195869 184.206447 
L 129.830057 184.088182 
L 130.464245 183.969916 
L 131.098433 183.851651 
L 131.73262 183.733386 
L 132.366808 183.61512 
L 133.000996 183.496855 
L 133.635184 183.378589 
L 134.269372 183.260324 
L 134.903559 183.142058 
L 135.537747 183.023793 
L 136.171935 182.905528 
L 136.806123 182.787262 
L 137.440311 182.668997 
L 138.074499 182.550731 
L 138.708686 182.432466 
L 139.342874 182.3142 
L 139.977062 182.195935 
L 140.61125 182.07767 
L 141.245438 181.959404 
L 141.879625 181.841139 
L 142.513813 181.722873 
L 143.148001 181.604608 
L 143.782189 181.486342 
L 144.416377 181.368077 
L 145.050564 181.249812 
L 145.684752 181.131546 
L 146.31894 181.013281 
L 146.953128 180.895015 
L 147.587316 180.77675 
" clip-path="url(#p3440f2f7db)" style="fill: none; stroke: #31688e; stroke-width: 2.25; stroke-linecap: round"/>
   </g>
   <g id="line2d_12">
    <path d="M 91.778789 181.816574 
L 94.174609 181.875816 
L 96.57043 181.935057 
L 98.96625 181.994298 
L 101.362071 182.05354 
L 103.757892 182.112781 
L 106.153712 182.172022 
L 108.549533 182.231264 
L 110.945353 182.290505 
L 113.341174 182.349746 
L 115.736995 182.408987 
L 118.132815 182.468229 
L 120.528636 182.52747 
L 122.924456 182.586711 
L 125.320277 182.645953 
L 127.716098 182.705194 
L 130.111918 182.764435 
L 132.507739 182.823677 
L 134.903559 182.882918 
L 137.29938 182.942159 
L 139.695201 183.001401 
L 142.091021 183.060642 
L 144.486842 183.119883 
L 146.882662 183.179124 
L 149.278483 183.238366 
L 151.674304 183.297607 
L 154.070124 183.356848 
L 156.465945 183.41609 
L 158.861766 183.475331 
L 161.257586 183.534572 
L 163.653407 183.593814 
L 166.049227 183.653055 
L 168.445048 183.712296 
L 170.840869 183.771537 
L 173.236689 183.830779 
L 175.63251 183.89002 
L 178.02833 183.949261 
L 180.424151 184.008503 
L 182.819972 184.067744 
L 185.215792 184.126985 
L 187.611613 184.186227 
L 190.007433 184.245468 
L 192.403254 184.304709 
L 194.799075 184.363951 
L 197.194895 184.423192 
L 199.590716 184.482433 
L 201.986536 184.541674 
L 204.382357 184.600916 
L 206.778178 184.660157 
L 209.173998 184.719398 
L 211.569819 184.77864 
L 213.965639 184.837881 
L 216.36146 184.897122 
L 218.757281 184.956364 
L 221.153101 185.015605 
L 223.548922 185.074846 
L 225.944742 185.134088 
L 228.340563 185.193329 
L 230.736384 185.25257 
L 233.132204 185.311811 
L 235.528025 185.371053 
L 237.923845 185.430294 
L 240.319666 185.489535 
L 242.715487 185.548777 
L 245.111307 185.608018 
L 247.507128 185.667259 
L 249.902948 185.726501 
L 252.298769 185.785742 
L 254.69459 185.844983 
L 257.09041 185.904224 
L 259.486231 185.963466 
L 261.882051 186.022707 
L 264.277872 186.081948 
L 266.673693 186.14119 
L 269.069513 186.200431 
L 271.465334 186.259672 
L 273.861154 186.318914 
L 276.256975 186.378155 
L 278.652796 186.437396 
L 281.048616 186.496638 
L 283.444437 186.555879 
L 285.840257 186.61512 
L 288.236078 186.674361 
L 290.631899 186.733603 
L 293.027719 186.792844 
L 295.42354 186.852085 
L 297.81936 186.911327 
L 300.215181 186.970568 
L 302.611002 187.029809 
L 305.006822 187.089051 
L 307.402643 187.148292 
L 309.798463 187.207533 
L 312.194284 187.266775 
L 314.590105 187.326016 
L 316.985925 187.385257 
L 319.381746 187.444498 
L 321.777566 187.50374 
L 324.173387 187.562981 
L 326.569208 187.622222 
L 328.965028 187.681464 
" clip-path="url(#p3440f2f7db)" style="fill: none; stroke: #21918c; stroke-width: 2.25; stroke-linecap: round"/>
   </g>
   <g id="line2d_13">
    <path d="M 105.73092 179.020895 
L 106.646969 179.156673 
L 107.563018 179.29245 
L 108.479068 179.428228 
L 109.395117 179.564006 
L 110.311166 179.699783 
L 111.227215 179.835561 
L 112.143264 179.971339 
L 113.059313 180.107116 
L 113.975362 180.242894 
L 114.891411 180.378672 
L 115.80746 180.51445 
L 116.723509 180.650227 
L 117.639558 180.786005 
L 118.555607 180.921783 
L 119.471656 181.05756 
L 120.387705 181.193338 
L 121.303754 181.329116 
L 122.219803 181.464893 
L 123.135852 181.600671 
L 124.051901 181.736449 
L 124.967951 181.872226 
L 125.884 182.008004 
L 126.800049 182.143782 
L 127.716098 182.279559 
L 128.632147 182.415337 
L 129.548196 182.551115 
L 130.464245 182.686892 
L 131.380294 182.82267 
L 132.296343 182.958448 
L 133.212392 183.094225 
L 134.128441 183.230003 
L 135.04449 183.365781 
L 135.960539 183.501558 
L 136.876588 183.637336 
L 137.792637 183.773114 
L 138.708686 183.908891 
L 139.624735 184.044669 
L 140.540784 184.180447 
L 141.456833 184.316224 
L 142.372883 184.452002 
L 143.288932 184.58778 
L 144.204981 184.723558 
L 145.12103 184.859335 
L 146.037079 184.995113 
L 146.953128 185.130891 
L 147.869177 185.266668 
L 148.785226 185.402446 
L 149.701275 185.538224 
L 150.617324 185.674001 
L 151.533373 185.809779 
L 152.449422 185.945557 
L 153.365471 186.081334 
L 154.28152 186.217112 
L 155.197569 186.35289 
L 156.113618 186.488667 
L 157.029667 186.624445 
L 157.945716 186.760223 
L 158.861766 186.896 
L 159.777815 187.031778 
L 160.693864 187.167556 
L 161.609913 187.303333 
L 162.525962 187.439111 
L 163.442011 187.574889 
L 164.35806 187.710666 
L 165.274109 187.846444 
L 166.190158 187.982222 
L 167.106207 188.117999 
L 168.022256 188.253777 
L 168.938305 188.389555 
L 169.854354 188.525333 
L 170.770403 188.66111 
L 171.686452 188.796888 
L 172.602501 188.932666 
L 173.51855 189.068443 
L 174.434599 189.204221 
L 175.350648 189.339999 
L 176.266698 189.475776 
L 177.182747 189.611554 
L 178.098796 189.747332 
L 179.014845 189.883109 
L 179.930894 190.018887 
L 180.846943 190.154665 
L 181.762992 190.290442 
L 182.679041 190.42622 
L 183.59509 190.561998 
L 184.511139 190.697775 
L 185.427188 190.833553 
L 186.343237 190.969331 
L 187.259286 191.105108 
L 188.175335 191.240886 
L 189.091384 191.376664 
L 190.007433 191.512441 
L 190.923482 191.648219 
L 191.839531 191.783997 
L 192.755581 191.919774 
L 193.67163 192.055552 
L 194.587679 192.19133 
L 195.503728 192.327108 
L 196.419777 192.462885 
" clip-path="url(#p3440f2f7db)" style="fill: none; stroke: #35b779; stroke-width: 2.25; stroke-linecap: round"/>
   </g>
   <g id="line2d_14">
    <path d="M 91.778789 178.399748 
L 92.272046 178.482989 
L 92.765303 178.56623 
L 93.25856 178.649471 
L 93.751817 178.732712 
L 94.245075 178.815953 
L 94.738332 178.899194 
L 95.231589 178.982435 
L 95.724846 179.065676 
L 96.218103 179.148917 
L 96.71136 179.232158 
L 97.204618 179.315399 
L 97.697875 179.39864 
L 98.191132 179.481881 
L 98.684389 179.565122 
L 99.177646 179.648363 
L 99.670904 179.731604 
L 100.164161 179.814845 
L 100.657418 179.898086 
L 101.150675 179.981327 
L 101.643932 180.064568 
L 102.137189 180.147809 
L 102.630447 180.23105 
L 103.123704 180.314291 
L 103.616961 180.397532 
L 104.110218 180.480773 
L 104.603475 180.564014 
L 105.096733 180.647255 
L 105.58999 180.730496 
L 106.083247 180.813737 
L 106.576504 180.896978 
L 107.069761 180.980219 
L 107.563018 181.06346 
L 108.056276 181.146701 
L 108.549533 181.229942 
L 109.04279 181.313183 
L 109.536047 181.396424 
L 110.029304 181.479665 
L 110.522562 181.562906 
L 111.015819 181.646147 
L 111.509076 181.729388 
L 112.002333 181.812629 
L 112.49559 181.89587 
L 112.988848 181.979111 
L 113.482105 182.062352 
L 113.975362 182.145593 
L 114.468619 182.228834 
L 114.961876 182.312075 
L 115.455133 182.395316 
L 115.948391 182.478557 
L 116.441648 182.561798 
L 116.934905 182.645039 
L 117.428162 182.72828 
L 117.921419 182.811521 
L 118.414677 182.894762 
L 118.907934 182.978003 
L 119.401191 183.061244 
L 119.894448 183.144485 
L 120.387705 183.227726 
L 120.880962 183.310967 
L 121.37422 183.394208 
L 121.867477 183.477449 
L 122.360734 183.56069 
L 122.853991 183.643931 
L 123.347248 183.727172 
L 123.840506 183.810413 
L 124.333763 183.893654 
L 124.82702 183.976895 
L 125.320277 184.060136 
L 125.813534 184.143377 
L 126.306791 184.226618 
L 126.800049 184.309859 
L 127.293306 184.3931 
L 127.786563 184.476341 
L 128.27982 184.559582 
L 128.773077 184.642823 
L 129.266335 184.726064 
L 129.759592 184.809305 
L 130.252849 184.892546 
L 130.746106 184.975787 
L 131.239363 185.059028 
L 131.73262 185.142269 
L 132.225878 185.22551 
L 132.719135 185.308751 
L 133.212392 185.391992 
L 133.705649 185.475233 
L 134.198906 185.558474 
L 134.692164 185.641715 
L 135.185421 185.724956 
L 135.678678 185.808197 
L 136.171935 185.891438 
L 136.665192 185.974679 
L 137.158449 186.05792 
L 137.651707 186.141161 
L 138.144964 186.224402 
L 138.638221 186.307643 
L 139.131478 186.390885 
L 139.624735 186.474126 
L 140.117993 186.557367 
L 140.61125 186.640608 
" clip-path="url(#p3440f2f7db)" style="fill: none; stroke: #90d743; stroke-width: 2.25; stroke-linecap: round"/>
   </g>
   <g id="patch_3">
    <path d="M 50.62 306.9 
L 50.62 7.2 
" style="fill: none; stroke: #cccccc; stroke-width: 1.25; stroke-linejoin: miter; stroke-linecap: square"/>
   </g>
   <g id="patch_4">
    <path d="M 50.62 306.9 
L 342.219553 306.9 
" style="fill: none; stroke: #cccccc; stroke-width: 1.25; stroke-linejoin: miter; stroke-linecap: square"/>
   </g>
  </g>
  <g id="legend_1">
   <g id="text_12">
    <!-- seniority -->
    <g style="fill: #262626" transform="translate(347.003603 138.519687) scale(0.12 -0.12)">
     <defs>
      <path id="ArialMT-73" d="M 197 991 
L 753 1078 
Q 800 744 1014 566 
Q 1228 388 1613 388 
Q 2000 388 2187 545 
Q 2375 703 2375 916 
Q 2375 1106 2209 1216 
Q 2094 1291 1634 1406 
Q 1016 1563 777 1677 
Q 538 1791 414 1992 
Q 291 2194 291 2438 
Q 291 2659 392 2848 
Q 494 3038 669 3163 
Q 800 3259 1026 3326 
Q 1253 3394 1513 3394 
Q 1903 3394 2198 3281 
Q 2494 3169 2634 2976 
Q 2775 2784 2828 2463 
L 2278 2388 
Q 2241 2644 2061 2787 
Q 1881 2931 1553 2931 
Q 1166 2931 1000 2803 
Q 834 2675 834 2503 
Q 834 2394 903 2306 
Q 972 2216 1119 2156 
Q 1203 2125 1616 2013 
Q 2213 1853 2448 1751 
Q 2684 1650 2818 1456 
Q 2953 1263 2953 975 
Q 2953 694 2789 445 
Q 2625 197 2315 61 
Q 2006 -75 1616 -75 
Q 969 -75 630 194 
Q 291 463 197 991 
z
" transform="scale(0.015625)"/>
      <path id="ArialMT-74" d="M 1650 503 
L 1731 6 
Q 1494 -44 1306 -44 
Q 1000 -44 831 53 
Q 663 150 594 308 
Q 525 466 525 972 
L 525 2881 
L 113 2881 
L 113 3319 
L 525 3319 
L 525 4141 
L 1084 4478 
L 1084 3319 
L 1650 3319 
L 1650 2881 
L 1084 2881 
L 1084 941 
Q 1084 700 1114 631 
Q 1144 563 1211 522 
Q 1278 481 1403 481 
Q 1497 481 1650 503 
z
" transform="scale(0.015625)"/>
     </defs>
     <use xlink:href="#ArialMT-73"/>
     <use xlink:href="#ArialMT-65" x="50"/>
     <use xlink:href="#ArialMT-6e" x="105.615234"/>
     <use xlink:href="#ArialMT-69" x="161.230469"/>
     <use xlink:href="#ArialMT-6f" x="183.447266"/>
     <use xlink:href="#ArialMT-72" x="239.0625"/>
     <use xlink:href="#ArialMT-69" x="272.363281"/>
     <use xlink:href="#ArialMT-74" x="294.580078"/>
     <use xlink:href="#ArialMT-79" x="322.363281"/>
    </g>
   </g>
   <g id="PathCollection_6">
    <g>
     <use xlink:href="#m1d96b37800" x="361.885713" y="151.531406" style="fill: #443983; fill-opacity: 0.8; stroke: #443983; stroke-opacity: 0.8"/>
    </g>
   </g>
   <g id="text_13">
    <!-- 0 -->
    <g style="fill: #262626" transform="translate(381.685713 154.418906) scale(0.11 -0.11)">
     <use xlink:href="#ArialMT-30"/>
    </g>
   </g>
   <g id="PathCollection_7">
    <g>
     <use xlink:href="#m1215863f44" x="361.885713" y="167.09125" style="fill: #31688e; fill-opacity: 0.8; stroke: #31688e; stroke-opacity: 0.8"/>
    </g>
   </g>
   <g id="text_14">
    <!-- 1 -->
    <g style="fill: #262626" transform="translate(381.685713 169.97875) scale(0.11 -0.11)">
     <use xlink:href="#ArialMT-31"/>
    </g>
   </g>
   <g id="PathCollection_8">
    <g>
     <use xlink:href="#m19b4e3d7e8" x="361.885713" y="182.651094" style="fill: #21918c; fill-opacity: 0.8; stroke: #21918c; stroke-opacity: 0.8"/>
    </g>
   </g>
   <g id="text_15">
    <!-- 2 -->
    <g style="fill: #262626" transform="translate(381.685713 185.538594) scale(0.11 -0.11)">
     <use xlink:href="#ArialMT-32"/>
    </g>
   </g>
   <g id="PathCollection_9">
    <g>
     <use xlink:href="#md8c1e8d1b7" x="361.885713" y="198.210938" style="fill: #35b779; fill-opacity: 0.8; stroke: #35b779; stroke-opacity: 0.8"/>
    </g>
   </g>
   <g id="text_16">
    <!-- 3 -->
    <g style="fill: #262626" transform="translate(381.685713 201.098437) scale(0.11 -0.11)">
     <use xlink:href="#ArialMT-33"/>
    </g>
   </g>
   <g id="PathCollection_10">
    <g>
     <use xlink:href="#m405bad5b49" x="361.885713" y="213.770781" style="fill: #90d743; fill-opacity: 0.8; stroke: #90d743; stroke-opacity: 0.8"/>
    </g>
   </g>
   <g id="text_17">
    <!-- 4 -->
    <g style="fill: #262626" transform="translate(381.685713 216.658281) scale(0.11 -0.11)">
     <use xlink:href="#ArialMT-34"/>
    </g>
   </g>
  </g>
 </g>
 <defs>
  <clipPath id="p3440f2f7db">
   <rect x="50.62" y="7.2" width="291.599553" height="299.7"/>
  </clipPath>
 </defs>
</svg>
